<svg width="24" height="24" viewBox="0 0 24 24" fill="none" xmlns="http://www.w3.org/2000/svg">
<g filter="url(#filter0_d_927_122)">
<circle cx="12" cy="12" r="8" fill="white"/>
<path fill-rule="evenodd" clip-rule="evenodd" d="M12.7263 12.0003L14.9867 9.73989C15.0313 9.69532 15.0667 9.6424 15.0908 9.58416C15.115 9.52591 15.1274 9.46348 15.1274 9.40043C15.1275 9.33738 15.1151 9.27494 15.0909 9.21669C15.0668 9.15843 15.0315 9.10549 14.9869 9.06089C14.9423 9.01629 14.8894 8.98091 14.8312 8.95677C14.7729 8.93262 14.7105 8.92018 14.6475 8.92017C14.5844 8.92015 14.522 8.93255 14.4637 8.95666C14.4055 8.98077 14.3525 9.01612 14.3079 9.06069L12.0475 11.3215L9.78671 9.06069C9.69566 8.97564 9.57512 8.9293 9.45054 8.93144C9.32596 8.93358 9.20708 8.98404 9.11901 9.07218C9.03093 9.16031 8.98053 9.27921 8.97847 9.40379C8.9764 9.52837 9.02281 9.64888 9.10791 9.73989L11.3687 12.0003L9.10791 14.2607C9.0411 14.328 8.99567 14.4135 8.97733 14.5065C8.959 14.5996 8.96859 14.6959 9.00488 14.7835C9.04118 14.8711 9.10257 14.946 9.18132 14.9988C9.26008 15.0517 9.35269 15.08 9.44751 15.0803C9.57031 15.0803 9.69311 15.0335 9.78671 14.9399L12.0475 12.6791L14.3079 14.9399C14.3524 14.9846 14.4053 15.02 14.4636 15.0442C14.5218 15.0684 14.5843 15.0808 14.6473 15.0808C14.7104 15.0808 14.7728 15.0684 14.8311 15.0442C14.8893 15.02 14.9422 14.9846 14.9867 14.9399C15.0313 14.8953 15.0667 14.8424 15.0909 14.7841C15.1151 14.7258 15.1275 14.6634 15.1275 14.6003C15.1275 14.5372 15.1151 14.4748 15.0909 14.4165C15.0667 14.3582 15.0313 14.3053 14.9867 14.2607L12.7263 12.0003Z" fill="#0F0F10"/>
</g>
<defs>
<filter id="filter0_d_927_122" x="-0.322679" y="-0.322579" width="24.6451" height="24.6452" filterUnits="userSpaceOnUse" color-interpolation-filters="sRGB">
<feFlood flood-opacity="0" result="BackgroundImageFix"/>
<feColorMatrix in="SourceAlpha" type="matrix" values="0 0 0 0 0 0 0 0 0 0 0 0 0 0 0 0 0 0 127 0" result="hardAlpha"/>
<feOffset/>
<feGaussianBlur stdDeviation="1.36129"/>
<feComposite in2="hardAlpha" operator="out"/>
<feColorMatrix type="matrix" values="0 0 0 0 0.466667 0 0 0 0 0.47451 0 0 0 0 0.52549 0 0 0 0.2 0"/>
<feBlend mode="normal" in2="BackgroundImageFix" result="effect1_dropShadow_927_122"/>
<feBlend mode="normal" in="SourceGraphic" in2="effect1_dropShadow_927_122" result="shape"/>
</filter>
</defs>
</svg>
