<svg width="20" height="20" viewBox="0 0 20 20" fill="none" xmlns="http://www.w3.org/2000/svg">
<path fill-rule="evenodd" clip-rule="evenodd" d="M11.5124 9.99998L16.2215 5.29081C16.3145 5.19796 16.3882 5.08771 16.4385 4.96637C16.4888 4.84503 16.5147 4.71497 16.5147 4.58361C16.5148 4.45225 16.4889 4.32218 16.4387 4.2008C16.3885 4.07943 16.3148 3.96914 16.222 3.87623C16.1291 3.78332 16.0189 3.70961 15.8975 3.65931C15.7762 3.609 15.6461 3.58309 15.5148 3.58305C15.3834 3.58301 15.2533 3.60885 15.132 3.65908C15.0106 3.70931 14.9003 3.78296 14.8074 3.87581L10.0982 8.58581L5.38822 3.87581C5.19851 3.69863 4.94739 3.60208 4.68785 3.60654C4.42831 3.61101 4.18065 3.71613 3.99715 3.89974C3.81366 4.08334 3.70867 4.33106 3.70436 4.59061C3.70005 4.85015 3.79675 5.10122 3.97405 5.29081L8.68405 9.99998L3.97405 14.7091C3.83485 14.8493 3.7402 15.0275 3.70201 15.2213C3.66381 15.4151 3.68378 15.6159 3.7594 15.7984C3.83501 15.9809 3.96291 16.137 4.12699 16.247C4.29106 16.357 4.48401 16.416 4.68155 16.4166C4.93738 16.4166 5.19322 16.3191 5.38822 16.1241L10.0982 11.4141L14.8074 16.1241C14.9001 16.2172 15.0103 16.291 15.1317 16.3414C15.253 16.3918 15.3831 16.4177 15.5145 16.4177C15.6458 16.4177 15.7759 16.3918 15.8973 16.3414C16.0186 16.291 16.1288 16.2172 16.2215 16.1241C16.3145 16.0313 16.3883 15.921 16.4386 15.7996C16.4889 15.6782 16.5148 15.5481 16.5148 15.4166C16.5148 15.2852 16.4889 15.1551 16.4386 15.0337C16.3883 14.9123 16.3145 14.802 16.2215 14.7091L11.5124 9.99998Z" fill="#161616"/>
</svg>
