<svg width="18" height="18" viewBox="0 0 18 18" fill="none" xmlns="http://www.w3.org/2000/svg">
<path d="M10.9163 9.91392C10.537 10.2696 10.0343 10.4638 9.51439 10.4554C8.9945 10.447 8.49825 10.2368 8.13059 9.86914C7.76292 9.50148 7.55268 9.00523 7.54433 8.48534C7.53597 7.96546 7.73016 7.4627 8.08581 7.08342L9.85506 5.31342C10.2123 4.95661 10.6912 4.74793 11.1957 4.72916C11.7003 4.71038 12.1933 4.8829 12.5761 5.21217M12.3323 2.83692C12.517 2.64589 12.7379 2.49354 12.9821 2.38877C13.2262 2.28399 13.4888 2.22887 13.7546 2.22663C14.0203 2.22439 14.2837 2.27508 14.5297 2.37573C14.7756 2.47637 14.999 2.62497 15.1869 2.81286C15.3748 3.00075 15.5234 3.22416 15.624 3.47007C15.7247 3.71599 15.7753 3.97948 15.7731 4.24518C15.7709 4.51088 15.7157 4.77348 15.611 5.01766C15.5062 5.26184 15.3538 5.48272 15.1628 5.66742L13.3936 7.43742C13.0363 7.79422 12.5575 8.0029 12.0529 8.02167C11.5484 8.04045 11.0553 7.86793 10.6726 7.53867" stroke="black" stroke-width="1.125" stroke-linecap="round" stroke-linejoin="round"/>
<path d="M15.75 9.75006C15.75 12.5783 15.75 13.9928 14.871 14.8711C13.992 15.7493 12.5782 15.7501 9.75 15.7501H8.25C5.42175 15.7501 4.00725 15.7501 3.129 14.8711C2.25075 13.9921 2.25 12.5783 2.25 9.75006V8.25006C2.25 5.42181 2.25 4.00731 3.129 3.12906C4.008 2.25081 5.42175 2.25006 8.25 2.25006" stroke="black" stroke-width="1.125" stroke-linecap="round" stroke-linejoin="round"/>
</svg>
