<svg width="16" height="17" viewBox="0 0 16 17" fill="none" xmlns="http://www.w3.org/2000/svg">
<path d="M7.3335 3.16667H2.66683C2.31321 3.16667 1.97407 3.30715 1.72402 3.5572C1.47397 3.80724 1.3335 4.14638 1.3335 4.50001V13.8333C1.3335 14.187 1.47397 14.5261 1.72402 14.7761C1.97407 15.0262 2.31321 15.1667 2.66683 15.1667H12.0002C12.3538 15.1667 12.6929 15.0262 12.943 14.7761C13.193 14.5261 13.3335 14.187 13.3335 13.8333V9.16667" stroke="#404252" stroke-width="1.33333" stroke-linecap="round" stroke-linejoin="round"/>
<path d="M12.3335 2.16665C12.5987 1.90144 12.9584 1.75244 13.3335 1.75244C13.7086 1.75244 14.0683 1.90144 14.3335 2.16665C14.5987 2.43187 14.7477 2.79158 14.7477 3.16665C14.7477 3.54173 14.5987 3.90144 14.3335 4.16665L8.00016 10.5L5.3335 11.1667L6.00016 8.49999L12.3335 2.16665Z" stroke="#404252" stroke-width="1.33333" stroke-linecap="round" stroke-linejoin="round"/>
</svg>
