<svg width="15" height="14" viewBox="0 0 15 14" fill="none" xmlns="http://www.w3.org/2000/svg">
<mask id="mask0_927_1125" style="mask-type:luminance" maskUnits="userSpaceOnUse" x="1" y="1" width="13" height="12">
<path fill-rule="evenodd" clip-rule="evenodd" d="M1.50024 1.16681H13.1433V12.8042H1.50024V1.16681Z" fill="white"/>
</mask>
<g mask="url(#mask0_927_1125)">
<path fill-rule="evenodd" clip-rule="evenodd" d="M4.79604 2.04165C3.32545 2.04165 2.3752 3.04907 2.3752 4.60774V9.36307C2.3752 10.9223 3.32545 11.9292 4.79604 11.9292H9.84187C11.316 11.9292 12.2685 10.9223 12.2685 9.36307V4.60774C12.2685 3.04907 11.316 2.04165 9.84187 2.04165H4.79604ZM9.84191 12.8041H4.79608C2.82441 12.8041 1.50024 11.421 1.50024 9.36303V4.60769C1.50024 2.54969 2.82441 1.16661 4.79608 1.16661H9.84191C11.8165 1.16661 13.1436 2.54969 13.1436 4.60769V9.36303C13.1436 11.421 11.8165 12.8041 9.84191 12.8041Z" fill="#B3B5BD"/>
</g>
<path fill-rule="evenodd" clip-rule="evenodd" d="M3.41407 10.0219C3.30557 10.0219 3.19765 9.98223 3.11307 9.90173C2.93748 9.73607 2.93048 9.4584 3.09673 9.28398L3.98807 8.34307C4.45998 7.84198 5.25623 7.81748 5.75965 8.28998L6.31848 8.85698C6.47423 9.01448 6.7274 9.0174 6.88373 8.8634C6.94265 8.79398 8.21315 7.25107 8.21315 7.25107C8.45465 6.95823 8.79532 6.7774 9.1739 6.74007C9.55307 6.70682 9.92115 6.81707 10.2146 7.05798C10.2396 7.0784 10.2624 7.09823 11.5434 8.41365C11.712 8.58632 11.7091 8.8634 11.5358 9.03198C11.3631 9.20173 11.0855 9.19648 10.9169 9.02382C10.9169 9.02382 9.72165 7.79707 9.63648 7.71423C9.54607 7.64015 9.40082 7.59698 9.2579 7.61098C9.11265 7.62557 8.98198 7.69498 8.88923 7.80757C7.53357 9.45198 7.51723 9.46773 7.49507 9.48932C6.99457 9.98048 6.18665 9.97232 5.6949 9.47065C5.6949 9.47065 5.1524 8.91998 5.14307 8.9089C5.00832 8.78407 4.76798 8.79223 4.6239 8.94448L3.7314 9.8854C3.64507 9.9764 3.52957 10.0219 3.41407 10.0219Z" fill="#B3B5BD"/>
<path fill-rule="evenodd" clip-rule="evenodd" d="M5.32524 4.74185C5.00265 4.74185 4.74015 5.00435 4.74015 5.32751C4.74015 5.65068 5.00265 5.91376 5.32582 5.91376C5.64899 5.91376 5.91207 5.65068 5.91207 5.32751C5.91207 5.00493 5.64899 4.74243 5.32524 4.74185ZM5.3259 6.78872C4.52032 6.78872 3.86523 6.13306 3.86523 5.32747C3.86523 4.52189 4.52032 3.86681 5.3259 3.86681C6.13207 3.86739 6.78715 4.52306 6.78715 5.32747C6.78715 6.13306 6.13148 6.78872 5.3259 6.78872Z" fill="#B3B5BD"/>
</svg>
