<svg width="49" height="48" viewBox="0 0 49 48" fill="none" xmlns="http://www.w3.org/2000/svg">
<rect x="0.5" width="48" height="48" rx="6" fill="#FEE500"/>
<path d="M24.299 15.0001C18.8878 15.0001 14.5 18.3708 14.5 22.5314C14.5 25.2038 16.3173 27.5503 19.0466 28.8895L18.1232 32.2429C18.0879 32.3459 18.1172 32.4549 18.1939 32.5291C18.2467 32.5809 18.3172 32.6094 18.3937 32.6094C18.4527 32.6094 18.5113 32.5865 18.5643 32.5465L22.5345 29.9367C23.1111 30.0168 23.6993 30.0625 24.299 30.0625C29.7103 30.0625 34.0985 26.6919 34.0985 22.5314C34.0985 18.3708 29.7103 15.0001 24.299 15.0001Z" fill="#3C1E1E"/>
</svg>
