<svg width="50" height="50" viewBox="0 0 50 50" fill="none" xmlns="http://www.w3.org/2000/svg">
<rect width="50" height="50" rx="25" fill="white"/>
<path d="M27.6612 26.2687C27.1344 26.7626 26.4362 27.0323 25.7141 27.0207C24.992 27.0091 24.3028 26.7171 23.7921 26.2065C23.2815 25.6959 22.9895 25.0066 22.9779 24.2845C22.9663 23.5625 23.236 22.8642 23.73 22.3374L26.1873 19.8791C26.6834 19.3835 27.3485 19.0937 28.0493 19.0676C28.75 19.0415 29.4348 19.2812 29.9664 19.7385M29.6279 16.4395C29.8844 16.1742 30.1912 15.9626 30.5303 15.8171C30.8695 15.6716 31.2342 15.595 31.6032 15.5919C31.9722 15.5888 32.3382 15.6592 32.6797 15.799C33.0213 15.9388 33.3316 16.1451 33.5925 16.4061C33.8535 16.6671 34.0599 16.9774 34.1997 17.3189C34.3395 17.6604 34.4099 18.0264 34.4067 18.3954C34.4036 18.7645 34.3271 19.1292 34.1816 19.4683C34.036 19.8075 33.8244 20.1142 33.5591 20.3708L31.1018 22.8291C30.6057 23.3247 29.9406 23.6145 29.2398 23.6406C28.5391 23.6666 27.8543 23.427 27.3227 22.9697" stroke="#404252" stroke-width="1.5625" stroke-linecap="round" stroke-linejoin="round"/>
<path d="M34.375 26.0407C34.375 29.9688 34.375 31.9334 33.1542 33.1532C31.9333 34.373 29.9698 34.374 26.0417 34.374H23.9583C20.0302 34.374 18.0656 34.374 16.8458 33.1532C15.626 31.9324 15.625 29.9688 15.625 26.0407V23.9574C15.625 20.0292 15.625 18.0646 16.8458 16.8449C18.0667 15.6251 20.0302 15.624 23.9583 15.624" stroke="#404252" stroke-width="1.5625" stroke-linecap="round" stroke-linejoin="round"/>
</svg>
