<svg width="49" height="48" viewBox="0 0 49 48" fill="none" xmlns="http://www.w3.org/2000/svg">
<rect x="0.5" width="48" height="48" rx="6" fill="#F3F4F8"/>
<path d="M27.0549 25.2186C26.5492 25.6928 25.8789 25.9517 25.1857 25.9405C24.4925 25.9294 23.8308 25.6491 23.3406 25.1589C22.8504 24.6686 22.5701 24.007 22.5589 23.3138C22.5478 22.6206 22.8067 21.9503 23.2809 21.4446L25.6399 19.0846C26.1162 18.6088 26.7547 18.3306 27.4274 18.3055C28.1002 18.2805 28.7576 18.5105 29.2679 18.9496M28.9429 15.7826C29.1892 15.5279 29.4837 15.3247 29.8093 15.185C30.1348 15.0453 30.485 14.9718 30.8392 14.9688C31.1935 14.9659 31.5448 15.0334 31.8727 15.1676C32.2006 15.3018 32.4985 15.5 32.749 15.7505C32.9995 16.001 33.1976 16.2989 33.3318 16.6268C33.466 16.9546 33.5336 17.306 33.5306 17.6602C33.5276 18.0145 33.4542 18.3646 33.3145 18.6902C33.1748 19.0158 32.9716 19.3103 32.7169 19.5566L30.3579 21.9166C29.8816 22.3923 29.2431 22.6705 28.5704 22.6956C27.8977 22.7206 27.2403 22.4906 26.7299 22.0516" stroke="#404252" stroke-width="1.5" stroke-linecap="round" stroke-linejoin="round"/>
<path d="M33.5 25C33.5 28.771 33.5 30.657 32.328 31.828C31.156 32.999 29.271 33 25.5 33H23.5C19.729 33 17.843 33 16.672 31.828C15.501 30.656 15.5 28.771 15.5 25V23C15.5 19.229 15.5 17.343 16.672 16.172C17.844 15.001 19.729 15 23.5 15" stroke="#404252" stroke-width="1.5" stroke-linecap="round" stroke-linejoin="round"/>
</svg>
