<svg width="128" height="26" viewBox="0 0 128 26" fill="none" xmlns="http://www.w3.org/2000/svg">
<path d="M8.0137 21.1136H4.10303V4.92245H12.1628C15.2151 4.92245 17.695 7.16393 17.695 10.3354C17.695 13.4711 15.2151 15.8199 12.1628 15.8199H8.0137V21.1136ZM8.0137 8.26082V12.4815H11.3163C12.7947 12.4815 13.677 11.4204 13.677 10.3354C13.677 9.1908 12.8067 8.26082 11.3163 8.26082H8.0137Z" fill="#0F0F10"/>
<path d="M24.0498 4.92245V21.1136H20.1272V4.92245H24.0498Z" fill="#0F0F10"/>
<path d="M35.4003 21.352C30.5954 21.352 26.8636 17.7752 26.8636 13.0061C26.8636 8.23698 30.5954 4.68399 35.4003 4.68399C38.2737 4.68399 41.1471 6.2578 42.6255 8.72581L39.6091 10.9554C38.6195 9.4531 37.3914 8.35621 35.4003 8.35621C32.67 8.35621 30.8816 10.3115 30.8816 13.0061C30.8816 15.7006 32.67 17.6798 35.4003 17.6798C37.2007 17.6798 38.5599 16.7975 39.6806 15.1045L42.6851 17.2983C41.1471 19.8498 38.4645 21.352 35.4003 21.352Z" fill="#0F0F10"/>
<path d="M49.0161 21.1136H45.0935V4.92245H49.0161V11.7423L55.3233 4.92245H60.2712L53.9641 11.6469L60.5455 21.1136H55.7764L51.0907 14.1388L49.0161 16.2729V21.1136Z" fill="#0F0F10"/>
<path d="M60.5216 8.29659V4.92245H74.0063V8.29659H69.2252V21.1136H65.3146V8.29659H60.5216Z" fill="#0F0F10"/>
<path d="M82.7099 21.352C78.1316 21.352 74.2567 17.811 74.2567 13.0061C74.2567 8.33236 78.0243 4.68399 82.7099 4.68399C87.3956 4.68399 91.1751 8.34428 91.1751 13.0061C91.1751 17.5487 87.5148 21.352 82.7099 21.352ZM82.7099 8.48736C80.1823 8.48736 78.2866 10.3831 78.2866 13.0061C78.2866 15.5933 80.0869 17.5606 82.7099 17.5606C85.2018 17.5606 87.1571 15.7364 87.1571 13.0061C87.1571 10.3831 85.2495 8.48736 82.7099 8.48736Z" fill="#0F0F10"/>
<path d="M97.9115 21.1136H94.0008V4.92245H102.18C105.232 4.92245 107.712 7.08047 107.712 10.1804C107.712 12.4934 106.412 14.2699 104.529 15.0687L107.915 21.1255H103.682L100.618 15.5337H97.9115V21.1136ZM97.9115 8.26082V12.1953H101.333C102.812 12.1953 103.694 11.325 103.694 10.1804C103.694 9.10734 102.824 8.26082 101.333 8.26082H97.9115Z" fill="#0F0F10"/>
<path d="M108.058 4.92245H112.863L116.606 11.0984L120.41 4.92245H125L118.514 15.0926V21.1136H114.591V15.0926L108.058 4.92245Z" fill="#0F0F10"/>
</svg>
