<svg width="212" height="213" viewBox="0 0 212 213" fill="none" xmlns="http://www.w3.org/2000/svg">
<g clip-path="url(#clip0_1478_59595)">
<path d="M206.357 114.51C203.641 105.866 201.576 99.243 198.307 91.0067C195.075 82.8702 188.745 74.3078 182.85 67.9109C176.846 61.3962 169.847 55.7333 162.775 50.4599C160.411 48.7021 157.016 46.8265 154.616 45.1231C153.004 43.9815 152.316 43.0845 150.568 42.0968C149.98 41.7616 145.887 36.9322 145.932 36.162C146.122 33.1176 148.558 27.6359 150.713 25.7875C152.479 24.2743 153.674 21.683 154.263 19.4631C155.304 15.5217 152.606 12.5769 149.364 10.8282C142.88 7.33982 135.22 6.58778 128.646 3.19906C124.698 1.16039 120.713 -0.40712 116.204 0.0912212C111.205 0.643927 106.424 2.27486 101.344 2.22956C95.8479 2.18425 90.2518 1.41409 84.882 2.99066C79.2316 4.64878 74.3418 7.53915 68.963 9.94931C65.0059 11.7252 63.1315 14.4978 64.1366 18.4302C65.3138 23.0421 70.9189 28.4242 73.0469 32.9817H72.9654C72.3316 35.6003 74.6316 37.4215 72.0056 37.9742L71.1815 38.3366C61.7008 40.6834 48.5164 49.2458 42.3136 56.2225C30.8769 69.0797 21.9938 79.563 14.2697 95.3378C-3.57807 131.78 -10.3242 164.861 28.1513 201.448C30.6324 203.804 33.1135 206.223 36.138 207.809C39.9593 209.811 44.3148 210.5 48.5979 210.998C66.2736 213.073 83.6868 212.828 101.39 211.75C121.637 210.527 146.475 216.09 166.152 210.31C183.819 205.118 215.856 177.591 211.637 136.102C211.12 131.01 210.287 127.34 208.811 122.429C208.024 119.811 207.218 117.165 206.375 114.501L206.357 114.51Z" fill="#96E700"/>
<path d="M124.615 32.6742C124.742 32.3028 124.877 31.9403 125.013 31.5779C125.149 31.2155 125.294 30.853 125.448 30.4906C125.502 30.3638 125.557 30.2369 125.611 30.101C125.765 29.7295 125.375 30.6537 125.547 30.255C125.656 30.0013 125.765 29.7567 125.873 29.503C126.344 28.4519 126.851 27.419 127.422 26.4133C127.712 25.8968 128.029 25.3894 128.364 24.8911C128.436 24.7914 128.499 24.6917 128.572 24.5921C128.681 24.438 129.07 24.0031 128.563 24.5921C128.735 24.3927 128.898 24.1843 129.079 23.985C129.912 23.0699 130.048 21.5295 129.079 20.6416C128.174 19.808 126.625 19.663 125.738 20.6416C124.035 22.5262 122.831 24.8186 121.799 27.12C121.174 28.5244 120.567 29.956 120.069 31.4148C119.671 32.5836 120.531 34.0515 121.717 34.3233C123.03 34.6223 124.198 33.9246 124.624 32.6742H124.615Z" fill="#92DD05"/>
<path d="M89.1321 21.663C89.286 21.808 89.4309 21.962 89.5758 22.1161C89.6573 22.2067 89.7297 22.2973 89.8022 22.3788C90.0104 22.6144 89.7297 22.3154 89.6844 22.2339C89.8927 22.6144 90.1825 22.9678 90.3998 23.3483C90.6171 23.7289 90.7892 24.1004 90.9703 24.49C91.0155 24.5987 91.0699 24.7075 91.1152 24.8162C91.2419 25.1061 91.0789 24.7437 91.0427 24.644C91.1242 24.8705 91.2238 25.088 91.3144 25.3145C92.0297 27.1267 92.6817 28.9841 93.714 30.6422C94.375 31.6933 95.851 32.2007 96.9467 31.494C98.0424 30.7872 98.4951 29.3828 97.7979 28.2593C97.5534 27.8697 97.327 27.471 97.1278 27.0542C97.0282 26.8549 96.9376 26.6646 96.8471 26.4652C96.7928 26.3565 96.7475 26.2478 96.7022 26.13C96.5573 25.7857 96.7022 26.0303 96.7384 26.2297C96.6388 25.7947 96.3853 25.3598 96.2223 24.943C96.0593 24.5262 95.8872 24.0823 95.7152 23.6564C94.9183 21.7083 94.0219 19.8056 92.4825 18.3196C91.5951 17.4589 90.0104 17.3683 89.1411 18.3196C88.2718 19.271 88.1903 20.7479 89.1411 21.663H89.1321Z" fill="#92DD05"/>
<path d="M107.176 17.5239C107.176 21.4834 106.669 25.5064 107.176 29.4569C107.257 30.1093 107.384 30.6439 107.864 31.1331C108.271 31.5409 108.951 31.8489 109.539 31.8218C110.68 31.7674 112.075 30.7707 111.903 29.4569C111.396 25.5155 111.903 21.4834 111.903 17.5239C111.903 16.2826 110.816 15.1047 109.539 15.159C108.262 15.2134 107.176 16.201 107.176 17.5239Z" fill="#92DD05"/>
<path d="M67.4714 36.7432C75.1955 34.4599 82.8834 34.2696 91.6759 33.9163C98.7209 33.6354 106.608 34.3784 113.662 34.5505C117.157 34.6321 120.643 34.8314 124.13 35.0307C131.347 35.4385 138.79 34.4962 151.096 37.6402" fill="#FFE3E3"/>
<path d="M68.8649 41.8171C70.2413 41.4184 71.6358 41.065 73.0484 40.7751C73.6823 40.6482 74.3162 40.5214 74.9591 40.4127C75.2126 40.3673 75.4662 40.322 75.7288 40.2858C76.0276 40.2405 77.7752 39.9234 76.254 40.1952C78.9705 39.7059 81.8139 39.6334 84.5576 39.4885C90.534 39.1713 96.4742 39.0535 102.451 39.3254C108.509 39.5972 114.585 39.7875 120.642 40.1046C124.926 40.3311 129.2 40.3764 133.483 40.4942C136.009 40.5576 138.526 40.7207 141.035 41.0107L141.379 41.056C141.958 41.1285 141.841 41.1103 141.035 41.0016C141.424 40.9744 141.913 41.1285 142.302 41.1919C143.063 41.3097 143.815 41.4365 144.566 41.5815C146.287 41.9077 147.998 42.2882 149.692 42.7231C152.354 43.3936 155.523 41.8624 156.157 39.0445C156.791 36.2266 155.333 33.2909 152.481 32.5751C146.939 31.1798 141.252 30.319 135.538 30.0472C131.445 29.8569 127.334 29.9566 123.241 29.73C117.011 29.3857 110.781 29.2136 104.551 28.9055C98.4754 28.6065 92.4628 28.6065 86.3867 28.8783C79.5591 29.1864 72.65 29.7572 66.0578 31.6781C63.4228 32.4483 61.5031 35.4202 62.3814 38.1475C63.2598 40.8748 66.0216 42.6507 68.8468 41.8261L68.8649 41.8171Z" fill="#D2FB60"/>
<path d="M103.561 36.1259C97.5662 34.6308 91.5354 32.9002 85.396 32.121C81.7739 31.6589 78.2605 32.0576 74.6927 32.7371C72.8545 33.0905 70.9439 33.607 69.4407 34.7486C67.9376 35.8903 66.6699 37.5303 65.5742 39.134C63.7088 41.8613 62.9301 44.8695 62.6856 48.1314C62.5226 50.2697 62.6312 52.2812 63.6364 54.2383C64.5691 56.0414 66.3891 57.174 68.2092 57.917C72.0486 59.4935 76.0601 58.669 79.8089 57.2736C84.1735 55.6518 88.6649 54.3289 92.9661 52.5439C97.2673 50.759 101.668 48.4938 105.698 45.8571C108.233 44.199 105.87 40.1035 103.307 41.7707C100.138 43.8366 96.8236 45.6759 93.3736 47.2434C89.9236 48.8109 86.4464 49.8257 82.933 51.0489C79.7818 52.1453 76.54 53.9484 73.1443 54.0752C71.5778 54.1296 70.0022 53.7671 68.6801 52.8882C67.4667 52.0728 67.2584 50.7318 67.3309 49.3546C67.4667 46.6907 67.8651 44.353 69.2325 42.1694C70.0112 40.9281 70.962 39.5418 72.1211 38.6266C73.1986 37.7749 74.7199 37.5303 76.042 37.2856C76.866 37.1316 77.6991 36.9866 78.5322 36.8598C78.7948 36.8235 79.1207 36.7873 78.6408 36.8417C78.8038 36.8235 78.9577 36.8054 79.1207 36.7873C79.5101 36.742 79.8995 36.7058 80.2889 36.6786C81.783 36.5789 83.2861 36.6242 84.7802 36.7873C84.8798 36.7964 85.5861 36.887 85.2783 36.8417C84.9885 36.8054 85.6676 36.896 85.8125 36.9232C86.3558 37.0048 86.9082 37.1044 87.4515 37.2041C88.7011 37.4397 89.9507 37.7024 91.1913 37.9924C94.913 38.835 98.6165 39.7773 102.311 40.7015C105.263 41.4355 106.522 36.8779 103.57 36.144L103.561 36.1259Z" fill="#F1FFD7"/>
<path d="M102.534 36.9524C102.425 37.8494 102.434 38.7283 102.407 39.6253C102.407 39.725 102.389 39.8428 102.407 39.9425C102.334 39.3626 102.525 39.1633 102.443 39.58C102.389 39.8337 102.334 40.0874 102.289 40.3411C102.153 41.1113 102.253 41.8634 102.362 42.6335C102.479 43.4762 102.697 44.201 103.005 44.9984C103.059 45.1433 103.113 45.2883 103.177 45.4242C103.358 45.8229 103.131 45.0709 103.149 44.9802C103.104 45.2521 103.113 45.5601 103.113 45.832C103.104 46.5387 103.43 47.472 103.983 47.9884C104.191 48.1787 103.72 47.2364 103.847 47.626C103.901 47.7981 103.964 47.9612 104.028 48.1334C104.155 48.4868 104.29 48.8401 104.472 49.1663C104.671 49.5197 104.888 49.9727 105.187 50.2445C105.649 50.6704 106.183 50.8426 106.762 50.9785C107.912 51.2503 109.443 50.6251 109.669 49.3294C109.769 48.7223 109.914 48.1425 110.04 47.5444C110.14 47.0642 110.158 46.5749 110.122 46.0857C110.077 45.5058 109.995 46.6384 110.049 46.3937C110.095 46.1944 110.122 45.986 110.167 45.7776C110.303 45.0437 110.285 44.3551 110.258 43.6121C110.24 43.1681 110.258 42.6426 110.122 42.2167C110.022 41.9087 109.886 41.6097 109.76 41.3016V42.561C109.932 41.9177 110.167 41.2835 110.077 40.6039C109.995 39.9787 109.624 39.3626 109.343 38.7918L109.669 39.9878C109.669 39.281 109.687 38.6196 109.416 37.9491C109.225 37.4689 109.072 36.9887 108.918 36.4994C108.555 35.3215 107.251 34.4426 106.011 34.8503C104.77 35.2581 103.964 36.4903 104.363 37.7588C104.462 38.076 104.553 38.4022 104.662 38.7102C104.725 38.8824 104.797 39.0455 104.861 39.2086C104.906 39.3173 104.942 39.4532 105.006 39.5529C105.16 39.8156 104.97 38.7283 104.942 39.0455C104.888 39.7703 104.97 40.5224 105.268 41.1747C105.413 41.4919 105.567 41.7999 105.721 42.108L105.486 40.2868C105.395 40.622 105.286 40.9482 105.214 41.2835C105.042 42.0355 105.205 42.6698 105.513 43.3312C105.775 43.8839 105.495 42.4614 105.513 43.1137C105.513 43.3221 105.531 43.5396 105.54 43.748C105.558 44.0832 105.531 44.4457 105.576 44.7719C105.631 45.1524 105.721 43.9836 105.649 44.3007C105.631 44.3913 105.612 44.4728 105.603 44.5635C105.567 44.7719 105.522 44.9803 105.486 45.1796C105.404 45.6689 105.35 46.2306 105.413 46.738C105.459 47.1186 105.576 45.9588 105.486 46.2669C105.459 46.3484 105.44 46.439 105.422 46.5296C105.377 46.738 105.314 46.9374 105.277 47.1458C105.214 47.4448 105.169 47.7528 105.114 48.0518L108.021 46.4028L107.487 46.2759L108.899 47.3632C108.773 47.1458 108.664 46.8558 108.492 46.6655C108.401 46.5659 108.791 47.4538 108.637 47.0008C108.583 46.8286 108.51 46.6565 108.456 46.4843C108.22 45.832 107.903 45.3427 107.514 44.7809L107.84 45.9769C107.867 45.4333 107.958 44.8081 107.795 44.2735C107.686 43.9383 107.532 43.6121 107.405 43.2768C107.279 42.9416 107.134 42.5882 107.061 42.2348C107.007 41.9811 106.989 41.7184 106.944 41.4647C106.88 41.0298 107.016 42.2439 107.007 41.9177C107.007 41.818 106.989 41.7184 106.989 41.6278C106.971 41.4284 106.998 41.1657 106.944 40.9754C107.052 41.3288 106.799 41.8271 106.898 41.3831C106.925 41.2472 106.953 41.1023 106.98 40.9663C107.098 40.3955 107.152 39.8337 107.161 39.2539C107.179 38.4656 107.188 37.7045 107.279 36.9252C107.423 35.693 106.092 34.506 104.915 34.5604C103.512 34.6238 102.706 35.6024 102.552 36.9252L102.534 36.9524Z" fill="#F1FFD7"/>
<path d="M108.914 41.7054C112.084 40.0925 115.615 39.5217 119.065 38.815C120.894 38.4435 122.723 38.0267 124.489 37.4106C126.128 36.8397 127.658 36.0786 129.343 35.6165C131.027 35.1544 132.566 34.8736 134.214 34.7014C135.745 34.5292 137.465 34.2484 138.996 34.4658C140.526 34.6833 141.938 35.4353 143.161 36.3052C143.396 36.4682 143.614 36.6404 143.831 36.8307C143.931 36.9122 144.519 37.4106 144.121 37.0481C144.275 37.184 144.383 37.5012 144.202 37.0934C144.32 37.3562 144.383 37.6371 144.465 37.9089C145.47 41.2614 146.095 44.8041 146.167 48.3197C146.194 49.7785 146.04 51.2826 145.216 52.5239C144.465 53.6565 143.261 54.0461 141.938 54.1095C136.587 54.3542 131.661 51.2101 127.178 48.3831C121.691 44.9219 116.013 41.0892 109.34 40.7449C106.297 40.5909 106.306 45.3206 109.34 45.4746C115.18 45.7827 120.568 49.8238 125.485 52.8954C130.9 56.2841 137.112 59.7544 143.749 58.6399C147.897 57.9422 150.324 54.3904 150.794 50.4127C151.039 48.3922 150.794 46.3807 150.55 44.3692C150.305 42.3577 150.052 40.1469 149.472 38.1082C149.101 36.7944 148.775 35.3719 147.915 34.2846C146.883 32.9708 145.316 31.9379 143.831 31.1949C142.056 30.3069 140.1 29.6727 138.099 29.6908C136.098 29.7089 134.187 29.9536 132.258 30.2254C130.194 30.5244 128.12 30.9503 126.164 31.6842C124.036 32.4906 122.008 33.3242 119.771 33.8406C115.262 34.8917 110.734 35.4987 106.551 37.628C105.41 38.2079 105.084 39.8117 105.7 40.8627C106.379 42.0225 107.791 42.2943 108.932 41.7144L108.914 41.7054Z" fill="#F1FFD7"/>
<path d="M99.3019 113.159C97.5271 103.138 96.7121 92.9625 96.8479 82.7873C96.9566 74.2974 97.3097 65.3997 100.262 57.3447C101.72 53.358 104.029 49.779 107.289 47.0427C108.267 46.2181 108.14 44.5419 107.289 43.6992C106.32 42.7297 104.925 42.8747 103.947 43.6992C97.3912 49.1991 94.5298 57.7072 93.3164 65.9253C91.8404 75.9464 91.8042 86.2848 92.5105 96.3784C92.9361 102.422 93.6877 108.447 94.7471 114.418C94.9735 115.678 96.5038 116.385 97.6538 116.067C98.9759 115.705 99.5283 114.418 99.3019 113.159Z" fill="#F1FFD7"/>
<path d="M107.609 45.4319C115.37 55.2537 118.666 67.7575 120.477 79.9261C122.596 94.1968 123.139 108.739 124.099 123.128C124.678 131.754 125.249 140.379 125.828 149.005C125.91 150.283 126.852 151.37 128.192 151.37C129.405 151.37 130.646 150.283 130.555 149.005C129.505 133.339 128.536 117.673 127.386 102.016C126.39 88.4704 125.412 74.5893 121.174 61.5962C118.874 54.5379 115.56 47.9326 110.951 42.0975C110.154 41.0918 108.433 41.2639 107.609 42.0975C106.622 43.0851 106.812 44.4352 107.609 45.4409V45.4319Z" fill="#F1FFD7"/>
</g>
<defs>
<clipPath id="clip0_1478_59595">
<rect width="212" height="213" fill="white"/>
</clipPath>
</defs>
</svg>
