<svg width="202" height="200" viewBox="0 0 202 200" fill="none" xmlns="http://www.w3.org/2000/svg">
<path d="M53.6043 183.279C50.2674 182.051 47.6061 177.633 46.7391 177.298C45.5996 176.285 44.3382 175.595 43.3755 174.374C42.5651 173.347 41.9185 172.351 41.2668 171.217C34.7214 159.834 33 146.687 33 133.726C33.0001 131.576 33.2329 129.064 33.2329 126.921C33.2329 123.697 33.4658 120.499 33.4658 117.283C33.4658 113.156 33.8217 108.898 34.3455 104.825C34.7056 102.024 34.793 99.0932 35.4581 96.3378C36.0207 94.007 36.0077 91.5907 36.5965 89.2354C37.258 86.5894 36.6143 83.5432 37.0105 80.8134C37.6664 76.2949 38.8293 71.7015 40.2189 67.3589C40.8593 64.6091 42.3055 59.5867 42.8034 56.8128C43.6519 52.0849 46.4363 48.5764 48.0219 44.1719C49.3302 40.538 52.1918 36.8885 54.4513 33.8074C56.0075 31.6854 57.9086 29.7951 59.6336 27.8018C61.3272 25.8448 62.9676 23.9112 64.9006 22.1716C65.7326 21.4227 66.5064 20.612 67.2941 19.8168C65.8372 18.8455 65.4666 15.3987 65.4666 13.7868C65.4666 10.7607 66.4406 7.98602 68.2397 5.54437C68.7275 4.88236 69.5495 4.32124 70.1463 3.72448C70.658 3.21274 71.221 2.57797 71.841 2.2031C73.4643 1.22155 75.4131 0.715395 77.214 0.258028C82.5364 -1.09368 90.9211 3.15011 94.6016 6.83068C95.6432 6.54334 96.7668 6.86591 97.8224 6.5643C99.2463 6.15746 100.311 5.92734 101.963 5.94201C103.549 5.95609 104.505 6.15746 105.929 6.5643C106.985 6.86591 108.108 6.54334 109.15 6.83068C112.831 3.15011 120.968 -1.09475 126.291 0.256956C128.092 0.714324 130.04 1.22048 131.664 2.20202C132.284 2.5769 132.847 3.21166 133.358 3.72341C133.955 4.32016 134.777 4.88129 135.265 5.5433C137.064 7.98495 138.038 10.7596 138.038 13.7858C138.038 15.3977 137.42 18.3516 135.963 19.3229C136.926 20.2718 137.846 21.2668 138.851 22.1716C140.784 23.9112 142.424 25.8448 144.118 27.8018C145.843 29.7951 147.744 31.6854 149.3 33.8074C151.56 36.8885 154.421 40.538 155.73 44.1719C157.315 48.5764 160.1 52.0849 160.948 56.8128C161.446 59.5867 162.892 64.6091 163.533 67.3589C164.922 71.7015 166.085 76.2949 166.741 80.8134C167.137 83.5432 166.494 86.5894 167.155 89.2354C167.744 91.5907 167.731 94.007 168.294 96.3378C168.959 99.0932 169.046 102.024 169.406 104.825C169.93 108.898 170.286 113.156 170.286 117.283C170.286 120.499 170.519 123.697 170.519 126.921C170.519 129.064 170.752 131.576 170.752 133.726C170.752 146.687 169.03 159.834 162.485 171.217C161.833 172.351 161.187 173.347 160.376 174.374C159.413 175.595 158.152 176.285 157.013 177.298C156.146 177.633 153.484 182.051 150.147 183.279C149.53 183.507 149.072 183.581 148.532 183.756C147.655 184.04 146.854 184.495 145.963 184.762C145.041 185.039 144.097 185.468 143.141 185.61C142.57 185.694 142.034 185.874 141.557 186.192C141.473 188.407 141.293 190.785 140.301 192.921C139.893 193.797 139.533 195.005 139.007 195.794C138.108 197.143 135.813 197.932 134.323 198.256C132.456 198.662 130.648 199.658 128.729 199.818C125.707 200.069 122.582 199.987 119.548 199.987C114.862 199.987 111.25 196.607 109.073 192.689C108.106 190.947 107.54 189.139 106.825 187.3C106.588 186.689 106.6 185.19 105.612 184.57C104.669 183.978 102.494 184.253 101.992 184.253C98.7747 184.141 99.5441 183.845 98.1401 184.57C97.1032 185.105 97.1641 186.689 96.9267 187.3C96.2115 189.139 95.646 190.947 94.6783 192.689C92.5018 196.607 88.8892 199.987 84.2037 199.987C81.1695 199.987 78.0449 200.069 75.0229 199.818C73.1036 199.658 71.2956 198.662 69.4287 198.256C67.9386 197.932 65.6441 197.143 64.7446 195.794C64.2189 195.005 63.8582 193.797 63.4509 192.921C62.4583 190.785 62.2786 188.407 62.1946 186.192C61.7176 185.874 61.1814 185.694 60.6111 185.61C59.655 185.468 58.7107 185.039 57.7882 184.762C56.898 184.495 56.0962 184.04 55.2196 183.756C54.6792 183.581 54.2215 183.507 53.6043 183.279Z" fill="#FF96BB"/>
<path d="M85.6291 50.1581C85.9237 50.5848 86.1971 51.0275 86.4807 51.4616C86.8013 51.6305 87.3209 52.0438 87.3461 52.3946C87.3625 52.6229 87.3491 52.841 87.3164 53.0516C87.3072 53.1106 87.4519 53.3702 87.4835 53.4378C87.5655 53.6135 87.6276 53.7599 87.6834 53.9488C87.7609 54.2112 87.9558 54.4311 88.0007 54.708C88.0436 54.9735 88.2987 55.1429 88.3771 55.3961C88.4498 55.6309 88.3775 57.0436 88.3803 57.2782C88.2793 57.4609 88.3043 57.5663 88.3655 57.7589C88.4907 58.1528 88.4287 58.5663 88.5316 58.9579C88.6171 59.2832 88.6058 59.6872 88.6208 60.0205C88.6556 60.7931 88.3413 61.5255 88.17 62.2746C87.9766 63.12 87.5065 63.7649 87.0555 64.4867C86.9349 64.6797 86.6666 64.8363 86.4983 64.9888C86.2391 65.2236 85.9625 65.4716 85.7286 65.7312C85.4333 66.059 85.0847 66.382 84.7664 66.6888C84.1588 67.2744 83.5686 67.8368 82.859 68.3004L81.3478 69.2877C80.9505 69.5473 80.5773 69.6359 80.1527 69.833C79.8186 69.9881 79.3885 70.0967 79.0259 70.1468C78.66 70.1975 78.3096 70.3752 77.9314 70.4233C77.4047 70.4903 76.7903 70.4044 76.2616 70.3163C76.189 70.3042 75.8349 70.2281 75.838 70.2398C75.8387 70.2425 75.6135 70.3095 75.5856 70.3072C75.0985 70.267 74.6215 70.1168 74.1204 70.0909C73.7708 70.0728 73.276 70.113 72.9434 70.0111C72.7253 69.9443 72.5185 69.8267 72.2999 69.7534C71.7611 69.5725 71.2659 69.263 70.7016 69.153C70.2907 69.0728 69.9236 69.0053 69.5411 68.831C68.8928 68.5357 68.3203 68.0047 67.7842 67.5342C67.4778 67.2653 67.1867 66.9465 66.8565 66.7109C66.6821 66.5865 66.427 66.4603 66.2842 66.3011C66.1003 66.0962 66.1159 65.8565 65.8969 65.6648C65.3895 65.2206 64.9412 65.051 64.5725 64.4867C64.3767 64.187 64.1589 63.1194 63.9128 62.8641C63.8189 62.7666 63.6792 62.7614 63.5828 62.6573C63.4738 62.5395 63.393 62.3991 63.2837 62.2802C63.0563 62.0331 62.8889 61.7319 62.7058 61.4517C62.5047 61.1438 62.4325 60.9258 62.4971 60.5728C62.5514 60.2765 62.4305 60.3277 62.3907 60.037C62.3296 59.5922 62.2385 59.1504 62.2937 58.6952C62.3323 58.377 62.3867 58.121 62.5186 57.8336C62.5882 57.6819 62.7119 57.6781 62.6914 57.5014C62.6597 57.2269 62.718 56.8359 62.7746 56.5659C62.9087 55.9265 63.1615 55.327 63.3398 54.7023C63.4624 54.2726 63.5646 53.8006 63.7301 53.3915C64.156 52.3382 64.7441 51.3617 65.3973 50.4302C65.6269 50.1029 65.8765 49.9385 66.2091 49.7211C66.7571 49.3631 67.2987 48.9927 67.8541 48.6464C68.1044 48.4904 68.3987 48.4368 68.6497 48.2729L69.1904 47.9196C69.4886 47.7248 69.7725 47.4788 70.1286 47.4163C70.5193 47.3477 70.9115 47.1846 71.2888 47.0603C71.4859 46.9954 71.7081 47.0063 71.8633 46.8271C71.9186 46.7634 71.7227 46.6388 71.792 46.5935C71.8823 46.5345 72.0133 46.6522 72.1163 46.5928C72.3602 46.4521 72.5727 46.2409 72.8556 46.1829C73.037 46.1457 73.3468 46.1488 73.5289 46.1816C73.6959 46.2117 73.8139 46.1392 73.978 46.148C74.1889 46.1595 74.4004 46.196 74.6132 46.1879C75.0276 46.172 75.4131 46.1798 75.8255 46.1105C76.0975 46.0649 76.3702 46.0372 76.6457 46.0295C76.9052 46.0223 77.2585 45.9075 77.51 45.9602C77.9429 46.051 78.3905 46.0528 78.8324 46.1196C79.4371 46.2111 80.0875 46.2988 80.6705 46.4903C81.0851 46.6265 81.4796 46.8956 81.8862 47.0645C82.013 47.1172 82.1476 47.1379 82.2619 47.217C82.7984 47.5881 83.6341 47.7792 84.0491 48.2991C84.5548 48.9326 85.1655 49.4867 85.6291 50.1581Z" fill="#FF7DAB" stroke="#FF7DAB" stroke-width="1.08303" stroke-linecap="round"/>
<path d="M138.217 50.1581C138.512 50.5848 138.785 51.0275 139.069 51.4616C139.389 51.6305 139.909 52.0438 139.934 52.3946C139.95 52.6229 139.937 52.841 139.904 53.0516C139.895 53.1106 140.04 53.3702 140.071 53.4378C140.153 53.6135 140.215 53.7599 140.271 53.9488C140.349 54.2112 140.544 54.4311 140.589 54.708C140.632 54.9735 140.887 55.1429 140.965 55.3961C141.038 55.6309 140.965 57.0436 140.968 57.2782C140.867 57.4609 140.892 57.5663 140.953 57.7589C141.079 58.1528 141.017 58.5663 141.12 58.9579C141.205 59.2832 141.194 59.6872 141.209 60.0205C141.243 60.7931 140.929 61.5255 140.758 62.2746C140.564 63.12 140.094 63.7649 139.643 64.4867C139.523 64.6797 139.254 64.8363 139.086 64.9888C138.827 65.2236 138.55 65.4716 138.316 65.7312C138.021 66.059 137.673 66.382 137.354 66.6888C136.747 67.2744 136.157 67.8368 135.447 68.3004L133.936 69.2877C133.538 69.5473 133.165 69.6359 132.741 69.833C132.406 69.9881 131.976 70.0967 131.614 70.1468C131.248 70.1975 130.897 70.3752 130.519 70.4233C129.993 70.4903 129.378 70.4044 128.849 70.3163C128.777 70.3042 128.423 70.2281 128.426 70.2398C128.427 70.2425 128.201 70.3095 128.173 70.3072C127.686 70.267 127.209 70.1168 126.708 70.0909C126.359 70.0728 125.864 70.113 125.531 70.0111C125.313 69.9443 125.106 69.8267 124.888 69.7534C124.349 69.5725 123.854 69.263 123.29 69.153C122.879 69.0728 122.511 69.0053 122.129 68.831C121.481 68.5357 120.908 68.0047 120.372 67.5342C120.066 67.2653 119.775 66.9465 119.444 66.7109C119.27 66.5865 119.015 66.4603 118.872 66.3011C118.688 66.0962 118.704 65.8565 118.485 65.6648C117.977 65.2206 117.529 65.051 117.16 64.4867C116.965 64.187 116.747 63.1194 116.501 62.8641C116.407 62.7666 116.267 62.7614 116.171 62.6573C116.062 62.5395 115.981 62.3991 115.872 62.2802C115.644 62.0331 115.477 61.7319 115.294 61.4517C115.093 61.1438 115.02 60.9258 115.085 60.5728C115.139 60.2765 115.018 60.3277 114.979 60.037C114.918 59.5922 114.826 59.1504 114.882 58.6952C114.92 58.377 114.975 58.121 115.107 57.8336C115.176 57.6819 115.3 57.6781 115.279 57.5014C115.248 57.2269 115.306 56.8359 115.363 56.5659C115.497 55.9265 115.749 55.327 115.928 54.7023C116.05 54.2726 116.153 53.8006 116.318 53.3915C116.744 52.3382 117.332 51.3617 117.985 50.4302C118.215 50.1029 118.464 49.9385 118.797 49.7211C119.345 49.3631 119.887 48.9927 120.442 48.6464C120.692 48.4904 120.987 48.4368 121.238 48.2729L121.778 47.9196C122.076 47.7248 122.36 47.4788 122.716 47.4163C123.107 47.3477 123.499 47.1846 123.877 47.0603C124.074 46.9954 124.296 47.0063 124.451 46.8271C124.506 46.7634 124.311 46.6388 124.38 46.5935C124.47 46.5345 124.601 46.6522 124.704 46.5928C124.948 46.4521 125.161 46.2409 125.444 46.1829C125.625 46.1457 125.935 46.1488 126.117 46.1816C126.284 46.2117 126.402 46.1392 126.566 46.148C126.777 46.1595 126.988 46.196 127.201 46.1879C127.615 46.172 128.001 46.1798 128.413 46.1105C128.685 46.0649 128.958 46.0372 129.234 46.0295C129.493 46.0223 129.846 45.9075 130.098 45.9602C130.531 46.051 130.978 46.0528 131.42 46.1196C132.025 46.2111 132.675 46.2988 133.258 46.4903C133.673 46.6265 134.068 46.8956 134.474 47.0645C134.601 47.1172 134.736 47.1379 134.85 47.217C135.386 47.5881 136.222 47.7792 136.637 48.2991C137.143 48.9326 137.753 49.4867 138.217 50.1581Z" fill="#FF7DAB" stroke="#FF7DAB" stroke-width="1.08303" stroke-linecap="round"/>
<path d="M114.817 66.3464C115.169 65.9952 115.671 65.2639 115.671 64.7489C115.671 64.2552 116.174 63.4229 116.174 62.946V61.4987C116.174 60.1206 115.413 58.4714 114.676 57.333C114.049 56.3638 113.645 55.2475 113.048 54.2526C112.815 53.8638 112.298 53.7518 112.013 53.4184C111.744 53.103 111.343 52.8675 110.978 52.6747C110.555 52.4514 110.308 52.0069 109.892 51.73C109.256 51.3054 108.562 51.1142 107.852 50.8456C106.209 50.224 104.558 49.7803 102.787 49.7803C101.016 49.7803 98.0489 50.224 96.4061 50.8456C95.6963 51.1142 95.0028 51.3054 94.3659 51.73C93.9506 52.0069 93.7035 52.4514 93.2805 52.6747C92.9152 52.8675 92.5146 53.103 92.2453 53.4184C91.9608 53.7518 91.4434 53.8638 91.2102 54.2526C90.6132 55.2475 90.2091 56.3638 89.582 57.333C88.8454 58.4714 88.0846 60.1206 88.0846 61.4987V62.946C88.0846 63.4229 88.5878 64.2552 88.5878 64.7489C88.5878 65.2639 89.0898 65.9952 89.4411 66.3464C89.7805 66.6858 90.0716 67.1028 90.485 67.3631C91.0146 67.6965 91.6675 67.8102 92.2232 68.0983C93.3264 68.6704 94.5313 69.1407 95.7588 69.3419C96.1896 69.4125 96.5384 69.6361 96.9842 69.6505C97.3878 69.6635 97.7869 69.7714 98.1869 69.8184C98.8176 69.8926 99.4326 69.8956 100.07 69.8956C100.368 69.8956 104.067 69.978 104.188 69.8956C104.826 69.8956 105.441 69.8926 106.071 69.8184C106.471 69.7714 106.871 69.6635 107.274 69.6505C107.72 69.6361 108.069 69.4125 108.5 69.3419C109.727 69.1407 110.932 68.6704 112.035 68.0983C112.591 67.8102 113.244 67.6965 113.773 67.3631C114.187 67.1028 114.478 66.6858 114.817 66.3464Z" fill="white" stroke="white" stroke-width="2.74368" stroke-linecap="round"/>
<path d="M100.733 52.961C100.924 52.951 101.101 52.8803 101.283 52.833C101.525 52.7703 101.775 52.7778 102.016 52.7254C102.33 52.6572 102.686 52.6469 103.008 52.6469C103.1 52.6469 103.556 52.5991 103.52 52.7108C103.423 53.0142 103.185 53.1966 103.014 53.4438C102.838 53.6979 102.419 54.1652 102.121 54.1652C101.622 54.1652 101.296 53.5433 101.048 53.1704" stroke="#020202" stroke-width="2.74368" stroke-linecap="round"/>
<path d="M89.6649 49.1081C89.6649 49.5399 89.6169 50.0307 90.0162 50.2874C90.4978 50.597 90.7689 49.9315 90.7689 49.5625C90.7689 49.1698 90.93 48.5059 90.3953 48.5059C89.9519 48.5059 89.8656 48.6001 89.8656 49.0579" stroke="black" stroke-width="1.08303" stroke-linecap="round"/>
<path d="M114.2 49.1081C114.2 49.5399 114.152 50.0307 114.551 50.2874C115.033 50.597 115.304 49.9315 115.304 49.5625C115.304 49.1698 115.465 48.5059 114.93 48.5059C114.487 48.5059 114.401 48.6001 114.401 49.0579" stroke="black" stroke-width="1.08303" stroke-linecap="round"/>
<path d="M102.144 55.8945C102.144 56.8997 102.144 57.9049 102.144 58.9101C102.144 59.6794 102.312 60.4293 102.312 61.2045" stroke="black" stroke-width="1.08303" stroke-linecap="round"/>
<path d="M83.1006 9.86236C84.5947 9.3091 86.1257 8.9724 87.677 8.55293C85.6667 6.58243 81.0871 4.3104 78.18 5.03408C77.1964 5.27894 76.132 5.54993 75.2453 6.07542C74.9067 6.27612 74.5992 6.61596 74.3197 6.88994C73.9938 7.20943 73.5448 7.50984 73.2784 7.86427C72.2957 9.17147 71.7637 10.6569 71.7637 12.2771C71.7637 13.1401 71.9661 14.9854 72.7619 15.5054C73.1441 15.1272 73.5323 14.7556 73.9544 14.4195C74.1637 14.2528 74.2543 13.9966 74.4636 13.8296C74.6713 13.6639 74.9375 13.5907 75.1514 13.4277C75.4855 13.173 75.8344 13.0233 76.1963 12.8183C78.3794 11.5819 80.7543 10.7312 83.1006 9.86236Z" fill="#FFCFE0"/>
<path d="M120.408 9.86236C118.914 9.3091 117.383 8.9724 115.832 8.55293C117.842 6.58243 122.422 4.3104 125.329 5.03408C126.312 5.27894 127.377 5.54993 128.263 6.07542C128.602 6.27612 128.91 6.61596 129.189 6.88994C129.515 7.20943 129.964 7.50984 130.23 7.86427C131.213 9.17147 131.745 10.6569 131.745 12.2771C131.745 13.1401 131.543 14.9854 130.747 15.5054C130.365 15.1272 129.976 14.7556 129.554 14.4195C129.345 14.2528 129.255 13.9966 129.045 13.8296C128.838 13.6639 128.571 13.5907 128.357 13.4277C128.023 13.173 127.674 13.0233 127.313 12.8183C125.129 11.5819 122.755 10.7312 120.408 9.86236Z" fill="#FFCFE0"/>
<path d="M73.7279 178.585C73.7007 179.075 73.3535 179.506 73.3535 179.989" stroke="#FF7DAB" stroke-width="2.74368" stroke-linecap="round"/>
<path d="M81.9641 178.865C81.9641 179.137 81.8026 180.831 81.4961 180.831" stroke="#FF7DAB" stroke-width="2.74368" stroke-linecap="round"/>
<path d="M129.372 178.585C129.399 179.075 129.746 179.506 129.746 179.989" stroke="#FF7DAB" stroke-width="2.74368" stroke-linecap="round"/>
<path d="M121.136 178.865C121.136 179.137 121.297 180.831 121.604 180.831" stroke="#FF7DAB" stroke-width="2.74368" stroke-linecap="round"/>
<path d="M100.333 61.2808L100.406 60.7443C100.145 60.7085 99.8957 60.8661 99.8162 61.1175C99.7367 61.369 99.8499 61.6411 100.084 61.762L100.333 61.2808ZM101.526 61.3217L101.469 61.8602L101.526 61.3217ZM102.657 61.3058L102.726 61.8429L102.657 61.3058ZM103.493 61.3317L103.516 60.7907L103.493 61.3317ZM104.029 61.3729L104.362 60.9456L104.029 61.3729ZM103.91 62.1903L103.418 61.9631L103.91 62.1903ZM103.723 62.4448L103.381 62.0255L103.723 62.4448ZM103.53 62.783L104.001 63.0501L103.53 62.783ZM103.114 63.3863L103.544 63.7148L103.114 63.3863ZM102.214 63.7039L102.573 63.2989L102.214 63.7039ZM101.885 63.4458L101.637 63.927L101.885 63.4458ZM101.407 63.0323L101.721 62.591L101.407 63.0323ZM100.946 62.6149L101.337 62.2405L100.946 62.6149ZM100.6 62.2024L100.162 62.5218L100.6 62.2024ZM100.46 61.8221L99.9782 62.0694L100.46 61.8221ZM100.259 61.8173C100.502 61.8505 100.737 61.8493 100.934 61.8475C101.143 61.8456 101.308 61.8433 101.469 61.8602L101.582 60.7831C101.347 60.7584 101.114 60.7628 100.924 60.7645C100.723 60.7663 100.561 60.7655 100.406 60.7443L100.259 61.8173ZM101.469 61.8602C101.884 61.9038 102.317 61.8955 102.726 61.8429L102.588 60.7687C102.257 60.8113 101.908 60.8174 101.582 60.7831L101.469 61.8602ZM102.726 61.8429C102.813 61.8317 102.912 61.8325 103.039 61.8411C103.14 61.8479 103.33 61.8665 103.469 61.8726L103.516 60.7907C103.379 60.7846 103.289 60.7725 103.112 60.7605C102.959 60.7503 102.779 60.7442 102.588 60.7687L102.726 61.8429ZM103.469 61.8726C103.549 61.8762 103.627 61.869 103.671 61.8648C103.728 61.8595 103.757 61.8563 103.788 61.855C103.817 61.8538 103.82 61.856 103.808 61.8537C103.793 61.851 103.747 61.8398 103.696 61.8001L104.362 60.9456C104.128 60.7638 103.857 60.7681 103.743 60.773C103.676 60.7758 103.607 60.7831 103.571 60.7864C103.522 60.7909 103.513 60.7905 103.516 60.7907L103.469 61.8726ZM103.696 61.8001C103.703 61.8058 103.678 61.7879 103.65 61.7446C103.635 61.7216 103.621 61.694 103.61 61.6625C103.599 61.631 103.594 61.6019 103.591 61.5773C103.587 61.5341 103.593 61.5078 103.59 61.5283C103.589 61.5372 103.587 61.5475 103.583 61.5681C103.58 61.5866 103.576 61.6113 103.571 61.6389L104.641 61.8057C104.644 61.7905 104.646 61.7758 104.65 61.7574C104.653 61.7411 104.657 61.7173 104.66 61.6939C104.667 61.65 104.679 61.5676 104.669 61.4721C104.645 61.22 104.5 61.0538 104.362 60.9456L103.696 61.8001ZM103.571 61.6389C103.569 61.6559 103.563 61.6771 103.54 61.7244C103.526 61.7515 103.512 61.7775 103.49 61.8199C103.469 61.8586 103.444 61.9079 103.418 61.9631L104.401 62.4175C104.414 62.3905 104.428 62.3629 104.447 62.327C104.464 62.2946 104.489 62.248 104.512 62.2015C104.561 62.1014 104.616 61.9708 104.641 61.8057L103.571 61.6389ZM103.418 61.9631C103.412 61.9756 103.402 61.9946 103.389 62.0128C103.383 62.0213 103.378 62.0271 103.375 62.0302C103.372 62.0337 103.373 62.0314 103.381 62.0255L104.066 62.8641C104.224 62.7347 104.339 62.5522 104.401 62.4175L103.418 61.9631ZM103.381 62.0255C103.231 62.1474 103.157 62.2963 103.12 62.3782C103.103 62.4153 103.082 62.4652 103.075 62.4811C103.07 62.4932 103.066 62.5014 103.064 62.5076C103.061 62.5137 103.059 62.516 103.059 62.5159L104.001 63.0501C104.032 62.9955 104.055 62.9435 104.071 62.9083C104.078 62.8919 104.086 62.8711 104.091 62.8601C104.097 62.8463 104.101 62.8366 104.105 62.8284C104.122 62.7901 104.113 62.8259 104.066 62.8641L103.381 62.0255ZM103.059 62.5159C102.956 62.6986 102.837 62.8558 102.683 63.0577L103.544 63.7148C103.694 63.5183 103.856 63.306 104.001 63.0501L103.059 62.5159ZM102.683 63.0577C102.662 63.0857 102.627 63.1233 102.583 63.1601C102.54 63.1972 102.498 63.2241 102.465 63.2397C102.429 63.2565 102.426 63.2502 102.45 63.2505C102.464 63.2507 102.486 63.2532 102.511 63.2625C102.537 63.2721 102.558 63.2856 102.573 63.2989L101.854 64.1089C102.23 64.4425 102.677 64.3376 102.928 64.2186C103.186 64.0965 103.407 63.8947 103.544 63.7148L102.683 63.0577ZM102.573 63.2989C102.514 63.2461 102.341 63.0714 102.134 62.9646L101.637 63.927C101.686 63.9525 101.71 63.9813 101.854 64.1089L102.573 63.2989ZM102.134 62.9646C102.125 62.9601 102.101 62.9442 102.027 62.8692C101.972 62.8132 101.856 62.6872 101.721 62.591L101.093 63.4736C101.13 63.4995 101.16 63.5324 101.255 63.6286C101.331 63.7058 101.46 63.8357 101.637 63.927L102.134 62.9646ZM101.721 62.591C101.608 62.5104 101.467 62.3761 101.337 62.2405L100.555 62.9893C100.693 63.1343 100.892 63.3307 101.093 63.4736L101.721 62.591ZM101.337 62.2405C101.235 62.1339 101.123 62.0012 101.037 61.883L100.162 62.5218C100.279 62.6811 100.422 62.8504 100.555 62.9893L101.337 62.2405ZM101.037 61.883C101.06 61.9153 101.061 61.9396 101.047 61.8824C101.042 61.8648 101.029 61.8106 101.016 61.7657C101.001 61.7143 100.979 61.647 100.942 61.5749L99.9782 62.0694C99.9739 62.0609 99.9715 62.0482 99.9963 62.1466C100.015 62.2198 100.054 62.373 100.162 62.5218L101.037 61.883ZM100.942 61.5749C100.96 61.6107 100.969 61.6395 100.973 61.6521C100.977 61.6662 100.979 61.6757 100.979 61.6777C100.98 61.6807 100.979 61.6755 100.977 61.6556C100.975 61.6365 100.973 61.6148 100.97 61.5844C100.968 61.5561 100.965 61.5215 100.961 61.486C100.955 61.4211 100.943 61.3217 100.914 61.2244C100.899 61.1747 100.874 61.1059 100.831 61.0352C100.788 60.9648 100.711 60.8666 100.581 60.7996L100.084 61.762C99.9829 61.7097 99.9295 61.6368 99.9069 61.5998C99.8841 61.5624 99.8761 61.535 99.8753 61.5323C99.8743 61.5287 99.8787 61.545 99.8841 61.5976C99.8865 61.6207 99.8886 61.6452 99.891 61.6739C99.8932 61.7004 99.8959 61.7335 99.899 61.7646C99.9021 61.7948 99.9067 61.835 99.9144 61.8762C99.9183 61.8973 99.924 61.9241 99.9325 61.9534C99.9406 61.9812 99.9544 62.023 99.9782 62.0694L100.942 61.5749Z" fill="black"/>
<g clip-path="url(#clip0_1475_24581)">
<path d="M138.514 126.45C137.517 123.279 136.76 120.849 135.56 117.827C134.374 114.842 132.052 111.701 129.889 109.354C127.687 106.964 125.119 104.886 122.524 102.951C121.657 102.306 120.411 101.618 119.531 100.993C118.939 100.574 118.687 100.245 118.046 99.8829C117.83 99.7599 116.328 97.9881 116.345 97.7055C116.414 96.5886 117.308 94.5774 118.099 93.8993C118.747 93.3441 119.185 92.3934 119.401 91.5789C119.783 90.1329 118.793 89.0525 117.604 88.4109C115.225 87.1311 112.414 86.8552 110.003 85.6119C108.554 84.8639 107.092 84.2889 105.438 84.4717C103.604 84.6745 101.85 85.2728 99.9861 85.2562C97.9695 85.2396 95.9164 84.957 93.9463 85.5354C91.8733 86.1438 90.0793 87.2042 88.1059 88.0885C86.6541 88.74 85.9664 89.7572 86.3351 91.2C86.767 92.892 88.8235 94.8666 89.6042 96.5387H89.5743C89.3417 97.4994 90.1856 98.1676 89.2221 98.3704L88.9198 98.5033C85.4415 99.3643 80.6043 102.506 78.3286 105.065C74.1327 109.783 70.8736 113.629 68.0397 119.416C61.4917 132.786 59.0166 144.923 73.1327 158.346C74.043 159.211 74.9533 160.098 76.0629 160.68C77.4648 161.415 79.0628 161.667 80.6342 161.85C87.1192 162.611 93.5078 162.522 100.003 162.126C107.431 161.677 116.544 163.718 123.763 161.598C130.245 159.693 141.999 149.594 140.451 134.372C140.261 132.504 139.956 131.157 139.414 129.356C139.125 128.395 138.829 127.424 138.52 126.447L138.514 126.45Z" fill="#FFCD00"/>
<path d="M108.523 96.426C108.57 96.2897 108.62 96.1568 108.669 96.0238C108.719 95.8908 108.772 95.7579 108.829 95.6249C108.849 95.5784 108.869 95.5318 108.889 95.482C108.945 95.3457 108.802 95.6847 108.865 95.5385C108.905 95.4454 108.945 95.3556 108.985 95.2625C109.158 94.8769 109.344 94.498 109.553 94.129C109.659 93.9395 109.776 93.7533 109.899 93.5705C109.925 93.5339 109.949 93.4974 109.975 93.4608C110.015 93.4043 110.158 93.2447 109.972 93.4608C110.035 93.3877 110.095 93.3112 110.161 93.2381C110.467 92.9023 110.517 92.3372 110.161 92.0114C109.829 91.7056 109.261 91.6524 108.935 92.0114C108.311 92.7029 107.869 93.5439 107.49 94.3883C107.261 94.9035 107.038 95.4288 106.856 95.964C106.709 96.3928 107.025 96.9313 107.46 97.031C107.942 97.1407 108.37 96.8848 108.527 96.426H108.523Z" fill="#FFC311"/>
<path d="M95.505 92.3863C95.5615 92.4395 95.6147 92.496 95.6678 92.5525C95.6977 92.5857 95.7243 92.619 95.7509 92.6489C95.8273 92.7353 95.7243 92.6256 95.7077 92.5957C95.7841 92.7353 95.8904 92.865 95.9701 93.0046C96.0499 93.1442 96.113 93.2805 96.1794 93.4234C96.196 93.4633 96.216 93.5032 96.2326 93.5431C96.2791 93.6495 96.2193 93.5165 96.206 93.48C96.2359 93.5631 96.2725 93.6428 96.3057 93.726C96.5681 94.3908 96.8073 95.0723 97.1861 95.6806C97.4286 96.0662 97.9701 96.2524 98.3721 95.9931C98.7741 95.7338 98.9402 95.2185 98.6844 94.8063C98.5947 94.6634 98.5116 94.5171 98.4385 94.3642C98.402 94.2911 98.3688 94.2213 98.3355 94.1481C98.3156 94.1082 98.299 94.0683 98.2824 94.0251C98.2292 93.8988 98.2824 93.9886 98.2957 94.0617C98.2591 93.9021 98.1661 93.7426 98.1063 93.5897C98.0465 93.4367 97.9834 93.2739 97.9203 93.1176C97.6279 92.4029 97.299 91.7048 96.7342 91.1596C96.4087 90.8438 95.8273 90.8106 95.5083 91.1596C95.1894 91.5087 95.1595 92.0505 95.5083 92.3863H95.505Z" fill="#FFC311"/>
<path d="M102.126 90.8673C102.126 92.32 101.94 93.796 102.126 95.2454C102.156 95.4847 102.202 95.6808 102.378 95.8603C102.528 96.0099 102.777 96.123 102.993 96.113C103.411 96.093 103.923 95.7274 103.86 95.2454C103.674 93.7993 103.86 92.32 103.86 90.8673C103.86 90.4119 103.461 89.9797 102.993 89.9997C102.524 90.0196 102.126 90.382 102.126 90.8673Z" fill="#FFC311"/>
<path d="M87.5586 97.9196C90.3924 97.0819 93.213 97.012 96.4389 96.8824C99.0235 96.7793 101.917 97.0519 104.505 97.1151C105.788 97.145 107.067 97.2181 108.346 97.2913C110.993 97.4409 113.724 97.0952 118.239 98.2487" fill="#FFF3BF"/>
<path d="M88.0701 99.7806C88.5751 99.6343 89.0867 99.5047 89.605 99.3983C89.8375 99.3518 90.0701 99.3052 90.306 99.2653C90.399 99.2487 90.492 99.2321 90.5884 99.2188C90.698 99.2022 91.3392 99.0858 90.781 99.1855C91.7777 99.006 92.8209 98.9794 93.8275 98.9262C96.0202 98.8099 98.1995 98.7667 100.392 98.8664C102.615 98.9661 104.844 99.0359 107.067 99.1523C108.638 99.2354 110.206 99.252 111.777 99.2952C112.704 99.3185 113.628 99.3783 114.548 99.4847L114.674 99.5013C114.887 99.5279 114.844 99.5213 114.548 99.4814C114.691 99.4714 114.87 99.5279 115.013 99.5512C115.292 99.5944 115.568 99.641 115.844 99.6941C116.475 99.8138 117.103 99.9534 117.724 100.113C118.701 100.359 119.864 99.7972 120.096 98.7634C120.329 97.7295 119.794 96.6525 118.747 96.3898C116.714 95.8779 114.628 95.5621 112.532 95.4624C111.03 95.3926 109.522 95.4291 108.02 95.346C105.734 95.2197 103.449 95.1566 101.163 95.0435C98.9337 94.9338 96.7278 94.9338 94.4986 95.0336C91.9937 95.1466 89.4588 95.356 87.0402 96.0607C86.0735 96.3433 85.3692 97.4337 85.6914 98.4343C86.0137 99.4349 87.027 100.086 88.0635 99.7839L88.0701 99.7806Z" fill="#FFE26C"/>
<path d="M100.799 97.6928C98.6001 97.1443 96.3875 96.5093 94.135 96.2235C92.8062 96.0539 91.5171 96.2002 90.2082 96.4495C89.5338 96.5791 88.8328 96.7686 88.2813 97.1875C87.7298 97.6063 87.2647 98.208 86.8627 98.7964C86.1784 99.797 85.8926 100.901 85.8029 102.097C85.7431 102.882 85.783 103.62 86.1518 104.338C86.494 104.999 87.1617 105.415 87.8295 105.688C89.2381 106.266 90.7098 105.963 92.0852 105.452C93.6865 104.857 95.3344 104.371 96.9124 103.716C98.4905 103.061 100.105 102.23 101.583 101.263C102.514 100.655 101.647 99.1521 100.706 99.7638C99.5436 100.522 98.3277 101.197 97.0619 101.772C95.7961 102.347 94.5204 102.719 93.2314 103.168C92.0753 103.57 90.8859 104.232 89.6401 104.278C89.0654 104.298 88.4873 104.165 88.0022 103.843C87.5571 103.543 87.4807 103.051 87.5072 102.546C87.5571 101.569 87.7032 100.711 88.2049 99.91C88.4906 99.4546 88.8394 98.946 89.2647 98.6103C89.66 98.2978 90.2182 98.208 90.7032 98.1183C91.0055 98.0618 91.3112 98.0086 91.6168 97.962C91.7132 97.9487 91.8328 97.9354 91.6567 97.9554C91.7165 97.9487 91.773 97.9421 91.8328 97.9354C91.9756 97.9188 92.1185 97.9055 92.2613 97.8955C92.8095 97.859 93.361 97.8756 93.9091 97.9354C93.9457 97.9388 94.2048 97.972 94.0919 97.9554C93.9855 97.9421 94.2347 97.9753 94.2879 97.9853C94.4872 98.0152 94.6899 98.0518 94.8892 98.0884C95.3476 98.1748 95.8061 98.2712 96.2613 98.3776C97.6267 98.6867 98.9855 99.0324 100.341 99.3715C101.424 99.6408 101.886 97.9687 100.803 97.6994L100.799 97.6928Z" fill="#FFF3BF"/>
<path d="M100.422 97.9964C100.383 98.3255 100.386 98.648 100.376 98.9771C100.376 99.0136 100.369 99.0569 100.376 99.0934C100.349 98.8807 100.419 98.8075 100.389 98.9605C100.369 99.0535 100.349 99.1466 100.333 99.2397C100.283 99.5223 100.319 99.7982 100.359 100.081C100.403 100.39 100.482 100.656 100.595 100.948C100.615 101.002 100.635 101.055 100.658 101.105C100.725 101.251 100.642 100.975 100.648 100.942C100.632 101.041 100.635 101.154 100.635 101.254C100.632 101.513 100.751 101.856 100.954 102.045C101.03 102.115 100.858 101.769 100.904 101.912C100.924 101.976 100.947 102.035 100.971 102.099C101.017 102.228 101.067 102.358 101.133 102.478C101.206 102.607 101.286 102.773 101.396 102.873C101.565 103.029 101.761 103.092 101.974 103.142C102.396 103.242 102.957 103.013 103.04 102.537C103.077 102.315 103.13 102.102 103.177 101.882C103.213 101.706 103.22 101.527 103.206 101.347C103.19 101.135 103.16 101.55 103.18 101.46C103.196 101.387 103.206 101.311 103.223 101.234C103.273 100.965 103.266 100.712 103.256 100.44C103.25 100.277 103.256 100.084 103.206 99.9278C103.17 99.8148 103.12 99.7051 103.074 99.5921V100.054C103.137 99.8181 103.223 99.5854 103.19 99.3361C103.16 99.1067 103.024 98.8807 102.921 98.6712L103.04 99.11C103.04 98.8508 103.047 98.6081 102.947 98.3621C102.878 98.1859 102.821 98.0097 102.765 97.8302C102.632 97.3981 102.153 97.0756 101.698 97.2252C101.243 97.3748 100.947 97.8269 101.094 98.2923C101.13 98.4086 101.163 98.5283 101.203 98.6413C101.226 98.7045 101.253 98.7643 101.276 98.8242C101.293 98.8641 101.306 98.9139 101.329 98.9505C101.386 99.0469 101.316 98.648 101.306 98.7643C101.286 99.0303 101.316 99.3062 101.426 99.5455C101.479 99.6619 101.535 99.7749 101.592 99.8879L101.505 99.2197C101.472 99.3427 101.432 99.4624 101.406 99.5854C101.343 99.8613 101.402 100.094 101.515 100.337C101.612 100.539 101.509 100.018 101.515 100.257C101.515 100.333 101.522 100.413 101.525 100.49C101.532 100.613 101.522 100.746 101.539 100.865C101.559 101.005 101.592 100.576 101.565 100.692C101.559 100.726 101.552 100.756 101.549 100.789C101.535 100.865 101.519 100.942 101.505 101.015C101.476 101.194 101.456 101.4 101.479 101.587C101.496 101.726 101.539 101.301 101.505 101.414C101.496 101.444 101.489 101.477 101.482 101.51C101.466 101.587 101.442 101.66 101.429 101.736C101.406 101.846 101.389 101.959 101.369 102.069L102.436 101.464L102.24 101.417L102.758 101.816C102.711 101.736 102.672 101.63 102.608 101.56C102.575 101.523 102.718 101.849 102.662 101.683C102.642 101.62 102.615 101.557 102.595 101.494C102.509 101.254 102.393 101.075 102.25 100.869L102.369 101.307C102.379 101.108 102.412 100.879 102.353 100.682C102.313 100.559 102.256 100.44 102.21 100.317C102.163 100.194 102.11 100.064 102.084 99.9345C102.064 99.8414 102.057 99.745 102.04 99.6519C102.017 99.4923 102.067 99.9378 102.064 99.8181C102.064 99.7815 102.057 99.745 102.057 99.7117C102.05 99.6386 102.06 99.5422 102.04 99.4724C102.08 99.602 101.987 99.7849 102.024 99.622C102.034 99.5721 102.044 99.5189 102.054 99.4691C102.097 99.2596 102.117 99.0535 102.12 98.8408C102.127 98.5516 102.13 98.2723 102.163 97.9865C102.216 97.5344 101.728 97.0989 101.296 97.1188C100.781 97.1421 100.486 97.5011 100.429 97.9865L100.422 97.9964Z" fill="#FFF3BF"/>
<path d="M102.764 99.7391C103.926 99.1474 105.222 98.938 106.488 98.6787C107.159 98.5424 107.83 98.3895 108.478 98.1635C109.079 97.954 109.64 97.6748 110.258 97.5053C110.876 97.3357 111.441 97.2327 112.046 97.1695C112.607 97.1063 113.238 97.0033 113.8 97.0831C114.361 97.1629 114.88 97.4388 115.328 97.7579C115.414 97.8177 115.494 97.8809 115.574 97.9507C115.611 97.9806 115.826 98.1635 115.68 98.0305C115.737 98.0803 115.777 98.1967 115.71 98.0471C115.753 98.1435 115.777 98.2466 115.807 98.3463C116.175 99.5763 116.405 100.876 116.431 102.166C116.441 102.701 116.385 103.253 116.082 103.708C115.807 104.124 115.365 104.267 114.88 104.29C112.916 104.38 111.109 103.226 109.464 102.189C107.451 100.919 105.368 99.5131 102.92 99.3868C101.803 99.3303 101.807 101.066 102.92 101.122C105.062 101.235 107.039 102.718 108.843 103.845C110.83 105.088 113.109 106.361 115.544 105.952C117.066 105.696 117.956 104.393 118.129 102.934C118.218 102.192 118.129 101.454 118.039 100.716C117.949 99.9785 117.856 99.1674 117.644 98.4194C117.507 97.9374 117.388 97.4155 117.072 97.0166C116.694 96.5346 116.119 96.1556 115.574 95.883C114.923 95.5572 114.205 95.3245 113.471 95.3312C112.737 95.3378 112.036 95.4276 111.328 95.5273C110.571 95.637 109.81 95.7933 109.092 96.0625C108.312 96.3584 107.567 96.6642 106.747 96.8537C105.092 97.2393 103.431 97.462 101.896 98.2432C101.478 98.456 101.358 99.0444 101.584 99.43C101.833 99.8555 102.352 99.9552 102.77 99.7425L102.764 99.7391Z" fill="#FFF3BF"/>
<path d="M99.2375 125.955C98.5864 122.278 98.2874 118.545 98.3372 114.812C98.3771 111.697 98.5066 108.432 99.5897 105.477C100.125 104.015 100.972 102.701 102.168 101.698C102.526 101.395 102.48 100.78 102.168 100.471C101.812 100.115 101.301 100.168 100.942 100.471C98.5365 102.489 97.4867 105.61 97.0415 108.625C96.5 112.302 96.4867 116.095 96.7459 119.798C96.902 122.015 97.1777 124.226 97.5664 126.417C97.6495 126.879 98.2109 127.138 98.6329 127.022C99.1179 126.889 99.3206 126.417 99.2375 125.955Z" fill="#FFF3BF"/>
<path d="M102.285 101.107C105.132 104.71 106.342 109.298 107.006 113.762C107.783 118.998 107.983 124.333 108.335 129.612C108.548 132.777 108.757 135.942 108.969 139.106C108.999 139.575 109.345 139.974 109.837 139.974C110.282 139.974 110.737 139.575 110.704 139.106C110.318 133.359 109.963 127.611 109.541 121.867C109.175 116.897 108.817 111.804 107.262 107.037C106.418 104.448 105.202 102.024 103.511 99.8835C103.219 99.5145 102.588 99.5777 102.285 99.8835C101.923 100.246 101.993 100.741 102.285 101.11V101.107Z" fill="#FFF3BF"/>
</g>
<path d="M116.619 91.9609C117.151 91.4521 117.808 90.6701 118.594 90.6238L136.1 82.8301L145.618 114.453L140.811 118.209C139.98 119.04 139.021 119.55 138.219 120.441C137.555 121.178 136.926 121.896 136.1 122.468C135.016 123.218 133.88 123.479 132.665 123.949C129.903 125.015 127.091 126.175 124.138 126.448C121.183 126.722 118.323 126.253 115.55 125.162C112.114 123.811 109.486 121.389 107.969 118.035C106.517 114.824 106.701 110.58 107.301 107.204C108.04 103.042 109.291 98.6606 112.402 95.6945C113.761 94.3987 115.269 93.2525 116.619 91.9609Z" fill="#FF96BB"/>
<path d="M123.38 88.7461C122.593 88.7924 117.151 91.4516 116.619 91.9604C115.269 93.252 113.761 94.3982 112.402 95.694C109.291 98.6601 108.04 103.042 107.301 107.203C106.701 110.579 106.517 114.823 107.969 118.034C109.486 121.388 112.114 123.811 115.55 125.162C118.323 126.252 121.183 126.721 124.138 126.448C127.091 126.174 129.903 125.015 132.665 123.948C133.88 123.479 135.016 123.217 136.1 122.467C136.926 121.895 137.555 121.178 138.219 120.441C139.021 119.549 142.339 117.527 143.17 116.697" stroke="#FF7DAB" stroke-width="2.74368" stroke-linecap="round"/>
<path d="M88.5204 91.9609C87.9885 91.4521 87.332 90.6701 86.5456 90.6238L69.0398 82.8301L59.5218 114.453L64.329 118.209C65.1598 119.04 66.1184 119.55 66.921 120.441C67.5843 121.178 68.2139 121.896 69.0398 122.468C70.1233 123.218 71.26 123.479 72.4751 123.949C75.2362 125.015 78.0487 126.175 81.0017 126.448C83.957 126.722 86.8167 126.253 89.5901 125.162C93.0253 123.811 95.6532 121.389 97.1705 118.035C98.6229 114.824 98.4385 110.58 97.839 107.204C97.1 103.042 95.8482 98.6606 92.7374 95.6945C91.3784 94.3987 89.8707 93.2525 88.5204 91.9609Z" fill="#FF96BB"/>
<path d="M81.7597 88.7461C82.5462 88.7924 87.9885 91.4516 88.5204 91.9604C89.8707 93.252 91.3784 94.3982 92.7374 95.694C95.8482 98.6601 97.1 103.042 97.839 107.203C98.4385 110.579 98.6229 114.823 97.1705 118.034C95.6532 121.388 93.0253 123.811 89.5901 125.162C86.8167 126.252 83.957 126.721 81.0017 126.448C78.0487 126.174 75.2362 125.015 72.4751 123.948C71.26 123.479 70.1233 123.217 69.0398 122.467C68.2139 121.895 67.5843 121.178 66.921 120.441C66.1184 119.549 62.8008 117.527 61.97 116.697" stroke="#FF7DAB" stroke-width="2.74368" stroke-linecap="round"/>
<path d="M168 36.508C168.823 34.4885 170.223 32 172.663 32C174.452 32 175.721 32.8581 176.93 34.0899C179.782 36.997 178.245 40.6468 175.315 42.8901C173.705 44.1224 172.169 45.286 171.264 43.0369C170.857 42.0231 170.431 40.2387 170.962 39.1766C171.192 38.7163 171.779 37.9235 172.353 37.9071C173.058 37.8869 174.063 38.1326 174.063 38.9952" stroke="#FFA3C3" stroke-width="3" stroke-linecap="round"/>
<path d="M8.71951 127C5.76451 127 3.01425 128.806 2.33004 131.8C1.85397 133.883 1.92754 136.55 2.33004 138.638C2.75412 140.838 3.94358 142.401 5.48911 143.947C6.33396 144.792 7.0489 145.144 8.25074 145.16C9.32705 145.174 10.7934 145.419 11.6951 144.711C13.3965 143.376 14.5588 141.751 14.5893 139.555C14.6176 137.512 14.656 135.387 12.5613 134.235C11.7068 133.765 10.1814 132.758 9.25961 133.726C8.23154 134.805 7.99548 137.256 8.39341 138.699C8.65348 139.641 9.98207 139.29 10.7372 139.29" stroke="#FFA3C3" stroke-width="3" stroke-linecap="round"/>
<path d="M179 164.562C179.648 164.471 180.155 164.008 180.697 163.681C181.357 163.282 182.053 163.172 182.805 163.045C185.588 162.577 188.147 165.832 189.275 167.943C190.023 169.343 190.283 171.376 189.618 172.857C188.584 175.157 184.581 176 182.325 176C179.003 176 178.449 172.328 180.234 170.171C181.508 168.631 184.707 168.607 184.707 170.967" stroke="#FFA3C3" stroke-width="3" stroke-linecap="round"/>
<defs>
<clipPath id="clip0_1475_24581">
<rect width="77.7795" height="78.1464" fill="white" transform="translate(62.8047 84.4385)"/>
</clipPath>
</defs>
</svg>
