<svg width="200" height="200" viewBox="0 0 200 200" fill="none" xmlns="http://www.w3.org/2000/svg">
<path d="M51.6043 183.279C48.2674 182.051 45.6061 177.633 44.7391 177.298C43.5996 176.285 42.3382 175.595 41.3755 174.374C40.5651 173.347 39.9185 172.351 39.2668 171.217C32.7214 159.834 31 146.687 31 133.726C31.0001 131.576 31.2329 129.064 31.2329 126.921C31.2329 123.697 31.4658 120.499 31.4658 117.283C31.4658 113.156 31.8217 108.898 32.3455 104.825C32.7056 102.024 32.793 99.0932 33.4581 96.3378C34.0207 94.007 34.0077 91.5907 34.5965 89.2354C35.258 86.5894 34.6143 83.5432 35.0105 80.8134C35.6664 76.2949 36.8293 71.7015 38.2189 67.3589C38.8593 64.6091 40.3055 59.5867 40.8034 56.8128C41.6519 52.0849 44.4363 48.5764 46.0219 44.1719C47.3302 40.538 50.1918 36.8885 52.4513 33.8074C54.0075 31.6854 55.9086 29.7951 57.6336 27.8018C59.3272 25.8448 60.9676 23.9112 62.9006 22.1716C63.7326 21.4227 64.5064 20.612 65.2941 19.8168C63.8372 18.8455 63.4666 15.3987 63.4666 13.7868C63.4666 10.7607 64.4406 7.98602 66.2397 5.54437C66.7275 4.88236 67.5495 4.32124 68.1463 3.72448C68.658 3.21274 69.221 2.57797 69.841 2.2031C71.4643 1.22155 73.4131 0.715395 75.214 0.258028C80.5364 -1.09368 88.9211 3.15011 92.6016 6.83068C93.6432 6.54334 94.7668 6.86591 95.8224 6.5643C97.2463 6.15746 98.3108 5.92734 99.9633 5.94201C101.549 5.95609 102.505 6.15746 103.929 6.5643C104.985 6.86591 106.108 6.54334 107.15 6.83068C110.831 3.15011 118.968 -1.09475 124.291 0.256956C126.092 0.714324 128.04 1.22048 129.664 2.20202C130.284 2.5769 130.847 3.21166 131.358 3.72341C131.955 4.32016 132.777 4.88129 133.265 5.5433C135.064 7.98495 136.038 10.7596 136.038 13.7858C136.038 15.3977 135.42 18.3516 133.963 19.3229C134.926 20.2718 135.846 21.2668 136.851 22.1716C138.784 23.9112 140.424 25.8448 142.118 27.8018C143.843 29.7951 145.744 31.6854 147.3 33.8074C149.56 36.8885 152.421 40.538 153.73 44.1719C155.315 48.5764 158.1 52.0849 158.948 56.8128C159.446 59.5867 160.892 64.6091 161.533 67.3589C162.922 71.7015 164.085 76.2949 164.741 80.8134C165.137 83.5432 164.494 86.5894 165.155 89.2354C165.744 91.5907 165.731 94.007 166.294 96.3378C166.959 99.0932 167.046 102.024 167.406 104.825C167.93 108.898 168.286 113.156 168.286 117.283C168.286 120.499 168.519 123.697 168.519 126.921C168.519 129.064 168.752 131.576 168.752 133.726C168.752 146.687 167.03 159.834 160.485 171.217C159.833 172.351 159.187 173.347 158.376 174.374C157.413 175.595 156.152 176.285 155.013 177.298C154.146 177.633 151.484 182.051 148.147 183.279C147.53 183.507 147.072 183.581 146.532 183.756C145.655 184.04 144.854 184.495 143.963 184.762C143.041 185.039 142.097 185.468 141.141 185.61C140.57 185.694 140.034 185.874 139.557 186.192C139.473 188.407 139.293 190.785 138.301 192.921C137.893 193.797 137.533 195.005 137.007 195.794C136.108 197.143 133.813 197.932 132.323 198.256C130.456 198.662 128.648 199.658 126.729 199.818C123.707 200.069 120.582 199.987 117.548 199.987C112.862 199.987 109.25 196.607 107.073 192.689C106.106 190.947 105.54 189.139 104.825 187.3C104.588 186.689 104.6 185.19 103.612 184.57C102.669 183.978 100.494 184.253 99.9923 184.253C96.7747 184.141 97.5441 183.845 96.1401 184.57C95.1032 185.105 95.1641 186.689 94.9267 187.3C94.2115 189.139 93.646 190.947 92.6783 192.689C90.5018 196.607 86.8892 199.987 82.2037 199.987C79.1695 199.987 76.0449 200.069 73.0229 199.818C71.1036 199.658 69.2956 198.662 67.4287 198.256C65.9386 197.932 63.6441 197.143 62.7446 195.794C62.2189 195.005 61.8582 193.797 61.4509 192.921C60.4583 190.785 60.2786 188.407 60.1946 186.192C59.7176 185.874 59.1814 185.694 58.6111 185.61C57.655 185.468 56.7107 185.039 55.7882 184.762C54.898 184.495 54.0962 184.04 53.2196 183.756C52.6792 183.581 52.2215 183.507 51.6043 183.279Z" fill="#FF96BB"/>
<path d="M83.6291 50.1581C83.9237 50.5848 84.1971 51.0275 84.4807 51.4616C84.8013 51.6305 85.3209 52.0438 85.3461 52.3946C85.3625 52.6229 85.3491 52.841 85.3164 53.0516C85.3072 53.1106 85.4519 53.3702 85.4835 53.4378C85.5655 53.6135 85.6276 53.7599 85.6834 53.9488C85.7609 54.2112 85.9558 54.4311 86.0007 54.708C86.0436 54.9735 86.2987 55.1429 86.3771 55.3961C86.4498 55.6309 86.3775 57.0436 86.3803 57.2782C86.2793 57.4609 86.3043 57.5663 86.3655 57.7589C86.4907 58.1528 86.4287 58.5663 86.5316 58.9579C86.6171 59.2832 86.6058 59.6872 86.6208 60.0205C86.6556 60.7931 86.3413 61.5255 86.17 62.2746C85.9766 63.12 85.5065 63.7649 85.0555 64.4867C84.9349 64.6797 84.6666 64.8363 84.4983 64.9888C84.2391 65.2236 83.9625 65.4716 83.7286 65.7312C83.4333 66.059 83.0847 66.382 82.7664 66.6888C82.1588 67.2744 81.5686 67.8368 80.859 68.3004L79.3478 69.2877C78.9505 69.5473 78.5773 69.6359 78.1527 69.833C77.8186 69.9881 77.3885 70.0967 77.0259 70.1468C76.66 70.1975 76.3096 70.3752 75.9314 70.4233C75.4047 70.4903 74.7903 70.4044 74.2616 70.3163C74.189 70.3042 73.8349 70.2281 73.838 70.2398C73.8387 70.2425 73.6135 70.3095 73.5856 70.3072C73.0985 70.267 72.6215 70.1168 72.1204 70.0909C71.7708 70.0728 71.276 70.113 70.9434 70.0111C70.7253 69.9443 70.5185 69.8267 70.2999 69.7534C69.7611 69.5725 69.2659 69.263 68.7016 69.153C68.2907 69.0728 67.9236 69.0053 67.5411 68.831C66.8928 68.5357 66.3203 68.0047 65.7842 67.5342C65.4778 67.2653 65.1867 66.9465 64.8565 66.7109C64.6821 66.5865 64.427 66.4603 64.2842 66.3011C64.1003 66.0962 64.1159 65.8565 63.8969 65.6648C63.3895 65.2206 62.9412 65.051 62.5725 64.4867C62.3767 64.187 62.1589 63.1194 61.9128 62.8641C61.8189 62.7666 61.6792 62.7614 61.5828 62.6573C61.4738 62.5395 61.393 62.3991 61.2837 62.2802C61.0563 62.0331 60.8889 61.7319 60.7058 61.4517C60.5047 61.1438 60.4325 60.9258 60.4971 60.5728C60.5514 60.2765 60.4305 60.3277 60.3907 60.037C60.3296 59.5922 60.2385 59.1504 60.2937 58.6952C60.3323 58.377 60.3867 58.121 60.5186 57.8336C60.5882 57.6819 60.7119 57.6781 60.6914 57.5014C60.6597 57.2269 60.718 56.8359 60.7746 56.5659C60.9087 55.9265 61.1615 55.327 61.3398 54.7023C61.4624 54.2726 61.5646 53.8006 61.7301 53.3915C62.156 52.3382 62.7441 51.3617 63.3973 50.4302C63.6269 50.1029 63.8765 49.9385 64.2091 49.7211C64.7571 49.3631 65.2987 48.9927 65.8541 48.6464C66.1044 48.4904 66.3987 48.4368 66.6497 48.2729L67.1904 47.9196C67.4886 47.7248 67.7725 47.4788 68.1286 47.4163C68.5193 47.3477 68.9115 47.1846 69.2888 47.0603C69.4859 46.9954 69.7081 47.0063 69.8633 46.8271C69.9186 46.7634 69.7227 46.6388 69.792 46.5935C69.8823 46.5345 70.0133 46.6522 70.1163 46.5928C70.3602 46.4521 70.5727 46.2409 70.8556 46.1829C71.037 46.1457 71.3468 46.1488 71.5289 46.1816C71.6959 46.2117 71.8139 46.1392 71.978 46.148C72.1889 46.1595 72.4004 46.196 72.6132 46.1879C73.0276 46.172 73.4131 46.1798 73.8255 46.1105C74.0975 46.0649 74.3702 46.0372 74.6457 46.0295C74.9052 46.0223 75.2585 45.9075 75.51 45.9602C75.9429 46.051 76.3905 46.0528 76.8324 46.1196C77.4371 46.2111 78.0875 46.2988 78.6705 46.4903C79.0851 46.6265 79.4796 46.8956 79.8862 47.0645C80.013 47.1172 80.1476 47.1379 80.2619 47.217C80.7984 47.5881 81.6341 47.7792 82.0491 48.2991C82.5548 48.9326 83.1655 49.4867 83.6291 50.1581Z" fill="#FF7DAB" stroke="#FF7DAB" stroke-width="1.08303" stroke-linecap="round"/>
<path d="M136.217 50.1581C136.512 50.5848 136.785 51.0275 137.069 51.4616C137.389 51.6305 137.909 52.0438 137.934 52.3946C137.95 52.6229 137.937 52.841 137.904 53.0516C137.895 53.1106 138.04 53.3702 138.071 53.4378C138.153 53.6135 138.215 53.7599 138.271 53.9488C138.349 54.2112 138.544 54.4311 138.589 54.708C138.632 54.9735 138.887 55.1429 138.965 55.3961C139.038 55.6309 138.965 57.0436 138.968 57.2782C138.867 57.4609 138.892 57.5663 138.953 57.7589C139.079 58.1528 139.017 58.5663 139.12 58.9579C139.205 59.2832 139.194 59.6872 139.209 60.0205C139.243 60.7931 138.929 61.5255 138.758 62.2746C138.564 63.12 138.094 63.7649 137.643 64.4867C137.523 64.6797 137.254 64.8363 137.086 64.9888C136.827 65.2236 136.55 65.4716 136.316 65.7312C136.021 66.059 135.673 66.382 135.354 66.6888C134.747 67.2744 134.157 67.8368 133.447 68.3004L131.936 69.2877C131.538 69.5473 131.165 69.6359 130.741 69.833C130.406 69.9881 129.976 70.0967 129.614 70.1468C129.248 70.1975 128.897 70.3752 128.519 70.4233C127.993 70.4903 127.378 70.4044 126.849 70.3163C126.777 70.3042 126.423 70.2281 126.426 70.2398C126.427 70.2425 126.201 70.3095 126.173 70.3072C125.686 70.267 125.209 70.1168 124.708 70.0909C124.359 70.0728 123.864 70.113 123.531 70.0111C123.313 69.9443 123.106 69.8267 122.888 69.7534C122.349 69.5725 121.854 69.263 121.29 69.153C120.879 69.0728 120.511 69.0053 120.129 68.831C119.481 68.5357 118.908 68.0047 118.372 67.5342C118.066 67.2653 117.775 66.9465 117.444 66.7109C117.27 66.5865 117.015 66.4603 116.872 66.3011C116.688 66.0962 116.704 65.8565 116.485 65.6648C115.977 65.2206 115.529 65.051 115.16 64.4867C114.965 64.187 114.747 63.1194 114.501 62.8641C114.407 62.7666 114.267 62.7614 114.171 62.6573C114.062 62.5395 113.981 62.3991 113.872 62.2802C113.644 62.0331 113.477 61.7319 113.294 61.4517C113.093 61.1438 113.02 60.9258 113.085 60.5728C113.139 60.2765 113.018 60.3277 112.979 60.037C112.918 59.5922 112.826 59.1504 112.882 58.6952C112.92 58.377 112.975 58.121 113.107 57.8336C113.176 57.6819 113.3 57.6781 113.279 57.5014C113.248 57.2269 113.306 56.8359 113.363 56.5659C113.497 55.9265 113.749 55.327 113.928 54.7023C114.05 54.2726 114.153 53.8006 114.318 53.3915C114.744 52.3382 115.332 51.3617 115.985 50.4302C116.215 50.1029 116.464 49.9385 116.797 49.7211C117.345 49.3631 117.887 48.9927 118.442 48.6464C118.692 48.4904 118.987 48.4368 119.238 48.2729L119.778 47.9196C120.076 47.7248 120.36 47.4788 120.716 47.4163C121.107 47.3477 121.499 47.1846 121.877 47.0603C122.074 46.9954 122.296 47.0063 122.451 46.8271C122.506 46.7634 122.311 46.6388 122.38 46.5935C122.47 46.5345 122.601 46.6522 122.704 46.5928C122.948 46.4521 123.161 46.2409 123.444 46.1829C123.625 46.1457 123.935 46.1488 124.117 46.1816C124.284 46.2117 124.402 46.1392 124.566 46.148C124.777 46.1595 124.988 46.196 125.201 46.1879C125.615 46.172 126.001 46.1798 126.413 46.1105C126.685 46.0649 126.958 46.0372 127.234 46.0295C127.493 46.0223 127.846 45.9075 128.098 45.9602C128.531 46.051 128.978 46.0528 129.42 46.1196C130.025 46.2111 130.675 46.2988 131.258 46.4903C131.673 46.6265 132.068 46.8956 132.474 47.0645C132.601 47.1172 132.736 47.1379 132.85 47.217C133.386 47.5881 134.222 47.7792 134.637 48.2991C135.143 48.9326 135.753 49.4867 136.217 50.1581Z" fill="#FF7DAB" stroke="#FF7DAB" stroke-width="1.08303" stroke-linecap="round"/>
<path d="M112.817 66.3464C113.169 65.9952 113.671 65.2639 113.671 64.7489C113.671 64.2552 114.174 63.4229 114.174 62.946V61.4987C114.174 60.1206 113.413 58.4714 112.676 57.333C112.049 56.3638 111.645 55.2475 111.048 54.2526C110.815 53.8638 110.298 53.7518 110.013 53.4184C109.744 53.103 109.343 52.8675 108.978 52.6747C108.555 52.4514 108.308 52.0069 107.892 51.73C107.256 51.3054 106.562 51.1142 105.852 50.8456C104.209 50.224 102.558 49.7803 100.787 49.7803C99.0162 49.7803 96.0489 50.224 94.4061 50.8456C93.6963 51.1142 93.0028 51.3054 92.3659 51.73C91.9506 52.0069 91.7035 52.4514 91.2805 52.6747C90.9152 52.8675 90.5146 53.103 90.2453 53.4184C89.9608 53.7518 89.4434 53.8638 89.2102 54.2526C88.6132 55.2475 88.2091 56.3638 87.582 57.333C86.8454 58.4714 86.0846 60.1206 86.0846 61.4987V62.946C86.0846 63.4229 86.5878 64.2552 86.5878 64.7489C86.5878 65.2639 87.0898 65.9952 87.4411 66.3464C87.7805 66.6858 88.0716 67.1028 88.485 67.3631C89.0146 67.6965 89.6675 67.8102 90.2232 68.0983C91.3264 68.6704 92.5313 69.1407 93.7588 69.3419C94.1896 69.4125 94.5384 69.6361 94.9842 69.6505C95.3878 69.6635 95.7869 69.7714 96.1869 69.8184C96.8176 69.8926 97.4326 69.8956 98.0704 69.8956C98.368 69.8956 102.067 69.978 102.188 69.8956C102.826 69.8956 103.441 69.8926 104.071 69.8184C104.471 69.7714 104.871 69.6635 105.274 69.6505C105.72 69.6361 106.069 69.4125 106.5 69.3419C107.727 69.1407 108.932 68.6704 110.035 68.0983C110.591 67.8102 111.244 67.6965 111.773 67.3631C112.187 67.1028 112.478 66.6858 112.817 66.3464Z" fill="white" stroke="white" stroke-width="2.74368" stroke-linecap="round"/>
<path d="M98.7334 52.961C98.9236 52.951 99.1006 52.8803 99.2831 52.833C99.525 52.7703 99.7748 52.7778 100.016 52.7254C100.33 52.6572 100.686 52.6469 101.008 52.6469C101.1 52.6469 101.556 52.5991 101.52 52.7108C101.423 53.0142 101.185 53.1966 101.014 53.4438C100.838 53.6979 100.419 54.1652 100.121 54.1652C99.6219 54.1652 99.2961 53.5433 99.0475 53.1704" stroke="#020202" stroke-width="2.74368" stroke-linecap="round"/>
<path d="M87.6649 49.1081C87.6649 49.5399 87.6169 50.0307 88.0162 50.2874C88.4978 50.597 88.7689 49.9315 88.7689 49.5625C88.7689 49.1698 88.93 48.5059 88.3953 48.5059C87.9519 48.5059 87.8656 48.6001 87.8656 49.0579" stroke="black" stroke-width="1.08303" stroke-linecap="round"/>
<path d="M112.2 49.1081C112.2 49.5399 112.152 50.0307 112.551 50.2874C113.033 50.597 113.304 49.9315 113.304 49.5625C113.304 49.1698 113.465 48.5059 112.93 48.5059C112.487 48.5059 112.401 48.6001 112.401 49.0579" stroke="black" stroke-width="1.08303" stroke-linecap="round"/>
<path d="M100.144 55.8945C100.144 56.8997 100.144 57.9049 100.144 58.9101C100.144 59.6794 100.312 60.4293 100.312 61.2045" stroke="black" stroke-width="1.08303" stroke-linecap="round"/>
<path d="M81.1006 9.86236C82.5947 9.3091 84.1257 8.9724 85.677 8.55293C83.6667 6.58243 79.0871 4.3104 76.18 5.03408C75.1964 5.27894 74.132 5.54993 73.2453 6.07542C72.9067 6.27612 72.5992 6.61596 72.3197 6.88994C71.9938 7.20943 71.5448 7.50984 71.2784 7.86427C70.2957 9.17147 69.7637 10.6569 69.7637 12.2771C69.7637 13.1401 69.9661 14.9854 70.7619 15.5054C71.1441 15.1272 71.5323 14.7556 71.9544 14.4195C72.1637 14.2528 72.2543 13.9966 72.4636 13.8296C72.6713 13.6639 72.9375 13.5907 73.1514 13.4277C73.4855 13.173 73.8344 13.0233 74.1963 12.8183C76.3794 11.5819 78.7543 10.7312 81.1006 9.86236Z" fill="#FFCFE0"/>
<path d="M118.408 9.86236C116.914 9.3091 115.383 8.9724 113.832 8.55293C115.842 6.58243 120.422 4.3104 123.329 5.03408C124.312 5.27894 125.377 5.54993 126.263 6.07542C126.602 6.27612 126.91 6.61596 127.189 6.88994C127.515 7.20943 127.964 7.50984 128.23 7.86427C129.213 9.17147 129.745 10.6569 129.745 12.2771C129.745 13.1401 129.543 14.9854 128.747 15.5054C128.365 15.1272 127.976 14.7556 127.554 14.4195C127.345 14.2528 127.255 13.9966 127.045 13.8296C126.838 13.6639 126.571 13.5907 126.357 13.4277C126.023 13.173 125.674 13.0233 125.313 12.8183C123.129 11.5819 120.755 10.7312 118.408 9.86236Z" fill="#FFCFE0"/>
<path d="M71.7279 178.585C71.7007 179.075 71.3535 179.506 71.3535 179.989" stroke="#FF7DAB" stroke-width="2.74368" stroke-linecap="round"/>
<path d="M79.9641 178.865C79.9641 179.137 79.8026 180.831 79.4961 180.831" stroke="#FF7DAB" stroke-width="2.74368" stroke-linecap="round"/>
<path d="M127.372 178.585C127.399 179.075 127.746 179.506 127.746 179.989" stroke="#FF7DAB" stroke-width="2.74368" stroke-linecap="round"/>
<path d="M119.136 178.865C119.136 179.137 119.297 180.831 119.604 180.831" stroke="#FF7DAB" stroke-width="2.74368" stroke-linecap="round"/>
<path d="M98.3325 61.2808L98.406 60.7443C98.1447 60.7085 97.8957 60.8661 97.8162 61.1175C97.7367 61.369 97.8499 61.6411 98.0842 61.762L98.3325 61.2808ZM99.5256 61.3217L99.469 61.8602L99.5256 61.3217ZM100.657 61.3058L100.726 61.8429L100.657 61.3058ZM101.493 61.3317L101.516 60.7907L101.493 61.3317ZM102.029 61.3729L102.362 60.9456L102.029 61.3729ZM101.91 62.1903L101.418 61.9631L101.91 62.1903ZM101.723 62.4448L101.381 62.0255L101.723 62.4448ZM101.53 62.783L102.001 63.0501L101.53 62.783ZM101.114 63.3863L101.544 63.7148L101.114 63.3863ZM100.214 63.7039L100.573 63.2989L100.214 63.7039ZM99.8855 63.4458L99.6372 63.927L99.8855 63.4458ZM99.4073 63.0323L99.7211 62.591L99.4073 63.0323ZM98.9459 62.6149L99.3372 62.2405L98.9459 62.6149ZM98.5996 62.2024L98.1622 62.5218L98.5996 62.2024ZM98.46 61.8221L97.9782 62.0694L98.46 61.8221ZM98.2591 61.8173C98.5016 61.8505 98.7373 61.8493 98.9341 61.8475C99.1426 61.8456 99.3076 61.8433 99.469 61.8602L99.5821 60.7831C99.3466 60.7584 99.1138 60.7628 98.9243 60.7645C98.7232 60.7663 98.5608 60.7655 98.406 60.7443L98.2591 61.8173ZM99.469 61.8602C99.8838 61.9038 100.317 61.8955 100.726 61.8429L100.588 60.7687C100.257 60.8113 99.9083 60.8174 99.5821 60.7831L99.469 61.8602ZM100.726 61.8429C100.813 61.8317 100.912 61.8325 101.039 61.8411C101.14 61.8479 101.33 61.8665 101.469 61.8726L101.516 60.7907C101.379 60.7846 101.289 60.7725 101.112 60.7605C100.959 60.7503 100.779 60.7442 100.588 60.7687L100.726 61.8429ZM101.469 61.8726C101.549 61.8762 101.627 61.869 101.671 61.8648C101.728 61.8595 101.757 61.8563 101.788 61.855C101.817 61.8538 101.82 61.856 101.808 61.8537C101.793 61.851 101.747 61.8398 101.696 61.8001L102.362 60.9456C102.128 60.7638 101.857 60.7681 101.743 60.773C101.676 60.7758 101.607 60.7831 101.571 60.7864C101.522 60.7909 101.513 60.7905 101.516 60.7907L101.469 61.8726ZM101.696 61.8001C101.703 61.8058 101.678 61.7879 101.65 61.7446C101.635 61.7216 101.621 61.694 101.61 61.6625C101.599 61.631 101.594 61.6019 101.591 61.5773C101.587 61.5341 101.593 61.5078 101.59 61.5283C101.589 61.5372 101.587 61.5475 101.583 61.5681C101.58 61.5866 101.576 61.6113 101.571 61.6389L102.641 61.8057C102.644 61.7905 102.646 61.7758 102.65 61.7574C102.653 61.7411 102.657 61.7173 102.66 61.6939C102.667 61.65 102.679 61.5676 102.669 61.4721C102.645 61.22 102.5 61.0538 102.362 60.9456L101.696 61.8001ZM101.571 61.6389C101.569 61.6559 101.563 61.6771 101.54 61.7244C101.526 61.7515 101.512 61.7775 101.49 61.8199C101.469 61.8586 101.444 61.9079 101.418 61.9631L102.401 62.4175C102.414 62.3905 102.428 62.3629 102.447 62.327C102.464 62.2946 102.489 62.248 102.512 62.2015C102.561 62.1014 102.616 61.9708 102.641 61.8057L101.571 61.6389ZM101.418 61.9631C101.412 61.9756 101.402 61.9946 101.389 62.0128C101.383 62.0213 101.378 62.0271 101.375 62.0302C101.372 62.0337 101.373 62.0314 101.381 62.0255L102.066 62.8641C102.224 62.7347 102.339 62.5522 102.401 62.4175L101.418 61.9631ZM101.381 62.0255C101.231 62.1474 101.157 62.2963 101.12 62.3782C101.103 62.4153 101.082 62.4652 101.075 62.4811C101.07 62.4932 101.066 62.5014 101.064 62.5076C101.061 62.5137 101.059 62.516 101.059 62.5159L102.001 63.0501C102.032 62.9955 102.055 62.9435 102.071 62.9083C102.078 62.8919 102.086 62.8711 102.091 62.8601C102.097 62.8463 102.101 62.8366 102.105 62.8284C102.122 62.7901 102.113 62.8259 102.066 62.8641L101.381 62.0255ZM101.059 62.5159C100.956 62.6986 100.837 62.8558 100.683 63.0577L101.544 63.7148C101.694 63.5183 101.856 63.306 102.001 63.0501L101.059 62.5159ZM100.683 63.0577C100.662 63.0857 100.627 63.1233 100.583 63.1601C100.54 63.1972 100.498 63.2241 100.465 63.2397C100.429 63.2565 100.426 63.2502 100.45 63.2505C100.464 63.2507 100.486 63.2532 100.511 63.2625C100.537 63.2721 100.558 63.2856 100.573 63.2989L99.8541 64.1089C100.23 64.4425 100.677 64.3376 100.928 64.2186C101.186 64.0965 101.407 63.8947 101.544 63.7148L100.683 63.0577ZM100.573 63.2989C100.514 63.2461 100.341 63.0714 100.134 62.9646L99.6372 63.927C99.6865 63.9525 99.7103 63.9813 99.8541 64.1089L100.573 63.2989ZM100.134 62.9646C100.125 62.9601 100.101 62.9442 100.027 62.8692C99.9721 62.8132 99.8564 62.6872 99.7211 62.591L99.0934 63.4736C99.1299 63.4995 99.1604 63.5324 99.255 63.6286C99.331 63.7058 99.4601 63.8357 99.6372 63.927L100.134 62.9646ZM99.7211 62.591C99.6078 62.5104 99.4669 62.3761 99.3372 62.2405L98.5547 62.9893C98.6934 63.1343 98.8925 63.3307 99.0934 63.4736L99.7211 62.591ZM99.3372 62.2405C99.2352 62.1339 99.1231 62.0012 99.0369 61.883L98.1622 62.5218C98.2786 62.6811 98.4218 62.8504 98.5547 62.9893L99.3372 62.2405ZM99.0369 61.883C99.0604 61.9153 99.061 61.9396 99.0466 61.8824C99.0422 61.8648 99.0294 61.8106 99.0164 61.7657C99.0014 61.7143 98.9788 61.647 98.9418 61.5749L97.9782 62.0694C97.9739 62.0609 97.9715 62.0482 97.9963 62.1466C98.0147 62.2198 98.0536 62.373 98.1622 62.5218L99.0369 61.883ZM98.9418 61.5749C98.9601 61.6107 98.9691 61.6395 98.9728 61.6521C98.9769 61.6662 98.9787 61.6757 98.9791 61.6777C98.9796 61.6807 98.9786 61.6755 98.9765 61.6556C98.9746 61.6365 98.9728 61.6148 98.9703 61.5844C98.968 61.5561 98.9651 61.5215 98.9614 61.486C98.9547 61.4211 98.9425 61.3217 98.9137 61.2244C98.8989 61.1747 98.8743 61.1059 98.8311 61.0352C98.7881 60.9648 98.7107 60.8666 98.5808 60.7996L98.0842 61.762C97.9829 61.7097 97.9295 61.6368 97.9069 61.5998C97.8841 61.5624 97.8761 61.535 97.8753 61.5323C97.8743 61.5287 97.8787 61.545 97.8841 61.5976C97.8865 61.6207 97.8886 61.6452 97.891 61.6739C97.8932 61.7004 97.8959 61.7335 97.899 61.7646C97.9021 61.7948 97.9067 61.835 97.9144 61.8762C97.9183 61.8973 97.924 61.9241 97.9325 61.9534C97.9406 61.9812 97.9544 62.023 97.9782 62.0694L98.9418 61.5749Z" fill="black"/>
<g clip-path="url(#clip0_1475_24543)">
<path d="M136.514 126.45C135.517 123.279 134.76 120.849 133.56 117.827C132.374 114.842 130.052 111.701 127.889 109.354C125.687 106.964 123.119 104.886 120.524 102.951C119.657 102.306 118.411 101.618 117.531 100.993C116.939 100.574 116.687 100.245 116.046 99.8829C115.83 99.7599 114.328 97.9881 114.345 97.7055C114.414 96.5886 115.308 94.5774 116.099 93.8993C116.747 93.3441 117.185 92.3934 117.401 91.5789C117.783 90.1329 116.793 89.0525 115.604 88.4109C113.225 87.1311 110.414 86.8552 108.003 85.6119C106.554 84.8639 105.092 84.2889 103.438 84.4717C101.604 84.6745 99.8499 85.2728 97.9861 85.2562C95.9695 85.2396 93.9164 84.957 91.9463 85.5354C89.8733 86.1438 88.0793 87.2042 86.1059 88.0885C84.6541 88.74 83.9664 89.7572 84.3351 91.2C84.767 92.892 86.8235 94.8666 87.6042 96.5387H87.5743C87.3417 97.4994 88.1856 98.1676 87.2221 98.3704L86.9198 98.5033C83.4415 99.3643 78.6043 102.506 76.3286 105.065C72.1327 109.783 68.8736 113.629 66.0397 119.416C59.4917 132.786 57.0166 144.923 71.1327 158.346C72.043 159.211 72.9533 160.098 74.0629 160.68C75.4648 161.415 77.0628 161.667 78.6342 161.85C85.1192 162.611 91.5078 162.522 98.0027 162.126C105.431 161.677 114.544 163.718 121.763 161.598C128.245 159.693 139.999 149.594 138.451 134.372C138.261 132.504 137.956 131.157 137.414 129.356C137.125 128.395 136.829 127.424 136.52 126.447L136.514 126.45Z" fill="#6ECEFF"/>
<path d="M106.523 96.426C106.57 96.2897 106.62 96.1568 106.669 96.0238C106.719 95.8908 106.772 95.7579 106.829 95.6249C106.849 95.5784 106.869 95.5318 106.889 95.482C106.945 95.3457 106.802 95.6847 106.865 95.5385C106.905 95.4454 106.945 95.3556 106.985 95.2625C107.158 94.8769 107.344 94.498 107.553 94.129C107.659 93.9395 107.776 93.7533 107.899 93.5705C107.925 93.5339 107.949 93.4974 107.975 93.4608C108.015 93.4043 108.158 93.2447 107.972 93.4608C108.035 93.3877 108.095 93.3112 108.161 93.2381C108.467 92.9023 108.517 92.3372 108.161 92.0114C107.829 91.7056 107.261 91.6524 106.935 92.0114C106.311 92.7029 105.869 93.5439 105.49 94.3883C105.261 94.9035 105.038 95.4288 104.856 95.964C104.709 96.3928 105.025 96.9313 105.46 97.031C105.942 97.1407 106.37 96.8848 106.527 96.426H106.523Z" fill="#51C5FF"/>
<path d="M93.505 92.3863C93.5615 92.4395 93.6147 92.496 93.6678 92.5525C93.6977 92.5857 93.7243 92.619 93.7509 92.6489C93.8273 92.7353 93.7243 92.6256 93.7077 92.5957C93.7841 92.7353 93.8904 92.865 93.9701 93.0046C94.0499 93.1442 94.113 93.2805 94.1794 93.4234C94.196 93.4633 94.216 93.5032 94.2326 93.5431C94.2791 93.6495 94.2193 93.5165 94.206 93.48C94.2359 93.5631 94.2725 93.6428 94.3057 93.726C94.5681 94.3908 94.8073 95.0723 95.1861 95.6806C95.4286 96.0662 95.9701 96.2524 96.3721 95.9931C96.7741 95.7338 96.9402 95.2185 96.6844 94.8063C96.5947 94.6634 96.5116 94.5171 96.4385 94.3642C96.402 94.2911 96.3688 94.2213 96.3355 94.1481C96.3156 94.1082 96.299 94.0683 96.2824 94.0251C96.2292 93.8988 96.2824 93.9886 96.2957 94.0617C96.2591 93.9021 96.1661 93.7426 96.1063 93.5897C96.0465 93.4367 95.9834 93.2739 95.9203 93.1176C95.6279 92.4029 95.299 91.7048 94.7342 91.1596C94.4087 90.8438 93.8273 90.8106 93.5083 91.1596C93.1894 91.5087 93.1595 92.0505 93.5083 92.3863H93.505Z" fill="#51C5FF"/>
<path d="M100.126 90.8673C100.126 92.32 99.9396 93.796 100.126 95.2454C100.156 95.4847 100.202 95.6808 100.378 95.8603C100.528 96.0099 100.777 96.123 100.993 96.113C101.411 96.093 101.923 95.7274 101.86 95.2454C101.674 93.7993 101.86 92.32 101.86 90.8673C101.86 90.4119 101.461 89.9797 100.993 89.9997C100.524 90.0196 100.126 90.382 100.126 90.8673Z" fill="#51C5FF"/>
<path d="M85.5586 97.9196C88.3924 97.0819 91.213 97.012 94.4389 96.8824C97.0235 96.7793 99.9172 97.0519 102.505 97.1151C103.788 97.145 105.067 97.2181 106.346 97.2913C108.993 97.4409 111.724 97.0952 116.239 98.2487" fill="#DAF3FF"/>
<path d="M86.0701 99.7806C86.5751 99.6343 87.0867 99.5047 87.605 99.3983C87.8375 99.3518 88.0701 99.3052 88.306 99.2653C88.399 99.2487 88.492 99.2321 88.5884 99.2188C88.698 99.2022 89.3392 99.0858 88.781 99.1855C89.7777 99.006 90.8209 98.9794 91.8275 98.9262C94.0202 98.8099 96.1995 98.7667 98.3922 98.8664C100.615 98.9661 102.844 99.0359 105.067 99.1523C106.638 99.2354 108.206 99.252 109.777 99.2952C110.704 99.3185 111.628 99.3783 112.548 99.4847L112.674 99.5013C112.887 99.5279 112.844 99.5213 112.548 99.4814C112.691 99.4714 112.87 99.5279 113.013 99.5512C113.292 99.5944 113.568 99.641 113.844 99.6941C114.475 99.8138 115.103 99.9534 115.724 100.113C116.701 100.359 117.864 99.7972 118.096 98.7634C118.329 97.7295 117.794 96.6525 116.747 96.3898C114.714 95.8779 112.628 95.5621 110.532 95.4624C109.03 95.3926 107.522 95.4291 106.02 95.346C103.734 95.2197 101.449 95.1566 99.1629 95.0435C96.9337 94.9338 94.7278 94.9338 92.4986 95.0336C89.9937 95.1466 87.4588 95.356 85.0402 96.0607C84.0735 96.3433 83.3692 97.4337 83.6914 98.4343C84.0137 99.4349 85.027 100.086 86.0635 99.7839L86.0701 99.7806Z" fill="#9DDEFF"/>
<path d="M98.7994 97.6928C96.6001 97.1443 94.3875 96.5093 92.135 96.2235C90.8062 96.0539 89.5171 96.2002 88.2082 96.4495C87.5338 96.5791 86.8328 96.7686 86.2813 97.1875C85.7298 97.6063 85.2647 98.208 84.8627 98.7964C84.1784 99.797 83.8926 100.901 83.8029 102.097C83.7431 102.882 83.783 103.62 84.1518 104.338C84.494 104.999 85.1617 105.415 85.8295 105.688C87.2381 106.266 88.7098 105.963 90.0852 105.452C91.6865 104.857 93.3344 104.371 94.9124 103.716C96.4905 103.061 98.1051 102.23 99.5834 101.263C100.514 100.655 99.6466 99.1521 98.7064 99.7638C97.5436 100.522 96.3277 101.197 95.0619 101.772C93.7961 102.347 92.5204 102.719 91.2314 103.168C90.0753 103.57 88.8859 104.232 87.6401 104.278C87.0654 104.298 86.4873 104.165 86.0022 103.843C85.5571 103.543 85.4807 103.051 85.5072 102.546C85.5571 101.569 85.7032 100.711 86.2049 99.91C86.4906 99.4546 86.8394 98.946 87.2647 98.6103C87.66 98.2978 88.2182 98.208 88.7032 98.1183C89.0055 98.0618 89.3112 98.0086 89.6168 97.962C89.7132 97.9487 89.8328 97.9354 89.6567 97.9554C89.7165 97.9487 89.773 97.9421 89.8328 97.9354C89.9756 97.9188 90.1185 97.9055 90.2613 97.8955C90.8095 97.859 91.361 97.8756 91.9091 97.9354C91.9457 97.9388 92.2048 97.972 92.0919 97.9554C91.9855 97.9421 92.2347 97.9753 92.2879 97.9853C92.4872 98.0152 92.6899 98.0518 92.8892 98.0884C93.3476 98.1748 93.8061 98.2712 94.2613 98.3776C95.6267 98.6867 96.9855 99.0324 98.3409 99.3715C99.424 99.6408 99.8858 97.9687 98.8027 97.6994L98.7994 97.6928Z" fill="#DAF3FF"/>
<path d="M98.4224 97.9964C98.3826 98.3255 98.3859 98.648 98.3759 98.9771C98.3759 99.0136 98.3693 99.0569 98.3759 99.0934C98.3493 98.8807 98.4191 98.8075 98.3892 98.9605C98.3693 99.0535 98.3493 99.1466 98.3327 99.2397C98.2829 99.5223 98.3195 99.7982 98.3593 100.081C98.4025 100.39 98.4822 100.656 98.5952 100.948C98.6151 101.002 98.6351 101.055 98.6583 101.105C98.7248 101.251 98.6417 100.975 98.6483 100.942C98.6317 101.041 98.6351 101.154 98.6351 101.254C98.6317 101.513 98.7513 101.856 98.954 102.045C99.0304 102.115 98.8576 101.769 98.9042 101.912C98.9241 101.976 98.9473 102.035 98.9706 102.099C99.0171 102.228 99.0669 102.358 99.1334 102.478C99.2065 102.607 99.2862 102.773 99.3958 102.873C99.5653 103.029 99.7613 103.092 99.9739 103.142C100.396 103.242 100.957 103.013 101.04 102.537C101.077 102.315 101.13 102.102 101.177 101.882C101.213 101.706 101.22 101.527 101.206 101.347C101.19 101.135 101.16 101.55 101.18 101.46C101.196 101.387 101.206 101.311 101.223 101.234C101.273 100.965 101.266 100.712 101.256 100.44C101.25 100.277 101.256 100.084 101.206 99.9278C101.17 99.8148 101.12 99.7051 101.074 99.5921V100.054C101.137 99.8181 101.223 99.5854 101.19 99.3361C101.16 99.1067 101.024 98.8807 100.921 98.6712L101.04 99.11C101.04 98.8508 101.047 98.6081 100.947 98.3621C100.878 98.1859 100.821 98.0097 100.765 97.8302C100.632 97.3981 100.153 97.0756 99.6982 97.2252C99.243 97.3748 98.9473 97.8269 99.0935 98.2923C99.1301 98.4086 99.1633 98.5283 99.2032 98.6413C99.2264 98.7045 99.253 98.7643 99.2762 98.8242C99.2929 98.8641 99.3061 98.9139 99.3294 98.9505C99.3859 99.0469 99.3161 98.648 99.3061 98.7643C99.2862 99.0303 99.3161 99.3062 99.4257 99.5455C99.4789 99.6619 99.5354 99.7749 99.5919 99.8879L99.5055 99.2197C99.4723 99.3427 99.4324 99.4624 99.4058 99.5854C99.3427 99.8613 99.4025 100.094 99.5154 100.337C99.6118 100.539 99.5088 100.018 99.5154 100.257C99.5154 100.333 99.5221 100.413 99.5254 100.49C99.5321 100.613 99.5221 100.746 99.5387 100.865C99.5586 101.005 99.5919 100.576 99.5653 100.692C99.5586 100.726 99.552 100.756 99.5487 100.789C99.5354 100.865 99.5188 100.942 99.5055 101.015C99.4756 101.194 99.4556 101.4 99.4789 101.587C99.4955 101.726 99.5387 101.301 99.5055 101.414C99.4955 101.444 99.4889 101.477 99.4822 101.51C99.4656 101.587 99.4424 101.66 99.4291 101.736C99.4058 101.846 99.3892 101.959 99.3693 102.069L100.436 101.464L100.24 101.417L100.758 101.816C100.711 101.736 100.672 101.63 100.608 101.56C100.575 101.523 100.718 101.849 100.662 101.683C100.642 101.62 100.615 101.557 100.595 101.494C100.509 101.254 100.393 101.075 100.25 100.869L100.369 101.307C100.379 101.108 100.412 100.879 100.353 100.682C100.313 100.559 100.256 100.44 100.21 100.317C100.163 100.194 100.11 100.064 100.084 99.9345C100.064 99.8414 100.057 99.745 100.04 99.6519C100.017 99.4923 100.067 99.9378 100.064 99.8181C100.064 99.7815 100.057 99.745 100.057 99.7117C100.05 99.6386 100.06 99.5422 100.04 99.4724C100.08 99.602 99.9872 99.7849 100.024 99.622C100.034 99.5721 100.044 99.5189 100.054 99.4691C100.097 99.2596 100.117 99.0535 100.12 98.8408C100.127 98.5516 100.13 98.2723 100.163 97.9865C100.216 97.5344 99.7281 97.0989 99.2962 97.1188C98.7812 97.1421 98.4856 97.5011 98.4291 97.9865L98.4224 97.9964Z" fill="#DAF3FF"/>
<path d="M100.764 99.7391C101.926 99.1474 103.222 98.938 104.488 98.6787C105.159 98.5424 105.83 98.3895 106.478 98.1635C107.079 97.954 107.64 97.6748 108.258 97.5053C108.876 97.3357 109.441 97.2327 110.046 97.1695C110.607 97.1063 111.238 97.0033 111.8 97.0831C112.361 97.1629 112.88 97.4388 113.328 97.7579C113.414 97.8177 113.494 97.8809 113.574 97.9507C113.611 97.9806 113.826 98.1635 113.68 98.0305C113.737 98.0803 113.777 98.1967 113.71 98.0471C113.753 98.1435 113.777 98.2466 113.807 98.3463C114.175 99.5763 114.405 100.876 114.431 102.166C114.441 102.701 114.385 103.253 114.082 103.708C113.807 104.124 113.365 104.267 112.88 104.29C110.916 104.38 109.109 103.226 107.464 102.189C105.451 100.919 103.368 99.5131 100.92 99.3868C99.8034 99.3303 99.8067 101.066 100.92 101.122C103.062 101.235 105.039 102.718 106.843 103.845C108.83 105.088 111.109 106.361 113.544 105.952C115.066 105.696 115.956 104.393 116.129 102.934C116.218 102.192 116.129 101.454 116.039 100.716C115.949 99.9785 115.856 99.1674 115.644 98.4194C115.507 97.9374 115.388 97.4155 115.072 97.0166C114.694 96.5346 114.119 96.1556 113.574 95.883C112.923 95.5572 112.205 95.3245 111.471 95.3312C110.737 95.3378 110.036 95.4276 109.328 95.5273C108.571 95.637 107.81 95.7933 107.092 96.0625C106.312 96.3584 105.567 96.6642 104.747 96.8537C103.092 97.2393 101.431 97.462 99.8964 98.2432C99.4778 98.456 99.3582 99.0444 99.5841 99.43C99.8333 99.8555 100.352 99.9552 100.77 99.7425L100.764 99.7391Z" fill="#DAF3FF"/>
<path d="M97.2375 125.955C96.5864 122.278 96.2874 118.545 96.3372 114.812C96.3771 111.697 96.5066 108.432 97.5897 105.477C98.1245 104.015 98.9717 102.701 100.168 101.698C100.526 101.395 100.48 100.78 100.168 100.471C99.8122 100.115 99.3006 100.168 98.9418 100.471C96.5365 102.489 95.4867 105.61 95.0415 108.625C94.5 112.302 94.4867 116.095 94.7459 119.798C94.902 122.015 95.1777 124.226 95.5664 126.417C95.6495 126.879 96.2109 127.138 96.6329 127.022C97.1179 126.889 97.3206 126.417 97.2375 125.955Z" fill="#DAF3FF"/>
<path d="M100.285 101.107C103.132 104.71 104.342 109.298 105.006 113.762C105.783 118.998 105.983 124.333 106.335 129.612C106.548 132.777 106.757 135.942 106.969 139.106C106.999 139.575 107.345 139.974 107.837 139.974C108.282 139.974 108.737 139.575 108.704 139.106C108.318 133.359 107.963 127.611 107.541 121.867C107.175 116.897 106.817 111.804 105.262 107.037C104.418 104.448 103.202 102.024 101.511 99.8835C101.219 99.5145 100.588 99.5777 100.285 99.8835C99.9231 100.246 99.9928 100.741 100.285 101.11V101.107Z" fill="#DAF3FF"/>
</g>
<path d="M114.619 91.9609C115.151 91.4521 115.808 90.6701 116.594 90.6238L134.1 82.8301L143.618 114.453L138.811 118.209C137.98 119.04 137.021 119.55 136.219 120.441C135.555 121.178 134.926 121.896 134.1 122.468C133.016 123.218 131.88 123.479 130.665 123.949C127.903 125.015 125.091 126.175 122.138 126.448C119.183 126.722 116.323 126.253 113.55 125.162C110.114 123.811 107.486 121.389 105.969 118.035C104.517 114.824 104.701 110.58 105.301 107.204C106.04 103.042 107.291 98.6606 110.402 95.6945C111.761 94.3987 113.269 93.2525 114.619 91.9609Z" fill="#FF96BB"/>
<path d="M121.38 88.7461C120.593 88.7924 115.151 91.4516 114.619 91.9604C113.269 93.252 111.761 94.3982 110.402 95.694C107.291 98.6601 106.04 103.042 105.301 107.203C104.701 110.579 104.517 114.823 105.969 118.034C107.486 121.388 110.114 123.811 113.55 125.162C116.323 126.252 119.183 126.721 122.138 126.448C125.091 126.174 127.903 125.015 130.665 123.948C131.88 123.479 133.016 123.217 134.1 122.467C134.926 121.895 135.555 121.178 136.219 120.441C137.021 119.549 140.339 117.527 141.17 116.697" stroke="#FF7DAB" stroke-width="2.74368" stroke-linecap="round"/>
<path d="M86.5204 91.9609C85.9885 91.4521 85.332 90.6701 84.5456 90.6238L67.0398 82.8301L57.5218 114.453L62.329 118.209C63.1598 119.04 64.1184 119.55 64.921 120.441C65.5843 121.178 66.2139 121.896 67.0398 122.468C68.1233 123.218 69.26 123.479 70.4751 123.949C73.2362 125.015 76.0487 126.175 79.0017 126.448C81.957 126.722 84.8167 126.253 87.5901 125.162C91.0253 123.811 93.6532 121.389 95.1705 118.035C96.6229 114.824 96.4385 110.58 95.839 107.204C95.1 103.042 93.8482 98.6606 90.7374 95.6945C89.3784 94.3987 87.8707 93.2525 86.5204 91.9609Z" fill="#FF96BB"/>
<path d="M79.7597 88.7461C80.5462 88.7924 85.9885 91.4516 86.5204 91.9604C87.8707 93.252 89.3784 94.3982 90.7374 95.694C93.8482 98.6601 95.1 103.042 95.839 107.203C96.4385 110.579 96.6229 114.823 95.1705 118.034C93.6532 121.388 91.0253 123.811 87.5901 125.162C84.8167 126.252 81.957 126.721 79.0017 126.448C76.0487 126.174 73.2362 125.015 70.4751 123.948C69.26 123.479 68.1233 123.217 67.0398 122.467C66.2139 121.895 65.5843 121.178 64.921 120.441C64.1184 119.549 60.8008 117.527 59.97 116.697" stroke="#FF7DAB" stroke-width="2.74368" stroke-linecap="round"/>
<defs>
<clipPath id="clip0_1475_24543">
<rect width="77.7795" height="78.1464" fill="white" transform="translate(60.8047 84.4385)"/>
</clipPath>
</defs>
</svg>
