<svg width="202" height="201" viewBox="0 0 202 201" fill="none" xmlns="http://www.w3.org/2000/svg">
<path d="M153.64 81.6321C156.111 79.196 159.223 76.1425 162.463 74.7356C163.338 74.4507 166.966 74.1454 167.252 75.0215C167.493 75.7625 169.869 75.8489 170.263 77.0598C170.467 77.6877 171.064 78.244 171.63 78.6271C172.682 79.339 172.939 80.1285 173.317 81.2926L173.331 81.3341C174.207 84.0269 174.669 85.9893 174.679 88.7954C174.689 91.6331 174.98 94.7403 174.388 97.5171C173.638 101.033 174.078 104.62 172.811 108.129C171.906 110.638 171.39 113.182 170.422 115.67C170.046 116.636 169.757 117.63 169.359 118.588C169.014 119.417 168.297 119.996 168.093 120.881C167.189 124.817 164.429 127.945 162.992 131.541C162.398 133.029 160.349 134.334 159.249 135.499C158.119 136.696 156.729 137.616 155.601 138.829C154.589 139.918 153.643 141.403 152.378 142.207C151.278 142.906 150.359 143.353 149.455 144.332C148.53 145.333 147.211 146.158 145.997 146.762C142.449 148.528 138.111 149.404 134.327 150.635C130.393 151.916 127.607 152.079 123.75 150.538C119.1 148.681 119.009 140.998 119.341 136.993C119.666 133.065 120.566 129.855 121.653 126.067C122.784 122.127 125.177 118.743 127.148 115.186C129.043 111.766 130.427 107.96 132.696 104.753C134.71 101.906 137.117 99.4281 139.235 96.6806C140.983 94.4136 142.554 92.1193 144.471 89.9829C147.229 86.9089 150.703 84.5284 153.64 81.6321Z" fill="#FF96BB" stroke="#FF96BB" stroke-width="3.10204" stroke-linecap="round"/>
<path d="M49.4149 81.6321C46.9442 79.196 43.8323 76.1425 40.5921 74.7356C39.7169 74.4507 36.0888 74.1454 35.8036 75.0215C35.5624 75.7625 33.1866 75.8489 32.7925 77.0598C32.5881 77.6877 31.9911 78.244 31.4252 78.6271C30.3734 79.339 30.1165 80.1285 29.7377 81.2926L29.7242 81.3341C28.8477 84.0269 28.3866 85.9893 28.3762 88.7954C28.3657 91.6331 28.0753 94.7403 28.6675 97.5171C29.4173 101.033 28.9775 104.62 30.244 108.129C31.1493 110.638 31.6657 113.182 32.6337 115.67C33.0093 116.636 33.2984 117.63 33.6964 118.588C34.041 119.417 34.7586 119.996 34.962 120.881C35.8657 124.817 38.6264 127.945 40.0631 131.541C40.6572 133.029 42.7059 134.334 43.8058 135.499C44.9361 136.696 46.3266 137.616 47.4544 138.829C48.4666 139.918 49.4123 141.403 50.6775 142.207C51.7768 142.906 52.6962 143.353 53.6004 144.332C54.5248 145.333 55.8439 146.158 57.0577 146.762C60.6058 148.528 64.9442 149.404 68.7278 150.635C72.6621 151.916 75.4483 152.079 79.3054 150.538C83.9548 148.681 84.0466 140.998 83.7145 136.993C83.3888 133.065 82.4891 129.855 81.4018 126.067C80.2709 122.127 77.8783 118.743 75.907 115.186C74.0121 111.766 72.628 107.96 70.3593 104.753C68.345 101.906 65.9381 99.4281 63.8197 96.6806C62.0719 94.4136 60.5012 92.1193 58.5842 89.9829C55.826 86.9089 52.3524 84.5284 49.4149 81.6321Z" fill="#FF96BB" stroke="#FF96BB" stroke-width="3.10204" stroke-linecap="round"/>
<path d="M54.019 183.337C50.6811 182.108 48.0189 177.689 47.1516 177.354C46.0117 176.34 44.75 175.65 43.787 174.429C42.9763 173.401 42.3295 172.405 41.6776 171.271C35.1301 159.884 33.4082 146.733 33.4082 133.768C33.4083 131.617 33.6412 129.104 33.6412 126.961C33.6412 123.736 33.8741 120.537 33.8741 117.32C33.8741 113.192 34.2302 108.933 34.7541 104.857C35.1143 102.056 35.2018 99.1243 35.867 96.3681C36.4298 94.0365 36.4168 91.6195 37.0059 89.2634C37.6676 86.6165 37.0236 83.5694 37.42 80.8387C38.0761 76.3189 39.2393 71.724 40.6294 67.38C41.2699 64.6294 42.7166 59.6054 43.2146 56.8306C44.0635 52.1013 46.8487 48.5916 48.4348 44.1858C49.7435 40.5507 52.6061 36.9001 54.8662 33.818C56.4229 31.6954 58.3246 29.8045 60.0501 27.8106C61.7443 25.8529 63.3852 23.9187 65.3188 22.1785C66.1511 21.4295 66.9251 20.6185 67.7131 19.823C66.2557 18.8514 65.885 15.4036 65.885 13.7912C65.885 10.764 66.8593 7.98853 68.659 5.54611C69.147 4.88389 69.9692 4.32259 70.5662 3.72565C71.0781 3.21374 71.6412 2.57878 72.2614 2.20379C73.8852 1.22194 75.8346 0.71562 77.6361 0.258109C82.9601 -1.09402 91.3474 3.1511 95.0292 6.83283C96.0711 6.54539 97.195 6.86806 98.2509 6.56636C99.6753 6.15939 100.74 5.9292 102.393 5.94387C103.979 5.95796 104.936 6.15939 106.36 6.56636C107.416 6.86806 108.54 6.54539 109.582 6.83283C113.264 3.1511 121.404 -1.0951 126.728 0.257037C128.53 0.714548 130.479 1.22086 132.103 2.20271C132.723 2.57771 133.286 3.21267 133.798 3.72458C134.395 4.32152 135.217 4.88282 135.705 5.54504C137.505 7.98746 138.479 10.763 138.479 13.7901C138.479 15.4025 137.861 18.3573 136.404 19.329C137.366 20.2782 138.287 21.2735 139.292 22.1785C141.226 23.9187 142.867 25.8529 144.561 27.8106C146.287 29.8045 148.188 31.6954 149.745 33.818C152.005 36.9001 154.868 40.5507 156.176 44.1858C157.763 48.5916 160.548 52.1013 161.397 56.8306C161.895 59.6054 163.341 64.6294 163.982 67.38C165.372 71.724 166.535 76.3189 167.191 80.8387C167.588 83.5694 166.944 86.6165 167.605 89.2634C168.194 91.6195 168.181 94.0365 168.744 96.3681C169.41 99.1243 169.497 102.056 169.857 104.857C170.381 108.933 170.737 113.192 170.737 117.32C170.737 120.537 170.97 123.736 170.97 126.961C170.97 129.104 171.203 131.617 171.203 133.768C171.203 146.733 169.481 159.884 162.934 171.271C162.282 172.405 161.635 173.401 160.824 174.429C159.861 175.65 158.6 176.34 157.46 177.354C156.592 177.689 153.93 182.108 150.592 183.337C149.975 183.564 149.517 183.639 148.976 183.814C148.1 184.097 147.298 184.553 146.407 184.82C145.484 185.097 144.54 185.526 143.583 185.668C143.013 185.753 142.476 185.933 141.999 186.251C141.915 188.466 141.736 190.845 140.743 192.981C140.335 193.858 139.974 195.066 139.449 195.855C138.549 197.205 136.254 197.994 134.763 198.318C132.896 198.724 131.087 199.72 129.167 199.88C126.144 200.132 123.018 200.05 119.983 200.05C115.296 200.05 111.683 196.668 109.505 192.749C108.537 191.007 107.972 189.198 107.256 187.359C107.019 186.748 107.031 185.249 106.043 184.628C105.1 184.035 102.924 184.311 102.422 184.311C99.2035 184.199 99.9732 183.903 98.5687 184.628C97.5315 185.163 97.5924 186.748 97.3549 187.359C96.6395 189.198 96.0738 191.007 95.1058 192.749C92.9287 196.668 89.315 200.05 84.628 200.05C81.5928 200.05 78.4672 200.132 75.4443 199.88C73.5243 199.72 71.7158 198.724 69.8483 198.318C68.3578 197.994 66.0625 197.205 65.1628 195.855C64.6369 195.066 64.276 193.858 63.8687 192.981C62.8757 190.845 62.6959 188.466 62.612 186.251C62.1348 185.933 61.5985 185.753 61.0279 185.668C60.0715 185.526 59.127 185.097 58.2042 184.82C57.3137 184.553 56.5116 184.097 55.6348 183.814C55.0942 183.639 54.6364 183.564 54.019 183.337Z" fill="#FF96BB"/>
<path d="M38.6621 99.2812C38.6621 100.905 37.8095 102.401 37.5662 103.982C37.5057 104.375 37.5896 104.785 37.5457 105.181C37.4867 105.712 37.1362 106.127 37.0233 106.635C36.8393 107.463 36.8185 108.572 36.8185 109.421C36.8185 112.189 36.2654 114.779 36.2654 117.533" stroke="#FF7DAB" stroke-width="3.10204" stroke-linecap="round"/>
<path d="M86.0542 50.1747C86.349 50.6015 86.6224 51.0444 86.9061 51.4786C87.2269 51.6476 87.7466 52.061 87.7718 52.4119C87.7882 52.6403 87.7748 52.8585 87.7421 53.0691C87.7329 53.1282 87.8776 53.3878 87.9092 53.4555C87.9913 53.6312 88.0533 53.7777 88.1092 53.9666C88.1867 54.2291 88.3817 54.4491 88.4266 54.726C88.4696 54.9916 88.7247 55.161 88.8031 55.4143C88.8759 55.6492 88.8036 57.0624 88.8064 57.297C88.7053 57.4798 88.7303 57.5853 88.7915 57.7779C88.9168 58.1719 88.8547 58.5855 88.9577 58.9773C89.0432 59.3026 89.0318 59.7068 89.0469 60.0402C89.0817 60.813 88.7673 61.5457 88.5959 62.295C88.4025 63.1406 87.9323 63.7857 87.4811 64.5078C87.3604 64.7009 87.0921 64.8575 86.9237 65.01C86.6644 65.245 86.3877 65.493 86.1538 65.7527C85.8584 66.0806 85.5097 66.4037 85.1913 66.7106C84.5835 67.2963 83.9931 67.8589 83.2833 68.3227L81.7716 69.3103C81.3742 69.57 81.0008 69.6586 80.5762 69.8557C80.2419 70.0109 79.8116 70.1195 79.4489 70.1697C79.083 70.2204 78.7325 70.3981 78.3541 70.4463C77.8273 70.5133 77.2127 70.4274 76.6838 70.3393C76.6112 70.3272 76.257 70.251 76.26 70.2627C76.2607 70.2654 76.0355 70.3325 76.0076 70.3302C75.5203 70.2899 75.0432 70.1397 74.5419 70.1137C74.1922 70.0956 73.6972 70.1359 73.3646 70.0339C73.1464 69.9671 72.9395 69.8495 72.7209 69.7761C72.1819 69.5952 71.6866 69.2856 71.1221 69.1755C70.711 69.0954 70.3438 69.0278 69.9612 68.8535C69.3127 68.558 68.7401 68.0269 68.2038 67.5563C67.8973 67.2873 67.6061 66.9684 67.2758 66.7327C67.1013 66.6083 66.8462 66.482 66.7033 66.3228C66.5193 66.1178 66.5349 65.878 66.3159 65.6863C65.8083 65.2419 65.3599 65.0723 64.991 64.5078C64.7952 64.208 64.5773 63.1401 64.3312 62.8847C64.2372 62.7872 64.0974 62.782 64.0011 62.6779C63.892 62.56 63.8112 62.4195 63.7018 62.3006C63.4744 62.0535 63.307 61.7522 63.1238 61.4718C62.9226 61.1638 62.8504 60.9458 62.915 60.5927C62.9693 60.2962 62.8484 60.3475 62.8085 60.0567C62.7475 59.6118 62.6563 59.1699 62.7116 58.7145C62.7502 58.3962 62.8046 58.1402 62.9365 57.8526C63.0062 57.7009 63.1298 57.6971 63.1094 57.5203C63.0776 57.2457 63.136 56.8546 63.1926 56.5845C63.3267 55.9449 63.5796 55.3452 63.7579 54.7203C63.8806 54.2905 63.9829 53.8183 64.1483 53.4091C64.5744 52.3555 65.1627 51.3787 65.8161 50.4469C66.0457 50.1195 66.2954 49.955 66.6282 49.7376C67.1763 49.3795 67.7181 49.0089 68.2737 48.6626C68.524 48.5065 68.8185 48.4529 69.0695 48.2889L69.6104 47.9355C69.9087 47.7406 70.1927 47.4946 70.5489 47.4321C70.9397 47.3634 71.332 47.2003 71.7095 47.0759C71.9066 47.011 72.1289 47.0219 72.2842 46.8427C72.3394 46.7789 72.1435 46.6543 72.2128 46.609C72.3031 46.55 72.4342 46.6677 72.5373 46.6083C72.7812 46.4676 72.9938 46.2563 73.2768 46.1982C73.4582 46.161 73.7681 46.1642 73.9502 46.197C74.1173 46.227 74.2354 46.1545 74.3995 46.1634C74.6104 46.1748 74.8221 46.2114 75.0349 46.2033C75.4494 46.1874 75.835 46.1951 76.2476 46.1259C76.5197 46.0802 76.7924 46.0525 77.068 46.0448C77.3276 46.0376 77.681 45.9228 77.9326 45.9755C78.3657 46.0663 78.8133 46.0681 79.2554 46.135C79.8603 46.2265 80.5109 46.3142 81.0941 46.5057C81.5088 46.642 81.9035 46.9112 82.3102 47.0801C82.4371 47.1328 82.5717 47.1536 82.686 47.2327C83.2226 47.6039 84.0587 47.7951 84.4737 48.3151C84.9796 48.9488 85.5905 49.5031 86.0542 50.1747Z" fill="#FF7DAB" stroke="#FF7DAB" stroke-width="1.22449" stroke-linecap="round"/>
<path d="M138.658 50.1747C138.953 50.6015 139.226 51.0444 139.51 51.4786C139.831 51.6476 140.351 52.061 140.376 52.4119C140.392 52.6403 140.379 52.8585 140.346 53.0691C140.337 53.1282 140.482 53.3878 140.513 53.4555C140.595 53.6312 140.657 53.7777 140.713 53.9666C140.791 54.2291 140.986 54.4491 141.031 54.726C141.074 54.9916 141.329 55.161 141.407 55.4143C141.48 55.6492 141.408 57.0624 141.41 57.297C141.309 57.4798 141.334 57.5853 141.396 57.7779C141.521 58.1719 141.459 58.5855 141.562 58.9773C141.647 59.3026 141.636 59.7068 141.651 60.0402C141.686 60.813 141.371 61.5457 141.2 62.295C141.006 63.1406 140.536 63.7857 140.085 64.5078C139.964 64.7009 139.696 64.8575 139.528 65.01C139.268 65.245 138.992 65.493 138.758 65.7527C138.462 66.0806 138.114 66.4037 137.795 66.7106C137.187 67.2963 136.597 67.8589 135.887 68.3227L134.376 69.3103C133.978 69.57 133.605 69.6586 133.18 69.8557C132.846 70.0109 132.416 70.1195 132.053 70.1697C131.687 70.2204 131.336 70.3981 130.958 70.4463C130.431 70.5133 129.817 70.4274 129.288 70.3393C129.215 70.3272 128.861 70.251 128.864 70.2627C128.865 70.2654 128.64 70.3325 128.612 70.3302C128.124 70.2899 127.647 70.1397 127.146 70.1137C126.796 70.0956 126.301 70.1359 125.969 70.0339C125.75 69.9671 125.544 69.8495 125.325 69.7761C124.786 69.5952 124.291 69.2856 123.726 69.1755C123.315 69.0954 122.948 69.0278 122.565 68.8535C121.917 68.558 121.344 68.0269 120.808 67.5563C120.501 67.2873 120.21 66.9684 119.88 66.7327C119.705 66.6083 119.45 66.482 119.307 66.3228C119.123 66.1178 119.139 65.878 118.92 65.6863C118.412 65.2419 117.964 65.0723 117.595 64.5078C117.399 64.208 117.181 63.1401 116.935 62.8847C116.841 62.7872 116.701 62.782 116.605 62.6779C116.496 62.56 116.415 62.4195 116.306 62.3006C116.078 62.0535 115.911 61.7522 115.728 61.4718C115.527 61.1638 115.454 60.9458 115.519 60.5927C115.573 60.2962 115.452 60.3475 115.413 60.0567C115.351 59.6118 115.26 59.1699 115.316 58.7145C115.354 58.3962 115.409 58.1402 115.541 57.8526C115.61 57.7009 115.734 57.6971 115.713 57.5203C115.682 57.2457 115.74 56.8546 115.797 56.5845C115.931 55.9449 116.184 55.3452 116.362 54.7203C116.485 54.2905 116.587 53.8183 116.752 53.4091C117.178 52.3555 117.767 51.3787 118.42 50.4469C118.65 50.1195 118.899 49.955 119.232 49.7376C119.78 49.3795 120.322 49.0089 120.878 48.6626C121.128 48.5065 121.422 48.4529 121.673 48.2889L122.214 47.9355C122.513 47.7406 122.797 47.4946 123.153 47.4321C123.544 47.3634 123.936 47.2003 124.313 47.0759C124.511 47.011 124.733 47.0219 124.888 46.8427C124.943 46.7789 124.747 46.6543 124.817 46.609C124.907 46.55 125.038 46.6677 125.141 46.6083C125.385 46.4676 125.598 46.2563 125.881 46.1982C126.062 46.161 126.372 46.1642 126.554 46.197C126.721 46.227 126.839 46.1545 127.004 46.1634C127.214 46.1748 127.426 46.2114 127.639 46.2033C128.053 46.1874 128.439 46.1951 128.852 46.1259C129.124 46.0802 129.396 46.0525 129.672 46.0448C129.932 46.0376 130.285 45.9228 130.537 45.9755C130.97 46.0663 131.417 46.0681 131.859 46.135C132.464 46.2265 133.115 46.3142 133.698 46.5057C134.113 46.642 134.507 46.9112 134.914 47.0801C135.041 47.1328 135.176 47.1536 135.29 47.2327C135.827 47.6039 136.663 47.7951 137.078 48.3151C137.584 48.9488 138.194 49.5031 138.658 50.1747Z" fill="#FF7DAB" stroke="#FF7DAB" stroke-width="1.22449" stroke-linecap="round"/>
<path d="M115.251 66.3673C115.603 66.0159 116.105 65.2844 116.105 64.7692C116.105 64.2754 116.608 63.4428 116.608 62.9657V61.518C116.608 60.1394 115.847 58.4898 115.11 57.3509C114.483 56.3815 114.079 55.2648 113.482 54.2696C113.248 53.8807 112.731 53.7687 112.446 53.4352C112.177 53.1197 111.776 52.8841 111.411 52.6912C110.988 52.4679 110.741 52.0232 110.325 51.7462C109.688 51.3215 108.994 51.1302 108.284 50.8615C106.641 50.2397 104.989 49.7959 103.217 49.7959C101.446 49.7959 98.4778 50.2397 96.8345 50.8615C96.1244 51.1302 95.4308 51.3215 94.7936 51.7462C94.3782 52.0232 94.1311 52.4679 93.7079 52.6912C93.3425 52.8841 92.9417 53.1197 92.6724 53.4352C92.3877 53.7687 91.8702 53.8807 91.6369 54.2696C91.0398 55.2648 90.6356 56.3815 90.0083 57.3509C89.2714 58.4898 88.5103 60.1394 88.5103 61.518V62.9657C88.5103 63.4428 89.0138 64.2754 89.0138 64.7692C89.0138 65.2844 89.5159 66.0159 89.8673 66.3673C90.2067 66.7067 90.498 67.1239 90.9115 67.3842C91.4412 67.7178 92.0944 67.8314 92.6503 68.1197C93.7538 68.6919 94.9591 69.1624 96.1869 69.3637C96.6179 69.4343 96.9668 69.658 97.4127 69.6724C97.8164 69.6854 98.2157 69.7933 98.6158 69.8404C99.2467 69.9146 99.8619 69.9175 100.5 69.9175C100.798 69.9175 104.498 70 104.619 69.9175C105.257 69.9175 105.872 69.9146 106.503 69.8404C106.903 69.7933 107.302 69.6854 107.706 69.6724C108.152 69.658 108.501 69.4343 108.932 69.3637C110.16 69.1624 111.365 68.6919 112.468 68.1197C113.024 67.8314 113.678 67.7178 114.207 67.3842C114.621 67.1239 114.912 66.7067 115.251 66.3673Z" fill="white" stroke="white" stroke-width="3.10204" stroke-linecap="round"/>
<path d="M101.164 52.9777C101.354 52.9677 101.531 52.897 101.713 52.8497C101.955 52.7869 102.205 52.7945 102.447 52.742C102.76 52.6738 103.117 52.6635 103.439 52.6635C103.531 52.6635 103.987 52.6157 103.951 52.7275C103.854 53.0309 103.616 53.2134 103.445 53.4607C103.269 53.7148 102.85 54.1822 102.551 54.1822C102.052 54.1822 101.726 53.5601 101.478 53.1872" stroke="#020202" stroke-width="3.10204" stroke-linecap="round"/>
<path d="M90.0916 49.1249C90.0916 49.5568 90.0437 50.0478 90.443 50.3045C90.9248 50.6143 91.196 49.9485 91.196 49.5794C91.196 49.1866 91.3571 48.5225 90.8223 48.5225C90.3788 48.5225 90.2924 48.6167 90.2924 49.0747" stroke="black" stroke-width="1.22449" stroke-linecap="round"/>
<path d="M114.635 49.1249C114.635 49.5568 114.587 50.0478 114.986 50.3045C115.468 50.6143 115.739 49.9485 115.739 49.5794C115.739 49.1866 115.9 48.5225 115.365 48.5225C114.922 48.5225 114.835 48.6167 114.835 49.0747" stroke="black" stroke-width="1.22449" stroke-linecap="round"/>
<path d="M102.574 55.9131C102.574 56.9186 102.574 57.9241 102.574 58.9296C102.574 59.6991 102.742 60.4493 102.742 61.2247" stroke="black" stroke-width="1.22449" stroke-linecap="round"/>
<path d="M83.5241 9.86588C85.0187 9.31243 86.5502 8.97564 88.102 8.55603C86.091 6.58492 81.5099 4.31217 78.602 5.03608C77.618 5.28102 76.5533 5.55209 75.6664 6.07775C75.3276 6.27851 75.02 6.61846 74.7404 6.89252C74.4144 7.21211 73.9653 7.51261 73.6988 7.86715C72.7158 9.17477 72.1836 10.6607 72.1836 12.2814C72.1836 13.1446 72.3861 14.9905 73.1821 15.5107C73.5644 15.1324 73.9528 14.7606 74.375 14.4244C74.5844 14.2577 74.675 14.0014 74.8844 13.8343C75.0921 13.6686 75.3584 13.5954 75.5724 13.4323C75.9066 13.1775 76.2556 13.0278 76.6176 12.8228C78.8014 11.586 81.177 10.735 83.5241 9.86588Z" fill="#FFCFE0"/>
<path d="M120.843 9.86588C119.349 9.31243 117.817 8.97564 116.265 8.55603C118.276 6.58492 122.857 4.31217 125.765 5.03608C126.749 5.28102 127.814 5.55209 128.701 6.07775C129.04 6.27851 129.347 6.61846 129.627 6.89252C129.953 7.21211 130.402 7.51261 130.668 7.86715C131.651 9.17477 132.184 10.6607 132.184 12.2814C132.184 13.1446 131.981 14.9905 131.185 15.5107C130.803 15.1324 130.414 14.7606 129.992 14.4244C129.783 14.2577 129.692 14.0014 129.483 13.8343C129.275 13.6686 129.009 13.5954 128.795 13.4323C128.461 13.1775 128.112 13.0278 127.75 12.8228C125.566 11.586 123.19 10.735 120.843 9.86588Z" fill="#FFCFE0"/>
<path d="M74.1494 192.209C74.1222 192.699 73.7749 193.131 73.7749 193.613" stroke="#FF7DAB" stroke-width="3.10204" stroke-linecap="round"/>
<path d="M82.388 192.489C82.388 192.761 82.2265 194.455 81.9199 194.455" stroke="#FF7DAB" stroke-width="3.10204" stroke-linecap="round"/>
<path d="M129.81 192.209C129.837 192.699 130.185 193.131 130.185 193.613" stroke="#FF7DAB" stroke-width="3.10204" stroke-linecap="round"/>
<path d="M121.571 192.489C121.571 192.761 121.733 194.455 122.04 194.455" stroke="#FF7DAB" stroke-width="3.10204" stroke-linecap="round"/>
<path d="M165.663 99.2812C165.663 100.905 166.515 102.401 166.759 103.982C166.819 104.375 166.735 104.785 166.779 105.181C166.838 105.712 167.188 106.127 167.301 106.635C167.485 107.463 167.506 108.572 167.506 109.421C167.506 112.189 168.059 114.779 168.059 117.533" stroke="#FF7DAB" stroke-width="3.10204" stroke-linecap="round"/>
<path d="M168 36.508C168.823 34.4885 170.223 32 172.663 32C174.452 32 175.721 32.8581 176.93 34.0899C179.782 36.997 178.245 40.6468 175.315 42.8901C173.705 44.1224 172.169 45.286 171.264 43.0369C170.857 42.0231 170.431 40.2387 170.962 39.1766C171.192 38.7163 171.779 37.9235 172.353 37.9071C173.058 37.8869 174.063 38.1326 174.063 38.9952" stroke="#FFA3C3" stroke-width="3" stroke-linecap="round"/>
<path d="M8.71951 127C5.76451 127 3.01425 128.806 2.33004 131.8C1.85397 133.883 1.92754 136.55 2.33004 138.638C2.75412 140.838 3.94358 142.401 5.48911 143.947C6.33396 144.792 7.0489 145.144 8.25074 145.16C9.32705 145.174 10.7934 145.419 11.6951 144.711C13.3965 143.376 14.5588 141.751 14.5893 139.555C14.6176 137.512 14.656 135.387 12.5613 134.235C11.7068 133.765 10.1814 132.758 9.25961 133.726C8.23154 134.805 7.99548 137.256 8.39341 138.699C8.65348 139.641 9.98207 139.29 10.7372 139.29" stroke="#FFA3C3" stroke-width="3" stroke-linecap="round"/>
<path d="M179 164.562C179.648 164.471 180.155 164.008 180.697 163.681C181.357 163.282 182.053 163.172 182.805 163.045C185.588 162.577 188.147 165.832 189.275 167.943C190.023 169.343 190.283 171.376 189.618 172.857C188.584 175.157 184.581 176 182.325 176C179.003 176 178.449 172.328 180.234 170.171C181.508 168.631 184.707 168.607 184.707 170.967" stroke="#FFA3C3" stroke-width="3" stroke-linecap="round"/>
</svg>
