<svg width="200" height="200" viewBox="0 0 200 200" fill="none" xmlns="http://www.w3.org/2000/svg">
<path d="M53.6652 55.5346C54.7224 54.6137 56.0649 52.9458 57.571 52.8856C57.1861 50.8516 55.7138 49.1234 55.0854 47.1505C54.8558 46.4295 54.6211 45.8378 54.6211 45.0886C54.6211 43.6738 54.6459 42.2565 54.6211 40.8419C54.5726 38.077 54.3753 35.3196 54.3753 32.5397C54.3753 30.0151 55.2271 27.7364 55.659 25.3026C56.0151 23.2957 56.3942 20.9333 57.2705 19.0759C58.1646 17.1807 58.6495 15.3 60.0291 13.614C61.8472 11.3922 64.5074 9.95066 67.0487 8.7528C69.376 7.65577 72.7104 8.15198 75.2154 8.15198C76.4834 8.15198 77.9242 7.95453 79.1348 8.43874C81.1439 9.24224 83.121 10.8803 84.816 12.1938C92.1132 17.8485 90.7567 28.2799 90.7567 36.4177C90.7567 39.2001 90.0192 42.2564 90.0192 44.8974C90.0192 45.4066 90.0598 45.9333 90.0192 46.4404C90.0067 46.5967 89.1795 47.0803 89.6641 47.2188C90.5389 47.4687 91.7853 47.2324 92.6918 47.2324C93.5983 47.2324 94.8761 47.4687 95.7509 47.2188C96.2355 47.0803 95.4083 46.5967 95.3958 46.4404C95.3552 45.9333 95.3958 45.4066 95.3958 44.8974C95.3958 42.2564 94.6583 39.2001 94.6583 36.4177C94.6583 28.2799 93.3018 17.8485 100.599 12.1938C102.294 10.8803 104.271 9.24224 106.28 8.43874C107.491 7.95453 108.932 8.15198 110.2 8.15198C112.705 8.15198 116.039 7.65577 118.366 8.7528C120.908 9.95066 123.568 11.3922 125.386 13.614C126.766 15.3 127.25 17.1807 128.145 19.0759C129.021 20.9333 129.4 23.2957 129.756 25.3026C130.188 27.7364 131.04 30.0151 131.04 32.5397C131.04 35.3196 130.842 38.077 130.794 40.8419C130.769 42.2565 130.794 43.6738 130.794 45.0886C130.794 45.8378 130.559 46.4295 130.33 47.1505C129.701 49.1234 128.201 50.8516 127.816 52.8856C129.322 52.9458 130.665 54.6137 131.722 55.5346C132.522 56.2317 133.277 56.9296 134.112 57.5829C135.463 58.6402 136.577 59.9901 137.895 61.0512C140.202 62.91 142.481 66.5034 143.193 69.3534C143.603 70.99 144.561 72.4261 144.832 74.078C145.11 75.7716 145.337 77.5007 145.638 79.185C146.175 82.1913 146.498 84.9956 146.498 88.088C146.498 89.2861 146.734 90.7364 146.252 91.8431C145.633 93.2671 145.344 95.1209 145.103 96.6694L145.078 96.8272C144.789 98.6798 143.881 100.355 143.043 102.03C142.423 103.271 141.123 104.128 140.134 105.006C138.91 106.094 137.988 107.664 136.529 108.434C135.439 109.009 134.145 109.551 132.937 109.799C131.593 110.076 130.283 110.436 128.99 110.837C128.184 111.087 127.241 111.058 126.833 111.875C126.316 112.047 126.566 112.129 126.176 112.46C125.888 112.705 125.119 112.752 124.76 112.89C124.086 113.151 123.296 113.612 122.607 113.738C121.333 113.969 120.082 114.202 118.829 114.515C115.953 115.234 112.952 115.826 109.981 115.89C109.013 115.911 108.081 116.14 107.106 116.14H104.8H100.751H92.2224C90.5361 116.14 88.8605 116.015 87.1734 116.015C85.6755 116.015 84.2756 115.905 82.7981 115.779C80.6912 115.6 78.5392 115.762 76.4226 115.633C75.5402 115.58 74.6764 115.229 73.8044 115.092C72.847 114.941 71.8719 114.815 70.9083 114.703C69.4593 114.534 68.0386 114.322 66.6024 114.071C65.7034 113.914 64.8177 113.648 63.9147 113.522C62.3152 113.299 60.1447 112.129 58.5543 111.875C58.1457 111.058 57.2033 111.087 56.3965 110.837C55.1038 110.436 53.7936 110.076 52.4497 109.799C51.2424 109.551 49.9479 109.009 48.858 108.434C47.3987 107.664 46.4768 106.094 45.2526 105.006C44.2642 104.128 42.9644 103.271 42.3438 102.03C41.5062 100.355 40.5984 98.6798 40.3089 96.8272L40.2843 96.6694C40.0428 95.1209 39.7537 93.2671 39.1345 91.8431C38.6532 90.7364 38.8886 89.2861 38.8886 88.088C38.8886 84.9956 39.2121 82.1913 39.749 79.185C40.0498 77.5007 40.2771 75.7716 40.5547 74.078C40.8256 72.4261 41.7843 70.99 42.1935 69.3534C42.9061 66.5034 45.1846 62.91 47.4923 61.0512C48.8097 59.9901 49.9241 58.6402 51.2752 57.5829C52.11 56.9296 52.865 56.2317 53.6652 55.5346Z" fill="#FFCFE0" stroke="#FFCFE0" stroke-width="2.85264" stroke-linecap="round" stroke-linejoin="round"/>
<path d="M129.551 129.712C126.824 125.168 123.953 120.61 120.553 116.516L68.893 109.76V133.254C71.9365 137.416 72.557 141.78 75 146.3C76.1115 148.356 77.8627 150.092 78.7469 152.262C80.1338 155.666 78.5774 159.049 77.7076 162.3C77.03 164.832 76.1566 167.206 75.7521 169.835C75.4062 172.083 75.8593 174.674 75 176.822C74.834 177.237 74.8842 177.725 74.8438 178.162C72.803 177.348 69.497 177.503 67.6349 178.381C65.5087 179.384 65.3935 181.993 66.7323 183.715C67.472 184.666 69.2039 185.489 70.2878 186.053C72.2519 187.074 80.0656 187.528 82.1521 188.091C84.1871 188.2 86.2466 188.211 88.2766 188.388C88.6205 188.417 93.3911 188.421 93.7119 188.556C94.6728 189.075 95.7386 189.419 96.786 189.923C98.3347 190.667 99.6884 190.83 101.408 190.853C103.216 190.876 104.794 191.594 106.522 191.81C110.67 192.328 114.896 191.345 119.049 191.345C120.387 191.345 121.864 191.28 122.467 190.005C123.206 188.445 123.439 186.598 124.245 185.137C124.559 184.568 124.549 183.891 124.737 183.277C125.056 182.237 125.739 181.425 125.914 180.323C126.208 178.466 126.918 176.801 127.691 175.099C128.881 172.482 129.589 169.654 130.754 166.99C131.157 166.069 131.341 164.786 131.507 163.79C131.77 162.207 132.477 160.659 133.298 159.291C133.999 158.123 134.209 157.077 134.583 155.79C135.032 154.247 135.542 152.149 135.568 150.539C135.598 148.617 135.568 146.691 135.568 144.768C135.568 143.198 135.075 141.82 134.83 140.283C134.586 138.76 133.978 137.799 133.257 136.468C132.491 135.053 131.752 133.63 130.981 132.22C130.52 131.378 130.048 130.541 129.551 129.712Z" fill="#FFCFE0"/>
<path d="M104.553 166.73C103.74 169.982 102.543 173.276 101.9 176.604C101.835 176.944 100.818 180.429 100.423 180.214C99.8333 179.892 99.1601 180.087 98.4953 180.009C97.3769 179.877 96.086 179.469 95.0356 180.022C93.7632 180.692 92.4649 179.843 91.3844 181.007C89.8817 182.625 90.4441 184.995 91.6169 186.723C92.1978 187.579 92.9191 188.127 93.7119 188.556M93.7119 188.556C93.3911 188.421 88.6205 188.417 88.2766 188.388C86.2466 188.211 84.1871 188.2 82.1521 188.091C80.0656 187.528 72.2519 187.074 70.2878 186.053C69.2039 185.489 67.472 184.666 66.7323 183.715C65.3935 181.993 65.5087 179.384 67.6349 178.381C69.5953 177.457 73.1561 177.334 75.1561 178.299C75.5408 178.485 74.4099 179.381 74.7265 178.669C74.9621 178.138 74.7657 177.408 75 176.822C75.8593 174.674 75.4062 172.083 75.7521 169.835C76.1566 167.206 77.03 164.832 77.7076 162.3C78.5774 159.049 80.1338 155.666 78.7469 152.262C77.8627 150.092 76.1115 148.356 75 146.3C72.557 141.78 71.9365 137.416 68.893 133.254V109.76L120.553 116.516C123.953 120.61 126.824 125.168 129.551 129.712C130.048 130.541 130.52 131.378 130.981 132.22C131.752 133.63 132.491 135.053 133.257 136.468C133.978 137.799 134.586 138.76 134.83 140.283C135.075 141.82 135.568 143.198 135.568 144.768C135.568 146.691 135.598 148.617 135.568 150.539C135.542 152.149 135.032 154.247 134.583 155.79C134.209 157.077 133.999 158.123 133.298 159.291C132.477 160.659 131.77 162.207 131.507 163.79C131.341 164.786 131.157 166.069 130.754 166.99C129.589 169.654 128.881 172.482 127.691 175.099C126.918 176.801 126.208 178.466 125.914 180.323C125.739 181.425 125.056 182.237 124.737 183.277C124.549 183.891 124.559 184.568 124.245 185.137C123.439 186.598 123.206 188.445 122.467 190.005C121.864 191.28 120.387 191.345 119.049 191.345C114.896 191.345 110.67 192.328 106.522 191.81C104.794 191.594 103.216 190.876 101.408 190.853C99.6884 190.83 98.3347 190.667 96.786 189.923C95.7386 189.419 94.6728 189.075 93.7119 188.556Z" stroke="#FFCFE0" stroke-width="2.85264" stroke-linecap="round"/>
<path d="M91.6173 186.723C90.4445 184.995 89.8821 182.625 91.3848 181.007C92.4653 179.843 93.7636 180.692 95.036 180.022C96.0864 179.47 97.3773 179.877 98.4957 180.009C99.1605 180.087 99.8337 179.892 100.424 180.214C100.818 180.429 101.835 176.944 101.901 176.604C102.543 173.276 103.741 169.982 104.554 166.73" stroke="#FFA3C3" stroke-width="2.85264" stroke-linecap="round"/>
<path d="M59.8017 123.954C60.0351 121.217 61.3134 118.534 62.2314 115.989C62.6981 115.22 63.6621 114.771 64.4265 114.379C64.8981 114.137 65.3944 113.91 65.9228 113.826C67.1282 113.635 68.4443 113.578 69.5996 113.977C70.1023 114.15 70.4919 114.505 70.9794 114.684C71.3517 114.82 71.7765 115.021 71.9982 115.36C72.269 115.774 72.5869 116.146 72.8629 116.548C72.9574 116.686 73.0579 116.9 73.111 117.06C73.1922 117.303 73.4018 117.414 73.4719 117.631C73.6314 118.124 74.0402 118.527 74.2689 118.984C74.3959 119.238 74.6055 119.593 74.6374 119.864C74.6731 120.167 75.406 120.019 75.5325 120.272C76.0748 119.188 76.7963 118.107 77.6742 117.229C78.0171 116.886 77.9986 116.456 78.2879 116.089C78.5783 115.72 79.0847 115.852 79.365 115.488C80.0839 114.553 81.0172 113.521 82.0202 112.883C83.9665 111.644 85.4538 111.014 87.8567 111.267C91.49 111.65 94.1656 114.773 94.4446 118.331C94.73 121.969 94.0193 126.532 91.8646 129.54C90.5769 131.338 89.0191 133.226 87.3432 134.675C85.6997 136.097 83.701 137.926 81.5944 138.546C79.0306 139.3 76.726 140.628 74.0045 140.562C72.5351 140.526 71.0995 140.16 69.6209 140.111C67.8483 140.053 66.0467 139.755 64.3606 139.184C61.4338 138.194 59.8047 136.85 59.5762 133.623C59.3531 130.472 59.5333 127.102 59.8017 123.954Z" fill="#FFCFE0" stroke="#FFCFE0" stroke-width="2.85264" stroke-linecap="round"/>
<path opacity="0.2" d="M75.7797 80.0294C76.0728 80.4539 76.3448 80.8943 76.6269 81.3261C76.9459 81.4942 77.4628 81.9053 77.4878 82.2543C77.5041 82.4814 77.4908 82.6984 77.4583 82.9078C77.4491 82.9666 77.5931 83.2248 77.6245 83.2921C77.7061 83.4668 77.7678 83.6125 77.8233 83.8004C77.9004 84.0615 78.0944 84.2802 78.139 84.5557C78.1817 84.8198 78.4354 84.9883 78.5134 85.2401C78.5858 85.4737 78.5139 86.8792 78.5167 87.1125C78.4161 87.2942 78.441 87.3991 78.5019 87.5907C78.6265 87.9825 78.5648 88.3939 78.6672 88.7835C78.7522 89.107 78.7409 89.509 78.7558 89.8405C78.7904 90.6091 78.4778 91.3378 78.3074 92.0829C78.115 92.9239 77.6474 93.5654 77.1987 94.2835C77.0787 94.4756 76.8118 94.6313 76.6444 94.783C76.3865 95.0167 76.1114 95.2633 75.8787 95.5216C75.5849 95.8477 75.2382 96.169 74.9215 96.4742C74.3171 97.0567 73.73 97.6162 73.024 98.0774L71.5206 99.0596C71.1255 99.3178 70.7541 99.406 70.3318 99.602C69.9994 99.7563 69.5715 99.8643 69.2108 99.9143C68.8469 99.9646 68.4983 100.141 68.122 100.189C67.5981 100.256 66.9868 100.17 66.4609 100.083C66.3887 100.071 66.0364 99.9951 66.0395 100.007C66.0402 100.009 65.8162 100.076 65.7884 100.074C65.3038 100.034 64.8293 99.8844 64.3308 99.8586C63.9831 99.8406 63.4908 99.8806 63.16 99.7792C62.943 99.7127 62.7372 99.5958 62.5198 99.5228C61.9837 99.3429 61.4912 99.035 60.9298 98.9256C60.521 98.8458 60.1558 98.7787 59.7753 98.6053C59.1304 98.3115 58.5609 97.7833 58.0276 97.3152C57.7228 97.0477 57.4332 96.7306 57.1047 96.4962C56.9312 96.3724 56.6774 96.2469 56.5353 96.0885C56.3524 95.8846 56.3679 95.6462 56.1501 95.4555C55.6453 95.0136 55.1993 94.8449 54.8325 94.2835C54.6378 93.9854 54.4211 92.9234 54.1763 92.6693C54.0829 92.5724 53.9438 92.5672 53.848 92.4637C53.7396 92.3465 53.6592 92.2067 53.5504 92.0885C53.3243 91.8427 53.1577 91.5431 52.9756 91.2643C52.7755 90.958 52.7037 90.7412 52.768 90.39C52.8219 90.0952 52.7017 90.1461 52.662 89.8569C52.6013 89.4145 52.5107 88.975 52.5656 88.5222C52.604 88.2056 52.6582 87.951 52.7893 87.665C52.8586 87.5141 52.9816 87.5104 52.9613 87.3346C52.9297 87.0615 52.9877 86.6725 53.044 86.4039C53.1774 85.7678 53.4289 85.1714 53.6062 84.55C53.7282 84.1225 53.8299 83.653 53.9945 83.246C54.4182 82.1982 55.0032 81.2268 55.6531 80.3001C55.8814 79.9745 56.1297 79.8109 56.4607 79.5947C57.0058 79.2386 57.5446 78.87 58.0971 78.5256C58.3461 78.3704 58.6389 78.3171 58.8885 78.154L59.4265 77.8025C59.7231 77.6087 60.0056 77.3641 60.3597 77.3019C60.7484 77.2336 61.1386 77.0713 61.514 76.9477C61.71 76.8832 61.9311 76.894 62.0855 76.7157C62.1404 76.6523 61.9456 76.5284 62.0145 76.4834C62.1043 76.4247 62.2347 76.5417 62.3372 76.4826C62.5797 76.3427 62.7912 76.1325 63.0726 76.0748C63.2531 76.0378 63.5613 76.041 63.7424 76.0736C63.9085 76.1035 64.026 76.0314 64.1892 76.0402C64.399 76.0515 64.6094 76.0879 64.821 76.0798C65.2333 76.064 65.6168 76.0717 66.0271 76.0029C66.2977 75.9574 66.5689 75.9299 66.843 75.9223C67.1012 75.9151 67.4526 75.8009 67.7028 75.8534C68.1335 75.9437 68.5787 75.9454 69.0183 76.0119C69.6199 76.1029 70.2669 76.1902 70.8468 76.3807C71.2594 76.5161 71.6518 76.7839 72.0563 76.9519C72.1825 77.0043 72.3164 77.0249 72.4301 77.1036C72.9637 77.4727 73.7951 77.6629 74.2079 78.18C74.711 78.8103 75.3185 79.3615 75.7797 80.0294Z" fill="#F4AEC9" stroke="#F4AEC9" stroke-width="1.21774" stroke-linecap="round"/>
<path opacity="0.2" d="M128.093 80.0294C128.386 80.4539 128.658 80.8943 128.94 81.3261C129.259 81.4942 129.776 81.9053 129.801 82.2543C129.818 82.4814 129.804 82.6984 129.772 82.9078C129.763 82.9666 129.907 83.2248 129.938 83.2921C130.02 83.4668 130.081 83.6125 130.137 83.8004C130.214 84.0615 130.408 84.2802 130.452 84.5557C130.495 84.8198 130.749 84.9883 130.827 85.2401C130.899 85.4737 130.827 86.8792 130.83 87.1125C130.73 87.2942 130.754 87.3991 130.815 87.5907C130.94 87.9825 130.878 88.3939 130.981 88.7835C131.066 89.107 131.054 89.509 131.069 89.8405C131.104 90.6091 130.791 91.3378 130.621 92.0829C130.428 92.9239 129.961 93.5654 129.512 94.2835C129.392 94.4756 129.125 94.6313 128.958 94.783C128.7 95.0167 128.425 95.2633 128.192 95.5216C127.898 95.8477 127.552 96.169 127.235 96.4742C126.631 97.0567 126.043 97.6162 125.337 98.0774L123.834 99.0596C123.439 99.3178 123.068 99.406 122.645 99.602C122.313 99.7563 121.885 99.8643 121.524 99.9143C121.16 99.9646 120.812 100.141 120.436 100.189C119.912 100.256 119.3 100.17 118.774 100.083C118.702 100.071 118.35 99.9951 118.353 100.007C118.354 100.009 118.13 100.076 118.102 100.074C117.617 100.034 117.143 99.8844 116.644 99.8586C116.297 99.8406 115.804 99.8806 115.473 99.7792C115.256 99.7127 115.051 99.5958 114.833 99.5228C114.297 99.3429 113.805 99.035 113.243 98.9256C112.834 98.8458 112.469 98.7787 112.089 98.6053C111.444 98.3115 110.874 97.7833 110.341 97.3152C110.036 97.0477 109.747 96.7306 109.418 96.4962C109.245 96.3724 108.991 96.2469 108.849 96.0885C108.666 95.8846 108.681 95.6462 108.464 95.4555C107.959 95.0136 107.513 94.8449 107.146 94.2835C106.951 93.9854 106.735 92.9234 106.49 92.6693C106.396 92.5724 106.257 92.5672 106.162 92.4637C106.053 92.3465 105.973 92.2067 105.864 92.0885C105.638 91.8427 105.471 91.5431 105.289 91.2643C105.089 90.958 105.017 90.7412 105.081 90.39C105.135 90.0952 105.015 90.1461 104.976 89.8569C104.915 89.4145 104.824 88.975 104.879 88.5222C104.918 88.2056 104.972 87.951 105.103 87.665C105.172 87.5141 105.295 87.5104 105.275 87.3346C105.243 87.0615 105.301 86.6725 105.357 86.4039C105.491 85.7678 105.742 85.1714 105.92 84.55C106.042 84.1225 106.143 83.653 106.308 83.246C106.732 82.1982 107.317 81.2268 107.967 80.3001C108.195 79.9745 108.443 79.8109 108.774 79.5947C109.319 79.2386 109.858 78.87 110.411 78.5256C110.66 78.3704 110.952 78.3171 111.202 78.154L111.74 77.8025C112.037 77.6087 112.319 77.3641 112.673 77.3019C113.062 77.2336 113.452 77.0713 113.827 76.9477C114.023 76.8832 114.245 76.894 114.399 76.7157C114.454 76.6523 114.259 76.5284 114.328 76.4834C114.418 76.4247 114.548 76.5417 114.651 76.4826C114.893 76.3427 115.105 76.1325 115.386 76.0748C115.567 76.0378 115.875 76.041 116.056 76.0736C116.222 76.1035 116.339 76.0314 116.503 76.0402C116.712 76.0515 116.923 76.0879 117.135 76.0798C117.547 76.064 117.93 76.0717 118.341 76.0029C118.611 75.9574 118.882 75.9299 119.156 75.9223C119.415 75.9151 119.766 75.8009 120.016 75.8534C120.447 75.9437 120.892 75.9454 121.332 76.0119C121.933 76.1029 122.58 76.1902 123.16 76.3807C123.573 76.5161 123.965 76.7839 124.37 76.9519C124.496 77.0043 124.63 77.0249 124.744 77.1036C125.277 77.4727 126.109 77.6629 126.521 78.18C127.024 78.8103 127.632 79.3615 128.093 80.0294Z" fill="#F4AEC9" stroke="#F4AEC9" stroke-width="1.21774" stroke-linecap="round"/>
<path d="M105.428 80.8322C105.248 80.9321 105.328 81.5468 105.5 81.6487C105.619 81.7188 106.009 81.7401 106.126 81.6487C106.253 81.5491 105.795 80.913 105.764 80.8388C105.688 80.6596 105.7 80.5583 105.52 80.447C105.394 80.3691 105.369 80.2005 105.25 80.1342C104.982 79.9854 104.577 80.4717 104.542 80.7137C104.517 80.8878 104.49 81.1907 104.572 81.3425C104.793 81.7525 105.175 81.6618 105.586 81.6618C105.91 81.6618 106.198 81.175 106.198 80.8618C106.198 80.5898 105.983 80.5503 105.783 80.4174" stroke="black" stroke-width="2.85264" stroke-linecap="round"/>
<path d="M80.6549 80.8322C80.4751 80.9321 80.5548 81.5468 80.7273 81.6487C80.8462 81.7188 81.2364 81.7401 81.3529 81.6487C81.4796 81.5491 81.0221 80.913 80.9907 80.8388C80.9149 80.6596 80.927 80.5583 80.7471 80.447C80.6212 80.3691 80.5965 80.2005 80.4771 80.1342C80.2092 79.9854 79.8039 80.4717 79.7693 80.7137C79.7444 80.8878 79.7172 81.1907 79.7989 81.3425C80.0197 81.7525 80.4016 81.6618 80.8129 81.6618C81.1368 81.6618 81.4253 81.175 81.4253 80.8618C81.4253 80.5898 81.2099 80.5503 81.0105 80.4174" stroke="black" stroke-width="2.85264" stroke-linecap="round"/>
<path d="M88.8387 89.7036C90.7153 89.7904 92.0794 91.7784 92.876 93.1556C93.2865 92.6419 94.1103 92.1239 94.5309 91.5977C95.049 90.9493 96.0874 90.6742 96.7665 90.2238C97.6052 89.6676 98.8357 89.6381 99.8081 89.775C100.544 89.8785 100.917 90.1213 101.509 90.5298C101.992 90.8636 102.803 91.3537 103.101 91.8588C103.657 92.7994 103.588 94.4202 103.679 95.495C103.781 96.7045 103.135 97.8535 102.539 98.8545C102.246 99.347 101.94 99.8291 101.616 100.3C101.17 100.948 100.84 101.088 100.196 101.505C99.7525 101.793 99.4508 102.086 98.9321 102.279C98.3902 102.48 97.8196 102.516 97.2735 102.737C95.5959 103.415 93.5356 104.23 91.6762 103.791C91.0612 103.646 90.5902 103.152 89.8944 103.077C89.3155 103.014 88.7637 102.617 88.1855 102.456C87.3424 102.22 86.6756 101.865 85.8835 101.487C84.0661 100.62 82.2994 99.1041 82.0639 96.9947C81.8895 95.4329 81.4158 93.639 82.5327 92.3126C83.4726 91.1964 84.9832 89.9935 86.4866 89.8256C87.2676 89.7384 88.0532 89.6672 88.8387 89.7036Z" fill="#FF96BB" stroke="#FF96BB" stroke-width="2.85264" stroke-linecap="round"/>
<path d="M92.7831 84.4344C92.317 84.438 91.4919 84.3373 91.269 84.9104C91.2009 85.0857 91.2578 85.2597 91.4674 85.2675C92.0464 85.2889 92.5346 85.167 93.0807 85.089" stroke="#FFAA00" stroke-width="2.85264" stroke-linecap="round"/>
<path d="M103.468 37.3346C103.523 39.4427 103.618 43.0207 104.009 45.1017C106.248 45.2139 109.109 45.2162 111.305 45.6843C112.815 46.0061 114.157 46.4575 115.637 46.8608C116.418 47.0737 117.303 47.0009 118.007 47.4412C118.422 47.7011 118.889 47.9902 119.326 48.2043C121.242 49.1416 122.177 47.7801 122.84 46.1806C123.206 45.299 123.033 43.9644 123.081 43.0152C123.139 41.8421 123.335 40.5823 123.179 39.4173C122.978 37.9165 123.244 36.3376 123.129 34.8252C122.979 32.8618 122.544 30.9591 122.353 28.9928C122.187 27.289 121.12 24.9805 119.974 23.7137C118.352 21.9207 116.61 19.2242 114.191 18.4452C112.665 17.954 110.853 18.4349 109.422 18.9487C107.746 19.5506 106.591 20.6198 105.575 22.0148C104.358 23.6854 103.781 24.9428 103.677 27.0072C103.62 28.1566 103.546 29.3066 103.514 30.4571C103.45 32.7492 103.407 35.042 103.468 37.3346Z" fill="#FFA3C3" stroke="#FFA3C3" stroke-width="2.85264" stroke-linecap="round"/>
<path d="M81.5126 37.3346C81.457 39.4427 81.3623 43.0207 80.9718 45.1017C78.7323 45.2139 75.8718 45.2162 73.6751 45.6843C72.165 46.0061 70.823 46.4575 69.3436 46.8608C68.5626 47.0737 67.6774 47.0009 66.9738 47.4412C66.5585 47.7011 66.0918 47.9902 65.6541 48.2043C63.7382 49.1416 62.8032 47.7801 62.14 46.1806C61.7744 45.299 61.9475 43.9644 61.9 43.0152C61.8412 41.8421 61.6453 40.5823 61.8012 39.4173C62.0021 37.9165 61.7363 36.3376 61.8518 34.8252C62.0018 32.8618 62.4365 30.9591 62.6278 28.9928C62.7937 27.289 63.8608 24.9805 65.0067 23.7137C66.6287 21.9207 68.3709 19.2242 70.7898 18.4452C72.3152 17.954 74.1278 18.4349 75.5585 18.9487C77.2348 19.5506 78.3892 20.6198 79.4055 22.0148C80.6226 23.6854 81.1997 24.9428 81.3031 27.0072C81.3607 28.1566 81.4348 29.3066 81.4669 30.4571C81.5307 32.7492 81.5731 35.042 81.5126 37.3346Z" fill="#FFA3C3" stroke="#FFA3C3" stroke-width="2.85264" stroke-linecap="round"/>
<path d="M73.9536 113.92C76.1697 112.919 77.8452 110.803 80.1986 110.069C83.0934 109.166 86.3678 108.375 89.422 108.26C90.6717 108.213 91.9517 108.208 93.2014 108.26C94.5162 108.315 95.3756 109.258 96.1799 110.195C98.834 113.284 99.8171 117.031 99.1854 121.011C98.8289 123.257 96.5751 125.255 95.1631 126.869C93.4298 128.85 91.1233 130.088 89.1071 131.701C88.0108 132.578 86.6288 133.023 85.4627 133.762C84.4941 134.375 83.3246 135.185 82.2142 135.462" stroke="#FFA3C3" stroke-width="2.85264" stroke-linecap="round"/>
<path d="M127.125 111.294C123.808 110.672 120.508 109.471 117.318 108.375C113.887 107.849 110.812 108.919 107.711 110.312C106.294 110.949 105.28 113.164 104.758 114.527C103.904 116.755 103.851 119.398 103.716 121.75C103.543 124.78 105.188 127.773 107.064 129.934C109.032 132.2 111.976 133.39 114.771 134.236C121.373 136.235 128.483 136.708 135.268 137.561C137.685 137.865 140.057 138.413 142.496 138.485C144.099 138.533 145.591 138.492 147.181 138.456C148.671 138.422 150.232 138.655 151.681 138.188C153.606 137.568 156.472 136.516 157.176 134.415C157.835 132.449 157.93 130.065 157.602 128.042C157.385 126.706 156.485 125.359 155.714 124.277C154.959 123.219 153.744 122.791 152.914 121.842C151.986 120.782 150.551 120.264 149.29 119.648C147.817 118.927 146.501 117.961 144.977 117.334C142.778 116.43 140.58 115.655 138.393 114.686C136.377 113.793 134.19 113.452 132.22 112.442C130.63 111.627 128.862 111.62 127.125 111.294Z" fill="#FFCFE0" stroke="#FFCFE0" stroke-width="3.79225" stroke-linecap="round"/>
<path d="M22.3501 81.2668C22.0266 80.772 21.7023 80.2262 21.0552 80.2262C20.6483 80.2262 20.6593 82.168 20.7025 82.4634C20.8871 83.7245 22.0284 83.9628 22.7721 84.7064C22.9557 84.89 23.133 85.1072 23.3386 85.2672C23.5696 85.4468 24.0241 84.5851 24.1248 84.4289C24.7998 83.3827 25.5951 82.2225 25.8418 80.9893C25.9616 80.3903 26.0816 79.9141 25.4255 79.9141C23.7899 79.9141 23.1825 81.718 23.1825 83.1398" stroke="#FF7DAB" stroke-width="3" stroke-linecap="round"/>
<path d="M171.577 115.709C171.506 114.649 171.406 113.631 171.406 112.565C171.406 111.843 171.484 111.605 170.684 111.605C169.068 111.605 169.474 118.596 170.503 118.596C171.113 118.596 171.722 118.237 172.222 117.931C172.843 117.553 173.665 117.444 174.236 117.038C174.765 116.663 174.921 115.632 174.986 115.044C175.053 114.448 174.047 114.648 173.628 114.683C173.125 114.725 172.416 115.582 172.26 116.051" stroke="#FF7DAB" stroke-width="3" stroke-linecap="round"/>
<path d="M55.711 166.049C55.5529 165.61 54.3707 164.054 54.0466 165.217C53.7159 166.404 55.2603 167.586 56.1749 168.014C57.0322 168.415 56.8199 168.118 57.4573 167.673C57.8441 167.403 60.5363 164.453 58.8762 164.453C57.7296 164.453 57.0617 166.601 57.0617 167.523" stroke="#FF7DAB" stroke-width="3" stroke-linecap="round"/>
</svg>
