<svg width="200" height="200" viewBox="0 0 200 200" fill="none" xmlns="http://www.w3.org/2000/svg">
<path d="M155.592 49.8664C154.333 48.5654 152.7 47.8581 151.457 46.5897C151.457 45.3962 150.902 43.8213 150.858 42.6486L150.857 42.614C150.802 41.1428 150.756 39.8889 150.386 38.4513C150.039 37.1007 149.233 35.358 149.233 33.98C149.233 32.7473 148.222 31.4354 147.939 30.1874C147.41 27.8597 146.645 25.6213 146.313 23.2345C145.93 20.4762 144.754 17.8716 144.296 15.0775C144.171 14.3115 141.267 5.26758 139.902 6.04766C139.56 6.24312 139.385 6.94992 138.939 7.23659C138.496 7.52092 138.06 8.04113 137.735 8.45562C137.099 9.26461 136.179 9.4662 135.553 10.2315C134.709 11.2629 133.729 11.7696 132.814 12.6846C131.957 13.5414 130.935 14.9659 129.984 15.6193C128.8 16.4337 127.784 17.0726 126.733 18.0574C126.15 18.6046 125.235 18.9764 124.747 19.5774C124.199 20.252 124.033 20.6071 123.242 21.0522C122.638 21.392 122.249 22.1954 121.752 22.6927C121.078 23.3666 120.384 24.0005 119.705 24.6792L119.568 24.8163C116.456 27.9288 111.768 32.6171 107.871 34.6742L102.096 33.81C100.259 33.535 98.5711 33.4871 96.7266 33.6912C94.5394 33.9333 92.3838 33.5224 90.3636 34.5195C86.4117 32.4337 82.6548 29.5043 79.546 26.3955C78.8672 25.7167 78.1731 25.0828 77.4992 24.4089C77.002 23.9117 76.6133 23.1083 76.0093 22.7685C75.218 22.3234 75.0525 21.9683 74.5043 21.2936C74.016 20.6926 73.1015 20.3209 72.5178 19.7736C71.4674 18.7889 70.4516 18.15 69.267 17.3355C68.3166 16.6821 67.2944 15.2576 66.4377 14.4008C65.5227 13.4858 64.5425 12.9791 63.6986 11.9477C63.0725 11.1825 62.152 10.9809 61.5164 10.1719C61.1907 9.75739 60.7547 9.23717 60.3124 8.95284C59.8665 8.66617 59.6913 7.95937 59.3492 7.76391C57.9841 6.98383 55.0801 16.0278 54.9547 16.7938C54.4975 19.5878 53.3212 22.1924 52.9381 24.9507C52.6066 27.3375 51.8417 29.576 51.3127 31.9037C51.0291 33.1516 50.0184 34.4636 50.0184 35.6962C50.0184 37.0742 49.2219 38.6197 48.8746 39.9704C48.5021 41.4192 48.4498 42.8303 48.3948 44.3164C48.3514 45.4891 47.8512 46.151 47.8512 47.3445V47.9597C47.0109 48.5463 46.1453 49.1046 45.4078 49.8664C43.8114 51.5154 42.0097 52.8424 40.6322 54.7438C40.071 55.5185 39.2563 56.1755 38.6273 56.9032C38.0333 57.5903 37.5332 58.1633 36.9566 58.8813C35.4806 60.7192 34.6901 63.0808 33.7543 65.2234C32.9459 67.0743 32.5012 69.576 32.5012 71.6108C32.5012 72.9063 32 74.0019 32 75.2802V78.119C32 83.7359 34.4292 89.3504 37.3603 93.8384C38.9435 96.2624 42.6102 97.2374 45.0319 98.0816C48.7918 99.3923 52.6329 100.409 56.4208 101.645C59.715 102.72 63.2179 103.321 66.5845 104.197C69.7834 105.03 73.4464 104.783 76.7343 105.013C77.9372 105.097 79.1631 105.028 80.3682 105.028C81.5506 105.028 82.5042 105.512 83.6262 105.571C85.4988 105.67 87.3812 105.843 89.251 105.843H95.405H100.5H105.595H111.749C113.619 105.843 115.501 105.67 117.374 105.571C118.496 105.512 119.449 105.028 120.632 105.028C121.837 105.028 123.063 105.097 124.266 105.013C127.554 104.783 131.217 105.03 134.415 104.197C137.782 103.321 141.285 102.72 144.579 101.645C148.367 100.409 152.208 99.3923 155.968 98.0816C158.39 97.2374 162.057 96.2624 163.64 93.8384C166.571 89.3504 169 83.7359 169 78.119V75.2802C169 74.0019 168.499 72.9063 168.499 71.6108C168.499 69.576 168.054 67.0743 167.246 65.2234C166.31 63.0808 165.519 60.7192 164.043 58.8813C163.467 58.1633 162.967 57.5903 162.373 56.9032C161.744 56.1755 160.929 55.5185 160.368 54.7438C158.99 52.8424 157.189 51.5154 155.592 49.8664Z" fill="black"/>
<path d="M49.5429 46.5897C49.0279 47.1153 48.4459 47.5446 47.8512 47.9597M47.8512 47.9597C47.0109 48.5463 46.1453 49.1046 45.4078 49.8664C43.8114 51.5154 42.0097 52.8424 40.6322 54.7438C40.071 55.5185 39.2563 56.1755 38.6273 56.9032C38.0333 57.5903 37.5332 58.1633 36.9566 58.8813C35.4806 60.7192 34.6901 63.0808 33.7543 65.2234C32.9459 67.0743 32.5012 69.576 32.5012 71.6108C32.5012 72.9063 32 74.0019 32 75.2802V78.119C32 83.7359 34.4292 89.3504 37.3603 93.8384C38.9435 96.2624 42.6102 97.2374 45.0319 98.0816C48.7918 99.3923 52.6329 100.409 56.4208 101.645C59.715 102.72 63.218 103.321 66.5845 104.197C69.7834 105.03 73.4464 104.783 76.7343 105.013C77.9372 105.097 79.1631 105.028 80.3682 105.028C81.5506 105.028 82.5042 105.512 83.6262 105.571C85.4988 105.67 87.3812 105.843 89.251 105.843H95.405H100.5H105.595C107.646 105.843 109.698 105.843 111.749 105.843C113.619 105.843 115.501 105.67 117.374 105.571C118.496 105.512 119.449 105.028 120.632 105.028C121.837 105.028 123.063 105.097 124.266 105.013C127.554 104.783 131.217 105.03 134.415 104.197C137.782 103.321 141.285 102.72 144.579 101.645C148.367 100.409 152.208 99.3923 155.968 98.0816C158.39 97.2374 162.057 96.2624 163.64 93.8384C166.571 89.3504 169 83.7359 169 78.119C169 77.1728 169 76.2265 169 75.2802C169 74.0019 168.499 72.9063 168.499 71.6108C168.499 69.576 168.054 67.0743 167.246 65.2234C166.31 63.0808 165.519 60.7192 164.043 58.8813C163.467 58.1633 162.967 57.5903 162.373 56.9032C161.744 56.1755 160.929 55.5185 160.368 54.7438C158.99 52.8424 157.189 51.5154 155.592 49.8664C154.333 48.5654 152.7 47.8581 151.457 46.5897C151.457 45.3962 150.902 43.8213 150.858 42.6486C150.803 41.1625 150.759 39.9002 150.386 38.4513C150.039 37.1007 149.233 35.358 149.233 33.98C149.233 32.7473 148.222 31.4354 147.939 30.1874C147.41 27.8597 146.645 25.6213 146.313 23.2345C145.93 20.4762 144.754 17.8716 144.296 15.0775C144.171 14.3115 141.267 5.26758 139.902 6.04766C139.56 6.24312 139.385 6.94992 138.939 7.23659C138.496 7.52092 138.06 8.04113 137.735 8.45562C137.099 9.26461 136.179 9.4662 135.553 10.2315C134.709 11.2629 133.729 11.7696 132.814 12.6846C131.957 13.5414 130.935 14.9659 129.984 15.6193C128.8 16.4337 127.784 17.0726 126.733 18.0574C126.15 18.6046 125.235 18.9764 124.747 19.5774C124.199 20.252 124.033 20.6071 123.242 21.0522C122.638 21.392 122.249 22.1954 121.752 22.6927C121.078 23.3666 120.384 24.0005 119.705 24.6792L119.568 24.8163C116.456 27.9288 111.768 32.6171 107.871 34.6742L102.096 33.81C100.259 33.535 98.5711 33.4871 96.7266 33.6912C94.5394 33.9333 92.3838 33.5224 90.3636 34.5195C86.4117 32.4337 82.6548 29.5043 79.546 26.3955C78.8672 25.7167 78.1732 25.0828 77.4992 24.4089C77.002 23.9117 76.6133 23.1083 76.0093 22.7685C75.218 22.3234 75.0525 21.9683 74.5043 21.2936C74.016 20.6926 73.1015 20.3209 72.5178 19.7736C71.4674 18.7889 70.4516 18.15 69.267 17.3355C68.3166 16.6821 67.2944 15.2576 66.4377 14.4008C65.5227 13.4858 64.5425 12.9791 63.6986 11.9477C63.0725 11.1825 62.152 10.9809 61.5164 10.1719C61.1907 9.75739 60.7547 9.23717 60.3124 8.95284C59.8665 8.66617 59.6913 7.95937 59.3492 7.76391C57.9841 6.98383 55.0801 16.0278 54.9547 16.7938C54.4975 19.5878 53.3212 22.1924 52.9381 24.9507C52.6066 27.3375 51.8417 29.576 51.3127 31.9037C51.0291 33.1516 50.0184 34.4636 50.0184 35.6962C50.0184 37.0742 49.2219 38.6197 48.8746 39.9704C48.5021 41.4192 48.4498 42.8303 48.3948 44.3164C48.3514 45.4891 47.8512 46.151 47.8512 47.3445V47.9597Z" stroke="#020202" stroke-width="2.86832" stroke-linecap="round"/>
<path d="M127.482 27.5929C126.088 28.9331 124.787 30.3853 123.871 32.0998C124.052 32.281 125.533 32.4316 125.797 32.4609C126.129 32.4978 126.452 33.0023 126.76 33.1563C127.912 33.7322 128.922 34.6161 130.224 34.8949C131.251 35.1151 132.37 35.5773 133.407 35.5904C134.341 35.6022 135.875 35.858 136.75 35.4433C137.692 34.997 137.111 33.158 137.111 32.394C137.111 30.4333 136.688 28.5645 136.329 26.6233C136.118 25.4856 135.785 24.1503 135.132 23.1929C134.655 22.4942 134.491 22.4707 133.687 22.4707C132.476 22.4707 131.027 23.8164 130.371 24.7643C129.617 25.8526 128.427 26.6847 127.482 27.5929Z" fill="white"/>
<path d="M123.871 32.0998L122.606 31.4243C122.309 31.9813 122.41 32.6674 122.857 33.1139L123.871 32.0998ZM127.482 27.5929L128.476 28.6266L127.482 27.5929ZM130.371 24.7643L131.55 25.5806V25.5806L130.371 24.7643ZM135.132 23.1929L136.317 22.385L135.132 23.1929ZM136.329 26.6233L134.919 26.8844V26.8844L136.329 26.6233ZM136.75 35.4433L137.364 36.7394L136.75 35.4433ZM133.407 35.5904L133.425 34.1563H133.425L133.407 35.5904ZM130.224 34.8949L130.524 33.4926H130.524L130.224 34.8949ZM126.76 33.1563L127.401 31.8736L127.401 31.8736L126.76 33.1563ZM125.797 32.4609L125.955 31.0355H125.955L125.797 32.4609ZM125.136 32.7754C125.948 31.2556 127.125 29.9257 128.476 28.6266L126.488 26.5591C125.051 27.9405 123.625 29.5151 122.606 31.4243L125.136 32.7754ZM128.476 28.6266C128.934 28.1858 129.366 27.8426 129.956 27.3135C130.49 26.8344 131.076 26.265 131.55 25.5806L129.192 23.948C128.912 24.3519 128.526 24.7427 128.04 25.1787C127.61 25.5648 126.974 26.0917 126.488 26.5591L128.476 28.6266ZM131.55 25.5806C131.794 25.2281 132.217 24.7643 132.691 24.4018C133.206 24.0085 133.558 23.9049 133.687 23.9049V21.0365C132.605 21.0365 131.627 21.6058 130.95 22.1223C130.234 22.6696 129.604 23.3527 129.192 23.948L131.55 25.5806ZM133.687 23.9049C133.787 23.9049 133.862 23.9053 133.926 23.9068C133.989 23.9084 134.026 23.9108 134.047 23.9128C134.087 23.9167 134.025 23.9154 133.929 23.8709C133.883 23.8493 133.843 23.8245 133.813 23.8019C133.785 23.7806 133.772 23.7666 133.776 23.7704C133.78 23.7749 133.796 23.7928 133.827 23.8327C133.857 23.8726 133.896 23.9264 133.947 24.0008L136.317 22.385C136.08 22.0385 135.73 21.5442 135.136 21.2686C134.59 21.0158 133.997 21.0365 133.687 21.0365V23.9049ZM133.947 24.0008C134.416 24.689 134.71 25.7599 134.919 26.8844L137.739 26.3621C137.526 25.2113 137.153 23.6115 136.317 22.385L133.947 24.0008ZM134.919 26.8844C135.293 28.9054 135.677 30.6014 135.677 32.394H138.545C138.545 30.2652 138.084 28.2237 137.739 26.3621L134.919 26.8844ZM135.677 32.394C135.677 32.7081 135.733 33.0841 135.767 33.3269C135.808 33.6228 135.841 33.8736 135.851 34.1023C135.856 34.2123 135.855 34.2986 135.849 34.3643C135.844 34.4313 135.835 34.4574 135.836 34.4542C135.845 34.4281 135.921 34.2492 136.136 34.1472L137.364 36.7394C138.05 36.4142 138.407 35.8381 138.572 35.3178C138.724 34.8349 138.733 34.3436 138.717 33.9734C138.699 33.5909 138.646 33.2109 138.608 32.9332C138.562 32.6024 138.545 32.462 138.545 32.394H135.677ZM136.136 34.1472C136.028 34.1981 135.727 34.2562 135.132 34.243C134.864 34.237 134.588 34.2191 134.295 34.1997C134.019 34.1813 133.705 34.1599 133.425 34.1563L133.388 37.0244C133.575 37.0268 133.804 37.0417 134.105 37.0617C134.39 37.0806 134.727 37.103 135.068 37.1106C135.693 37.1245 136.596 37.1031 137.364 36.7394L136.136 34.1472ZM133.425 34.1563C133.094 34.1521 132.699 34.0739 132.184 33.9354C131.738 33.8152 131.082 33.6122 130.524 33.4926L129.923 36.2973C130.393 36.3978 130.81 36.536 131.439 36.7052C132 36.8561 132.682 37.0155 133.388 37.0244L133.425 34.1563ZM130.524 33.4926C130.098 33.4014 129.677 33.2024 129.161 32.8997C128.713 32.6375 128.028 32.1868 127.401 31.8736L126.118 34.4391C126.644 34.7017 127.039 34.9809 127.711 35.3743C128.313 35.7272 129.048 36.1097 129.923 36.2973L130.524 33.4926ZM127.401 31.8736C127.494 31.9198 127.527 31.9586 127.475 31.9125C127.413 31.8577 127.39 31.8325 127.266 31.7161C127.175 31.6317 127.025 31.4948 126.843 31.3728C126.667 31.2542 126.361 31.0806 125.955 31.0355L125.639 33.8863C125.399 33.8597 125.258 33.7629 125.244 33.7541C125.226 33.7419 125.238 33.7476 125.309 33.8133C125.344 33.8459 125.371 33.8726 125.421 33.9192C125.463 33.9598 125.518 34.0111 125.577 34.0632C125.682 34.1562 125.872 34.3159 126.118 34.4391L127.401 31.8736ZM125.955 31.0355C125.81 31.0194 125.408 30.9779 125.016 30.9191C124.818 30.8892 124.653 30.8595 124.543 30.8333C124.486 30.8197 124.474 30.8141 124.491 30.8205C124.5 30.8239 124.538 30.838 124.591 30.8663C124.634 30.8889 124.755 30.956 124.885 31.0857L122.857 33.1139C123.118 33.3753 123.424 33.4842 123.499 33.5118C123.633 33.5612 123.768 33.5973 123.88 33.6238C124.106 33.6777 124.363 33.7214 124.59 33.7556C125.05 33.8247 125.52 33.8731 125.639 33.8863L125.955 31.0355Z" fill="white"/>
<path d="M68.9804 27.5929C70.3743 28.9331 71.6758 30.3853 72.5913 32.0998C72.4102 32.281 70.929 32.4316 70.6655 32.4609C70.3339 32.4978 70.0107 33.0023 69.7026 33.1563C68.5509 33.7322 67.5399 34.6161 66.2388 34.8949C65.2113 35.1151 64.0922 35.5773 63.0558 35.5904C62.1213 35.6022 60.5878 35.858 59.7124 35.4433C58.7703 34.997 59.3513 33.158 59.3513 32.394C59.3513 30.4333 59.7741 28.5645 60.1336 26.6233C60.3443 25.4856 60.6778 24.1503 61.3306 23.1929C61.807 22.4942 61.9711 22.4707 62.775 22.4707C63.9868 22.4707 65.4354 23.8164 66.0917 24.7643C66.8451 25.8526 68.0359 26.6847 68.9804 27.5929Z" fill="white"/>
<path d="M72.5913 32.0998L73.8564 31.4243C74.1539 31.9813 74.0519 32.6674 73.6054 33.1139L72.5913 32.0998ZM68.9804 27.5929L67.9864 28.6266L68.9804 27.5929ZM66.0917 24.7643L64.9125 25.5806V25.5806L66.0917 24.7643ZM61.3306 23.1929L60.1457 22.385L61.3306 23.1929ZM60.1336 26.6233L61.5438 26.8844V26.8844L60.1336 26.6233ZM59.7124 35.4433L59.0984 36.7394L59.7124 35.4433ZM63.0558 35.5904L63.0377 34.1563H63.0377L63.0558 35.5904ZM66.2388 34.8949L65.9383 33.4926H65.9383L66.2388 34.8949ZM69.7026 33.1563L69.0612 31.8736L69.0612 31.8736L69.7026 33.1563ZM70.6655 32.4609L70.5071 31.0355H70.5071L70.6655 32.4609ZM71.3262 32.7754C70.5147 31.2556 69.3374 29.9257 67.9864 28.6266L69.9744 26.5591C71.4111 27.9405 72.8369 29.5151 73.8564 31.4243L71.3262 32.7754ZM67.9864 28.6266C67.5279 28.1858 67.0962 27.8426 66.5065 27.3135C65.9726 26.8344 65.3863 26.265 64.9125 25.5806L67.2708 23.948C67.5505 24.3519 67.9363 24.7427 68.4222 25.1787C68.8524 25.5648 69.4884 26.0917 69.9744 26.5591L67.9864 28.6266ZM64.9125 25.5806C64.6684 25.2281 64.2458 24.7643 63.7712 24.4018C63.2562 24.0085 62.9047 23.9049 62.775 23.9049V21.0365C63.8571 21.0365 64.8358 21.6058 65.5121 22.1223C66.2288 22.6696 66.8587 23.3527 67.2708 23.948L64.9125 25.5806ZM62.775 23.9049C62.6755 23.9049 62.6001 23.9053 62.5366 23.9068C62.4733 23.9084 62.4363 23.9108 62.415 23.9128C62.3751 23.9167 62.4373 23.9154 62.5332 23.8709C62.5799 23.8493 62.6192 23.8245 62.6492 23.8019C62.6774 23.7806 62.6901 23.7666 62.6865 23.7704C62.6822 23.7749 62.6661 23.7928 62.6355 23.8327C62.605 23.8726 62.5662 23.9264 62.5155 24.0008L60.1457 22.385C60.3819 22.0385 60.7323 21.5442 61.3268 21.2686C61.8722 21.0158 62.4653 21.0365 62.775 21.0365V23.9049ZM62.5155 24.0008C62.0463 24.689 61.7521 25.7599 61.5438 26.8844L58.7235 26.3621C58.9366 25.2113 59.3094 23.6115 60.1457 22.385L62.5155 24.0008ZM61.5438 26.8844C61.1696 28.9054 60.7854 30.6014 60.7854 32.394H57.9171C57.9171 30.2652 58.3787 28.2237 58.7235 26.3621L61.5438 26.8844ZM60.7854 32.394C60.7854 32.7081 60.7295 33.0841 60.6958 33.3269C60.6548 33.6228 60.6215 33.8736 60.6113 34.1023C60.6063 34.2123 60.6078 34.2986 60.6133 34.3643C60.6189 34.4313 60.6271 34.4574 60.6261 34.4542C60.6179 34.4281 60.5416 34.2492 60.3263 34.1472L59.0984 36.7394C58.4121 36.4142 58.0552 35.8381 57.8909 35.3178C57.7385 34.8349 57.7292 34.3436 57.7458 33.9734C57.763 33.5909 57.8162 33.2109 57.8546 32.9332C57.9005 32.6024 57.9171 32.462 57.9171 32.394H60.7854ZM60.3263 34.1472C60.4339 34.1981 60.7352 34.2562 61.33 34.243C61.5985 34.237 61.8746 34.2191 62.1673 34.1997C62.4437 34.1813 62.7574 34.1599 63.0377 34.1563L63.074 37.0244C62.887 37.0268 62.6585 37.0417 62.3572 37.0617C62.0723 37.0806 61.735 37.103 61.3939 37.1106C60.7695 37.1245 59.8663 37.1031 59.0984 36.7394L60.3263 34.1472ZM63.0377 34.1563C63.368 34.1521 63.7634 34.0739 64.278 33.9354C64.7248 33.8152 65.3802 33.6122 65.9383 33.4926L66.5393 36.2973C66.0699 36.3978 65.652 36.536 65.0233 36.7052C64.4624 36.8561 63.78 37.0155 63.074 37.0244L63.0377 34.1563ZM65.9383 33.4926C66.364 33.4014 66.785 33.2024 67.3016 32.8997C67.749 32.6375 68.4347 32.1868 69.0612 31.8736L70.344 34.4391C69.8188 34.7017 69.4232 34.9809 68.7519 35.3743C68.1497 35.7272 67.4147 36.1097 66.5393 36.2973L65.9383 33.4926ZM69.0612 31.8736C68.9689 31.9198 68.9352 31.9586 68.9875 31.9125C69.0496 31.8577 69.0721 31.8325 69.1968 31.7161C69.2872 31.6317 69.4374 31.4948 69.619 31.3728C69.7956 31.2542 70.1016 31.0806 70.5071 31.0355L70.8239 33.8863C71.0635 33.8597 71.2048 33.7629 71.2179 33.7541C71.2361 33.7419 71.224 33.7476 71.1536 33.8133C71.1186 33.8459 71.091 33.8726 71.0418 33.9192C70.999 33.9598 70.9444 34.0111 70.8853 34.0632C70.78 34.1562 70.5904 34.3159 70.3439 34.4391L69.0612 31.8736ZM70.5071 31.0355C70.6522 31.0194 71.0545 30.9779 71.4463 30.9191C71.6448 30.8892 71.809 30.8595 71.9193 30.8333C71.9765 30.8197 71.9886 30.8141 71.9713 30.8205C71.9621 30.8239 71.9243 30.838 71.8709 30.8663C71.8283 30.8889 71.7069 30.956 71.5772 31.0857L73.6054 33.1139C73.3441 33.3753 73.0383 33.4842 72.9635 33.5118C72.8294 33.5612 72.694 33.5973 72.5828 33.6238C72.3562 33.6777 72.0996 33.7214 71.8723 33.7556C71.4123 33.8247 70.9423 33.8731 70.8239 33.8863L70.5071 31.0355Z" fill="white"/>
<path d="M44.0871 182.066C54.0072 182.066 71.9661 181.016 81.8528 180.174C81.7853 182.514 81.9373 184.543 85.462 184.543C89.5781 184.543 93.5566 184.892 97.6759 184.892C99.5688 185.573 101.009 184.311 102.868 184.311C106.625 184.311 110.643 184.493 114.326 183.768C116.202 183.399 118.09 183.177 119.97 182.839C122.306 182.418 124.24 180.86 126.345 179.972C130.257 178.323 133.712 176.023 135.269 169.16C136.55 172.619 142.784 171.604 145.525 171.355C147.324 171.191 148.782 169.491 149.821 168.192C151.48 166.118 152.237 163.462 152.911 160.952C153.725 157.918 153.548 154.909 153.577 151.788C153.613 147.832 153.764 143.874 153.764 139.909V133.875C153.764 131.937 153.54 130.105 153.41 128.185C153.175 124.721 153.082 121.191 151.881 117.887C150.448 113.945 149.385 109.859 147.023 106.434C145.892 104.795 145.034 102.719 143.653 101.337L66.6652 105.636C67.6825 107.122 68.002 109.749 68.0973 111.552C68.1826 113.165 68.5735 114.689 68.5926 116.308C68.6276 119.282 69.3807 122.599 68.7264 125.547C67.8155 129.651 66.5364 133.465 64.1355 137.01C63.2199 138.362 62.866 140.168 61.7129 141.42C60.7338 142.483 60.3249 143.793 59.317 144.866C58.2714 145.979 57.7337 147.281 56.4126 148.213C55.4598 148.886 52.0686 152.778 51.1088 153.442C50.1408 152.232 49.2862 151.703 47.9403 150.918C47.0408 150.393 45.1113 150.432 44.2213 150.998C43.1896 151.655 42.9621 151.997 42.2746 153.066C40.3659 156.035 40.7038 160.177 40.7038 163.565C40.7038 169.974 42.8207 175.835 44.0871 182.066Z" fill="black"/>
<path d="M129.275 169.639C132.5 170.259 135.017 173.128 137.258 175.369C138.124 176.235 138.899 176.987 139.135 178.247C139.79 181.742 138.951 184.858 136.032 186.943C133.16 188.994 130.12 190.273 126.898 191.66C124.123 192.855 121.219 193.338 118.34 194.188C116.587 194.705 114.222 194.704 112.409 194.838C109.913 195.023 107.375 194.561 104.889 194.401C103.41 194.305 101.937 194.041 100.447 193.963C99.1271 193.893 97.8539 193.287 96.4432 193.287C93.0253 193.287 89.6081 192.836 86.2081 192.836C83.1295 192.836 80.4172 192.161 77.3744 192.161C75.6811 192.161 73.9878 192.161 72.2944 192.161" stroke="black" stroke-width="8.68044" stroke-linecap="round"/>
<path d="M124.18 115.006C125.709 120.747 127.751 126.499 128.361 132.44C129.084 139.475 130.035 146.478 130.931 153.494C131.25 155.992 131.865 158.617 132.522 161.057" stroke="white" stroke-width="1.50964" stroke-linecap="round"/>
<path d="M96.9152 160.447C95.7676 157.57 94.2775 153.067 91.4227 151.875C90.4872 151.485 89.0745 151.8 88.1101 151.8C86.6294 151.8 84.4423 153.949 83.3228 154.985C82.144 156.077 81.8652 157.998 81.6131 159.638C81.0048 163.596 81.1429 168.048 81.1429 172.078C81.1429 175.6 80.7792 180.306 81.6131 183.76" stroke="white" stroke-width="1.50964" stroke-linecap="round"/>
<path d="M115.137 13.6914V13.9307" stroke="white" stroke-width="2.86832" stroke-linecap="round"/>
<path d="M53.4662 141.392C53.4662 129.601 57.6812 118.435 61.4971 107.348C65.313 96.2612 70.3078 96.7672 70.3078 96.7672L82.7623 106.769C77.2899 121.613 64.9486 151.68 59.3629 153.19C53.7772 154.7 52.988 150.144 53.2916 147.677C53.2916 145.552 53.4662 143.499 53.4662 141.392Z" fill="black" stroke="black" stroke-width="2.86832" stroke-linecap="round"/>
<path d="M142.039 75.5963C143.002 75.366 143.993 75.2615 144.969 75.1056C147.019 74.7784 149.044 74.3205 151.075 73.8994C151.314 73.8499 153.619 73.6578 153.815 73.2656" stroke="white" stroke-width="2.86832" stroke-linecap="round"/>
<path d="M143.389 82.3438C145.466 82.6286 147.49 82.9691 149.549 83.3728C150.404 83.5403 151.335 83.8157 152.221 83.8157" stroke="white" stroke-width="2.86832" stroke-linecap="round"/>
<path d="M60.3828 75.5963C59.4199 75.366 58.429 75.2615 57.4525 75.1056C55.4029 74.7784 53.3781 74.3205 51.3465 73.8994C51.1078 73.8499 48.803 73.6578 48.6069 73.2656" stroke="white" stroke-width="2.86832" stroke-linecap="round"/>
<path d="M59.0342 82.3438C56.9564 82.6286 54.9332 82.9691 52.8736 83.3728C52.0188 83.5403 51.0879 83.8157 50.2023 83.8157" stroke="white" stroke-width="2.86832" stroke-linecap="round"/>
<path d="M84.7412 69.2557C84.3517 69.905 84.3757 71.1076 85.1121 71.4423C85.5811 71.6555 86.0436 71.7876 86.5571 71.7876C87.6277 71.7876 87.8156 71.208 88.0532 70.317C88.3942 69.0385 86.0807 68.8859 85.3167 69.1406" stroke="white" stroke-width="2.86832" stroke-linecap="round"/>
<path d="M112.938 69.1402C112.785 69.6552 112.379 70.4366 112.72 70.9688C113.187 71.6961 113.853 71.748 114.651 71.6593C115.372 71.5792 115.815 70.9966 115.815 70.3294C115.815 69.361 115.29 68.8831 114.268 68.8013C113.655 68.7523 113.487 68.5202 112.938 68.7949" stroke="white" stroke-width="2.86832" stroke-linecap="round"/>
<path d="M97.293 75.7443C97.4689 75.735 97.6326 75.6697 97.8014 75.6259C98.0252 75.5679 98.2562 75.5749 98.4794 75.5264C98.7694 75.4633 99.0995 75.4537 99.3968 75.4537C99.4821 75.4537 99.9034 75.4096 99.8703 75.5129C99.7805 75.7935 99.5605 75.9622 99.4022 76.1909C99.2395 76.4258 98.8521 76.8581 98.5762 76.8581C98.1148 76.8581 97.8134 76.2828 97.5835 75.938" stroke="#FF4E57" stroke-width="2.86832" stroke-linecap="round"/>
<path d="M98.4253 85.1074C99.2606 84.6197 100.097 84.153 100.9 83.6126C101.016 83.534 101.138 83.4647 101.267 83.4075C101.354 83.3684 101.405 83.3491 101.507 83.3697C101.941 83.4581 102.403 83.7875 102.764 84.0281C103.318 84.3977 103.917 84.7525 104.545 84.9617" stroke="#FF4E57" stroke-width="2.64187" stroke-linecap="round"/>
<path d="M65.9756 119.601C64.9037 124.01 64.1781 128.62 62.4035 132.815C60.3023 137.782 58.3688 142.814 56.3927 147.835C55.6892 149.622 55.1419 151.606 54.6911 153.483" stroke="white" stroke-width="1.50964" stroke-linecap="round"/>
<path d="M11.0225 47.3096C11.2876 49.2317 11.4019 51.073 11.4019 53.0015" stroke="#FFB218" stroke-width="3" stroke-linecap="round"/>
<path d="M5.68359 56.9766H8.69425" stroke="#FFB218" stroke-width="3" stroke-linecap="round"/>
<path d="M14.916 56.5757C15.803 56.4309 16.6313 56.375 17.5253 56.375" stroke="#FFB218" stroke-width="3" stroke-linecap="round"/>
<path d="M12.1064 59.9873V63.8008" stroke="#FFB218" stroke-width="3" stroke-linecap="round"/>
<path d="M183.339 115C183.604 116.922 183.718 118.763 183.718 120.692" stroke="#FFB218" stroke-width="3" stroke-linecap="round"/>
<path d="M178 124.667H181.011" stroke="#FFB218" stroke-width="3" stroke-linecap="round"/>
<path d="M187.232 124.266C188.119 124.121 188.948 124.065 189.842 124.065" stroke="#FFB218" stroke-width="3" stroke-linecap="round"/>
<path d="M184.423 127.678V131.491" stroke="#FFB218" stroke-width="3" stroke-linecap="round"/>
</svg>
