<svg width="200" height="202" viewBox="0 0 200 202" fill="none" xmlns="http://www.w3.org/2000/svg">
<path d="M143.81 102.8C143.504 101.802 142.902 101.536 142.401 100.685C142.236 94.239 84.9846 91.1449 56.3793 90.4037C56.2816 88.841 53.2132 86.5773 52.0258 85.6274C50.5871 84.4764 49.0995 83.5319 47.641 82.4484C44.3656 80.0152 39.7144 79.1403 35.7394 78.6274C31.8083 78.1201 28.0933 78.959 24.3702 80.0368C22.2305 80.6562 20.0168 83.8086 20.0168 86.0345C20.0168 87.2135 19.9098 88.4165 20.236 89.558C20.4717 90.3829 22.3603 92.2909 23.1174 92.6274C25.3776 93.6319 27.1347 95.5176 29.0369 97.0122C30.9423 98.5093 32.7329 99.9261 34.6902 101.272C35.6303 101.918 36.8077 103.071 37.4933 103.997C38.0566 104.757 39.1572 105.361 39.5291 106.064C41.2416 109.298 42.938 113.306 45.386 115.898C46.105 116.659 46.2021 117.739 46.9207 118.56C47.4409 119.155 47.9108 119.775 48.424 120.346C49.6738 121.734 51.1573 123.489 52.4017 125.2C53.017 126.046 55.3767 129.445 55.5505 130.545C55.4246 132.494 55.4324 134.503 54.8928 136.338C53.8334 139.94 53.7193 144.045 53.2273 147.785C52.2717 155.048 51.0074 162.309 50.6366 169.727C50.5073 172.312 52.389 177.159 48.6261 177.926C47.5179 178.153 44.9567 184.209 44.8999 185.8C44.7943 188.756 44.6115 191.128 46.5389 193.519C50.8712 198.895 57.3254 198.754 63.4582 198.754C66.5298 198.754 69.616 198.66 72.6845 198.78C74.1607 198.838 77.4652 198.817 78.8971 199.468C82.1617 200.952 86.1152 198.88 89.2601 198.754C90.3102 198.712 92.9739 198.491 93.7014 197.802C94.2171 197.314 94.7356 194.948 95.0761 194.154C96.4398 190.972 97.1453 186.878 99.3853 184.293L100.942 184.293C103.182 186.878 103.887 190.972 105.251 194.154C105.591 194.948 106.11 197.314 106.626 197.802C107.353 198.491 110.017 198.712 111.067 198.754C114.212 198.88 118.165 200.951 121.43 199.468C122.862 198.817 126.166 198.838 127.643 198.78C130.711 198.66 133.797 198.754 136.869 198.754C143.002 198.754 149.456 198.895 153.788 193.519C155.716 191.128 155.533 188.756 155.427 185.8C155.37 184.209 149.804 177.926 149.804 177.926C149.804 177.926 148.984 177.164 148.954 176.295C148.905 174.875 149.052 173.44 148.875 172.026C148.336 167.714 148.592 163.332 147.966 159.022C146.744 150.604 144.659 141.346 143.974 132.827C145.21 133.394 146.456 134.05 147.551 134.773C148.674 135.513 149.725 136.844 151.089 137.065C152.622 137.314 154.382 137.774 155.931 137.894C159.937 137.894 164.341 137.789 168.334 137.346C170.261 137.131 171.333 136.707 173.126 135.858C174.05 135.42 174.828 135.161 175.663 134.511C176.366 133.964 177.005 133.327 177.699 132.82C181.215 130.251 181.184 121.678 178.356 118.851C178.034 118.528 177.436 117.577 177.213 117.175C176.905 116.621 176.447 116.285 176.164 115.75C175.763 114.993 173.701 114.02 172.907 113.715C172.16 113.427 171.725 112.813 170.871 112.587C170.151 112.396 169.463 112.153 168.741 111.961C167.753 111.697 166.877 111.679 165.86 111.679C164.078 111.679 162.415 111.277 160.661 110.974C158.887 110.668 156.023 110.601 154.585 109.361C153.476 108.405 151.222 107.865 150.513 106.73C150.373 106.506 148.79 106.093 148.461 105.916C147.541 105.42 146.481 105.293 145.564 104.726C144.839 104.277 144.067 103.634 143.81 102.8Z" fill="white"/>
<path d="M143.974 132.827C144.659 141.346 146.744 150.604 147.966 159.022C148.592 163.332 148.336 167.714 148.875 172.026C149.052 173.44 148.905 174.875 148.954 176.295C148.984 177.164 149.804 177.926 149.804 177.926C149.804 177.926 155.37 184.209 155.427 185.8C155.533 188.756 155.716 191.128 153.788 193.519C149.456 198.895 143.002 198.754 136.869 198.754C133.797 198.754 130.711 198.66 127.643 198.78C126.166 198.838 122.862 198.817 121.43 199.468C118.165 200.951 114.212 198.88 111.067 198.754C110.017 198.712 107.353 198.491 106.626 197.802C106.11 197.314 105.591 194.948 105.251 194.154C103.887 190.972 103.182 186.878 100.942 184.293L99.3853 184.293C97.1453 186.878 96.4398 190.972 95.0761 194.154C94.7356 194.948 94.2171 197.314 93.7014 197.802C92.9739 198.491 90.3102 198.712 89.2601 198.754C86.1152 198.88 82.1617 200.952 78.8971 199.468C77.4652 198.817 74.1607 198.838 72.6845 198.78C69.616 198.66 66.5298 198.754 63.4582 198.754C57.3254 198.754 50.8712 198.895 46.5389 193.519C44.6115 191.128 44.7943 188.756 44.8999 185.8C44.9567 184.209 47.5179 178.153 48.6261 177.926C52.389 177.159 50.5073 172.312 50.6366 169.727C51.0074 162.309 52.2717 155.048 53.2273 147.785C53.7194 144.045 53.8334 139.94 54.8928 136.338C55.4324 134.503 55.4246 132.494 55.5505 130.545M143.974 132.827C145.21 133.394 146.456 134.05 147.551 134.773C148.674 135.513 149.725 136.844 151.089 137.065C152.622 137.314 154.382 137.774 155.931 137.894C159.937 137.894 164.341 137.789 168.334 137.346C170.261 137.131 171.333 136.707 173.126 135.858C174.05 135.42 174.828 135.161 175.663 134.511C176.366 133.964 177.005 133.327 177.699 132.82C181.215 130.251 181.184 121.678 178.356 118.851C178.034 118.528 177.436 117.577 177.213 117.175C176.905 116.621 176.447 116.285 176.164 115.75C175.763 114.993 173.701 114.02 172.907 113.715C172.16 113.427 171.725 112.813 170.871 112.587C170.151 112.396 169.463 112.153 168.741 111.961C167.753 111.697 166.877 111.679 165.86 111.679C164.078 111.679 162.415 111.277 160.661 110.974C158.887 110.668 156.023 110.601 154.585 109.361C153.476 108.405 151.222 107.865 150.513 106.73C150.373 106.506 148.79 106.093 148.461 105.916C147.541 105.42 146.481 105.293 145.564 104.726C144.839 104.277 144.067 103.634 143.81 102.8C143.504 101.802 142.902 101.536 142.401 100.685C142.236 94.239 84.9846 91.1449 56.3793 90.4037C56.2816 88.841 53.2132 86.5773 52.0258 85.6274C50.5871 84.4764 49.0995 83.5319 47.641 82.4484C44.3656 80.0152 39.7144 79.1403 35.7394 78.6274C31.8083 78.1201 28.0933 78.959 24.3702 80.0368C22.2305 80.6562 20.0168 83.8086 20.0168 86.0345C20.0168 87.2135 19.9098 88.4165 20.236 89.558C20.4717 90.3829 22.3603 92.2909 23.1174 92.6274C25.3776 93.6319 27.1347 95.5176 29.0369 97.0122C30.9423 98.5093 32.7329 99.9261 34.6902 101.272C35.6303 101.918 36.8077 103.071 37.4933 103.997C38.0566 104.757 39.1572 105.361 39.5291 106.064C41.2416 109.298 42.938 113.306 45.386 115.898C46.105 116.659 46.2021 117.739 46.9207 118.56C47.4409 119.155 47.9108 119.775 48.424 120.346C49.6738 121.734 51.1573 123.489 52.4017 125.2C53.017 126.046 55.3767 129.445 55.5505 130.545M143.974 132.827C143.372 132.551 142.773 132.296 142.195 132.065M55.5505 130.545C55.6433 129.108 55.8089 127.703 56.3204 126.424" stroke="#F2F2F2" stroke-width="3" stroke-linecap="round"/>
<path d="M57.5741 92.3227C56.8434 91.5779 55.8275 90.2973 55.0371 89.0205C53.3997 86.72 52.5491 84.9091 51.1512 82.4572C49.9157 80.2901 47.7736 78.0987 47.4429 75.5459C46.9135 71.4598 46.7872 67.8043 47.4033 63.7678L48.6263 55.7549L49.5448 49.7369C49.7858 48.1579 50.5619 46.8355 51.4167 45.4975C52.1737 44.3126 53.3426 43.1484 54.1873 41.93C52.8032 41.93 50.7003 40.9515 49.3902 40.702C48.067 40.45 46.6542 40.5928 45.3497 40.2474C40.3366 38.9205 41.4018 32.7462 42.7486 29.0603C43.2872 27.5861 44.4952 26.4969 45.0087 25.0703C45.4654 23.8017 46.59 22.8196 47.6224 21.9641C48.7084 21.0643 49.3905 20.1023 50.817 19.6408C52.6303 19.0542 54.3227 18.212 56.0823 17.469C58.4736 16.4594 60.9205 14.9318 63.5825 14.7417C64.6368 14.6664 65.6268 14.5144 66.7139 14.5144C68.9602 14.5144 76.8847 17.2565 79.1033 17.4783C81.291 16.5914 83.696 15.9886 85.9858 15.4498C88.7168 14.8072 91.2667 13.7092 94.0758 13.3971C96.2324 13.1575 98.2143 12.7934 100.403 12.7934L107.563 12.7934C110.521 12.7934 113.719 12.5602 116.583 13.4454C119.582 14.3725 122.766 14.7063 125.82 15.4981C127.821 16.0169 130.001 16.1802 132.082 16.6122C134.3 16.3904 137.815 14.5145 140.062 14.5145C141.149 14.5145 142.139 14.6664 143.193 14.7418C145.855 14.9319 148.302 16.4594 150.693 17.4691C152.453 18.2121 154.145 19.0542 155.959 19.6409C157.385 20.1024 158.067 21.0643 159.153 21.9642C160.186 22.8196 161.31 23.8018 161.767 25.0703C162.28 26.4969 163.488 27.5862 164.027 29.0603C165.374 32.7463 166.439 38.9205 161.426 40.2475C160.121 40.5928 158.709 40.45 157.385 40.7021C156.075 40.9516 154.935 41.5607 153.551 41.5607C154.976 43.5569 156.064 45.2967 156.273 47.7877C156.43 49.6413 157.669 51.6764 158.171 53.521C158.588 55.0531 158.934 56.5468 158.693 58.1258L157.775 64.1438L156.552 72.1567C155.936 76.1931 154.725 79.6446 153 83.3867C151.923 85.7246 149.225 87.1772 147.399 88.8771C145.333 90.8003 144.293 90.7552 142.044 92.4625C141.542 93.1727 140.938 93.3233 140.31 93.9076C139.896 94.293 138.755 94.4111 138.214 94.5126C137.426 94.6601 136.94 94.98 136.203 95.2006C134.988 95.5644 133.775 96.0779 132.671 96.5815C131.302 97.2053 129.798 97.0765 128.411 97.585C125.593 98.6183 122.938 99.3236 120.065 100.207C115.698 101.55 111.301 102.935 106.727 103.216C105.445 103.295 104.138 103.695 102.855 103.887C101.444 104.097 100.094 103.891 98.6879 104.007C96.5157 104.187 94.3479 104.102 92.1932 103.773C87.2048 103.011 82.3187 102.33 77.4587 100.963C72.4441 99.5532 67.1879 98.8236 62.5702 96.2245C60.7902 95.2225 58.9948 93.7709 57.5741 92.3227Z" fill="#F2F2F2"/>
<path d="M150.337 36.6406C151.069 38.2112 152.46 40.0321 153.551 41.5607M63.9303 31.7228C61.237 34.6756 56.6044 36.5038 54.9384 40.5914C54.7528 41.0469 54.491 41.492 54.1873 41.93M79.1033 17.4783C74.5208 19.3361 71.2646 22.8546 67.4634 25.834M79.1033 17.4783C81.291 16.5914 83.696 15.9886 85.9858 15.4498C88.7168 14.8072 91.2667 13.7092 94.0758 13.3971C96.2324 13.1575 98.2143 12.7934 100.403 12.7934L107.563 12.7934C110.521 12.7934 113.719 12.5602 116.583 13.4454C119.582 14.3725 122.766 14.7063 125.82 15.4981C127.821 16.0169 130.001 16.1802 132.082 16.6122M79.1033 17.4783C76.8847 17.2565 68.9602 14.5144 66.7139 14.5144C65.6268 14.5144 64.6368 14.6664 63.5825 14.7417C60.9205 14.9318 58.4736 16.4594 56.0823 17.469C54.3227 18.212 52.6303 19.0542 50.817 19.6408C49.3905 20.1023 48.7084 21.0643 47.6224 21.9641C46.59 22.8196 45.4654 23.8017 45.0087 25.0703C44.4952 26.4969 43.2872 27.5861 42.7486 29.0603C41.4018 32.7462 40.3366 38.9205 45.3496 40.2474C46.6542 40.5928 48.067 40.45 49.3902 40.702C50.7003 40.9515 52.8032 41.93 54.1873 41.93M142.229 23.2258C141.321 22.6204 140.406 21.2763 139.718 20.4004C138.755 19.1756 136.676 18.2844 135.274 17.6232C134.266 17.1477 133.188 16.842 132.082 16.6122M54.1873 41.93C53.3426 43.1484 52.1737 44.3126 51.4167 45.4975C50.5619 46.8355 49.7858 48.1579 49.5448 49.7369L48.6263 55.7549L47.4033 63.7678C46.7872 67.8043 46.9135 71.4598 47.4429 75.5459C47.7736 78.0987 49.9157 80.2901 51.1512 82.4572C52.5491 84.9091 53.3997 86.72 55.0371 89.0205C55.8275 90.2973 56.8434 91.5779 57.5741 92.3227C58.9948 93.7709 60.7902 95.2225 62.5702 96.2244C67.1879 98.8236 72.4441 99.5532 77.4587 100.963C82.3187 102.33 87.2048 103.011 92.1932 103.773C94.3479 104.102 96.5157 104.187 98.6879 104.007C100.094 103.891 101.444 104.097 102.855 103.887C104.138 103.695 105.445 103.295 106.727 103.216C111.301 102.935 115.698 101.55 120.065 100.207C122.938 99.3236 125.593 98.6183 128.411 97.585C129.798 97.0765 131.302 97.2053 132.671 96.5815C133.775 96.0779 134.988 95.5644 136.203 95.2006C136.94 94.98 137.426 94.6601 138.214 94.5126C138.755 94.4111 139.896 94.293 140.31 93.9076C140.938 93.3233 141.542 93.1727 142.044 92.4625C144.293 90.7552 145.333 90.8003 147.399 88.8771C149.225 87.1772 151.923 85.7246 153 83.3867C154.725 79.6446 155.936 76.1931 156.552 72.1567L157.775 64.1438L158.693 58.1258C158.934 56.5468 158.588 55.0531 158.171 53.521C157.669 51.6764 156.43 49.6413 156.273 47.7877C156.064 45.2967 154.976 43.5569 153.551 41.5607M132.082 16.6122C134.3 16.3904 137.815 14.5145 140.062 14.5145C141.149 14.5145 142.139 14.6665 143.193 14.7418C145.855 14.9319 148.302 16.4594 150.693 17.4691C152.453 18.2121 154.145 19.0542 155.959 19.6409C157.385 20.1024 158.067 21.0643 159.153 21.9642C160.186 22.8196 161.31 23.8018 161.767 25.0703C162.28 26.4969 163.488 27.5862 164.027 29.0603C165.374 32.7463 166.439 38.9205 161.426 40.2475C160.121 40.5928 158.709 40.45 157.385 40.7021C156.075 40.9516 154.935 41.5607 153.551 41.5607" stroke="#F2F2F2" stroke-width="3.751" stroke-linecap="round"/>
<path d="M57.5736 92.3227C56.8429 91.5779 55.8271 90.2973 55.0366 89.0205C53.3992 86.72 52.5486 84.9091 51.1507 82.4572C49.9152 80.2901 47.7731 78.0987 47.4424 75.5459C46.913 71.4598 46.7867 67.8043 47.4028 63.7678L48.6258 55.7549L49.5444 49.7369C49.7853 48.1579 50.5615 46.8355 51.4162 45.4975C52.1733 44.3126 53.3421 43.1484 54.1868 41.93C52.8028 41.93 50.6998 40.9515 49.3897 40.702C48.0665 40.45 46.6537 40.5928 45.3492 40.2474C40.3361 38.9205 41.4013 32.7462 42.7481 29.0603C43.2867 27.5861 44.4947 26.4969 45.0082 25.0703C45.4649 23.8017 46.5895 22.8196 47.6219 21.9641C48.708 21.0643 49.39 20.1023 50.8165 19.6408C52.6298 19.0542 54.3222 18.212 56.0818 17.469C58.4731 16.4594 60.92 14.9318 63.582 14.7417C64.6363 14.6664 65.6263 14.5144 66.7134 14.5144C68.9597 14.5144 76.8842 17.2565 79.1028 17.4783C81.2905 16.5914 83.6955 15.9886 85.9854 15.4498C88.7163 14.8072 91.2662 13.7092 94.0754 13.3971C96.2319 13.1575 98.2138 12.7934 100.402 12.7934L107.563 12.7934C110.52 12.7934 113.719 12.5602 116.582 13.4454C119.582 14.3725 122.765 14.7063 125.819 15.4981C127.82 16.0169 130.001 16.1802 132.081 16.6122C134.3 16.3904 137.815 14.5145 140.061 14.5145C141.148 14.5145 142.138 14.6665 143.193 14.7418C145.855 14.9319 148.302 16.4594 150.693 17.4691C152.452 18.2121 154.145 19.0542 155.958 19.6409C157.385 20.1024 158.067 21.0643 159.153 21.9642C160.185 22.8196 161.31 23.8018 161.766 25.0703C162.28 26.4969 163.488 27.5862 164.027 29.0603C165.373 32.7463 166.439 38.9205 161.425 40.2475C160.121 40.5928 158.708 40.45 157.385 40.7021C156.075 40.9516 154.935 41.5607 153.551 41.5607C154.975 43.5569 156.063 45.2967 156.273 47.7877C156.429 49.6413 157.669 51.6764 158.171 53.521C158.588 55.0531 158.934 56.5468 158.693 58.1258L157.774 64.1438L156.551 72.1567C155.935 76.1931 154.724 79.6446 153 83.3867C151.923 85.7246 149.224 87.1772 147.399 88.8771C145.333 90.8003 144.293 90.7552 142.044 92.4625C141.542 93.1726 140.937 93.3233 140.309 93.9076C139.896 94.2929 138.755 94.4111 138.213 94.5126C137.426 94.6601 136.939 94.98 136.202 95.2006C134.987 95.5644 133.775 96.0779 132.67 96.5815C131.301 97.2053 129.798 97.0765 128.411 97.585C125.592 98.6183 122.938 99.3236 120.065 100.207C115.698 101.55 111.3 102.935 106.726 103.216C105.444 103.295 104.137 103.695 102.854 103.887C101.443 104.097 100.093 103.891 98.6875 104.007C96.5153 104.187 94.3475 104.102 92.1927 103.773C87.2044 103.011 82.3182 102.33 77.4582 100.963C72.4436 99.5532 67.1875 98.8236 62.5697 96.2244C60.7897 95.2225 58.9943 93.7709 57.5736 92.3227Z" fill="white"/>
<path d="M150.336 36.6406C151.069 38.2112 152.46 40.0321 153.551 41.5607M63.9298 31.7228C61.2365 34.6756 56.6039 36.5038 54.938 40.5914C54.7523 41.0469 54.4905 41.492 54.1868 41.93M79.1028 17.4783C74.5203 19.3361 71.2641 22.8546 67.4629 25.834M79.1028 17.4783C81.2905 16.5914 83.6955 15.9886 85.9854 15.4498C88.7163 14.8072 91.2662 13.7092 94.0754 13.3971C96.2319 13.1575 98.2138 12.7934 100.402 12.7934L107.563 12.7934C110.52 12.7934 113.719 12.5602 116.582 13.4454C119.582 14.3725 122.765 14.7063 125.819 15.4981C127.82 16.0169 130.001 16.1802 132.081 16.6123M79.1028 17.4783C76.8842 17.2565 68.9597 14.5144 66.7134 14.5144C65.6263 14.5144 64.6363 14.6664 63.582 14.7417C60.92 14.9318 58.4731 16.4594 56.0818 17.469C54.3222 18.212 52.6298 19.0542 50.8165 19.6408C49.39 20.1023 48.708 21.0643 47.6219 21.9641C46.5895 22.8196 45.4649 23.8017 45.0082 25.0703C44.4947 26.4969 43.2867 27.5861 42.7481 29.0603C41.4013 32.7462 40.3361 38.9205 45.3492 40.2474C46.6537 40.5928 48.0665 40.45 49.3897 40.702C50.6998 40.9515 52.8028 41.93 54.1868 41.93M142.229 23.2258C141.321 22.6204 140.406 21.2763 139.717 20.4004C138.755 19.1756 136.675 18.2844 135.274 17.6232C134.266 17.1477 133.188 16.842 132.081 16.6123M54.1868 41.93C53.3421 43.1484 52.1733 44.3126 51.4162 45.4975C50.5615 46.8355 49.7853 48.1579 49.5444 49.7369L48.6258 55.7549L47.4028 63.7678C46.7867 67.8043 46.913 71.4598 47.4424 75.5459C47.7731 78.0987 49.9152 80.2901 51.1507 82.4572C52.5486 84.9091 53.3992 86.72 55.0366 89.0205C55.8271 90.2973 56.8429 91.5779 57.5736 92.3227C58.9943 93.7709 60.7897 95.2225 62.5697 96.2244C67.1874 98.8236 72.4436 99.5532 77.4582 100.963C82.3182 102.33 87.2044 103.011 92.1927 103.773C94.3475 104.102 96.5153 104.187 98.6875 104.007C100.093 103.891 101.443 104.097 102.854 103.887C104.137 103.695 105.444 103.295 106.726 103.216C111.3 102.935 115.698 101.55 120.065 100.207C122.938 99.3236 125.592 98.6183 128.411 97.585C129.798 97.0765 131.301 97.2053 132.67 96.5815C133.775 96.0779 134.987 95.5644 136.202 95.2006C136.939 94.98 137.426 94.6601 138.213 94.5126C138.755 94.4111 139.896 94.2929 140.309 93.9076C140.937 93.3233 141.542 93.1727 142.044 92.4625C144.293 90.7552 145.333 90.8003 147.399 88.8771C149.224 87.1772 151.923 85.7246 153 83.3867C154.724 79.6446 155.935 76.1931 156.551 72.1567L157.774 64.1438L158.693 58.1258C158.934 56.5468 158.588 55.0531 158.171 53.521C157.669 51.6764 156.429 49.6413 156.273 47.7877C156.063 45.2967 154.975 43.5569 153.551 41.5607M132.081 16.6123C134.3 16.3904 137.815 14.5145 140.061 14.5145C141.148 14.5145 142.138 14.6665 143.193 14.7418C145.855 14.9319 148.302 16.4594 150.693 17.4691C152.452 18.2121 154.145 19.0542 155.958 19.6409C157.385 20.1024 158.067 21.0643 159.153 21.9642C160.185 22.8196 161.31 23.8018 161.766 25.0703C162.28 26.4969 163.488 27.5862 164.027 29.0603C165.373 32.7463 166.439 38.9205 161.425 40.2475C160.121 40.5928 158.708 40.45 157.385 40.7021C156.075 40.9516 154.935 41.5607 153.551 41.5607" stroke="#F2F2F2" stroke-width="3" stroke-linecap="round"/>
<path d="M90.5241 103.792C90.4041 103.306 88.1446 103.449 87.792 103.401C86.6361 103.243 85.3545 102.617 84.2595 102.535C82.9731 102.438 80.1559 102.313 79.3472 101.222C78.9429 100.676 76.9327 100.05 76.1735 100.02C74.973 99.9736 73.8247 99.5517 72.6411 99.5175C72.1241 99.5026 71.9188 99.3984 71.5096 99.2801C71.1823 99.1854 70.8664 98.7871 70.6541 98.7632C68.9853 98.5755 70.9546 97.6112 71.6476 97.3105C72.5302 96.9276 73.6757 96.887 74.5729 97.2547C77.2362 98.3459 79.7571 99.3804 82.5899 99.9086C85.7487 100.498 88.776 101.338 92.0144 101.543C93.2211 101.619 94.3978 102.211 95.5469 102.283C97.2154 102.389 98.9261 102.283 100.597 102.283C106.341 102.283 112.144 102.032 117.845 102.032C120.304 102.032 122.475 101.097 124.8 100.761C125.328 100.684 125.594 100.071 126.042 100.02C126.498 99.969 126.988 100.131 127.408 99.8947C128.221 99.4377 129.02 99.268 129.768 98.7632" stroke="white" stroke-width="13.5835" stroke-linecap="round"/>
<path d="M88.0566 58.068C87.838 58.1894 87.9349 58.9369 88.1447 59.0607C88.2892 59.146 88.7637 59.1719 88.9053 59.0607C89.0594 58.9396 88.5031 58.1662 88.4649 58.076C88.3728 57.8581 88.3874 57.735 88.1687 57.5996C88.0157 57.5049 87.9856 57.2999 87.8405 57.2193C87.5147 57.0384 87.0219 57.6296 86.9798 57.9239C86.9496 58.1356 86.9165 58.5039 87.0158 58.6884C87.2843 59.1869 87.7486 59.0767 88.2488 59.0767C88.6426 59.0767 88.9933 58.4848 88.9933 58.104C88.9933 57.7733 88.7315 57.7253 88.489 57.5636" stroke="black" stroke-width="3.46854" stroke-linecap="round"/>
<path d="M111.625 58.068C111.407 58.1894 111.504 58.9369 111.714 59.0607C111.858 59.146 112.333 59.1719 112.474 59.0607C112.628 58.9396 112.072 58.1662 112.034 58.076C111.942 57.8581 111.956 57.735 111.738 57.5996C111.585 57.5049 111.554 57.2999 111.409 57.2193C111.084 57.0384 110.591 57.6296 110.549 57.9239C110.518 58.1356 110.485 58.5039 110.585 58.6884C110.853 59.1869 111.317 59.0767 111.818 59.0767C112.211 59.0767 112.562 58.4848 112.562 58.104C112.562 57.7733 112.3 57.7253 112.058 57.5636" stroke="black" stroke-width="3.46854" stroke-linecap="round"/>
<path d="M142.082 14.3135C139.836 14.3135 136.474 15.4553 134.255 15.6771C134.782 15.6771 135.184 16.192 135.489 16.5848C135.9 17.1124 136.629 17.5836 137.139 18.0204C137.729 18.5263 138.644 18.5259 139.12 19.1772C139.5 19.6968 140.129 20.0618 140.609 20.4883C141.327 21.1266 142.015 21.7146 142.774 22.2976C143.876 23.1435 145.015 23.9688 146.007 24.9612C146.417 25.3709 146.851 25.7572 147.259 26.1655C147.852 26.7587 148.234 27.647 148.635 28.3664C149.828 30.5026 150.94 32.7886 151.869 35.0521C152.146 35.7273 152.374 36.3477 152.752 36.9505C153.238 37.7244 153.788 38.4567 154.283 39.2285C154.71 39.8941 155.636 40.6875 155.719 41.5184C157.103 41.5184 158.095 40.7506 159.406 40.5011C160.729 40.249 162.142 40.3918 163.446 40.0465C168.459 38.7195 167.394 32.5453 166.047 28.8593C165.509 27.3852 164.301 26.2959 163.787 24.8693C163.33 23.6008 162.206 22.6186 161.173 21.7632C160.087 20.8633 159.405 19.9014 157.979 19.4399C156.165 18.8532 154.473 18.011 152.713 17.2681C150.322 16.2584 147.875 14.7309 145.213 14.5408C144.159 14.4654 143.169 14.3135 142.082 14.3135Z" fill="#020202"/>
<path d="M66.8017 14.3135C69.048 14.3135 72.4095 15.4553 74.6281 15.6771C74.1017 15.6771 73.6997 16.192 73.3942 16.5848C72.9839 17.1124 72.2546 17.5836 71.745 18.0204C71.1549 18.5263 70.2396 18.5259 69.7636 19.1772C69.3839 19.6968 68.7544 20.0618 68.2746 20.4883C67.5565 21.1266 66.8691 21.7146 66.1093 22.2976C65.0072 23.1435 63.8686 23.9688 62.8762 24.9612C62.4665 25.3709 62.0328 25.7572 61.6245 26.1655C61.0312 26.7587 60.6499 27.647 60.2482 28.3664C59.0552 30.5026 57.9437 32.7886 57.0151 35.0521C56.738 35.7273 56.5096 36.3477 56.1311 36.9505C55.6452 37.7244 55.0954 38.4567 54.6006 39.2285C54.1739 39.8941 53.2481 40.6875 53.165 41.5184C51.7809 41.5184 50.7881 40.7506 49.478 40.5011C48.1549 40.249 46.742 40.3918 45.4375 40.0465C40.4244 38.7195 41.4896 32.5453 42.8364 28.8593C43.375 27.3852 44.583 26.2959 45.0966 24.8693C45.5532 23.6008 46.6778 22.6186 47.7103 21.7632C48.7963 20.8633 49.4783 19.9014 50.9048 19.4399C52.7182 18.8532 54.4105 18.011 56.1701 17.2681C58.5614 16.2584 61.0083 14.7309 63.6703 14.5408C64.7246 14.4654 65.7146 14.3135 66.8017 14.3135Z" fill="#020202"/>
<path fill-rule="evenodd" clip-rule="evenodd" d="M64.4139 12.5911C65.1434 12.5202 65.9952 12.4375 66.8021 12.4375C68.1662 12.4375 69.7687 12.7754 71.1356 13.0815C71.3556 13.1307 71.5702 13.1793 71.7794 13.2267C72.9767 13.4979 73.995 13.7285 74.8152 13.8105C75.8097 13.9099 76.5515 14.7718 76.5017 15.7701C76.4594 16.6193 75.8568 17.3133 75.0626 17.5016C75.0085 17.5648 74.9533 17.6352 74.875 17.7358C74.5272 18.183 74.0962 18.5463 73.7804 18.7995C73.6044 18.9406 73.4716 19.0429 73.3579 19.1304C73.2127 19.2424 73.0987 19.3301 72.966 19.4439C72.6386 19.7245 72.3019 19.9045 72.0392 20.0256C71.8512 20.1123 71.6337 20.1971 71.4953 20.2511C71.4603 20.2647 71.4304 20.2764 71.4073 20.2856C71.3095 20.3246 71.2482 20.3529 71.2129 20.3702C70.8815 20.7988 70.4972 21.1193 70.2207 21.3381C70.0711 21.4564 69.9594 21.5414 69.8668 21.6119C69.7298 21.7161 69.6347 21.7885 69.521 21.8896C68.7865 22.5425 68.0616 23.1634 67.2516 23.785C67.0769 23.919 66.9058 24.0494 66.7382 24.1771C65.7901 24.8993 64.9518 25.5379 64.2028 26.2869C63.9785 26.5112 63.7508 26.726 63.5455 26.9198L63.5374 26.9274C63.3234 27.1294 63.1328 27.3095 62.9511 27.4912C62.8304 27.6118 62.6846 27.8124 62.495 28.1456C62.4031 28.3073 62.3128 28.4781 62.2109 28.6725C62.2021 28.6892 62.1933 28.7062 62.1843 28.7234C62.0937 28.8963 61.9911 29.0923 61.886 29.2804C60.7276 31.3548 59.6492 33.5732 58.7506 35.7635C58.7173 35.8447 58.6828 35.9303 58.6469 36.0194C58.4221 36.5779 58.14 37.2783 57.7199 37.9473C57.4521 38.3738 57.171 38.782 56.9125 39.1561L56.872 39.2146C56.6223 39.5758 56.3946 39.9053 56.1799 40.2402L54.601 39.228L56.1799 40.2402C56.0091 40.5067 55.8095 40.7546 55.6598 40.9376C55.6127 40.9951 55.5695 41.0474 55.5291 41.0965C55.4212 41.2274 55.3328 41.3345 55.2433 41.4514C55.1262 41.6042 55.0617 41.7052 55.0277 41.7705C55.0257 41.7742 55.0239 41.7777 55.0224 41.7808C54.8925 42.7017 54.1032 43.3934 53.1654 43.3934C52.1186 43.3934 51.261 43.0975 50.6257 42.8552C50.4831 42.8008 50.3549 42.7508 50.2374 42.705C49.7771 42.5257 49.4811 42.4103 49.1275 42.343C48.6655 42.255 48.1842 42.228 47.5507 42.1924C47.4836 42.1886 47.4148 42.1848 47.3441 42.1807C46.6646 42.1419 45.8134 42.0855 44.958 41.8591C43.3105 41.423 42.0531 40.5474 41.1977 39.3419C40.3652 38.1688 39.9996 36.807 39.8842 35.5023C39.657 32.9341 40.3621 30.1668 41.0752 28.2152C41.4269 27.2526 41.9796 26.4439 42.3893 25.8442C42.4022 25.8254 42.4149 25.8068 42.4274 25.7884C42.8863 25.1164 43.1704 24.6833 43.3323 24.2336C43.9884 22.4112 45.5381 21.1271 46.5129 20.3195L46.5141 20.3185C46.737 20.1338 46.9463 19.9401 47.1849 19.7165C47.204 19.6985 47.2235 19.6803 47.2432 19.6618C47.4573 19.461 47.7059 19.2278 47.9677 19.0059C48.5692 18.4961 49.3084 17.9848 50.3279 17.655C51.51 17.2725 52.5889 16.7934 53.7701 16.2689C54.3003 16.0335 54.851 15.7889 55.441 15.5398C55.9951 15.3059 56.5599 15.0387 57.1729 14.7478L57.2186 14.7261C57.8062 14.4473 58.4371 14.1479 59.0815 13.8723C60.4 13.3082 61.9009 12.7864 63.5371 12.6695C63.7962 12.651 64.0932 12.6222 64.4139 12.5911ZM55.0112 41.8053C55.0112 41.8053 55.0114 41.8046 55.0121 41.8031C55.0116 41.8045 55.0113 41.8052 55.0112 41.8053ZM75.1613 17.3968C75.1613 17.3969 75.1608 17.3973 75.1597 17.3982C75.1608 17.3973 75.1613 17.3968 75.1613 17.3968ZM65.0337 16.3016C64.6698 16.338 64.2743 16.3774 63.8043 16.411C62.7785 16.4843 61.7249 16.8213 60.5567 17.321C59.9801 17.5676 59.4061 17.84 58.7987 18.1283L58.7809 18.1367C58.1793 18.4221 57.5416 18.7245 56.9 18.9954C56.4483 19.1862 55.9751 19.3961 55.486 19.6131C54.2266 20.172 52.8612 20.7778 51.4825 21.2238C51.0756 21.3555 50.7605 21.5559 50.3928 21.8675C50.2064 22.0255 50.0247 22.1958 49.7953 22.4109C49.7804 22.4249 49.7652 22.4391 49.7499 22.4534C49.5106 22.6777 49.2273 22.9417 48.9073 23.2069C47.8171 24.1102 47.1187 24.7901 46.8616 25.5041L45.097 24.8688L46.8616 25.5041C46.5235 26.4432 45.9775 27.2419 45.5732 27.8333C45.5569 27.8571 45.5409 27.8805 45.5252 27.9036C45.0712 28.5685 44.7743 29.0211 44.5984 29.5025C43.9647 31.2369 43.4638 33.3996 43.6206 35.1718C43.6972 36.0373 43.921 36.6982 44.2567 37.1711C44.5694 37.6117 45.0587 38.0056 45.9178 38.233C46.3669 38.3518 46.8744 38.3968 47.5582 38.4358C47.6266 38.4398 47.6974 38.4436 47.7704 38.4476C48.3656 38.48 49.1058 38.5204 49.8293 38.6582C50.5583 38.7971 51.2393 39.0659 51.7162 39.2542C51.8059 39.2896 51.8884 39.3222 51.9626 39.3505C52.0082 39.3679 52.0522 39.3844 52.095 39.4001C52.1563 39.3143 52.2141 39.2376 52.2654 39.1706C52.4001 38.9947 52.5494 38.8137 52.6672 38.671C52.6999 38.6314 52.7301 38.5948 52.7569 38.562C52.9034 38.383 52.9796 38.2822 53.0221 38.2159C53.2733 37.8239 53.5359 37.4441 53.7771 37.0953C53.7937 37.0712 53.8102 37.0473 53.8267 37.0235C54.0882 36.645 54.325 36.3001 54.5432 35.9527C54.7731 35.5866 54.9199 35.2254 55.1514 34.656C55.1915 34.5572 55.2342 34.4522 55.2803 34.3398C56.239 32.003 57.3836 29.6495 58.6111 27.4515L60.2486 28.3659L58.6111 27.4515C58.6903 27.3098 58.7697 27.1581 58.8654 26.9755L58.8885 26.9314C58.9896 26.7384 59.1071 26.5152 59.2348 26.2907C59.4846 25.8516 59.8261 25.3114 60.2987 24.8388C60.522 24.6155 60.749 24.4013 60.954 24.2079L60.963 24.1994C61.177 23.9975 61.368 23.817 61.5504 23.6346C62.4941 22.6909 63.5612 21.8797 64.5023 21.1643C64.6615 21.0433 64.8171 20.925 64.9679 20.8093C65.6773 20.2648 66.3273 19.7097 67.029 19.086C67.2455 18.8936 67.5332 18.6732 67.7309 18.5218C67.7973 18.471 67.8535 18.4279 67.8934 18.3963C68.1282 18.2106 68.2153 18.1173 68.2498 18.0702C68.8305 17.2755 69.6389 16.9527 70.0156 16.8023L70.0165 16.802C70.0961 16.7702 70.1633 16.7433 70.2201 16.7204C68.8321 16.4112 67.6645 16.1885 66.8021 16.1885C66.1672 16.1885 65.6453 16.2406 65.0337 16.3016ZM138.664 16.7204C138.721 16.7433 138.788 16.7702 138.868 16.802L138.869 16.8023C139.246 16.9527 140.054 17.2755 140.635 18.0702C140.669 18.1173 140.756 18.2106 140.991 18.3963C141.031 18.4279 141.087 18.471 141.153 18.5218C141.351 18.6732 141.639 18.8936 141.855 19.086C142.557 19.7097 143.207 20.2648 143.917 20.8093C144.067 20.925 144.223 21.0433 144.382 21.1643C145.323 21.8797 146.39 22.6909 147.334 23.6346C147.516 23.817 147.707 23.9975 147.921 24.1994L147.931 24.2082C148.136 24.4016 148.363 24.6157 148.586 24.8388C149.058 25.3114 149.4 25.8516 149.65 26.2907C149.777 26.5152 149.895 26.7384 149.996 26.9314L150.019 26.9755C150.115 27.1582 150.194 27.3098 150.273 27.4515C151.501 29.6495 152.645 32.003 153.604 34.3398C153.65 34.4522 153.693 34.5572 153.733 34.656C153.965 35.2254 154.111 35.5866 154.341 35.9527C154.559 36.3001 154.796 36.645 155.058 37.0235L155.107 37.0954C155.349 37.4442 155.611 37.824 155.862 38.2159C155.905 38.2822 155.981 38.383 156.127 38.562C156.154 38.5948 156.185 38.6314 156.217 38.671C156.335 38.8138 156.484 38.9947 156.619 39.1706C156.67 39.2376 156.728 39.3143 156.789 39.4001C156.832 39.3844 156.876 39.3678 156.922 39.3505C156.996 39.3222 157.079 39.2896 157.168 39.2542C157.645 39.0659 158.326 38.7971 159.055 38.6582C159.779 38.5204 160.519 38.48 161.114 38.4476C161.187 38.4436 161.258 38.4398 161.326 38.4358C162.01 38.3968 162.517 38.3518 162.967 38.233C163.826 38.0056 164.315 37.6117 164.628 37.1711C164.963 36.6982 165.187 36.0373 165.264 35.1718C165.421 33.3996 164.92 31.2369 164.286 29.5025C164.11 29.0211 163.813 28.5685 163.359 27.9036C163.343 27.8805 163.327 27.8571 163.311 27.8333C162.907 27.2419 162.361 26.4432 162.023 25.5041C161.766 24.7901 161.067 24.1102 159.977 23.2069C159.657 22.9417 159.374 22.6777 159.135 22.4534L159.089 22.4105C158.859 22.1956 158.678 22.0254 158.492 21.8675C158.124 21.5559 157.809 21.3555 157.402 21.2238C156.023 20.7778 154.658 20.172 153.398 19.6131C152.909 19.3961 152.436 19.1862 151.984 18.9954C151.343 18.7245 150.705 18.4221 150.103 18.1367L150.086 18.1283C149.478 17.84 148.904 17.5676 148.328 17.321C147.159 16.8213 146.106 16.4843 145.08 16.411C144.61 16.3774 144.215 16.338 143.851 16.3016C143.239 16.2406 142.717 16.1885 142.082 16.1885C141.22 16.1885 140.052 16.4112 138.664 16.7204ZM137.749 13.0815C139.116 12.7754 140.718 12.4375 142.082 12.4375C142.889 12.4375 143.741 12.5202 144.471 12.5911C144.791 12.6222 145.088 12.651 145.347 12.6695C146.983 12.7864 148.484 13.3082 149.803 13.8723C150.447 14.1479 151.078 14.4472 151.666 14.726L151.712 14.7478C152.324 15.0387 152.889 15.3059 153.443 15.5398C154.033 15.7889 154.584 16.0335 155.114 16.2689C156.296 16.7934 157.374 17.2725 158.557 17.655C159.576 17.9848 160.315 18.4961 160.917 19.0059C161.179 19.2279 161.427 19.4613 161.642 19.6622L161.699 19.7165C161.938 19.9401 162.147 20.1338 162.37 20.3185L162.371 20.3195C163.346 21.1271 164.896 22.4112 165.552 24.2336C165.714 24.6833 165.998 25.1164 166.457 25.7884L166.495 25.8441C166.905 26.4438 167.457 27.2526 167.809 28.2152C168.522 30.1668 169.227 32.9341 169 35.5023C168.885 36.807 168.519 38.1688 167.687 39.3419C166.831 40.5474 165.574 41.423 163.926 41.8591C163.071 42.0855 162.22 42.1419 161.54 42.1807C161.47 42.1848 161.401 42.1886 161.334 42.1924C160.7 42.228 160.219 42.255 159.757 42.343C159.403 42.4103 159.107 42.5257 158.647 42.705C158.529 42.7508 158.401 42.8008 158.259 42.8552C157.623 43.0975 156.766 43.3934 155.719 43.3934C154.781 43.3934 153.992 42.7017 153.862 41.7808C153.86 41.7777 153.859 41.7742 153.857 41.7705C153.823 41.7052 153.758 41.6042 153.641 41.4514C153.552 41.3345 153.463 41.2273 153.355 41.0964C153.315 41.0474 153.272 40.995 153.225 40.9376C153.075 40.7546 152.875 40.5067 152.704 40.2402L154.283 39.228L152.704 40.2402C152.49 39.9052 152.262 39.5756 152.012 39.2142L151.972 39.1561C151.713 38.782 151.432 38.3738 151.165 37.9473C150.744 37.2783 150.462 36.5779 150.237 36.0195C150.202 35.9303 150.167 35.8447 150.134 35.7635C149.235 33.5732 148.157 31.3548 146.998 29.2804C146.893 29.0924 146.791 28.8966 146.7 28.7237L146.674 28.6725C146.572 28.4781 146.481 28.3073 146.389 28.1456C146.2 27.8124 146.054 27.6118 145.933 27.4912C145.752 27.3095 145.561 27.1294 145.347 26.9274L145.339 26.9202C145.134 26.7263 144.906 26.5114 144.682 26.2869C143.933 25.5379 143.094 24.8993 142.146 24.1771C141.979 24.0494 141.807 23.919 141.633 23.785C140.823 23.1634 140.098 22.5425 139.363 21.8896C139.25 21.7885 139.155 21.7161 139.018 21.6119C138.925 21.5414 138.813 21.4564 138.664 21.3381C138.387 21.1193 138.003 20.7988 137.671 20.3702C137.636 20.3529 137.575 20.3246 137.477 20.2856C137.454 20.2764 137.424 20.2647 137.389 20.2511C137.251 20.1971 137.033 20.1123 136.845 20.0256C136.583 19.9045 136.246 19.7245 135.918 19.4439C135.786 19.3301 135.672 19.2424 135.526 19.1305C135.413 19.0429 135.28 18.9406 135.104 18.7995C134.788 18.5463 134.357 18.183 134.009 17.7358C133.931 17.6352 133.876 17.5648 133.822 17.5016C133.028 17.3133 132.425 16.6193 132.383 15.7701C132.333 14.7718 133.075 13.9099 134.069 13.8105C134.889 13.7285 135.908 13.4979 137.105 13.2267C137.314 13.1793 137.529 13.1307 137.749 13.0815ZM134.256 17.5522C134.252 17.5522 134.249 17.5522 134.245 17.5521L134.256 17.5522Z" fill="#020202"/>
<path d="M95.5135 71.7175C94.525 71.5792 93.4936 71.5087 92.4946 71.5087C92.4946 72.2761 92.6573 74.3056 92.9849 75.0224C93.1779 75.4446 93.3038 75.8536 93.5569 76.248C94.086 77.0728 94.8312 77.7053 95.3954 78.4951C96.3948 79.8942 98.3336 80.873 100.048 80.4971C100.558 80.3855 101.048 80.4038 101.528 80.1702C101.924 79.9778 102.309 79.7424 102.685 79.5128L102.709 79.4984C103.589 78.9607 104.628 78.3963 105.36 77.6644C106.907 76.1174 107.376 73.926 107.607 71.8447C107.626 71.6697 107.965 71.2507 107.725 71.0638C107.528 70.9109 106.807 71.0266 106.622 71.0548C105.146 71.2787 103.671 71.5904 102.173 71.5904H98.6685C98.1936 71.5904 97.7414 71.7399 97.2703 71.7947C96.6692 71.8646 96.1089 71.8009 95.5135 71.7175Z" fill="#FF8349"/>
<path d="M92.4946 71.5087V69.6332C91.4588 69.6332 90.6191 70.4729 90.6191 71.5087H92.4946ZM95.5135 71.7175L95.7735 69.8602L95.5135 71.7175ZM97.2703 71.7947L97.4869 73.6577L97.2703 71.7947ZM106.622 71.0548L106.34 69.2005L106.622 71.0548ZM107.725 71.0638L108.876 69.5834L108.876 69.5834L107.725 71.0638ZM107.607 71.8447L105.743 71.6375V71.6375L107.607 71.8447ZM105.36 77.6644L106.686 78.9906L106.686 78.9906L105.36 77.6644ZM102.709 79.4984L101.731 77.8981L101.731 77.8981L102.709 79.4984ZM102.685 79.5128L101.707 77.9125L101.707 77.9125L102.685 79.5128ZM101.528 80.1702L100.708 78.4835L100.708 78.4835L101.528 80.1702ZM100.048 80.4971L99.647 78.6651L99.647 78.6651L100.048 80.4971ZM93.5569 76.248L95.1355 75.2354H95.1355L93.5569 76.248ZM92.9849 75.0224L94.6906 74.2426L94.6906 74.2426L92.9849 75.0224ZM92.4946 73.3842C93.4084 73.3842 94.3529 73.4489 95.2534 73.5749L95.7735 69.8602C94.6971 69.7095 93.5788 69.6332 92.4946 69.6332V73.3842ZM95.2534 73.5749C95.861 73.66 96.6281 73.7575 97.4869 73.6577L97.0536 69.9318C96.7103 69.9717 96.3568 69.9418 95.7735 69.8602L95.2534 73.5749ZM97.4869 73.6577C97.8128 73.6198 98.16 73.5448 98.3202 73.5142C98.5293 73.4742 98.6168 73.4659 98.6685 73.4659V69.7149C98.2453 69.7149 97.8693 69.7814 97.6158 69.8299C97.3134 69.8877 97.1989 69.9149 97.0536 69.9318L97.4869 73.6577ZM98.6685 73.4659H102.173V69.7149H98.6685V73.4659ZM102.173 73.4659C103.858 73.4659 105.573 73.1109 106.903 72.909L106.34 69.2005C104.72 69.4465 103.483 69.7149 102.173 69.7149V73.4659ZM106.903 72.909C107.011 72.8927 107.152 72.8711 107.279 72.8637C107.345 72.8598 107.346 72.864 107.301 72.8594C107.277 72.8569 107.203 72.8482 107.1 72.818C107.047 72.8022 106.973 72.777 106.887 72.7369C106.802 72.6971 106.692 72.6362 106.573 72.5443L108.876 69.5834C108.386 69.2016 107.844 69.1446 107.69 69.1285C107.449 69.1034 107.221 69.1096 107.06 69.1191C106.731 69.1383 106.419 69.1886 106.34 69.2005L106.903 72.909ZM106.573 72.5443C106.375 72.3902 106.203 72.1818 106.086 71.9292C105.974 71.6847 105.94 71.4571 105.936 71.2871C105.932 71.1224 105.954 70.996 105.971 70.9259C105.987 70.854 106.005 70.8061 106.011 70.7914C106.012 70.788 106.022 70.764 105.964 70.8911C105.944 70.9329 105.906 71.0164 105.87 71.1131C105.84 71.1953 105.77 71.3892 105.743 71.6375L109.471 72.0518C109.448 72.2564 109.394 72.3989 109.385 72.4239C109.37 72.4636 109.36 72.4842 109.371 72.4591C109.374 72.4526 109.458 72.2794 109.516 72.126C109.572 71.9785 109.696 71.6293 109.685 71.193C109.672 70.6641 109.455 70.0331 108.876 69.5834L106.573 72.5443ZM105.743 71.6375C105.517 73.6691 105.092 75.2797 104.034 76.3382L106.686 78.9906C108.721 76.9551 109.234 74.183 109.471 72.0518L105.743 71.6375ZM104.034 76.3382C103.506 76.8656 102.753 77.2734 101.731 77.8981L103.687 81.0987C104.424 80.648 105.749 79.9271 106.686 78.9906L104.034 76.3382ZM101.731 77.8981L101.707 77.9125L103.663 81.1131L103.687 81.0987L101.731 77.8981ZM101.707 77.9125C101.317 78.1506 101.009 78.3373 100.708 78.4835L102.348 81.857C102.839 81.6184 103.301 81.3342 103.663 81.1131L101.707 77.9125ZM100.708 78.4835C100.714 78.4809 100.684 78.4991 100.509 78.5265C100.402 78.5432 100.332 78.5511 100.165 78.5746C100.024 78.5946 99.8432 78.6221 99.647 78.6651L100.45 82.3291C100.64 82.2874 100.683 82.2959 101.089 82.2323C101.407 82.1825 101.863 82.0932 102.348 81.857L100.708 78.4835ZM99.647 78.6651C98.8254 78.8451 97.5887 78.339 96.9216 77.405L93.8693 79.5853C95.2009 81.4495 97.8418 82.9008 100.45 82.3291L99.647 78.6651ZM96.9216 77.405C96.5647 76.9054 96.1538 76.4607 95.8589 76.1321C95.5353 75.7715 95.3097 75.5069 95.1355 75.2354L91.9783 77.2607C92.3332 77.8139 92.7447 78.278 93.0671 78.6372C93.4182 79.0285 93.6619 79.295 93.8693 79.5853L96.9216 77.405ZM95.1355 75.2354C95.0909 75.1659 95.0437 75.0741 94.9733 74.9092C94.9272 74.8013 94.7945 74.4698 94.6906 74.2426L91.2792 75.8021C91.3683 75.9972 91.3951 76.0813 91.5235 76.382C91.6276 76.6258 91.7698 76.9357 91.9783 77.2607L95.1355 75.2354ZM94.6906 74.2426C94.7005 74.2641 94.6623 74.1737 94.6083 73.9069C94.5604 73.6703 94.5166 73.3797 94.4795 73.0651C94.4043 72.4263 94.3701 71.8023 94.3701 71.5087H90.6191C90.6191 71.9824 90.6663 72.757 90.7543 73.5039C90.8319 74.1633 90.9751 75.137 91.2792 75.8021L94.6906 74.2426Z" fill="#FF8349"/>
<path opacity="0.2" d="M80.2053 61.6579C80.5617 62.174 80.8924 62.7095 81.2354 63.2346C81.6232 63.4389 82.2517 63.9388 82.2822 64.3631C82.302 64.6393 82.2858 64.9031 82.2463 65.1578C82.2352 65.2292 82.4102 65.5432 82.4484 65.625C82.5476 65.8375 82.6226 66.0146 82.6901 66.2431C82.7839 66.5605 83.0197 66.8265 83.0739 67.1614C83.1259 67.4825 83.4344 67.6874 83.5293 67.9936C83.6172 68.2777 83.5298 69.9865 83.5332 70.2702C83.411 70.4912 83.4412 70.6188 83.5152 70.8517C83.6667 71.3281 83.5917 71.8283 83.7162 72.302C83.8196 72.6954 83.8058 73.1842 83.824 73.5873C83.8661 74.5218 83.486 75.4078 83.2787 76.3138C83.0448 77.3364 82.4763 78.1164 81.9307 78.9895C81.7848 79.223 81.4603 79.4124 81.2567 79.5968C80.9431 79.8809 80.6086 80.1809 80.3257 80.4949C79.9685 80.8914 79.5469 81.282 79.1618 81.6531C78.4269 82.3614 77.713 83.0417 76.8547 83.6025L75.0267 84.7968C74.5462 85.1107 74.0947 85.2179 73.5812 85.4563C73.177 85.6439 72.6568 85.7752 72.2182 85.8359C71.7757 85.8972 71.3518 86.1122 70.8943 86.1704C70.2573 86.2514 69.5141 86.1475 68.8745 86.041C68.7867 86.0263 68.3584 85.9343 68.3621 85.9484C68.363 85.9517 68.0907 86.0327 68.0568 86.0299C67.4677 85.9813 66.8907 85.7996 66.2846 85.7683C65.8617 85.7464 65.2632 85.795 64.861 85.6718C64.5971 85.5909 64.3469 85.4487 64.0826 85.36C63.4308 85.1412 62.8319 84.7669 62.1493 84.6338C61.6522 84.5368 61.2082 84.4552 60.7455 84.2444C59.9614 83.8871 59.2689 83.2449 58.6205 82.6758C58.2498 82.3505 57.8977 81.9649 57.4983 81.6799C57.2874 81.5294 56.9788 81.3767 56.806 81.1842C56.5836 80.9363 56.6025 80.6464 56.3376 80.4145C55.7238 79.8772 55.1816 79.6721 54.7356 78.9895C54.4988 78.6271 54.2354 77.3357 53.9377 77.0268C53.8241 76.9089 53.655 76.9026 53.5386 76.7768C53.4067 76.6342 53.309 76.4644 53.1767 76.3206C52.9017 76.0217 52.6992 75.6574 52.4777 75.3184C52.2344 74.946 52.1471 74.6824 52.2253 74.2554C52.2909 73.8969 52.1447 73.9589 52.0965 73.6072C52.0227 73.0693 51.9125 72.5349 51.9793 71.9843C52.026 71.5993 52.0918 71.2897 52.2513 70.9421C52.3355 70.7586 52.485 70.754 52.4603 70.5403C52.4219 70.2082 52.4924 69.7353 52.5609 69.4087C52.7231 68.6352 53.0289 67.9101 53.2445 67.1545C53.3929 66.6347 53.5165 66.0638 53.7166 65.569C54.2318 64.295 54.9432 63.1138 55.7333 61.987C56.0109 61.5911 56.3129 61.3923 56.7153 61.1294C57.3781 60.6963 58.0332 60.2482 58.705 59.8294C59.0077 59.6407 59.3638 59.5759 59.6673 59.3776L60.3214 58.9502C60.682 58.7146 61.0255 58.4171 61.4561 58.3415C61.9287 58.2585 62.4031 58.0612 62.8596 57.9109C63.0979 57.8324 63.3667 57.8455 63.5545 57.6288C63.6213 57.5517 63.3844 57.401 63.4682 57.3462C63.5774 57.2749 63.7359 57.4172 63.8605 57.3453C64.1555 57.1752 64.4126 56.9197 64.7547 56.8495C64.9741 56.8046 65.3489 56.8083 65.5691 56.848C65.7711 56.8843 65.9139 56.7967 66.1124 56.8074C66.3674 56.8212 66.6233 56.8655 66.8806 56.8556C67.3819 56.8364 67.8482 56.8458 68.3471 56.762C68.6761 56.7068 69.0059 56.6733 69.3391 56.664C69.653 56.6553 70.0804 56.5164 70.3846 56.5802C70.9083 56.69 71.4496 56.6921 71.9841 56.773C72.7156 56.8837 73.5023 56.9898 74.2074 57.2214C74.709 57.3861 75.1862 57.7117 75.678 57.9159C75.8314 57.9797 75.9942 58.0047 76.1325 58.1004C76.7813 58.5492 77.7922 58.7805 78.2942 59.4093C78.9059 60.1756 79.6445 60.8458 80.2053 61.6579Z" fill="#F4AEC9" stroke="#F4AEC9" stroke-width="1.48066" stroke-linecap="round"/>
<path opacity="0.2" d="M143.813 61.6579C144.17 62.174 144.5 62.7095 144.843 63.2346C145.231 63.4389 145.86 63.9388 145.89 64.3631C145.91 64.6393 145.894 64.9031 145.854 65.1578C145.843 65.2292 146.018 65.5432 146.056 65.625C146.155 65.8375 146.231 66.0146 146.298 66.2431C146.392 66.5605 146.628 66.8265 146.682 67.1614C146.734 67.4825 147.042 67.6874 147.137 67.9936C147.225 68.2777 147.138 69.9865 147.141 70.2702C147.019 70.4912 147.049 70.6188 147.123 70.8517C147.275 71.3281 147.2 71.8283 147.324 72.302C147.427 72.6954 147.414 73.1842 147.432 73.5873C147.474 74.5218 147.094 75.4078 146.887 76.3138C146.653 77.3364 146.084 78.1164 145.539 78.9895C145.393 79.223 145.068 79.4124 144.865 79.5968C144.551 79.8809 144.216 80.1809 143.934 80.4949C143.576 80.8914 143.155 81.282 142.77 81.6531C142.035 82.3614 141.321 83.0417 140.463 83.6025L138.635 84.7968C138.154 85.1107 137.703 85.2179 137.189 85.4563C136.785 85.6439 136.265 85.7752 135.826 85.8359C135.384 85.8972 134.96 86.1122 134.502 86.1704C133.865 86.2514 133.122 86.1475 132.482 86.041C132.395 86.0263 131.966 85.9343 131.97 85.9484C131.971 85.9517 131.699 86.0327 131.665 86.0299C131.076 85.9813 130.499 85.7996 129.893 85.7683C129.47 85.7464 128.871 85.795 128.469 85.6718C128.205 85.5909 127.955 85.4487 127.691 85.36C127.039 85.1412 126.44 84.7669 125.757 84.6338C125.26 84.5368 124.816 84.4552 124.353 84.2444C123.569 83.8871 122.877 83.2449 122.228 82.6758C121.858 82.3505 121.506 81.9649 121.106 81.6799C120.895 81.5294 120.587 81.3767 120.414 81.1842C120.192 80.9363 120.21 80.6464 119.946 80.4145C119.332 79.8772 118.79 79.6721 118.344 78.9895C118.107 78.6271 117.843 77.3357 117.546 77.0268C117.432 76.9089 117.263 76.9026 117.146 76.7768C117.015 76.6342 116.917 76.4644 116.785 76.3206C116.51 76.0217 116.307 75.6574 116.086 75.3184C115.842 74.946 115.755 74.6824 115.833 74.2554C115.899 73.8969 115.753 73.9589 115.704 73.6072C115.631 73.0693 115.52 72.5349 115.587 71.9843C115.634 71.5993 115.7 71.2897 115.859 70.9421C115.943 70.7586 116.093 70.754 116.068 70.5403C116.03 70.2082 116.1 69.7353 116.169 69.4087C116.331 68.6352 116.637 67.9101 116.852 67.1545C117.001 66.6347 117.124 66.0638 117.325 65.569C117.84 64.295 118.551 63.1138 119.341 61.987C119.619 61.5911 119.921 61.3923 120.323 61.1294C120.986 60.6963 121.641 60.2482 122.313 59.8294C122.616 59.6407 122.972 59.5759 123.275 59.3776L123.929 58.9502C124.29 58.7146 124.633 58.4171 125.064 58.3415C125.537 58.2585 126.011 58.0612 126.467 57.9109C126.706 57.8324 126.975 57.8455 127.162 57.6288C127.229 57.5517 126.992 57.401 127.076 57.3462C127.185 57.2749 127.344 57.4172 127.468 57.3453C127.763 57.1752 128.02 56.9197 128.363 56.8495C128.582 56.8046 128.957 56.8083 129.177 56.848C129.379 56.8843 129.522 56.7967 129.72 56.8074C129.975 56.8212 130.231 56.8655 130.489 56.8556C130.99 56.8364 131.456 56.8458 131.955 56.762C132.284 56.7068 132.614 56.6733 132.947 56.664C133.261 56.6553 133.688 56.5164 133.993 56.5802C134.516 56.69 135.057 56.6921 135.592 56.773C136.323 56.8837 137.11 56.9898 137.815 57.2214C138.317 57.3861 138.794 57.7117 139.286 57.9159C139.439 57.9797 139.602 58.0047 139.74 58.1004C140.389 58.5492 141.4 58.7805 141.902 59.4093C142.514 60.1756 143.252 60.8458 143.813 61.6579Z" fill="#F4AEC9" stroke="#F4AEC9" stroke-width="1.48066" stroke-linecap="round"/>
<path d="M72.3169 100.19C73.5195 100.964 75.3105 101.43 76.6713 101.925C78.624 102.635 80.5313 103.493 82.5783 103.902C83.3993 104.066 84.1027 104.497 84.9071 104.678C85.8336 104.887 86.7839 104.9 87.7211 105.115C89.6208 105.551 91.762 105.84 93.713 105.867C99.2051 105.943 104.704 105.867 110.197 105.867C113.467 105.867 116.775 104.865 119.9 104.023C121.43 103.611 122.971 103.271 124.449 102.762C125.886 102.266 126.674 101.719 128.209 101.719" stroke="#020202" stroke-width="3.751" stroke-linecap="round"/>
<path d="M98.4746 62.5788C98.7047 62.5666 98.9188 62.4812 99.1396 62.424C99.4321 62.3481 99.7343 62.3572 100.026 62.2938C100.405 62.2113 100.837 62.1988 101.226 62.1988C101.337 62.1988 101.888 62.141 101.845 62.2762C101.728 62.6431 101.44 62.8637 101.233 63.1628C101.02 63.4701 100.514 64.0353 100.153 64.0353C99.5494 64.0353 99.1552 63.2831 98.8546 62.8321" stroke="#020202" stroke-width="3.751" stroke-linecap="round"/>
<path d="M181.201 3.35059C181.828 7.2088 182.171 11.3577 183.448 15.0974C183.49 15.2201 183.817 15.7914 183.71 15.7132C183.117 15.2782 182.59 14.8052 182.04 14.3199C181.046 13.4435 179.669 13.3278 178.776 14.3584C177.913 15.3536 176.624 16.6278 176.482 17.9763C176.442 18.3535 176.089 19.5318 176.413 19.8392C176.754 20.1631 177.83 19.9777 178.275 19.9777C180.111 19.9777 180.969 19.3502 182.14 17.9763C182.554 17.4895 184.52 15.4634 183.802 14.6355C183.532 14.3229 180.74 16.3361 180.508 16.6061C180.095 17.0863 179.756 17.3718 179.684 18.0225C179.672 18.1284 179.676 18.7434 179.676 18.5921" stroke="#020202" stroke-width="2.90251" stroke-linecap="round"/>
<path d="M27.8428 13.7622C27.5485 12.9085 27.3313 12.0762 26.6395 11.4628C25.8921 10.8 24.9098 10.4835 23.9659 10.2306C23.1369 10.0085 22.5921 10.0663 21.7107 10.1994C21.3382 10.2557 20.7338 10.2837 20.4208 10.5223C20.1223 10.75 20.2577 11.3136 20.2792 11.621C20.3179 12.1722 20.3465 12.7268 20.3699 13.2785C20.4442 15.0249 20.7715 16.9313 20.5076 18.6639C20.3838 19.4768 20.4108 20.284 20.3383 21.0779C20.2807 21.709 20.1501 21.6789 19.4705 21.9819C18.3895 22.4638 17.315 23.0038 16.1888 23.3757C15.3495 23.6528 14.4986 23.741 13.9263 24.5125C13.5312 25.045 13.4019 25.6319 13.2322 26.2653C13.0864 26.8092 12.9975 27.233 13.3641 27.7333C13.9846 28.58 15.7904 27.5691 16.4441 27.2883C16.7336 27.164 17.0467 27.1415 17.3338 27.0157C17.7489 26.8338 17.9691 26.613 18.2958 26.2945C18.7578 25.8442 19.1424 25.3565 19.4989 24.8166C19.7614 24.419 19.8391 23.9702 20.0646 23.5785C20.0942 23.5271 20.6743 22.4364 20.5207 22.4113C20.3298 22.3801 19.7918 22.7467 19.6365 22.8239C19.09 23.0951 18.5567 23.3741 18.0179 23.6604C17.5234 23.9232 16.6364 24.29 16.4375 24.8893C16.2646 25.4098 15.8555 25.7135 15.5108 26.1022" stroke="#020202" stroke-width="2.90251" stroke-linecap="round"/>
<path d="M168.18 77.4863C169.505 76.9438 170.795 76.3161 172.221 76.1194C173.145 75.9918 174.115 75.9739 175.047 76.0271C175.818 76.0712 176.494 76.3529 177.249 76.4069C177.397 76.4174 177.701 76.3333 177.727 76.5425C177.838 77.4543 177.749 78.4265 177.749 79.3415C177.749 80.3619 177.806 81.4066 177.683 82.4227C177.475 84.1492 176.869 85.8698 176.523 87.576C176.373 88.3135 176.054 88.9707 175.893 89.6915" stroke="#020202" stroke-width="3.04194" stroke-linecap="round"/>
<path d="M167.016 77.7715C167.317 80.0266 167.649 82.5016 167.229 84.7793C167.156 85.1737 166.987 85.5186 166.922 85.9234C166.838 86.4496 166.743 86.9723 166.655 87.4978" stroke="#020202" stroke-width="3.04194" stroke-linecap="round"/>
<path d="M166.005 87.3342C165.683 87.3185 165.195 87.1888 164.894 87.356C164.776 87.4216 164.707 87.5439 164.608 87.6343C164.245 87.9671 163.828 88.2487 163.468 88.5903C163.154 88.8889 162.977 88.9771 163.004 89.4107C163.07 90.4911 164.865 89.8531 165.438 89.643C165.729 89.5364 165.925 89.0797 166.101 88.8299C166.226 88.6541 166.441 88.4167 166.484 88.2055" stroke="#020202" stroke-width="3.04194" stroke-linecap="round"/>
<path d="M177.004 87.3342C176.682 87.3185 176.194 87.1888 175.893 87.356C175.775 87.4216 175.706 87.5439 175.607 87.6343C175.244 87.9671 174.827 88.2487 174.467 88.5903C174.153 88.8889 173.976 88.9771 174.003 89.4107C174.069 90.4911 175.864 89.8531 176.437 89.643C176.728 89.5364 176.924 89.0797 177.1 88.8299C177.225 88.6541 177.441 88.4167 177.483 88.2055" stroke="#020202" stroke-width="3.04194" stroke-linecap="round"/>
</svg>
