<svg width="130" height="130" viewBox="0 0 130 130" fill="none" xmlns="http://www.w3.org/2000/svg">
<path d="M102.341 119.682C101.719 119.682 101.719 120 101.097 120C100.475 120 100.475 119.765 99.8532 119.765C99.2313 119.765 99.2313 119.964 98.6094 119.964C97.9874 119.964 97.9874 119.861 97.3655 119.861C96.7436 119.861 96.7436 119.901 96.1216 119.901C95.4997 119.901 95.4997 119.977 94.8778 119.977C94.2558 119.977 94.2558 119.838 93.6339 119.838C93.0119 119.838 93.0119 119.696 92.39 119.696C91.7681 119.696 91.7681 119.907 91.1461 119.907C90.5242 119.907 90.5242 119.719 89.9023 119.719C89.2803 119.719 89.2803 119.719 88.6584 119.719C88.0365 119.719 88.0365 119.871 87.4145 119.871C86.7926 119.871 86.7926 119.944 86.1706 119.944C85.5487 119.944 85.5487 119.907 84.9268 119.907C84.3048 119.907 84.3048 119.772 83.6829 119.772C83.061 119.772 83.061 119.735 82.439 119.735C81.8171 119.735 81.8171 119.944 81.1952 119.944C80.5732 119.944 80.5732 119.715 79.9513 119.715C79.3293 119.715 79.3293 119.95 78.7074 119.95C78.0855 119.95 78.0855 119.788 77.4635 119.788C76.8416 119.788 76.8416 119.934 76.2197 119.934C75.5977 119.934 75.5977 119.752 74.9758 119.752C74.3539 119.752 74.3539 119.782 73.7319 119.782C73.11 119.782 73.11 119.828 72.488 119.828C71.8661 119.828 71.8661 119.735 71.2442 119.735C70.6222 119.735 70.6222 119.765 70.0003 119.765C69.3784 119.765 69.3784 119.901 68.7564 119.901C68.1345 119.901 68.1345 119.811 67.5126 119.811C66.8906 119.811 66.8906 119.874 66.2687 119.874C65.6467 119.874 65.6468 119.788 65.0248 119.788C64.4029 119.788 64.4029 119.848 63.7809 119.848C63.159 119.848 63.159 119.894 62.5371 119.894C61.9151 119.894 61.9151 119.864 61.2932 119.864C60.6713 119.864 60.6713 119.778 60.0493 119.778C59.4274 119.778 59.4274 119.861 58.8055 119.861C58.1835 119.861 58.1835 119.742 57.5616 119.742C56.9396 119.742 56.9396 119.805 56.3177 119.805C55.6958 119.805 55.6958 119.739 55.0738 119.739C54.4519 119.739 54.4519 119.874 53.83 119.874C53.208 119.874 53.208 119.838 52.5861 119.838C51.9642 119.838 51.9642 119.818 51.3422 119.818C50.7203 119.818 50.7203 119.719 50.0983 119.719C49.4764 119.719 49.4764 119.805 48.8545 119.805C48.2325 119.805 48.2325 119.94 47.6073 119.94C46.982 119.94 46.9854 119.861 46.3634 119.861C45.7415 119.861 45.7415 119.931 45.1195 119.931C44.4976 119.931 44.4976 119.931 43.8757 119.931C43.2537 119.931 43.2537 119.712 42.6318 119.712C42.0099 119.712 42.0099 119.838 41.3879 119.838C40.766 119.838 40.766 119.811 40.1407 119.811C39.5155 119.811 39.5188 119.901 38.8969 119.901C38.2749 119.901 38.2749 119.682 37.6497 119.682C37.0245 119.682 37.0278 119.881 36.4025 119.881C35.7773 119.881 35.7806 119.874 35.1553 119.874C34.5301 119.874 34.5334 119.719 33.9082 119.719C33.2829 119.719 33.2862 119.924 32.661 119.924C32.0357 119.924 32.039 119.98 31.4138 119.98C30.7885 119.98 30.7919 119.831 30.1666 119.831C29.5414 119.831 29.5414 119.95 28.9194 119.95C28.2975 119.95 28.2942 119.894 27.6723 119.894C27.2521 119.894 26.8287 119.914 26.4185 119.888C26.0082 119.861 25.5848 119.775 25.1746 119.715C24.7644 119.656 24.3442 119.593 23.9373 119.504C23.5304 119.414 23.1401 119.239 22.7431 119.12C22.3461 119.001 21.9888 118.756 21.6018 118.611C21.2147 118.465 20.8409 118.293 20.4637 118.121C20.0866 117.949 19.6069 117.975 19.243 117.777C18.8791 117.578 18.5417 117.317 18.191 117.092C17.8404 116.867 17.4599 116.679 17.1258 116.427C16.7917 116.176 16.6097 115.742 16.2955 115.471C15.9812 115.2 15.5081 115.094 15.2137 114.8C14.9193 114.505 14.6381 114.184 14.3668 113.87C14.0955 113.556 13.8176 113.231 13.5695 112.897C13.3214 112.563 13.242 112.11 13.0171 111.759C12.7921 111.409 12.5341 111.081 12.3356 110.717C12.1371 110.353 11.9651 109.976 11.7897 109.596C11.6144 109.215 11.3001 108.894 11.1512 108.504C11.0024 108.114 10.966 107.684 10.8469 107.283C10.7278 106.883 10.5492 106.496 10.4631 106.086C10.3771 105.676 10.5458 105.229 10.4863 104.812C10.4268 104.395 10.1654 104.015 10.1356 103.595C10.1059 103.175 10.0397 102.761 10.0397 102.341C10.0397 101.719 10.0562 101.719 10.0562 101.097C10.0562 100.475 10.1323 100.475 10.1323 99.8532C10.1323 99.2313 10 99.2346 10 98.6127C10 97.9907 10.2415 97.9907 10.2415 97.3688C10.2415 96.7469 10.2084 96.7469 10.2084 96.1249C10.2084 95.503 10.268 95.503 10.268 94.8811C10.268 94.2591 10.1522 94.2591 10.1522 93.6372C10.1522 93.0152 10.1356 93.0152 10.1356 92.3933C10.1356 91.7714 10.043 91.7714 10.043 91.1494C10.043 90.5275 10.0562 90.5275 10.0562 89.9056C10.0562 89.2836 10.1125 89.2836 10.1125 88.6617C10.1125 88.0398 10.2845 88.0398 10.2845 87.4178C10.2845 86.7959 10.2448 86.7959 10.2448 86.1739C10.2448 85.552 10.0232 85.552 10.0232 84.9301C10.0232 84.3081 10.1919 84.3081 10.1919 83.6862C10.1919 83.0643 10.3176 83.0643 10.3176 82.4423C10.3176 81.8204 10.2514 81.8204 10.2514 81.1985C10.2514 80.5765 10.0198 80.5765 10.0198 79.9546C10.0198 79.3326 10.0893 79.3326 10.0893 78.7107C10.0893 78.0888 10.1323 78.0888 10.1323 77.4668C10.1323 76.8449 10.1522 76.8449 10.1522 76.223C10.1522 75.601 10.1786 75.601 10.1786 74.9791C10.1786 74.3572 10.2944 74.3572 10.2944 73.7352C10.2944 73.1133 10.0562 73.1133 10.0562 72.4913C10.0562 71.8694 10.0629 71.8694 10.0629 71.2475C10.0629 70.6255 10.1654 70.6255 10.1654 70.0036C10.1654 69.3817 10.1654 69.3817 10.1654 68.7597C10.1654 68.1378 10.0331 68.1378 10.0331 67.5159C10.0331 66.8939 10.2878 66.8939 10.2878 66.272C10.2878 65.6501 10.129 65.6501 10.129 65.0281C10.129 64.4062 10.2779 64.4062 10.2779 63.7842C10.2779 63.1623 10.0629 63.1623 10.0629 62.5404C10.0629 61.9184 10.0265 61.9184 10.0265 61.2965C10.0265 60.6746 10.1489 60.6746 10.1489 60.0526C10.1489 59.4307 10.129 59.4307 10.129 58.8088C10.129 58.1868 10.0265 58.1868 10.0265 57.5649C10.0265 56.9429 10.2382 56.9429 10.2382 56.321C10.2382 55.6991 10.1389 55.6991 10.1389 55.0771C10.1389 54.4552 10.2448 54.4552 10.2448 53.8333C10.2448 53.2113 10.0165 53.2113 10.0165 52.5894C10.0165 51.9675 10.129 51.9675 10.129 51.3455C10.129 50.7236 10.0662 50.7236 10.0662 50.1017C10.0662 49.4797 10.2084 49.4797 10.2084 48.8578C10.2084 48.2358 10.043 48.2358 10.043 47.6106C10.043 46.9854 10.1786 46.9887 10.1786 46.3667C10.1786 45.7448 10.129 45.7448 10.129 45.1229C10.129 44.5009 10.043 44.5009 10.043 43.879C10.043 43.257 10.2713 43.257 10.2713 42.6351C10.2713 42.0132 10.1952 42.0132 10.1952 41.3912C10.1952 40.7693 10.0298 40.7693 10.0298 40.1441C10.0298 39.5188 10.0165 39.5221 10.0165 38.9002C10.0165 38.2782 10.225 38.2782 10.225 37.653C10.225 37.0278 10.3143 37.0311 10.3143 36.4058C10.3143 35.7806 10.0529 35.7839 10.0529 35.1586C10.0529 34.5334 10.0926 34.5367 10.0926 33.9115C10.0926 33.2862 10.1952 33.2895 10.1952 32.6643C10.1952 32.039 10.0728 32.0423 10.0728 31.4171C10.0728 30.7919 10.0265 30.7952 10.0265 30.1699C10.0265 29.5447 10.3143 29.5447 10.3143 28.9227C10.3143 28.3008 10.2514 28.2975 10.2514 27.6756C10.2514 27.2554 10.1687 26.8386 10.1985 26.4251C10.2283 26.0115 10.354 25.6046 10.4135 25.1944C10.4731 24.7842 10.3904 24.3409 10.4764 23.934C10.5624 23.5271 10.7013 23.1235 10.8204 22.7265C10.9395 22.3296 11.2273 21.9855 11.3729 21.5951C11.5185 21.2048 11.4788 20.7383 11.6541 20.3579C11.8294 19.9774 12.1735 19.683 12.372 19.3191C12.5704 18.9552 12.7921 18.6079 13.0171 18.2572C13.242 17.9065 13.424 17.5294 13.6721 17.1953C13.9202 16.8611 14.0492 16.4245 14.3238 16.1102C14.5984 15.7959 14.906 15.4982 15.2004 15.2038C15.4949 14.9093 15.9249 14.7538 16.2392 14.4826C16.5535 14.2113 16.8148 13.8673 17.1457 13.6191C17.4765 13.371 17.9231 13.2817 18.2737 13.0568C18.6244 12.8318 18.9883 12.6532 19.3555 12.4514C19.7227 12.2496 19.9774 11.8427 20.3579 11.6673C20.7383 11.492 21.132 11.3497 21.5257 11.2042C21.9193 11.0586 22.3726 11.1248 22.7762 11.009C23.1798 10.8932 23.5635 10.7741 23.9737 10.6848C24.3839 10.5955 24.7578 10.3738 25.1746 10.3143C25.5914 10.2547 26.0082 10.2944 26.4251 10.2647C26.8419 10.2349 27.2521 10.0926 27.6689 10.0926C28.2909 10.0926 28.2909 10.301 28.9128 10.301C29.5348 10.301 29.5348 10.0992 30.1567 10.0992C30.7786 10.0992 30.7786 10.0298 31.4006 10.0298C32.0225 10.0298 32.0225 10.2084 32.6444 10.2084C33.2664 10.2084 33.2664 10.1423 33.8883 10.1423C34.5102 10.1423 34.5102 10.0728 35.1322 10.0728C35.7541 10.0728 35.7541 10.2878 36.3761 10.2878C36.998 10.2878 36.998 10.0662 37.6199 10.0662C38.2419 10.0662 38.2419 10.0132 38.8638 10.0132C39.4857 10.0132 39.4857 10.0629 40.1077 10.0629C40.7296 10.0629 40.723 10 41.3416 10C41.9602 10 41.9636 10.1059 42.5855 10.1059C43.2074 10.1059 43.2074 10.0165 43.8294 10.0165C44.4513 10.0165 44.4513 10.2514 45.0732 10.2514C45.6952 10.2514 45.6952 10.1786 46.3171 10.1786C46.939 10.1786 46.939 10.043 47.561 10.043C48.1829 10.043 48.1829 10.1522 48.8049 10.1522C49.4268 10.1522 49.4268 10.1621 50.0487 10.1621C50.6707 10.1621 50.6707 10.1819 51.2926 10.1819C51.9145 10.1819 51.9145 10.2382 52.5365 10.2382C53.1584 10.2382 53.1584 10.1456 53.7803 10.1456C54.4023 10.1456 54.4023 10.0827 55.0242 10.0827C55.6461 10.0827 55.6461 10.258 56.2681 10.258C56.89 10.258 56.89 10.0728 57.512 10.0728C58.1339 10.0728 58.1339 10.1456 58.7558 10.1456C59.3778 10.1456 59.3778 10.1522 59.9997 10.1522C60.6216 10.1522 60.6216 10.1323 61.2436 10.1323C61.8655 10.1323 61.8655 10.0066 62.4874 10.0066C63.1094 10.0066 63.1094 10.2117 63.7313 10.2117C64.3533 10.2117 64.3533 10.0761 64.9752 10.0761C65.5971 10.0761 65.5971 10.0562 66.2191 10.0562C66.841 10.0562 66.841 10.258 67.4629 10.258C68.0849 10.258 68.0849 10.0662 68.7068 10.0662C69.3287 10.0662 69.3287 10.3044 69.9507 10.3044C70.5726 10.3044 70.5726 10.0165 71.1946 10.0165C71.8165 10.0165 71.8165 10.1191 72.4384 10.1191C73.0604 10.1191 73.0604 10.301 73.6823 10.301C74.3042 10.301 74.3042 10.2713 74.9262 10.2713C75.5481 10.2713 75.5481 10.1654 76.17 10.1654C76.792 10.1654 76.792 10.3209 77.4139 10.3209C78.0359 10.3209 78.0359 10.0794 78.6578 10.0794C79.2797 10.0794 79.2797 10.0695 79.9017 10.0695C80.5236 10.0695 80.5236 10.1191 81.1455 10.1191C81.7675 10.1191 81.7675 10.2018 82.3927 10.2018C83.018 10.2018 83.0146 10.1654 83.6366 10.1654C84.2585 10.1654 84.2585 10.1356 84.8805 10.1356C85.5024 10.1356 85.5024 10.2018 86.1243 10.2018C86.7463 10.2018 86.7463 10.0728 87.3682 10.0728C87.9901 10.0728 87.9901 10.0132 88.6121 10.0132C89.234 10.0132 89.234 10.0331 89.8593 10.0331C90.4845 10.0331 90.4812 10.2845 91.1031 10.2845C91.7251 10.2845 91.7251 10.1522 92.3503 10.1522C92.9755 10.1522 92.9722 10.0728 93.5975 10.0728C94.2227 10.0728 94.2194 10.1985 94.8447 10.1985C95.4699 10.1985 95.4666 10.2944 96.0919 10.2944C96.7171 10.2944 96.7138 10.2283 97.339 10.2283C97.9643 10.2283 97.961 10.0496 98.5862 10.0496C99.2115 10.0496 99.2081 10.1356 99.8334 10.1356C100.459 10.1356 100.459 10.0662 101.081 10.0662C101.703 10.0662 101.706 10.0331 102.328 10.0331C102.748 10.0331 103.151 10.3407 103.565 10.3672C103.979 10.3937 104.402 10.3308 104.812 10.3871C105.222 10.4433 105.623 10.5657 106.03 10.6517C106.437 10.7377 106.876 10.7046 107.273 10.8204C107.67 10.9362 108.054 11.1182 108.445 11.2637C108.835 11.4093 109.212 11.5879 109.589 11.7599C109.966 11.932 110.429 11.9584 110.793 12.1569C111.157 12.3554 111.369 12.8186 111.72 13.0435C112.07 13.2685 112.576 13.2751 112.907 13.5232C113.238 13.7713 113.569 14.0492 113.883 14.3205C114.197 14.5917 114.525 14.8696 114.819 15.1641C115.114 15.4585 115.365 15.8058 115.64 16.1201C115.914 16.4344 116.139 16.795 116.391 17.1291C116.642 17.4632 116.947 17.7643 117.175 18.1149C117.403 18.4656 117.575 18.856 117.777 19.2199C117.979 19.5838 117.962 20.0568 118.134 20.4373C118.306 20.8177 118.634 21.1254 118.779 21.5191C118.925 21.9127 118.872 22.3626 118.988 22.7629C119.103 23.1632 119.229 23.5503 119.319 23.9572C119.408 24.3641 119.457 24.7677 119.517 25.1812C119.577 25.5947 119.894 25.9752 119.924 26.3953C119.954 26.8154 119.765 27.2323 119.765 27.6524C119.765 28.2743 119.808 28.2743 119.808 28.8963C119.808 29.5182 119.914 29.5182 119.914 30.1401C119.914 30.7621 119.828 30.7621 119.828 31.384C119.828 32.006 119.94 32.006 119.94 32.6279C119.94 33.2498 119.94 33.2498 119.94 33.8718C119.94 34.4937 119.917 34.4937 119.917 35.1156C119.917 35.7376 119.878 35.7376 119.878 36.3595C119.878 36.9814 119.715 36.9814 119.715 37.6034C119.715 38.2253 119.722 38.2253 119.722 38.8472C119.722 39.4692 119.831 39.4692 119.831 40.0911C119.831 40.7131 119.669 40.7131 119.669 41.335C119.669 41.9569 119.775 41.9569 119.775 42.5789C119.775 43.2008 119.838 43.2008 119.838 43.8227C119.838 44.4447 119.927 44.4447 119.927 45.0666C119.927 45.6885 119.831 45.6885 119.831 46.3105C119.831 46.9324 119.831 46.9324 119.831 47.5544C119.831 48.1763 119.666 48.1763 119.666 48.7982C119.666 49.4202 119.755 49.4202 119.755 50.0421C119.755 50.664 119.762 50.664 119.762 51.286C119.762 51.9079 119.897 51.9079 119.897 52.5298C119.897 53.1518 119.811 53.1518 119.811 53.7737C119.811 54.3957 119.679 54.3957 119.679 55.0176C119.679 55.6395 119.659 55.6395 119.659 56.2615C119.659 56.8834 119.954 56.8834 119.954 57.5053C119.954 58.1273 119.947 58.1273 119.947 58.7492C119.947 59.3711 119.821 59.3711 119.821 59.9931C119.821 60.615 119.676 60.615 119.676 61.237C119.676 61.8589 119.768 61.8589 119.768 62.4808C119.768 63.1028 119.874 63.1028 119.874 63.7247C119.874 64.3466 119.957 64.3466 119.957 64.9686C119.957 65.5905 119.921 65.5905 119.921 66.2124C119.921 66.8344 119.805 66.8344 119.805 67.4563C119.805 68.0782 119.815 68.0783 119.815 68.7002C119.815 69.3221 119.666 69.3221 119.666 69.9441C119.666 70.566 119.686 70.566 119.686 71.1879C119.686 71.8099 119.964 71.8099 119.964 72.4318C119.964 73.0537 119.858 73.0537 119.858 73.6757C119.858 74.2976 119.921 74.2976 119.921 74.9195C119.921 75.5415 119.888 75.5415 119.888 76.1634C119.888 76.7854 119.759 76.7854 119.759 77.4073C119.759 78.0292 119.931 78.0292 119.931 78.6512C119.931 79.2731 119.841 79.2731 119.841 79.895C119.841 80.517 119.907 80.517 119.907 81.1389C119.907 81.7608 119.672 81.7608 119.672 82.3861C119.672 83.0113 119.838 83.008 119.838 83.63C119.838 84.2519 119.699 84.2519 119.699 84.8738C119.699 85.4958 119.732 85.4958 119.732 86.1177C119.732 86.7396 119.99 86.7396 119.99 87.3616C119.99 87.9835 119.762 87.9835 119.762 88.6055C119.762 89.2274 119.937 89.2274 119.937 89.8526C119.937 90.4779 119.907 90.4746 119.907 91.0965C119.907 91.7184 119.841 91.7184 119.841 92.3437C119.841 92.9689 119.795 92.9656 119.795 93.5909C119.795 94.2161 119.692 94.2128 119.692 94.8381C119.692 95.4633 119.937 95.46 119.937 96.0852C119.937 96.7105 119.689 96.7072 119.689 97.3324C119.689 97.9576 119.835 97.9543 119.835 98.5796C119.835 99.2048 119.755 99.2015 119.755 99.8268C119.755 100.452 119.897 100.452 119.897 101.074C119.897 101.696 119.755 101.699 119.755 102.321C119.755 102.741 119.788 103.155 119.755 103.568C119.722 103.982 119.821 104.419 119.765 104.829C119.709 105.239 119.613 105.659 119.524 106.063C119.434 106.466 119.325 106.88 119.209 107.28C119.094 107.68 118.875 108.054 118.733 108.441C118.591 108.828 118.399 109.205 118.224 109.583C118.048 109.96 117.82 110.31 117.621 110.674C117.423 111.038 117.337 111.475 117.112 111.826C116.887 112.176 116.503 112.414 116.252 112.748C116 113.083 115.818 113.463 115.544 113.777C115.269 114.092 114.995 114.403 114.7 114.697C114.406 114.991 114.158 115.342 113.843 115.613C113.529 115.885 113.215 116.172 112.881 116.421C112.547 116.669 112.173 116.874 111.822 117.099C111.472 117.324 111.137 117.592 110.774 117.79C110.41 117.989 110.039 118.207 109.662 118.379C109.285 118.551 108.842 118.584 108.448 118.73C108.054 118.875 107.651 118.968 107.25 119.087C106.85 119.206 106.473 119.411 106.063 119.5C105.652 119.59 105.216 119.484 104.802 119.543C104.389 119.603 103.985 119.633 103.565 119.663C103.145 119.692 102.745 119.653 102.324 119.653L102.341 119.682Z" fill="#FF80AD"/>
<path d="M98.7799 110.818C98.2519 110.818 98.2519 111.084 97.7239 111.084C97.1959 111.084 97.1959 110.888 96.6714 110.888C96.147 110.888 96.1435 111.053 95.619 111.053C95.0945 111.053 95.091 110.965 94.5665 110.965C94.0421 110.965 94.0386 111 93.5141 111C92.9896 111 92.9861 111.063 92.4581 111.063C91.9302 111.063 91.9302 110.948 91.4022 110.948C90.8742 110.948 90.8742 110.829 90.3462 110.829C89.8183 110.829 89.8183 111.004 89.2903 111.004C88.7623 111.004 88.7623 110.846 88.2343 110.846C87.7064 110.846 87.7064 110.846 87.1819 110.846C86.6574 110.846 86.6539 110.976 86.1294 110.976C85.6049 110.976 85.6014 111.035 85.077 111.035C84.5525 111.035 84.549 111.004 84.0245 111.004C83.5 111.004 83.4965 110.888 82.9686 110.888C82.4406 110.888 82.4406 110.857 81.9126 110.857C81.3846 110.857 81.3846 111.032 80.8567 111.032C80.3287 111.032 80.3287 110.843 79.8007 110.843C79.2727 110.843 79.2727 111.039 78.7448 111.039C78.2168 111.039 78.2168 110.902 77.6888 110.902C77.1608 110.902 77.1608 111.025 76.6329 111.025C76.1049 111.025 76.1049 110.871 75.5769 110.871C75.0489 110.871 75.0489 110.895 74.521 110.895C73.993 110.895 73.993 110.934 73.465 110.934C72.937 110.934 72.937 110.857 72.409 110.857C71.8811 110.857 71.8811 110.881 71.3531 110.881C70.8251 110.881 70.8251 110.997 70.2971 110.997C69.7692 110.997 69.7692 110.923 69.2412 110.923C68.7132 110.923 68.7132 110.976 68.1852 110.976C67.6573 110.976 67.6573 110.902 67.1293 110.902C66.6013 110.902 66.6013 110.951 66.0733 110.951C65.5454 110.951 65.5454 110.99 65.0174 110.99C64.4894 110.99 64.4894 110.965 63.9614 110.965C63.4335 110.965 63.4335 110.895 62.9055 110.895C62.3775 110.895 62.3775 110.965 61.8495 110.965C61.3216 110.965 61.3216 110.864 60.7936 110.864C60.2656 110.864 60.2656 110.916 59.7376 110.916C59.2097 110.916 59.2097 110.86 58.6817 110.86C58.1537 110.86 58.1537 110.972 57.6257 110.972C57.0978 110.972 57.0978 110.941 56.5698 110.941C56.0418 110.941 56.0418 110.923 55.5138 110.923C54.9859 110.923 54.9859 110.839 54.4579 110.839C53.9299 110.839 53.9299 110.913 53.4019 110.913C52.874 110.913 52.874 111.028 52.346 111.028C51.818 111.028 51.818 110.962 51.29 110.962C50.7621 110.962 50.7621 111.021 50.2341 111.021C49.7061 111.021 49.7061 111.021 49.1781 111.021C48.6501 111.021 48.6502 110.839 48.1222 110.839C47.5942 110.839 47.5942 110.944 47.0662 110.944C46.5382 110.944 46.5382 110.923 46.0103 110.923C45.4823 110.923 45.4823 111 44.9543 111C44.4263 111 44.4263 110.818 43.8984 110.818C43.3704 110.818 43.3704 110.983 42.8424 110.983C42.3144 110.983 42.3144 110.979 41.7865 110.979C41.2585 110.979 41.2585 110.85 40.7305 110.85C40.2025 110.85 40.2025 111.021 39.6746 111.021C39.1466 111.021 39.1466 111.067 38.6186 111.067C38.0906 111.067 38.0906 110.941 37.5627 110.941C37.0347 110.941 37.0347 111.039 36.5067 111.039C35.9787 111.039 35.9787 110.99 35.4508 110.99C34.9228 110.99 34.9228 111.021 34.3948 111.021C33.8668 111.021 33.8668 110.99 33.3354 110.99C32.8039 110.99 32.8039 111 32.2759 111C31.7479 111 31.7444 110.937 31.2165 110.937C30.8598 110.937 30.5137 110.818 30.1675 110.787C29.8214 110.755 29.4717 110.7 29.129 110.637C28.7864 110.574 28.3913 110.696 28.0521 110.605C27.713 110.514 27.3808 110.364 27.0486 110.241C26.7164 110.119 26.3633 110.032 26.0451 109.881C25.7269 109.731 25.4962 109.402 25.192 109.224C24.8878 109.046 24.4752 109.028 24.1885 108.825C23.9017 108.623 23.6185 108.392 23.3458 108.165C23.0731 107.937 22.8003 107.7 22.5521 107.448C22.3038 107.196 22.1814 106.825 21.9542 106.553C21.7269 106.28 21.4786 106.032 21.2758 105.742C21.0731 105.451 20.8947 105.147 20.7164 104.843C20.5381 104.539 20.2479 104.287 20.0975 103.965C19.9472 103.644 19.8842 103.284 19.7653 102.948C19.6465 102.612 19.4751 102.294 19.3807 101.952C19.2863 101.609 19.4157 101.221 19.3563 100.871C19.2968 100.521 19.066 100.2 19.0346 99.8432C19.0031 99.4866 18.9437 99.1334 18.9437 98.7768C18.9437 98.2488 18.9577 98.2488 18.9577 97.7209C18.9577 97.1929 19.0206 97.1929 19.0206 96.6685C19.0206 96.144 18.9227 96.1405 18.9227 95.6161C18.9227 95.0916 19.1255 95.0881 19.1255 94.5636C19.1255 94.0392 19.0975 94.0357 19.0975 93.5112C19.0975 92.9868 19.1465 92.9833 19.1465 92.4553C19.1465 91.9274 19.0486 91.9274 19.0486 91.3994C19.0486 90.8715 19.0346 90.8715 19.0346 90.3435C19.0346 89.8155 18.9542 89.8155 18.9542 89.2876C18.9542 88.7596 18.9646 88.7596 18.9646 88.2317C18.9646 87.7037 19.0101 87.7037 19.0101 87.1793C19.0101 86.6548 19.1535 86.6513 19.1535 86.1268C19.1535 85.6024 19.1185 85.5989 19.1185 85.0744C19.1185 84.55 18.9332 84.5465 18.9332 84.022C18.9332 83.4976 19.073 83.4941 19.073 82.9661C19.073 82.4381 19.1779 82.4382 19.1779 81.9102C19.1779 81.3822 19.122 81.3822 19.122 80.8543C19.122 80.3263 18.9262 80.3263 18.9262 79.7984C18.9262 79.2704 18.9856 79.2704 18.9856 78.7425C18.9856 78.2145 19.0206 78.2145 19.0206 77.6866C19.0206 77.1586 19.0381 77.1586 19.0381 76.6306C19.0381 76.1027 19.0591 76.1027 19.0591 75.5747C19.0591 75.0468 19.157 75.0468 19.157 74.5188C19.157 73.9909 18.9577 73.9909 18.9577 73.4629C18.9577 72.935 18.9646 72.935 18.9646 72.407C18.9646 71.879 19.0486 71.879 19.0486 71.3511C19.0486 70.8231 19.0486 70.8231 19.0486 70.2952C19.0486 69.7672 18.9367 69.7672 18.9367 69.2393C18.9367 68.7113 19.15 68.7113 19.15 68.1834C19.15 67.6554 19.0171 67.6554 19.0171 67.1274C19.0171 66.5995 19.1395 66.5995 19.1395 66.0715C19.1395 65.5436 18.9611 65.5436 18.9611 65.0156C18.9611 64.4877 18.9297 64.4877 18.9297 63.9597C18.9297 63.4318 19.0311 63.4318 19.0311 62.9038C19.0311 62.3758 19.0136 62.3758 19.0136 61.8479C19.0136 61.3199 18.9262 61.3199 18.9262 60.792C18.9262 60.264 19.1045 60.264 19.1045 59.7361C19.1045 59.2081 19.0206 59.2081 19.0206 58.6802C19.0206 58.1522 19.1115 58.1522 19.1115 57.6242C19.1115 57.0963 18.9192 57.0963 18.9192 56.5683C18.9192 56.0404 19.0136 56.0404 19.0136 55.5124C19.0136 54.9845 18.9611 54.9845 18.9611 54.4565C18.9611 53.9286 19.08 53.9286 19.08 53.4006C19.08 52.8726 18.9437 52.8726 18.9437 52.3447C18.9437 51.8167 19.0556 51.8167 19.0556 51.2888C19.0556 50.7608 19.0136 50.7608 19.0136 50.2329C19.0136 49.7049 18.9402 49.7049 18.9402 49.177C18.9402 48.649 19.1325 48.649 19.1325 48.1211C19.1325 47.5931 19.0695 47.5931 19.0695 47.0651C19.0695 46.5372 18.9332 46.5372 18.9332 46.0092C18.9332 45.4813 18.9227 45.4813 18.9227 44.9533C18.9227 44.4254 19.0975 44.4254 19.0975 43.8974C19.0975 43.3695 19.1744 43.3695 19.1744 42.8415C19.1744 42.3135 18.9542 42.3135 18.9542 41.7856C18.9542 41.2576 18.9856 41.2576 18.9856 40.7297C18.9856 40.2017 19.073 40.2017 19.073 39.6738C19.073 39.1458 18.9716 39.1458 18.9716 38.6179C18.9716 38.0899 18.9332 38.0899 18.9332 37.5619C18.9332 37.034 19.1744 37.034 19.1744 36.506C19.1744 35.9781 19.122 35.9781 19.122 35.4501C19.122 34.9222 19.0416 34.9222 19.0416 34.3942C19.0416 33.8663 19.1115 33.8663 19.1115 33.3348C19.1115 32.8034 18.9786 32.8034 18.9786 32.2754C18.9786 31.7474 19.0066 31.7439 19.0066 31.216C19.0066 30.8594 19.1639 30.5132 19.1919 30.1636C19.2199 29.8139 19.0905 29.4328 19.15 29.0867C19.2094 28.7405 19.4332 28.4224 19.5241 28.0832C19.615 27.7441 19.7304 27.4119 19.8528 27.0798C19.9751 26.7476 20.0556 26.4015 20.2059 26.0798C20.3563 25.7581 20.3912 25.3735 20.5696 25.0658C20.7479 24.7582 20.9577 24.461 21.1605 24.1743C21.3633 23.8875 21.7024 23.6918 21.9297 23.4225C22.157 23.1533 22.3318 22.8316 22.5835 22.5834C22.8353 22.3352 23.1954 22.2093 23.4682 21.982C23.7409 21.7547 24.0276 21.5659 24.3178 21.3632C24.608 21.1604 24.7899 20.7932 25.0976 20.6149C25.4052 20.4366 25.7304 20.2863 26.0521 20.1359C26.3738 19.9856 26.7619 20.0135 27.0976 19.8912C27.4332 19.7688 27.7514 19.6534 28.0976 19.559C28.4437 19.4646 28.7514 19.2653 29.1046 19.2059C29.4577 19.1464 29.8109 19.1709 30.164 19.1394C30.5172 19.108 30.8633 18.9891 31.22 18.9891C31.7479 18.9891 31.7479 19.1639 32.2759 19.1639C32.8039 19.1639 32.8039 18.9926 33.3284 18.9926C33.8529 18.9926 33.8563 18.9332 34.3808 18.9332C34.9053 18.9332 34.9088 19.0835 35.4333 19.0835C35.9578 19.0835 35.9613 19.0276 36.4857 19.0276C37.0102 19.0276 37.0137 18.9681 37.5417 18.9681C38.0697 18.9681 38.0697 19.1499 38.5976 19.1499C39.1256 19.1499 39.1256 18.9646 39.6536 18.9646C40.1816 18.9646 40.1816 18.9192 40.7095 18.9192C41.2375 18.9192 41.2375 18.9611 41.7655 18.9611C42.2935 18.9611 42.2935 18.9192 42.8179 18.9192C43.3424 18.9192 43.3459 19.0066 43.8704 19.0066C44.3949 19.0066 44.3984 18.9332 44.9229 18.9332C45.4473 18.9332 45.4508 19.129 45.9753 19.129C46.4998 19.129 46.5033 19.066 47.0313 19.066C47.5592 19.066 47.5592 18.9506 48.0872 18.9506C48.6152 18.9506 48.6152 19.0415 49.1432 19.0415C49.6711 19.0415 49.6711 19.052 50.1991 19.052C50.7271 19.052 50.7271 19.066 51.2551 19.066C51.783 19.066 51.783 19.1115 52.311 19.1115C52.839 19.1115 52.839 19.0346 53.367 19.0346C53.8949 19.0346 53.8949 18.9821 54.4229 18.9821C54.9509 18.9821 54.9509 19.129 55.4789 19.129C56.0068 19.129 56.0068 18.9751 56.5348 18.9751C57.0628 18.9751 57.0628 19.0346 57.5908 19.0346C58.1187 19.0346 58.1187 19.0415 58.6467 19.0415C59.1747 19.0415 59.1747 19.0241 59.7027 19.0241C60.2306 19.0241 60.2306 18.9192 60.7586 18.9192C61.2866 18.9192 61.2866 19.0905 61.8146 19.0905C62.3426 19.0905 62.3425 18.9786 62.8705 18.9786C63.3985 18.9786 63.3985 18.9611 63.9265 18.9611C64.4544 18.9611 64.4545 19.129 64.9824 19.129C65.5104 19.129 65.5104 18.9681 66.0384 18.9681C66.5664 18.9681 66.5664 19.1674 67.0943 19.1674C67.6223 19.1674 67.6223 18.9262 68.1503 18.9262C68.6783 18.9262 68.6783 19.0101 69.2062 19.0101C69.7342 19.0101 69.7342 19.1604 70.2622 19.1604C70.7902 19.1604 70.7902 19.136 71.3181 19.136C71.8461 19.136 71.8461 19.0485 72.3741 19.0485C72.9021 19.0485 72.9021 19.1779 73.43 19.1779C73.958 19.1779 73.958 18.9786 74.486 18.9786C75.014 18.9786 75.014 18.9716 75.5419 18.9716C76.0699 18.9716 76.0699 19.0136 76.5979 19.0136C77.1259 19.0136 77.1259 19.0835 77.6538 19.0835C78.1818 19.0835 78.1818 19.0555 78.7098 19.0555C79.2378 19.0555 79.2378 19.0311 79.7657 19.0311C80.2937 19.0311 80.2937 19.087 80.8217 19.087C81.3497 19.087 81.3497 18.9786 81.8776 18.9786C82.4056 18.9786 82.4056 18.9297 82.9336 18.9297C83.4616 18.9297 83.4616 18.9436 83.9895 18.9436C84.5175 18.9436 84.5175 19.1569 85.0455 19.1569C85.5735 19.1569 85.5735 19.045 86.1014 19.045C86.6294 19.045 86.6294 18.9786 87.1574 18.9786C87.6854 18.9786 87.6854 19.0835 88.2133 19.0835C88.7413 19.0835 88.7413 19.1639 89.2693 19.1639C89.7973 19.1639 89.7973 19.108 90.3252 19.108C90.8532 19.108 90.8532 18.9576 91.3812 18.9576C91.9092 18.9576 91.9092 19.0311 92.4371 19.0311C92.9651 19.0311 92.9651 18.9716 93.4931 18.9716C94.0211 18.9716 94.0211 18.9436 94.549 18.9436C95.077 18.9436 95.077 19.1884 95.605 19.1884C96.133 19.1884 96.133 19.094 96.6644 19.094C97.1959 19.094 97.1959 19.1325 97.7239 19.1325C98.2519 19.1325 98.2554 19.0136 98.7833 19.0136C99.14 19.0136 99.4931 19.073 99.8428 19.101C100.192 19.129 100.546 19.1954 100.892 19.2548C101.238 19.3143 101.626 19.2443 101.965 19.3352C102.304 19.4262 102.574 19.7653 102.906 19.8842C103.238 20.0031 103.658 19.9226 103.979 20.0695C104.301 20.2163 104.619 20.3947 104.927 20.573C105.234 20.7513 105.553 20.9331 105.839 21.1359C106.126 21.3387 106.392 21.5974 106.661 21.8247C106.93 22.0519 107.172 22.3247 107.42 22.5764C107.668 22.8281 107.962 23.0484 108.192 23.3176C108.423 23.5869 108.609 23.9015 108.811 24.1917C109.014 24.4819 109.046 24.8805 109.22 25.1882C109.395 25.4959 109.696 25.7336 109.846 26.0553C109.997 26.377 109.979 26.7616 110.102 27.0937C110.224 27.4259 110.346 27.7476 110.437 28.0902C110.528 28.4329 110.584 28.772 110.647 29.1216C110.71 29.4713 110.983 29.7895 111.014 30.1426C111.046 30.4957 110.888 30.8559 110.888 31.2125C110.888 31.7404 110.923 31.7404 110.923 32.2684C110.923 32.7964 111.014 32.7964 111.014 33.3208C111.014 33.8453 110.944 33.8488 110.944 34.3732C110.944 34.8977 111.039 34.9012 111.039 35.4256C111.039 35.9501 111.039 35.9536 111.039 36.4781C111.039 37.0025 111.018 37.006 111.018 37.534C111.018 38.0619 110.986 38.0619 110.986 38.5899C110.986 39.1178 110.85 39.1178 110.85 39.6458C110.85 40.1737 110.857 40.1737 110.857 40.7017C110.857 41.2297 110.948 41.2297 110.948 41.7576C110.948 42.2856 110.811 42.2856 110.811 42.81C110.811 43.3345 110.899 43.338 110.899 43.8624C110.899 44.3869 110.951 44.3904 110.951 44.9149C110.951 45.4393 111.028 45.4428 111.028 45.9673C111.028 46.4917 110.948 46.4952 110.948 47.0232C110.948 47.5511 110.948 47.5511 110.948 48.0791C110.948 48.607 110.811 48.607 110.811 49.135C110.811 49.663 110.888 49.663 110.888 50.1909C110.888 50.7189 110.895 50.7189 110.895 51.2468C110.895 51.7748 111.007 51.7748 111.007 52.3027C111.007 52.8307 110.934 52.8307 110.934 53.3586C110.934 53.8866 110.825 53.8866 110.825 54.4146C110.825 54.9425 110.808 54.9425 110.808 55.4705C110.808 55.9984 111.056 55.9984 111.056 56.5264C111.056 57.0543 111.053 57.0543 111.053 57.5823C111.053 58.1102 110.948 58.1102 110.948 58.6382C110.948 59.1662 110.825 59.1662 110.825 59.6941C110.825 60.2221 110.902 60.2221 110.902 60.75C110.902 61.278 110.993 61.278 110.993 61.8059C110.993 62.3339 111.063 62.3339 111.063 62.8618C111.063 63.3898 111.032 63.3898 111.032 63.9178C111.032 64.4457 110.934 64.4457 110.934 64.9737C110.934 65.5016 110.941 65.5016 110.941 66.0296C110.941 66.5575 110.815 66.5575 110.815 67.0855C110.815 67.6134 110.832 67.6134 110.832 68.1414C110.832 68.6694 111.063 68.6694 111.063 69.1973C111.063 69.7253 110.972 69.7253 110.972 70.2532C110.972 70.7812 111.025 70.7812 111.025 71.3091C111.025 71.8371 110.997 71.8371 110.997 72.365C110.997 72.893 110.888 72.893 110.888 73.421C110.888 73.9489 111.032 73.9489 111.032 74.4769C111.032 75.0048 110.958 75.0048 110.958 75.5328C110.958 76.0607 111.014 76.0607 111.014 76.5887C111.014 77.1166 110.818 77.1166 110.818 77.6446C110.818 78.1725 110.955 78.1726 110.955 78.7005C110.955 79.2285 110.839 79.2285 110.839 79.7564C110.839 80.2844 110.867 80.2844 110.867 80.8123C110.867 81.3403 111.084 81.3403 111.084 81.8682C111.084 82.3962 110.892 82.3962 110.892 82.9241C110.892 83.4521 111.039 83.4521 111.039 83.9801C111.039 84.508 111.014 84.508 111.014 85.036C111.014 85.5639 110.958 85.5639 110.958 86.0919C110.958 86.6198 110.92 86.6198 110.92 87.1478C110.92 87.6758 110.836 87.6758 110.836 88.2037C110.836 88.7317 111.042 88.7317 111.042 89.2596C111.042 89.7876 110.832 89.7876 110.832 90.3155C110.832 90.8435 110.955 90.8435 110.955 91.3714C110.955 91.8994 110.888 91.8994 110.888 92.4273C110.888 92.9553 111.007 92.9553 111.007 93.4833C111.007 94.0112 110.888 94.0112 110.888 94.5392C110.888 95.0671 110.927 95.0671 110.927 95.5951C110.927 96.123 111.046 96.123 111.046 96.6545C111.046 97.1859 111.028 97.1859 111.028 97.7139C111.028 98.2418 111.028 98.2453 111.028 98.7733C111.028 99.1299 110.941 99.4831 110.909 99.8327C110.878 100.182 110.804 100.535 110.745 100.882C110.686 101.228 110.567 101.567 110.476 101.906C110.385 102.245 110.399 102.626 110.276 102.955C110.154 103.284 109.881 103.556 109.731 103.878C109.581 104.2 109.49 104.546 109.315 104.854C109.14 105.161 108.955 105.462 108.752 105.752C108.549 106.042 108.388 106.371 108.161 106.64C107.934 106.909 107.703 107.193 107.455 107.441C107.206 107.689 106.913 107.906 106.64 108.133C106.367 108.36 106.112 108.619 105.822 108.822C105.532 109.025 105.238 109.241 104.93 109.416C104.623 109.591 104.252 109.658 103.93 109.808C103.609 109.958 103.273 110.063 102.937 110.182C102.602 110.301 102.294 110.493 101.951 110.588C101.609 110.682 101.234 110.609 100.885 110.668C100.535 110.727 100.192 110.762 99.8393 110.794C99.4861 110.825 99.1435 110.794 98.7868 110.794L98.7799 110.818Z" fill="#F26798"/>
<path d="M65 56V74" stroke="white" stroke-width="2.4" stroke-linecap="round" stroke-linejoin="round"/>
<path d="M56 65H74" stroke="white" stroke-width="2.4" stroke-linecap="round" stroke-linejoin="round"/>
</svg>
