<svg width="60" height="60" viewBox="0 0 60 60" fill="none" xmlns="http://www.w3.org/2000/svg">
<g clip-path="url(#clip0_875_848)">
<path d="M29.8651 15.4462H24.6983C24.6983 15.4462 22.6077 13.0249 21.9288 9.03721C21.2499 5.0495 22.6615 4.57649 24.2266 4.33351C25.7917 4.09053 27.3008 5.23391 27.3008 5.23391C27.3008 5.23391 29.6722 3.89043 33.0095 5.23396C33.0095 5.23396 35.668 3.79753 37.7977 4.93381C38.8482 5.49837 39.3627 6.41312 39.034 8.03535C38.9125 8.63565 36.9043 13.7096 35.5179 14.7101C34.1315 15.7106 29.8723 15.4462 29.8723 15.4462H29.8651Z" fill="#6ECEFF"/>
<path d="M53.2482 34.6612L53.265 34.8111L53.2735 34.9653L53.3156 35.1131L53.3388 35.2652L53.3409 35.4172L53.3135 35.5713L53.3493 35.7213L53.3304 35.8754L53.3641 36.0254L53.3493 36.1795L53.3725 36.3294L53.3894 36.4815L53.3599 36.6335L53.3957 36.7856L53.3767 36.9376L53.4041 37.0896L53.4146 37.2417L53.383 37.3937V37.5458L53.4041 37.6978L53.3957 37.8498V38.0019L53.3915 38.1539L53.3683 38.306L53.3662 38.458L53.3725 38.61L53.3746 38.7642L53.3114 38.912L53.3493 39.0662L53.3093 39.2161L53.2966 39.3681L53.2798 39.5181L53.284 39.6722L53.2545 39.8221L53.2587 39.9742L53.2124 40.122L53.1702 40.2698L53.1618 40.4219L53.1765 40.5781L53.126 40.7238L53.1091 40.8759L53.0564 41.0216L53.0501 41.1757L53.0122 41.3235L52.9574 41.4671L52.93 41.6171L52.9026 41.767L52.8689 41.9148L52.8774 42.0732L52.8247 42.2168L52.7678 42.3604L52.7278 42.5061L52.7067 42.6581L52.6645 42.8059L52.6287 42.9537L52.5676 43.0931L52.5508 43.2473L52.4707 43.3824L52.4412 43.5323L52.3654 43.6675L52.3042 43.8069L52.2537 43.9483L52.2389 44.1067L52.1631 44.2398L52.1315 44.3918L52.0409 44.5185L51.984 44.6579L51.9397 44.8057L51.8534 44.9345L51.8323 45.0908L51.7501 45.2196L51.6658 45.3463L51.6321 45.5004L51.5647 45.6356L51.472 45.7602L51.3877 45.8869L51.3034 46.0136L51.2402 46.1508L51.1686 46.286L51.118 46.4317L51.0253 46.5541L50.9263 46.6703L50.8757 46.816L50.764 46.9258L50.7071 47.0694L50.5997 47.1792L50.5491 47.3291L50.4248 47.4263L50.3405 47.553L50.2942 47.7071L50.1951 47.8233L50.0898 47.9331L49.9971 48.0513L49.8917 48.1611L49.799 48.2815L49.7316 48.423L49.6136 48.5201L49.4998 48.6236L49.4198 48.7524L49.3229 48.8706L49.2049 48.9678L49.1248 49.0987L49.03 49.217L48.8909 49.2951L48.8109 49.4281L48.6992 49.5316L48.5938 49.6393L48.4822 49.7428L48.3747 49.8484L48.2546 49.9413L48.145 50.0447L48.0481 50.1651L47.9048 50.2327L47.81 50.353L47.6752 50.4269L47.5593 50.5241L47.4687 50.6529L47.3381 50.731L47.2264 50.8345L47.0937 50.9105L46.9904 51.0246L46.8724 51.1175L46.7334 51.185L46.6322 51.3033L46.4995 51.3772L46.3688 51.4553L46.2509 51.5482L46.1097 51.6095L46.0107 51.7341L45.8716 51.7974L45.7367 51.8671L45.623 51.9706L45.4965 52.0529L45.3638 52.1268L45.2437 52.2198L45.1004 52.2747L44.974 52.3549L44.8349 52.4183L44.717 52.5175L44.5674 52.5597L44.4283 52.621L44.3061 52.7118L44.1712 52.7793L44.0385 52.8511L43.8994 52.9124L43.7625 52.9757L43.6319 53.0518L43.5033 53.1362L43.3516 53.1679L43.2168 53.2376L43.0882 53.3178L42.9555 53.3917L42.8186 53.4551L42.6753 53.5079L42.5299 53.5522L42.3972 53.6219L42.2455 53.6536L42.1148 53.7317L41.9673 53.7697L41.8346 53.8457L41.6787 53.8647L41.5375 53.9154L41.4111 54.0105L41.2615 54.04L41.1119 54.0717L40.9728 54.1329L40.8401 54.2089L40.6947 54.2554L40.5409 54.2702L40.3997 54.3272L40.2543 54.3694L40.109 54.4053L39.9636 54.4433L39.8287 54.5236L39.6855 54.57L39.5316 54.5869L39.382 54.6081L39.2367 54.6503L39.0934 54.701L38.9564 54.7749L38.8026 54.7833L38.653 54.8087L38.5097 54.8593L38.3665 54.9058L38.2106 54.9016L38.0673 54.9544L37.9219 54.9987L37.7765 55.0431L37.6227 55.0452L37.4794 55.1001L37.3277 55.1106L37.1844 55.1676L37.037 55.1993L36.8831 55.2057L36.7399 55.2585L36.5882 55.2775L36.4344 55.2753L36.2827 55.2838L36.1394 55.3387L35.9835 55.3324L35.8381 55.3767L35.6864 55.3809L35.541 55.4422L35.3914 55.4675L35.2397 55.4612L35.088 55.476L34.9405 55.5076L34.7888 55.5224L34.6392 55.5372L34.4896 55.5583L34.34 55.5858L34.1904 55.609L34.0408 55.6364L33.8849 55.6111L33.7374 55.6533L33.5836 55.6407L33.434 55.6639L33.2844 55.6977L33.1348 55.7082L32.9789 55.6787L32.8293 55.6829L32.6797 55.7336L32.5259 55.7082L32.3784 55.7589L32.2246 55.7441L32.075 55.7526L31.9233 55.7716L31.7695 55.7399L31.6199 55.7484L31.4682 55.7758L31.3165 55.761L31.1648 55.7695L31.0131 55.7758L30.8614 55.8054L30.7097 55.7821L30.5601 55.818L30.4062 55.7737L30.2545 55.8012L30.1028 55.8159L29.9511 55.8286L29.7994 55.7969L29.6456 55.7927L29.4939 55.8012L29.3422 55.7864L29.1884 55.799L29.0367 55.8012L28.885 55.7906L28.7312 55.7927L28.5795 55.7906L28.4278 55.7653L28.274 55.7821L28.1223 55.7695L27.9727 55.7357L27.821 55.7251L27.6693 55.6956L27.5176 55.685L27.3616 55.723L27.212 55.6871L27.0624 55.666L26.9107 55.647L26.759 55.6428L26.6052 55.6343L26.4577 55.5879L26.3018 55.6048L26.1501 55.5879L26.0005 55.552L25.853 55.5118L25.695 55.5414L25.5433 55.5161L25.3979 55.4591L25.2483 55.4232L25.0966 55.4105L24.9428 55.4042L24.7974 55.3556L24.6394 55.3725L24.4919 55.3218L24.3465 55.2775L24.1885 55.2838L24.041 55.2437L23.8956 55.1993L23.7376 55.2014L23.5901 55.1634L23.4468 55.1043L23.293 55.0959L23.1497 55.0388L23.0023 55.0008L22.8463 54.9945L22.6967 54.9607L22.5471 54.9333L22.4039 54.8805L22.2627 54.8171L22.1068 54.8087L21.9593 54.7685L21.8139 54.7221L21.6706 54.6714L21.5274 54.6144L21.3799 54.5764L21.2261 54.5595L21.0912 54.4814L20.9416 54.4497L20.7983 54.3948L20.6572 54.3399L20.5055 54.3124L20.3706 54.2343L20.2295 54.1815L20.0693 54.1709L19.9324 54.1034L19.787 54.059L19.6458 53.9999L19.5046 53.945L19.3656 53.8774L19.2244 53.8246L19.0875 53.7571L18.9358 53.7212L18.8136 53.624L18.6682 53.5733L18.5186 53.5353L18.3816 53.4678L18.2552 53.3791L18.1056 53.3389L17.9665 53.2819L17.838 53.1975L17.7053 53.1214L17.5725 53.0454L17.4314 52.9884L17.2902 52.9314L17.149 52.8723L17.0121 52.8047L16.8878 52.7139L16.7634 52.6252L16.6349 52.5428L16.479 52.5112L16.3505 52.4288L16.2283 52.3359L16.085 52.2789L15.9649 52.1817L15.8279 52.1163L15.6952 52.0424L15.5898 51.9241L15.4487 51.8608L15.3349 51.7573L15.1937 51.6961L15.0694 51.6074L14.9577 51.5018L14.825 51.4279L14.7112 51.3265L14.5743 51.2547L14.4436 51.1766L14.3193 51.0879L14.2224 50.9633L14.0855 50.8915L13.9738 50.788L13.8621 50.6867L13.7294 50.6064L13.6282 50.4903L13.4913 50.4185L13.3859 50.3087L13.2764 50.2031L13.1521 50.1123L13.0341 50.0173L12.914 49.9244L12.796 49.8251L12.7201 49.6857L12.5747 49.6182L12.4694 49.5063L12.3746 49.388L12.2503 49.2972L12.1344 49.1958L12.0501 49.067L11.9363 48.9657L11.831 48.8559L11.7404 48.7313L11.6392 48.6194L11.5339 48.5096L11.4075 48.4188L11.3211 48.2899L11.2326 48.1653L11.1357 48.0492L11.0493 47.9225L10.9271 47.8275L10.8491 47.6944L10.7395 47.5868L10.6616 47.4558L10.5541 47.346L10.4762 47.2151L10.3919 47.0884L10.2992 46.968L10.2086 46.8456L10.1264 46.7167L10.0379 46.5943L9.95153 46.4697L9.86092 46.3472L9.78718 46.2142L9.68183 46.1001L9.60598 45.9692L9.51959 45.8446L9.42267 45.7264L9.36999 45.5807L9.2815 45.4561L9.1909 45.3336L9.10662 45.2048L9.06448 45.0549L8.99495 44.9197L8.90224 44.7972L8.85167 44.6515L8.75686 44.5291L8.71261 44.3812L8.61148 44.263L8.57566 44.1109L8.4977 43.98L8.45134 43.8343L8.3776 43.6992L8.33125 43.5556L8.26804 43.4162L8.17322 43.2916L8.15004 43.1375L8.06787 43.0065L8.01309 42.8651L7.96041 42.7215L7.9246 42.5736L7.85085 42.4385L7.78975 42.2991L7.74339 42.1534L7.73286 41.9972L7.69072 41.8514L7.63172 41.71L7.58116 41.5664L7.51162 41.4291L7.51584 41.2686L7.43999 41.1335L7.39153 40.9878L7.39574 40.8315L7.33885 40.6879L7.31146 40.538L7.25879 40.3944L7.22297 40.2466L7.17661 40.1009L7.16608 39.9488L7.14079 39.7989L7.13447 39.6448L7.06073 39.5054L7.05651 39.3512L7.04176 39.1992L7.03334 39.0472L6.98488 38.9014L6.99752 38.7452L6.94906 38.5995L6.93431 38.4474L6.89849 38.2996L6.91745 38.1434L6.88585 37.9955L6.89006 37.8414L6.85846 37.6915L6.87953 37.5373L6.87742 37.3874L6.82053 37.2375L6.86478 37.0833L6.86688 36.9313L6.85213 36.7813L6.81421 36.6293L6.84792 36.4772L6.82053 36.3252L6.82685 36.1732L6.82896 36.0211L6.8711 35.8712L6.88795 35.7192L6.89638 35.5692L6.87531 35.4151L6.86688 35.263L6.87531 35.111L6.9322 34.9632L6.90902 34.809L6.92588 34.657L6.94906 34.5071L7.01016 34.3614L7.03544 34.2114L7.04809 34.0594L7.04598 33.9052L7.09865 33.7595L7.1134 33.6075L7.1429 33.4597L7.12815 33.3013L7.18083 33.1577L7.19347 33.0057L7.21032 32.8536L7.24404 32.7037L7.26721 32.5538L7.31989 32.4102L7.36203 32.2624L7.4126 32.1188L7.44841 31.9709L7.47581 31.821L7.4737 31.6648L7.53902 31.5233L7.54534 31.3691L7.60433 31.2255L7.64858 31.0819L7.66965 30.9299L7.71179 30.7821L7.75182 30.6364L7.82135 30.4991L7.85085 30.3471L7.92249 30.2119L7.93302 30.0557L8.02362 29.9247L8.02573 29.7664L8.09948 29.6291L8.13951 29.4834L8.21747 29.3482L8.23432 29.1941L8.32071 29.0632L8.32703 28.9027L8.37971 28.7612L8.4682 28.6324L8.49981 28.4804L8.59883 28.3558L8.60937 28.1974L8.69365 28.0665L8.74422 27.925L8.8306 27.7962L8.87696 27.6505L8.94649 27.5153L8.98441 27.3654L9.07502 27.2387L9.14244 27.1035L9.17615 26.9515L9.26675 26.8269L9.28993 26.6685L9.4016 26.5545L9.45849 26.413L9.53855 26.2842L9.58491 26.1364L9.6713 26.0097L9.70711 25.8555L9.78929 25.7288L9.89464 25.6127L9.96206 25.4754L10.0358 25.3445L10.0927 25.2009L10.1728 25.0721L10.2655 24.9496L10.3118 24.8018L10.4235 24.692L10.4677 24.54L10.5499 24.4112L10.6468 24.2929L10.7227 24.1599L10.828 24.048L10.8891 23.9065L10.9713 23.7777L11.0598 23.6552L11.1378 23.5243L11.2494 23.4166L11.3169 23.2793L11.399 23.1505L11.4875 23.0259L11.6055 22.9245L11.6982 22.8042L11.7635 22.6648L11.8879 22.5677L11.9574 22.4283L12.0396 22.3016L12.1681 22.2087L12.2376 22.0693L12.3619 21.9743L12.4357 21.8391L12.5368 21.7251L12.619 21.5942L12.7201 21.4823L12.8234 21.3704L12.9245 21.2584L13.0509 21.1676L13.1457 21.0473L13.2469 20.9354L13.3606 20.8319L13.4449 20.7052L13.5313 20.5764L13.643 20.4729L13.742 20.3568L13.8537 20.2533L13.978 20.1625L14.077 20.0463L14.1929 19.9492L14.2919 19.8331L14.4141 19.7423L14.5153 19.6282L14.6269 19.5248L14.747 19.4297L14.865 19.3347L14.9641 19.2165L15.0821 19.1214L15.2127 19.0412L15.2949 18.9039L15.4445 18.8469L15.5393 18.7223L15.6552 18.6231L15.7647 18.5175L15.8848 18.4267L16.0134 18.3443L16.1229 18.2345L16.243 18.1437L16.3673 18.0571L16.4937 17.9706L16.6223 17.8903L16.7508 17.808L16.873 17.7193L16.9763 17.6031L17.1216 17.544L17.2291 17.4321L17.3555 17.3497L17.5009 17.2927L17.6315 17.2167L17.7495 17.1196L17.8591 17.0098L18.0045 16.9549L18.1288 16.8683L18.2721 16.8113L18.3964 16.7226L18.5186 16.6339L18.6513 16.5579L18.7735 16.4671L18.9126 16.4058L19.0453 16.3298L19.1738 16.2517L19.3213 16.2052L19.4499 16.1229L19.5742 16.0321L19.7238 15.994L19.846 15.899L19.9871 15.8399L20.1283 15.785L20.2526 15.69L20.3854 15.6182L20.5434 15.597L20.6782 15.5295L20.8152 15.464L20.9564 15.407L21.0975 15.3542L21.2366 15.293L21.3757 15.2317L21.5042 15.143L21.6454 15.0902L21.7802 15.0206L21.9235 14.9699L22.0689 14.9255L22.2206 14.9002L22.3638 14.8453L22.5008 14.7819L22.6441 14.7292L22.7895 14.6869L22.9243 14.613L23.0781 14.594L23.2193 14.5349L23.371 14.5116L23.5164 14.4736L23.6596 14.4187L23.8071 14.3807L23.9504 14.3385L24.1042 14.3195L24.2496 14.2751L24.3844 14.197L24.5446 14.2076L24.6815 14.1294L24.8375 14.1337L24.9786 14.0682L25.1282 14.0386L25.2778 14.0133L25.4253 13.9795L25.5728 13.9436L25.7245 13.9331L25.8783 13.9225L26.0195 13.8591L26.1754 13.8697L26.3187 13.8042L26.4746 13.8232L26.62 13.7705L26.7717 13.7536L26.9192 13.7092L27.0688 13.6923L27.2226 13.6881L27.3764 13.6944L27.526 13.6818L27.6735 13.6247L27.8231 13.5973L27.979 13.6205L28.1265 13.5698H28.2782L28.4299 13.5551L28.5837 13.5931L28.7333 13.5339L28.885 13.5466L29.0367 13.5192L29.1884 13.5276L29.3422 13.5424L29.4939 13.5487L29.6456 13.5002L29.7973 13.5044L29.9511 13.498L30.1028 13.5002L30.2545 13.5234L30.4062 13.5086L30.5579 13.5403L30.7118 13.5128L30.8635 13.5002L31.0131 13.5551L31.1669 13.5107L31.3186 13.5445L31.4682 13.5656L31.622 13.5339L31.7716 13.5741L31.9233 13.5825L32.075 13.61L32.2288 13.5698L32.3784 13.5994L32.528 13.648L32.6818 13.6184L32.8335 13.6353L32.9852 13.6438L33.1348 13.6902L33.2823 13.7261L33.4382 13.7113L33.5878 13.743L33.7395 13.7514H33.8933L34.0429 13.781L34.1925 13.8042L34.3379 13.8591L34.4896 13.8845L34.6392 13.9098L34.793 13.9056L34.9363 13.9689L35.0901 13.9795L35.2376 14.0154L35.3872 14.045L35.5347 14.0766L35.6822 14.1147L35.836 14.1252L35.9835 14.159L36.1373 14.1717L36.2827 14.2181L36.4238 14.2794H36.5797L36.7209 14.3448L36.8684 14.3807L37.0159 14.4145L37.1549 14.4821L37.3045 14.5159L37.4436 14.575L37.5974 14.5919L37.7491 14.6151L37.8924 14.6679L38.0378 14.7123L38.179 14.7693L38.3201 14.8284L38.4697 14.858L38.5961 14.9551L38.7542 14.9678L38.8869 15.0438L39.0428 15.0628L39.1798 15.1304L39.3041 15.2254L39.4663 15.2296L39.597 15.312L39.7297 15.388L39.8835 15.4154L40.0226 15.4746L40.1553 15.5506L40.2796 15.6435L40.4187 15.7069L40.5704 15.7364L40.6989 15.8188L40.8527 15.8547L40.9728 15.9518L41.1077 16.0215L41.2404 16.0954L41.3668 16.1778L41.5249 16.2073L41.6429 16.3045L41.7819 16.3678L41.902 16.4649L42.0326 16.541L42.1801 16.5874L42.296 16.6909L42.4245 16.7711L42.5573 16.8429L42.6816 16.9316L42.8291 16.9823L42.9471 17.0794L43.0861 17.1449L43.2062 17.2357L43.3179 17.3413L43.4422 17.4279L43.5792 17.4976L43.7056 17.582L43.8404 17.6538L43.9648 17.7404L44.0743 17.846L44.2007 17.9304L44.3187 18.0255L44.4241 18.1374L44.5547 18.2155L44.6748 18.3084L44.7781 18.4225L44.8961 18.5175L45.0288 18.5935L45.1552 18.6801L45.2437 18.811L45.3722 18.8934L45.4797 19.0011L45.585 19.113L45.6988 19.2122L45.8316 19.2904L45.9306 19.4065L46.0317 19.5226L46.1434 19.6219L46.253 19.7275L46.3583 19.8373L46.491 19.9175L46.588 20.0358L46.6828 20.1561L46.7945 20.2575L46.8998 20.3673L46.9988 20.4813L47.1105 20.5848L47.2264 20.6841L47.2959 20.8277L47.3928 20.9438L47.5256 21.0283L47.5993 21.1655L47.6899 21.288L47.7869 21.4041L47.9259 21.4865L47.9786 21.6385L48.0924 21.742L48.2104 21.8413L48.2946 21.9658L48.3536 22.1137L48.4506 22.2298L48.5348 22.3565L48.6528 22.4579L48.7139 22.5993L48.8109 22.7176L48.9225 22.8232L49.0089 22.9478L49.0616 23.0956L49.1817 23.197L49.2617 23.3279L49.3355 23.4609L49.4198 23.5855L49.4956 23.7164L49.5799 23.8431L49.6558 23.9762L49.7316 24.1071L49.8201 24.2296L49.8812 24.3689L49.9592 24.4999L50.0687 24.6118L50.1383 24.7469L50.2057 24.8821L50.2731 25.0193L50.3405 25.1545L50.4311 25.2791L50.4943 25.4163L50.5681 25.5494L50.6439 25.6803L50.705 25.8196L50.7493 25.9654L50.8441 26.0878L50.8989 26.2314L50.9726 26.3645L51.0042 26.5165L51.1117 26.6348L51.1349 26.791L51.2276 26.9156L51.2824 27.0571L51.3329 27.1986L51.3856 27.3422L51.4657 27.4731L51.4888 27.6272L51.59 27.7497L51.6321 27.8975L51.6869 28.0369L51.748 28.1784L51.788 28.3241L51.8302 28.4698L51.9081 28.6028L51.9166 28.7612L52.0093 28.89L52.0156 29.0484L52.0746 29.1878L52.1252 29.3314L52.1968 29.4665L52.201 29.6249L52.2453 29.7685L52.3295 29.9015L52.3337 30.0599L52.378 30.2035L52.437 30.345L52.4707 30.4928L52.4939 30.6448L52.5508 30.7863L52.5803 30.9341L52.6161 31.0819L52.6751 31.2234L52.7278 31.367L52.7404 31.5212L52.7615 31.6711L52.7994 31.8168L52.8247 31.9667L52.8752 32.1124L52.8774 32.2666L52.9258 32.4102L52.9279 32.5643L52.9848 32.7079L53.0038 32.86L53.0164 33.012L53.0586 33.1577L53.0628 33.3097L53.1091 33.4576L53.1176 33.6075L53.147 33.7574L53.185 33.9052L53.1997 34.0573L53.1808 34.2114L53.2039 34.3614L53.2145 34.5134L53.2482 34.6612Z" fill="#6ECEFF"/>
<rect x="22.3691" y="13.0574" width="13.1889" height="1.67836" rx="0.839181" fill="#181818" stroke="#181818" stroke-width="0.112158"/>
<path d="M35.7225 26.0411C35.7961 26.53 36.2522 26.8666 36.7411 26.793C37.23 26.7193 37.5667 26.2632 37.493 25.7743L35.7225 26.0411ZM33.9358 14.1824L35.7225 26.0411L37.493 25.7743L35.7063 13.9156L33.9358 14.1824Z" fill="#181818"/>
<path d="M40.317 19.5154C40.6138 19.9109 40.5338 20.4721 40.1384 20.7689C39.7429 21.0657 39.1817 20.9857 38.8849 20.5902L40.317 19.5154ZM35.9022 13.6332L40.317 19.5154L38.8849 20.5902L34.4701 14.708L35.9022 13.6332Z" fill="#181818"/>
<path d="M29.6515 18.4718C29.8778 15.9472 34.5987 13.5505 34.5987 13.5505C34.5987 13.5505 35.3112 18.1031 34.0332 19.7153C32.7296 21.3597 29.457 20.6416 29.6515 18.4718Z" stroke="#181818" stroke-width="1.53473" stroke-linejoin="round"/>
</g>
<defs>
<clipPath id="clip0_875_848">
<rect width="46.6004" height="51.6557" fill="white" transform="translate(6.81445 4.30496)"/>
</clipPath>
</defs>
</svg>
