<svg width="130" height="130" viewBox="0 0 130 130" fill="none" xmlns="http://www.w3.org/2000/svg">
<g clip-path="url(#clip0_1478_59421)">
<path d="M117.457 24.6028C116.327 22.22 114.759 19.9833 112.838 18.177C110.747 16.2169 108.203 14.8027 105.636 13.5728C102.884 12.2508 100.002 11.2515 96.9732 10.8211C93.7526 10.3676 90.4551 10.3753 87.2114 10.3599C80.3936 10.3369 73.5835 10.6136 66.7656 10.5751C59.8479 10.5444 52.9532 9.95254 46.0431 9.99865C39.2483 10.0448 32.0769 10.4368 25.5819 12.589C22.638 13.5651 19.8325 14.9871 17.5266 17.0855C15.6434 18.7996 14.3828 20.9748 13.5296 23.3576C12.9609 24.9641 12.6303 26.609 12.3075 28.2846C12.2845 28.3999 12.2768 28.5075 12.2691 28.6228C12.2614 28.6843 12.246 28.7381 12.2383 28.7996C10.7011 42.7581 10.6703 56.8088 10.5473 70.8365C10.4858 77.9925 10.3859 85.1485 10.0631 92.2969C9.79406 98.2923 10.3398 104.541 13.6757 109.714C16.9578 114.803 22.3921 117.493 28.1645 118.769C31.0239 119.399 33.8525 119.73 36.781 119.561C40.3859 119.353 43.9524 118.915 47.565 118.823C61.7464 118.477 75.8971 120.46 90.0861 119.699C93.7064 119.507 97.3267 119.122 100.901 118.515C104.014 117.985 107.104 117.316 109.994 116.002C112.669 114.787 115.013 112.835 116.427 110.229C117.88 107.554 118.364 104.511 118.557 101.505C118.772 98.1847 118.741 94.8334 118.803 91.5052L119.01 80.4906C119.141 73.5651 119.202 66.6397 119.287 59.7143C119.333 56.1324 119.417 52.5582 119.51 48.9764C119.594 45.8634 119.471 42.6812 119.809 39.5836C120.371 34.426 119.686 29.3146 117.457 24.5951V24.6028Z" fill="#FF80AD"/>
</g>
<path d="M108.769 31.2027C107.825 29.2121 106.515 27.3434 104.909 25.8344C103.163 24.197 101.037 23.0155 98.8926 21.9881C96.5938 20.8836 94.1858 20.0488 91.6558 19.6892C88.9653 19.3104 86.2105 19.3168 83.5007 19.3039C77.805 19.2847 72.1157 19.5158 66.42 19.4837C60.6408 19.4581 54.8809 18.9636 49.1081 19.0021C43.4316 19.0407 37.4405 19.3682 32.0145 21.1661C29.5551 21.9816 27.2114 23.1696 25.285 24.9226C23.7117 26.3546 22.6586 28.1718 21.9459 30.1624C21.4707 31.5045 21.1946 32.8786 20.9249 34.2785C20.9056 34.3748 20.8992 34.4647 20.8928 34.561C20.8863 34.6124 20.8735 34.6573 20.8671 34.7087C19.5828 46.3698 19.5571 58.108 19.4544 69.827C19.403 75.8052 19.3195 81.7835 19.0498 87.7553C18.8251 92.7639 19.281 97.9845 22.0679 102.306C24.8098 106.557 29.3497 108.804 34.1721 109.87C36.5608 110.397 38.9239 110.673 41.3704 110.532C44.382 110.358 47.3615 109.992 50.3795 109.915C62.2269 109.626 74.0485 111.283 85.9023 110.647C88.9268 110.487 91.9512 110.166 94.9371 109.658C97.5378 109.215 100.119 108.657 102.534 107.559C104.768 106.544 106.727 104.913 107.908 102.736C109.122 100.502 109.526 97.9588 109.687 95.4481C109.867 92.674 109.841 89.8743 109.892 87.0939L110.066 77.8921C110.175 72.1065 110.226 66.3209 110.297 60.5353C110.335 57.543 110.406 54.557 110.483 51.5647C110.554 48.9641 110.451 46.3056 110.734 43.7178C111.202 39.4091 110.631 35.1389 108.769 31.1962V31.2027Z" fill="#F26798"/>
<path d="M65 56V74" stroke="white" stroke-width="2.4" stroke-linecap="round" stroke-linejoin="round"/>
<path d="M56 65H74" stroke="white" stroke-width="2.4" stroke-linecap="round" stroke-linejoin="round"/>
<defs>
<clipPath id="clip0_1478_59421">
<rect width="110" height="109.877" fill="white" transform="translate(10 10)"/>
</clipPath>
</defs>
</svg>
