<svg width="49" height="48" viewBox="0 0 49 48" fill="none" xmlns="http://www.w3.org/2000/svg">
<path d="M39.4808 2L9.51924 2C5.64262 2 2.5 5.14262 2.5 9.01924L2.5 38.9808C2.5 42.8574 5.64262 46 9.51924 46H39.4808C43.3574 46 46.5 42.8574 46.5 38.9808V9.01924C46.5 5.14262 43.3574 2 39.4808 2Z" fill="#FF80AD"/>
<path d="M19.8008 4C19.8008 4.09954 19.8433 4.09954 19.8433 4.19774C19.8433 4.29595 19.826 4.29728 19.826 4.39549C19.826 4.4937 19.7995 4.49502 19.7995 4.59323C19.7995 4.69144 19.7968 4.69277 19.7968 4.79098C19.7968 4.88918 19.8074 4.89051 19.8074 4.98872C19.8074 5.08693 19.8499 5.08825 19.8499 5.18646C19.8499 5.28467 19.8326 5.286 19.8326 5.38421C19.8326 5.48242 19.8446 5.48374 19.8446 5.58195C19.8446 5.68016 19.7995 5.68149 19.7995 5.77969C19.7995 5.8779 19.822 5.87923 19.822 5.97744C19.822 6.07565 19.83 6.07697 19.83 6.17651C19.83 6.27605 19.8074 6.27605 19.8074 6.37558C19.8074 6.47512 19.8074 6.47512 19.8074 6.57465C19.8074 6.67419 19.7995 6.67419 19.7995 6.77372C19.7995 6.87326 19.826 6.87326 19.826 6.97279C19.826 7.07233 19.8539 7.07233 19.8539 7.17186C19.8539 7.2714 19.822 7.2714 19.822 7.37094C19.822 7.47047 19.822 7.47047 19.822 7.57001C19.822 7.66954 19.8194 7.66954 19.8194 7.76908C19.8194 7.86861 19.8499 7.86861 19.8499 7.96815C19.8499 8.06768 19.8512 8.06768 19.8512 8.16722C19.8512 8.26676 19.834 8.26676 19.834 8.36629C19.834 8.46583 19.7968 8.46583 19.7968 8.56536C19.7968 8.6649 19.8366 8.6649 19.8366 8.76443C19.8366 8.86397 19.8472 8.86397 19.8472 8.9635C19.8472 9.06304 19.8592 9.06304 19.8592 9.16257C19.8592 9.26211 19.8287 9.26211 19.8287 9.36165C19.8287 9.46118 19.8552 9.46118 19.8552 9.56072C19.8552 9.66025 19.8579 9.66025 19.8579 9.75979C19.8579 9.85932 19.818 9.85932 19.818 9.95886C19.818 10.0584 19.818 10.0584 19.818 10.1579C19.818 10.2575 19.7942 10.2575 19.7942 10.3557C19.7942 10.4539 19.822 10.4552 19.822 10.5534C19.822 10.6516 19.8247 10.653 19.8247 10.7512C19.8247 10.8494 19.8034 10.8507 19.8034 10.9489C19.8034 11.0471 19.8446 11.0484 19.8446 11.1466C19.8446 11.2449 19.8313 11.2462 19.8313 11.3457C19.8313 11.4453 19.838 11.4453 19.838 11.5448C19.838 11.6443 19.8207 11.6443 19.8207 11.7439C19.8207 11.8434 19.7968 11.8434 19.7968 11.9429C19.7968 12.0425 19.834 12.0425 19.834 12.142C19.834 12.2415 19.8287 12.2415 19.8287 12.3411C19.8287 12.4406 19.8565 12.4406 19.8565 12.5401C19.8565 12.6397 19.8074 12.6397 19.8074 12.7392C19.8074 12.8388 19.8526 12.8388 19.8526 12.9383C19.8526 13.0378 19.8048 13.0378 19.8048 13.1374C19.8048 13.2369 19.8472 13.2369 19.8472 13.3364C19.8472 13.436 19.8048 13.436 19.8048 13.5355C19.8048 13.635 19.83 13.635 19.83 13.7346C19.83 13.8341 19.8512 13.8341 19.8512 13.9336C19.8512 14.0332 19.8034 14.0332 19.8034 14.1327C19.8034 14.2322 19.8552 14.2322 19.8552 14.3318C19.8552 14.4313 19.8486 14.4313 19.8486 14.5309C19.8486 14.6304 19.8074 14.6304 19.8074 14.7299C19.8074 14.8295 19.8592 14.8295 19.8592 14.929C19.8592 15.0285 19.8207 15.0285 19.8207 15.1281C19.8207 15.2276 19.83 15.2276 19.83 15.3271C19.83 15.4267 19.8579 15.4267 19.8579 15.5262C19.8579 15.6257 19.7995 15.6257 19.7995 15.7253C19.7995 15.8248 19.8539 15.8248 19.8539 15.9244C19.8539 16.0239 19.7968 16.0239 19.7968 16.1234C19.7968 16.223 19.7995 16.223 19.7995 16.3225C19.7995 16.422 19.8034 16.422 19.8034 16.5216C19.8034 16.6211 19.7942 16.6211 19.7942 16.7206C19.7942 16.8202 19.7942 16.8202 19.7942 16.9197C19.7942 17.0192 19.7942 17.0192 19.7942 17.1188C19.7942 17.2183 19.8194 17.2183 19.8194 17.3179C19.8194 17.4174 19.7955 17.4174 19.7955 17.5169C19.7955 17.6165 19.8446 17.6165 19.8446 17.716C19.8446 17.8155 19.8326 17.8155 19.8326 17.9151C19.8326 18.0146 19.8446 18.0146 19.8446 18.1141C19.8446 18.2137 19.7968 18.2137 19.7968 18.3132C19.7968 18.4127 19.7942 18.4127 19.7942 18.5123C19.7942 18.6118 19.8565 18.6118 19.8565 18.7113C19.8565 18.8109 19.8486 18.8109 19.8486 18.9104C19.8486 19.01 19.8366 19.01 19.8366 19.1095C19.8366 19.209 19.7981 19.209 19.7981 19.3086C19.7981 19.4081 19.8313 19.4081 19.8313 19.5076C19.8313 19.6072 19.8419 19.6072 19.8419 19.7067C19.8419 19.8062 19.8048 19.8062 19.8048 19.9058C19.8048 20.0053 19.8167 20.0053 19.8167 20.1048C19.8167 20.2044 19.838 20.2044 19.838 20.3039C19.838 20.4034 19.8472 20.4034 19.8472 20.503C19.8472 20.6025 19.8313 20.6025 19.8313 20.7007C19.8313 20.7989 19.8512 20.8003 19.8512 20.8985C19.8512 20.9967 19.8313 20.998 19.8313 21.0975C19.8313 21.1971 19.7955 21.1971 19.7955 21.2966C19.7955 21.3962 19.8167 21.3962 19.8167 21.4957C19.8167 21.5952 19.8167 21.5952 19.8167 21.6948C19.8167 21.7943 19.7981 21.7943 19.7981 21.8938C19.7981 21.9934 19.8114 21.9934 19.8114 22.0929C19.8114 22.1924 19.8472 22.1924 19.8472 22.292C19.8472 22.3915 19.834 22.3915 19.834 22.491C19.834 22.5906 19.8512 22.5906 19.8512 22.6901C19.8512 22.7896 19.818 22.7896 19.818 22.8879C19.818 22.9861 19.8074 22.9874 19.8074 23.0856C19.8074 23.1838 19.8287 23.1851 19.8287 23.2833C19.8287 23.3816 19.8499 23.3829 19.8499 23.4811C19.8499 23.5793 19.8406 23.5806 19.8406 23.6788C19.8406 23.777 19.8486 23.7784 19.8486 23.8766C19.8486 23.9748 19.8194 23.9761 19.8194 24.0743C19.8194 24.1725 19.8088 24.1739 19.8088 24.2721C19.8088 24.3703 19.8552 24.3716 19.8552 24.4698C19.8552 24.568 19.8472 24.5693 19.8472 24.6676C19.8472 24.7658 19.818 24.7671 19.818 24.8653C19.818 24.9635 19.8433 24.9648 19.8433 25.063C19.8433 25.1612 19.8101 25.1626 19.8101 25.2608C19.8101 25.359 19.838 25.3603 19.838 25.4585C19.838 25.5567 19.7942 25.5581 19.7942 25.6563C19.7942 25.7545 19.8101 25.7558 19.8101 25.854C19.8101 25.9522 19.8074 25.9536 19.8074 26.0531C19.8074 26.1526 19.7981 26.1526 19.7981 26.2522C19.7981 26.3517 19.8008 26.3517 19.8008 26.4512C19.8008 26.5508 19.8127 26.5508 19.8127 26.6503C19.8127 26.7498 19.838 26.7498 19.838 26.8494C19.838 26.9489 19.8061 26.9489 19.8061 27.0484C19.8061 27.148 19.8074 27.148 19.8074 27.2475C19.8074 27.347 19.8154 27.347 19.8154 27.4466C19.8154 27.5461 19.8048 27.5461 19.8048 27.6457C19.8048 27.7452 19.8048 27.7452 19.8048 27.8447C19.8048 27.9443 19.7981 27.9443 19.7981 28.0438C19.7981 28.1433 19.8313 28.1433 19.8313 28.2429C19.8313 28.3424 19.7955 28.3424 19.7955 28.4419C19.7955 28.5415 19.8326 28.5415 19.8326 28.6397C19.8326 28.7379 19.7915 28.7392 19.7915 28.8374C19.7915 28.9356 19.8034 28.937 19.8034 29.0352C19.8034 29.1334 19.8061 29.1347 19.8061 29.2342C19.8061 29.3338 19.8565 29.3338 19.8565 29.4333C19.8565 29.5328 19.83 29.5328 19.83 29.6324C19.83 29.7319 19.8101 29.7319 19.8101 29.8315C19.8101 29.931 19.8526 29.931 19.8526 30.0305C19.8526 30.1301 19.7955 30.1301 19.7955 30.2296C19.7955 30.3291 19.8088 30.3291 19.8088 30.4287C19.8088 30.5282 19.8061 30.5282 19.8061 30.6277C19.8061 30.7273 19.8313 30.7273 19.8313 30.8268C19.8313 30.9263 19.8326 30.9263 19.8326 31.0259C19.8326 31.1254 19.8114 31.1254 19.8114 31.225C19.8114 31.3245 19.8154 31.3245 19.8154 31.424C19.8154 31.5236 19.8579 31.5236 19.8579 31.6231C19.8579 31.7226 19.7981 31.7226 19.7981 31.8222C19.7981 31.9217 19.7981 31.9217 19.7981 32.0212C19.7981 32.1208 19.8034 32.1208 19.8034 32.2203C19.8034 32.3198 19.8353 32.3198 19.8353 32.4194C19.8353 32.5189 19.8194 32.5189 19.8194 32.6184C19.8194 32.718 19.8459 32.718 19.8459 32.8175C19.8459 32.9171 19.8406 32.9171 19.8406 33.0166C19.8406 33.1161 19.8526 33.1161 19.8526 33.2157C19.8526 33.3152 19.8526 33.3152 19.8526 33.4147C19.8526 33.5143 19.7981 33.5143 19.7981 33.6138C19.7981 33.7133 19.7915 33.7133 19.7915 33.8129C19.7915 33.9124 19.838 33.9124 19.838 34.0119C19.838 34.1115 19.838 34.1115 19.838 34.211C19.838 34.3106 19.8008 34.3106 19.8008 34.4101C19.8008 34.5096 19.8021 34.5096 19.8021 34.6092C19.8021 34.7087 19.7968 34.7087 19.7968 34.8082C19.7968 34.9078 19.8539 34.9078 19.8539 35.0073C19.8539 35.1068 19.8287 35.1068 19.8287 35.2064C19.8287 35.3059 19.8167 35.3059 19.8167 35.4054C19.8167 35.505 19.7995 35.505 19.7995 35.6045C19.7995 35.704 19.8406 35.704 19.8406 35.8036C19.8406 35.9031 19.8074 35.9031 19.8074 36.0027C19.8074 36.1022 19.8459 36.1022 19.8459 36.2017C19.8459 36.3013 19.8207 36.3013 19.8207 36.4008C19.8207 36.5003 19.8565 36.5003 19.8565 36.5999C19.8565 36.6994 19.8565 36.6994 19.8565 36.7989C19.8565 36.8985 19.8539 36.8985 19.8539 36.998C19.8539 37.0975 19.8313 37.0975 19.8313 37.1971C19.8313 37.2966 19.8472 37.2966 19.8472 37.3962C19.8472 37.4957 19.8539 37.4957 19.8539 37.5952C19.8539 37.6948 19.8353 37.6948 19.8353 37.7943C19.8353 37.8938 19.838 37.8938 19.838 37.992C19.838 38.0902 19.818 38.0916 19.818 38.1911C19.818 38.2906 19.8406 38.2906 19.8406 38.3902C19.8406 38.4897 19.8061 38.4897 19.8061 38.5893C19.8061 38.6888 19.838 38.6888 19.838 38.7883C19.838 38.8879 19.8419 38.8879 19.8419 38.9874C19.8419 39.0869 19.8486 39.0869 19.8486 39.1865C19.8486 39.286 19.8167 39.286 19.8167 39.3855C19.8167 39.4851 19.8273 39.4851 19.8273 39.5846C19.8273 39.6841 19.83 39.6841 19.83 39.7837C19.83 39.8832 19.8472 39.8832 19.8472 39.9827C19.8472 40.0823 19.7981 40.0823 19.7981 40.1818C19.7981 40.2814 19.8061 40.2814 19.8061 40.3809C19.8061 40.4804 19.7928 40.4804 19.7928 40.58C19.7928 40.6795 19.8273 40.6795 19.8273 40.779C19.8273 40.8786 19.7915 40.8786 19.7915 40.9781C19.7915 41.0776 19.7928 41.0776 19.7928 41.1772C19.7928 41.2767 19.8061 41.2767 19.8061 41.3762C19.8061 41.4758 19.8472 41.4758 19.8472 41.5753C19.8472 41.6749 19.8512 41.6749 19.8512 41.7744C19.8512 41.8739 19.8565 41.8739 19.8565 41.9735C19.8565 42.073 19.8127 42.073 19.8127 42.1725C19.8127 42.2721 19.8167 42.2721 19.8167 42.3716C19.8167 42.4711 19.8393 42.4711 19.8393 42.5707C19.8393 42.6702 19.8433 42.6702 19.8433 42.7697C19.8433 42.8693 19.8526 42.8693 19.8526 42.9688C19.8526 43.0683 19.8273 43.0683 19.8273 43.1679C19.8273 43.2674 19.8552 43.2674 19.8552 43.367C19.8552 43.4665 19.8141 43.4665 19.8141 43.566C19.8141 43.6656 19.8101 43.6656 19.8101 43.7664C19.8101 43.8673 19.8061 43.866 19.8061 43.9655C19.8061 44.065 19.8021 44.065 19.8021 44.1659C19.8021 44.2668 19.8552 44.2654 19.8552 44.3663C19.8552 44.4672 19.8539 44.4658 19.8539 44.5667" stroke="#181818" stroke-width="1.64774" stroke-miterlimit="10"/>
<path d="M4 20C4.09758 20 4.09758 20 4.19516 20C4.29275 20 4.29275 20 4.39033 20C4.48791 20 4.48791 20 4.58549 20C4.68307 20 4.68307 20 4.78066 20C4.87824 20 4.87824 20 4.97582 20C5.0734 20 5.0734 20 5.17098 20C5.26856 20 5.26856 20 5.36615 20C5.46373 20 5.46373 20 5.56131 20C5.65889 20 5.65889 20 5.75647 20C5.85406 20 5.85406 20 5.95164 20C6.04922 20 6.04922 20 6.1468 20C6.24438 20 6.24438 20 6.34197 20C6.43955 20 6.43955 20 6.53713 20C6.63471 20 6.63471 20 6.73229 20C6.82987 20 6.82987 20 6.92746 20C7.02504 20 7.02504 20 7.12262 20C7.2202 20 7.2202 20 7.31778 20C7.41537 20 7.41537 20 7.51295 20C7.61053 20 7.61053 20 7.70811 20C7.80569 20 7.80569 20 7.90327 20C8.00086 20 8.00086 20 8.09844 20C8.19602 20 8.19602 20 8.2936 20C8.39118 20 8.39118 20 8.48877 20C8.58635 20 8.58635 20 8.68393 20C8.78151 20 8.78151 20 8.87909 20C8.97668 20 8.97668 20 9.07426 20C9.17184 20 9.17184 20 9.26942 20C9.367 20 9.367 20 9.46459 20C9.56217 20 9.56217 20 9.65975 20C9.75733 20 9.75733 20 9.85491 20C9.95249 20 9.95249 20 10.0501 20C10.1477 20 10.1477 20 10.2452 20C10.3428 20 10.3428 20 10.4404 20C10.538 20 10.538 20 10.6356 20C10.7331 20 10.7331 20 10.8307 20C10.9283 20 10.9283 20 11.0259 20C11.1235 20 11.1235 20 11.2211 20C11.3186 20 11.3186 20 11.4162 20C11.5138 20 11.5138 20 11.6114 20C11.709 20 11.709 20 11.8066 20C11.9041 20 11.9041 20 12.0017 20C12.0993 20 12.0993 20 12.1969 20C12.2945 20 12.2945 20 12.392 20C12.4896 20 12.4896 20 12.5872 20C12.6848 20 12.6848 20 12.7824 20C12.88 20 12.88 20 12.9775 20C13.0751 20 13.0751 20 13.1727 20C13.2703 20 13.2703 20 13.3679 20C13.4654 20 13.4654 20 13.563 20C13.6606 20 13.6606 20 13.7582 20C13.8558 20 13.8558 20 13.9534 20C14.0509 20 14.0509 20 14.1485 20C14.2461 20 14.2461 20 14.3437 20C14.4413 20 14.4413 20 14.5388 20C14.6364 20 14.6364 20 14.734 20C14.8316 20 14.8316 20 14.9292 20C15.0268 20 15.0268 20 15.1243 20C15.2219 20 15.2219 20 15.3195 20C15.4171 20 15.4171 20 15.5147 20C15.6122 20 15.6122 20 15.7098 20C15.8074 20 15.8074 20 15.905 20C16.0026 20 16.0026 20 16.1002 20C16.1977 20 16.1977 20 16.2953 20C16.3929 20 16.3929 20 16.4905 20C16.5881 20 16.5881 20 16.6856 20C16.7832 20 16.7832 20 16.8808 20C16.9784 20 16.9784 20 17.076 20C17.1736 20 17.1736 20 17.2711 20C17.3687 20 17.3687 20 17.4663 20C17.5639 20 17.5639 20 17.6615 20C17.759 20 17.759 20 17.8566 20C17.9542 20 17.9542 20 18.0518 20C18.1494 20 18.1494 20 18.247 20C18.3445 20 18.3445 20 18.4421 20C18.5397 20 18.5397 20 18.6373 20C18.7349 20 18.7349 20 18.8324 20C18.93 20 18.93 20 19.0276 20C19.1252 20 19.1252 20 19.2228 20C19.3204 20 19.3204 20 19.4179 20C19.5155 20 19.5155 20 19.6131 20C19.7107 20 19.7107 20 19.8083 20C19.9058 20 19.9058 20 20.0034 20C20.101 20 20.101 20 20.1986 20C20.2962 20 20.2962 20 20.3938 20C20.4913 20 20.4913 20 20.5889 20C20.6865 20 20.6865 20 20.7841 20C20.8817 20 20.8817 20 20.9792 20C21.0768 20 21.0768 20 21.1744 20C21.272 20 21.272 20 21.3696 20C21.4672 20 21.4672 20 21.5647 20C21.6623 20 21.6623 20 21.7599 20C21.8575 20 21.8575 20 21.9551 20C22.0526 20 22.0526 20 22.1502 20C22.2478 20 22.2478 20 22.3454 20C22.443 20 22.443 20 22.5406 20C22.6381 20 22.6381 20 22.7357 20C22.8333 20 22.8333 20 22.9309 20C23.0285 20 23.0285 20 23.126 20C23.2236 20 23.2236 20 23.3212 20C23.4188 20 23.4188 20 23.5164 20C23.614 20 23.614 20 23.7115 20C23.8091 20 23.8091 20 23.9067 20C24.0043 20 24.0043 20 24.1019 20C24.1995 20 24.1994 20 24.297 20C24.3946 20 24.3946 20 24.4922 20C24.5898 20 24.5898 20 24.6874 20C24.7849 20 24.7849 20 24.8825 20C24.9801 20 24.9801 20 25.0777 20C25.1753 20 25.1753 20 25.2729 20C25.3704 20 25.3704 20 25.468 20C25.5656 20 25.5656 20 25.6632 20C25.7608 20 25.7608 20 25.8583 20C25.9559 20 25.9559 20 26.0535 20C26.1511 20 26.1511 20 26.2487 20C26.3462 20 26.3463 20 26.4438 20C26.5414 20 26.5414 20 26.639 20C26.7366 20 26.7366 20 26.8342 20C26.9317 20 26.9317 20 27.0293 20C27.1269 20 27.1269 20 27.2245 20C27.3221 20 27.3221 20 27.4197 20C27.5172 20 27.5172 20 27.6148 20C27.7124 20 27.7124 20 27.81 20C27.9076 20 27.9076 20 28.0051 20C28.1027 20 28.1027 20 28.2003 20C28.2979 20 28.2979 20 28.3955 20C28.4931 20 28.4931 20 28.5906 20C28.6882 20 28.6882 20 28.7858 20C28.8834 20 28.8834 20 28.981 20C29.0785 20 29.0785 20 29.1761 20C29.2737 20 29.2737 20 29.3713 20C29.4689 20 29.4689 20 29.5665 20C29.664 20 29.664 20 29.7616 20C29.8592 20 29.8592 20 29.9568 20C30.0544 20 30.0544 20 30.1519 20C30.2495 20 30.2495 20 30.3471 20C30.4447 20 30.4447 20 30.5423 20C30.6399 20 30.6399 20 30.7374 20C30.835 20 30.835 20 30.9326 20C31.0302 20 31.0302 20 31.1278 20C31.2253 20 31.2253 20 31.3229 20C31.4205 20 31.4205 20 31.5181 20C31.6157 20 31.6157 20 31.7133 20C31.8108 20 31.8108 20 31.9084 20C32.006 20 32.006 20 32.1036 20C32.2012 20 32.2012 20 32.2987 20C32.3963 20 32.3963 20 32.4939 20C32.5915 20 32.5915 20 32.6891 20C32.7867 20 32.7867 20 32.8842 20C32.9818 20 32.9818 20 33.0794 20C33.177 20 33.177 20 33.2746 20C33.3721 20 33.3721 20 33.4697 20C33.5673 20 33.5673 20 33.6649 20C33.7625 20 33.7625 20 33.8601 20C33.9576 20 33.9576 20 34.0552 20C34.1528 20 34.1528 20 34.2504 20C34.348 20 34.348 20 34.4455 20C34.5431 20 34.5431 20 34.6407 20C34.7383 20 34.7383 20 34.8359 20C34.9335 20 34.9335 20 35.031 20C35.1286 20 35.1286 20 35.2262 20C35.3238 20 35.3238 20 35.4214 20C35.5189 20 35.5189 20 35.6165 20C35.7141 20 35.7141 20 35.8117 20C35.9093 20 35.9093 20 36.0069 20C36.1044 20 36.1044 20 36.202 20C36.2996 20 36.2996 20 36.3972 20C36.4948 20 36.4948 20 36.5924 20C36.6899 20 36.6899 20 36.7875 20C36.8851 20 36.8851 20 36.9827 20C37.0803 20 37.0803 20 37.1778 20C37.2754 20 37.2754 20 37.373 20C37.4706 20 37.4706 20 37.5682 20C37.6657 20 37.6658 20 37.7633 20C37.8609 20 37.8609 20 37.9585 20C38.0561 20 38.0561 20 38.1537 20C38.2512 20 38.2512 20 38.3488 20C38.4464 20 38.4464 20 38.544 20C38.6416 20 38.6416 20 38.7391 20C38.8367 20 38.8367 20 38.9343 20C39.0319 20 39.0319 20 39.1295 20C39.2271 20 39.2271 20 39.3246 20C39.4222 20 39.4222 20 39.5198 20C39.6174 20 39.6174 20 39.715 20C39.8125 20 39.8126 20 39.9101 20C40.0077 20 40.0077 20 40.1053 20C40.2029 20 40.2029 20 40.3005 20C40.398 20 40.398 20 40.4956 20C40.5932 20 40.5932 20 40.6908 20C40.7884 20 40.7884 20 40.886 20C40.9835 20 40.9835 20 41.0811 20C41.1787 20 41.1787 20 41.2763 20C41.3739 20 41.3739 20 41.4714 20C41.569 20 41.569 20 41.6666 20C41.7642 20 41.7642 20 41.8618 20C41.9594 20 41.9594 20 42.0569 20C42.1545 20 42.1545 20 42.2534 20C42.3523 20 42.351 20 42.4486 20C42.5461 20 42.5461 20 42.645 20C42.7439 20 42.7426 20 42.8415 20C42.9404 20 42.9391 20 43.038 20C43.1368 20 43.1355 20 43.2331 20C43.3307 20 43.3307 20 43.4283 20C43.5259 20 43.5259 20 43.6247 20C43.7236 20 43.7223 20 43.8212 20C43.9201 20 43.9188 20 44.0177 20C44.1166 20 44.1153 20 44.2141 20C44.313 20 44.3117 20 44.4106 20C44.5095 20 44.5095 20 44.6071 20C44.7047 20 44.706 20 44.8035 20C44.9011 20 44.9024 20 45 20" stroke="#181818" stroke-width="1.64774" stroke-miterlimit="10"/>
<g filter="url(#filter0_d_849_18014)">
<path d="M19.3851 19.3952C18.9724 19.4921 19.0493 19.7018 18.7507 20.0017C18.4521 20.3016 18.4269 20.2764 18.127 20.5777C17.827 20.879 17.8323 20.8829 17.5337 21.1829C17.2351 21.4828 17.2497 21.4987 16.9511 21.7987C16.6525 22.0999 16.7587 22.2048 16.4588 22.506C16.1588 22.8073 16.1522 22.7993 15.8523 23.1006C15.5523 23.4018 15.4846 23.3103 15.3307 23.7058C15.19 24.0667 15.3559 24.0349 15.3878 24.4224C15.4196 24.8086 15.3692 24.8126 15.3997 25.1988C15.4316 25.585 15.3055 25.5956 15.3373 25.9818C15.3692 26.368 15.3798 26.368 15.4103 26.7542C15.4422 27.1404 15.5059 27.1351 15.5364 27.5226C15.5669 27.9101 15.5815 27.9075 15.612 28.295C15.6426 28.6825 15.6174 28.6839 15.6479 29.0701C15.6784 29.4563 15.8058 29.4456 15.8377 29.8332C15.8695 30.2194 15.7394 30.23 15.77 30.6162C15.8018 31.0024 15.8615 30.9971 15.8934 31.3846C15.9252 31.7708 15.8297 31.7788 15.8602 32.1649C15.8921 32.5511 15.8629 32.5538 15.8934 32.94C15.9239 33.3262 15.9863 33.3209 16.0168 33.7084C16.0487 34.0946 16.0235 34.0973 16.054 34.4835C16.0845 34.8697 16.1004 34.8683 16.1323 35.2545C16.1641 35.6407 16.0646 35.6487 16.0964 36.0362C16.1283 36.4237 16.1509 36.4211 16.1827 36.8086C16.2146 37.1961 16.0832 37.2665 16.3964 37.4974C16.7096 37.7283 16.76 37.6288 17.1595 37.5611C17.559 37.4921 17.5258 37.297 17.9252 37.2293C18.3247 37.1616 18.3566 37.3408 18.756 37.2718C19.1555 37.2028 19.1303 37.0502 19.5298 36.9825C19.9292 36.9135 19.9332 36.932 20.3327 36.863C20.7321 36.794 20.7388 36.8259 21.1383 36.7582C21.5377 36.6892 21.5351 36.6719 21.9359 36.6029C22.3353 36.5339 22.3314 36.51 22.7308 36.4423C23.1303 36.3733 23.1436 36.4529 23.5444 36.3839C23.9438 36.3149 23.9584 36.3985 24.3592 36.3308C24.76 36.2632 24.7295 36.0893 25.1303 36.0216C25.5298 35.9526 25.5576 36.1158 25.9584 36.0482C26.3592 35.9791 26.3274 35.7973 26.7282 35.7296C27.129 35.662 27.1608 35.8531 27.5616 35.7841C27.9624 35.715 27.9398 35.5837 28.3393 35.5147C28.7401 35.4456 28.7441 35.4695 29.1449 35.4005C29.5457 35.3315 29.6465 35.5438 29.8589 35.1975C30.0712 34.8511 29.7302 34.9042 29.6001 34.5299C29.47 34.1557 29.539 34.1304 29.409 33.7562C29.2789 33.3819 29.3838 33.3448 29.2537 32.9705C29.1223 32.5963 29.1409 32.5896 29.0095 32.2154C28.8781 31.8411 28.695 31.9048 28.5649 31.5306C28.4335 31.1563 28.3831 31.1736 28.253 30.7993C28.123 30.4251 28.2796 30.3693 28.1495 29.9951C28.0195 29.6208 27.8589 29.6766 27.7275 29.3023C27.5961 28.9281 27.6426 28.9121 27.5125 28.5379C27.3811 28.1636 27.3639 28.1689 27.2338 27.7947C27.1037 27.4204 27.3174 27.3448 27.186 26.9705C27.0546 26.5963 26.8383 26.6719 26.7083 26.2977C26.5769 25.9234 26.6618 25.8929 26.5317 25.5186C26.4004 25.1444 26.3141 25.1749 26.1827 24.7993C26.0513 24.4251 26.1177 24.4025 25.9863 24.0269C25.8549 23.6527 25.9359 23.6235 25.8045 23.2492C25.6731 22.8736 25.7222 22.8577 25.5908 22.4821C25.4594 22.1066 25.4302 22.1251 25.1568 21.8385C24.8834 21.5518 24.841 21.6912 24.476 21.5465C24.111 21.4018 24.1018 21.4271 23.7381 21.2824C23.3745 21.1377 23.3798 21.1231 23.0148 20.9785C22.6499 20.8338 22.6884 20.7383 22.3234 20.5936C21.9598 20.449 21.9319 20.518 21.5682 20.3733C21.2033 20.2287 21.2564 20.0973 20.8914 19.9526C20.5264 19.808 20.4243 20.0097 20.0978 19.792C19.7408 19.5545 19.77 19.3089 19.3878 19.3992L19.3851 19.3952Z" fill="#FFEBC0"/>
</g>
<path d="M17.626 28.6614C18.0055 28.5857 17.9671 28.392 18.3466 28.3163C18.7262 28.2407 18.7248 28.2301 19.1044 28.1544C19.484 28.0788 19.4455 27.881 19.825 27.804C20.2046 27.7284 20.2258 27.8306 20.6067 27.7549C20.9876 27.6793 21.0327 27.9062 21.4136 27.8306C21.7932 27.7549 21.7242 27.4099 22.1051 27.3342C22.486 27.2573 22.5377 27.5161 22.9173 27.4404C23.2982 27.3634 23.2902 27.3276 23.6711 27.252C24.052 27.175 24.0374 27.102 24.4183 27.0263" stroke="#FFB219" stroke-width="0.398142" stroke-miterlimit="10"/>
<path d="M18.0117 30.2878C18.3913 30.2122 18.3528 30.0184 18.7324 29.9428C19.1119 29.8671 19.1106 29.8565 19.4902 29.7809C19.8697 29.7052 19.8312 29.5075 20.2108 29.4305C20.5904 29.3549 20.6116 29.457 20.9925 29.3814C21.3734 29.3044 21.4185 29.5327 21.7994 29.457C22.1789 29.3814 22.1099 29.0363 22.4908 28.9607C22.8717 28.8837 22.9235 29.1425 23.303 29.0669C23.6839 28.9899 23.676 28.9541 24.0568 28.8784C24.4377 28.8028 24.4231 28.7284 24.804 28.6528" stroke="#FFB219" stroke-width="0.398142" stroke-miterlimit="10"/>
<path d="M18.2944 32.1249C18.674 32.0493 18.6355 31.8555 19.0151 31.7799C19.3946 31.7042 19.3933 31.6936 19.7729 31.618C20.1524 31.5423 20.1139 31.3446 20.4935 31.2676C20.8731 31.192 20.8943 31.2941 21.2752 31.2185C21.6561 31.1415 21.7012 31.3698 22.0821 31.2941C22.4617 31.2185 22.3926 30.8734 22.7735 30.7978C23.1544 30.7221 23.2062 30.9796 23.5857 30.904C23.9653 30.8283 23.9587 30.7912 24.3396 30.7155C24.7204 30.6385 24.7058 30.5655 25.0867 30.4899" stroke="#FFB219" stroke-width="0.398142" stroke-miterlimit="10"/>
<path d="M19.8711 20.6419C19.9215 20.7282 19.9043 20.7335 19.8605 20.8542C19.8419 20.906 19.8061 20.9644 19.7795 21.036C19.7583 21.0918 19.6813 21.1343 19.6548 21.2019C19.6322 21.2603 19.611 21.3227 19.5858 21.3891C19.5632 21.4475 19.4955 21.4926 19.4703 21.5563C19.4464 21.616 19.4225 21.6771 19.396 21.7394C19.3721 21.7992 19.4517 21.904 19.4265 21.9664C19.4013 22.0261 19.327 22.0672 19.3004 22.1296C19.2739 22.192 19.2354 22.2451 19.2089 22.3075C19.1823 22.3698 19.1465 22.4229 19.1199 22.4853C19.0934 22.5477 19.0881 22.6153 19.0602 22.6764C19.0324 22.7374 19.0244 22.8051 18.9965 22.8662C18.9687 22.9272 18.8771 22.9564 18.8492 23.0175C18.8213 23.0785 18.8665 23.1714 18.8386 23.2311C18.8107 23.2909 18.7815 23.3506 18.7537 23.4116C18.7258 23.4727 18.6634 23.5151 18.6342 23.5762C18.605 23.6372 18.532 23.6731 18.5028 23.7328C18.4736 23.7925 18.5493 23.9027 18.5201 23.9624C18.4909 24.0221 18.4484 24.0752 18.4192 24.1336C18.39 24.192 18.2892 24.2159 18.2586 24.2743C18.2281 24.3327 18.1671 24.3751 18.1365 24.4335C18.106 24.4919 18.0954 24.5609 18.0649 24.6193C18.0343 24.6777 18.0383 24.756 18.0065 24.8144C17.9746 24.8728 17.8937 24.9033 17.8618 24.9617C17.83 25.0201 17.887 25.1276 17.8539 25.186C17.8207 25.2444 17.7357 25.271 17.7026 25.3293C17.6694 25.3877 17.6017 25.4236 17.5685 25.4806C17.5353 25.5377 17.5698 25.6359 17.5353 25.693C17.5008 25.7501 17.4411 25.7912 17.4066 25.8483C17.3721 25.9053 17.3084 25.9438 17.2739 25.9996C17.2394 26.0553 17.2673 26.1535 17.2301 26.2092C17.1929 26.265 17.1425 26.3114 17.1053 26.3672C17.0682 26.4229 16.9753 26.4402 16.9381 26.4946C16.901 26.549 16.9103 26.6379 16.8718 26.6923C16.8333 26.7467 16.7497 26.768 16.7099 26.8224C16.67 26.8768 16.6236 26.9232 16.5838 26.9763C16.544 27.0294 16.5586 27.125 16.5188 27.1781C16.4789 27.2311 16.4391 27.2869 16.398 27.3373C16.3568 27.3877 16.3276 27.4541 16.2852 27.5045C16.2427 27.555 16.1724 27.5842 16.1286 27.6346C16.0848 27.685 15.9985 27.6956 15.9534 27.7447C15.9083 27.7938 15.9136 27.8894 15.8671 27.9372C15.8207 27.985 15.7756 28.0354 15.7278 28.0818C15.68 28.1283 15.6216 28.1641 15.5725 28.2092C15.5234 28.2544 15.4623 28.2862 15.4119 28.33C15.3615 28.3738 15.2885 28.3911 15.2381 28.4322C15.1876 28.4733 15.1425 28.5251 15.0907 28.5649C15.039 28.6047 15.0204 28.6963 14.966 28.7348C14.9116 28.7733 14.8134 28.7481 14.7576 28.7826C14.7019 28.8171 14.6608 28.8794 14.6037 28.9113C14.5466 28.9432 14.4789 28.9617 14.4205 28.9909C14.3621 29.0201 14.2931 29.0307 14.2321 29.056C14.171 29.0812 14.1272 29.1542 14.0649 29.1754C14.0025 29.1966 13.9189 29.1489 13.8552 29.1648C13.7915 29.1807 13.7278 29.19 13.6627 29.2019C13.5977 29.2139 13.546 29.324 13.4796 29.3307C13.4132 29.3373 13.3429 29.3028 13.2765 29.3041C13.2102 29.3055 13.1412 29.3267 13.0748 29.3214C13.0085 29.3161 12.9421 29.2922 12.8771 29.2816C12.8121 29.271 12.7444 29.2603 12.6793 29.2444C12.6143 29.2285 12.5599 29.182 12.4962 29.1595C12.4325 29.1369 12.3701 29.121 12.3077 29.0944C12.2454 29.0679 12.1976 29.0215 12.1379 28.9896C12.0781 28.9578 11.9932 28.9763 11.9348 28.9418C11.8764 28.9073 11.8751 28.7932 11.8193 28.7547C11.7636 28.7162 11.6999 28.699 11.6468 28.6565C11.5937 28.614 11.5048 28.622 11.4544 28.5782C11.404 28.5344 11.3628 28.4813 11.3137 28.4349C11.2646 28.3884 11.2633 28.2995 11.2155 28.2504C11.1677 28.2013 11.0788 28.1986 11.0337 28.1482C10.9886 28.0978 10.9315 28.0579 10.889 28.0075C10.8466 27.9571 10.8399 27.8748 10.8001 27.8217C10.7603 27.7686 10.7391 27.7023 10.7019 27.6479C10.6647 27.5934 10.6435 27.5284 10.609 27.4727C10.5745 27.4169 10.5161 27.3745 10.4842 27.3161C10.4524 27.2577 10.39 27.2139 10.3621 27.1555C10.3343 27.0971 10.2785 27.0453 10.2533 26.9843C10.2281 26.9232 10.1923 26.8609 10.171 26.7985C10.1498 26.7361 10.1777 26.6552 10.1591 26.5915C10.1405 26.5278 10.1671 26.4534 10.1538 26.3884C10.1405 26.3234 10.1485 26.257 10.1392 26.192C10.1299 26.127 10.0065 26.0739 10.0012 26.0075C9.99586 25.9412 10.0105 25.8708 10.0091 25.8045C10.0078 25.7381 10.0489 25.6704 10.0516 25.6041C10.0543 25.5377 10.0012 25.466 10.0091 25.3997C10.0171 25.3333 10.0702 25.2723 10.0821 25.2059C10.0941 25.1396 10.0702 25.0666 10.0848 25.0015C10.0994 24.9365 10.098 24.8648 10.1153 24.7998C10.1326 24.7348 10.248 24.7016 10.2692 24.6379C10.2905 24.5742 10.2666 24.4959 10.2918 24.4335C10.317 24.3712 10.3927 24.334 10.4205 24.2729C10.4484 24.2119 10.4179 24.1243 10.4484 24.0646C10.4789 24.0049 10.5201 23.9518 10.5546 23.8934C10.5891 23.835 10.6714 23.8111 10.7085 23.754C10.7457 23.697 10.7497 23.6226 10.7882 23.5682C10.8266 23.5138 10.8957 23.4833 10.9368 23.4302C10.9779 23.3771 10.9779 23.2948 11.0217 23.2431C11.0655 23.1913 11.0854 23.1223 11.1306 23.0719C11.1757 23.0215 11.2168 22.9684 11.2633 22.9206C11.3097 22.8728 11.4225 22.8927 11.4716 22.8463C11.5207 22.7998 11.5234 22.7082 11.5725 22.6631C11.6216 22.618 11.6919 22.5981 11.7437 22.5556C11.7955 22.5132 11.8592 22.4893 11.9122 22.4481C11.9653 22.407 11.9866 22.3274 12.0397 22.2875C12.0927 22.2477 12.1803 22.257 12.2347 22.2185C12.2892 22.18 12.3024 22.0832 12.3595 22.046C12.4166 22.0088 12.4909 22.0049 12.5479 21.969C12.605 21.9332 12.6714 21.9186 12.7298 21.8841C12.7882 21.8496 12.828 21.7899 12.8864 21.758C12.9448 21.7262 12.9965 21.6824 13.0562 21.6518C13.116 21.6213 13.1637 21.5682 13.2235 21.539C13.2832 21.5098 13.3376 21.4674 13.3986 21.4395C13.4597 21.4116 13.5672 21.4913 13.6282 21.4634C13.6893 21.4355 13.7065 21.3068 13.7676 21.2816C13.8286 21.2564 13.8976 21.2471 13.96 21.2219C14.0224 21.1966 14.0994 21.2139 14.1618 21.1913C14.2241 21.1688 14.2692 21.0971 14.333 21.0759C14.3967 21.0546 14.4537 21.0135 14.5174 20.9936C14.5811 20.9737 14.6647 21.0215 14.7284 21.0015C14.7921 20.9816 14.8479 20.9378 14.9129 20.9193C14.9779 20.9007 15.0416 20.8848 15.1067 20.8688C15.1717 20.8529 15.246 20.8808 15.3111 20.8648C15.3761 20.8489 15.4411 20.8383 15.5061 20.8237C15.5712 20.8091 15.6349 20.7919 15.6999 20.7786C15.7649 20.7653 15.8167 20.6764 15.8817 20.6645C15.9468 20.6525 16.0211 20.6857 16.0861 20.6751C16.1511 20.6645 16.2228 20.6897 16.2892 20.6804C16.3555 20.6711 16.4205 20.6671 16.4869 20.6591C16.5533 20.6512 16.6223 20.6777 16.6886 20.6711C16.755 20.6645 16.812 20.5769 16.8784 20.5702C16.9448 20.5636 17.0151 20.6114 17.0815 20.6061C17.1478 20.6007 17.2115 20.557 17.2779 20.553C17.3442 20.549 17.4119 20.5888 17.4796 20.5861C17.5473 20.5835 17.611 20.5397 17.6773 20.537C17.7437 20.5344 17.8114 20.5769 17.8777 20.5755C17.9441 20.5742 18.0105 20.5901 18.0768 20.5901C18.1432 20.5901 18.2095 20.5835 18.2759 20.5848C18.3422 20.5862 18.4086 20.5822 18.475 20.5848C18.5413 20.5875 18.6063 20.6061 18.674 20.6087C18.7417 20.6114 18.8067 20.6087 18.8731 20.6127C18.9395 20.6167 19.0045 20.622 19.0722 20.626C19.1399 20.6299 19.2049 20.6207 19.2726 20.626C19.3403 20.6313 19.4026 20.6605 19.469 20.6671C19.5353 20.6737 19.607 20.622 19.6734 20.6286C19.7397 20.6353 19.8114 20.6353 19.8777 20.6432L19.8711 20.6419Z" stroke="#181818" stroke-width="1.64774" stroke-miterlimit="10"/>
<path d="M19.6276 20.3208C19.698 20.3898 19.69 20.354 19.8174 20.3354C19.8718 20.3275 19.9342 20.2916 20.0099 20.281C20.0696 20.2717 20.1399 20.2956 20.2103 20.2837C20.2713 20.2744 20.3363 20.2598 20.4053 20.2478C20.4677 20.2372 20.5182 20.1377 20.5858 20.1257C20.6482 20.1151 20.7278 20.1908 20.7955 20.1775C20.8579 20.1655 20.9123 20.0939 20.9787 20.0806C21.0424 20.0687 21.1074 20.058 21.1738 20.0448C21.2401 20.0315 21.3025 20.0249 21.3689 20.0116C21.4352 19.9983 21.5055 20.0275 21.5719 20.0142C21.6383 20.001 21.69 19.9373 21.7551 19.924C21.8201 19.9107 21.8771 19.8722 21.9435 19.8576C22.0099 19.843 22.0736 19.8377 22.1386 19.8231C22.2036 19.8085 22.2859 19.8802 22.3509 19.8643C22.416 19.8484 22.4823 19.847 22.5474 19.8324C22.6124 19.8178 22.6681 19.7727 22.7332 19.7568C22.7982 19.7409 22.8566 19.7103 22.9216 19.6931C22.9866 19.6758 23.0331 19.6002 23.0968 19.5829C23.1605 19.5657 23.2521 19.6572 23.3158 19.64C23.3795 19.6227 23.4206 19.5245 23.4843 19.506C23.548 19.4874 23.6051 19.4515 23.6688 19.433C23.7325 19.4144 23.8227 19.4927 23.8864 19.4741C23.9501 19.4555 24.0006 19.3931 24.0629 19.3732C24.1253 19.3533 24.1943 19.352 24.258 19.3321C24.3217 19.3122 24.3708 19.2511 24.4332 19.2299C24.4956 19.2087 24.558 19.1874 24.6203 19.1662C24.6827 19.145 24.7332 19.0892 24.7969 19.068C24.8606 19.0468 24.9375 19.072 24.9999 19.0507C25.0623 19.0295 25.1273 19.0136 25.1897 18.991C25.2521 18.9685 25.3304 18.991 25.3927 18.9671C25.4551 18.9432 25.4777 18.8185 25.5387 18.7946C25.5998 18.7707 25.6794 18.792 25.7405 18.7667C25.8015 18.7415 25.8718 18.7389 25.9329 18.7136C25.9939 18.6884 26.0683 18.6924 26.1293 18.6659C26.1904 18.6393 26.2262 18.5557 26.2859 18.5292C26.3456 18.5026 26.4372 18.5398 26.4969 18.5119C26.5566 18.4841 26.5885 18.3951 26.6482 18.3659C26.7079 18.3367 26.769 18.3115 26.8287 18.2823C26.8884 18.2531 26.9243 18.1788 26.9827 18.1483C27.041 18.1178 27.1366 18.1549 27.195 18.1231C27.2534 18.0912 27.2892 18.0196 27.3463 17.9864C27.4034 17.9532 27.4803 17.9519 27.5361 17.9174C27.5918 17.8829 27.6237 17.8085 27.6794 17.7727C27.7351 17.7369 27.8294 17.7594 27.8838 17.7223C27.9382 17.6851 28.0006 17.6559 28.055 17.6174C28.1094 17.5789 28.0935 17.4476 28.1466 17.4077C28.1996 17.3679 28.3191 17.4117 28.3695 17.3706C28.4199 17.3294 28.4836 17.2963 28.5328 17.2525C28.5819 17.2087 28.6124 17.1397 28.6602 17.0945C28.7079 17.0494 28.696 16.9432 28.7424 16.8955C28.7889 16.8477 28.8911 16.853 28.9349 16.8039C28.9787 16.7548 28.9667 16.6579 29.0079 16.6062C29.049 16.5544 29.0955 16.5093 29.1339 16.4549C29.1724 16.4004 29.203 16.3434 29.2375 16.2876C29.272 16.2319 29.3808 16.2173 29.4113 16.1602C29.4418 16.1032 29.4923 16.0488 29.5201 15.989C29.548 15.9293 29.5759 15.8643 29.5984 15.8019C29.621 15.7395 29.5746 15.6533 29.5931 15.5896C29.6117 15.5259 29.5799 15.4529 29.5931 15.3878C29.6064 15.3228 29.6091 15.2618 29.617 15.1954C29.625 15.129 29.7245 15.0733 29.7272 15.0069C29.7298 14.9406 29.6409 14.8756 29.6383 14.8092C29.6356 14.7428 29.6343 14.6818 29.6263 14.6154C29.6184 14.5491 29.6237 14.4867 29.6117 14.4204C29.5998 14.354 29.6781 14.273 29.6622 14.208C29.6462 14.143 29.6396 14.0753 29.6197 14.0103C29.5998 13.9452 29.5613 13.8882 29.5387 13.8258C29.5162 13.7634 29.4418 13.7223 29.4153 13.6612C29.3888 13.6002 29.4233 13.5126 29.3941 13.4515C29.3649 13.3905 29.3131 13.3427 29.2813 13.283C29.2454 13.2166 29.2202 13.145 29.1844 13.0813C29.1485 13.0176 29.0278 13.0003 28.9893 12.9379C28.9508 12.8756 28.9588 12.7813 28.919 12.7203C28.8791 12.6592 28.8088 12.6154 28.7663 12.557C28.7265 12.5026 28.6641 12.4681 28.6243 12.4177C28.5845 12.3673 28.55 12.3089 28.5075 12.2584C28.4651 12.208 28.4107 12.1682 28.3669 12.1204C28.3231 12.0726 28.3111 11.9917 28.2647 11.9452C28.2182 11.8988 28.1877 11.8338 28.1386 11.79C28.0895 11.7462 28.0629 11.6705 28.0125 11.6294C27.9621 11.5882 27.909 11.5405 27.8559 11.502C27.8028 11.4635 27.7325 11.4423 27.6767 11.4064C27.621 11.3706 27.5175 11.4157 27.4604 11.3852C27.4034 11.3547 27.3755 11.2618 27.3158 11.2339C27.256 11.206 27.1658 11.2525 27.1048 11.2286C27.0437 11.2047 26.9973 11.141 26.9335 11.1224C26.8698 11.1038 26.8088 11.0773 26.7438 11.0627C26.6787 11.0481 26.6084 11.0813 26.542 11.0733C26.4757 11.0653 26.4146 11.0574 26.3483 11.0534C26.2819 11.0494 26.2195 11.0561 26.1532 11.0574C26.0868 11.0587 26.0192 10.995 25.9528 11.0003C25.8864 11.0056 25.8267 11.0521 25.7604 11.0627C25.694 11.0733 25.617 11.0189 25.552 11.0335C25.487 11.0481 25.4458 11.149 25.3821 11.1675C25.3184 11.1861 25.2242 11.1052 25.1605 11.1264C25.0968 11.1476 25.0756 11.2737 25.0132 11.2989C24.9508 11.3241 24.8685 11.2963 24.8088 11.3241C24.7491 11.352 24.7013 11.4024 24.6416 11.4343C24.5819 11.4661 24.4929 11.4396 24.4359 11.4728C24.3788 11.506 24.3642 11.6081 24.3071 11.644C24.2501 11.6798 24.1519 11.6493 24.0975 11.6878C24.043 11.7263 24.0563 11.8563 24.0019 11.8961C23.9475 11.9359 23.8997 11.9758 23.8479 12.0182C23.7962 12.0607 23.6913 12.0342 23.6409 12.078C23.5905 12.1217 23.5799 12.208 23.5308 12.2531C23.4817 12.2983 23.3635 12.2664 23.3158 12.3129C23.268 12.3593 23.2998 12.4867 23.2534 12.5332C23.2069 12.5796 23.1154 12.5823 23.0702 12.6314C23.0251 12.6805 22.9919 12.7389 22.9468 12.788C22.9017 12.8371 22.8101 12.8437 22.7663 12.8941C22.7225 12.9446 22.7079 13.0189 22.6655 13.0707C22.623 13.1224 22.5659 13.1609 22.5248 13.2127C22.4837 13.2644 22.4876 13.352 22.4465 13.4051C22.4053 13.4582 22.3138 13.4714 22.274 13.5245C22.2341 13.5776 22.1877 13.6254 22.1479 13.6798C22.1081 13.7342 22.1359 13.8324 22.0975 13.8882C22.059 13.9439 21.97 13.9625 21.9342 14.0182C21.8984 14.074 21.9554 14.1894 21.9196 14.2452C21.8838 14.3009 21.7524 14.2956 21.7179 14.3527C21.6834 14.4097 21.6728 14.4801 21.6383 14.5371C21.6038 14.5942 21.548 14.638 21.5148 14.6951C21.4817 14.7521 21.5042 14.8411 21.4724 14.8995C21.4405 14.9578 21.3715 14.995 21.3397 15.0534C21.3078 15.1118 21.3596 15.2127 21.329 15.2724C21.2985 15.3321 21.2454 15.3772 21.2162 15.4369C21.187 15.4967 21.0795 15.5166 21.0517 15.5763C21.0238 15.636 21.0132 15.705 20.9853 15.7647C20.9574 15.8245 20.9269 15.8842 20.9004 15.9439C20.8738 16.0036 20.8924 16.0846 20.8659 16.1456C20.8393 16.2067 20.8048 16.2624 20.7783 16.3248C20.7517 16.3872 20.688 16.431 20.6628 16.492C20.6376 16.5531 20.692 16.646 20.6681 16.7083C20.6442 16.7707 20.5381 16.7999 20.5142 16.861C20.4903 16.922 20.558 17.0189 20.5354 17.0813C20.5128 17.1436 20.4876 17.2047 20.4664 17.2671C20.4452 17.3294 20.3801 17.3759 20.3589 17.4396C20.3377 17.5033 20.3337 17.5697 20.3124 17.6334C20.2912 17.6971 20.2116 17.7395 20.1917 17.8032C20.1718 17.8669 20.2103 17.9479 20.1917 18.0116C20.1731 18.0753 20.1612 18.1403 20.1426 18.204C20.124 18.2677 20.0935 18.3275 20.0762 18.3912C20.059 18.4549 20.0643 18.5252 20.047 18.5889C20.0298 18.6526 19.9475 18.7004 19.9316 18.7641C19.9156 18.8278 19.9501 18.9048 19.9342 18.9698C19.9183 19.0348 19.9236 19.1025 19.9077 19.1675C19.8917 19.2326 19.8758 19.2949 19.8612 19.36C19.8466 19.425 19.7577 19.4728 19.7444 19.5378C19.7312 19.6028 19.7073 19.6652 19.694 19.7302C19.6807 19.7953 19.7418 19.8749 19.7298 19.9399C19.7179 20.005 19.6144 20.0541 19.6024 20.1191C19.5905 20.1841 19.6409 20.2478 19.6303 20.3142L19.6276 20.3208Z" stroke="#181818" stroke-width="1.64774" stroke-miterlimit="10"/>
<defs>
<filter id="filter0_d_849_18014" x="12.9749" y="17.0801" width="19.2519" height="22.8616" filterUnits="userSpaceOnUse" color-interpolation-filters="sRGB">
<feFlood flood-opacity="0" result="BackgroundImageFix"/>
<feColorMatrix in="SourceAlpha" type="matrix" values="0 0 0 0 0 0 0 0 0 0 0 0 0 0 0 0 0 0 127 0" result="hardAlpha"/>
<feOffset/>
<feGaussianBlur stdDeviation="1.15"/>
<feComposite in2="hardAlpha" operator="out"/>
<feColorMatrix type="matrix" values="0 0 0 0 1 0 0 0 0 0.844975 0 0 0 0 0.51167 0 0 0 1 0"/>
<feBlend mode="normal" in2="BackgroundImageFix" result="effect1_dropShadow_849_18014"/>
<feBlend mode="normal" in="SourceGraphic" in2="effect1_dropShadow_849_18014" result="shape"/>
</filter>
</defs>
</svg>
