<svg width="114" height="115" viewBox="0 0 114 115" fill="none" xmlns="http://www.w3.org/2000/svg">
<path d="M110.654 37.288C106.465 26.1797 98.5918 16.5763 88.4221 10.4093C85.7924 8.81129 83.0463 7.40724 80.2615 6.11178C74.4203 3.43555 68.393 1.2868 62.001 0.441262C55.8883 -0.365488 49.6748 -0.0551997 43.6707 1.36437C32.6632 3.96304 22.8271 9.9516 15.6129 18.6552C11.8429 23.2009 8.50728 28.0259 5.80777 33.2775C3.19359 38.3585 1.17671 43.5093 0.416503 49.2031C-1.02634 60.0787 1.33185 71.3887 6.02497 81.2326C10.912 91.4877 18.8554 100.385 28.4899 106.397C33.5398 109.546 39.0707 111.742 44.9274 112.836C50.6445 113.898 56.6485 114.348 62.4509 113.929C73.4817 113.13 84.1789 109.097 92.9213 102.324C102.114 95.1956 108.831 85.0259 111.903 73.8167C113.555 67.7816 114.052 61.3974 113.99 55.1529C113.928 49.0635 112.803 43.0051 110.654 37.3035V37.288Z" fill="#FF80AD"/>
</svg>
