<svg width="130" height="130" viewBox="0 0 130 130" fill="none" xmlns="http://www.w3.org/2000/svg">
<g clip-path="url(#clip0_1478_59434)">
<path d="M117.457 24.6028C116.327 22.22 114.759 19.9833 112.838 18.177C110.747 16.2169 108.203 14.8027 105.636 13.5728C102.884 12.2508 100.002 11.2515 96.9732 10.8211C93.7526 10.3676 90.4551 10.3753 87.2114 10.3599C80.3936 10.3369 73.5835 10.6136 66.7656 10.5751C59.8479 10.5444 52.9532 9.95254 46.0431 9.99865C39.2483 10.0448 32.0769 10.4368 25.5819 12.589C22.638 13.5651 19.8325 14.9871 17.5266 17.0855C15.6434 18.7996 14.3828 20.9748 13.5296 23.3576C12.9609 24.9641 12.6303 26.609 12.3075 28.2846C12.2845 28.3999 12.2768 28.5075 12.2691 28.6228C12.2614 28.6843 12.246 28.7381 12.2383 28.7996C10.7011 42.7581 10.6703 56.8088 10.5473 70.8365C10.4858 77.9925 10.3859 85.1485 10.0631 92.2969C9.79406 98.2923 10.3398 104.541 13.6757 109.714C16.9578 114.803 22.3921 117.493 28.1645 118.769C31.0239 119.399 33.8525 119.73 36.781 119.561C40.3859 119.353 43.9524 118.915 47.565 118.823C61.7464 118.477 75.8971 120.46 90.0861 119.699C93.7064 119.507 97.3267 119.122 100.901 118.515C104.014 117.985 107.104 117.316 109.994 116.002C112.669 114.787 115.013 112.835 116.427 110.229C117.88 107.554 118.364 104.511 118.557 101.505C118.772 98.1847 118.741 94.8334 118.803 91.5052L119.01 80.4906C119.141 73.5651 119.202 66.6397 119.287 59.7143C119.333 56.1324 119.417 52.5582 119.51 48.9764C119.594 45.8634 119.471 42.6812 119.809 39.5836C120.371 34.426 119.686 29.3146 117.457 24.5951V24.6028Z" fill="#FF80AD"/>
</g>
<g clip-path="url(#clip1_1478_59434)">
<path d="M16.3881 54.1391C28.7527 56.0994 41.2699 56.5418 53.7794 56.5266C66.4263 56.5037 79.0807 56.2367 91.7276 56.0613C98.8748 55.9621 106.014 55.8706 113.162 55.7714C115.61 55.7409 115.618 51.927 113.162 51.9575C100.515 52.1254 87.8679 52.3008 75.2211 52.4686C62.5742 52.6364 50.4461 52.9644 38.0739 52.4228C31.1555 52.1254 24.2447 51.5456 17.4026 50.4549C16.3881 50.2947 15.3508 50.7142 15.0533 51.7897C14.8016 52.6974 15.3584 53.9713 16.3881 54.1391Z" fill="#181818"/>
<path d="M50.0252 17.8382C49.8116 42.3691 49.6819 66.9 49.6362 91.4309C49.6209 98.2959 49.6133 105.161 49.6133 112.026C49.6133 114.482 53.4272 114.482 53.4272 112.026C53.4272 87.4949 53.5111 62.9641 53.6789 38.4332C53.7246 31.5682 53.778 24.7032 53.8391 17.8382C53.8619 15.3821 50.0481 15.3821 50.0252 17.8382Z" fill="#181818"/>
<path d="M54.4339 55.3587C60.0174 55.0002 65.2043 52.9254 70.1166 50.3549C72.4125 49.1497 74.5559 47.6394 76.051 45.4884C76.8061 44.3976 77.3172 43.1314 77.7977 41.8957C78.3164 40.5761 78.591 39.2107 78.4232 37.7919C77.813 32.689 72.7177 28.9285 67.6833 29.4167C62.0998 29.9659 58.263 34.3595 55.6772 38.9666C54.1669 41.6516 52.71 44.4662 52.0617 47.5021C51.726 49.0582 51.5506 50.6676 51.5659 52.2542C51.5735 53.1009 51.6345 53.8255 52.2752 54.4434C52.916 55.0612 53.6025 55.2672 54.4263 55.3511C55.4484 55.4578 56.3332 54.3976 56.3332 53.4441C56.3332 52.3228 55.456 51.6516 54.4263 51.5372C55.0365 51.6058 55.0899 51.8881 54.8382 51.6135L55.395 52.9636C55.2119 48.3945 56.8977 44.4891 59.125 40.599C60.9861 37.3419 63.6177 33.8789 67.5842 33.2458C70.7116 32.75 74.5102 35.0536 74.6704 38.4403C74.7466 40.126 73.694 42.361 72.6643 43.673C71.4057 45.2824 69.6665 46.2893 67.8816 47.2199C63.6864 49.3938 59.1936 51.2397 54.4263 51.5448C53.3965 51.6135 52.5193 52.3762 52.5193 53.4517C52.5193 54.4357 53.3965 55.4273 54.4263 55.3587H54.4339Z" fill="#181818"/>
<path d="M52.0193 56.5234L51.5463 57.2786L50.6615 57.4922L50.2191 58.2092L49.5708 58.6745L49.1436 59.4067L48.4724 59.8644L47.8392 60.3526L47.168 60.8026L46.718 61.512L45.9399 61.8324L45.345 62.3739L44.7424 62.9002L44.2847 63.3808L43.7889 63.8232L43.3694 64.38L43.5067 65.2725L43.2931 66.081L43.1024 66.8362L43.0872 67.599L43.255 68.3617L43.1177 69.1169L43.4685 69.8949L43.2168 70.6424L43.2626 71.4052L43.1634 72.168L43.11 72.9308L43.0566 73.6935L43.1482 74.4563L43.2321 75.2115L43.1024 75.9819L43.4838 76.7141L43.4457 77.4845L43.5296 78.2549L43.3541 79.0559L43.4609 79.8186L43.827 80.5585L43.6287 81.3594L44.1016 82.0917L44.1398 82.8697L44.1169 83.6554L43.9643 84.4487L44.155 85.2115L44.2847 85.9819L44.2161 86.7675L44.6127 87.515L44.3457 88.3236L44.3762 89.1016L44.5974 89.8644L44.8568 90.6195L45.017 91.3823L45.1314 92.1604L44.872 92.9689L44.9331 93.7546L45.3755 94.4944L45.1314 95.3106L45.6501 96.1497L46.512 96.348L47.2901 96.2336L48.0757 96.2183L48.8614 96.2488L49.6165 95.9285L50.3869 95.7988L51.1573 95.6462L51.9811 95.959L52.6981 95.4555L53.5067 95.6157L54.2542 95.3259L55.017 95.2038L55.8026 95.1733L56.5349 94.853L57.3663 95.036L58.1062 94.7996L58.8919 94.7767L59.586 94.258L60.3488 94.0978L61.1955 94.3724L61.882 93.8079L62.7134 94.0444L63.4609 93.8232L64.1856 93.4876L64.9865 93.5791L65.7187 93.2816L66.4968 93.2359L67.2138 92.8621L68.0147 92.9231L68.7851 92.824L69.525 92.5723L70.2801 92.3739L71.0124 92.29L71.7218 92.1146L72.4693 92.1451L73.1482 91.7942L73.9338 91.8781L74.3534 91.3671L74.3991 90.6501L74.1093 89.9102L73.8881 89.1474L73.6135 88.4075L73.3846 87.6447L73.0109 86.9277L72.8049 86.1649L72.8354 85.3259L72.6981 84.5402L72.1794 83.869L72.1032 83.0681L71.9811 82.2748L71.4548 81.6035L71.2183 80.8484L71.3862 79.9712L70.7836 79.3305L70.898 78.4685L70.3488 77.8049L70.1123 77.0498L70.0818 76.226L69.6928 75.5242L69.319 74.8148L69.0521 74.0749L68.9453 73.2664L68.8156 72.4731L68.213 71.8552L68.0299 71.0772L67.9689 70.2534L67.6867 69.5059L67.3663 68.7431L66.901 68.0337L66.4434 67.3167L66.2832 66.4929L66.3366 65.6081L65.7645 64.9216V64.1588L65.4746 63.4876L64.7653 63.1062L64.4601 62.4502L64.0177 61.901L63.5067 61.2374L62.6219 61.1077L62.1642 60.3831L61.5387 59.9483L60.8141 59.6584L60.12 59.3228L59.4182 59.0177L58.6707 58.7965L58.1596 58.0948L57.3358 58.049L56.7485 57.454L56.0086 57.2328L55.2382 57.1108L54.5212 56.7828L53.7431 56.7294L52.9575 56.798L52.0193 56.5234Z" fill="#FFEBC0"/>
<path d="M51.1953 56.0436L50.7224 56.7988L51.2945 56.364C50.5927 56.5318 49.6621 56.7301 49.4943 57.5845C49.4486 57.8285 49.9825 57.2565 49.4943 57.5692C49.3723 57.6455 49.2426 57.737 49.1358 57.8285C48.907 58.0192 48.4646 58.454 48.4188 58.782C48.3807 59.0108 48.907 58.4769 48.4188 58.7668C48.2815 58.8507 48.1442 58.9498 48.0145 59.0414C47.7476 59.2397 47.4959 59.4609 47.2213 59.6592C47.5493 59.4227 47.0229 59.7736 46.9695 59.8118C46.8246 59.9109 46.6416 60.0101 46.5119 60.1398C46.2678 60.3838 46.1 60.7424 45.9169 61.0398L46.489 60.6051C45.5203 61.0017 44.8033 61.5433 44.0557 62.2755C43.6972 62.6264 43.3082 62.9773 42.9879 63.3587C42.5302 63.9079 42.4234 64.3045 42.5302 65.0139C42.5454 65.1283 42.5302 65.3572 42.5988 65.4487C42.5988 65.4487 42.7285 64.8461 42.5531 65.2732C42.4692 65.4792 42.431 65.7233 42.3776 65.9369C42.2403 66.4861 42.1259 67.0124 42.1641 67.5845C42.1793 67.8438 42.2327 68.1642 42.3166 68.4006C42.4615 68.8354 42.3929 68.1642 42.3471 68.2176C42.2785 68.3015 42.2861 68.5456 42.2708 68.6523C42.1564 69.3312 42.4005 69.7813 42.6827 70.3838L42.5836 69.6516C42.2708 70.5974 42.2785 71.5738 42.2174 72.5654C42.1869 72.9925 42.1335 73.4273 42.1564 73.8621C42.1717 74.0986 42.2098 74.335 42.2403 74.5715C42.2632 74.7393 42.2708 74.9147 42.2937 75.0825C42.3395 75.38 42.3471 74.8003 42.3166 75.1359C42.2556 75.8606 42.1412 76.3488 42.576 77.0047C42.8429 77.3938 42.6675 76.6691 42.5531 76.8903C42.4997 76.9971 42.5302 77.2412 42.5302 77.3556C42.5302 77.5616 42.5302 77.7675 42.576 77.9735C42.6065 78.1184 42.6141 78.3549 42.637 78.065C42.6293 78.2328 42.5531 78.4159 42.5226 78.5837C42.4615 78.8964 42.4463 79.1634 42.492 79.4761C42.576 80.0787 42.7666 80.5135 43.0412 81.0627L42.9421 80.3304C42.8506 80.6966 42.6751 81.1314 42.7285 81.5128C42.759 81.7416 42.8658 81.8941 42.9802 82.0848C43.0336 82.1764 43.1023 82.2984 43.1709 82.3823C43.3616 82.5959 43.148 82.5654 43.2319 82.3594C43.2777 82.2526 43.2014 82.0772 43.1938 82.3442C43.1938 82.4739 43.2091 82.6035 43.2167 82.7408C43.2167 82.8476 43.2167 82.9468 43.2167 83.0536C43.2167 83.2443 43.2167 83.4426 43.1938 83.6409C43.2243 83.2519 43.1328 83.885 43.1175 83.9918C42.9802 84.7469 43.3006 85.3724 43.3692 86.1123C43.3845 86.303 43.354 86.1504 43.354 86.0589C43.354 86.1428 43.3464 86.242 43.3311 86.3259C43.3082 86.4708 43.2777 86.6539 43.2853 86.8064C43.3158 87.2412 43.6133 87.6531 43.8193 88.0269L43.7201 87.2946C43.4837 88.0192 43.3387 88.6447 43.4913 89.4151C43.6133 90.0559 43.9108 90.6584 44.0481 91.2915C44.1168 91.5967 44.1396 91.9094 44.2083 92.2221C44.2922 92.6417 44.3761 91.7721 44.1625 92.184C44.0862 92.3365 44.01 92.5806 43.9795 92.7561C43.8345 93.6104 44.1549 94.3045 44.5744 95.0139L44.4753 94.2816C44.3151 94.8308 44.0939 95.3114 44.3532 95.8682C44.5897 96.3716 44.9406 96.9285 45.4669 97.1192C45.9932 97.3099 46.5424 97.3404 47.0916 97.2641C47.2136 97.2488 47.3433 97.2183 47.4653 97.2107C47.5493 97.2107 47.206 97.2183 47.5416 97.2259C47.7399 97.2259 47.9383 97.2107 48.1366 97.2183C48.7163 97.2183 49.1206 97.2183 49.6621 96.9895C49.7842 96.9361 49.8986 96.8751 50.0206 96.8369C50.1961 96.7835 49.7689 96.898 50.0435 96.8674C50.2647 96.8369 50.4859 96.7912 50.7071 96.753C50.7605 96.7454 51.386 96.6157 51.3936 96.6157C51.4623 96.9056 50.6385 96.425 51.2563 96.7301C51.3784 96.7912 51.5233 96.8446 51.653 96.8827C52.3166 97.0505 52.698 96.6844 53.2091 96.3259L52.4768 96.425C52.9039 96.5089 53.3769 96.6691 53.8116 96.5776C54.1625 96.5013 54.4753 96.3106 54.8338 96.242C54.9406 96.2191 55.0397 96.2038 55.1465 96.1886C54.9253 96.2038 55.5126 96.1428 55.1465 96.1886C55.3677 96.1733 55.5813 96.1886 55.7872 96.1657C56.2373 96.1123 56.6339 95.8911 57.0458 95.708L56.3136 95.8072C57.0458 95.9674 57.5264 96.0284 58.2434 95.8072C58.5409 95.7156 57.9535 95.8072 58.2968 95.7919C58.457 95.7843 58.6095 95.7919 58.7697 95.7767C59.1587 95.7538 59.3723 95.647 59.6774 95.4411C59.7994 95.3571 59.9291 95.2275 60.0588 95.1588C59.7384 95.3266 60.1351 95.1741 60.2495 95.1436C60.8978 94.991 60.1656 95.0902 60.1732 95.0749L60.6385 95.2198C61.5157 95.4716 61.9352 95.052 62.5836 94.5181L61.653 94.7622C62.1107 94.8919 62.5378 95.0673 63.0184 94.991C63.415 94.93 63.8193 94.7469 64.1854 94.5867C64.3075 94.5333 64.4448 94.4876 64.5515 94.4189C64.8643 94.2206 64.2541 94.7469 64.2617 94.4876C64.2617 94.4876 64.9406 94.5639 64.9787 94.5639C65.1465 94.5639 65.2685 94.5257 65.4211 94.4723C65.5431 94.4342 65.6728 94.3808 65.7872 94.3198C66.0771 94.1825 65.7872 94.274 65.8483 94.2587C66.3212 94.1672 66.6949 94.2435 67.1526 94.0147C67.2518 93.9689 67.3586 93.9155 67.4425 93.8621C67.6637 93.7248 67.7857 93.8087 67.4882 93.7935C67.0077 93.7629 67.8544 93.9079 67.9993 93.9002C68.7392 93.8926 69.4104 93.6409 70.1122 93.4426C70.2113 93.4121 70.3181 93.3892 70.4173 93.3587C70.7682 93.2595 70.1808 93.3816 70.4325 93.3358C70.6309 93.3053 70.8368 93.2977 71.0428 93.2671C71.3097 93.229 71.5615 93.1527 71.8208 93.0993C71.9047 93.0841 72.103 93.0688 71.8055 93.0917C71.9657 93.0841 72.1412 93.1146 72.3014 93.1146C72.6827 93.1146 73.2243 92.9849 73.5218 92.7103C73.7659 92.4891 73.2472 92.7332 73.2777 92.779C73.293 92.8018 73.6286 92.8171 73.6515 92.8171C73.9337 92.84 74.1778 92.8781 74.4448 92.7179C76.1686 91.7034 75.0168 89.5295 74.5515 88.1413C74.4066 87.7065 74.2922 87.3022 74.0862 86.898C74.0252 86.7835 73.9566 86.6691 73.9108 86.5547C73.8574 86.4555 73.8727 86.4861 73.9489 86.6462L73.8803 86.3869C73.8574 86.2801 73.8193 86.1809 73.7964 86.0742C73.7201 85.7157 73.7888 86.3945 73.7964 86.0131C73.8116 85.4792 73.7964 84.9834 73.6743 84.4647C73.5523 83.9765 73.1862 83.6104 72.8811 83.2137L73.1633 83.885C73.1175 83.3739 73.0794 82.8552 72.9802 82.3518C72.9192 82.0467 72.8429 81.8484 72.6599 81.5814C72.5759 81.4594 72.4692 81.3297 72.37 81.2076C71.9734 80.7423 72.4692 81.3144 72.3929 81.3221C72.3776 81.3221 72.2708 80.9178 72.2632 80.9025C72.0344 80.3915 72.431 81.0551 72.1793 81.078C72.2098 81.078 72.3242 80.361 72.3319 80.2771C72.4234 79.5219 71.9657 79.1787 71.4928 78.6676L71.775 79.3388C71.8818 78.5303 71.8895 78.1108 71.3326 77.47C71.2792 77.409 71.2335 77.3251 71.1648 77.2717C70.8673 77.02 71.5767 77.47 71.2869 77.5234C71.2792 77.5234 71.1648 77.1344 71.1572 77.1115C71.1343 77.0505 71.1114 76.9742 71.0962 76.9132C71.0428 76.7073 71.119 77.1878 71.0962 76.9666C71.0733 76.7835 71.0962 76.5928 71.0733 76.4098C71.0351 75.8148 70.7071 75.3648 70.4325 74.8537C70.3486 74.7012 70.2647 74.5486 70.1885 74.396C70.3105 74.6554 70.2037 74.4189 70.1579 74.2893C70.1351 74.2206 69.9596 73.7782 70.0206 73.9613C70.074 74.1291 69.9825 73.6943 69.9673 73.6028C69.891 73.0002 69.891 72.2908 69.502 71.8026C69.4028 71.6806 69.2731 71.5509 69.1511 71.4441C68.7087 71.0551 69.1968 71.5738 69.1511 71.5814C69.1511 71.5814 69.0519 71.139 69.0367 71.078C68.9451 70.7118 69.0367 71.1924 69.0062 70.9407C68.8841 69.705 68.457 68.66 67.7781 67.6226C67.7094 67.5158 67.6408 67.409 67.5721 67.3022C67.5035 67.1954 67.267 66.7149 67.3814 67.0505C67.328 66.8827 67.3052 66.692 67.2747 66.5166C67.2136 66.1504 67.2365 66.6539 67.2747 66.2649C67.3662 65.3648 67.0153 64.9452 66.4661 64.2816L66.7483 64.9529C66.7483 64.2893 66.7102 63.6714 66.3441 63.0917C66.161 62.8018 65.9322 62.6493 65.6271 62.512C65.0321 62.2374 65.6042 62.6112 65.5889 62.6112C65.5737 62.6112 65.3982 62.1916 65.3906 62.1764C65.1389 61.7111 64.7499 61.261 64.4066 60.8568C63.9642 60.3381 63.5523 60.3152 62.8963 60.2237L63.4684 60.6584C63.1938 60.216 62.9726 59.8118 62.5454 59.5067C62.1183 59.2015 61.6759 59.0185 61.1877 58.8049C61.0199 58.7286 61.4394 58.9193 61.1877 58.8049C61.0504 58.7362 60.9055 58.6676 60.7682 58.6066C60.608 58.5303 60.4402 58.4616 60.28 58.3854C59.8452 58.1947 59.4104 58.0497 58.9528 57.9125L59.5248 58.3472C59.296 58.0269 59.029 57.5082 58.6782 57.3099C58.3273 57.1115 57.7705 57.1573 57.3662 57.1344L58.0374 57.4166C57.5721 56.9437 57.2365 56.6234 56.5805 56.4403C56.3517 56.3793 56.1381 56.3182 55.9017 56.2877C55.8254 56.2801 55.3219 56.1886 55.7033 56.303C55.566 56.2649 55.4364 56.1809 55.3143 56.1199C54.8033 55.8835 54.2998 55.7996 53.7277 55.8148C53.5752 55.8148 52.7972 55.8453 53.1938 55.8987C52.8963 55.8606 52.5836 55.7233 52.2937 55.6394C51.1114 55.3038 50.608 57.142 51.7903 57.4777C52.5073 57.6836 53.0031 57.737 53.7277 57.7218C53.8422 57.7218 53.9642 57.7294 54.0786 57.737L54.399 57.7599C54.6431 57.7828 54.5515 57.7523 54.1091 57.6607C54.1168 57.6455 54.91 58.0421 55.0092 58.065C55.2533 58.1413 55.5279 58.1337 55.7796 58.1871C55.9322 58.2252 56.0771 58.2862 56.2296 58.3244L56.4814 58.4006C56.1229 58.1489 56.0313 58.1108 56.2144 58.2862C56.6187 59.0261 57.4577 59.049 58.1824 59.0871L57.3586 58.6142C57.8086 59.2321 58.1137 59.6897 58.8917 59.888C58.968 59.9033 59.3647 60.0253 58.9985 59.8957C59.1511 59.9491 59.3036 60.0253 59.4562 60.094C59.6698 60.1855 59.8757 60.2847 60.0893 60.3838C60.3486 60.5059 60.608 60.6203 60.875 60.7271C60.997 60.7805 61.1496 60.8186 61.2716 60.8873C60.9207 60.689 61.3403 60.9788 61.4013 61.0246C61.8742 61.406 61.5081 60.9102 61.4013 60.9407C61.4165 60.9407 61.653 61.3373 61.653 61.3373C61.8666 61.6729 62.0268 61.9399 62.4386 62.0696C62.5607 62.1077 62.7133 62.1077 62.8429 62.1306C63.5599 62.2374 62.8582 62.0086 62.8963 61.9857C62.8963 61.9857 63.3387 62.5501 63.3845 62.6112C63.4913 62.7485 63.621 62.8781 63.7125 63.0231C63.8956 63.2977 63.6133 62.8095 63.7583 63.1451C63.9108 63.5036 64.0252 63.7629 64.3608 63.9918C64.4753 64.0757 64.6278 64.1443 64.7499 64.2054C65.3067 64.4571 64.6888 64.0681 64.7117 64.0604C64.6965 64.0604 64.9787 64.5867 64.9558 64.6325C64.9863 64.5562 64.8795 64.007 64.849 64.5791C64.8033 65.3419 65.238 65.769 65.6957 66.3182L65.4135 65.647C65.3677 66.3793 65.3372 67.142 65.6499 67.8362C65.894 68.3625 66.3288 68.7973 66.5958 69.3083C66.6873 69.4914 66.7636 69.6897 66.8322 69.8804C66.9009 70.0406 66.8933 70.0253 66.817 69.8423L66.9085 70.094C66.9314 70.1626 67.1374 70.7576 67.0458 70.3381C67.0916 70.5364 67.0763 70.7576 67.0916 70.9559C67.1602 71.6729 67.2975 72.2832 67.801 72.8171L68.0451 73.0688C68.2129 73.2595 68.1747 73.1756 67.923 72.8171C67.923 72.8171 68.0145 73.3663 68.0222 73.4121C68.0679 73.6943 67.9917 73.1451 68.0451 73.557C68.0679 73.7324 68.0832 73.9079 68.1137 74.0757C68.2281 74.7698 68.5332 75.3953 68.8689 76.0131C68.8994 76.0742 69.2655 76.7149 69.2579 76.7149C69.174 76.2725 69.1358 76.181 69.1587 76.4327L69.174 76.7683C69.1816 76.9666 69.174 77.1497 69.2197 77.348C69.3723 78.0955 69.7766 78.6066 70.2495 79.1863L69.9673 78.515C69.9139 78.9117 69.7766 79.3617 69.9367 79.7431C70.0969 80.1245 70.4707 80.4144 70.7377 80.6966L70.4936 79.766C70.3639 80.4372 70.2495 80.9483 70.4707 81.6043C70.5698 81.9094 70.6843 82.1382 70.875 82.4052C70.9817 82.5501 71.0962 82.7408 71.2258 82.8552C71.3936 83.0078 71.1724 82.5349 71.1114 82.7256C71.0733 82.8476 71.1801 83.1298 71.1953 83.2595C71.2106 83.3739 71.2106 83.3358 71.1801 83.1527L71.203 83.4273C71.2335 83.8087 71.2563 84.152 71.4547 84.4952C71.5386 84.6401 72.0573 85.0902 72.0191 85.2275C71.8361 84.8385 71.775 84.7622 71.8284 84.9986L71.8666 85.2351C71.8666 85.2961 71.9047 85.8453 71.8971 85.4182C71.8971 86.0513 71.8818 86.5776 72.0954 87.1802C72.2022 87.4777 72.3624 87.7446 72.4997 88.0269C72.6522 88.3396 72.431 87.798 72.5226 88.0879C72.5836 88.2786 72.637 88.4693 72.698 88.6523C72.8505 89.1176 73.0107 89.5829 73.1633 90.0482C73.2472 90.2999 73.354 90.544 73.4379 90.7957C73.5447 91.1237 73.4608 90.4754 73.4455 90.8796C73.4455 91.0551 73.4226 91.2382 73.4074 91.4136L73.6896 90.7423L73.2701 91.2534L73.9413 90.9712C73.6057 90.933 73.2396 90.8339 72.9039 90.9178C72.7361 90.9559 72.5607 91.078 72.4081 91.1542L72.1335 91.2992C71.9123 91.406 72.0115 91.3831 72.4234 91.2382C72.4234 91.2153 71.5081 91.2382 71.4242 91.2534C71.2182 91.2839 71.0199 91.3602 70.8139 91.406C71.1877 91.3221 70.5546 91.4365 70.4783 91.4441C69.8681 91.5128 69.2579 91.6806 68.6858 91.9018C68.457 91.9857 68.9528 91.8865 68.4875 91.9552C68.3502 91.978 68.1976 92.0009 68.0603 92.0086C67.7857 92.0238 67.4959 91.9247 67.2213 91.9552C67.145 91.9552 66.0237 92.3747 66.0618 92.4433C66.0313 92.4052 66.817 92.3594 66.1991 92.3518C66.0466 92.3518 65.8788 92.3518 65.7262 92.3747C65.4974 92.4052 65.3982 92.451 65.1846 92.5272C65.0779 92.5654 64.5515 92.6951 64.9482 92.6722C64.6049 92.6951 64.2846 92.5425 63.9337 92.6264C63.7735 92.6645 63.5752 92.7866 63.4226 92.8552C63.3464 92.8858 62.7819 93.0993 63.1709 92.9697C63.0184 93.0231 62.7438 93.0383 62.6141 93.1298C62.4768 93.2366 62.9802 93.2595 62.8048 93.1298C61.9886 92.4967 61.1267 93.2519 60.5241 93.7477L61.4547 93.5036C60.8902 93.3205 60.4783 93.168 59.8757 93.2824C59.7384 93.3053 58.312 93.7858 58.457 93.9765C58.4264 93.9308 59.1663 93.9231 58.6705 93.885C58.5256 93.8697 58.3654 93.885 58.2205 93.9002C57.9917 93.9231 57.7933 93.9689 57.5721 94.0299C57.5721 94.0299 57.1602 94.152 57.1602 94.1596C57.145 94.0986 57.9306 94.2816 57.2975 94.0986C57.0306 94.0223 56.6873 93.9384 56.4127 93.9765C56.161 94.007 55.8483 94.1672 55.6118 94.2816C55.0473 94.5639 56.1839 94.2969 55.4135 94.2893C54.9558 94.2893 54.4371 94.3427 54.0023 94.4571C53.8879 94.4876 53.4226 94.6173 53.354 94.7164C53.3235 94.7622 53.9795 94.8385 53.5294 94.7088C53.3997 94.6707 53.2548 94.6554 53.1175 94.6249C52.4005 94.4952 52.0649 94.8003 51.5004 95.1893L52.2327 95.0902C51.4318 94.7851 51.0123 94.7698 50.1732 94.9224C49.624 95.0215 49.0062 95.0978 48.5256 95.4105C48.2586 95.586 49.0977 95.4334 48.6248 95.3343C48.4646 95.3038 48.2739 95.319 48.1137 95.3114C47.8544 95.3114 47.5874 95.3114 47.328 95.3266C47.0535 95.3495 46.6721 95.3572 46.4051 95.4487C46.1534 95.4792 46.2602 95.4868 46.7102 95.4563L46.4203 95.3877C46.2525 95.3343 46.0695 95.3114 45.9017 95.2656L46.4737 95.7004L45.9551 94.8613L46.0542 95.5936C46.2602 94.8919 46.4127 94.4266 46.0237 93.7477C46.0084 93.7172 45.8025 93.3358 45.7796 93.3358C45.8559 93.3205 45.8711 94.0299 45.8635 93.4655C45.8635 93.3205 45.8254 93.1756 45.833 93.0383C45.8178 93.3663 45.8788 92.9849 45.9245 92.84C46.2678 91.8026 45.8406 90.6508 45.5279 89.6516C45.4592 89.4227 45.383 89.1939 45.3296 88.9651C45.3143 88.8964 45.3372 89.2015 45.3296 88.8888C45.3296 88.721 45.2991 88.5456 45.3067 88.3854C45.2762 88.7286 45.4974 87.9887 45.5279 87.8057C45.6118 87.3938 45.4669 87.1115 45.2838 86.7607C45.2686 86.7301 45.0473 86.364 45.0626 86.3488C45.116 86.303 45.0779 87.0353 45.1999 86.4784C45.2609 86.1809 45.2304 85.8911 45.1846 85.5936C45.1541 85.3724 45.116 85.1512 45.0702 84.9376C45.0397 84.8003 45.0092 84.6478 44.9634 84.5181C44.7956 84.0528 44.9329 84.5791 44.9024 84.6249C45.1541 84.2054 45.1007 83.3205 45.0931 82.8476C45.0779 82.0391 44.8795 81.5661 44.4524 80.9025L44.5515 81.6348C44.727 80.933 44.8338 80.483 44.5058 79.8041C44.4524 79.6973 44.2998 79.1787 44.3761 79.5372C44.3456 79.3999 44.3456 79.2549 44.3151 79.1176C44.2083 78.5456 44.3608 79.3007 44.2846 79.2778C44.2769 79.2778 44.3914 78.8049 44.399 78.7591C44.5058 78.2481 44.399 77.7828 44.4066 77.2717C44.4219 76.5623 44.2541 76.1504 43.9261 75.5173L44.0252 76.2496C44.2388 74.991 44.01 73.7553 44.1015 72.4815C44.1473 71.8865 44.1396 71.2916 44.1778 70.7042C44.1549 71.0627 44.2541 70.5974 44.2922 70.4601C44.3608 70.2237 44.4448 70.033 44.4066 69.7813C44.3532 69.3999 44.1015 69.0032 43.9413 68.6523L44.0405 69.3846C44.132 68.8964 44.2388 68.4616 44.1473 67.9658C44.1168 67.8133 44.071 67.6607 44.0481 67.5082C44.0023 67.226 44.0557 67.7065 44.0481 67.4853C44.0481 67.3404 44.0481 67.1954 44.0557 67.0505C44.071 66.6081 43.9871 67.3175 44.0634 66.959C44.1625 66.5013 44.3456 66.0436 44.4219 65.586C44.4981 65.1283 44.3685 64.6249 44.2922 64.1443L44.193 64.8766C44.2922 64.7469 44.727 64.2588 44.4981 64.48C44.6507 64.3274 44.8261 64.1977 44.9787 64.0528C45.3143 63.7248 45.6347 63.4121 45.9856 63.0993C46.1381 62.9697 46.3059 62.84 46.4356 62.6874C46.7483 62.3213 46.2296 62.7561 46.2296 62.7561C46.2373 62.7103 46.5882 62.6112 46.6644 62.5806C47.1145 62.3899 47.8544 61.9704 47.9383 61.3983C47.9612 61.2458 47.4806 61.6577 47.7857 61.5585C47.9001 61.5204 48.0908 61.3602 48.19 61.2839C48.3654 61.1619 48.5332 61.0322 48.701 60.9025C48.8231 60.811 48.9451 60.7118 49.0672 60.6203C49.2121 60.5135 48.8536 60.7729 49.0901 60.6203C49.3265 60.4678 49.624 60.3076 49.8223 60.1092C49.9901 59.9338 50.1808 59.6287 50.2724 59.3999C50.4402 58.9803 50.1046 59.4761 50.1427 59.4685C50.2495 59.4304 50.3639 59.3083 50.4554 59.2397C50.9436 58.8888 51.1801 58.5074 51.4928 57.9964L50.9207 58.4311C51.3097 58.3396 51.8055 58.3015 52.1259 58.0498C52.4463 57.798 52.637 57.3556 52.8429 57.0276C53.4989 55.9826 51.8437 55.0292 51.1953 56.0665V56.0436Z" fill="#FFEBC0"/>
<path d="M48.738 75.472C49.2643 75.472 49.6305 75.472 50.0958 75.2126C50.1873 75.1592 50.2865 75.0982 50.3856 75.0524C50.1797 75.144 50.4543 75.0524 50.4924 75.0372C50.6755 74.9838 50.8586 74.938 51.0416 74.877C51.2933 74.7931 51.5756 74.7168 51.812 74.5948C52.0103 74.4956 52.1324 74.5948 51.7663 74.5185C51.8883 74.5414 52.0103 74.5566 52.1248 74.5719C52.6587 74.6482 52.9943 74.4804 53.4825 74.2591H52.9028L53.6885 74.6253C53.9325 74.7397 54.1766 74.7168 54.3826 74.5337L55.0462 73.954L54.4894 74.099C54.9394 74.1829 55.5191 74.427 55.9081 74.099C56.0149 74.0151 56.3429 73.6871 56.3811 73.5574C56.4344 73.3667 56.1141 73.6108 56.2743 73.5955C56.4116 73.5803 56.5946 73.4659 56.7243 73.4125C56.8387 73.3667 56.9836 73.3286 57.0828 73.2675C57.2811 73.1379 57.2659 73.3286 56.9684 73.2065C57.2049 73.3057 57.5557 73.3591 57.8074 73.3972C57.9905 73.4277 58.1354 73.4277 58.3109 73.382C58.4787 73.3438 58.6465 73.2523 58.8067 73.1913C58.8677 73.1684 59.1118 73.1302 58.8906 73.1379C59.3483 73.1226 59.6839 73.2447 60.1415 73.1302C60.6221 73.0082 60.6297 73.0311 61.2476 73.0768C62.0637 73.1379 62.857 73.0921 63.6656 73.1455C64.3978 73.1913 64.3978 72.0471 63.6656 72.0013C62.9333 71.9556 62.1629 72.009 61.4001 71.9479C61.0416 71.9174 60.6526 71.8564 60.2941 71.9098C60.0958 71.9403 59.8975 72.0166 59.7068 72.0624C59.6381 72.0776 59.4093 72.0852 59.6229 72.0929C59.5237 72.0929 59.4169 72.07 59.3177 72.0547C58.8906 72.0013 58.4939 71.9937 58.0973 72.2454C57.899 72.3675 57.8151 72.2225 58.1659 72.3217C58.0668 72.2912 57.9524 72.2759 57.8532 72.253C57.6549 72.2073 57.4337 72.131 57.2277 72.1081C56.3734 72.0166 55.5801 72.7336 55.0767 73.3133L55.6335 73.1684C55.3055 73.1074 54.8097 72.9167 54.4741 73.0082C54.1385 73.0997 53.8105 73.5116 53.5588 73.7405L54.2529 73.6489C53.9554 73.5116 53.5817 73.2447 53.2537 73.2141C52.9257 73.1836 52.529 73.443 52.2315 73.5727L52.674 73.5116C52.3307 73.4582 51.9798 73.3667 51.6366 73.443C51.2781 73.5269 50.9272 73.7176 50.5763 73.8244C50.2254 73.9312 49.8975 74.0151 49.5618 74.1981C49.4856 74.2439 49.3483 74.282 49.2872 74.3507C49.2033 74.4422 49.4856 74.3888 49.3559 74.3278C49.211 74.2591 48.883 74.3278 48.7151 74.3278C47.9829 74.3278 47.9753 75.4796 48.7151 75.472H48.738Z" fill="#FFB218"/>
<path d="M49.6699 79.3477L50.0208 79.2257C50.0894 79.2028 50.4632 79.0731 50.2496 79.1189C50.5319 79.0579 50.8293 79.096 51.1116 79.0197C51.615 78.8901 52.0193 78.7146 52.5456 78.6307C52.66 78.6155 52.7744 78.5926 52.8888 78.5697C52.927 78.5697 53.3618 78.4934 53.1329 78.5239C53.438 78.4858 53.7584 78.4858 54.0559 78.3942C54.3152 78.318 54.5517 78.1502 54.811 78.0739C54.7729 78.0891 54.811 78.0739 54.9712 78.0586C55.0551 78.051 55.5738 77.99 55.3526 77.9823C55.9781 77.9976 56.3671 78.0815 56.9621 77.8145C57.2138 77.7001 57.3816 77.5323 57.5494 77.3111C57.5952 77.2501 57.6714 77.1967 57.7096 77.1357C57.7859 76.9907 57.4121 77.2348 57.5875 77.1967C57.763 77.1586 57.9384 77.0594 58.1215 77.0212C57.9308 77.0594 58.3579 77.0212 58.4113 77.0212C58.5105 77.0212 58.6097 77.0212 58.7088 77.0212C59.0826 77.0441 59.2123 77.0823 59.3953 77.1204C59.6852 77.1814 60.0208 77.3035 60.3183 77.2425C60.4251 77.2196 60.5547 77.1433 60.6539 77.1052C60.7531 77.0594 61.0963 76.9145 61.0505 76.9297C60.9666 76.945 61.3785 76.9297 61.4624 76.9297C61.5845 76.9297 61.7065 76.9297 61.821 76.9221C62.1184 76.9145 62.4235 76.9221 62.721 76.8763C63.2779 76.7924 63.8576 76.556 64.3915 76.3881C65.0933 76.1746 64.7958 75.0685 64.0864 75.2821C63.583 75.4347 63.0719 75.633 62.5532 75.7398C62.6371 75.7245 62.538 75.7398 62.3549 75.7474C62.1947 75.7474 62.0269 75.7627 61.8667 75.7703C61.5997 75.7779 61.3328 75.7703 61.0734 75.7855C60.8141 75.8008 60.6005 75.9 60.3488 75.9991C60.2878 76.022 59.8835 76.2203 60.1657 76.1288C60.3488 76.0678 60.2801 76.1441 60.1581 76.1059C60.0513 76.0678 59.9369 76.0601 59.8301 76.0373C59.2885 75.9305 58.7546 75.8542 58.1978 75.8771C57.5952 75.9 57.0841 76.0983 56.6875 76.5483C56.5273 76.7314 56.2908 76.8382 56.6493 76.7009C56.5044 76.7543 56.3442 76.7924 56.1993 76.8534C56.1535 76.8763 56.1001 76.8916 56.0467 76.9068C55.9018 76.9373 56.2069 76.8992 56.062 76.9068C55.8866 76.9145 55.6959 76.8611 55.5204 76.8534C55.0094 76.8229 54.4983 76.9526 54.0254 77.1585C53.8957 77.2119 53.7126 77.2653 53.5906 77.3416C53.705 77.2653 53.8881 77.2958 53.5219 77.3187C53.2473 77.3416 52.9804 77.3798 52.7058 77.4255C52.1261 77.5247 51.554 77.5704 51.0124 77.8069C50.7149 77.9366 51.0353 77.8603 50.7149 77.8984C50.5547 77.9213 50.3869 77.9213 50.2267 77.9518C49.9293 78.0052 49.647 78.1196 49.3648 78.2188C48.6707 78.4629 48.9682 79.5689 49.6699 79.3248V79.3477Z" fill="#FFB218"/>
<path d="M50.3187 84.1991C50.5628 84.0466 50.7993 83.894 51.0434 83.7414C51.1654 83.6652 51.4705 83.5584 51.5468 83.4287C51.646 83.2609 51.3714 83.4287 51.44 83.4363C51.5239 83.4363 51.6078 83.4211 51.6841 83.4211C52.3401 83.4134 53.019 83.299 53.6521 83.116C53.9419 83.0321 54.1707 82.8948 54.4148 82.7117C54.4759 82.6583 54.5598 82.6278 54.6208 82.5744C54.5293 82.6583 54.3004 82.5744 54.4759 82.6354C54.6132 82.6888 54.964 82.6583 55.109 82.6354C55.6963 82.5668 56.3294 82.1549 56.871 81.9032L56.4286 81.9642C56.8176 82.071 57.2219 82.2617 57.6261 82.2006C58.0304 82.1396 58.4194 81.9718 58.8008 81.865C59.083 81.7887 59.7161 81.6133 59.8839 81.3616C59.9602 81.2472 59.6551 81.3006 59.8153 81.3921C59.8763 81.4302 60.1662 81.3997 60.2348 81.3921C60.4179 81.3921 60.5781 81.3845 60.7611 81.3463C61.3485 81.2395 61.3485 81.2243 61.974 81.148C62.1341 81.1251 62.2943 81.1022 62.4545 81.0794C62.5765 81.0641 62.752 81.0641 62.8664 81.0107C63.0723 80.9192 62.6604 80.9039 62.7825 81.026C63.0647 81.3082 63.6902 81.2853 64.0258 81.1861C64.5674 81.026 64.5521 81.0336 65.1929 81.0641C65.9251 81.1022 65.9251 79.9581 65.1929 79.9199C64.9335 79.9047 64.6513 79.8589 64.3996 79.8818C64.2547 79.897 64.1402 79.9428 64.0029 79.981C63.8809 80.0191 63.3775 80.1411 63.6368 80.1488C63.919 80.1564 63.469 80.0496 63.3851 80.0191C63.263 79.9733 63.1257 79.9047 62.9961 79.8818C62.6833 79.8284 62.3325 79.9352 62.0197 79.981C61.8214 80.0115 61.974 79.9886 62.0197 79.981C61.9511 79.9886 61.8748 79.9962 61.8061 80.0038C61.6383 80.0267 61.4705 80.0343 61.3027 80.0649C61.0052 80.1106 60.7154 80.2022 60.4179 80.2403C60.2577 80.2632 60.5704 80.225 60.4179 80.2403C60.334 80.2403 60.2501 80.2403 60.1738 80.2403C60.0289 80.2403 59.8611 80.2174 59.7161 80.2327C59.3958 80.2708 59.1517 80.4691 58.8694 80.6217C58.8161 80.6522 58.7627 80.6903 58.7093 80.7132C58.7474 80.698 58.8847 80.6446 58.7093 80.698C58.5415 80.7514 58.3584 80.7895 58.183 80.8353C57.9312 80.9039 57.6032 80.9344 57.382 81.0641C57.4659 81.0183 57.6719 81.1556 57.382 81.026C57.2295 80.9573 57.0159 80.9115 56.8557 80.8734C56.4896 80.7971 56.276 80.9192 55.948 81.0641C55.7116 81.1785 55.4675 81.2853 55.231 81.3921C55.1395 81.4302 54.7581 81.537 55.0174 81.5065C55.2768 81.476 54.7199 81.4684 54.6208 81.476C54.3309 81.476 54.1555 81.5218 53.9038 81.6743C53.4766 81.9413 53.5529 81.9489 53.1639 82.0557C52.424 82.2464 52.0807 82.1854 51.4095 82.2922C50.8298 82.3837 50.2501 82.8948 49.7543 83.2075C49.1364 83.5965 49.7085 84.5881 50.334 84.1991H50.3187Z" fill="#FFB218"/>
<path d="M51.7864 54.0249C48.6514 53.5672 45.5545 53.1477 42.3966 53.613C39.6277 54.0173 36.897 55.0165 34.4027 56.2827C29.5972 58.7389 25.6613 63.0714 25.2036 68.6321C24.807 73.4605 28.1098 78.5863 33.0831 79.3567C35.9054 79.7915 38.6666 78.7999 41.1151 77.465C43.3577 76.2446 45.4172 74.6046 47.1029 72.6901C50.9778 68.2812 53.3501 62.1332 53.0373 56.2293C52.9076 53.7885 49.0938 53.7732 49.2234 56.2293C49.4523 60.5467 48.0182 64.9402 45.5774 68.4795C43.3272 71.7442 39.643 74.6885 35.707 75.5276C32.1906 76.2827 29.1472 73.285 28.987 69.8525C28.781 65.5657 31.8474 62.0951 35.3638 60.0814C37.5148 58.8457 39.9023 57.9532 42.3356 57.4574C45.1197 56.893 47.9877 57.282 50.7642 57.6862C51.7787 57.8388 52.8161 57.4345 53.1136 56.3514C53.3577 55.4513 52.8085 54.1546 51.7787 54.002L51.7864 54.0249Z" fill="#181818"/>
</g>
<defs>
<clipPath id="clip0_1478_59434">
<rect width="110" height="109.877" fill="white" transform="translate(10 10)"/>
</clipPath>
<clipPath id="clip1_1478_59434">
<rect width="100" height="97.8718" fill="white" transform="translate(15 16)"/>
</clipPath>
</defs>
</svg>
