<svg width="114" height="114" viewBox="0 0 114 114" fill="none" xmlns="http://www.w3.org/2000/svg">
<path d="M57.0137 113.674V114.003C56.5813 114.003 56.1523 113.757 55.7199 113.746C55.2875 113.736 54.8483 113.928 54.4193 113.907C53.9904 113.887 53.5614 113.757 53.129 113.729C52.6966 113.702 52.2642 113.708 51.8353 113.671C51.4063 113.633 50.9636 113.667 50.5381 113.619C50.1126 113.571 49.6974 113.372 49.2684 113.314C48.8394 113.256 48.4345 113.05 48.009 112.981C47.5834 112.913 47.1202 113.057 46.6981 112.981C46.276 112.906 45.8882 112.632 45.4661 112.543C45.044 112.453 44.6254 112.364 44.2033 112.265C43.7812 112.165 43.3247 112.22 42.9095 112.114C42.4943 112.008 42.0516 111.966 41.6364 111.853C41.2211 111.74 40.8128 111.579 40.401 111.455C39.9892 111.332 39.6185 111.065 39.2102 110.931C38.8018 110.797 38.4037 110.622 37.9988 110.475C37.5939 110.327 37.11 110.386 36.7085 110.231C36.307 110.077 35.9913 109.7 35.5898 109.538C35.1883 109.377 34.6975 109.432 34.3029 109.261C33.9082 109.089 33.5788 108.76 33.1876 108.578C32.7964 108.397 32.34 108.345 31.9522 108.156C31.5644 107.968 31.2659 107.601 30.8815 107.405C30.4972 107.21 30.1025 107.032 29.725 106.826C29.3476 106.62 28.9461 106.449 28.572 106.233C28.198 106.017 27.8754 105.715 27.5082 105.492C27.141 105.269 26.7601 105.067 26.3963 104.833C26.0326 104.6 25.5933 104.48 25.2364 104.24C24.8795 104 24.5741 103.678 24.2241 103.427C23.8741 103.177 23.4828 102.978 23.1362 102.721C22.7896 102.464 22.5014 102.131 22.1582 101.867C21.8151 101.603 21.441 101.38 21.1081 101.109C20.7753 100.838 20.4115 100.598 20.0821 100.317C19.7526 100.036 19.4472 99.7273 19.1281 99.4426C18.8089 99.158 18.5481 98.7979 18.2324 98.503C17.9167 98.2081 17.5461 97.9749 17.2372 97.6731C16.9284 97.3713 16.7122 96.9804 16.4102 96.6718C16.1082 96.3631 15.765 96.0991 15.4699 95.7836C15.1748 95.4681 14.938 95.1046 14.6497 94.7822C14.3615 94.4599 13.9737 94.2267 13.6923 93.9009C13.4109 93.5751 13.1638 93.2185 12.8927 92.8824C12.6216 92.5463 12.3677 92.1965 12.1034 91.857C11.8392 91.5175 11.6608 91.1129 11.4034 90.7665C11.146 90.4202 10.82 90.1252 10.5729 89.772C10.3258 89.4188 9.96208 89.1445 9.71843 88.7878C9.47478 88.4312 9.31006 88.0231 9.0767 87.6596C8.84335 87.2961 8.55166 86.9669 8.3286 86.5999C8.10554 86.233 7.87905 85.8592 7.66286 85.4854C7.44666 85.1116 7.43294 84.6246 7.2236 84.2474C7.01427 83.8702 6.69856 83.5513 6.49952 83.1672C6.30049 82.7831 6.1289 82.3887 5.94016 82.0012C5.75142 81.6137 5.48032 81.2639 5.29844 80.873C5.11656 80.4821 5.14745 79.9985 4.97243 79.6007C4.79742 79.2029 4.44395 78.8874 4.28267 78.4896C4.12138 78.0919 3.96695 77.6872 3.81253 77.2825C3.6581 76.8779 3.66153 76.4218 3.5174 76.0137C3.37327 75.6056 3.03011 75.2695 2.89627 74.858C2.76244 74.4465 2.5737 74.0521 2.45016 73.6406C2.32662 73.2291 2.35407 72.7696 2.23739 72.3546C2.12072 71.9397 1.89079 71.5522 1.78441 71.1338C1.67803 70.7154 1.63342 70.2799 1.53733 69.8615C1.44125 69.4432 1.31084 69.0282 1.22505 68.603C1.13926 68.1778 1.09465 67.7491 1.01572 67.3239C0.93679 66.8986 0.85443 66.4768 0.785797 66.0482C0.717164 65.6195 0.734322 65.184 0.675984 64.7553C0.617645 64.3267 0.693142 63.8877 0.641667 63.4556C0.590192 63.0235 0.56617 62.6017 0.528422 62.1696C0.490674 61.7375 0.209277 61.3295 0.178392 60.9008C0.147507 60.4721 0.178392 60.0366 0.161234 59.6045C0.144075 59.1724 0.0617152 58.7438 0.0514202 58.3117C0.0411252 57.8796 0.267615 57.4475 0.267615 57.0154H0.0136719C0.0136719 56.5833 0.0308302 56.1478 0.0411252 55.7191C0.0514202 55.2905 0.0548519 54.8515 0.0720102 54.4229C0.0891686 53.9942 0.31909 53.5724 0.346544 53.1403C0.373997 52.7082 0.353407 52.2761 0.391155 51.8475C0.428904 51.4188 0.490674 50.9901 0.538717 50.5615C0.58676 50.1328 0.466652 49.6802 0.52499 49.2549C0.583329 48.8297 0.748049 48.4113 0.81325 47.9861C0.878452 47.5608 0.87502 47.1185 0.950517 46.6967C1.02601 46.2749 1.36232 45.8976 1.45154 45.4758C1.54076 45.054 1.40693 44.5842 1.50302 44.1624C1.5991 43.7406 1.65058 43.3051 1.75696 42.8902C1.86334 42.4752 1.99374 42.0568 2.10699 41.6419C2.22023 41.2269 2.41927 40.8326 2.54624 40.4211C2.67321 40.0095 2.69037 39.5569 2.82421 39.1488C2.95804 38.7407 3.33553 38.4115 3.47966 38.0034C3.62379 37.5953 3.74046 37.1804 3.89489 36.7792C4.04931 36.3779 4.26551 35.9973 4.4268 35.5995C4.58808 35.2017 4.64642 34.7559 4.81801 34.3615C4.98959 33.9671 5.15431 33.5659 5.33276 33.175C5.5112 32.784 5.61072 32.3485 5.80289 31.9644C5.99507 31.5803 6.20097 31.1963 6.4 30.8122C6.59904 30.4281 6.85298 30.0749 7.06232 29.6942C7.27165 29.3136 7.6354 29.0255 7.8516 28.6552C8.06779 28.2848 8.24967 27.8904 8.47616 27.5235C8.70265 27.1566 8.73354 26.6662 8.96689 26.3027C9.20024 25.9392 9.58459 25.6717 9.82481 25.315C10.065 24.9584 10.4185 24.6772 10.669 24.3274C10.9195 23.9776 11.1151 23.5867 11.3725 23.2403C11.6299 22.8939 11.6985 22.4036 11.9662 22.0641C12.2338 21.7246 12.5598 21.4296 12.8309 21.0936C13.1021 20.7575 13.4143 20.4557 13.6957 20.1265C13.9771 19.7973 14.2757 19.4852 14.5639 19.1629C14.8522 18.8405 15.1611 18.5422 15.4562 18.2267C15.7513 17.9112 16.1356 17.6848 16.4376 17.3762C16.7396 17.0676 16.87 16.5875 17.1789 16.2857C17.4877 15.9839 17.8069 15.689 18.1226 15.3941C18.4383 15.0992 18.8295 14.8865 19.1521 14.5985C19.4747 14.3104 19.7972 14.0258 20.1267 13.7446C20.4561 13.4634 20.6998 13.0827 21.0361 12.8084C21.3724 12.534 21.8734 12.4758 22.2166 12.2117C22.5597 11.9476 22.8034 11.5567 23.15 11.2995C23.4966 11.0423 23.9358 10.912 24.2893 10.6651C24.6427 10.4182 24.8727 9.98951 25.2296 9.74603C25.5865 9.50255 25.9296 9.23507 26.2934 9.00188C26.6571 8.76869 27.093 8.64523 27.4601 8.42233C27.8273 8.19942 28.1911 7.95937 28.5651 7.74333C28.9392 7.52728 29.2652 7.22207 29.6427 7.01289C30.0202 6.8037 30.5075 6.79684 30.8884 6.59794C31.2693 6.39904 31.609 6.11098 31.9968 5.92237C32.3846 5.73376 32.8204 5.64803 33.2116 5.46628C33.6028 5.28452 33.9014 4.89358 34.296 4.71869C34.6907 4.5438 35.1368 4.4855 35.5383 4.32432C35.9398 4.16314 36.3173 3.94367 36.7222 3.78935C37.1272 3.63503 37.5836 3.62474 37.9885 3.48071C38.3934 3.33668 38.7503 3.03491 39.1587 2.89773C39.5671 2.76056 40.0235 2.76742 40.4353 2.64054C40.8471 2.51365 41.2486 2.34562 41.6638 2.22902C42.0791 2.11243 42.4737 1.91353 42.8924 1.80722C43.311 1.70091 43.7846 1.83122 44.2067 1.73177C44.6288 1.63233 45.0303 1.46772 45.4524 1.37856C45.8745 1.2894 46.2657 1.04249 46.6912 0.963613C47.1167 0.884739 47.5423 0.799007 47.9678 0.730421C48.3933 0.661835 48.8532 0.812724 49.2821 0.754426C49.7111 0.696128 50.1469 0.73728 50.5759 0.68584C51.0048 0.634401 51.4063 0.322335 51.8353 0.284613C52.2642 0.246891 52.7001 0.253749 53.1325 0.222886C53.5648 0.192022 54.0007 0.277755 54.4331 0.257179C54.8654 0.236603 55.291 0.0994313 55.7234 0.0891434C56.1558 0.0788555 56.5881 0.0239868 57.0205 0.0239868V0.322335C57.4529 0.322335 57.8819 0.260608 58.3143 0.270896C58.7467 0.281184 59.1825 0.192022 59.6114 0.212598C60.0404 0.233174 60.4694 0.342911 60.8983 0.370345C61.3273 0.39778 61.7734 0.267467 62.2023 0.305189C62.6313 0.342911 63.0603 0.421785 63.4892 0.469795C63.9182 0.517805 64.3266 0.744138 64.7521 0.802436C65.1776 0.860734 65.6409 0.702987 66.0664 0.771573C66.4919 0.840159 66.89 1.09393 67.3121 1.1728C67.7342 1.25167 68.1563 1.34426 68.5784 1.43343C69.0005 1.52259 69.4363 1.54316 69.8584 1.63918C70.2805 1.7352 70.7438 1.66319 71.1624 1.7695C71.5811 1.87581 71.9963 2.00955 72.4116 2.12614C72.8268 2.24274 73.1906 2.54452 73.6023 2.66797C74.0141 2.79143 74.4603 2.82229 74.8686 2.95603C75.277 3.08978 75.627 3.4087 76.032 3.55273C76.4369 3.69676 76.8281 3.87851 77.2331 4.0294C77.638 4.18029 78.1322 4.09799 78.5337 4.26259C78.9352 4.4272 79.3264 4.61238 79.721 4.78385C80.1157 4.95531 80.4211 5.3291 80.8123 5.51086C81.2035 5.69261 81.6016 5.86064 81.9859 6.04925C82.3703 6.23787 82.8301 6.29274 83.2145 6.49163C83.5988 6.69053 83.9385 6.97174 84.316 7.17749C84.6935 7.38325 85.1362 7.4827 85.5102 7.69875C85.8843 7.91479 86.1451 8.31945 86.5123 8.54235C86.8795 8.76526 87.3599 8.8167 87.7202 9.04989C88.0806 9.28308 88.4855 9.4614 88.8458 9.70145C89.2061 9.9415 89.4566 10.3393 89.8067 10.5896C90.1567 10.84 90.5479 11.0354 90.8945 11.2926C91.2411 11.5498 91.6323 11.7522 91.9721 12.0197C92.3118 12.2871 92.5108 12.7295 92.8471 13.0004C93.1834 13.2713 93.6604 13.3708 93.9899 13.652C94.3193 13.9332 94.6831 14.1767 95.0022 14.4647C95.3214 14.7528 95.6096 15.082 95.9253 15.3769C96.2411 15.6719 96.5911 15.9359 96.8999 16.2377C97.2088 16.5395 97.4387 16.9235 97.7407 17.2322C98.0427 17.5408 98.4099 17.7912 98.705 18.1067C99.0001 18.4221 99.1134 18.9057 99.3982 19.228C99.683 19.5504 100.026 19.8247 100.308 20.1505C100.589 20.4763 100.973 20.7198 101.248 21.0558C101.522 21.3919 101.701 21.8 101.969 22.1395C102.236 22.479 102.487 22.8322 102.744 23.1786C103.001 23.5249 103.238 23.885 103.489 24.2382C103.739 24.5914 103.935 24.979 104.175 25.3356C104.415 25.6922 104.731 26.0009 104.964 26.3644C105.198 26.7279 105.483 27.0605 105.706 27.4275C105.929 27.7944 105.994 28.2608 106.21 28.6346C106.426 29.0084 106.804 29.2896 107.013 29.6668C107.222 30.044 107.356 30.4624 107.555 30.8465C107.754 31.2306 107.943 31.6181 108.132 32.0056C108.321 32.3931 108.526 32.7737 108.708 33.1647C108.89 33.5556 109.185 33.8985 109.36 34.2929C109.535 34.6873 109.504 35.1708 109.669 35.5686C109.834 35.9664 110.122 36.3196 110.277 36.7209C110.431 37.1221 110.599 37.5233 110.747 37.9314C110.894 38.3395 110.833 38.8127 110.97 39.2242C111.107 39.6358 111.426 39.9855 111.553 40.3971C111.68 40.8086 111.563 41.2921 111.68 41.707C111.797 42.122 112.195 42.4615 112.305 42.8799C112.415 43.2982 112.411 43.744 112.507 44.1658C112.603 44.5877 112.514 45.0472 112.6 45.469C112.686 45.8908 112.799 46.3057 112.878 46.731C112.957 47.1562 113.135 47.5608 113.204 47.9861C113.272 48.4113 113.176 48.8605 113.235 49.2892C113.293 49.7179 113.592 50.1122 113.643 50.5409C113.695 50.9696 113.743 51.3982 113.784 51.8303C113.825 52.2624 113.804 52.6945 113.835 53.1266C113.866 53.5587 113.801 53.9908 113.821 54.4229C113.842 54.855 113.89 55.2836 113.9 55.7157C113.911 56.1478 113.945 56.5765 113.945 57.012H113.876C113.876 57.4441 114.007 57.8796 113.997 58.3083C113.986 58.7369 114.031 59.1759 114.014 59.608C113.996 60.0401 113.952 60.4721 113.921 60.9042C113.89 61.3363 113.595 61.7444 113.557 62.1731C113.52 62.6017 113.612 63.0441 113.564 63.4728C113.516 63.9014 113.544 64.3404 113.485 64.769C113.427 65.1977 113.235 65.6058 113.166 66.031C113.097 66.4563 112.926 66.8643 112.847 67.2861C112.768 67.7079 112.754 68.1469 112.665 68.5687C112.576 68.9905 112.665 69.4535 112.569 69.8718C112.473 70.2902 112.284 70.6914 112.178 71.1098C112.071 71.5282 112.027 71.9637 111.913 72.3786C111.8 72.7936 111.708 73.2223 111.584 73.6338C111.461 74.0453 111.038 74.3676 110.905 74.7757C110.771 75.1838 110.74 75.6296 110.596 76.0343C110.452 76.4389 110.256 76.8264 110.102 77.2311C109.947 77.6357 109.927 78.0884 109.762 78.4896C109.597 78.8909 109.381 79.2681 109.209 79.6625C109.038 80.0568 108.842 80.4443 108.66 80.8353C108.478 81.2262 108.465 81.6995 108.276 82.087C108.087 82.4745 107.624 82.7248 107.425 83.1089C107.226 83.493 107.284 84.0108 107.075 84.3915C106.865 84.7721 106.646 85.1459 106.43 85.5163C106.213 85.8866 106.011 86.2741 105.788 86.6445C105.565 87.0149 105.287 87.3544 105.054 87.7144C104.82 88.0745 104.539 88.414 104.299 88.7707C104.058 89.1273 103.88 89.532 103.629 89.8852C103.379 90.2384 103.084 90.5608 102.826 90.9071C102.569 91.2535 102.123 91.4558 101.855 91.7953C101.588 92.1348 101.471 92.5909 101.196 92.927C100.922 93.263 100.493 93.4654 100.215 93.7912C99.937 94.1169 99.6727 94.4599 99.3845 94.7822C99.0962 95.1046 98.7908 95.4063 98.4957 95.7184C98.2005 96.0305 98.1079 96.5449 97.8093 96.8501C97.5108 97.1553 97.0509 97.313 96.7421 97.6148C96.4332 97.9166 96.1518 98.2458 95.8361 98.5407C95.5204 98.8356 95.2768 99.2094 94.9542 99.4975C94.6316 99.7856 94.2473 100.002 93.9212 100.283C93.5952 100.564 93.3344 100.931 93.0016 101.202C92.6687 101.473 92.3255 101.744 91.9858 102.008C91.646 102.272 91.2857 102.515 90.9391 102.772C90.5925 103.03 90.2185 103.253 89.865 103.499C89.5116 103.746 89.062 103.853 88.7051 104.096C88.3482 104.34 87.9948 104.58 87.631 104.813C87.2673 105.046 86.9618 105.368 86.5946 105.595C86.2275 105.821 85.771 105.897 85.397 106.113C85.0229 106.329 84.7038 106.634 84.3229 106.843C83.942 107.052 83.5954 107.313 83.211 107.512C82.8267 107.711 82.4835 107.988 82.0957 108.18C81.7079 108.373 81.2756 108.469 80.8843 108.647C80.4931 108.825 80.0985 109.007 79.7038 109.178C79.3092 109.35 78.8459 109.36 78.4444 109.525C78.0429 109.689 77.6792 109.933 77.2777 110.087C76.8762 110.241 76.4747 110.396 76.0663 110.543C75.6579 110.691 75.2976 110.958 74.8858 111.095C74.474 111.233 74.0382 111.274 73.6229 111.401C73.2077 111.527 72.7616 111.517 72.3429 111.634C71.9243 111.75 71.509 111.84 71.0904 111.946C70.6717 112.052 70.3251 112.45 69.903 112.549C69.4809 112.649 69.0588 112.735 68.6333 112.82C68.2078 112.906 67.7617 112.861 67.3361 112.94C66.9106 113.019 66.461 112.94 66.0355 113.009C65.61 113.077 65.1982 113.235 64.7692 113.294C64.3403 113.352 63.9285 113.513 63.4995 113.564C63.0706 113.616 62.6485 113.739 62.2161 113.781C61.7837 113.822 61.3513 113.815 60.9189 113.842C60.4865 113.87 60.0507 113.777 59.6183 113.794C59.1859 113.811 58.757 113.839 58.3246 113.849C57.8922 113.859 57.4632 113.708 57.0308 113.708L57.0137 113.674Z" fill="#FF80AD"/>
</svg>
