<svg width="110" height="110" viewBox="0 0 110 110" fill="none" xmlns="http://www.w3.org/2000/svg">
<path d="M107.457 14.6028C106.327 12.22 104.759 9.98328 102.838 8.17698C100.747 6.21695 98.203 4.80265 95.6357 3.57283C92.884 2.25077 90.0016 1.25154 86.9732 0.821098C83.7526 0.367601 80.4551 0.375287 77.2114 0.359914C70.3936 0.336855 63.5835 0.613565 56.7656 0.575134C49.8479 0.544388 42.9532 -0.0474645 36.0431 -0.00134614C29.2483 0.0447722 22.0769 0.436778 15.5819 2.58897C12.638 3.56514 9.83249 4.98712 7.52657 7.08551C5.64341 8.79958 4.38284 10.9748 3.52965 13.3576C2.96085 14.9641 2.63034 16.609 2.30751 18.2846C2.28445 18.3999 2.27676 18.5075 2.26908 18.6228C2.26139 18.6843 2.24602 18.7381 2.23833 18.7996C0.701054 32.7581 0.670308 46.8088 0.547326 60.8365C0.485835 67.9925 0.385912 75.1485 0.0630829 82.2969C-0.205941 88.2923 0.339793 94.5413 3.67569 99.7142C6.95778 104.803 12.3921 107.493 18.1645 108.769C21.0239 109.399 23.8525 109.73 26.781 109.561C30.3859 109.353 33.9524 108.915 37.565 108.823C51.7464 108.477 65.8971 110.46 80.0861 109.699C83.7064 109.507 87.3267 109.122 90.9009 108.515C94.0139 107.985 97.1038 107.316 99.9939 106.002C102.669 104.787 105.013 102.835 106.427 100.229C107.88 97.5544 108.364 94.5106 108.557 91.5052C108.772 88.1847 108.741 84.8334 108.803 81.5052L109.01 70.4906C109.141 63.5651 109.202 56.6397 109.287 49.7143C109.333 46.1324 109.417 42.5582 109.51 38.9764C109.594 35.8634 109.471 32.6812 109.809 29.5836C110.371 24.426 109.686 19.3146 107.457 14.5951V14.6028Z" fill="#FF80AD"/>
</svg>
