<svg xmlns="http://www.w3.org/2000/svg" width="89" height="99" viewBox="0 0 89 99" fill="none">
  <g clip-path="url(#clip0_1023_9323)">
    <path d="M44.0235 21.3524H34.1555C34.1555 21.3524 30.1629 16.7119 28.8662 9.06932C27.5696 1.42674 30.2657 0.520183 33.2547 0.0545065C36.2438 -0.41117 39.126 1.78016 39.126 1.78016C39.126 1.78016 43.655 -0.794669 50.0289 1.78025C50.0289 1.78025 55.1062 -0.972722 59.1734 1.205C61.1798 2.28702 62.1625 4.04015 61.5346 7.14923C61.3026 8.29972 57.4674 18.0241 54.8195 19.9416C52.1717 21.8591 44.0371 21.3524 44.0371 21.3524H44.0235Z" fill="#6eceff"/>
    <path d="M88.6816 58.1787L88.7138 58.4661L88.7299 58.7615L88.8104 59.0448L88.8546 59.3362L88.8587 59.6276L88.8064 59.923L88.8748 60.2104L88.8386 60.5058L88.9029 60.7932L88.8748 61.0886L88.919 61.3759L88.9512 61.6673L88.8949 61.9587L88.9633 62.2501L88.9271 62.5415L88.9794 62.8329L88.9995 63.1243L88.9391 63.4157V63.7071L88.9794 63.9985L88.9633 64.2899V64.5812L88.9552 64.8726L88.911 65.164L88.907 65.4554L88.919 65.7468L88.9231 66.0423L88.8023 66.3255L88.8748 66.621L88.7983 66.9083L88.7742 67.1997L88.742 67.4871L88.75 67.7825L88.6937 68.0698L88.7017 68.3612L88.6132 68.6445L88.5327 68.9278L88.5166 69.2192L88.5448 69.5187L88.4482 69.798L88.416 70.0893L88.3154 70.3686L88.3033 70.664L88.2309 70.9473L88.1263 71.2225L88.074 71.5099L88.0217 71.7972L87.9573 72.0805L87.9734 72.384L87.8728 72.6592L87.7641 72.9345L87.6877 73.2137L87.6474 73.5051L87.5669 73.7884L87.4985 74.0717L87.3818 74.3388L87.3496 74.6342L87.1967 74.8932L87.1404 75.1806L86.9955 75.4396L86.8788 75.7067L86.7823 75.9779L86.7541 76.2814L86.6092 76.5364L86.5489 76.8278L86.3758 77.0706L86.2672 77.3377L86.1827 77.621L86.0177 77.8679L85.9774 78.1673L85.8205 78.4142L85.6595 78.657L85.5952 78.9525L85.4664 79.2115L85.2893 79.4503L85.1284 79.6931L84.9674 79.9359L84.8467 80.199L84.7099 80.458L84.6133 80.7372L84.4362 80.972L84.2471 81.1946L84.1505 81.4738L83.9372 81.6843L83.8286 81.9595L83.6234 82.1699L83.5268 82.4573L83.2894 82.6434L83.1284 82.8862L83.0399 83.1817L82.8508 83.4043L82.6496 83.6147L82.4725 83.8414L82.2713 84.0518L82.0942 84.2825L81.9655 84.5537L81.7401 84.7398L81.5228 84.9381L81.3699 85.185L81.1848 85.4116L80.9594 85.5978L80.8065 85.8487L80.6255 86.0754L80.3599 86.2251L80.207 86.4801L79.9937 86.6784L79.7925 86.8848L79.5792 87.0831L79.374 87.2854L79.1446 87.4635L78.9354 87.6618L78.7502 87.8925L78.4766 88.022L78.2955 88.2527L78.038 88.3943L77.8167 88.5805L77.6436 88.8274L77.3941 88.9771L77.1809 89.1754L76.9273 89.3211L76.7302 89.5397L76.5048 89.7177L76.2392 89.8473L76.0461 90.0739L75.7926 90.2155L75.5431 90.3653L75.3177 90.5434L75.0481 90.6607L74.859 90.8995L74.5934 91.0209L74.3359 91.1545L74.1186 91.3528L73.8771 91.5106L73.6236 91.6523L73.3942 91.8303L73.1206 91.9355L72.8792 92.0893L72.6136 92.2108L72.3882 92.401L72.1025 92.4819L71.8369 92.5993L71.6035 92.7733L71.346 92.9028L71.0925 93.0404L70.8269 93.1578L70.5653 93.2792L70.3158 93.4249L70.0704 93.5868L69.7806 93.6475L69.5231 93.781L69.2776 93.9348L69.0241 94.0765L68.7625 94.1979L68.4889 94.2991L68.2113 94.384L67.9577 94.5176L67.668 94.5783L67.4185 94.7281L67.1368 94.8009L66.8833 94.9466L66.5855 94.983L66.3159 95.0801L66.0745 95.2623L65.7888 95.3189L65.5031 95.3796L65.2375 95.497L64.984 95.6427L64.7063 95.7317L64.4125 95.7601L64.1429 95.8693L63.8653 95.9503L63.5876 96.0191L63.31 96.0919L63.0524 96.2457L62.7788 96.3347L62.485 96.3671L62.1993 96.4076L61.9217 96.4885L61.648 96.5857L61.3865 96.7273L61.0927 96.7435L60.807 96.7921L60.5333 96.8892L60.2597 96.9782L59.9619 96.9701L59.6883 97.0713L59.4106 97.1563L59.133 97.2413L58.8392 97.2453L58.5656 97.3506L58.2759 97.3708L58.0022 97.4801L57.7205 97.5408L57.4268 97.5529L57.1531 97.6541L56.8634 97.6905L56.5697 97.6865L56.2799 97.7027L56.0063 97.8079L55.7085 97.7957L55.4309 97.8807L55.1411 97.8888L54.8635 98.0062L54.5778 98.0548L54.288 98.0426L53.9983 98.0709L53.7166 98.1317L53.4269 98.16L53.1412 98.1883L52.8555 98.2288L52.5698 98.2814L52.284 98.3259L51.9983 98.3785L51.7006 98.33L51.4189 98.4109L51.1251 98.3866L50.8394 98.4311L50.5537 98.4959L50.268 98.5161L49.9702 98.4595L49.6845 98.4676L49.3988 98.5647L49.105 98.5161L48.8234 98.6133L48.5296 98.5849L48.2439 98.6011L47.9542 98.6376L47.6604 98.5768L47.3747 98.593L47.085 98.6456L46.7952 98.6173L46.5055 98.6335L46.2158 98.6456L45.926 98.7023L45.6363 98.6578L45.3506 98.7266L45.0568 98.6416L44.7671 98.6942L44.4774 98.7225L44.1876 98.7468L43.8979 98.6861L43.6042 98.678L43.3144 98.6942L43.0247 98.6659L42.7309 98.6901L42.4412 98.6942L42.1515 98.674L41.8577 98.678L41.568 98.674L41.2783 98.6254L40.9845 98.6578L40.6948 98.6335L40.4091 98.5687L40.1193 98.5485L39.8296 98.4919L39.5399 98.4716L39.2421 98.5444L38.9564 98.4757L38.6707 98.4352L38.3809 98.3988L38.0912 98.3907L37.7974 98.3745L37.5158 98.2854L37.218 98.3178L36.9283 98.2854L36.6425 98.2166L36.3609 98.1397L36.0591 98.1964L35.7693 98.1478L35.4917 98.0386L35.206 97.9698L34.9162 97.9455L34.6225 97.9333L34.3448 97.8403L34.043 97.8726L33.7613 97.7755L33.4837 97.6905L33.1819 97.7027L32.9002 97.6258L32.6225 97.5408L32.3207 97.5448L32.039 97.472L31.7654 97.3587L31.4716 97.3425L31.198 97.2332L30.9163 97.1603L30.6185 97.1482L30.3328 97.0835L30.0471 97.0308L29.7735 96.9297L29.5039 96.8083L29.2061 96.7921L28.9244 96.7152L28.6468 96.6261L28.3731 96.529L28.0995 96.4197L27.8178 96.3469L27.524 96.3145L27.2665 96.1648L26.9808 96.1041L26.7072 95.9988L26.4375 95.8936L26.1478 95.841L25.8903 95.6913L25.6207 95.5901L25.3148 95.5698L25.0533 95.4403L24.7756 95.3553L24.506 95.242L24.2364 95.1368L23.9708 95.0073L23.7012 94.9061L23.4396 94.7766L23.1499 94.7078L22.9165 94.5216L22.6388 94.4245L22.3531 94.3517L22.0916 94.2222L21.8501 94.0522L21.5644 93.9753L21.2988 93.866L21.0534 93.7041L20.7998 93.5584L20.5463 93.4127L20.2767 93.3035L20.0071 93.1942L19.7375 93.0809L19.4759 92.9514L19.2385 92.7773L19.0011 92.6074L18.7556 92.4495L18.4578 92.3888L18.2124 92.231L17.979 92.0529L17.7053 91.9436L17.476 91.7575L17.2144 91.632L16.9609 91.4904L16.7597 91.2637L16.4901 91.1423L16.2728 90.944L16.0032 90.8267L15.7658 90.6567L15.5525 90.4543L15.299 90.3127L15.0817 90.1184L14.8201 89.9808L14.5706 89.8311L14.3332 89.6611L14.1481 89.4223L13.8865 89.2847L13.6732 89.0864L13.46 88.8921L13.2065 88.7383L13.0133 88.5158L12.7517 88.3782L12.5505 88.1677L12.3413 87.9654L12.1039 87.7913L11.8785 87.6092L11.6491 87.4311L11.4238 87.2409L11.2789 86.9738L11.0013 86.8443L10.8001 86.6298L10.619 86.4032L10.3816 86.2291L10.1602 86.0349L9.99929 85.788L9.78199 85.5938L9.58078 85.3833L9.40775 85.1445L9.21459 84.93L9.01339 84.7196L8.77195 84.5456L8.60696 84.2987L8.43795 84.0599L8.25285 83.8373L8.08786 83.5945L7.85446 83.4124L7.70557 83.1574L7.49632 82.951L7.34743 82.7001L7.14221 82.4896L6.99332 82.2387L6.83236 81.9959L6.6553 81.7652L6.48226 81.5305L6.32532 81.2836L6.15631 81.0489L5.99133 80.8101L5.81829 80.5754L5.67745 80.3204L5.47625 80.1019L5.33138 79.8509L5.1664 79.6122L4.98129 79.3855L4.88069 79.1063L4.71168 78.8675L4.53864 78.6328L4.37768 78.3859L4.2972 78.0985L4.16441 77.8395L3.98735 77.6048L3.89077 77.3256L3.70969 77.0908L3.62518 76.8075L3.43203 76.5809L3.36362 76.2895L3.21473 76.0386L3.1262 75.7593L2.98536 75.5003L2.89683 75.2251L2.77611 74.958L2.59503 74.7192L2.55076 74.4238L2.39382 74.1729L2.2892 73.9017L2.1886 73.6265L2.12019 73.3432L1.97935 73.0842L1.86265 72.8171L1.77412 72.5378L1.754 72.2383L1.67352 71.9591L1.56084 71.6879L1.46427 71.4127L1.33147 71.1497L1.33952 70.8421L1.19466 70.5831L1.1021 70.3038L1.11015 70.0044L1.0015 69.7292L0.949188 69.4418L0.848587 69.1666L0.780178 68.8833L0.691649 68.6041L0.671529 68.3127L0.62324 68.0253L0.611168 67.7299L0.470326 67.4628L0.462278 67.1673L0.43411 66.8759L0.418013 66.5846L0.32546 66.3053L0.349604 66.0058L0.257051 65.7266L0.228883 65.4352L0.160474 65.1519L0.19669 64.8524L0.13633 64.5691L0.144378 64.2737L0.0840168 63.9863L0.124257 63.6909L0.120233 63.4035L0.0115839 63.1162L0.096089 62.8208L0.100113 62.5294L0.0719447 62.242L-0.000488281 61.9506L0.0638966 61.6592L0.0115839 61.3679L0.023656 61.0765L0.0276801 60.7851L0.108161 60.4977L0.140354 60.2063L0.15645 59.919L0.116209 59.6236L0.100113 59.3322L0.116209 59.0408L0.224859 58.7575L0.180594 58.462L0.212787 58.1707L0.257051 57.8833L0.373749 57.6041L0.422037 57.3167L0.446182 57.0253L0.442158 56.7299L0.542759 56.4506L0.570927 56.1592L0.627264 55.876L0.599096 55.5724L0.699697 55.2972L0.723841 55.0058L0.756034 54.7144L0.820419 54.4271L0.864683 54.1397L0.965285 53.8645L1.04577 53.5813L1.14234 53.306L1.21075 53.0228L1.26306 52.7354L1.25904 52.4359L1.38379 52.1648L1.39586 51.8693L1.50853 51.5941L1.59304 51.3189L1.63328 51.0275L1.71376 50.7442L1.79022 50.465L1.92301 50.2019L1.97935 49.9105L2.11616 49.6515L2.13628 49.352L2.30932 49.1011L2.31334 48.7976L2.45418 48.5345L2.53064 48.2553L2.67953 47.9963L2.71172 47.7008L2.87671 47.4499L2.88878 47.1423L2.98938 46.8712L3.15839 46.6243L3.21875 46.3329L3.40789 46.0941L3.42801 45.7906L3.58897 45.5397L3.68554 45.2685L3.85053 45.0217L3.93906 44.7424L4.07185 44.4834L4.14429 44.196L4.31732 43.9532L4.44609 43.6942L4.51048 43.4028L4.68351 43.164L4.72778 42.8605L4.94105 42.642L5.0497 42.3708L5.20261 42.1239L5.29114 41.8406L5.45613 41.5978L5.52454 41.3024L5.68148 41.0595L5.88268 40.837L6.01145 40.5739L6.15229 40.323L6.26094 40.0478L6.41385 39.8009L6.59091 39.5662L6.67944 39.2829L6.89272 39.0724L6.97722 38.781L7.13416 38.5342L7.31927 38.3075L7.46413 38.0526L7.66533 37.8381L7.78203 37.5669L7.93897 37.32L8.10798 37.0853L8.25687 36.8344L8.47014 36.628L8.59892 36.3649L8.75585 36.118L8.92486 35.8793L9.15021 35.685L9.32727 35.4543L9.45201 35.1872L9.68943 35.001L9.82223 34.7339L9.97917 34.4911L10.2246 34.313L10.3574 34.0459L10.5948 33.8638L10.7357 33.6048L10.9288 33.3863L11.0858 33.1353L11.2789 32.9208L11.4761 32.7063L11.6693 32.4919L11.9107 32.3178L12.0918 32.0871L12.2849 31.8726L12.5022 31.6743L12.6632 31.4315L12.8282 31.1846L13.0415 30.9863L13.2306 30.7637L13.4439 30.5654L13.6813 30.3914L13.8704 30.1688L14.0917 29.9827L14.2809 29.7601L14.5143 29.586L14.7074 29.3675L14.9207 29.1692L15.1501 28.9871L15.3754 28.8049L15.5646 28.5783L15.7899 28.3962L16.0394 28.2424L16.1963 27.9793L16.482 27.8701L16.6631 27.6313L16.8844 27.4411L17.0937 27.2387L17.3231 27.0647L17.5685 26.9069L17.7778 26.6964L18.0072 26.5224L18.2446 26.3565L18.486 26.1905L18.7315 26.0367L18.9769 25.8789L19.2103 25.7089L19.4075 25.4863L19.6852 25.373L19.8904 25.1585L20.1319 25.0007L20.4095 24.8914L20.659 24.7457L20.8844 24.5595L21.0936 24.3491L21.3713 24.2439L21.6087 24.0779L21.8823 23.9687L22.1197 23.7987L22.3531 23.6287L22.6066 23.483L22.84 23.309L23.1056 23.1916L23.3591 23.0459L23.6046 22.8962L23.8863 22.8072L24.1318 22.6493L24.3692 22.4753L24.6549 22.4024L24.8883 22.2203L25.1579 22.107L25.4275 22.0018L25.6649 21.8197L25.9184 21.6821L26.2202 21.6416L26.4778 21.5121L26.7393 21.3866L27.009 21.2774L27.2786 21.1762L27.5442 21.0588L27.8097 20.9414L28.0552 20.7715L28.3248 20.6703L28.5824 20.5367L28.856 20.4396L29.1337 20.3546L29.4234 20.3061L29.697 20.2008L29.9586 20.0794L30.2322 19.9782L30.5099 19.8973L30.7674 19.7556L31.0612 19.7192L31.3308 19.6059L31.6205 19.5614L31.8982 19.4885L32.1718 19.3833L32.4535 19.3105L32.7271 19.2295L33.0209 19.1931L33.2986 19.1081L33.5561 18.9584L33.8619 18.9786L34.1235 18.8289L34.4213 18.837L34.6909 18.7115L34.9766 18.6548L35.2623 18.6063L35.544 18.5415L35.8257 18.4727L36.1154 18.4525L36.4092 18.4322L36.6788 18.3108L36.9765 18.3311L37.2502 18.2056L37.548 18.242L37.8256 18.1409L38.1154 18.1085L38.397 18.0235L38.6827 17.9911L38.9765 17.983L39.2703 17.9952L39.556 17.9709L39.8376 17.8616L40.1234 17.809L40.4211 17.8535L40.7028 17.7564H40.9925L41.2823 17.7281L41.576 17.8009L41.8617 17.6876L42.1515 17.7119L42.4412 17.6593L42.7309 17.6754L43.0247 17.7038L43.3144 17.7159L43.6042 17.6228L43.8939 17.6309L44.1876 17.6188L44.4774 17.6228L44.7671 17.6673L45.0568 17.639L45.3466 17.6997L45.6403 17.6471L45.9301 17.6228L46.2158 17.7281L46.5095 17.6431L46.7993 17.7078L47.085 17.7483L47.3787 17.6876L47.6644 17.7645L47.9542 17.7807L48.2439 17.8333L48.5377 17.7564L48.8234 17.813L49.1091 17.9061L49.4028 17.8495L49.6926 17.8818L49.9823 17.898L50.268 17.9871L50.5497 18.0559L50.8475 18.0275L51.1332 18.0882L51.4229 18.1044H51.7167L52.0024 18.1611L52.2881 18.2056L52.5657 18.3108L52.8555 18.3594L53.1412 18.408L53.4349 18.3999L53.7086 18.5213L54.0023 18.5415L54.284 18.6103L54.5697 18.667L54.8514 18.7277L55.1331 18.8005L55.4268 18.8208L55.7085 18.8855L56.0023 18.9098L56.2799 18.9988L56.5495 19.1162H56.8473L57.1169 19.2417L57.3986 19.3105L57.6803 19.3752L57.9459 19.5047L58.2316 19.5695L58.4972 19.6828L58.7909 19.7152L59.0807 19.7597L59.3543 19.8609L59.632 19.9459L59.9016 20.0551L60.1712 20.1685L60.4569 20.2251L60.6983 20.4113L61.0001 20.4356L61.2537 20.5813L61.5514 20.6177L61.813 20.7472L62.0504 20.9293L62.3603 20.9374L62.6098 21.0952L62.8633 21.2409L63.157 21.2935L63.4226 21.4069L63.6761 21.5526L63.9136 21.7306L64.1791 21.852L64.4689 21.9087L64.7143 22.0665L65.0081 22.1353L65.2375 22.3215L65.495 22.4551L65.7485 22.5967L65.99 22.7545L66.2918 22.8112L66.5171 22.9974L66.7827 23.1188L67.0121 23.3049L67.2616 23.4506L67.5433 23.5397L67.7646 23.738L68.01 23.8918L68.2636 24.0294L68.501 24.1994L68.7827 24.2965L69.008 24.4827L69.2736 24.6081L69.503 24.7821L69.7162 24.9845L69.9537 25.1504L70.2152 25.284L70.4567 25.4459L70.7142 25.5835L70.9516 25.7494L71.1609 25.9517L71.4023 26.1136L71.6277 26.2957L71.8289 26.5102L72.0784 26.66L72.3077 26.8381L72.5049 27.0566L72.7303 27.2387L72.9838 27.3844L73.2252 27.5503L73.3942 27.8013L73.6397 27.9591L73.8449 28.1655L74.0461 28.38L74.2634 28.5702L74.5169 28.72L74.7061 28.9425L74.8992 29.1651L75.1125 29.3554L75.3217 29.5577L75.5229 29.7682L75.7765 29.9219L75.9616 30.1486L76.1427 30.3793L76.3559 30.5735L76.5571 30.784L76.7463 31.0025L76.9595 31.2008L77.1809 31.391L77.3137 31.6662L77.4988 31.8888L77.7523 32.0507L77.8931 32.3138L78.0662 32.5485L78.2513 32.7711L78.5169 32.9289L78.6174 33.2203L78.8347 33.4186L79.0601 33.6088L79.2211 33.8476L79.3337 34.1309L79.5188 34.3535L79.6798 34.5963L79.9051 34.7906L80.0218 35.0618L80.207 35.2884L80.4202 35.4907L80.5852 35.7295L80.6858 36.0128L80.9152 36.2071L81.0681 36.458L81.2089 36.713L81.3699 36.9517L81.5148 37.2027L81.6757 37.4455L81.8206 37.7005L81.9655 37.9514L82.1345 38.1861L82.2512 38.4532L82.4001 38.7041L82.6093 38.9186L82.7421 39.1776L82.8709 39.4367L82.9996 39.6997L83.1284 39.9587L83.3014 40.1975L83.4222 40.4606L83.563 40.7155L83.7079 40.9665L83.8246 41.2336L83.9091 41.5128L84.0902 41.7476L84.1948 42.0228L84.3356 42.2777L84.396 42.5691L84.6012 42.7957L84.6455 43.0952L84.8225 43.334L84.9272 43.6052L85.0237 43.8763L85.1243 44.1515L85.2773 44.4024L85.3215 44.6979L85.5147 44.9326L85.5952 45.2159L85.6998 45.483L85.8165 45.7542L85.8929 46.0334L85.9734 46.3127L86.1223 46.5676L86.1384 46.8712L86.3155 47.118L86.3275 47.4216L86.4402 47.6887L86.5368 47.9639L86.6736 48.2229L86.6817 48.5264L86.7662 48.8016L86.9271 49.0566L86.9352 49.3601L87.0197 49.6353L87.1323 49.9065L87.1967 50.1898L87.241 50.4812L87.3496 50.7523L87.406 51.0356L87.4744 51.3189L87.5871 51.5901L87.6877 51.8653L87.7118 52.1607L87.7521 52.4481L87.8245 52.7273L87.8728 53.0147L87.9694 53.2939L87.9734 53.5893L88.0659 53.8645L88.07 54.16L88.1786 54.4352L88.2148 54.7266L88.239 55.018L88.3194 55.2972L88.3275 55.5886L88.416 55.8719L88.4321 56.1592L88.4885 56.4466L88.5609 56.7299L88.5891 57.0213L88.5528 57.3167L88.5971 57.6041L88.6172 57.8954L88.6816 58.1787Z" fill="#6eceff"/>
    <rect x="29.7065" y="16.7745" width="25.1891" height="3.21772" rx="1.60886" fill="#181818" stroke="#181818" stroke-width="0.213879"/>
    <path d="M55.2074 41.6587C55.3469 42.5917 56.2153 43.2334 57.1469 43.092C58.0786 42.9505 58.7208 42.0795 58.5812 41.1465L55.2074 41.6587ZM51.8084 18.9312L55.2074 41.6587L58.5812 41.1465L55.1823 18.419L51.8084 18.9312Z" fill="#181818"/>
    <path d="M63.9827 29.152C64.5471 29.9063 64.3935 30.9777 63.6395 31.545C62.8855 32.1123 61.8167 31.9606 61.2522 31.2063L63.9827 29.152ZM55.551 17.8841L63.9827 29.152L61.2522 31.2063L52.8206 19.9384L55.551 17.8841Z" fill="#181818"/>
    <path d="M43.6157 27.1622C44.052 22.3233 53.0697 17.7222 53.0697 17.7222C53.0697 17.7222 54.4227 26.4461 51.9797 29.5381C49.488 32.6917 43.2407 31.321 43.6157 27.1622Z" stroke="#181818" stroke-width="2.92665" stroke-linejoin="round"/>
  </g>
  <defs>
    <clipPath id="clip0_1023_9323">
      <rect width="89" height="99" fill="white"/>
    </clipPath>
  </defs>
</svg>