<svg width="130" height="130" viewBox="0 0 130 130" fill="none" xmlns="http://www.w3.org/2000/svg">
<g clip-path="url(#clip0_1478_59462)">
<path d="M118.654 45.288C114.465 34.1797 106.592 24.5763 96.4221 18.4093C93.7924 16.8113 91.0463 15.4072 88.2615 14.1118C82.4203 11.4355 76.393 9.2868 70.001 8.44126C63.8883 7.63451 57.6748 7.9448 51.6707 9.36437C40.6632 11.963 30.8271 17.9516 23.6129 26.6552C19.8429 31.2009 16.5073 36.0259 13.8078 41.2775C11.1936 46.3585 9.17671 51.5093 8.4165 57.2031C6.97366 68.0787 9.33185 79.3887 14.025 89.2326C18.912 99.4877 26.8554 108.385 36.4899 114.397C41.5398 117.546 47.0707 119.742 52.9274 120.836C58.6445 121.898 64.6485 122.348 70.4509 121.929C81.4817 121.13 92.1789 117.097 100.921 110.324C110.114 103.196 116.831 93.0259 119.903 81.8167C121.555 75.7816 122.052 69.3974 121.99 63.1529C121.928 57.0635 120.803 51.0051 118.654 45.3035V45.288Z" fill="#FF80AD"/>
</g>
<g clip-path="url(#clip1_1478_59462)">
<path d="M16.3881 55.1391C28.7527 57.0994 41.2699 57.5418 53.7794 57.5266C66.4263 57.5037 79.0807 57.2367 91.7276 57.0613C98.8748 56.9621 106.014 56.8706 113.162 56.7714C115.61 56.7409 115.618 52.927 113.162 52.9575C100.515 53.1254 87.8679 53.3008 75.2211 53.4686C62.5742 53.6364 50.4461 53.9644 38.0739 53.4228C31.1555 53.1254 24.2447 52.5456 17.4026 51.4549C16.3881 51.2947 15.3508 51.7142 15.0533 52.7897C14.8016 53.6974 15.3584 54.9713 16.3881 55.1391Z" fill="#181818"/>
<path d="M50.0252 18.8382C49.8116 43.3691 49.6819 67.9 49.6362 92.4309C49.6209 99.2959 49.6133 106.161 49.6133 113.026C49.6133 115.482 53.4272 115.482 53.4272 113.026C53.4272 88.4949 53.5111 63.9641 53.6789 39.4332C53.7246 32.5682 53.778 25.7032 53.8391 18.8382C53.8619 16.3821 50.0481 16.3821 50.0252 18.8382Z" fill="#181818"/>
<path d="M54.4339 56.3587C60.0174 56.0002 65.2043 53.9254 70.1166 51.3549C72.4125 50.1497 74.5559 48.6394 76.051 46.4884C76.8061 45.3976 77.3172 44.1314 77.7977 42.8957C78.3164 41.5761 78.591 40.2107 78.4232 38.7919C77.813 33.689 72.7177 29.9285 67.6833 30.4167C62.0998 30.9659 58.263 35.3595 55.6772 39.9666C54.1669 42.6516 52.71 45.4662 52.0617 48.5021C51.726 50.0582 51.5506 51.6676 51.5659 53.2542C51.5735 54.1009 51.6345 54.8255 52.2752 55.4434C52.916 56.0612 53.6025 56.2672 54.4263 56.3511C55.4484 56.4578 56.3332 55.3976 56.3332 54.4441C56.3332 53.3228 55.456 52.6516 54.4263 52.5372C55.0365 52.6058 55.0899 52.8881 54.8382 52.6135L55.395 53.9636C55.2119 49.3945 56.8977 45.4891 59.125 41.599C60.9861 38.3419 63.6177 34.8789 67.5842 34.2458C70.7116 33.75 74.5102 36.0536 74.6704 39.4403C74.7466 41.126 73.694 43.361 72.6643 44.673C71.4057 46.2824 69.6665 47.2893 67.8816 48.2199C63.6864 50.3938 59.1936 52.2397 54.4263 52.5448C53.3965 52.6135 52.5193 53.3762 52.5193 54.4517C52.5193 55.4357 53.3965 56.4273 54.4263 56.3587H54.4339Z" fill="#181818"/>
<path d="M52.0193 57.5234L51.5463 58.2786L50.6615 58.4922L50.2191 59.2092L49.5708 59.6745L49.1436 60.4067L48.4724 60.8644L47.8392 61.3526L47.168 61.8026L46.718 62.512L45.9399 62.8324L45.345 63.3739L44.7424 63.9002L44.2847 64.3808L43.7889 64.8232L43.3694 65.38L43.5067 66.2725L43.2931 67.081L43.1024 67.8362L43.0872 68.599L43.255 69.3617L43.1177 70.1169L43.4685 70.8949L43.2168 71.6424L43.2626 72.4052L43.1634 73.168L43.11 73.9308L43.0566 74.6935L43.1482 75.4563L43.2321 76.2115L43.1024 76.9819L43.4838 77.7141L43.4457 78.4845L43.5296 79.2549L43.3541 80.0559L43.4609 80.8186L43.827 81.5585L43.6287 82.3594L44.1016 83.0917L44.1398 83.8697L44.1169 84.6554L43.9643 85.4487L44.155 86.2115L44.2847 86.9819L44.2161 87.7675L44.6127 88.515L44.3457 89.3236L44.3762 90.1016L44.5974 90.8644L44.8568 91.6195L45.017 92.3823L45.1314 93.1604L44.872 93.9689L44.9331 94.7546L45.3755 95.4944L45.1314 96.3106L45.6501 97.1497L46.512 97.348L47.2901 97.2336L48.0757 97.2183L48.8614 97.2488L49.6165 96.9285L50.3869 96.7988L51.1573 96.6462L51.9811 96.959L52.6981 96.4555L53.5067 96.6157L54.2542 96.3259L55.017 96.2038L55.8026 96.1733L56.5349 95.853L57.3663 96.036L58.1062 95.7996L58.8919 95.7767L59.586 95.258L60.3488 95.0978L61.1955 95.3724L61.882 94.8079L62.7134 95.0444L63.4609 94.8232L64.1856 94.4876L64.9865 94.5791L65.7187 94.2816L66.4968 94.2359L67.2138 93.8621L68.0147 93.9231L68.7851 93.824L69.525 93.5723L70.2801 93.3739L71.0124 93.29L71.7218 93.1146L72.4693 93.1451L73.1482 92.7942L73.9338 92.8781L74.3534 92.3671L74.3991 91.6501L74.1093 90.9102L73.8881 90.1474L73.6135 89.4075L73.3846 88.6447L73.0109 87.9277L72.8049 87.1649L72.8354 86.3259L72.6981 85.5402L72.1794 84.869L72.1032 84.0681L71.9811 83.2748L71.4548 82.6035L71.2183 81.8484L71.3862 80.9712L70.7836 80.3305L70.898 79.4685L70.3488 78.8049L70.1123 78.0498L70.0818 77.226L69.6928 76.5242L69.319 75.8148L69.0521 75.0749L68.9453 74.2664L68.8156 73.4731L68.213 72.8552L68.0299 72.0772L67.9689 71.2534L67.6867 70.5059L67.3663 69.7431L66.901 69.0337L66.4434 68.3167L66.2832 67.4929L66.3366 66.6081L65.7645 65.9216V65.1588L65.4746 64.4876L64.7653 64.1062L64.4601 63.4502L64.0177 62.901L63.5067 62.2374L62.6219 62.1077L62.1642 61.3831L61.5387 60.9483L60.8141 60.6584L60.12 60.3228L59.4182 60.0177L58.6707 59.7965L58.1596 59.0948L57.3358 59.049L56.7485 58.454L56.0086 58.2328L55.2382 58.1108L54.5212 57.7828L53.7431 57.7294L52.9575 57.798L52.0193 57.5234Z" fill="#FFEBC0"/>
<path d="M51.1953 57.0436L50.7224 57.7988L51.2945 57.364C50.5927 57.5318 49.6621 57.7301 49.4943 58.5845C49.4486 58.8285 49.9825 58.2565 49.4943 58.5692C49.3723 58.6455 49.2426 58.737 49.1358 58.8285C48.907 59.0192 48.4646 59.454 48.4188 59.782C48.3807 60.0108 48.907 59.4769 48.4188 59.7668C48.2815 59.8507 48.1442 59.9498 48.0145 60.0414C47.7476 60.2397 47.4959 60.4609 47.2213 60.6592C47.5493 60.4227 47.0229 60.7736 46.9695 60.8118C46.8246 60.9109 46.6416 61.0101 46.5119 61.1398C46.2678 61.3838 46.1 61.7424 45.9169 62.0398L46.489 61.6051C45.5203 62.0017 44.8033 62.5433 44.0557 63.2755C43.6972 63.6264 43.3082 63.9773 42.9879 64.3587C42.5302 64.9079 42.4234 65.3045 42.5302 66.0139C42.5454 66.1283 42.5302 66.3572 42.5988 66.4487C42.5988 66.4487 42.7285 65.8461 42.5531 66.2732C42.4692 66.4792 42.431 66.7233 42.3776 66.9369C42.2403 67.4861 42.1259 68.0124 42.1641 68.5845C42.1793 68.8438 42.2327 69.1642 42.3166 69.4006C42.4615 69.8354 42.3929 69.1642 42.3471 69.2176C42.2785 69.3015 42.2861 69.5456 42.2708 69.6523C42.1564 70.3312 42.4005 70.7813 42.6827 71.3838L42.5836 70.6516C42.2708 71.5974 42.2785 72.5738 42.2174 73.5654C42.1869 73.9925 42.1335 74.4273 42.1564 74.8621C42.1717 75.0986 42.2098 75.335 42.2403 75.5715C42.2632 75.7393 42.2708 75.9147 42.2937 76.0825C42.3395 76.38 42.3471 75.8003 42.3166 76.1359C42.2556 76.8606 42.1412 77.3488 42.576 78.0047C42.8429 78.3938 42.6675 77.6691 42.5531 77.8903C42.4997 77.9971 42.5302 78.2412 42.5302 78.3556C42.5302 78.5616 42.5302 78.7675 42.576 78.9735C42.6065 79.1184 42.6141 79.3549 42.637 79.065C42.6293 79.2328 42.5531 79.4159 42.5226 79.5837C42.4615 79.8964 42.4463 80.1634 42.492 80.4761C42.576 81.0787 42.7666 81.5135 43.0412 82.0627L42.9421 81.3304C42.8506 81.6966 42.6751 82.1314 42.7285 82.5128C42.759 82.7416 42.8658 82.8941 42.9802 83.0848C43.0336 83.1764 43.1023 83.2984 43.1709 83.3823C43.3616 83.5959 43.148 83.5654 43.2319 83.3594C43.2777 83.2526 43.2014 83.0772 43.1938 83.3442C43.1938 83.4739 43.2091 83.6035 43.2167 83.7408C43.2167 83.8476 43.2167 83.9468 43.2167 84.0536C43.2167 84.2443 43.2167 84.4426 43.1938 84.6409C43.2243 84.2519 43.1328 84.885 43.1175 84.9918C42.9802 85.7469 43.3006 86.3724 43.3692 87.1123C43.3845 87.303 43.354 87.1504 43.354 87.0589C43.354 87.1428 43.3464 87.242 43.3311 87.3259C43.3082 87.4708 43.2777 87.6539 43.2853 87.8064C43.3158 88.2412 43.6133 88.6531 43.8193 89.0269L43.7201 88.2946C43.4837 89.0192 43.3387 89.6447 43.4913 90.4151C43.6133 91.0559 43.9108 91.6584 44.0481 92.2915C44.1168 92.5967 44.1396 92.9094 44.2083 93.2221C44.2922 93.6417 44.3761 92.7721 44.1625 93.184C44.0862 93.3365 44.01 93.5806 43.9795 93.7561C43.8345 94.6104 44.1549 95.3045 44.5744 96.0139L44.4753 95.2816C44.3151 95.8308 44.0939 96.3114 44.3532 96.8682C44.5897 97.3716 44.9406 97.9285 45.4669 98.1192C45.9932 98.3099 46.5424 98.3404 47.0916 98.2641C47.2136 98.2488 47.3433 98.2183 47.4653 98.2107C47.5493 98.2107 47.206 98.2183 47.5416 98.2259C47.7399 98.2259 47.9383 98.2107 48.1366 98.2183C48.7163 98.2183 49.1206 98.2183 49.6621 97.9895C49.7842 97.9361 49.8986 97.8751 50.0206 97.8369C50.1961 97.7835 49.7689 97.898 50.0435 97.8674C50.2647 97.8369 50.4859 97.7912 50.7071 97.753C50.7605 97.7454 51.386 97.6157 51.3936 97.6157C51.4623 97.9056 50.6385 97.425 51.2563 97.7301C51.3784 97.7912 51.5233 97.8446 51.653 97.8827C52.3166 98.0505 52.698 97.6844 53.2091 97.3259L52.4768 97.425C52.9039 97.5089 53.3769 97.6691 53.8116 97.5776C54.1625 97.5013 54.4753 97.3106 54.8338 97.242C54.9406 97.2191 55.0397 97.2038 55.1465 97.1886C54.9253 97.2038 55.5126 97.1428 55.1465 97.1886C55.3677 97.1733 55.5813 97.1886 55.7872 97.1657C56.2373 97.1123 56.6339 96.8911 57.0458 96.708L56.3136 96.8072C57.0458 96.9674 57.5264 97.0284 58.2434 96.8072C58.5409 96.7156 57.9535 96.8072 58.2968 96.7919C58.457 96.7843 58.6095 96.7919 58.7697 96.7767C59.1587 96.7538 59.3723 96.647 59.6774 96.4411C59.7994 96.3571 59.9291 96.2275 60.0588 96.1588C59.7384 96.3266 60.1351 96.1741 60.2495 96.1436C60.8978 95.991 60.1656 96.0902 60.1732 96.0749L60.6385 96.2198C61.5157 96.4716 61.9352 96.052 62.5836 95.5181L61.653 95.7622C62.1107 95.8919 62.5378 96.0673 63.0184 95.991C63.415 95.93 63.8193 95.7469 64.1854 95.5867C64.3075 95.5333 64.4448 95.4876 64.5515 95.4189C64.8643 95.2206 64.2541 95.7469 64.2617 95.4876C64.2617 95.4876 64.9406 95.5639 64.9787 95.5639C65.1465 95.5639 65.2685 95.5257 65.4211 95.4723C65.5431 95.4342 65.6728 95.3808 65.7872 95.3198C66.0771 95.1825 65.7872 95.274 65.8483 95.2587C66.3212 95.1672 66.6949 95.2435 67.1526 95.0147C67.2518 94.9689 67.3586 94.9155 67.4425 94.8621C67.6637 94.7248 67.7857 94.8087 67.4882 94.7935C67.0077 94.7629 67.8544 94.9079 67.9993 94.9002C68.7392 94.8926 69.4104 94.6409 70.1122 94.4426C70.2113 94.4121 70.3181 94.3892 70.4173 94.3587C70.7682 94.2595 70.1808 94.3816 70.4325 94.3358C70.6309 94.3053 70.8368 94.2977 71.0428 94.2671C71.3097 94.229 71.5615 94.1527 71.8208 94.0993C71.9047 94.0841 72.103 94.0688 71.8055 94.0917C71.9657 94.0841 72.1412 94.1146 72.3014 94.1146C72.6827 94.1146 73.2243 93.9849 73.5218 93.7103C73.7659 93.4891 73.2472 93.7332 73.2777 93.779C73.293 93.8018 73.6286 93.8171 73.6515 93.8171C73.9337 93.84 74.1778 93.8781 74.4448 93.7179C76.1686 92.7034 75.0168 90.5295 74.5515 89.1413C74.4066 88.7065 74.2922 88.3022 74.0862 87.898C74.0252 87.7835 73.9566 87.6691 73.9108 87.5547C73.8574 87.4555 73.8727 87.4861 73.9489 87.6462L73.8803 87.3869C73.8574 87.2801 73.8193 87.1809 73.7964 87.0742C73.7201 86.7157 73.7888 87.3945 73.7964 87.0131C73.8116 86.4792 73.7964 85.9834 73.6743 85.4647C73.5523 84.9765 73.1862 84.6104 72.8811 84.2137L73.1633 84.885C73.1175 84.3739 73.0794 83.8552 72.9802 83.3518C72.9192 83.0467 72.8429 82.8484 72.6599 82.5814C72.5759 82.4594 72.4692 82.3297 72.37 82.2076C71.9734 81.7423 72.4692 82.3144 72.3929 82.3221C72.3776 82.3221 72.2708 81.9178 72.2632 81.9025C72.0344 81.3915 72.431 82.0551 72.1793 82.078C72.2098 82.078 72.3242 81.361 72.3319 81.2771C72.4234 80.5219 71.9657 80.1787 71.4928 79.6676L71.775 80.3388C71.8818 79.5303 71.8895 79.1108 71.3326 78.47C71.2792 78.409 71.2335 78.3251 71.1648 78.2717C70.8673 78.02 71.5767 78.47 71.2869 78.5234C71.2792 78.5234 71.1648 78.1344 71.1572 78.1115C71.1343 78.0505 71.1114 77.9742 71.0962 77.9132C71.0428 77.7073 71.119 78.1878 71.0962 77.9666C71.0733 77.7835 71.0962 77.5928 71.0733 77.4098C71.0351 76.8148 70.7071 76.3648 70.4325 75.8537C70.3486 75.7012 70.2647 75.5486 70.1885 75.396C70.3105 75.6554 70.2037 75.4189 70.1579 75.2893C70.1351 75.2206 69.9596 74.7782 70.0206 74.9613C70.074 75.1291 69.9825 74.6943 69.9673 74.6028C69.891 74.0002 69.891 73.2908 69.502 72.8026C69.4028 72.6806 69.2731 72.5509 69.1511 72.4441C68.7087 72.0551 69.1968 72.5738 69.1511 72.5814C69.1511 72.5814 69.0519 72.139 69.0367 72.078C68.9451 71.7118 69.0367 72.1924 69.0062 71.9407C68.8841 70.705 68.457 69.66 67.7781 68.6226C67.7094 68.5158 67.6408 68.409 67.5721 68.3022C67.5035 68.1954 67.267 67.7149 67.3814 68.0505C67.328 67.8827 67.3052 67.692 67.2747 67.5166C67.2136 67.1504 67.2365 67.6539 67.2747 67.2649C67.3662 66.3648 67.0153 65.9452 66.4661 65.2816L66.7483 65.9529C66.7483 65.2893 66.7102 64.6714 66.3441 64.0917C66.161 63.8018 65.9322 63.6493 65.6271 63.512C65.0321 63.2374 65.6042 63.6112 65.5889 63.6112C65.5737 63.6112 65.3982 63.1916 65.3906 63.1764C65.1389 62.7111 64.7499 62.261 64.4066 61.8568C63.9642 61.3381 63.5523 61.3152 62.8963 61.2237L63.4684 61.6584C63.1938 61.216 62.9726 60.8118 62.5454 60.5067C62.1183 60.2015 61.6759 60.0185 61.1877 59.8049C61.0199 59.7286 61.4394 59.9193 61.1877 59.8049C61.0504 59.7362 60.9055 59.6676 60.7682 59.6066C60.608 59.5303 60.4402 59.4616 60.28 59.3854C59.8452 59.1947 59.4104 59.0497 58.9528 58.9125L59.5248 59.3472C59.296 59.0269 59.029 58.5082 58.6782 58.3099C58.3273 58.1115 57.7705 58.1573 57.3662 58.1344L58.0374 58.4166C57.5721 57.9437 57.2365 57.6234 56.5805 57.4403C56.3517 57.3793 56.1381 57.3182 55.9017 57.2877C55.8254 57.2801 55.3219 57.1886 55.7033 57.303C55.566 57.2649 55.4364 57.1809 55.3143 57.1199C54.8033 56.8835 54.2998 56.7996 53.7277 56.8148C53.5752 56.8148 52.7972 56.8453 53.1938 56.8987C52.8963 56.8606 52.5836 56.7233 52.2937 56.6394C51.1114 56.3038 50.608 58.142 51.7903 58.4777C52.5073 58.6836 53.0031 58.737 53.7277 58.7218C53.8422 58.7218 53.9642 58.7294 54.0786 58.737L54.399 58.7599C54.6431 58.7828 54.5515 58.7523 54.1091 58.6607C54.1168 58.6455 54.91 59.0421 55.0092 59.065C55.2533 59.1413 55.5279 59.1337 55.7796 59.1871C55.9322 59.2252 56.0771 59.2862 56.2296 59.3244L56.4814 59.4006C56.1229 59.1489 56.0313 59.1108 56.2144 59.2862C56.6187 60.0261 57.4577 60.049 58.1824 60.0871L57.3586 59.6142C57.8086 60.2321 58.1137 60.6897 58.8917 60.888C58.968 60.9033 59.3647 61.0253 58.9985 60.8957C59.1511 60.9491 59.3036 61.0253 59.4562 61.094C59.6698 61.1855 59.8757 61.2847 60.0893 61.3838C60.3486 61.5059 60.608 61.6203 60.875 61.7271C60.997 61.7805 61.1496 61.8186 61.2716 61.8873C60.9207 61.689 61.3403 61.9788 61.4013 62.0246C61.8742 62.406 61.5081 61.9102 61.4013 61.9407C61.4165 61.9407 61.653 62.3373 61.653 62.3373C61.8666 62.6729 62.0268 62.9399 62.4386 63.0696C62.5607 63.1077 62.7133 63.1077 62.8429 63.1306C63.5599 63.2374 62.8582 63.0086 62.8963 62.9857C62.8963 62.9857 63.3387 63.5501 63.3845 63.6112C63.4913 63.7485 63.621 63.8781 63.7125 64.0231C63.8956 64.2977 63.6133 63.8095 63.7583 64.1451C63.9108 64.5036 64.0252 64.7629 64.3608 64.9918C64.4753 65.0757 64.6278 65.1443 64.7499 65.2054C65.3067 65.4571 64.6888 65.0681 64.7117 65.0604C64.6965 65.0604 64.9787 65.5867 64.9558 65.6325C64.9863 65.5562 64.8795 65.007 64.849 65.5791C64.8033 66.3419 65.238 66.769 65.6957 67.3182L65.4135 66.647C65.3677 67.3793 65.3372 68.142 65.6499 68.8362C65.894 69.3625 66.3288 69.7973 66.5958 70.3083C66.6873 70.4914 66.7636 70.6897 66.8322 70.8804C66.9009 71.0406 66.8933 71.0253 66.817 70.8423L66.9085 71.094C66.9314 71.1626 67.1374 71.7576 67.0458 71.3381C67.0916 71.5364 67.0763 71.7576 67.0916 71.9559C67.1602 72.6729 67.2975 73.2832 67.801 73.8171L68.0451 74.0688C68.2129 74.2595 68.1747 74.1756 67.923 73.8171C67.923 73.8171 68.0145 74.3663 68.0222 74.4121C68.0679 74.6943 67.9917 74.1451 68.0451 74.557C68.0679 74.7324 68.0832 74.9079 68.1137 75.0757C68.2281 75.7698 68.5332 76.3953 68.8689 77.0131C68.8994 77.0742 69.2655 77.7149 69.2579 77.7149C69.174 77.2725 69.1358 77.181 69.1587 77.4327L69.174 77.7683C69.1816 77.9666 69.174 78.1497 69.2197 78.348C69.3723 79.0955 69.7766 79.6066 70.2495 80.1863L69.9673 79.515C69.9139 79.9117 69.7766 80.3617 69.9367 80.7431C70.0969 81.1245 70.4707 81.4144 70.7377 81.6966L70.4936 80.766C70.3639 81.4372 70.2495 81.9483 70.4707 82.6043C70.5698 82.9094 70.6843 83.1382 70.875 83.4052C70.9817 83.5501 71.0962 83.7408 71.2258 83.8552C71.3936 84.0078 71.1724 83.5349 71.1114 83.7256C71.0733 83.8476 71.1801 84.1298 71.1953 84.2595C71.2106 84.3739 71.2106 84.3358 71.1801 84.1527L71.203 84.4273C71.2335 84.8087 71.2563 85.152 71.4547 85.4952C71.5386 85.6401 72.0573 86.0902 72.0191 86.2275C71.8361 85.8385 71.775 85.7622 71.8284 85.9986L71.8666 86.2351C71.8666 86.2961 71.9047 86.8453 71.8971 86.4182C71.8971 87.0513 71.8818 87.5776 72.0954 88.1802C72.2022 88.4777 72.3624 88.7446 72.4997 89.0269C72.6522 89.3396 72.431 88.798 72.5226 89.0879C72.5836 89.2786 72.637 89.4693 72.698 89.6523C72.8505 90.1176 73.0107 90.5829 73.1633 91.0482C73.2472 91.2999 73.354 91.544 73.4379 91.7957C73.5447 92.1237 73.4608 91.4754 73.4455 91.8796C73.4455 92.0551 73.4226 92.2382 73.4074 92.4136L73.6896 91.7423L73.2701 92.2534L73.9413 91.9712C73.6057 91.933 73.2396 91.8339 72.9039 91.9178C72.7361 91.9559 72.5607 92.078 72.4081 92.1542L72.1335 92.2992C71.9123 92.406 72.0115 92.3831 72.4234 92.2382C72.4234 92.2153 71.5081 92.2382 71.4242 92.2534C71.2182 92.2839 71.0199 92.3602 70.8139 92.406C71.1877 92.3221 70.5546 92.4365 70.4783 92.4441C69.8681 92.5128 69.2579 92.6806 68.6858 92.9018C68.457 92.9857 68.9528 92.8865 68.4875 92.9552C68.3502 92.978 68.1976 93.0009 68.0603 93.0086C67.7857 93.0238 67.4959 92.9247 67.2213 92.9552C67.145 92.9552 66.0237 93.3747 66.0618 93.4433C66.0313 93.4052 66.817 93.3594 66.1991 93.3518C66.0466 93.3518 65.8788 93.3518 65.7262 93.3747C65.4974 93.4052 65.3982 93.451 65.1846 93.5272C65.0779 93.5654 64.5515 93.6951 64.9482 93.6722C64.6049 93.6951 64.2846 93.5425 63.9337 93.6264C63.7735 93.6645 63.5752 93.7866 63.4226 93.8552C63.3464 93.8858 62.7819 94.0993 63.1709 93.9697C63.0184 94.0231 62.7438 94.0383 62.6141 94.1298C62.4768 94.2366 62.9802 94.2595 62.8048 94.1298C61.9886 93.4967 61.1267 94.2519 60.5241 94.7477L61.4547 94.5036C60.8902 94.3205 60.4783 94.168 59.8757 94.2824C59.7384 94.3053 58.312 94.7858 58.457 94.9765C58.4264 94.9308 59.1663 94.9231 58.6705 94.885C58.5256 94.8697 58.3654 94.885 58.2205 94.9002C57.9917 94.9231 57.7933 94.9689 57.5721 95.0299C57.5721 95.0299 57.1602 95.152 57.1602 95.1596C57.145 95.0986 57.9306 95.2816 57.2975 95.0986C57.0306 95.0223 56.6873 94.9384 56.4127 94.9765C56.161 95.007 55.8483 95.1672 55.6118 95.2816C55.0473 95.5639 56.1839 95.2969 55.4135 95.2893C54.9558 95.2893 54.4371 95.3427 54.0023 95.4571C53.8879 95.4876 53.4226 95.6173 53.354 95.7164C53.3235 95.7622 53.9795 95.8385 53.5294 95.7088C53.3997 95.6707 53.2548 95.6554 53.1175 95.6249C52.4005 95.4952 52.0649 95.8003 51.5004 96.1893L52.2327 96.0902C51.4318 95.7851 51.0123 95.7698 50.1732 95.9224C49.624 96.0215 49.0062 96.0978 48.5256 96.4105C48.2586 96.586 49.0977 96.4334 48.6248 96.3343C48.4646 96.3038 48.2739 96.319 48.1137 96.3114C47.8544 96.3114 47.5874 96.3114 47.328 96.3266C47.0535 96.3495 46.6721 96.3572 46.4051 96.4487C46.1534 96.4792 46.2602 96.4868 46.7102 96.4563L46.4203 96.3877C46.2525 96.3343 46.0695 96.3114 45.9017 96.2656L46.4737 96.7004L45.9551 95.8613L46.0542 96.5936C46.2602 95.8919 46.4127 95.4266 46.0237 94.7477C46.0084 94.7172 45.8025 94.3358 45.7796 94.3358C45.8559 94.3205 45.8711 95.0299 45.8635 94.4655C45.8635 94.3205 45.8254 94.1756 45.833 94.0383C45.8178 94.3663 45.8788 93.9849 45.9245 93.84C46.2678 92.8026 45.8406 91.6508 45.5279 90.6516C45.4592 90.4227 45.383 90.1939 45.3296 89.9651C45.3143 89.8964 45.3372 90.2015 45.3296 89.8888C45.3296 89.721 45.2991 89.5456 45.3067 89.3854C45.2762 89.7286 45.4974 88.9887 45.5279 88.8057C45.6118 88.3938 45.4669 88.1115 45.2838 87.7607C45.2686 87.7301 45.0473 87.364 45.0626 87.3488C45.116 87.303 45.0779 88.0353 45.1999 87.4784C45.2609 87.1809 45.2304 86.8911 45.1846 86.5936C45.1541 86.3724 45.116 86.1512 45.0702 85.9376C45.0397 85.8003 45.0092 85.6478 44.9634 85.5181C44.7956 85.0528 44.9329 85.5791 44.9024 85.6249C45.1541 85.2054 45.1007 84.3205 45.0931 83.8476C45.0779 83.0391 44.8795 82.5661 44.4524 81.9025L44.5515 82.6348C44.727 81.933 44.8338 81.483 44.5058 80.8041C44.4524 80.6973 44.2998 80.1787 44.3761 80.5372C44.3456 80.3999 44.3456 80.2549 44.3151 80.1176C44.2083 79.5456 44.3608 80.3007 44.2846 80.2778C44.2769 80.2778 44.3914 79.8049 44.399 79.7591C44.5058 79.2481 44.399 78.7828 44.4066 78.2717C44.4219 77.5623 44.2541 77.1504 43.9261 76.5173L44.0252 77.2496C44.2388 75.991 44.01 74.7553 44.1015 73.4815C44.1473 72.8865 44.1396 72.2916 44.1778 71.7042C44.1549 72.0627 44.2541 71.5974 44.2922 71.4601C44.3608 71.2237 44.4448 71.033 44.4066 70.7813C44.3532 70.3999 44.1015 70.0032 43.9413 69.6523L44.0405 70.3846C44.132 69.8964 44.2388 69.4616 44.1473 68.9658C44.1168 68.8133 44.071 68.6607 44.0481 68.5082C44.0023 68.226 44.0557 68.7065 44.0481 68.4853C44.0481 68.3404 44.0481 68.1954 44.0557 68.0505C44.071 67.6081 43.9871 68.3175 44.0634 67.959C44.1625 67.5013 44.3456 67.0436 44.4219 66.586C44.4981 66.1283 44.3685 65.6249 44.2922 65.1443L44.193 65.8766C44.2922 65.7469 44.727 65.2588 44.4981 65.48C44.6507 65.3274 44.8261 65.1977 44.9787 65.0528C45.3143 64.7248 45.6347 64.4121 45.9856 64.0993C46.1381 63.9697 46.3059 63.84 46.4356 63.6874C46.7483 63.3213 46.2296 63.7561 46.2296 63.7561C46.2373 63.7103 46.5882 63.6112 46.6644 63.5806C47.1145 63.3899 47.8544 62.9704 47.9383 62.3983C47.9612 62.2458 47.4806 62.6577 47.7857 62.5585C47.9001 62.5204 48.0908 62.3602 48.19 62.2839C48.3654 62.1619 48.5332 62.0322 48.701 61.9025C48.8231 61.811 48.9451 61.7118 49.0672 61.6203C49.2121 61.5135 48.8536 61.7729 49.0901 61.6203C49.3265 61.4678 49.624 61.3076 49.8223 61.1092C49.9901 60.9338 50.1808 60.6287 50.2724 60.3999C50.4402 59.9803 50.1046 60.4761 50.1427 60.4685C50.2495 60.4304 50.3639 60.3083 50.4554 60.2397C50.9436 59.8888 51.1801 59.5074 51.4928 58.9964L50.9207 59.4311C51.3097 59.3396 51.8055 59.3015 52.1259 59.0498C52.4463 58.798 52.637 58.3556 52.8429 58.0276C53.4989 56.9826 51.8437 56.0292 51.1953 57.0665V57.0436Z" fill="#FFEBC0"/>
<path d="M48.738 76.472C49.2643 76.472 49.6305 76.472 50.0958 76.2126C50.1873 76.1592 50.2865 76.0982 50.3856 76.0524C50.1797 76.144 50.4543 76.0524 50.4924 76.0372C50.6755 75.9838 50.8586 75.938 51.0416 75.877C51.2933 75.7931 51.5756 75.7168 51.812 75.5948C52.0103 75.4956 52.1324 75.5948 51.7663 75.5185C51.8883 75.5414 52.0103 75.5566 52.1248 75.5719C52.6587 75.6482 52.9943 75.4804 53.4825 75.2591H52.9028L53.6885 75.6253C53.9325 75.7397 54.1766 75.7168 54.3826 75.5337L55.0462 74.954L54.4894 75.099C54.9394 75.1829 55.5191 75.427 55.9081 75.099C56.0149 75.0151 56.3429 74.6871 56.3811 74.5574C56.4344 74.3667 56.1141 74.6108 56.2743 74.5955C56.4116 74.5803 56.5946 74.4659 56.7243 74.4125C56.8387 74.3667 56.9836 74.3286 57.0828 74.2675C57.2811 74.1379 57.2659 74.3286 56.9684 74.2065C57.2049 74.3057 57.5557 74.3591 57.8074 74.3972C57.9905 74.4277 58.1354 74.4277 58.3109 74.382C58.4787 74.3438 58.6465 74.2523 58.8067 74.1913C58.8677 74.1684 59.1118 74.1302 58.8906 74.1379C59.3483 74.1226 59.6839 74.2447 60.1415 74.1302C60.6221 74.0082 60.6297 74.0311 61.2476 74.0768C62.0637 74.1379 62.857 74.0921 63.6656 74.1455C64.3978 74.1913 64.3978 73.0471 63.6656 73.0013C62.9333 72.9556 62.1629 73.009 61.4001 72.9479C61.0416 72.9174 60.6526 72.8564 60.2941 72.9098C60.0958 72.9403 59.8975 73.0166 59.7068 73.0624C59.6381 73.0776 59.4093 73.0852 59.6229 73.0929C59.5237 73.0929 59.4169 73.07 59.3177 73.0547C58.8906 73.0013 58.4939 72.9937 58.0973 73.2454C57.899 73.3675 57.8151 73.2225 58.1659 73.3217C58.0668 73.2912 57.9524 73.2759 57.8532 73.253C57.6549 73.2073 57.4337 73.131 57.2277 73.1081C56.3734 73.0166 55.5801 73.7336 55.0767 74.3133L55.6335 74.1684C55.3055 74.1074 54.8097 73.9167 54.4741 74.0082C54.1385 74.0997 53.8105 74.5116 53.5588 74.7405L54.2529 74.6489C53.9554 74.5116 53.5817 74.2447 53.2537 74.2141C52.9257 74.1836 52.529 74.443 52.2315 74.5727L52.674 74.5116C52.3307 74.4582 51.9798 74.3667 51.6366 74.443C51.2781 74.5269 50.9272 74.7176 50.5763 74.8244C50.2254 74.9312 49.8975 75.0151 49.5618 75.1981C49.4856 75.2439 49.3483 75.282 49.2872 75.3507C49.2033 75.4422 49.4856 75.3888 49.3559 75.3278C49.211 75.2591 48.883 75.3278 48.7151 75.3278C47.9829 75.3278 47.9753 76.4796 48.7151 76.472H48.738Z" fill="#FFB218"/>
<path d="M49.6699 80.3477L50.0208 80.2257C50.0894 80.2028 50.4632 80.0731 50.2496 80.1189C50.5319 80.0579 50.8293 80.096 51.1116 80.0197C51.615 79.8901 52.0193 79.7146 52.5456 79.6307C52.66 79.6155 52.7744 79.5926 52.8888 79.5697C52.927 79.5697 53.3618 79.4934 53.1329 79.5239C53.438 79.4858 53.7584 79.4858 54.0559 79.3942C54.3152 79.318 54.5517 79.1502 54.811 79.0739C54.7729 79.0891 54.811 79.0739 54.9712 79.0586C55.0551 79.051 55.5738 78.99 55.3526 78.9823C55.9781 78.9976 56.3671 79.0815 56.9621 78.8145C57.2138 78.7001 57.3816 78.5323 57.5494 78.3111C57.5952 78.2501 57.6714 78.1967 57.7096 78.1357C57.7859 77.9907 57.4121 78.2348 57.5875 78.1967C57.763 78.1586 57.9384 78.0594 58.1215 78.0212C57.9308 78.0594 58.3579 78.0212 58.4113 78.0212C58.5105 78.0212 58.6097 78.0212 58.7088 78.0212C59.0826 78.0441 59.2123 78.0823 59.3953 78.1204C59.6852 78.1814 60.0208 78.3035 60.3183 78.2425C60.4251 78.2196 60.5547 78.1433 60.6539 78.1052C60.7531 78.0594 61.0963 77.9145 61.0505 77.9297C60.9666 77.945 61.3785 77.9297 61.4624 77.9297C61.5845 77.9297 61.7065 77.9297 61.821 77.9221C62.1184 77.9145 62.4235 77.9221 62.721 77.8763C63.2779 77.7924 63.8576 77.556 64.3915 77.3881C65.0933 77.1746 64.7958 76.0685 64.0864 76.2821C63.583 76.4347 63.0719 76.633 62.5532 76.7398C62.6371 76.7245 62.538 76.7398 62.3549 76.7474C62.1947 76.7474 62.0269 76.7627 61.8667 76.7703C61.5997 76.7779 61.3328 76.7703 61.0734 76.7855C60.8141 76.8008 60.6005 76.9 60.3488 76.9991C60.2878 77.022 59.8835 77.2203 60.1657 77.1288C60.3488 77.0678 60.2801 77.1441 60.1581 77.1059C60.0513 77.0678 59.9369 77.0601 59.8301 77.0373C59.2885 76.9305 58.7546 76.8542 58.1978 76.8771C57.5952 76.9 57.0841 77.0983 56.6875 77.5483C56.5273 77.7314 56.2908 77.8382 56.6493 77.7009C56.5044 77.7543 56.3442 77.7924 56.1993 77.8534C56.1535 77.8763 56.1001 77.8916 56.0467 77.9068C55.9018 77.9373 56.2069 77.8992 56.062 77.9068C55.8866 77.9145 55.6959 77.8611 55.5204 77.8534C55.0094 77.8229 54.4983 77.9526 54.0254 78.1585C53.8957 78.2119 53.7126 78.2653 53.5906 78.3416C53.705 78.2653 53.8881 78.2958 53.5219 78.3187C53.2473 78.3416 52.9804 78.3798 52.7058 78.4255C52.1261 78.5247 51.554 78.5704 51.0124 78.8069C50.7149 78.9366 51.0353 78.8603 50.7149 78.8984C50.5547 78.9213 50.3869 78.9213 50.2267 78.9518C49.9293 79.0052 49.647 79.1196 49.3648 79.2188C48.6707 79.4629 48.9682 80.5689 49.6699 80.3248V80.3477Z" fill="#FFB218"/>
<path d="M50.3187 85.1991C50.5628 85.0466 50.7993 84.894 51.0434 84.7414C51.1654 84.6652 51.4705 84.5584 51.5468 84.4287C51.646 84.2609 51.3714 84.4287 51.44 84.4363C51.5239 84.4363 51.6078 84.4211 51.6841 84.4211C52.3401 84.4134 53.019 84.299 53.6521 84.116C53.9419 84.0321 54.1707 83.8948 54.4148 83.7117C54.4759 83.6583 54.5598 83.6278 54.6208 83.5744C54.5293 83.6583 54.3004 83.5744 54.4759 83.6354C54.6132 83.6888 54.964 83.6583 55.109 83.6354C55.6963 83.5668 56.3294 83.1549 56.871 82.9032L56.4286 82.9642C56.8176 83.071 57.2219 83.2617 57.6261 83.2006C58.0304 83.1396 58.4194 82.9718 58.8008 82.865C59.083 82.7887 59.7161 82.6133 59.8839 82.3616C59.9602 82.2472 59.6551 82.3006 59.8153 82.3921C59.8763 82.4302 60.1662 82.3997 60.2348 82.3921C60.4179 82.3921 60.5781 82.3845 60.7611 82.3463C61.3485 82.2395 61.3485 82.2243 61.974 82.148C62.1341 82.1251 62.2943 82.1022 62.4545 82.0794C62.5765 82.0641 62.752 82.0641 62.8664 82.0107C63.0723 81.9192 62.6604 81.9039 62.7825 82.026C63.0647 82.3082 63.6902 82.2853 64.0258 82.1861C64.5674 82.026 64.5521 82.0336 65.1929 82.0641C65.9251 82.1022 65.9251 80.9581 65.1929 80.9199C64.9335 80.9047 64.6513 80.8589 64.3996 80.8818C64.2547 80.897 64.1402 80.9428 64.0029 80.981C63.8809 81.0191 63.3775 81.1411 63.6368 81.1488C63.919 81.1564 63.469 81.0496 63.3851 81.0191C63.263 80.9733 63.1257 80.9047 62.9961 80.8818C62.6833 80.8284 62.3325 80.9352 62.0197 80.981C61.8214 81.0115 61.974 80.9886 62.0197 80.981C61.9511 80.9886 61.8748 80.9962 61.8061 81.0038C61.6383 81.0267 61.4705 81.0343 61.3027 81.0649C61.0052 81.1106 60.7154 81.2022 60.4179 81.2403C60.2577 81.2632 60.5704 81.225 60.4179 81.2403C60.334 81.2403 60.2501 81.2403 60.1738 81.2403C60.0289 81.2403 59.8611 81.2174 59.7161 81.2327C59.3958 81.2708 59.1517 81.4691 58.8694 81.6217C58.8161 81.6522 58.7627 81.6903 58.7093 81.7132C58.7474 81.698 58.8847 81.6446 58.7093 81.698C58.5415 81.7514 58.3584 81.7895 58.183 81.8353C57.9312 81.9039 57.6032 81.9344 57.382 82.0641C57.4659 82.0183 57.6719 82.1556 57.382 82.026C57.2295 81.9573 57.0159 81.9115 56.8557 81.8734C56.4896 81.7971 56.276 81.9192 55.948 82.0641C55.7116 82.1785 55.4675 82.2853 55.231 82.3921C55.1395 82.4302 54.7581 82.537 55.0174 82.5065C55.2768 82.476 54.7199 82.4684 54.6208 82.476C54.3309 82.476 54.1555 82.5218 53.9038 82.6743C53.4766 82.9413 53.5529 82.9489 53.1639 83.0557C52.424 83.2464 52.0807 83.1854 51.4095 83.2922C50.8298 83.3837 50.2501 83.8948 49.7543 84.2075C49.1364 84.5965 49.7085 85.5881 50.334 85.1991H50.3187Z" fill="#FFB218"/>
<path d="M51.7864 55.0249C48.6514 54.5672 45.5545 54.1477 42.3966 54.613C39.6277 55.0173 36.897 56.0165 34.4027 57.2827C29.5972 59.7389 25.6613 64.0714 25.2036 69.6321C24.807 74.4605 28.1098 79.5863 33.0831 80.3567C35.9054 80.7915 38.6666 79.7999 41.1151 78.465C43.3577 77.2446 45.4172 75.6046 47.1029 73.6901C50.9778 69.2812 53.3501 63.1332 53.0373 57.2293C52.9076 54.7885 49.0938 54.7732 49.2234 57.2293C49.4523 61.5467 48.0182 65.9402 45.5774 69.4795C43.3272 72.7442 39.643 75.6885 35.707 76.5276C32.1906 77.2827 29.1472 74.285 28.987 70.8525C28.781 66.5657 31.8474 63.0951 35.3638 61.0814C37.5148 59.8457 39.9023 58.9532 42.3356 58.4574C45.1197 57.893 47.9877 58.282 50.7642 58.6862C51.7787 58.8388 52.8161 58.4345 53.1136 57.3514C53.3577 56.4513 52.8085 55.1546 51.7787 55.002L51.7864 55.0249Z" fill="#181818"/>
</g>
<defs>
<clipPath id="clip0_1478_59462">
<rect width="114" height="114.07" fill="white" transform="translate(7.99951 7.99902)"/>
</clipPath>
<clipPath id="clip1_1478_59462">
<rect width="100" height="97.8718" fill="white" transform="translate(15 17)"/>
</clipPath>
</defs>
</svg>
