<svg width="130" height="130" viewBox="0 0 130 130" fill="none" xmlns="http://www.w3.org/2000/svg">
<g clip-path="url(#clip0_1478_59454)">
<path d="M118.654 45.288C114.465 34.1797 106.592 24.5763 96.4221 18.4093C93.7924 16.8113 91.0463 15.4072 88.2615 14.1118C82.4203 11.4355 76.393 9.2868 70.001 8.44126C63.8883 7.63451 57.6748 7.9448 51.6707 9.36437C40.6632 11.963 30.8271 17.9516 23.6129 26.6552C19.8429 31.2009 16.5073 36.0259 13.8078 41.2775C11.1936 46.3585 9.17671 51.5093 8.4165 57.2031C6.97366 68.0787 9.33185 79.3887 14.025 89.2326C18.912 99.4877 26.8554 108.385 36.4899 114.397C41.5398 117.546 47.0707 119.742 52.9274 120.836C58.6445 121.898 64.6485 122.348 70.4509 121.929C81.4817 121.13 92.1789 117.097 100.921 110.324C110.114 103.196 116.831 93.0259 119.903 81.8167C121.555 75.7816 122.052 69.3974 121.99 63.1529C121.928 57.0635 120.803 51.0051 118.654 45.3035V45.288Z" fill="#FF80AD"/>
</g>
<g clip-path="url(#clip1_1478_59454)">
<path d="M16.3881 55.1391C28.7527 57.0994 41.2699 57.5418 53.7794 57.5266C66.4263 57.5037 79.0807 57.2367 91.7276 57.0613C98.8748 56.9621 106.014 56.8706 113.162 56.7714C115.61 56.7409 115.618 52.927 113.162 52.9575C100.515 53.1254 87.8679 53.3008 75.2211 53.4686C62.5742 53.6364 50.4461 53.9644 38.0739 53.4228C31.1555 53.1254 24.2447 52.5456 17.4026 51.4549C16.3881 51.2947 15.3508 51.7142 15.0533 52.7897C14.8016 53.6974 15.3584 54.9713 16.3881 55.1391Z" fill="#181818"/>
<path d="M50.0252 18.8382C49.8116 43.3691 49.6819 67.9 49.6362 92.4309C49.6209 99.2959 49.6133 106.161 49.6133 113.026C49.6133 115.482 53.4272 115.482 53.4272 113.026C53.4272 88.4949 53.5111 63.9641 53.6789 39.4332C53.7246 32.5682 53.778 25.7032 53.8391 18.8382C53.8619 16.3821 50.0481 16.3821 50.0252 18.8382Z" fill="#181818"/>
<path d="M54.4339 56.3587C60.0174 56.0002 65.2043 53.9254 70.1166 51.3549C72.4125 50.1497 74.5559 48.6394 76.051 46.4884C76.8061 45.3976 77.3172 44.1314 77.7977 42.8957C78.3164 41.5761 78.591 40.2107 78.4232 38.7919C77.813 33.689 72.7177 29.9285 67.6833 30.4167C62.0998 30.9659 58.263 35.3595 55.6772 39.9666C54.1669 42.6516 52.71 45.4662 52.0617 48.5021C51.726 50.0582 51.5506 51.6676 51.5659 53.2542C51.5735 54.1009 51.6345 54.8255 52.2752 55.4434C52.916 56.0612 53.6025 56.2672 54.4263 56.3511C55.4484 56.4578 56.3332 55.3976 56.3332 54.4441C56.3332 53.3228 55.456 52.6516 54.4263 52.5372C55.0365 52.6058 55.0899 52.8881 54.8382 52.6135L55.395 53.9636C55.2119 49.3945 56.8977 45.4891 59.125 41.599C60.9861 38.3419 63.6177 34.8789 67.5842 34.2458C70.7116 33.75 74.5102 36.0536 74.6704 39.4403C74.7466 41.126 73.694 43.361 72.6643 44.673C71.4057 46.2824 69.6665 47.2893 67.8816 48.2199C63.6864 50.3938 59.1936 52.2397 54.4263 52.5448C53.3965 52.6135 52.5193 53.3762 52.5193 54.4517C52.5193 55.4357 53.3965 56.4273 54.4263 56.3587H54.4339Z" fill="#181818"/>
<path d="M51.7864 55.0249C48.6514 54.5672 45.5545 54.1477 42.3966 54.613C39.6277 55.0173 36.897 56.0165 34.4027 57.2827C29.5972 59.7389 25.6613 64.0714 25.2036 69.6321C24.807 74.4605 28.1098 79.5863 33.0831 80.3567C35.9054 80.7915 38.6666 79.7999 41.1151 78.465C43.3577 77.2446 45.4172 75.6046 47.1029 73.6901C50.9778 69.2812 53.3501 63.1332 53.0373 57.2293C52.9076 54.7885 49.0938 54.7732 49.2234 57.2293C49.4523 61.5467 48.0182 65.9402 45.5774 69.4795C43.3272 72.7442 39.643 75.6885 35.707 76.5276C32.1906 77.2827 29.1472 74.285 28.987 70.8525C28.781 66.5657 31.8474 63.0951 35.3638 61.0814C37.5148 59.8457 39.9023 58.9532 42.3356 58.4574C45.1197 57.893 47.9877 58.282 50.7642 58.6862C51.7787 58.8388 52.8161 58.4345 53.1136 57.3514C53.3577 56.4513 52.8085 55.1546 51.7787 55.002L51.7864 55.0249Z" fill="#181818"/>
</g>
<defs>
<clipPath id="clip0_1478_59454">
<rect width="114" height="114.07" fill="white" transform="translate(7.99951 7.99902)"/>
</clipPath>
<clipPath id="clip1_1478_59454">
<rect width="100" height="97.8718" fill="white" transform="translate(15 17)"/>
</clipPath>
</defs>
</svg>
