<svg width="130" height="130" viewBox="0 0 130 130" fill="none" xmlns="http://www.w3.org/2000/svg">
<g clip-path="url(#clip0_849_17196)">
<path d="M65.0137 121.674V122.003C64.5813 122.003 64.1523 121.757 63.7199 121.746C63.2875 121.736 62.8483 121.928 62.4193 121.907C61.9904 121.887 61.5614 121.757 61.129 121.729C60.6966 121.702 60.2642 121.708 59.8353 121.671C59.4063 121.633 58.9636 121.667 58.5381 121.619C58.1126 121.571 57.6974 121.372 57.2684 121.314C56.8394 121.256 56.4345 121.05 56.009 120.981C55.5834 120.913 55.1202 121.057 54.6981 120.981C54.276 120.906 53.8882 120.632 53.4661 120.543C53.044 120.453 52.6254 120.364 52.2033 120.265C51.7812 120.165 51.3247 120.22 50.9095 120.114C50.4943 120.008 50.0516 119.966 49.6364 119.853C49.2211 119.74 48.8128 119.579 48.401 119.455C47.9892 119.332 47.6185 119.065 47.2102 118.931C46.8018 118.797 46.4037 118.622 45.9988 118.475C45.5939 118.327 45.11 118.386 44.7085 118.231C44.307 118.077 43.9913 117.7 43.5898 117.538C43.1883 117.377 42.6975 117.432 42.3029 117.261C41.9082 117.089 41.5788 116.76 41.1876 116.578C40.7964 116.397 40.34 116.345 39.9522 116.156C39.5644 115.968 39.2659 115.601 38.8815 115.405C38.4972 115.21 38.1025 115.032 37.725 114.826C37.3476 114.62 36.9461 114.449 36.572 114.233C36.198 114.017 35.8754 113.715 35.5082 113.492C35.141 113.269 34.7601 113.067 34.3963 112.833C34.0326 112.6 33.5933 112.48 33.2364 112.24C32.8795 112 32.5741 111.678 32.2241 111.427C31.8741 111.177 31.4828 110.978 31.1362 110.721C30.7896 110.464 30.5014 110.131 30.1582 109.867C29.8151 109.603 29.441 109.38 29.1081 109.109C28.7753 108.838 28.4115 108.598 28.0821 108.317C27.7526 108.036 27.4472 107.727 27.1281 107.443C26.8089 107.158 26.5481 106.798 26.2324 106.503C25.9167 106.208 25.5461 105.975 25.2372 105.673C24.9284 105.371 24.7122 104.98 24.4102 104.672C24.1082 104.363 23.765 104.099 23.4699 103.784C23.1748 103.468 22.938 103.105 22.6497 102.782C22.3615 102.46 21.9737 102.227 21.6923 101.901C21.4109 101.575 21.1638 101.218 20.8927 100.882C20.6216 100.546 20.3677 100.197 20.1034 99.857C19.8392 99.5175 19.6608 99.1129 19.4034 98.7665C19.146 98.4202 18.82 98.1252 18.5729 97.772C18.3258 97.4188 17.9621 97.1445 17.7184 96.7878C17.4748 96.4312 17.3101 96.0231 17.0767 95.6596C16.8434 95.2961 16.5517 94.9669 16.3286 94.5999C16.1055 94.233 15.8791 93.8592 15.6629 93.4854C15.4467 93.1116 15.4329 92.6246 15.2236 92.2474C15.0143 91.8702 14.6986 91.5513 14.4995 91.1672C14.3005 90.7831 14.1289 90.3887 13.9402 90.0012C13.7514 89.6137 13.4803 89.2639 13.2984 88.873C13.1166 88.4821 13.1474 87.9985 12.9724 87.6007C12.7974 87.2029 12.444 86.8874 12.2827 86.4896C12.1214 86.0919 11.967 85.6872 11.8125 85.2825C11.6581 84.8779 11.6615 84.4218 11.5174 84.0137C11.3733 83.6056 11.0301 83.2695 10.8963 82.858C10.7624 82.4465 10.5737 82.0521 10.4502 81.6406C10.3266 81.2291 10.3541 80.7696 10.2374 80.3546C10.1207 79.9397 9.89079 79.5522 9.78441 79.1338C9.67803 78.7154 9.63342 78.2799 9.53733 77.8615C9.44125 77.4432 9.31084 77.0282 9.22505 76.603C9.13926 76.1778 9.09465 75.7491 9.01572 75.3239C8.93679 74.8986 8.85443 74.4768 8.7858 74.0482C8.71716 73.6195 8.73432 73.184 8.67598 72.7553C8.61765 72.3267 8.69314 71.8877 8.64167 71.4556C8.59019 71.0235 8.56617 70.6017 8.52842 70.1696C8.49067 69.7375 8.20928 69.3295 8.17839 68.9008C8.14751 68.4721 8.17839 68.0366 8.16123 67.6045C8.14408 67.1724 8.06172 66.7438 8.05142 66.3117C8.04113 65.8796 8.26762 65.4475 8.26762 65.0154H8.01367C8.01367 64.5833 8.03083 64.1478 8.04113 63.7191C8.05142 63.2905 8.05485 62.8515 8.07201 62.4229C8.08917 61.9942 8.31909 61.5724 8.34654 61.1403C8.374 60.7082 8.35341 60.2761 8.39116 59.8475C8.4289 59.4188 8.49067 58.9901 8.53872 58.5615C8.58676 58.1328 8.46665 57.6802 8.52499 57.2549C8.58333 56.8297 8.74805 56.4113 8.81325 55.9861C8.87845 55.5608 8.87502 55.1185 8.95052 54.6967C9.02601 54.2749 9.36232 53.8976 9.45154 53.4758C9.54076 53.054 9.40693 52.5842 9.50302 52.1624C9.5991 51.7406 9.65058 51.3051 9.75696 50.8902C9.86334 50.4752 9.99374 50.0568 10.107 49.6419C10.2202 49.2269 10.4193 48.8326 10.5462 48.4211C10.6732 48.0095 10.6904 47.5569 10.8242 47.1488C10.958 46.7407 11.3355 46.4115 11.4797 46.0034C11.6238 45.5953 11.7405 45.1804 11.8949 44.7792C12.0493 44.3779 12.2655 43.9973 12.4268 43.5995C12.5881 43.2017 12.6464 42.7559 12.818 42.3615C12.9896 41.9671 13.1543 41.5659 13.3328 41.175C13.5112 40.784 13.6107 40.3485 13.8029 39.9644C13.9951 39.5803 14.201 39.1963 14.4 38.8122C14.599 38.4281 14.853 38.0749 15.0623 37.6942C15.2716 37.3136 15.6354 37.0255 15.8516 36.6552C16.0678 36.2848 16.2497 35.8904 16.4762 35.5235C16.7027 35.1566 16.7335 34.6662 16.9669 34.3027C17.2002 33.9392 17.5846 33.6717 17.8248 33.315C18.065 32.9584 18.4185 32.6772 18.669 32.3274C18.9195 31.9776 19.1151 31.5867 19.3725 31.2403C19.6299 30.8939 19.6985 30.4036 19.9662 30.0641C20.2338 29.7246 20.5598 29.4296 20.8309 29.0936C21.1021 28.7575 21.4143 28.4557 21.6957 28.1265C21.9771 27.7973 22.2757 27.4852 22.5639 27.1629C22.8522 26.8405 23.1611 26.5422 23.4562 26.2267C23.7513 25.9112 24.1356 25.6848 24.4376 25.3762C24.7396 25.0676 24.87 24.5875 25.1789 24.2857C25.4877 23.9839 25.8069 23.689 26.1226 23.3941C26.4383 23.0992 26.8295 22.8865 27.1521 22.5985C27.4747 22.3104 27.7972 22.0258 28.1267 21.7446C28.4561 21.4634 28.6998 21.0827 29.0361 20.8084C29.3724 20.534 29.8734 20.4758 30.2166 20.2117C30.5597 19.9476 30.8034 19.5567 31.15 19.2995C31.4966 19.0423 31.9358 18.912 32.2893 18.6651C32.6427 18.4182 32.8727 17.9895 33.2296 17.746C33.5865 17.5026 33.9296 17.2351 34.2934 17.0019C34.6571 16.7687 35.093 16.6452 35.4601 16.4223C35.8273 16.1994 36.1911 15.9594 36.5651 15.7433C36.9392 15.5273 37.2652 15.2221 37.6427 15.0129C38.0202 14.8037 38.5075 14.7968 38.8884 14.5979C39.2693 14.399 39.609 14.111 39.9968 13.9224C40.3846 13.7338 40.8204 13.648 41.2116 13.4663C41.6028 13.2845 41.9014 12.8936 42.296 12.7187C42.6907 12.5438 43.1368 12.4855 43.5383 12.3243C43.9398 12.1631 44.3173 11.9437 44.7222 11.7894C45.1272 11.635 45.5836 11.6247 45.9885 11.4807C46.3934 11.3367 46.7503 11.0349 47.1587 10.8977C47.5671 10.7606 48.0235 10.7674 48.4353 10.6405C48.8471 10.5137 49.2486 10.3456 49.6638 10.229C50.0791 10.1124 50.4737 9.91353 50.8924 9.80722C51.311 9.70091 51.7846 9.83122 52.2067 9.73177C52.6288 9.63233 53.0303 9.46772 53.4524 9.37856C53.8745 9.2894 54.2657 9.04249 54.6912 8.96361C55.1167 8.88474 55.5423 8.79901 55.9678 8.73042C56.3933 8.66184 56.8532 8.81272 57.2821 8.75443C57.7111 8.69613 58.1469 8.73728 58.5759 8.68584C59.0048 8.6344 59.4063 8.32234 59.8353 8.28461C60.2642 8.24689 60.7001 8.25375 61.1325 8.22289C61.5648 8.19202 62.0007 8.27775 62.4331 8.25718C62.8654 8.2366 63.291 8.09943 63.7234 8.08914C64.1558 8.07886 64.5881 8.02399 65.0205 8.02399V8.32234C65.4529 8.32234 65.8819 8.26061 66.3143 8.2709C66.7467 8.28118 67.1825 8.19202 67.6114 8.2126C68.0404 8.23317 68.4694 8.34291 68.8983 8.37035C69.3273 8.39778 69.7734 8.26747 70.2023 8.30519C70.6313 8.34291 71.0603 8.42178 71.4892 8.46979C71.9182 8.51781 72.3266 8.74414 72.7521 8.80244C73.1776 8.86073 73.6409 8.70299 74.0664 8.77157C74.4919 8.84016 74.89 9.09393 75.3121 9.1728C75.7342 9.25167 76.1563 9.34426 76.5784 9.43343C77.0005 9.52259 77.4363 9.54316 77.8584 9.63918C78.2805 9.7352 78.7438 9.66319 79.1624 9.7695C79.5811 9.87581 79.9963 10.0095 80.4116 10.1261C80.8268 10.2427 81.1906 10.5445 81.6023 10.668C82.0141 10.7914 82.4603 10.8223 82.8686 10.956C83.277 11.0898 83.627 11.4087 84.032 11.5527C84.4369 11.6968 84.8281 11.8785 85.2331 12.0294C85.638 12.1803 86.1322 12.098 86.5337 12.2626C86.9352 12.4272 87.3264 12.6124 87.721 12.7838C88.1157 12.9553 88.4211 13.3291 88.8123 13.5109C89.2035 13.6926 89.6016 13.8606 89.9859 14.0493C90.3703 14.2379 90.8301 14.2927 91.2145 14.4916C91.5988 14.6905 91.9385 14.9717 92.316 15.1775C92.6935 15.3833 93.1362 15.4827 93.5102 15.6987C93.8843 15.9148 94.1451 16.3194 94.5123 16.5424C94.8795 16.7653 95.3599 16.8167 95.7202 17.0499C96.0806 17.2831 96.4855 17.4614 96.8458 17.7015C97.2061 17.9415 97.4566 18.3393 97.8067 18.5896C98.1567 18.84 98.5479 19.0354 98.8945 19.2926C99.2411 19.5498 99.6323 19.7522 99.9721 20.0197C100.312 20.2871 100.511 20.7295 100.847 21.0004C101.183 21.2713 101.66 21.3708 101.99 21.652C102.319 21.9332 102.683 22.1767 103.002 22.4647C103.321 22.7528 103.61 23.082 103.925 23.3769C104.241 23.6719 104.591 23.9359 104.9 24.2377C105.209 24.5395 105.439 24.9235 105.741 25.2322C106.043 25.5408 106.41 25.7912 106.705 26.1067C107 26.4221 107.113 26.9057 107.398 27.228C107.683 27.5504 108.026 27.8247 108.308 28.1505C108.589 28.4763 108.973 28.7198 109.248 29.0558C109.522 29.3919 109.701 29.8 109.969 30.1395C110.236 30.479 110.487 30.8322 110.744 31.1786C111.001 31.5249 111.238 31.885 111.489 32.2382C111.739 32.5914 111.935 32.979 112.175 33.3356C112.415 33.6922 112.731 34.0009 112.964 34.3644C113.198 34.7279 113.483 35.0605 113.706 35.4275C113.929 35.7944 113.994 36.2608 114.21 36.6346C114.426 37.0084 114.804 37.2896 115.013 37.6668C115.222 38.044 115.356 38.4624 115.555 38.8465C115.754 39.2306 115.943 39.6181 116.132 40.0056C116.321 40.3931 116.526 40.7737 116.708 41.1647C116.89 41.5556 117.185 41.8985 117.36 42.2929C117.535 42.6873 117.504 43.1708 117.669 43.5686C117.834 43.9664 118.122 44.3196 118.277 44.7209C118.431 45.1221 118.599 45.5233 118.747 45.9314C118.894 46.3395 118.833 46.8127 118.97 47.2242C119.107 47.6358 119.426 47.9855 119.553 48.3971C119.68 48.8086 119.563 49.2921 119.68 49.707C119.797 50.122 120.195 50.4615 120.305 50.8799C120.415 51.2982 120.411 51.744 120.507 52.1658C120.603 52.5877 120.514 53.0472 120.6 53.469C120.686 53.8908 120.799 54.3057 120.878 54.731C120.957 55.1562 121.135 55.5608 121.204 55.9861C121.272 56.4113 121.176 56.8605 121.235 57.2892C121.293 57.7179 121.592 58.1122 121.643 58.5409C121.695 58.9696 121.743 59.3982 121.784 59.8303C121.825 60.2624 121.804 60.6945 121.835 61.1266C121.866 61.5587 121.801 61.9908 121.821 62.4229C121.842 62.855 121.89 63.2836 121.9 63.7157C121.911 64.1478 121.945 64.5765 121.945 65.012H121.876C121.876 65.4441 122.007 65.8796 121.997 66.3083C121.986 66.7369 122.031 67.1759 122.014 67.608C121.996 68.0401 121.952 68.4721 121.921 68.9042C121.89 69.3363 121.595 69.7444 121.557 70.1731C121.52 70.6017 121.612 71.0441 121.564 71.4728C121.516 71.9014 121.544 72.3404 121.485 72.769C121.427 73.1977 121.235 73.6058 121.166 74.031C121.097 74.4563 120.926 74.8643 120.847 75.2861C120.768 75.7079 120.754 76.1469 120.665 76.5687C120.576 76.9905 120.665 77.4535 120.569 77.8718C120.473 78.2902 120.284 78.6914 120.178 79.1098C120.071 79.5282 120.027 79.9637 119.913 80.3786C119.8 80.7936 119.708 81.2223 119.584 81.6338C119.461 82.0453 119.038 82.3676 118.905 82.7757C118.771 83.1838 118.74 83.6296 118.596 84.0343C118.452 84.4389 118.256 84.8264 118.102 85.2311C117.947 85.6357 117.927 86.0884 117.762 86.4896C117.597 86.8909 117.381 87.2681 117.209 87.6625C117.038 88.0568 116.842 88.4443 116.66 88.8353C116.478 89.2262 116.465 89.6995 116.276 90.087C116.087 90.4745 115.624 90.7248 115.425 91.1089C115.226 91.493 115.284 92.0108 115.075 92.3915C114.865 92.7721 114.646 93.1459 114.43 93.5163C114.213 93.8866 114.011 94.2741 113.788 94.6445C113.565 95.0149 113.287 95.3544 113.054 95.7144C112.82 96.0745 112.539 96.414 112.299 96.7707C112.058 97.1273 111.88 97.532 111.629 97.8852C111.379 98.2384 111.084 98.5608 110.826 98.9071C110.569 99.2535 110.123 99.4558 109.855 99.7953C109.588 100.135 109.471 100.591 109.196 100.927C108.922 101.263 108.493 101.465 108.215 101.791C107.937 102.117 107.673 102.46 107.384 102.782C107.096 103.105 106.791 103.406 106.496 103.718C106.201 104.03 106.108 104.545 105.809 104.85C105.511 105.155 105.051 105.313 104.742 105.615C104.433 105.917 104.152 106.246 103.836 106.541C103.52 106.836 103.277 107.209 102.954 107.497C102.632 107.786 102.247 108.002 101.921 108.283C101.595 108.564 101.334 108.931 101.002 109.202C100.669 109.473 100.326 109.744 99.9858 110.008C99.646 110.272 99.2857 110.515 98.9391 110.772C98.5925 111.03 98.2185 111.253 97.865 111.499C97.5116 111.746 97.062 111.853 96.7051 112.096C96.3482 112.34 95.9948 112.58 95.631 112.813C95.2673 113.046 94.9618 113.368 94.5946 113.595C94.2275 113.821 93.771 113.897 93.397 114.113C93.0229 114.329 92.7038 114.634 92.3229 114.843C91.942 115.052 91.5954 115.313 91.211 115.512C90.8267 115.711 90.4835 115.988 90.0957 116.18C89.7079 116.373 89.2756 116.469 88.8843 116.647C88.4931 116.825 88.0985 117.007 87.7038 117.178C87.3092 117.35 86.8459 117.36 86.4444 117.525C86.0429 117.689 85.6792 117.933 85.2777 118.087C84.8762 118.241 84.4747 118.396 84.0663 118.543C83.6579 118.691 83.2976 118.958 82.8858 119.095C82.474 119.233 82.0382 119.274 81.6229 119.401C81.2077 119.527 80.7616 119.517 80.3429 119.634C79.9243 119.75 79.509 119.84 79.0904 119.946C78.6717 120.052 78.3251 120.45 77.903 120.549C77.4809 120.649 77.0588 120.735 76.6333 120.82C76.2078 120.906 75.7617 120.861 75.3361 120.94C74.9106 121.019 74.461 120.94 74.0355 121.009C73.61 121.077 73.1982 121.235 72.7692 121.294C72.3403 121.352 71.9285 121.513 71.4995 121.564C71.0706 121.616 70.6485 121.739 70.2161 121.781C69.7837 121.822 69.3513 121.815 68.9189 121.842C68.4865 121.87 68.0507 121.777 67.6183 121.794C67.1859 121.811 66.757 121.839 66.3246 121.849C65.8922 121.859 65.4632 121.708 65.0308 121.708L65.0137 121.674Z" fill="#FF80AD"/>
<path d="M65.0183 112.653V112.93C64.6536 112.93 64.2926 112.723 63.9279 112.715C63.5633 112.708 63.195 112.868 62.8303 112.85C62.4657 112.832 62.1083 112.723 61.7436 112.701C61.379 112.679 61.0143 112.683 60.6533 112.65C60.2923 112.617 59.9203 112.646 59.5593 112.606C59.1983 112.566 58.8519 112.398 58.4909 112.351C58.1299 112.304 57.7907 112.129 57.4297 112.071C57.0687 112.012 56.6822 112.133 56.3248 112.071C55.9674 112.009 55.6429 111.776 55.2855 111.703C54.9281 111.63 54.5744 111.554 54.2207 111.47C53.867 111.386 53.4804 111.434 53.1304 111.342C52.7803 111.251 52.4083 111.219 52.0583 111.12C51.7082 111.022 51.3654 110.891 51.019 110.785C50.6726 110.68 50.359 110.458 50.0162 110.341C49.6734 110.225 49.3379 110.079 48.9951 109.959C48.6523 109.839 48.2476 109.882 47.9084 109.755C47.5693 109.627 47.3031 109.307 46.9676 109.172C46.6321 109.037 46.2164 109.081 45.8809 108.939C45.5454 108.797 45.2719 108.517 44.9438 108.364C44.6156 108.211 44.229 108.167 43.9045 108.011C43.5799 107.854 43.3247 107.544 43.0038 107.377C42.6829 107.209 42.3474 107.064 42.0301 106.889C41.7129 106.714 41.3737 106.572 41.0601 106.39C40.7465 106.208 40.473 105.957 40.1631 105.767C39.8531 105.578 39.5322 105.407 39.2259 105.214C38.9196 105.021 38.5513 104.919 38.2486 104.715C37.9459 104.511 37.6907 104.242 37.3953 104.03C37.0999 103.819 36.7717 103.652 36.48 103.437C36.1883 103.222 35.944 102.942 35.6559 102.72C35.3678 102.497 35.0542 102.312 34.7697 102.082C34.4853 101.853 34.1826 101.653 33.9055 101.416C33.6284 101.179 33.3731 100.921 33.0996 100.68C32.8261 100.44 32.611 100.138 32.3448 99.8901C32.0786 99.6425 31.765 99.4459 31.506 99.191C31.2471 98.9361 31.0648 98.6084 30.8095 98.3462C30.5543 98.084 30.2662 97.8619 30.0182 97.5997C29.7703 97.3375 29.5697 97.028 29.3254 96.7549C29.0811 96.4818 28.7565 96.2887 28.5195 96.012C28.2825 95.7353 28.0746 95.4367 27.8449 95.1563C27.6151 94.8759 27.4036 94.5809 27.1812 94.2932C26.9587 94.0056 26.8092 93.6669 26.5904 93.3756C26.3716 93.0843 26.1018 92.8367 25.8903 92.5381C25.6788 92.2395 25.3761 92.0101 25.1719 91.7078C24.9677 91.4056 24.8255 91.0633 24.6322 90.7574C24.4389 90.4515 24.191 90.1748 24.0013 89.8653C23.8117 89.5557 23.6257 89.2426 23.4434 88.9294C23.2611 88.6162 23.2501 88.2048 23.0751 87.8879C22.9001 87.5711 22.6339 87.3017 22.4661 86.9812C22.2984 86.6608 22.1562 86.3258 21.9957 85.998C21.8353 85.6703 21.6092 85.379 21.456 85.0476C21.3029 84.7163 21.3284 84.3121 21.1825 83.977C21.0367 83.642 20.7376 83.3762 20.5991 83.0412C20.4605 82.7062 20.3329 82.3639 20.2016 82.0252C20.0703 81.6866 20.074 81.3006 19.9536 80.9583C19.8333 80.616 19.5452 80.332 19.4285 79.986C19.3118 79.6401 19.1587 79.3087 19.0529 78.9591C18.9472 78.6096 18.9727 78.2272 18.8742 77.874C18.7758 77.5208 18.5825 77.2003 18.4913 76.8471C18.4002 76.4939 18.3637 76.1297 18.2835 75.7765C18.2033 75.4233 18.0939 75.0737 18.0209 74.7169C17.948 74.36 17.9115 73.9959 17.8459 73.639C17.7802 73.2821 17.711 72.9253 17.6526 72.5648C17.5943 72.2043 17.6089 71.8365 17.5578 71.476C17.5068 71.1155 17.5724 70.7441 17.5286 70.3835C17.4849 70.023 17.4666 69.6625 17.4338 69.302C17.401 68.9415 17.164 68.5956 17.1384 68.2315C17.1129 67.8673 17.1384 67.5032 17.1239 67.139C17.1093 66.7749 17.04 66.4144 17.0327 66.0502C17.0254 65.6861 17.215 65.3219 17.215 64.9578H16.9999C16.9999 64.5937 17.0145 64.2295 17.0254 63.8654C17.0363 63.5012 17.0363 63.1371 17.0509 62.7729C17.0655 62.4088 17.2588 62.0556 17.2843 61.6951C17.3098 61.3346 17.2916 60.9668 17.3244 60.6063C17.3572 60.2458 17.4083 59.8853 17.4484 59.5248C17.4885 59.1643 17.3864 58.7819 17.4338 58.4251C17.4812 58.0682 17.6198 57.715 17.6781 57.3581C17.7365 57.0013 17.7292 56.6262 17.7948 56.273C17.8605 55.9198 18.1413 55.5993 18.2142 55.2461C18.2871 54.8929 18.1777 54.4959 18.258 54.1427C18.3382 53.7895 18.3819 53.4217 18.4731 53.0721C18.5643 52.7226 18.67 52.3693 18.7685 52.0198C18.8669 51.6702 19.031 51.3388 19.1368 50.9892C19.2425 50.6397 19.2571 50.261 19.3702 49.9187C19.4832 49.5764 19.8005 49.296 19.9244 48.9537C20.0484 48.6114 20.1432 48.2618 20.2745 47.9231C20.4058 47.5845 20.5881 47.2677 20.7231 46.929C20.858 46.5904 20.909 46.219 21.0549 45.8876C21.2008 45.5562 21.3357 45.2176 21.4888 44.8862C21.642 44.5548 21.7259 44.1907 21.8827 43.8666C22.0395 43.5425 22.2182 43.2184 22.3859 42.898C22.5536 42.5775 22.7688 42.2753 22.9438 41.9585C23.1189 41.6417 23.4252 41.3977 23.6075 41.0845C23.7898 40.7714 23.943 40.44 24.1326 40.1305C24.3222 39.8209 24.3514 39.4095 24.5447 39.1036C24.738 38.7977 25.0625 38.5719 25.2667 38.2733C25.4709 37.9747 25.7663 37.738 25.9778 37.4394C26.1893 37.1408 26.3534 36.8168 26.5686 36.5254C26.7837 36.2341 26.8457 35.8226 27.0681 35.535C27.2906 35.2473 27.5677 34.9997 27.7975 34.7193C28.0272 34.4389 28.2897 34.1804 28.5231 33.9036C28.7565 33.6269 29.0118 33.3647 29.2524 33.0952C29.4931 32.8257 29.7557 32.5708 30.0036 32.305C30.2516 32.0392 30.5762 31.8462 30.8278 31.5876C31.0794 31.3291 31.1924 30.9249 31.4513 30.67C31.7103 30.4151 31.9801 30.1675 32.2463 29.9199C32.5125 29.6723 32.8407 29.4902 33.1105 29.2498C33.3804 29.0095 33.6539 28.7655 33.931 28.5325C34.2082 28.2994 34.4124 27.9753 34.6968 27.7459C34.9813 27.5165 35.4043 27.4655 35.6887 27.2434C35.9731 27.0213 36.181 26.6936 36.4727 26.4751C36.7644 26.2566 37.1327 26.151 37.4318 25.9398C37.7308 25.7286 37.9204 25.3717 38.2231 25.1678C38.5257 24.9639 38.8138 24.7381 39.1201 24.5415C39.4265 24.3448 39.7911 24.2429 40.1011 24.0535C40.411 23.8642 40.7173 23.6639 41.031 23.4818C41.3446 23.2997 41.6217 23.0412 41.939 22.87C42.2562 22.6989 42.6683 22.688 42.9892 22.5205C43.3101 22.353 43.5982 22.1126 43.9227 21.9524C44.2473 21.7922 44.6156 21.7193 44.9474 21.57C45.2792 21.4207 45.5272 21.0857 45.8627 20.9437C46.1982 20.8017 46.5701 20.7471 46.9093 20.6123C47.2484 20.4776 47.5657 20.2919 47.9048 20.1608C48.2439 20.0297 48.6305 20.0224 48.9732 19.8986C49.316 19.7748 49.615 19.5236 49.9578 19.4107C50.3006 19.2978 50.6871 19.3014 51.0336 19.1922C51.38 19.0829 51.7191 18.9446 52.0692 18.8462C52.4193 18.7479 52.7511 18.5804 53.1048 18.493C53.4586 18.4056 53.856 18.5112 54.2134 18.4311C54.5708 18.351 54.9063 18.209 55.2636 18.1362C55.621 18.0633 55.9492 17.8521 56.3066 17.7866C56.6639 17.721 57.0213 17.6482 57.3823 17.59C57.7433 17.5317 58.1262 17.6591 58.4872 17.6118C58.8482 17.5645 59.2165 17.5972 59.5776 17.5535C59.9386 17.5098 60.2777 17.2477 60.6387 17.2149C60.9997 17.1821 61.368 17.1894 61.7327 17.1639C62.0974 17.1384 62.462 17.2076 62.8267 17.193C63.1913 17.1785 63.5487 17.0583 63.9134 17.051C64.278 17.0437 64.6427 16.9964 65.0073 16.9964V17.2477C65.372 17.2477 65.733 17.1967 66.0977 17.204C66.4623 17.2112 66.827 17.1384 67.1917 17.1566C67.5563 17.1748 67.9137 17.2659 68.2747 17.2914C68.6357 17.3168 69.0113 17.204 69.3723 17.2367C69.7333 17.2695 70.0943 17.3351 70.4553 17.3751C70.8164 17.4152 71.1591 17.6045 71.5202 17.6555C71.8812 17.7065 72.2677 17.5717 72.6251 17.63C72.9824 17.6883 73.3179 17.9031 73.6753 17.965C74.0327 18.0269 74.3864 18.1107 74.7438 18.1835C75.1011 18.2563 75.4658 18.2782 75.8195 18.3583C76.1732 18.4384 76.567 18.3765 76.9171 18.4675C77.2672 18.5586 77.6209 18.6715 77.9673 18.7698C78.3138 18.8681 78.6237 19.1194 78.9702 19.225C79.3166 19.3306 79.6922 19.3561 80.0386 19.4689C80.385 19.5818 80.6768 19.8513 81.0195 19.9715C81.3623 20.0916 81.6905 20.2446 82.0296 20.3757C82.3688 20.5067 82.7881 20.4339 83.1236 20.5723C83.4591 20.7107 83.791 20.8672 84.1228 21.0129C84.4546 21.1586 84.7135 21.4717 85.0417 21.6247C85.3699 21.7776 85.7054 21.916 86.03 22.0762C86.3545 22.2364 86.7411 22.2801 87.062 22.4476C87.3829 22.6151 87.6709 22.8518 87.9882 23.0266C88.3055 23.2014 88.6774 23.2852 88.9947 23.4636C89.3119 23.642 89.5307 23.9843 89.8407 24.1737C90.1506 24.363 90.5518 24.4067 90.8581 24.5997C91.1644 24.7927 91.5035 24.9457 91.8062 25.1496C92.1089 25.3535 92.3204 25.6885 92.6157 25.8961C92.9111 26.1036 93.2429 26.2711 93.5347 26.4896C93.8264 26.7081 94.1546 26.8756 94.4427 27.1014C94.7308 27.3272 94.8949 27.6986 95.1793 27.928C95.4637 28.1574 95.8648 28.2412 96.142 28.4779C96.4191 28.7146 96.7254 28.9185 96.9953 29.1624C97.2651 29.4064 97.5095 29.6832 97.772 29.9308C98.0346 30.1784 98.3299 30.4005 98.5925 30.6554C98.8551 30.9103 99.0447 31.2344 99.2999 31.493C99.5552 31.7515 99.8652 31.9627 100.113 32.2285C100.361 32.4944 100.456 32.8986 100.697 33.1717C100.937 33.4448 101.225 33.6742 101.462 33.9509C101.699 34.2277 102.024 34.4316 102.254 34.712C102.483 34.9924 102.637 35.3383 102.859 35.626C103.081 35.9137 103.293 36.2086 103.512 36.5C103.731 36.7913 103.927 37.0935 104.139 37.3921C104.35 37.6907 104.515 38.0148 104.719 38.317C104.923 38.6193 105.189 38.8778 105.386 39.1837C105.583 39.4896 105.82 39.77 106.01 40.0795C106.199 40.389 106.25 40.7786 106.433 41.0954C106.615 41.4123 106.932 41.6453 107.107 41.9657C107.282 42.2862 107.399 42.6358 107.567 42.9562C107.735 43.2767 107.891 43.6044 108.052 43.9321C108.212 44.2599 108.384 44.5803 108.537 44.908C108.69 45.2358 108.938 45.5271 109.084 45.8584C109.23 46.1898 109.204 46.5977 109.343 46.9327C109.481 47.2677 109.722 47.5626 109.853 47.9013C109.984 48.24 110.127 48.575 110.247 48.9209C110.367 49.2668 110.32 49.6638 110.433 50.0097C110.546 50.3556 110.816 50.6506 110.925 50.9965C111.035 51.3425 110.936 51.7503 111.031 52.0999C111.126 52.4495 111.465 52.7335 111.556 53.0867C111.647 53.4399 111.647 53.815 111.728 54.1682C111.808 54.5214 111.731 54.9074 111.808 55.2643C111.884 55.6212 111.976 55.9671 112.041 56.3276C112.107 56.6881 112.26 57.0267 112.318 57.3836C112.377 57.7405 112.293 58.1192 112.344 58.4797C112.395 58.8402 112.646 59.1716 112.687 59.5357C112.727 59.8998 112.77 60.2567 112.803 60.6208C112.836 60.985 112.822 61.3491 112.847 61.7133C112.873 62.0774 112.818 62.4416 112.836 62.8057C112.854 63.1699 112.894 63.5304 112.902 63.8945C112.909 64.2586 112.938 64.6192 112.938 64.9833H112.88C112.88 65.3474 112.989 65.7116 112.982 66.0757C112.975 66.4399 113.011 66.8077 112.997 67.1682C112.982 67.5287 112.942 67.8964 112.92 68.2569C112.898 68.6174 112.646 68.9634 112.614 69.3275C112.581 69.6917 112.661 70.0631 112.621 70.4236C112.581 70.7841 112.606 71.1555 112.555 71.516C112.504 71.8765 112.344 72.2188 112.285 72.5793C112.227 72.9398 112.085 73.2821 112.019 73.6354C111.954 73.9886 111.939 74.36 111.866 74.7132C111.793 75.0664 111.866 75.4597 111.786 75.8129C111.706 76.1662 111.545 76.5048 111.454 76.8544C111.363 77.204 111.326 77.5754 111.232 77.925C111.137 78.2745 111.06 78.6351 110.954 78.981C110.849 79.3269 110.495 79.5964 110.382 79.9423C110.269 80.2883 110.243 80.6597 110.123 81.002C110.003 81.3443 109.839 81.6684 109.707 82.007C109.576 82.3457 109.558 82.728 109.423 83.0667C109.288 83.4053 109.102 83.7221 108.96 84.0535C108.818 84.3849 108.65 84.709 108.497 85.0403C108.343 85.3717 108.333 85.7686 108.172 86.0927C108.012 86.4168 107.621 86.628 107.454 86.9521C107.286 87.2762 107.333 87.7132 107.158 88.03C106.983 88.3468 106.797 88.6636 106.615 88.9767C106.433 89.2899 106.261 89.6176 106.072 89.9272C105.882 90.2367 105.649 90.5244 105.452 90.8302C105.255 91.1361 105.018 91.4165 104.817 91.7187C104.617 92.021 104.464 92.3596 104.252 92.6546C104.041 92.9495 103.793 93.2227 103.577 93.514C103.362 93.8053 102.983 93.9764 102.761 94.2605C102.538 94.5445 102.436 94.9305 102.206 95.2109C101.977 95.4913 101.616 95.6624 101.379 95.9392C101.141 96.2159 100.923 96.5036 100.682 96.7731C100.441 97.0425 100.182 97.2974 99.9345 97.5633C99.6865 97.8291 99.6099 98.2588 99.3546 98.5173C99.0994 98.7759 98.7165 98.907 98.4576 99.1618C98.1987 99.4167 97.9616 99.6935 97.6954 99.9411C97.4292 100.189 97.225 100.502 96.9515 100.746C96.678 100.99 96.3571 101.172 96.08 101.405C95.8029 101.638 95.5877 101.951 95.3033 102.181C95.0188 102.41 94.7344 102.636 94.4463 102.858C94.1582 103.08 93.8556 103.284 93.5638 103.502C93.2721 103.721 92.9549 103.907 92.6595 104.114C92.3641 104.322 91.9812 104.413 91.6822 104.617C91.3832 104.821 91.0842 105.025 90.7778 105.221C90.4715 105.418 90.2163 105.691 89.9027 105.877C89.5891 106.062 89.2098 106.128 88.8925 106.31C88.5753 106.492 88.3091 106.747 87.9882 106.922C87.6673 107.097 87.3756 107.315 87.051 107.483C86.7265 107.65 86.4384 107.883 86.1102 108.043C85.782 108.204 85.4173 108.284 85.0891 108.437C84.761 108.59 84.4291 108.739 84.0936 108.884C83.7581 109.03 83.3716 109.037 83.0325 109.176C82.6933 109.314 82.3907 109.518 82.0479 109.649C81.7051 109.78 81.3696 109.911 81.0268 110.032C80.6841 110.152 80.3777 110.381 80.0313 110.494C79.6849 110.607 79.3166 110.647 78.9665 110.753C78.6164 110.858 78.2408 110.851 77.8871 110.949C77.5334 111.048 77.1833 111.12 76.8332 111.211C76.4832 111.302 76.1878 111.637 75.8341 111.718C75.4804 111.798 75.123 111.874 74.7656 111.947C74.4083 112.02 74.0327 111.983 73.6717 112.049C73.3106 112.114 72.935 112.049 72.5777 112.107C72.2203 112.165 71.8739 112.297 71.5129 112.348C71.1518 112.398 70.8054 112.533 70.4408 112.573C70.0761 112.613 69.7224 112.723 69.3614 112.755C69.0004 112.788 68.6321 112.784 68.2674 112.81C67.9027 112.835 67.5344 112.755 67.1734 112.77C66.8124 112.784 66.4477 112.806 66.0831 112.814C65.7184 112.821 65.3574 112.693 64.9928 112.693L65.0183 112.653Z" fill="#F26798"/>
<path d="M65 56V74" stroke="white" stroke-width="2.4" stroke-linecap="round" stroke-linejoin="round"/>
<path d="M56 65H74" stroke="white" stroke-width="2.4" stroke-linecap="round" stroke-linejoin="round"/>
</g>
<defs>
<clipPath id="clip0_849_17196">
<rect width="114" height="114" fill="white" transform="translate(8 8)"/>
</clipPath>
</defs>
</svg>
