<svg width="130" height="130" viewBox="0 0 130 130" fill="none" xmlns="http://www.w3.org/2000/svg">
<path d="M102.341 119.682C101.719 119.682 101.719 120 101.097 120C100.475 120 100.475 119.765 99.8532 119.765C99.2313 119.765 99.2313 119.964 98.6094 119.964C97.9874 119.964 97.9874 119.861 97.3655 119.861C96.7436 119.861 96.7436 119.901 96.1216 119.901C95.4997 119.901 95.4997 119.977 94.8778 119.977C94.2558 119.977 94.2558 119.838 93.6339 119.838C93.0119 119.838 93.0119 119.696 92.39 119.696C91.7681 119.696 91.7681 119.907 91.1461 119.907C90.5242 119.907 90.5242 119.719 89.9023 119.719C89.2803 119.719 89.2803 119.719 88.6584 119.719C88.0365 119.719 88.0365 119.871 87.4145 119.871C86.7926 119.871 86.7926 119.944 86.1706 119.944C85.5487 119.944 85.5487 119.907 84.9268 119.907C84.3048 119.907 84.3048 119.772 83.6829 119.772C83.061 119.772 83.061 119.735 82.439 119.735C81.8171 119.735 81.8171 119.944 81.1952 119.944C80.5732 119.944 80.5732 119.715 79.9513 119.715C79.3293 119.715 79.3293 119.95 78.7074 119.95C78.0855 119.95 78.0855 119.788 77.4635 119.788C76.8416 119.788 76.8416 119.934 76.2197 119.934C75.5977 119.934 75.5977 119.752 74.9758 119.752C74.3539 119.752 74.3539 119.782 73.7319 119.782C73.11 119.782 73.11 119.828 72.488 119.828C71.8661 119.828 71.8661 119.735 71.2442 119.735C70.6222 119.735 70.6222 119.765 70.0003 119.765C69.3784 119.765 69.3784 119.901 68.7564 119.901C68.1345 119.901 68.1345 119.811 67.5126 119.811C66.8906 119.811 66.8906 119.874 66.2687 119.874C65.6467 119.874 65.6468 119.788 65.0248 119.788C64.4029 119.788 64.4029 119.848 63.7809 119.848C63.159 119.848 63.159 119.894 62.5371 119.894C61.9151 119.894 61.9151 119.864 61.2932 119.864C60.6713 119.864 60.6713 119.778 60.0493 119.778C59.4274 119.778 59.4274 119.861 58.8055 119.861C58.1835 119.861 58.1835 119.742 57.5616 119.742C56.9396 119.742 56.9396 119.805 56.3177 119.805C55.6958 119.805 55.6958 119.739 55.0738 119.739C54.4519 119.739 54.4519 119.874 53.83 119.874C53.208 119.874 53.208 119.838 52.5861 119.838C51.9642 119.838 51.9642 119.818 51.3422 119.818C50.7203 119.818 50.7203 119.719 50.0983 119.719C49.4764 119.719 49.4764 119.805 48.8545 119.805C48.2325 119.805 48.2325 119.94 47.6073 119.94C46.982 119.94 46.9854 119.861 46.3634 119.861C45.7415 119.861 45.7415 119.931 45.1195 119.931C44.4976 119.931 44.4976 119.931 43.8757 119.931C43.2537 119.931 43.2537 119.712 42.6318 119.712C42.0099 119.712 42.0099 119.838 41.3879 119.838C40.766 119.838 40.766 119.811 40.1407 119.811C39.5155 119.811 39.5188 119.901 38.8969 119.901C38.2749 119.901 38.2749 119.682 37.6497 119.682C37.0245 119.682 37.0278 119.881 36.4025 119.881C35.7773 119.881 35.7806 119.874 35.1553 119.874C34.5301 119.874 34.5334 119.719 33.9082 119.719C33.2829 119.719 33.2862 119.924 32.661 119.924C32.0357 119.924 32.039 119.98 31.4138 119.98C30.7885 119.98 30.7919 119.831 30.1666 119.831C29.5414 119.831 29.5414 119.95 28.9194 119.95C28.2975 119.95 28.2942 119.894 27.6723 119.894C27.2521 119.894 26.8287 119.914 26.4185 119.888C26.0082 119.861 25.5848 119.775 25.1746 119.715C24.7644 119.656 24.3442 119.593 23.9373 119.504C23.5304 119.414 23.1401 119.239 22.7431 119.12C22.3461 119.001 21.9888 118.756 21.6018 118.611C21.2147 118.465 20.8409 118.293 20.4637 118.121C20.0866 117.949 19.6069 117.975 19.243 117.777C18.8791 117.578 18.5417 117.317 18.191 117.092C17.8404 116.867 17.4599 116.679 17.1258 116.427C16.7917 116.176 16.6097 115.742 16.2955 115.471C15.9812 115.2 15.5081 115.094 15.2137 114.8C14.9193 114.505 14.6381 114.184 14.3668 113.87C14.0955 113.556 13.8176 113.231 13.5695 112.897C13.3214 112.563 13.242 112.11 13.0171 111.759C12.7921 111.409 12.5341 111.081 12.3356 110.717C12.1371 110.353 11.9651 109.976 11.7897 109.596C11.6144 109.215 11.3001 108.894 11.1512 108.504C11.0024 108.114 10.966 107.684 10.8469 107.283C10.7278 106.883 10.5492 106.496 10.4631 106.086C10.3771 105.676 10.5458 105.229 10.4863 104.812C10.4268 104.395 10.1654 104.015 10.1356 103.595C10.1059 103.175 10.0397 102.761 10.0397 102.341C10.0397 101.719 10.0562 101.719 10.0562 101.097C10.0562 100.475 10.1323 100.475 10.1323 99.8532C10.1323 99.2313 10 99.2346 10 98.6127C10 97.9907 10.2415 97.9907 10.2415 97.3688C10.2415 96.7469 10.2084 96.7469 10.2084 96.1249C10.2084 95.503 10.268 95.503 10.268 94.8811C10.268 94.2591 10.1522 94.2591 10.1522 93.6372C10.1522 93.0152 10.1356 93.0152 10.1356 92.3933C10.1356 91.7714 10.043 91.7714 10.043 91.1494C10.043 90.5275 10.0562 90.5275 10.0562 89.9056C10.0562 89.2836 10.1125 89.2836 10.1125 88.6617C10.1125 88.0398 10.2845 88.0398 10.2845 87.4178C10.2845 86.7959 10.2448 86.7959 10.2448 86.1739C10.2448 85.552 10.0232 85.552 10.0232 84.9301C10.0232 84.3081 10.1919 84.3081 10.1919 83.6862C10.1919 83.0643 10.3176 83.0643 10.3176 82.4423C10.3176 81.8204 10.2514 81.8204 10.2514 81.1985C10.2514 80.5765 10.0198 80.5765 10.0198 79.9546C10.0198 79.3326 10.0893 79.3326 10.0893 78.7107C10.0893 78.0888 10.1323 78.0888 10.1323 77.4668C10.1323 76.8449 10.1522 76.8449 10.1522 76.223C10.1522 75.601 10.1786 75.601 10.1786 74.9791C10.1786 74.3572 10.2944 74.3572 10.2944 73.7352C10.2944 73.1133 10.0562 73.1133 10.0562 72.4913C10.0562 71.8694 10.0629 71.8694 10.0629 71.2475C10.0629 70.6255 10.1654 70.6255 10.1654 70.0036C10.1654 69.3817 10.1654 69.3817 10.1654 68.7597C10.1654 68.1378 10.0331 68.1378 10.0331 67.5159C10.0331 66.8939 10.2878 66.8939 10.2878 66.272C10.2878 65.6501 10.129 65.6501 10.129 65.0281C10.129 64.4062 10.2779 64.4062 10.2779 63.7842C10.2779 63.1623 10.0629 63.1623 10.0629 62.5404C10.0629 61.9184 10.0265 61.9184 10.0265 61.2965C10.0265 60.6746 10.1489 60.6746 10.1489 60.0526C10.1489 59.4307 10.129 59.4307 10.129 58.8088C10.129 58.1868 10.0265 58.1868 10.0265 57.5649C10.0265 56.9429 10.2382 56.9429 10.2382 56.321C10.2382 55.6991 10.1389 55.6991 10.1389 55.0771C10.1389 54.4552 10.2448 54.4552 10.2448 53.8333C10.2448 53.2113 10.0165 53.2113 10.0165 52.5894C10.0165 51.9675 10.129 51.9675 10.129 51.3455C10.129 50.7236 10.0662 50.7236 10.0662 50.1017C10.0662 49.4797 10.2084 49.4797 10.2084 48.8578C10.2084 48.2358 10.043 48.2358 10.043 47.6106C10.043 46.9854 10.1786 46.9887 10.1786 46.3667C10.1786 45.7448 10.129 45.7448 10.129 45.1229C10.129 44.5009 10.043 44.5009 10.043 43.879C10.043 43.257 10.2713 43.257 10.2713 42.6351C10.2713 42.0132 10.1952 42.0132 10.1952 41.3912C10.1952 40.7693 10.0298 40.7693 10.0298 40.1441C10.0298 39.5188 10.0165 39.5221 10.0165 38.9002C10.0165 38.2782 10.225 38.2782 10.225 37.653C10.225 37.0278 10.3143 37.0311 10.3143 36.4058C10.3143 35.7806 10.0529 35.7839 10.0529 35.1586C10.0529 34.5334 10.0926 34.5367 10.0926 33.9115C10.0926 33.2862 10.1952 33.2895 10.1952 32.6643C10.1952 32.039 10.0728 32.0423 10.0728 31.4171C10.0728 30.7919 10.0265 30.7952 10.0265 30.1699C10.0265 29.5447 10.3143 29.5447 10.3143 28.9227C10.3143 28.3008 10.2514 28.2975 10.2514 27.6756C10.2514 27.2554 10.1687 26.8386 10.1985 26.4251C10.2283 26.0115 10.354 25.6046 10.4135 25.1944C10.4731 24.7842 10.3904 24.3409 10.4764 23.934C10.5624 23.5271 10.7013 23.1235 10.8204 22.7265C10.9395 22.3296 11.2273 21.9855 11.3729 21.5951C11.5185 21.2048 11.4788 20.7383 11.6541 20.3579C11.8294 19.9774 12.1735 19.683 12.372 19.3191C12.5704 18.9552 12.7921 18.6079 13.0171 18.2572C13.242 17.9065 13.424 17.5294 13.6721 17.1953C13.9202 16.8611 14.0492 16.4245 14.3238 16.1102C14.5984 15.7959 14.906 15.4982 15.2004 15.2038C15.4949 14.9093 15.9249 14.7538 16.2392 14.4826C16.5535 14.2113 16.8148 13.8673 17.1457 13.6191C17.4765 13.371 17.9231 13.2817 18.2737 13.0568C18.6244 12.8318 18.9883 12.6532 19.3555 12.4514C19.7227 12.2496 19.9774 11.8427 20.3579 11.6673C20.7383 11.492 21.132 11.3497 21.5257 11.2042C21.9193 11.0586 22.3726 11.1248 22.7762 11.009C23.1798 10.8932 23.5635 10.7741 23.9737 10.6848C24.3839 10.5955 24.7578 10.3738 25.1746 10.3143C25.5914 10.2547 26.0082 10.2944 26.4251 10.2647C26.8419 10.2349 27.2521 10.0926 27.6689 10.0926C28.2909 10.0926 28.2909 10.301 28.9128 10.301C29.5348 10.301 29.5348 10.0992 30.1567 10.0992C30.7786 10.0992 30.7786 10.0298 31.4006 10.0298C32.0225 10.0298 32.0225 10.2084 32.6444 10.2084C33.2664 10.2084 33.2664 10.1423 33.8883 10.1423C34.5102 10.1423 34.5102 10.0728 35.1322 10.0728C35.7541 10.0728 35.7541 10.2878 36.3761 10.2878C36.998 10.2878 36.998 10.0662 37.6199 10.0662C38.2419 10.0662 38.2419 10.0132 38.8638 10.0132C39.4857 10.0132 39.4857 10.0629 40.1077 10.0629C40.7296 10.0629 40.723 10 41.3416 10C41.9602 10 41.9636 10.1059 42.5855 10.1059C43.2074 10.1059 43.2074 10.0165 43.8294 10.0165C44.4513 10.0165 44.4513 10.2514 45.0732 10.2514C45.6952 10.2514 45.6952 10.1786 46.3171 10.1786C46.939 10.1786 46.939 10.043 47.561 10.043C48.1829 10.043 48.1829 10.1522 48.8049 10.1522C49.4268 10.1522 49.4268 10.1621 50.0487 10.1621C50.6707 10.1621 50.6707 10.1819 51.2926 10.1819C51.9145 10.1819 51.9145 10.2382 52.5365 10.2382C53.1584 10.2382 53.1584 10.1456 53.7803 10.1456C54.4023 10.1456 54.4023 10.0827 55.0242 10.0827C55.6461 10.0827 55.6461 10.258 56.2681 10.258C56.89 10.258 56.89 10.0728 57.512 10.0728C58.1339 10.0728 58.1339 10.1456 58.7558 10.1456C59.3778 10.1456 59.3778 10.1522 59.9997 10.1522C60.6216 10.1522 60.6216 10.1323 61.2436 10.1323C61.8655 10.1323 61.8655 10.0066 62.4874 10.0066C63.1094 10.0066 63.1094 10.2117 63.7313 10.2117C64.3533 10.2117 64.3533 10.0761 64.9752 10.0761C65.5971 10.0761 65.5971 10.0562 66.2191 10.0562C66.841 10.0562 66.841 10.258 67.4629 10.258C68.0849 10.258 68.0849 10.0662 68.7068 10.0662C69.3287 10.0662 69.3287 10.3044 69.9507 10.3044C70.5726 10.3044 70.5726 10.0165 71.1946 10.0165C71.8165 10.0165 71.8165 10.1191 72.4384 10.1191C73.0604 10.1191 73.0604 10.301 73.6823 10.301C74.3042 10.301 74.3042 10.2713 74.9262 10.2713C75.5481 10.2713 75.5481 10.1654 76.17 10.1654C76.792 10.1654 76.792 10.3209 77.4139 10.3209C78.0359 10.3209 78.0359 10.0794 78.6578 10.0794C79.2797 10.0794 79.2797 10.0695 79.9017 10.0695C80.5236 10.0695 80.5236 10.1191 81.1455 10.1191C81.7675 10.1191 81.7675 10.2018 82.3927 10.2018C83.018 10.2018 83.0146 10.1654 83.6366 10.1654C84.2585 10.1654 84.2585 10.1356 84.8805 10.1356C85.5024 10.1356 85.5024 10.2018 86.1243 10.2018C86.7463 10.2018 86.7463 10.0728 87.3682 10.0728C87.9901 10.0728 87.9901 10.0132 88.6121 10.0132C89.234 10.0132 89.234 10.0331 89.8593 10.0331C90.4845 10.0331 90.4812 10.2845 91.1031 10.2845C91.7251 10.2845 91.7251 10.1522 92.3503 10.1522C92.9755 10.1522 92.9722 10.0728 93.5975 10.0728C94.2227 10.0728 94.2194 10.1985 94.8447 10.1985C95.4699 10.1985 95.4666 10.2944 96.0919 10.2944C96.7171 10.2944 96.7138 10.2283 97.339 10.2283C97.9643 10.2283 97.961 10.0496 98.5862 10.0496C99.2115 10.0496 99.2081 10.1356 99.8334 10.1356C100.459 10.1356 100.459 10.0662 101.081 10.0662C101.703 10.0662 101.706 10.0331 102.328 10.0331C102.748 10.0331 103.151 10.3407 103.565 10.3672C103.979 10.3937 104.402 10.3308 104.812 10.3871C105.222 10.4433 105.623 10.5657 106.03 10.6517C106.437 10.7377 106.876 10.7046 107.273 10.8204C107.67 10.9362 108.054 11.1182 108.445 11.2637C108.835 11.4093 109.212 11.5879 109.589 11.7599C109.966 11.932 110.429 11.9584 110.793 12.1569C111.157 12.3554 111.369 12.8186 111.72 13.0435C112.07 13.2685 112.576 13.2751 112.907 13.5232C113.238 13.7713 113.569 14.0492 113.883 14.3205C114.197 14.5917 114.525 14.8696 114.819 15.1641C115.114 15.4585 115.365 15.8058 115.64 16.1201C115.914 16.4344 116.139 16.795 116.391 17.1291C116.642 17.4632 116.947 17.7643 117.175 18.1149C117.403 18.4656 117.575 18.856 117.777 19.2199C117.979 19.5838 117.962 20.0568 118.134 20.4373C118.306 20.8177 118.634 21.1254 118.779 21.5191C118.925 21.9127 118.872 22.3626 118.988 22.7629C119.103 23.1632 119.229 23.5503 119.319 23.9572C119.408 24.3641 119.457 24.7677 119.517 25.1812C119.577 25.5947 119.894 25.9752 119.924 26.3953C119.954 26.8154 119.765 27.2323 119.765 27.6524C119.765 28.2743 119.808 28.2743 119.808 28.8963C119.808 29.5182 119.914 29.5182 119.914 30.1401C119.914 30.7621 119.828 30.7621 119.828 31.384C119.828 32.006 119.94 32.006 119.94 32.6279C119.94 33.2498 119.94 33.2498 119.94 33.8718C119.94 34.4937 119.917 34.4937 119.917 35.1156C119.917 35.7376 119.878 35.7376 119.878 36.3595C119.878 36.9814 119.715 36.9814 119.715 37.6034C119.715 38.2253 119.722 38.2253 119.722 38.8472C119.722 39.4692 119.831 39.4692 119.831 40.0911C119.831 40.7131 119.669 40.7131 119.669 41.335C119.669 41.9569 119.775 41.9569 119.775 42.5789C119.775 43.2008 119.838 43.2008 119.838 43.8227C119.838 44.4447 119.927 44.4447 119.927 45.0666C119.927 45.6885 119.831 45.6885 119.831 46.3105C119.831 46.9324 119.831 46.9324 119.831 47.5544C119.831 48.1763 119.666 48.1763 119.666 48.7982C119.666 49.4202 119.755 49.4202 119.755 50.0421C119.755 50.664 119.762 50.664 119.762 51.286C119.762 51.9079 119.897 51.9079 119.897 52.5298C119.897 53.1518 119.811 53.1518 119.811 53.7737C119.811 54.3957 119.679 54.3957 119.679 55.0176C119.679 55.6395 119.659 55.6395 119.659 56.2615C119.659 56.8834 119.954 56.8834 119.954 57.5053C119.954 58.1273 119.947 58.1273 119.947 58.7492C119.947 59.3711 119.821 59.3711 119.821 59.9931C119.821 60.615 119.676 60.615 119.676 61.237C119.676 61.8589 119.768 61.8589 119.768 62.4808C119.768 63.1028 119.874 63.1028 119.874 63.7247C119.874 64.3466 119.957 64.3466 119.957 64.9686C119.957 65.5905 119.921 65.5905 119.921 66.2124C119.921 66.8344 119.805 66.8344 119.805 67.4563C119.805 68.0782 119.815 68.0783 119.815 68.7002C119.815 69.3221 119.666 69.3221 119.666 69.9441C119.666 70.566 119.686 70.566 119.686 71.1879C119.686 71.8099 119.964 71.8099 119.964 72.4318C119.964 73.0537 119.858 73.0537 119.858 73.6757C119.858 74.2976 119.921 74.2976 119.921 74.9195C119.921 75.5415 119.888 75.5415 119.888 76.1634C119.888 76.7854 119.759 76.7854 119.759 77.4073C119.759 78.0292 119.931 78.0292 119.931 78.6512C119.931 79.2731 119.841 79.2731 119.841 79.895C119.841 80.517 119.907 80.517 119.907 81.1389C119.907 81.7608 119.672 81.7608 119.672 82.3861C119.672 83.0113 119.838 83.008 119.838 83.63C119.838 84.2519 119.699 84.2519 119.699 84.8738C119.699 85.4958 119.732 85.4958 119.732 86.1177C119.732 86.7396 119.99 86.7396 119.99 87.3616C119.99 87.9835 119.762 87.9835 119.762 88.6055C119.762 89.2274 119.937 89.2274 119.937 89.8526C119.937 90.4779 119.907 90.4746 119.907 91.0965C119.907 91.7184 119.841 91.7184 119.841 92.3437C119.841 92.9689 119.795 92.9656 119.795 93.5909C119.795 94.2161 119.692 94.2128 119.692 94.8381C119.692 95.4633 119.937 95.46 119.937 96.0852C119.937 96.7105 119.689 96.7072 119.689 97.3324C119.689 97.9576 119.835 97.9543 119.835 98.5796C119.835 99.2048 119.755 99.2015 119.755 99.8268C119.755 100.452 119.897 100.452 119.897 101.074C119.897 101.696 119.755 101.699 119.755 102.321C119.755 102.741 119.788 103.155 119.755 103.568C119.722 103.982 119.821 104.419 119.765 104.829C119.709 105.239 119.613 105.659 119.524 106.063C119.434 106.466 119.325 106.88 119.209 107.28C119.094 107.68 118.875 108.054 118.733 108.441C118.591 108.828 118.399 109.205 118.224 109.583C118.048 109.96 117.82 110.31 117.621 110.674C117.423 111.038 117.337 111.475 117.112 111.826C116.887 112.176 116.503 112.414 116.252 112.748C116 113.083 115.818 113.463 115.544 113.777C115.269 114.092 114.995 114.403 114.7 114.697C114.406 114.991 114.158 115.342 113.843 115.613C113.529 115.885 113.215 116.172 112.881 116.421C112.547 116.669 112.173 116.874 111.822 117.099C111.472 117.324 111.137 117.592 110.774 117.79C110.41 117.989 110.039 118.207 109.662 118.379C109.285 118.551 108.842 118.584 108.448 118.73C108.054 118.875 107.651 118.968 107.25 119.087C106.85 119.206 106.473 119.411 106.063 119.5C105.652 119.59 105.216 119.484 104.802 119.543C104.389 119.603 103.985 119.633 103.565 119.663C103.145 119.692 102.745 119.653 102.324 119.653L102.341 119.682Z" fill="#FF80AD"/>
<path d="M52 13C52 13.2552 52 13.2552 52 13.507C52 13.7587 52 13.7621 52 14.0139C52 14.2657 52 14.2691 52 14.5209C52 14.7726 52 14.776 52 15.0278C52 15.2796 52 15.283 52 15.5348C52 15.7865 52 15.7899 52 16.0417C52 16.2935 52 16.2969 52 16.5487C52 16.8004 52 16.8038 52 17.0556C52 17.3074 52 17.3108 52 17.5626C52 17.8143 52 17.8177 52 18.0695C52 18.3213 52 18.3247 52 18.5799C52 18.8351 52 18.8351 52 19.0902C52 19.3454 52 19.3454 52 19.6006C52 19.8558 52 19.8558 52 20.1109C52 20.3661 52 20.3661 52 20.6213C52 20.8765 52 20.8765 52 21.1316C52 21.3868 52 21.3868 52 21.642C52 21.8972 52 21.8972 52 22.1524C52 22.4075 52 22.4075 52 22.6627C52 22.9179 52 22.9179 52 23.1731C52 23.4282 52 23.4282 52 23.6834C52 23.9386 52 23.9386 52 24.1938C52 24.4489 52 24.4489 52 24.7041C52 24.9593 52 24.9593 52 25.2145C52 25.4697 52 25.4697 52 25.7248C52 25.98 52 25.98 52 26.2352C52 26.4904 52 26.4904 52 26.7455C52 27.0007 52 27.0007 52 27.2559C52 27.5111 52 27.5111 52 27.7663C52 28.0214 52 28.0214 52 28.2766C52 28.5318 52 28.5318 52 28.787C52 29.0421 52 29.0421 52 29.2939C52 29.5457 52 29.5491 52 29.8009C52 30.0526 52 30.056 52 30.3078C52 30.5596 52 30.563 52 30.8148C52 31.0665 52 31.0699 52 31.3217C52 31.5735 52 31.5769 52 31.8321C52 32.0873 52 32.0873 52 32.3424C52 32.5976 52 32.5976 52 32.8528C52 33.108 52 33.108 52 33.3631C52 33.6183 52 33.6183 52 33.8735C52 34.1287 52 34.1287 52 34.3838C52 34.639 52 34.639 52 34.8942C52 35.1494 52 35.1494 52 35.4046C52 35.6597 52 35.6597 52 35.9149C52 36.1701 52 36.1701 52 36.4253C52 36.6804 52 36.6804 52 36.9356C52 37.1908 52 37.1908 52 37.446C52 37.7011 52 37.7011 52 37.9563C52 38.2115 52 38.2115 52 38.4667C52 38.7219 52 38.7219 52 38.977C52 39.2322 52 39.2322 52 39.4874C52 39.7426 52 39.7426 52 39.9977C52 40.2529 52 40.2529 52 40.5081C52 40.7633 52 40.7633 52 41.0184C52 41.2736 52 41.2736 52 41.5288C52 41.784 52 41.784 52 42.0392C52 42.2943 52 42.2943 52 42.5495C52 42.8047 52 42.8047 52 43.0599C52 43.315 52 43.315 52 43.5702C52 43.8254 52 43.8254 52 44.0806C52 44.3358 52 44.3358 52 44.5909C52 44.8461 52 44.8461 52 45.1013C52 45.3565 52 45.3565 52 45.6116C52 45.8668 52 45.8668 52 46.122C52 46.3772 52 46.3772 52 46.6323C52 46.8875 52 46.8875 52 47.1427C52 47.3979 52 47.3979 52 47.6531C52 47.9082 52 47.9082 52 48.1634C52 48.4186 52 48.4186 52 48.6738C52 48.9289 52 48.9289 52 49.1841C52 49.4393 52 49.4393 52 49.6945C52 49.9496 52 49.9496 52 50.2048C52 50.46 52 50.46 52 50.7152C52 50.9704 52 50.9704 52 51.2255C52 51.4807 52 51.4807 52 51.7359C52 51.9911 52 51.9911 52 52.2462C52 52.5014 52 52.5014 52 52.7566C52 53.0118 52 53.0118 52 53.2669C52 53.5221 52 53.5221 52 53.7773C52 54.0325 52 54.0325 52 54.2877C52 54.5428 52 54.5428 52 54.798C52 55.0532 52 55.0532 52 55.3084C52 55.5635 52 55.5635 52 55.8153C52 56.0671 52 56.0705 52 56.3223C52 56.574 52 56.5775 52 56.8326C52 57.0878 52 57.0878 52 57.343C52 57.5982 52 57.5982 52 57.8533C52 58.1085 52 58.1085 52 58.3637C52 58.6189 52 58.6189 52 58.874C52 59.1292 52 59.1292 52 59.3844C52 59.6396 52 59.6396 52 59.8948C52 60.1499 52 60.1499 52 60.4051C52 60.6603 52 60.6603 52 60.9155C52 61.1706 52 61.1706 52 61.4224C52 61.6742 52 61.6776 52 61.9294C52 62.1811 52 62.1845 52 62.4363C52 62.6881 52 62.6915 52 62.9433C52 63.195 52 63.1984 52 63.4502C52 63.702 52 63.7054 52 63.9572C52 64.2089 52 64.2123 52 64.4641C52 64.7159 52 64.7193 52 64.9711C52 65.2229 52 65.2263 52 65.478C52 65.7298 52 65.7332 52 65.985C52 66.2368 52 66.2402 52 66.4919C52 66.7437 52 66.7471 52 66.9989C52 67.2507 52 67.2541 52 67.5058C52 67.7576 52 67.761 52 68.0128C52 68.2646 52 68.268 52 68.5197C52 68.7715 52 68.7749 52 69.0267C52 69.2785 52 69.2819 52 69.537C52 69.7922 52 69.7922 52 70.0474C52 70.3026 52 70.3026 52 70.5578C52 70.8129 52 70.8129 52 71.0681C52 71.3233 52 71.3233 52 71.5785C52 71.8336 52 71.8336 52 72.0888C52 72.344 52 72.344 52 72.5992C52 72.8543 52 72.8543 52 73.1095C52 73.3647 52 73.3647 52 73.6199C52 73.8751 52 73.8751 52 74.1302C52 74.3854 52 74.3854 52 74.6406C52 74.8958 52 74.8958 52 75.1509C52 75.4061 52 75.4061 52 75.6613C52 75.9165 52 75.9165 52 76.1683C52 76.42 52 76.4234 52 76.6752C52 76.927 52 76.9304 52 77.1822C52 77.4339 52 77.4373 52 77.6925C52 77.9477 52 77.9477 52 78.2029C52 78.458 52 78.458 52 78.7132C52 78.9684 52 78.9684 52 79.2236C52 79.4787 52 79.4787 52 79.7339C52 79.9891 52 79.9891 52 80.2443C52 80.4995 52 80.4995 52 80.7546C52 81.0098 52 81.0098 52 81.265C52 81.5202 52 81.5202 52 81.7753C52 82.0305 52 82.0305 52 82.2857C52 82.5409 52 82.5409 52 82.7961C52 83.0512 52 83.0512 52 83.3064C52 83.5616 52 83.5616 52 83.8168C52 84.0719 52 84.0719 52 84.3271C52 84.5823 52 84.5823 52 84.8375C52 85.0926 52 85.0926 52 85.3478C52 85.603 52 85.603 52 85.8582C52 86.1134 52 86.1134 52 86.3685C52 86.6237 52 86.6237 52 86.8789C52 87.1341 52 87.1341 52 87.3892C52 87.6444 52 87.6444 52 87.8996C52 88.1548 52 88.1548 52 88.4099C52 88.6651 52 88.6651 52 88.9203C52 89.1755 52 89.1755 52 89.4307C52 89.6858 52 89.6858 52 89.941C52 90.1962 52 90.1962 52 90.4514C52 90.7065 52 90.7065 52 90.9617C52 91.2169 52 91.2169 52 91.4721C52 91.7273 52 91.7273 52 91.9824C52 92.2376 52 92.2376 52 92.4928C52 92.748 52 92.748 52 93.0031C52 93.2583 52 93.2583 52 93.5135C52 93.7687 52 93.7687 52 94.0238C52 94.279 52 94.279 52 94.5342C52 94.7894 52 94.7894 52 95.0446C52 95.2997 52 95.2997 52 95.5549C52 95.8101 52 95.8101 52 96.0653C52 96.3204 52 96.3204 52 96.5756C52 96.8308 52 96.8308 52 97.086C52 97.3411 52 97.3411 52 97.5963C52 97.8515 52 97.8515 52 98.1067C52 98.3619 52 98.3619 52 98.617C52 98.8722 52 98.8722 52 99.1274C52 99.3826 52 99.3826 52 99.6377C52 99.8929 52 99.8929 52 100.145C52 100.396 52 100.4 52 100.655C52 100.91 52 100.91 52 101.165C52 101.421 52 101.421 52 101.676C52 101.931 52 101.931 52 102.186C52 102.441 52 102.441 52 102.696C52 102.952 52 102.952 52 103.207C52 103.462 52 103.462 52 103.717C52 103.972 52 103.972 52 104.228C52 104.483 52 104.483 52 104.738C52 104.993 52 104.993 52 105.248C52 105.503 52 105.503 52 105.759C52 106.014 52 106.014 52 106.269C52 106.524 52 106.524 52 106.779C52 107.034 52 107.034 52 107.29C52 107.545 52 107.545 52 107.8C52 108.055 52 108.055 52 108.31C52 108.566 52 108.566 52 108.821C52 109.076 52 109.076 52 109.331C52 109.586 52 109.586 52 109.841C52 110.097 52 110.097 52 110.352C52 110.607 52 110.607 52 110.862C52 111.117 52 111.117 52 111.372C52 111.628 52 111.628 52 111.883C52 112.138 52 112.138 52 112.393C52 112.648 52 112.648 52 112.904C52 113.159 52 113.159 52 113.414C52 113.669 52 113.669 52 113.924C52 114.179 52 114.179 52 114.435C52 114.69 52 114.69 52 114.948C52 115.207 52 115.204 52 115.459C52 115.714 52 115.714 52 115.972C52 116.231 52 116.228 52 116.486C52 116.745 52 116.741 52 117" stroke="#181818" stroke-width="4.11934" stroke-miterlimit="10"/>
<path d="M13 53.5637C13.2475 53.5637 13.2475 53.4 13.495 53.4C13.7426 53.4 13.7426 53.4 13.9901 53.4C14.2376 53.4 14.2376 53.6727 14.4851 53.6727C14.7327 53.6727 14.7327 53.0909 14.9802 53.0909C15.2277 53.0909 15.2277 53.0909 15.4752 53.0909C15.7228 53.0909 15.7228 53.9636 15.9703 53.9636C16.2178 53.9636 16.2178 53.8727 16.4653 53.8727C16.7129 53.8727 16.7129 53.4909 16.9604 53.4909C17.2079 53.4909 17.2079 53.5455 17.4554 53.5455C17.703 53.5455 17.703 53.6 17.9505 53.6C18.198 53.6 18.198 53.9818 18.4455 53.9818C18.6931 53.9818 18.6931 53.5273 18.9406 53.5273C19.1881 53.5273 19.1881 53.4909 19.4356 53.4909C19.6832 53.4909 19.6832 53.2909 19.9307 53.2909C20.1782 53.2909 20.1782 53.6182 20.4257 53.6182C20.6733 53.6182 20.6733 53.1455 20.9208 53.1455C21.1683 53.1455 21.1683 53.4182 21.4158 53.4182C21.6634 53.4182 21.6634 53.1273 21.9109 53.1273C22.1584 53.1273 22.1584 53.7273 22.4059 53.7273C22.6535 53.7273 22.6535 53.3637 22.901 53.3637C23.1485 53.3637 23.1485 54 23.396 54C23.6436 54 23.6436 53.6727 23.8911 53.6727C24.1386 53.6727 24.1386 53.6182 24.3861 53.6182C24.6337 53.6182 24.6337 53.8909 24.8812 53.8909C25.1287 53.8909 25.1287 53.2 25.3762 53.2C25.6238 53.2 25.6238 53.7273 25.8713 53.7273C26.1188 53.7273 26.1188 53.9273 26.3663 53.9273C26.6139 53.9273 26.6139 53.8727 26.8614 53.8727C27.1089 53.8727 27.1089 53.3455 27.3564 53.3455C27.604 53.3455 27.604 53.6909 27.8515 53.6909C28.099 53.6909 28.099 53.7091 28.3465 53.7091C28.5941 53.7091 28.5941 53.4909 28.8416 53.4909C29.0891 53.4909 29.0891 53.9818 29.3366 53.9818C29.5842 53.9818 29.5842 53.4 29.8317 53.4C30.0792 53.4 30.0792 53.4182 30.3267 53.4182C30.5743 53.4182 30.5743 53.3091 30.8218 53.3091C31.0693 53.3091 31.0693 53.3455 31.3168 53.3455C31.5644 53.3455 31.5644 53.6727 31.8119 53.6727C32.0594 53.6727 32.0594 53.3455 32.3069 53.3455C32.5545 53.3455 32.5545 53.3455 32.802 53.3455C33.0495 53.3455 33.0495 53.5091 33.297 53.5091C33.5446 53.5091 33.5446 53.2727 33.7921 53.2727C34.0396 53.2727 34.0396 53.4364 34.2871 53.4364C34.5347 53.4364 34.5347 53.1091 34.7822 53.1091C35.0297 53.1091 35.0297 53.2 35.2772 53.2C35.5248 53.2 35.5248 53.2 35.7723 53.2C36.0198 53.2 36.0198 53.4545 36.2673 53.4545C36.5149 53.4545 36.5149 53.3273 36.7624 53.3273C37.0099 53.3273 37.0099 53.7636 37.2574 53.7636C37.505 53.7636 37.505 53.3818 37.7525 53.3818C38 53.3818 38 53.5091 38.2475 53.5091C38.495 53.5091 38.495 53.5818 38.7426 53.5818C38.9901 53.5818 38.9901 53.4182 39.2376 53.4182C39.4851 53.4182 39.4851 53.2909 39.7327 53.2909C39.9802 53.2909 39.9802 53.5273 40.2277 53.5273C40.4752 53.5273 40.4752 53.1637 40.7228 53.1637C40.9703 53.1637 40.9703 53.6364 41.2178 53.6364C41.4653 53.6364 41.4653 53.8 41.7129 53.8C41.9604 53.8 41.9604 53.1273 42.2079 53.1273C42.4554 53.1273 42.4554 53.5273 42.703 53.5273C42.9505 53.5273 42.9505 53.4 43.198 53.4C43.4455 53.4 43.4455 53.8182 43.6931 53.8182C43.9406 53.8182 43.9406 53.3273 44.1881 53.3273C44.4356 53.3273 44.4356 53.4909 44.6832 53.4909C44.9307 53.4909 44.9307 53.5637 45.1782 53.5637C45.4257 53.5637 45.4257 53.7455 45.6733 53.7455C45.9208 53.7455 45.9208 53.6 46.1683 53.6C46.4158 53.6 46.4158 53.7273 46.6634 53.7273C46.9109 53.7273 46.9109 53.2909 47.1584 53.2909C47.4059 53.2909 47.4059 53.4727 47.6535 53.4727C47.901 53.4727 47.901 53.2909 48.1485 53.2909C48.396 53.2909 48.396 53.3637 48.6436 53.3637C48.8911 53.3637 48.8911 53.5091 49.1386 53.5091C49.3861 53.5091 49.3861 53.5273 49.6337 53.5273C49.8812 53.5273 49.8812 53.3091 50.1287 53.3091C50.3762 53.3091 50.3762 53.7818 50.6238 53.7818C50.8713 53.7818 50.8713 53.2727 51.1188 53.2727C51.3663 53.2727 51.3663 53.4727 51.6139 53.4727C51.8614 53.4727 51.8614 53.3637 52.1089 53.3637C52.3564 53.3637 52.3564 53.8364 52.604 53.8364C52.8515 53.8364 52.8515 53.6909 53.099 53.6909C53.3465 53.6909 53.3465 53.4545 53.5941 53.4545C53.8416 53.4545 53.8416 53.0545 54.0891 53.0545C54.3366 53.0545 54.3366 53.5818 54.5842 53.5818C54.8317 53.5818 54.8317 53.4182 55.0792 53.4182C55.3267 53.4182 55.3267 53.7455 55.5743 53.7455C55.8218 53.7455 55.8218 53.2909 56.0693 53.2909C56.3168 53.2909 56.3168 53.4909 56.5644 53.4909C56.8119 53.4909 56.8119 53.3273 57.0594 53.3273C57.3069 53.3273 57.3069 53.6909 57.5545 53.6909C57.802 53.6909 57.802 53.6 58.0495 53.6C58.297 53.6 58.297 53.4545 58.5446 53.4545C58.7921 53.4545 58.7921 53.4909 59.0396 53.4909C59.2871 53.4909 59.2871 53.3818 59.5347 53.3818C59.7822 53.3818 59.7822 53.6545 60.0297 53.6545C60.2772 53.6545 60.2772 53.3455 60.5248 53.3455C60.7723 53.3455 60.7723 53.6364 61.0198 53.6364C61.2673 53.6364 61.2673 53.6909 61.5149 53.6909C61.7624 53.6909 61.7624 53.5273 62.0099 53.5273C62.2574 53.5273 62.2574 53.5091 62.505 53.5091C62.7525 53.5091 62.7525 53.5091 63 53.5091C63.2475 53.5091 63.2475 53.2 63.495 53.2C63.7426 53.2 63.7426 53.4545 63.9901 53.4545C64.2376 53.4545 64.2376 53.3818 64.4851 53.3818C64.7327 53.3818 64.7327 53.8545 64.9802 53.8545C65.2277 53.8545 65.2277 53.8545 65.4752 53.8545C65.7228 53.8545 65.7228 53.0909 65.9703 53.0909C66.2178 53.0909 66.2178 53.7636 66.4653 53.7636C66.7129 53.7636 66.7129 53.5273 66.9604 53.5273C67.2079 53.5273 67.2079 53.2545 67.4554 53.2545C67.703 53.2545 67.703 53.6909 67.9505 53.6909C68.198 53.6909 68.198 53.5273 68.4455 53.5273C68.6931 53.5273 68.6931 53.1273 68.9406 53.1273C69.1881 53.1273 69.1881 53.7818 69.4356 53.7818C69.6832 53.7818 69.6832 53.5637 69.9307 53.5637C70.1782 53.5637 70.1782 53.1091 70.4257 53.1091C70.6733 53.1091 70.6733 53.6545 70.9208 53.6545C71.1683 53.6545 71.1683 53.0727 71.4158 53.0727C71.6634 53.0727 71.6634 53.4 71.9109 53.4C72.1584 53.4 72.1584 53.2364 72.4059 53.2364C72.6535 53.2364 72.6535 53.2364 72.901 53.2364C73.1485 53.2364 73.1485 53.6 73.396 53.6C73.6436 53.6 73.6436 53.5455 73.8911 53.5455C74.1386 53.5455 74.1386 53.8364 74.3861 53.8364C74.6337 53.8364 74.6337 53.8545 74.8812 53.8545C75.1287 53.8545 75.1287 53.8545 75.3762 53.8545C75.6238 53.8545 75.6238 53.5273 75.8713 53.5273C76.1188 53.5273 76.1188 53.6727 76.3663 53.6727C76.6139 53.6727 76.6139 53.4182 76.8614 53.4182C77.1089 53.4182 77.1089 53.0727 77.3564 53.0727C77.604 53.0727 77.604 53.6545 77.8515 53.6545C78.099 53.6545 78.099 53.0909 78.3465 53.0909C78.5941 53.0909 78.5941 53.7455 78.8416 53.7455C79.0891 53.7455 79.0891 53.7818 79.3366 53.7818C79.5842 53.7818 79.5842 53.4364 79.8317 53.4364C80.0792 53.4364 80.0792 53.2 80.3267 53.2C80.5743 53.2 80.5743 53.5455 80.8218 53.5455C81.0693 53.5455 81.0693 53.4 81.3168 53.4C81.5644 53.4 81.5644 53.3637 81.8119 53.3637C82.0594 53.3637 82.0594 53.4182 82.3069 53.4182C82.5545 53.4182 82.5545 53.7091 82.802 53.7091C83.0495 53.7091 83.0495 53.4909 83.297 53.4909C83.5446 53.4909 83.5446 53.4909 83.7921 53.4909C84.0396 53.4909 84.0396 53.7636 84.2871 53.7636C84.5347 53.7636 84.5347 53.2545 84.7822 53.2545C85.0297 53.2545 85.0297 53.5455 85.2772 53.5455C85.5248 53.5455 85.5248 53.8 85.7723 53.8C86.0198 53.8 86.0198 53.2545 86.2673 53.2545C86.5149 53.2545 86.5149 53.8545 86.7624 53.8545C87.0099 53.8545 87.0099 53.1637 87.2574 53.1637C87.505 53.1637 87.505 53.3455 87.7525 53.3455C88 53.3455 88 53.5273 88.2475 53.5273C88.495 53.5273 88.495 53.0909 88.7426 53.0909C88.9901 53.0909 88.9901 53.4909 89.2376 53.4909C89.4851 53.4909 89.4851 53.3091 89.7327 53.3091C89.9802 53.3091 89.9802 53.4909 90.2277 53.4909C90.4752 53.4909 90.4752 53 90.7228 53C90.9703 53 90.9703 53.1455 91.2178 53.1455C91.4653 53.1455 91.4653 53.3637 91.7129 53.3637C91.9604 53.3637 91.9604 53.1455 92.2079 53.1455C92.4554 53.1455 92.4554 53.5273 92.703 53.5273C92.9505 53.5273 92.9505 53.2364 93.198 53.2364C93.4455 53.2364 93.4455 53.8182 93.6931 53.8182C93.9406 53.8182 93.9406 53.3091 94.1881 53.3091C94.4356 53.3091 94.4356 53.7091 94.6832 53.7091C94.9307 53.7091 94.9307 53.5455 95.1782 53.5455C95.4257 53.5455 95.4257 53.5091 95.6733 53.5091C95.9208 53.5091 95.9208 53.4364 96.1683 53.4364C96.4158 53.4364 96.4158 53.0364 96.6634 53.0364C96.9109 53.0364 96.9109 53.8727 97.1584 53.8727C97.4059 53.8727 97.4059 53.3091 97.6535 53.3091C97.901 53.3091 97.901 53.6364 98.1485 53.6364C98.396 53.6364 98.396 53.8 98.6436 53.8C98.8911 53.8 98.8911 53.7273 99.1386 53.7273C99.3861 53.7273 99.3861 53.7273 99.6337 53.7273C99.8812 53.7273 99.8812 53.3273 100.129 53.3273C100.376 53.3273 100.376 53.2545 100.624 53.2545C100.871 53.2545 100.871 53.5818 101.119 53.5818C101.366 53.5818 101.366 53.8 101.614 53.8C101.861 53.8 101.861 53.7273 102.109 53.7273C102.356 53.7273 102.356 53.8909 102.604 53.8909C102.851 53.8909 102.851 53.4727 103.099 53.4727C103.347 53.4727 103.347 53.4545 103.594 53.4545C103.842 53.4545 103.842 53.7091 104.089 53.7091C104.337 53.7091 104.337 53.2182 104.584 53.2182C104.832 53.2182 104.832 53.1637 105.079 53.1637C105.327 53.1637 105.327 53.6182 105.574 53.6182C105.822 53.6182 105.822 53.5455 106.069 53.5455C106.317 53.5455 106.317 53.2182 106.564 53.2182C106.812 53.2182 106.812 53.1637 107.059 53.1637C107.307 53.1637 107.307 53.5455 107.554 53.5455C107.802 53.5455 107.802 53.2182 108.05 53.2182C108.297 53.2182 108.297 53.3818 108.545 53.3818C108.792 53.3818 108.792 53.5637 109.04 53.5637C109.287 53.5637 109.287 53.3273 109.535 53.3273C109.782 53.3273 109.782 53.6727 110.033 53.6727C110.284 53.6727 110.281 53.3637 110.528 53.3637C110.776 53.3637 110.776 53.8727 111.026 53.8727C111.277 53.8727 111.274 53.0182 111.525 53.0182C111.776 53.0182 111.772 53.8545 112.023 53.8545C112.274 53.8545 112.271 53.3637 112.518 53.3637C112.766 53.3637 112.766 53.0909 113.013 53.0909C113.261 53.0909 113.261 53.3455 113.512 53.3455C113.762 53.3455 113.759 53 114.01 53C114.261 53 114.257 53.8364 114.508 53.8364C114.759 53.8364 114.756 53.6182 115.007 53.6182C115.257 53.6182 115.254 53.2909 115.505 53.2909C115.756 53.2909 115.756 53.6545 116.003 53.6545C116.251 53.6545 116.254 53.7091 116.502 53.7091C116.749 53.7091 116.752 53.5818 117 53.5818" stroke="#181818" stroke-width="4.11934" stroke-miterlimit="10"/>
<path d="M52.0668 52.8959C52.2404 53.0728 52.2208 52.981 52.5353 52.9333C52.6696 52.9129 52.8236 52.821 53.0104 52.7938C53.1578 52.77 53.3315 52.8313 53.5051 52.8006C53.6558 52.7768 53.8164 52.7394 53.9867 52.7088C54.1407 52.6815 54.2652 52.4264 54.4323 52.3957C54.5863 52.3685 54.7829 52.5625 54.95 52.5284C55.104 52.4978 55.2383 52.3141 55.4021 52.2801C55.5594 52.2494 55.7199 52.2222 55.8838 52.1882C56.0476 52.1542 56.2016 52.1372 56.3654 52.1031C56.5292 52.0691 56.7028 52.144 56.8667 52.1099C57.0305 52.0759 57.1583 51.9126 57.3188 51.8786C57.4793 51.8446 57.6202 51.7459 57.784 51.7085C57.9479 51.671 58.1051 51.6574 58.2657 51.62C58.4262 51.5826 58.6293 51.7663 58.7899 51.7255C58.9504 51.6846 59.1142 51.6812 59.2748 51.6438C59.4353 51.6064 59.5729 51.4907 59.7335 51.4499C59.894 51.4091 60.0382 51.3308 60.1987 51.2866C60.3593 51.2423 60.4739 51.0484 60.6312 51.0042C60.7885 50.9599 61.0145 51.1947 61.1718 51.1505C61.3291 51.1062 61.4306 50.8545 61.5879 50.8068C61.7452 50.7592 61.886 50.6673 62.0433 50.6197C62.2006 50.5721 62.4234 50.7728 62.5806 50.7252C62.7379 50.6775 62.8624 50.5176 63.0164 50.4666C63.1704 50.4155 63.3407 50.4121 63.498 50.3611C63.6553 50.3101 63.7765 50.1536 63.9305 50.0991C64.0845 50.0447 64.2385 49.9902 64.3924 49.9358C64.5464 49.8814 64.6709 49.7385 64.8282 49.684C64.9855 49.6296 65.1755 49.6942 65.3295 49.6398C65.4835 49.5854 65.644 49.5445 65.798 49.4867C65.952 49.4289 66.1453 49.4867 66.2993 49.4254C66.4533 49.3642 66.509 49.0444 66.6597 48.9831C66.8104 48.9219 67.007 48.9763 67.1577 48.9117C67.3084 48.847 67.482 48.8402 67.6328 48.7756C67.7835 48.7109 67.9669 48.7212 68.1177 48.6531C68.2684 48.5851 68.3568 48.3707 68.5043 48.3027C68.6517 48.2346 68.8778 48.3299 69.0252 48.2584C69.1726 48.187 69.2513 47.959 69.3987 47.8842C69.5462 47.8093 69.6969 47.7447 69.8443 47.6698C69.9917 47.595 70.0802 47.4044 70.2244 47.3262C70.3685 47.2479 70.6044 47.3432 70.7486 47.2615C70.8927 47.1799 70.9812 46.9961 71.1221 46.9111C71.263 46.826 71.453 46.8226 71.5906 46.7341C71.7282 46.6457 71.8068 46.4551 71.9444 46.3633C72.0821 46.2714 72.3147 46.3293 72.449 46.234C72.5833 46.1387 72.7373 46.0639 72.8717 45.9652C73.006 45.8665 72.9667 45.5297 73.0977 45.4276C73.2288 45.3256 73.5236 45.4378 73.6481 45.3324C73.7726 45.2269 73.9299 45.1418 74.0511 45.0295C74.1724 44.9173 74.2477 44.7403 74.3657 44.6247C74.4836 44.509 74.4541 44.2368 74.5688 44.1143C74.6835 43.9918 74.9358 44.0054 75.0439 43.8795C75.152 43.7536 75.1225 43.5053 75.2241 43.3726C75.3256 43.2399 75.4403 43.1242 75.5353 42.9847C75.6303 42.8452 75.7057 42.6989 75.7909 42.556C75.8761 42.4131 76.1447 42.3757 76.2201 42.2294C76.2954 42.0831 76.4199 41.9436 76.4887 41.7904C76.5575 41.6373 76.6264 41.4706 76.682 41.3107C76.7377 41.1508 76.6231 40.9296 76.6689 40.7663C76.7148 40.603 76.6362 40.4159 76.6689 40.2492C76.7017 40.0824 76.7083 39.9259 76.7279 39.7558C76.7476 39.5857 76.9933 39.4428 76.9999 39.2727C77.0064 39.1026 76.7869 38.9358 76.7803 38.7657C76.7738 38.5956 76.7705 38.4391 76.7509 38.269C76.7312 38.0988 76.7443 37.9389 76.7148 37.7688C76.6853 37.5987 76.8786 37.3911 76.8393 37.2244C76.8 37.0577 76.7836 36.8842 76.7345 36.7175C76.6853 36.5507 76.5903 36.4044 76.5346 36.2445C76.4789 36.0846 76.2954 35.9791 76.2299 35.8226C76.1644 35.6661 76.2496 35.4416 76.1775 35.2851C76.1054 35.1285 75.9776 35.0061 75.899 34.8529C75.8105 34.6828 75.7483 34.4991 75.6598 34.3358C75.5714 34.1725 75.2732 34.1282 75.1782 33.9683C75.0832 33.8084 75.1028 33.5668 75.0046 33.4103C74.9063 33.2538 74.7326 33.1415 74.6278 32.9918C74.5295 32.8523 74.3755 32.7639 74.2772 32.6346C74.1789 32.5053 74.0937 32.3556 73.9889 32.2263C73.884 32.097 73.7497 31.9949 73.6416 31.8724C73.5335 31.75 73.504 31.5424 73.3893 31.4233C73.2746 31.3042 73.1993 31.1375 73.0781 31.0252C72.9568 30.913 72.8913 30.719 72.7668 30.6135C72.6423 30.5081 72.5113 30.3856 72.3802 30.2869C72.2491 30.1882 72.0755 30.1338 71.9379 30.0419C71.8003 29.9501 71.5447 30.0658 71.4038 29.9875C71.263 29.9092 71.1942 29.6711 71.0467 29.5996C70.8993 29.5282 70.6765 29.6473 70.5258 29.586C70.3751 29.5248 70.2604 29.3615 70.1031 29.3138C69.9459 29.2662 69.7952 29.1981 69.6346 29.1607C69.4741 29.1233 69.3004 29.2084 69.1366 29.1879C68.9728 29.1675 68.8221 29.1471 68.6583 29.1369C68.4944 29.1267 68.3405 29.1437 68.1766 29.1471C68.0128 29.1505 67.8457 28.9872 67.6819 29.0008C67.5181 29.0144 67.3706 29.1335 67.2068 29.1607C67.043 29.1879 66.853 29.0484 66.6924 29.0859C66.5319 29.1233 66.4303 29.3819 66.2731 29.4295C66.1158 29.4771 65.8832 29.2696 65.7259 29.324C65.5687 29.3785 65.5162 29.7017 65.3622 29.7663C65.2083 29.831 65.0051 29.7595 64.8577 29.831C64.7103 29.9024 64.5923 30.0317 64.4449 30.1134C64.2974 30.1951 64.0779 30.127 63.937 30.2121C63.7961 30.2971 63.7601 30.5591 63.6192 30.651C63.4783 30.7428 63.2359 30.6646 63.1016 30.7633C62.9672 30.8619 63 31.1954 62.8657 31.2974C62.7313 31.3995 62.6134 31.5016 62.4856 31.6105C62.3578 31.7193 62.099 31.6513 61.9745 31.7636C61.85 31.8758 61.8238 32.097 61.7026 32.2127C61.5813 32.3284 61.2897 32.2467 61.1718 32.3658C61.0538 32.4849 61.1325 32.8115 61.0178 32.9306C60.9031 33.0497 60.6771 33.0565 60.5657 33.1824C60.4543 33.3083 60.3724 33.458 60.261 33.5838C60.1496 33.7097 59.9235 33.7267 59.8154 33.856C59.7073 33.9853 59.6712 34.1759 59.5664 34.3086C59.4615 34.4413 59.3207 34.5399 59.2191 34.6726C59.1175 34.8053 59.1273 35.0299 59.0258 35.166C58.9242 35.3021 58.6981 35.3361 58.5999 35.4722C58.5016 35.6083 58.3869 35.7308 58.2886 35.8703C58.1903 36.0098 58.2591 36.2615 58.1641 36.4044C58.0691 36.5473 57.8496 36.595 57.7611 36.7379C57.6726 36.8808 57.8135 37.1768 57.7251 37.3197C57.6366 37.4626 57.3122 37.449 57.2271 37.5953C57.1419 37.7416 57.1157 37.9219 57.0305 38.0682C56.9453 38.2145 56.8077 38.3268 56.7258 38.4731C56.6439 38.6194 56.6996 38.8474 56.6209 38.9971C56.5423 39.1468 56.3719 39.242 56.2933 39.3918C56.2147 39.5415 56.3424 39.8 56.2671 39.9532C56.1917 40.1063 56.0607 40.2219 55.9886 40.375C55.9165 40.5282 55.6511 40.5792 55.5823 40.7323C55.5135 40.8854 55.4873 41.0623 55.4185 41.2154C55.3497 41.3686 55.2744 41.5217 55.2088 41.6748C55.1433 41.8279 55.1892 42.0354 55.1236 42.1919C55.0581 42.3484 54.9729 42.4913 54.9074 42.6513C54.8419 42.8112 54.6846 42.9235 54.6224 43.08C54.5601 43.2365 54.6944 43.4746 54.6355 43.6346C54.5765 43.7945 54.3144 43.8693 54.2554 44.0258C54.1964 44.1823 54.3635 44.4307 54.3078 44.5906C54.2521 44.7505 54.1899 44.9071 54.1375 45.067C54.085 45.2269 53.9245 45.346 53.8721 45.5093C53.8196 45.6726 53.8098 45.8427 53.7574 46.006C53.705 46.1693 53.5084 46.2782 53.4593 46.4415C53.4101 46.6049 53.5051 46.8124 53.4593 46.9757C53.4134 47.139 53.3839 47.3058 53.338 47.4691C53.2922 47.6324 53.2168 47.7855 53.1742 47.9488C53.1316 48.1121 53.1447 48.2924 53.1021 48.4558C53.0595 48.6191 52.8564 48.7416 52.8171 48.9049C52.7778 49.0682 52.863 49.2655 52.8236 49.4323C52.7843 49.599 52.7974 49.7725 52.7581 49.9392C52.7188 50.1059 52.6795 50.2658 52.6434 50.4326C52.6074 50.5993 52.3879 50.7218 52.3551 50.8885C52.3224 51.0552 52.2634 51.2151 52.2306 51.3818C52.1979 51.5485 52.3486 51.7527 52.3191 51.9194C52.2896 52.0861 52.034 52.212 52.0045 52.3787C51.9751 52.5455 52.0996 52.7088 52.0734 52.8789L52.0668 52.8959Z" stroke="#181818" stroke-width="4.11934" stroke-miterlimit="10"/>
<path d="M51.0988 56.0381C50.0847 56.2822 50.2738 56.8104 49.5401 57.5659C48.8064 58.3214 48.7445 58.2579 48.0076 59.0168C47.2706 59.7756 47.2837 59.7857 46.55 60.5412C45.8163 61.2967 45.8522 61.3368 45.1185 62.0923C44.3848 62.8512 44.6457 63.1153 43.9087 63.8741C43.1718 64.633 43.1555 64.613 42.4186 65.3718C41.6816 66.1307 41.5153 65.9 41.1371 66.8962C40.7914 67.8055 41.199 67.7253 41.2773 68.7014C41.3555 69.6743 41.2316 69.6843 41.3066 70.6571C41.3849 71.6299 41.0751 71.6567 41.1534 72.6295C41.2316 73.6023 41.2577 73.6023 41.3327 74.5751C41.411 75.5479 41.5675 75.5345 41.6425 76.5107C41.7175 77.4869 41.7534 77.4802 41.8284 78.4563C41.9034 79.4325 41.8414 79.4358 41.9164 80.4086C41.9914 81.3815 42.3044 81.3547 42.3827 82.3309C42.461 83.3037 42.1414 83.3304 42.2164 84.3032C42.2946 85.2761 42.4414 85.2627 42.5196 86.2388C42.5979 87.2117 42.3631 87.2317 42.4381 88.2045C42.5164 89.1773 42.4446 89.184 42.5196 90.1568C42.5946 91.1297 42.7479 91.1163 42.8229 92.0924C42.9012 93.0653 42.8392 93.0719 42.9142 94.0448C42.9892 95.0176 43.0283 95.0142 43.1066 95.987C43.1848 96.9598 42.9403 96.9799 43.0185 97.9561C43.0968 98.9322 43.1522 98.9255 43.2305 99.9017C43.3088 100.878 42.9859 101.055 43.7555 101.637C44.525 102.218 44.6489 101.968 45.6304 101.797C46.6119 101.623 46.5304 101.132 47.5119 100.961C48.4934 100.791 48.5717 101.242 49.5532 101.068C50.5347 100.895 50.4727 100.51 51.4542 100.34C52.4357 100.166 52.4455 100.213 53.427 100.039C54.4085 99.8649 54.4248 99.9452 55.4063 99.7747C56.3878 99.6008 56.3813 99.5574 57.366 99.3835C58.3475 99.2097 58.3377 99.1495 59.3192 98.979C60.3007 98.8052 60.3333 99.0058 61.3181 98.8319C62.2996 98.6581 62.3355 98.8687 63.3202 98.6982C64.305 98.5277 64.23 98.0898 65.2147 97.9193C66.1962 97.7455 66.2647 98.1566 67.2495 97.9862C68.2342 97.8123 68.156 97.3543 69.1407 97.1838C70.1255 97.0133 70.2037 97.4947 71.1885 97.3209C72.1733 97.1471 72.1178 96.8161 73.0993 96.6423C74.0841 96.4684 74.0939 96.5286 75.0786 96.3548C76.0634 96.1809 76.3112 96.7158 76.8329 95.8433C77.3547 94.9708 76.5166 95.1045 76.1971 94.1618C75.8775 93.219 76.0471 93.1555 75.7275 92.2128C75.408 91.2701 75.6656 91.1765 75.346 90.2337C75.0232 89.291 75.0688 89.2743 74.746 88.3316C74.4232 87.3888 73.9732 87.5493 73.6537 86.6066C73.3308 85.6638 73.2069 85.7073 72.8874 84.7646C72.5678 83.8218 72.9526 83.6814 72.633 82.7387C72.3135 81.796 71.9189 81.9364 71.5961 80.9937C71.2733 80.0509 71.3874 80.0108 71.0679 79.0681C70.745 78.1254 70.7026 78.1387 70.3831 77.196C70.0635 76.2533 70.5885 76.0627 70.2657 75.12C69.9429 74.1773 69.4114 74.3678 69.0918 73.4251C68.769 72.4824 68.9777 72.4055 68.6581 71.4628C68.3353 70.52 68.1234 70.5969 67.8005 69.6509C67.4777 68.7081 67.6408 68.6513 67.318 67.7052C66.9951 66.7625 67.194 66.689 66.8712 65.7462C66.5484 64.8002 66.6691 64.76 66.3462 63.814C66.0234 62.8679 65.9517 62.9147 65.28 62.1926C64.6082 61.4705 64.5039 61.8215 63.6072 61.4572C62.7105 61.0928 62.6876 61.1563 61.7942 60.7919C60.9007 60.4275 60.9138 60.3907 60.017 60.0264C59.1203 59.662 59.2149 59.4213 58.3182 59.0569C57.4247 58.6925 57.3562 58.8663 56.4628 58.5019C55.5661 58.1376 55.6965 57.8066 54.7998 57.4422C53.9031 57.0778 53.652 57.586 52.8498 57.0377C51.9727 56.4393 52.0444 55.8209 51.1053 56.0482L51.0988 56.0381Z" fill="#FFEBC0"/>
<path d="M47 76C47.95 75.8149 47.8537 75.3409 48.8036 75.1558C49.7536 74.9708 49.7503 74.9448 50.7003 74.7597C51.6503 74.5747 51.5539 74.0909 52.5039 73.9026C53.4539 73.7175 53.507 73.9675 54.4603 73.7825C55.4136 73.5974 55.5266 74.1526 56.4799 73.9675C57.4299 73.7825 57.2571 72.9383 58.2104 72.7532C59.1637 72.5649 59.2933 73.1981 60.2433 73.013C61.1966 72.8247 61.1766 72.737 62.1299 72.5519C63.0832 72.3636 63.0467 72.1851 64 72" stroke="#FFB219" stroke-width="0.995355" stroke-miterlimit="10"/>
<path d="M48 80C48.95 79.8149 48.8537 79.3409 49.8036 79.1558C50.7536 78.9708 50.7503 78.9448 51.7003 78.7597C52.6503 78.5747 52.5539 78.0909 53.5039 77.9026C54.4539 77.7175 54.507 77.9675 55.4603 77.7825C56.4136 77.5942 56.5266 78.1526 57.4799 77.9675C58.4299 77.7825 58.2571 76.9383 59.2104 76.7532C60.1637 76.5649 60.2933 77.1981 61.2433 77.013C62.1966 76.8247 62.1766 76.737 63.1299 76.5519C64.0832 76.3669 64.0467 76.1851 65 76" stroke="#FFB219" stroke-width="0.995355" stroke-miterlimit="10"/>
<path d="M48 84C48.95 83.8149 48.8537 83.3409 49.8036 83.1558C50.7536 82.9708 50.7503 82.9448 51.7003 82.7597C52.6503 82.5747 52.5539 82.0909 53.5039 81.9026C54.4539 81.7175 54.507 81.9675 55.4603 81.7825C56.4136 81.5942 56.5266 82.1526 57.4799 81.9675C58.4299 81.7825 58.2571 80.9383 59.2104 80.7532C60.1637 80.5682 60.2933 81.198 61.2433 81.013C62.1932 80.8279 62.1766 80.737 63.1299 80.5519C64.0832 80.3636 64.0467 80.1851 65 80" stroke="#FFB219" stroke-width="0.995355" stroke-miterlimit="10"/>
<path d="M52.9223 54.2506C53.0496 54.4566 53.006 54.4693 52.8955 54.7577C52.8486 54.8813 52.7581 55.0207 52.6911 55.1918C52.6375 55.3249 52.4431 55.4263 52.3761 55.5879C52.3191 55.7274 52.2655 55.8763 52.2019 56.0348C52.1449 56.1742 51.974 56.282 51.9104 56.4341C51.85 56.5767 51.7897 56.7224 51.7227 56.8714C51.6624 57.014 51.8634 57.2643 51.7998 57.4133C51.7361 57.5559 51.5485 57.6541 51.4815 57.8031C51.4145 57.952 51.3173 58.0788 51.2503 58.2277C51.1833 58.3767 51.0928 58.5034 51.0258 58.6524C50.9588 58.8013 50.9454 58.9629 50.875 59.1087C50.8046 59.2545 50.7845 59.4161 50.7142 59.5619C50.6438 59.7076 50.4126 59.7773 50.3422 59.9231C50.2719 60.0689 50.3858 60.2907 50.3154 60.4333C50.2451 60.5759 50.1713 60.7185 50.101 60.8643C50.0306 61.0101 49.8731 61.1115 49.7994 61.2573C49.7257 61.403 49.5414 61.4886 49.4677 61.6312C49.394 61.7738 49.585 62.0368 49.5112 62.1794C49.4375 62.322 49.3303 62.4488 49.2566 62.5882C49.1829 62.7277 48.9282 62.7847 48.8511 62.9241C48.7741 63.0636 48.6199 63.165 48.5429 63.3044C48.4658 63.4439 48.439 63.6086 48.3619 63.7481C48.2849 63.8875 48.2949 64.0745 48.2145 64.2139C48.1341 64.3534 47.9297 64.4262 47.8493 64.5657C47.7689 64.7051 47.9129 64.9618 47.8292 65.1012C47.7454 65.2407 47.531 65.3041 47.4472 65.4435C47.3634 65.5829 47.1925 65.6685 47.1088 65.8048C47.025 65.941 47.1121 66.1755 47.025 66.3118C46.9379 66.4481 46.7871 66.5463 46.7 66.6826C46.6129 66.8188 46.452 66.9107 46.3649 67.0438C46.2778 67.1769 46.3482 67.4114 46.2543 67.5445C46.1605 67.6776 46.0332 67.7885 45.9394 67.9216C45.8456 68.0547 45.611 68.0959 45.5172 68.2259C45.4234 68.3558 45.4468 68.5681 45.3496 68.698C45.2525 68.828 45.0414 68.8787 44.9409 69.0086C44.8403 69.1385 44.7231 69.2494 44.6225 69.3762C44.522 69.503 44.5589 69.7311 44.4583 69.8579C44.3578 69.9846 44.2573 70.1177 44.1534 70.2382C44.0496 70.3586 43.9758 70.517 43.8686 70.6375C43.7614 70.7579 43.5838 70.8276 43.4732 70.948C43.3627 71.0684 43.1449 71.0938 43.0309 71.211C42.917 71.3283 42.9304 71.5565 42.8131 71.6705C42.6959 71.7846 42.5819 71.905 42.4613 72.016C42.3407 72.1269 42.1933 72.2124 42.0693 72.3202C41.9453 72.4279 41.7912 72.504 41.6638 72.6086C41.5365 72.7131 41.3522 72.7543 41.2249 72.8526C41.0976 72.9508 40.9837 73.0744 40.853 73.1695C40.7223 73.2645 40.6754 73.4832 40.538 73.5751C40.4006 73.667 40.1527 73.6068 40.0119 73.6892C39.8712 73.7716 39.7673 73.9205 39.6233 73.9966C39.4792 74.0726 39.3083 74.117 39.1609 74.1867C39.0134 74.2564 38.8392 74.2818 38.6851 74.342C38.5309 74.4022 38.4203 74.5765 38.2629 74.6272C38.1054 74.6779 37.8943 74.5638 37.7334 74.6019C37.5726 74.6399 37.4118 74.6621 37.2476 74.6906C37.0834 74.7191 36.9527 74.9821 36.7852 74.998C36.6177 75.0138 36.4401 74.9314 36.2725 74.9346C36.105 74.9378 35.9308 74.9885 35.7632 74.9758C35.5957 74.9631 35.4282 74.9061 35.264 74.8807C35.0998 74.8554 34.9289 74.83 34.7647 74.792C34.6005 74.754 34.4631 74.643 34.3023 74.5892C34.1415 74.5353 33.984 74.4973 33.8265 74.4339C33.669 74.3705 33.5484 74.2596 33.3976 74.1835C33.2468 74.1075 33.0324 74.1519 32.885 74.0695C32.7375 73.9871 32.7342 73.7145 32.5934 73.6226C32.4527 73.5307 32.2919 73.4895 32.1578 73.3881C32.0238 73.2867 31.7993 73.3057 31.672 73.2012C31.5447 73.0966 31.4408 72.9698 31.3168 72.8589C31.1928 72.748 31.1895 72.5357 31.0689 72.4184C30.9482 72.3012 30.7237 72.2948 30.6098 72.1744C30.4959 72.054 30.3518 71.9589 30.2446 71.8385C30.1374 71.7181 30.1206 71.5216 30.0201 71.3948C29.9196 71.2681 29.8659 71.1096 29.7721 70.9797C29.6783 70.8498 29.6247 70.6945 29.5376 70.5614C29.4505 70.4283 29.303 70.3269 29.2226 70.1875C29.1422 70.048 28.9847 69.9434 28.9143 69.804C28.844 69.6646 28.7032 69.541 28.6396 69.3952C28.5759 69.2494 28.4855 69.1005 28.4318 68.9516C28.3782 68.8026 28.4486 68.6093 28.4017 68.4572C28.3548 68.3051 28.4218 68.1276 28.3883 67.9723C28.3548 67.8171 28.3749 67.6586 28.3514 67.5033C28.328 67.348 28.0163 67.2213 28.0029 67.0628C27.9895 66.9044 28.0264 66.7364 28.0231 66.578C28.0197 66.4195 28.1236 66.2579 28.1303 66.0995C28.137 65.941 28.0029 65.7699 28.0231 65.6114C28.0432 65.453 28.1772 65.3072 28.2073 65.1488C28.2375 64.9903 28.1772 64.816 28.214 64.6607C28.2509 64.5055 28.2475 64.3343 28.2911 64.1791C28.3347 64.0238 28.6262 63.9446 28.6798 63.7924C28.7334 63.6403 28.6731 63.4534 28.7368 63.3044C28.8004 63.1555 28.9914 63.0667 29.0618 62.921C29.1321 62.7752 29.0551 62.5661 29.1321 62.4234C29.2092 62.2808 29.3131 62.1541 29.4002 62.0146C29.4873 61.8752 29.6951 61.8182 29.7889 61.6819C29.8827 61.5456 29.8928 61.3682 29.9899 61.2382C30.0871 61.1083 30.2613 61.0354 30.3652 60.9087C30.4691 60.7819 30.4691 60.5854 30.5797 60.4618C30.6902 60.3383 30.7405 60.1735 30.8544 60.053C30.9683 59.9326 31.0722 59.8059 31.1895 59.6918C31.3068 59.5777 31.5916 59.6252 31.7155 59.5143C31.8395 59.4034 31.8462 59.1847 31.9702 59.077C32.0942 58.9693 32.2718 58.9217 32.4024 58.8203C32.5331 58.7189 32.694 58.6619 32.828 58.5636C32.962 58.4654 33.0156 58.2752 33.1497 58.1802C33.2837 58.0851 33.5048 58.1073 33.6422 58.0154C33.7796 57.9235 33.8131 57.6922 33.9572 57.6034C34.1013 57.5147 34.2889 57.5052 34.433 57.4196C34.5771 57.3341 34.7446 57.2992 34.892 57.2168C35.0395 57.1344 35.14 56.9918 35.2874 56.9157C35.4349 56.8397 35.5655 56.7351 35.7163 56.6622C35.8671 56.5893 35.9877 56.4626 36.1385 56.3929C36.2893 56.3232 36.4267 56.2217 36.5808 56.1552C36.7349 56.0886 37.0063 56.2788 37.1605 56.2122C37.3146 56.1457 37.3582 55.8383 37.5123 55.7781C37.6664 55.7179 37.8407 55.6957 37.9982 55.6355C38.1556 55.5753 38.35 55.6165 38.5075 55.5626C38.665 55.5087 38.7789 55.3376 38.9397 55.2869C39.1005 55.2362 39.2446 55.138 39.4055 55.0904C39.5663 55.0429 39.7774 55.157 39.9382 55.1094C40.0991 55.0619 40.2398 54.9573 40.404 54.913C40.5682 54.8686 40.729 54.8306 40.8932 54.7925C41.0574 54.7545 41.245 54.8211 41.4092 54.783C41.5734 54.745 41.7376 54.7196 41.9017 54.6848C42.0659 54.6499 42.2268 54.6087 42.391 54.577C42.5551 54.5453 42.6858 54.333 42.85 54.3045C43.0142 54.276 43.2018 54.3552 43.366 54.3299C43.5302 54.3045 43.7111 54.3647 43.8787 54.3425C44.0462 54.3204 44.2104 54.3108 44.3779 54.2918C44.5455 54.2728 44.7197 54.3362 44.8872 54.3204C45.0548 54.3045 45.1989 54.0954 45.3664 54.0795C45.5339 54.0637 45.7115 54.1777 45.8791 54.1651C46.0466 54.1524 46.2074 54.0478 46.375 54.0383C46.5425 54.0288 46.7134 54.1239 46.8843 54.1175C47.0552 54.1112 47.216 54.0066 47.3835 54.0003C47.5511 53.9939 47.722 54.0954 47.8895 54.0922C48.057 54.089 48.2246 54.127 48.3921 54.127C48.5596 54.127 48.7272 54.1112 48.8947 54.1144C49.0622 54.1175 49.2298 54.108 49.3973 54.1144C49.5649 54.1207 49.729 54.1651 49.8999 54.1714C50.0708 54.1777 50.235 54.1714 50.4025 54.1809C50.5701 54.1904 50.7343 54.2031 50.9051 54.2126C51.076 54.2221 51.2402 54.1999 51.4111 54.2126C51.582 54.2253 51.7395 54.295 51.907 54.3108C52.0745 54.3267 52.2555 54.2031 52.423 54.2189C52.5906 54.2348 52.7715 54.2348 52.939 54.2538L52.9223 54.2506Z" stroke="#181818" stroke-width="4.11934" stroke-miterlimit="10"/>
</svg>
