<svg width="60" height="60" viewBox="0 0 60 60" fill="none" xmlns="http://www.w3.org/2000/svg">
<g clip-path="url(#clip0_877_2162)">
<path d="M29.8652 15.4461H24.6983C24.6983 15.4461 22.6078 13.0249 21.9288 9.03715C21.2499 5.04944 22.6616 4.57642 24.2267 4.33345C25.7917 4.09047 27.3008 5.23385 27.3008 5.23385C27.3008 5.23385 29.6722 3.89037 33.0096 5.2339C33.0096 5.2339 35.6681 3.79746 37.7977 4.93375C38.8482 5.49831 39.3628 6.41306 39.034 8.03529C38.9125 8.63559 36.9044 13.7096 35.518 14.7101C34.1316 15.7105 29.8723 15.4461 29.8723 15.4461H29.8652Z" fill="#96E700"/>
<path d="M53.2482 34.6612L53.2651 34.8111L53.2735 34.9653L53.3157 35.1131L53.3388 35.2652L53.341 35.4172L53.3136 35.5713L53.3494 35.7213L53.3304 35.8754L53.3641 36.0254L53.3494 36.1795L53.3726 36.3294L53.3894 36.4815L53.3599 36.6335L53.3957 36.7856L53.3768 36.9376L53.4042 37.0896L53.4147 37.2417L53.3831 37.3937V37.5458L53.4042 37.6978L53.3957 37.8498V38.0019L53.3915 38.1539L53.3683 38.306L53.3662 38.458L53.3726 38.61L53.3747 38.7642L53.3115 38.912L53.3494 39.0662L53.3093 39.2161L53.2967 39.3681L53.2799 39.5181L53.2841 39.6722L53.2546 39.8221L53.2588 39.9742L53.2124 40.122L53.1703 40.2698L53.1619 40.4219L53.1766 40.5781L53.126 40.7238L53.1092 40.8759L53.0565 41.0216L53.0502 41.1757L53.0123 41.3235L52.9575 41.4671L52.9301 41.6171L52.9027 41.767L52.869 41.9148L52.8774 42.0732L52.8247 42.2168L52.7678 42.3604L52.7278 42.5061L52.7067 42.6581L52.6646 42.8059L52.6288 42.9537L52.5677 43.0931L52.5508 43.2473L52.4708 43.3824L52.4413 43.5323L52.3654 43.6675L52.3043 43.8069L52.2537 43.9483L52.239 44.1067L52.1631 44.2398L52.1315 44.3918L52.0409 44.5185L51.984 44.6579L51.9398 44.8057L51.8534 44.9345L51.8323 45.0908L51.7502 45.2196L51.6659 45.3463L51.6322 45.5004L51.5648 45.6356L51.472 45.7602L51.3878 45.8869L51.3035 46.0136L51.2403 46.1508L51.1686 46.286L51.1181 46.4317L51.0254 46.5541L50.9263 46.6703L50.8758 46.816L50.7641 46.9258L50.7072 47.0694L50.5998 47.1792L50.5492 47.3291L50.4249 47.4263L50.3406 47.553L50.2942 47.7071L50.1952 47.8233L50.0899 47.9331L49.9972 48.0513L49.8918 48.1611L49.7991 48.2815L49.7317 48.423L49.6137 48.5201L49.4999 48.6236L49.4198 48.7524L49.3229 48.8706L49.2049 48.9678L49.1249 49.0987L49.03 49.217L48.891 49.2951L48.8109 49.4281L48.6992 49.5316L48.5939 49.6393L48.4822 49.7428L48.3748 49.8484L48.2547 49.9413L48.1451 50.0447L48.0482 50.1651L47.9049 50.2327L47.8101 50.353L47.6752 50.4269L47.5594 50.5241L47.4688 50.6529L47.3381 50.731L47.2265 50.8345L47.0937 50.9105L46.9905 51.0246L46.8725 51.1175L46.7334 51.185L46.6323 51.3033L46.4995 51.3772L46.3689 51.4553L46.2509 51.5482L46.1097 51.6095L46.0107 51.7341L45.8717 51.7974L45.7368 51.8671L45.623 51.9706L45.4966 52.0529L45.3639 52.1268L45.2438 52.2198L45.1005 52.2747L44.9741 52.3549L44.835 52.4183L44.717 52.5175L44.5674 52.5597L44.4284 52.621L44.3062 52.7118L44.1713 52.7793L44.0386 52.8511L43.8995 52.9124L43.7626 52.9757L43.6319 53.0518L43.5034 53.1362L43.3517 53.1679L43.2168 53.2376L43.0883 53.3178L42.9556 53.3917L42.8186 53.4551L42.6753 53.5079L42.53 53.5522L42.3972 53.6219L42.2455 53.6536L42.1149 53.7317L41.9674 53.7697L41.8347 53.8457L41.6787 53.8647L41.5376 53.9154L41.4111 54.0105L41.2615 54.04L41.1119 54.0717L40.9729 54.1329L40.8401 54.2089L40.6948 54.2554L40.541 54.2702L40.3998 54.3272L40.2544 54.3694L40.109 54.4053L39.9636 54.4433L39.8288 54.5236L39.6855 54.57L39.5317 54.5869L39.3821 54.6081L39.2367 54.6503L39.0934 54.701L38.9565 54.7749L38.8027 54.7833L38.6531 54.8087L38.5098 54.8593L38.3665 54.9058L38.2106 54.9016L38.0673 54.9544L37.922 54.9987L37.7766 55.0431L37.6228 55.0452L37.4795 55.1001L37.3278 55.1106L37.1845 55.1676L37.037 55.1993L36.8832 55.2057L36.7399 55.2585L36.5882 55.2775L36.4344 55.2753L36.2827 55.2838L36.1394 55.3387L35.9835 55.3324L35.8381 55.3767L35.6864 55.3809L35.541 55.4422L35.3915 55.4675L35.2398 55.4612L35.088 55.476L34.9406 55.5076L34.7889 55.5224L34.6393 55.5372L34.4897 55.5583L34.3401 55.5858L34.1905 55.609L34.0409 55.6364L33.885 55.6111L33.7375 55.6533L33.5837 55.6407L33.4341 55.6639L33.2845 55.6977L33.1349 55.7082L32.9789 55.6787L32.8293 55.6829L32.6798 55.7336L32.5259 55.7082L32.3785 55.7589L32.2246 55.7441L32.075 55.7526L31.9233 55.7716L31.7695 55.7399L31.6199 55.7484L31.4682 55.7758L31.3165 55.761L31.1648 55.7695L31.0131 55.7758L30.8614 55.8054L30.7097 55.7821L30.5601 55.818L30.4063 55.7737L30.2546 55.8012L30.1029 55.8159L29.9512 55.8286L29.7995 55.7969L29.6457 55.7927L29.494 55.8012L29.3423 55.7864L29.1885 55.799L29.0368 55.8012L28.8851 55.7906L28.7312 55.7927L28.5795 55.7906L28.4278 55.7653L28.274 55.7821L28.1223 55.7695L27.9727 55.7357L27.821 55.7251L27.6693 55.6956L27.5176 55.685L27.3617 55.723L27.2121 55.6871L27.0625 55.666L26.9108 55.647L26.7591 55.6428L26.6053 55.6343L26.4578 55.5879L26.3019 55.6048L26.1502 55.5879L26.0006 55.552L25.8531 55.5118L25.6951 55.5414L25.5434 55.5161L25.398 55.4591L25.2484 55.4232L25.0967 55.4105L24.9429 55.4042L24.7975 55.3556L24.6395 55.3725L24.492 55.3218L24.3466 55.2775L24.1886 55.2838L24.0411 55.2437L23.8957 55.1993L23.7377 55.2014L23.5902 55.1634L23.4469 55.1043L23.2931 55.0959L23.1498 55.0388L23.0023 55.0008L22.8464 54.9945L22.6968 54.9607L22.5472 54.9333L22.4039 54.8805L22.2628 54.8171L22.1068 54.8087L21.9594 54.7685L21.814 54.7221L21.6707 54.6714L21.5274 54.6144L21.3799 54.5764L21.2261 54.5595L21.0913 54.4814L20.9417 54.4497L20.7984 54.3948L20.6572 54.3399L20.5055 54.3124L20.3707 54.2343L20.2295 54.1815L20.0694 54.1709L19.9324 54.1034L19.787 54.059L19.6459 53.9999L19.5047 53.945L19.3656 53.8774L19.2245 53.8246L19.0875 53.7571L18.9358 53.7212L18.8136 53.624L18.6682 53.5733L18.5186 53.5353L18.3817 53.4678L18.2553 53.3791L18.1057 53.3389L17.9666 53.2819L17.8381 53.1975L17.7053 53.1214L17.5726 53.0454L17.4314 52.9884L17.2903 52.9314L17.1491 52.8723L17.0121 52.8047L16.8878 52.7139L16.7635 52.6252L16.635 52.5428L16.4791 52.5112L16.3505 52.4288L16.2283 52.3359L16.0851 52.2789L15.965 52.1817L15.828 52.1163L15.6953 52.0424L15.5899 51.9241L15.4487 51.8608L15.335 51.7573L15.1938 51.6961L15.0695 51.6074L14.9578 51.5018L14.8251 51.4279L14.7113 51.3265L14.5743 51.2547L14.4437 51.1766L14.3194 51.0879L14.2225 50.9633L14.0855 50.8915L13.9738 50.788L13.8622 50.6867L13.7294 50.6064L13.6283 50.4903L13.4913 50.4185L13.386 50.3087L13.2764 50.2031L13.1521 50.1123L13.0341 50.0173L12.914 49.9244L12.796 49.8251L12.7202 49.6857L12.5748 49.6182L12.4694 49.5063L12.3746 49.388L12.2503 49.2972L12.1344 49.1958L12.0502 49.067L11.9364 48.9657L11.831 48.8559L11.7404 48.7313L11.6393 48.6194L11.5339 48.5096L11.4075 48.4188L11.3211 48.2899L11.2326 48.1653L11.1357 48.0492L11.0493 47.9225L10.9271 47.8275L10.8492 47.6944L10.7396 47.5868L10.6616 47.4558L10.5542 47.346L10.4762 47.2151L10.3919 47.0884L10.2992 46.968L10.2086 46.8456L10.1265 46.7167L10.038 46.5943L9.95159 46.4697L9.86099 46.3472L9.78724 46.2142L9.68189 46.1001L9.60604 45.9692L9.51965 45.8446L9.42273 45.7264L9.37006 45.5807L9.28156 45.4561L9.19096 45.3336L9.10668 45.2048L9.06454 45.0549L8.99501 44.9197L8.9023 44.7972L8.85174 44.6515L8.75692 44.5291L8.71267 44.3812L8.61154 44.263L8.57572 44.1109L8.49776 43.98L8.45141 43.8343L8.37766 43.6992L8.33131 43.5556L8.2681 43.4162L8.17328 43.2916L8.15011 43.1375L8.06793 43.0065L8.01315 42.8651L7.96048 42.7215L7.92466 42.5736L7.85091 42.4385L7.78981 42.2991L7.74346 42.1534L7.73292 41.9972L7.69078 41.8514L7.63178 41.71L7.58122 41.5664L7.51169 41.4291L7.5159 41.2686L7.44005 41.1335L7.39159 40.9878L7.3958 40.8315L7.33891 40.6879L7.31152 40.538L7.25885 40.3944L7.22303 40.2466L7.17667 40.1009L7.16614 39.9488L7.14085 39.7989L7.13453 39.6448L7.06079 39.5054L7.05657 39.3512L7.04183 39.1992L7.0334 39.0472L6.98494 38.9014L6.99758 38.7452L6.94912 38.5995L6.93437 38.4474L6.89855 38.2996L6.91751 38.1434L6.88591 37.9955L6.89012 37.8414L6.85852 37.6915L6.87959 37.5373L6.87748 37.3874L6.82059 37.2375L6.86484 37.0833L6.86694 36.9313L6.8522 36.7813L6.81427 36.6293L6.84798 36.4772L6.82059 36.3252L6.82691 36.1732L6.82902 36.0211L6.87116 35.8712L6.88801 35.7192L6.89644 35.5692L6.87537 35.4151L6.86694 35.263L6.87537 35.111L6.93226 34.9632L6.90908 34.809L6.92594 34.657L6.94912 34.5071L7.01022 34.3614L7.0355 34.2114L7.04815 34.0594L7.04604 33.9052L7.09871 33.7595L7.11346 33.6075L7.14296 33.4597L7.12821 33.3013L7.18089 33.1577L7.19353 33.0057L7.21039 32.8536L7.2441 32.7037L7.26727 32.5538L7.31995 32.4102L7.36209 32.2624L7.41266 32.1188L7.44848 31.9709L7.47587 31.821L7.47376 31.6648L7.53908 31.5233L7.5454 31.3691L7.60439 31.2255L7.64864 31.0819L7.66971 30.9299L7.71185 30.7821L7.75188 30.6364L7.82141 30.4991L7.85091 30.3471L7.92255 30.2119L7.93308 30.0557L8.02369 29.9247L8.02579 29.7664L8.09954 29.6291L8.13957 29.4834L8.21753 29.3482L8.23439 29.1941L8.32077 29.0632L8.32709 28.9027L8.37977 28.7612L8.46826 28.6324L8.49987 28.4804L8.5989 28.3558L8.60943 28.1974L8.69371 28.0665L8.74428 27.925L8.83067 27.7962L8.87702 27.6505L8.94655 27.5153L8.98448 27.3654L9.07508 27.2387L9.1425 27.1035L9.17621 26.9515L9.26681 26.8269L9.28999 26.6685L9.40166 26.5545L9.45855 26.413L9.53862 26.2842L9.58497 26.1364L9.67136 26.0097L9.70718 25.8555L9.78935 25.7288L9.8947 25.6127L9.96212 25.4754L10.0359 25.3445L10.0928 25.2009L10.1728 25.0721L10.2655 24.9496L10.3119 24.8018L10.4236 24.692L10.4678 24.54L10.55 24.4112L10.6469 24.2929L10.7227 24.1599L10.8281 24.048L10.8892 23.9065L10.9714 23.7777L11.0599 23.6552L11.1378 23.5243L11.2495 23.4166L11.3169 23.2793L11.3991 23.1505L11.4876 23.0259L11.6056 22.9245L11.6983 22.8042L11.7636 22.6648L11.8879 22.5677L11.9574 22.4283L12.0396 22.3016L12.1681 22.2087L12.2377 22.0693L12.362 21.9743L12.4357 21.8391L12.5369 21.7251L12.619 21.5942L12.7202 21.4823L12.8234 21.3704L12.9246 21.2584L13.051 21.1676L13.1458 21.0473L13.2469 20.9354L13.3607 20.8319L13.445 20.7052L13.5314 20.5764L13.643 20.4729L13.7421 20.3568L13.8537 20.2533L13.9781 20.1625L14.0771 20.0463L14.193 19.9492L14.292 19.8331L14.4142 19.7423L14.5153 19.6282L14.627 19.5248L14.7471 19.4297L14.8651 19.3347L14.9641 19.2165L15.0821 19.1214L15.2128 19.0412L15.2949 18.9039L15.4445 18.8469L15.5393 18.7223L15.6552 18.6231L15.7648 18.5175L15.8849 18.4267L16.0134 18.3443L16.123 18.2345L16.2431 18.1437L16.3674 18.0571L16.4938 17.9706L16.6223 17.8903L16.7509 17.808L16.8731 17.7193L16.9763 17.6031L17.1217 17.544L17.2292 17.4321L17.3556 17.3497L17.501 17.2927L17.6316 17.2167L17.7496 17.1196L17.8591 17.0098L18.0045 16.9549L18.1288 16.8683L18.2721 16.8113L18.3964 16.7226L18.5186 16.6339L18.6514 16.5579L18.7736 16.4671L18.9126 16.4058L19.0454 16.3298L19.1739 16.2517L19.3214 16.2052L19.4499 16.1229L19.5742 16.0321L19.7238 15.994L19.846 15.899L19.9872 15.8399L20.1284 15.785L20.2527 15.69L20.3854 15.6182L20.5435 15.597L20.6783 15.5295L20.8153 15.464L20.9564 15.407L21.0976 15.3542L21.2367 15.293L21.3757 15.2317L21.5042 15.143L21.6454 15.0902L21.7803 15.0206L21.9235 14.9699L22.0689 14.9255L22.2206 14.9002L22.3639 14.8453L22.5009 14.7819L22.6441 14.7292L22.7895 14.6869L22.9244 14.613L23.0782 14.594L23.2193 14.5349L23.371 14.5116L23.5164 14.4736L23.6597 14.4187L23.8072 14.3807L23.9505 14.3385L24.1043 14.3195L24.2497 14.2751L24.3845 14.197L24.5446 14.2076L24.6816 14.1294L24.8375 14.1337L24.9787 14.0682L25.1283 14.0386L25.2779 14.0133L25.4254 13.9795L25.5729 13.9436L25.7246 13.9331L25.8784 13.9225L26.0195 13.8591L26.1755 13.8697L26.3187 13.8042L26.4746 13.8232L26.62 13.7705L26.7717 13.7536L26.9192 13.7092L27.0688 13.6923L27.2226 13.6881L27.3764 13.6944L27.526 13.6818L27.6735 13.6247L27.8231 13.5973L27.979 13.6205L28.1265 13.5698H28.2782L28.4299 13.5551L28.5838 13.5931L28.7333 13.5339L28.8851 13.5466L29.0368 13.5192L29.1885 13.5276L29.3423 13.5424L29.494 13.5487L29.6457 13.5002L29.7974 13.5044L29.9512 13.498L30.1029 13.5002L30.2546 13.5234L30.4063 13.5086L30.558 13.5403L30.7118 13.5128L30.8635 13.5002L31.0131 13.5551L31.1669 13.5107L31.3186 13.5445L31.4682 13.5656L31.622 13.5339L31.7716 13.5741L31.9233 13.5825L32.075 13.61L32.2289 13.5698L32.3785 13.5994L32.528 13.648L32.6819 13.6184L32.8336 13.6353L32.9853 13.6438L33.1349 13.6902L33.2824 13.7261L33.4383 13.7113L33.5879 13.743L33.7396 13.7514H33.8934L34.043 13.781L34.1926 13.8042L34.338 13.8591L34.4897 13.8845L34.6393 13.9098L34.7931 13.9056L34.9363 13.9689L35.0902 13.9795L35.2376 14.0154L35.3872 14.045L35.5347 14.0766L35.6822 14.1147L35.836 14.1252L35.9835 14.159L36.1373 14.1717L36.2827 14.2181L36.4239 14.2794H36.5798L36.721 14.3448L36.8685 14.3807L37.0159 14.4145L37.155 14.4821L37.3046 14.5159L37.4437 14.575L37.5975 14.5919L37.7492 14.6151L37.8925 14.6679L38.0378 14.7123L38.179 14.7693L38.3202 14.8284L38.4698 14.858L38.5962 14.9551L38.7542 14.9678L38.887 15.0438L39.0429 15.0628L39.1798 15.1304L39.3041 15.2254L39.4664 15.2296L39.597 15.312L39.7298 15.388L39.8836 15.4154L40.0226 15.4746L40.1554 15.5506L40.2797 15.6435L40.4187 15.7069L40.5705 15.7364L40.699 15.8188L40.8528 15.8547L40.9729 15.9518L41.1077 16.0215L41.2405 16.0954L41.3669 16.1778L41.5249 16.2073L41.6429 16.3045L41.782 16.3678L41.9021 16.4649L42.0327 16.541L42.1802 16.5874L42.2961 16.6909L42.4246 16.7711L42.5573 16.8429L42.6817 16.9316L42.8291 16.9823L42.9471 17.0794L43.0862 17.1449L43.2063 17.2357L43.318 17.3413L43.4423 17.4279L43.5792 17.4976L43.7057 17.582L43.8405 17.6538L43.9648 17.7404L44.0744 17.846L44.2008 17.9304L44.3188 18.0255L44.4241 18.1374L44.5548 18.2155L44.6749 18.3084L44.7781 18.4225L44.8961 18.5175L45.0289 18.5935L45.1553 18.6801L45.2438 18.811L45.3723 18.8934L45.4798 19.0011L45.5851 19.113L45.6989 19.2122L45.8316 19.2904L45.9306 19.4065L46.0318 19.5226L46.1435 19.6219L46.253 19.7275L46.3584 19.8373L46.4911 19.9175L46.588 20.0358L46.6828 20.1561L46.7945 20.2575L46.8999 20.3673L46.9989 20.4813L47.1106 20.5848L47.2265 20.6841L47.296 20.8277L47.3929 20.9438L47.5256 21.0283L47.5994 21.1655L47.69 21.288L47.7869 21.4041L47.926 21.4865L47.9786 21.6385L48.0924 21.742L48.2104 21.8413L48.2947 21.9658L48.3537 22.1137L48.4506 22.2298L48.5349 22.3565L48.6529 22.4579L48.714 22.5993L48.8109 22.7176L48.9226 22.8232L49.009 22.9478L49.0616 23.0956L49.1817 23.197L49.2618 23.3279L49.3356 23.4609L49.4198 23.5855L49.4957 23.7164L49.58 23.8431L49.6558 23.9762L49.7317 24.1071L49.8202 24.2296L49.8813 24.3689L49.9592 24.4999L50.0688 24.6118L50.1383 24.7469L50.2057 24.8821L50.2732 25.0193L50.3406 25.1545L50.4312 25.2791L50.4944 25.4163L50.5681 25.5494L50.644 25.6803L50.7051 25.8196L50.7494 25.9654L50.8442 26.0878L50.8989 26.2314L50.9727 26.3645L51.0043 26.5165L51.1118 26.6348L51.1349 26.791L51.2276 26.9156L51.2824 27.0571L51.333 27.1986L51.3857 27.3422L51.4657 27.4731L51.4889 27.6272L51.59 27.7497L51.6322 27.8975L51.687 28.0369L51.7481 28.1784L51.7881 28.3241L51.8302 28.4698L51.9082 28.6028L51.9166 28.7612L52.0093 28.89L52.0157 29.0484L52.0746 29.1878L52.1252 29.3314L52.1969 29.4665L52.2011 29.6249L52.2453 29.7685L52.3296 29.9015L52.3338 30.0599L52.3781 30.2035L52.437 30.345L52.4708 30.4928L52.4939 30.6448L52.5508 30.7863L52.5803 30.9341L52.6161 31.0819L52.6751 31.2234L52.7278 31.367L52.7405 31.5212L52.7615 31.6711L52.7995 31.8168L52.8247 31.9667L52.8753 32.1124L52.8774 32.2666L52.9259 32.4102L52.928 32.5643L52.9849 32.7079L53.0038 32.86L53.0165 33.012L53.0586 33.1577L53.0628 33.3097L53.1092 33.4576L53.1176 33.6075L53.1471 33.7574L53.185 33.9052L53.1998 34.0573L53.1808 34.2114L53.204 34.3614L53.2145 34.5134L53.2482 34.6612Z" fill="#96E700"/>
<rect x="22.3692" y="13.0573" width="13.1889" height="1.67836" rx="0.839181" fill="#181818" stroke="#181818" stroke-width="0.112158"/>
<path d="M35.7226 26.041C35.7963 26.5299 36.2523 26.8666 36.7412 26.7929C37.2302 26.7192 37.5668 26.2632 37.4931 25.7742L35.7226 26.041ZM33.9359 14.1823L35.7226 26.041L37.4931 25.7742L35.7064 13.9156L33.9359 14.1823Z" fill="#181818"/>
<path d="M40.317 19.5154C40.6138 19.9108 40.5338 20.472 40.1384 20.7688C39.7429 21.0656 39.1817 20.9856 38.8849 20.5902L40.317 19.5154ZM35.9022 13.6331L40.317 19.5154L38.8849 20.5902L34.4701 14.7079L35.9022 13.6331Z" fill="#181818"/>
<path d="M29.6516 18.4718C29.8779 15.9471 34.5987 13.5505 34.5987 13.5505C34.5987 13.5505 35.3113 18.1031 34.0332 19.7153C32.7296 21.3596 29.4571 20.6416 29.6516 18.4718Z" stroke="#181818" stroke-width="1.53473" stroke-linejoin="round"/>
</g>
<defs>
<clipPath id="clip0_877_2162">
<rect width="46.6004" height="51.6557" fill="white" transform="translate(6.81445 4.30493)"/>
</clipPath>
</defs>
</svg>
