<svg width="130" height="130" viewBox="0 0 130 130" fill="none" xmlns="http://www.w3.org/2000/svg">
<g clip-path="url(#clip0_1478_59426)">
<path d="M117.457 24.6028C116.327 22.22 114.759 19.9833 112.838 18.177C110.747 16.2169 108.203 14.8027 105.636 13.5728C102.884 12.2508 100.002 11.2515 96.9732 10.8211C93.7526 10.3676 90.4551 10.3753 87.2114 10.3599C80.3936 10.3369 73.5835 10.6136 66.7656 10.5751C59.8479 10.5444 52.9532 9.95254 46.0431 9.99865C39.2483 10.0448 32.0769 10.4368 25.5819 12.589C22.638 13.5651 19.8325 14.9871 17.5266 17.0855C15.6434 18.7996 14.3828 20.9748 13.5296 23.3576C12.9609 24.9641 12.6303 26.609 12.3075 28.2846C12.2845 28.3999 12.2768 28.5075 12.2691 28.6228C12.2614 28.6843 12.246 28.7381 12.2383 28.7996C10.7011 42.7581 10.6703 56.8088 10.5473 70.8365C10.4858 77.9925 10.3859 85.1485 10.0631 92.2969C9.79406 98.2923 10.3398 104.541 13.6757 109.714C16.9578 114.803 22.3921 117.493 28.1645 118.769C31.0239 119.399 33.8525 119.73 36.781 119.561C40.3859 119.353 43.9524 118.915 47.565 118.823C61.7464 118.477 75.8971 120.46 90.0861 119.699C93.7064 119.507 97.3267 119.122 100.901 118.515C104.014 117.985 107.104 117.316 109.994 116.002C112.669 114.787 115.013 112.835 116.427 110.229C117.88 107.554 118.364 104.511 118.557 101.505C118.772 98.1847 118.741 94.8334 118.803 91.5052L119.01 80.4906C119.141 73.5651 119.202 66.6397 119.287 59.7143C119.333 56.1324 119.417 52.5582 119.51 48.9764C119.594 45.8634 119.471 42.6812 119.809 39.5836C120.371 34.426 119.686 29.3146 117.457 24.5951V24.6028Z" fill="#FF80AD"/>
</g>
<g clip-path="url(#clip1_1478_59426)">
<path d="M16.3881 54.1391C28.7527 56.0994 41.2699 56.5418 53.7794 56.5266C66.4263 56.5037 79.0807 56.2367 91.7276 56.0613C98.8748 55.9621 106.014 55.8706 113.162 55.7714C115.61 55.7409 115.618 51.927 113.162 51.9575C100.515 52.1254 87.8679 52.3008 75.2211 52.4686C62.5742 52.6364 50.4461 52.9644 38.0739 52.4228C31.1555 52.1254 24.2447 51.5456 17.4026 50.4549C16.3881 50.2947 15.3508 50.7142 15.0533 51.7897C14.8016 52.6974 15.3584 53.9713 16.3881 54.1391Z" fill="#181818"/>
<path d="M50.0252 17.8382C49.8116 42.3691 49.6819 66.9 49.6362 91.4309C49.6209 98.2959 49.6133 105.161 49.6133 112.026C49.6133 114.482 53.4272 114.482 53.4272 112.026C53.4272 87.4949 53.5111 62.9641 53.6789 38.4332C53.7246 31.5682 53.778 24.7032 53.8391 17.8382C53.8619 15.3821 50.0481 15.3821 50.0252 17.8382Z" fill="#181818"/>
<path d="M54.4339 55.3587C60.0174 55.0002 65.2043 52.9254 70.1166 50.3549C72.4125 49.1497 74.5559 47.6394 76.051 45.4884C76.8061 44.3976 77.3172 43.1314 77.7977 41.8957C78.3164 40.5761 78.591 39.2107 78.4232 37.7919C77.813 32.689 72.7177 28.9285 67.6833 29.4167C62.0998 29.9659 58.263 34.3595 55.6772 38.9666C54.1669 41.6516 52.71 44.4662 52.0617 47.5021C51.726 49.0582 51.5506 50.6676 51.5659 52.2542C51.5735 53.1009 51.6345 53.8255 52.2752 54.4434C52.916 55.0612 53.6025 55.2672 54.4263 55.3511C55.4484 55.4578 56.3332 54.3976 56.3332 53.4441C56.3332 52.3228 55.456 51.6516 54.4263 51.5372C55.0365 51.6058 55.0899 51.8881 54.8382 51.6135L55.395 52.9636C55.2119 48.3945 56.8977 44.4891 59.125 40.599C60.9861 37.3419 63.6177 33.8789 67.5842 33.2458C70.7116 32.75 74.5102 35.0536 74.6704 38.4403C74.7466 40.126 73.694 42.361 72.6643 43.673C71.4057 45.2824 69.6665 46.2893 67.8816 47.2199C63.6864 49.3938 59.1936 51.2397 54.4263 51.5448C53.3965 51.6135 52.5193 52.3762 52.5193 53.4517C52.5193 54.4357 53.3965 55.4273 54.4263 55.3587H54.4339Z" fill="#181818"/>
<path d="M51.7864 54.0249C48.6514 53.5672 45.5545 53.1477 42.3966 53.613C39.6277 54.0173 36.897 55.0165 34.4027 56.2827C29.5972 58.7389 25.6613 63.0714 25.2036 68.6321C24.807 73.4605 28.1098 78.5863 33.0831 79.3567C35.9054 79.7915 38.6666 78.7999 41.1151 77.465C43.3577 76.2446 45.4172 74.6046 47.1029 72.6901C50.9778 68.2812 53.3501 62.1332 53.0373 56.2293C52.9076 53.7885 49.0938 53.7732 49.2234 56.2293C49.4523 60.5467 48.0182 64.9402 45.5774 68.4795C43.3272 71.7442 39.643 74.6885 35.707 75.5276C32.1906 76.2827 29.1472 73.285 28.987 69.8525C28.781 65.5657 31.8474 62.0951 35.3638 60.0814C37.5148 58.8457 39.9023 57.9532 42.3356 57.4574C45.1197 56.893 47.9877 57.282 50.7642 57.6862C51.7787 57.8388 52.8161 57.4345 53.1136 56.3514C53.3577 55.4513 52.8085 54.1546 51.7787 54.002L51.7864 54.0249Z" fill="#181818"/>
</g>
<defs>
<clipPath id="clip0_1478_59426">
<rect width="110" height="109.877" fill="white" transform="translate(10 10)"/>
</clipPath>
<clipPath id="clip1_1478_59426">
<rect width="100" height="97.8718" fill="white" transform="translate(15 16)"/>
</clipPath>
</defs>
</svg>
