<svg width="130" height="130" viewBox="0 0 130 130" fill="none" xmlns="http://www.w3.org/2000/svg">
<g clip-path="url(#clip0_1478_59449)">
<path d="M118.654 45.288C114.465 34.1797 106.592 24.5763 96.4221 18.4093C93.7924 16.8113 91.0463 15.4072 88.2615 14.1118C82.4203 11.4355 76.393 9.2868 70.001 8.44126C63.8883 7.63451 57.6748 7.9448 51.6707 9.36437C40.6632 11.963 30.8271 17.9516 23.6129 26.6552C19.8429 31.2009 16.5073 36.0259 13.8078 41.2775C11.1936 46.3585 9.17671 51.5093 8.4165 57.2031C6.97366 68.0787 9.33185 79.3887 14.025 89.2326C18.912 99.4877 26.8554 108.385 36.4899 114.397C41.5398 117.546 47.0707 119.742 52.9274 120.836C58.6445 121.898 64.6485 122.348 70.4509 121.929C81.4817 121.13 92.1789 117.097 100.921 110.324C110.114 103.196 116.831 93.0259 119.903 81.8167C121.555 75.7816 122.052 69.3974 121.99 63.1529C121.928 57.0635 120.803 51.0051 118.654 45.3035V45.288Z" fill="#FF80AD"/>
</g>
<path d="M110.193 48.3802C106.666 39.0308 100.035 30.9481 91.4701 25.7577C89.2555 24.4127 86.9428 23.231 84.5976 22.1407C79.6783 19.8882 74.6023 18.0797 69.2192 17.3681C64.0713 16.6891 58.8385 16.9503 53.7821 18.145C44.512 20.3322 36.2283 25.3725 30.1527 32.6979C26.9778 36.5238 24.1686 40.5847 21.8952 45.0048C19.6936 49.2812 17.9951 53.6163 17.3549 58.4085C16.1398 67.562 18.1258 77.081 22.0781 85.3661C26.1938 93.9973 32.8835 101.486 40.9973 106.546C45.2502 109.196 49.9081 111.044 54.8404 111.965C59.6551 112.859 64.7115 113.238 69.5981 112.885C78.8878 112.213 87.8966 108.818 95.2592 103.118C103.001 97.1181 108.658 88.5588 111.245 79.1246C112.637 74.0451 113.055 68.6719 113.002 63.4161C112.95 58.291 112.003 53.1919 110.193 48.3932V48.3802Z" fill="#F26798"/>
<path d="M65 56V74" stroke="white" stroke-width="2.4" stroke-linecap="round" stroke-linejoin="round"/>
<path d="M56 65H74" stroke="white" stroke-width="2.4" stroke-linecap="round" stroke-linejoin="round"/>
<defs>
<clipPath id="clip0_1478_59449">
<rect width="114" height="114.07" fill="white" transform="translate(7.99951 7.99902)"/>
</clipPath>
</defs>
</svg>
