<svg width="110" height="110" viewBox="0 0 110 110" fill="none" xmlns="http://www.w3.org/2000/svg">
<path d="M92.341 109.682C91.7191 109.682 91.719 110 91.0971 110C90.4752 110 90.4752 109.765 89.8532 109.765C89.2313 109.765 89.2313 109.964 88.6094 109.964C87.9874 109.964 87.9874 109.861 87.3655 109.861C86.7436 109.861 86.7436 109.901 86.1216 109.901C85.4997 109.901 85.4997 109.977 84.8778 109.977C84.2558 109.977 84.2558 109.838 83.6339 109.838C83.0119 109.838 83.0119 109.696 82.39 109.696C81.7681 109.696 81.7681 109.907 81.1461 109.907C80.5242 109.907 80.5242 109.719 79.9023 109.719C79.2803 109.719 79.2803 109.719 78.6584 109.719C78.0365 109.719 78.0365 109.871 77.4145 109.871C76.7926 109.871 76.7926 109.944 76.1706 109.944C75.5487 109.944 75.5487 109.907 74.9268 109.907C74.3048 109.907 74.3048 109.772 73.6829 109.772C73.061 109.772 73.061 109.735 72.439 109.735C71.8171 109.735 71.8171 109.944 71.1952 109.944C70.5732 109.944 70.5732 109.715 69.9513 109.715C69.3293 109.715 69.3293 109.95 68.7074 109.95C68.0855 109.95 68.0855 109.788 67.4635 109.788C66.8416 109.788 66.8416 109.934 66.2197 109.934C65.5977 109.934 65.5977 109.752 64.9758 109.752C64.3539 109.752 64.3539 109.782 63.7319 109.782C63.11 109.782 63.11 109.828 62.488 109.828C61.8661 109.828 61.8661 109.735 61.2442 109.735C60.6222 109.735 60.6222 109.765 60.0003 109.765C59.3784 109.765 59.3784 109.901 58.7564 109.901C58.1345 109.901 58.1345 109.811 57.5126 109.811C56.8906 109.811 56.8906 109.874 56.2687 109.874C55.6467 109.874 55.6468 109.788 55.0248 109.788C54.4029 109.788 54.4029 109.848 53.7809 109.848C53.159 109.848 53.159 109.894 52.5371 109.894C51.9151 109.894 51.9151 109.864 51.2932 109.864C50.6713 109.864 50.6713 109.778 50.0493 109.778C49.4274 109.778 49.4274 109.861 48.8055 109.861C48.1835 109.861 48.1835 109.742 47.5616 109.742C46.9396 109.742 46.9396 109.805 46.3177 109.805C45.6958 109.805 45.6958 109.739 45.0738 109.739C44.4519 109.739 44.4519 109.874 43.83 109.874C43.208 109.874 43.208 109.838 42.5861 109.838C41.9642 109.838 41.9642 109.818 41.3422 109.818C40.7203 109.818 40.7203 109.719 40.0983 109.719C39.4764 109.719 39.4764 109.805 38.8545 109.805C38.2325 109.805 38.2325 109.94 37.6073 109.94C36.982 109.94 36.9854 109.861 36.3634 109.861C35.7415 109.861 35.7415 109.931 35.1195 109.931C34.4976 109.931 34.4976 109.931 33.8757 109.931C33.2537 109.931 33.2537 109.712 32.6318 109.712C32.0099 109.712 32.0099 109.838 31.3879 109.838C30.766 109.838 30.766 109.811 30.1407 109.811C29.5155 109.811 29.5188 109.901 28.8969 109.901C28.2749 109.901 28.2749 109.682 27.6497 109.682C27.0245 109.682 27.0278 109.881 26.4025 109.881C25.7773 109.881 25.7806 109.874 25.1553 109.874C24.5301 109.874 24.5334 109.719 23.9082 109.719C23.2829 109.719 23.2862 109.924 22.661 109.924C22.0357 109.924 22.039 109.98 21.4138 109.98C20.7885 109.98 20.7919 109.831 20.1666 109.831C19.5414 109.831 19.5414 109.95 18.9194 109.95C18.2975 109.95 18.2942 109.894 17.6723 109.894C17.2521 109.894 16.8287 109.914 16.4185 109.888C16.0082 109.861 15.5848 109.775 15.1746 109.715C14.7644 109.656 14.3442 109.593 13.9373 109.504C13.5304 109.414 13.1401 109.239 12.7431 109.12C12.3461 109.001 11.9888 108.756 11.6018 108.611C11.2147 108.465 10.8409 108.293 10.4637 108.121C10.0866 107.949 9.60693 107.975 9.24303 107.777C8.87913 107.578 8.5417 107.317 8.19103 107.092C7.84037 106.867 7.45993 106.679 7.1258 106.427C6.79168 106.176 6.60973 105.742 6.29545 105.471C5.98117 105.2 5.50811 105.094 5.21368 104.8C4.91925 104.505 4.63806 104.184 4.36679 103.87C4.09552 103.556 3.81763 103.231 3.56952 102.897C3.3214 102.563 3.24201 102.11 3.01705 101.759C2.7921 101.409 2.53406 101.081 2.33557 100.717C2.13708 100.353 1.96505 99.9762 1.78972 99.5958C1.61439 99.2154 1.30011 98.8945 1.15124 98.5041C1.00238 98.1137 0.965986 97.6837 0.846892 97.2834C0.727798 96.8831 0.549156 96.496 0.463144 96.0858C0.377132 95.6756 0.545848 95.229 0.486301 94.8122C0.426754 94.3954 0.165409 94.0149 0.135635 93.5948C0.105861 93.1746 0.0396981 92.7611 0.0396981 92.341C0.0396981 91.719 0.0562389 91.719 0.0562389 91.0971C0.0562389 90.4752 0.132327 90.4752 0.132327 89.8532C0.132327 89.2313 0 89.2346 0 88.6127C0 87.9907 0.241497 87.9907 0.241497 87.3688C0.241497 86.7469 0.208415 86.7469 0.208415 86.1249C0.208415 85.503 0.267962 85.503 0.267962 84.8811C0.267962 84.2591 0.152176 84.2591 0.152176 83.6372C0.152176 83.0152 0.135635 83.0152 0.135635 82.3933C0.135635 81.7714 0.0430062 81.7714 0.0430062 81.1494C0.0430062 80.5275 0.0562389 80.5275 0.0562389 79.9056C0.0562389 79.2836 0.112478 79.2836 0.112478 78.6617C0.112478 78.0398 0.284503 78.0398 0.284503 77.4178C0.284503 76.7959 0.244805 76.7959 0.244805 76.1739C0.244805 75.552 0.0231572 75.552 0.0231572 74.9301C0.0231572 74.3081 0.191874 74.3081 0.191874 73.6862C0.191874 73.0643 0.317584 73.0643 0.317584 72.4423C0.317584 71.8204 0.251421 71.8204 0.251421 71.1985C0.251421 70.5765 0.019849 70.5765 0.019849 69.9546C0.019849 69.3326 0.0893206 69.3326 0.0893206 68.7107C0.0893206 68.0888 0.132327 68.0888 0.132327 67.4668C0.132327 66.8449 0.152176 66.8449 0.152176 66.223C0.152176 65.601 0.178641 65.601 0.178641 64.9791C0.178641 64.3572 0.294427 64.3572 0.294427 63.7352C0.294427 63.1133 0.0562389 63.1133 0.0562389 62.4913C0.0562389 61.8694 0.0628553 61.8694 0.0628553 61.2475C0.0628553 60.6255 0.165409 60.6255 0.165409 60.0036C0.165409 59.3817 0.165409 59.3817 0.165409 58.7597C0.165409 58.1378 0.0330817 58.1378 0.0330817 57.5159C0.0330817 56.8939 0.287811 56.8939 0.287811 56.272C0.287811 55.6501 0.129019 55.6501 0.129019 55.0281C0.129019 54.4062 0.277886 54.4062 0.277886 53.7842C0.277886 53.1623 0.0628553 53.1623 0.0628553 52.5404C0.0628553 51.9184 0.0264654 51.9184 0.0264654 51.2965C0.0264654 50.6746 0.148868 50.6746 0.148868 50.0526C0.148868 49.4307 0.129019 49.4307 0.129019 48.8088C0.129019 48.1868 0.0264654 48.1868 0.0264654 47.5649C0.0264654 46.9429 0.238188 46.9429 0.238188 46.321C0.238188 45.6991 0.138943 45.6991 0.138943 45.0771C0.138943 44.4552 0.244805 44.4552 0.244805 43.8333C0.244805 43.2113 0.0165409 43.2113 0.0165409 42.5894C0.0165409 41.9675 0.129019 41.9675 0.129019 41.3455C0.129019 40.7236 0.0661634 40.7236 0.0661634 40.1017C0.0661634 39.4797 0.208415 39.4797 0.208415 38.8578C0.208415 38.2358 0.0430062 38.2358 0.0430062 37.6106C0.0430062 36.9854 0.178641 36.9887 0.178641 36.3667C0.178641 35.7448 0.129019 35.7448 0.129019 35.1229C0.129019 34.5009 0.0430062 34.5009 0.0430062 33.879C0.0430062 33.257 0.27127 33.257 0.27127 32.6351C0.27127 32.0132 0.195182 32.0132 0.195182 31.3912C0.195182 30.7693 0.0297735 30.7693 0.0297735 30.1441C0.0297735 29.5188 0.0165409 29.5221 0.0165409 28.9002C0.0165409 28.2782 0.224956 28.2782 0.224956 27.653C0.224956 27.0278 0.314276 27.0311 0.314276 26.4058C0.314276 25.7806 0.0529307 25.7839 0.0529307 25.1586C0.0529307 24.5334 0.0926288 24.5367 0.0926288 23.9115C0.0926288 23.2862 0.195182 23.2895 0.195182 22.6643C0.195182 22.039 0.0727798 22.0423 0.0727798 21.4171C0.0727798 20.7919 0.0264654 20.7952 0.0264654 20.1699C0.0264654 19.5447 0.314276 19.5447 0.314276 18.9227C0.314276 18.3008 0.251421 18.2975 0.251421 17.6756C0.251421 17.2554 0.168717 16.8386 0.19849 16.4251C0.228264 16.0115 0.353974 15.6046 0.413521 15.1944C0.473069 14.7842 0.390364 14.3409 0.476377 13.934C0.562389 13.5271 0.701332 13.1235 0.820427 12.7265C0.939521 12.3296 1.22733 11.9855 1.37289 11.5951C1.51845 11.2048 1.47875 10.7383 1.65409 10.3579C1.82942 9.97744 2.17347 9.68302 2.37196 9.31912C2.57045 8.95522 2.7921 8.60786 3.01705 8.25719C3.24201 7.90653 3.42396 7.5294 3.67207 7.19527C3.92018 6.86115 4.0492 6.42447 4.32378 6.11019C4.59836 5.79592 4.90602 5.49818 5.20045 5.20375C5.49487 4.90933 5.92493 4.75384 6.23921 4.48257C6.55349 4.2113 6.81483 3.86725 7.14565 3.61914C7.47647 3.37103 7.92307 3.28171 8.27374 3.05675C8.6244 2.83179 8.9883 2.65315 9.35551 2.45135C9.72272 2.24956 9.97744 1.84265 10.3579 1.66732C10.7383 1.49199 11.132 1.34973 11.5257 1.20417C11.9193 1.05861 12.3726 1.12478 12.7762 1.00899C13.1798 0.893206 13.5635 0.774112 13.9737 0.684791C14.3839 0.595471 14.7578 0.373823 15.1746 0.314276C15.5914 0.254729 16.0082 0.294427 16.4251 0.264654C16.8419 0.23488 17.2521 0.0926288 17.6689 0.0926288C18.2909 0.0926288 18.2909 0.301044 18.9128 0.301044C19.5348 0.301044 19.5348 0.0992451 20.1567 0.0992451C20.7786 0.0992451 20.7786 0.0297735 21.4006 0.0297735C22.0225 0.0297735 22.0225 0.208415 22.6444 0.208415C23.2664 0.208415 23.2664 0.142251 23.8883 0.142251C24.5102 0.142251 24.5102 0.0727798 25.1322 0.0727798C25.7541 0.0727798 25.7541 0.287811 26.3761 0.287811C26.998 0.287811 26.998 0.0661634 27.6199 0.0661634C28.2419 0.0661634 28.2419 0.0132327 28.8638 0.0132327C29.4857 0.0132327 29.4857 0.0628553 30.1077 0.0628553C30.7296 0.0628553 30.723 0 31.3416 0C31.9602 0 31.9636 0.105861 32.5855 0.105861C33.2074 0.105861 33.2074 0.0165409 33.8294 0.0165409C34.4513 0.0165409 34.4513 0.251421 35.0732 0.251421C35.6952 0.251421 35.6952 0.178641 36.3171 0.178641C36.939 0.178641 36.939 0.0430062 37.561 0.0430062C38.1829 0.0430062 38.1829 0.152176 38.8049 0.152176C39.4268 0.152176 39.4268 0.1621 40.0487 0.1621C40.6707 0.1621 40.6707 0.181949 41.2926 0.181949C41.9145 0.181949 41.9145 0.238188 42.5365 0.238188C43.1584 0.238188 43.1584 0.14556 43.7803 0.14556C44.4023 0.14556 44.4023 0.0827043 45.0242 0.0827043C45.6461 0.0827043 45.6461 0.258037 46.2681 0.258037C46.89 0.258037 46.89 0.0727798 47.512 0.0727798C48.1339 0.0727798 48.1339 0.14556 48.7558 0.14556C49.3778 0.14556 49.3778 0.152176 49.9997 0.152176C50.6216 0.152176 50.6216 0.132327 51.2436 0.132327C51.8655 0.132327 51.8655 0.00661634 52.4874 0.00661634C53.1094 0.00661634 53.1094 0.211723 53.7313 0.211723C54.3533 0.211723 54.3533 0.0760879 54.9752 0.0760879C55.5971 0.0760879 55.5971 0.0562389 56.2191 0.0562389C56.841 0.0562389 56.841 0.258037 57.4629 0.258037C58.0849 0.258037 58.0849 0.0661634 58.7068 0.0661634C59.3287 0.0661634 59.3287 0.304352 59.9507 0.304352C60.5726 0.304352 60.5726 0.0165409 61.1946 0.0165409C61.8165 0.0165409 61.8165 0.119094 62.4384 0.119094C63.0604 0.119094 63.0604 0.301044 63.6823 0.301044C64.3042 0.301044 64.3042 0.27127 64.9262 0.27127C65.5481 0.27127 65.5481 0.165409 66.17 0.165409C66.792 0.165409 66.792 0.320893 67.4139 0.320893C68.0359 0.320893 68.0359 0.0793961 68.6578 0.0793961C69.2797 0.0793961 69.2797 0.0694716 69.9017 0.0694716C70.5236 0.0694716 70.5236 0.119094 71.1455 0.119094C71.7675 0.119094 71.7675 0.201798 72.3927 0.201798C73.018 0.201798 73.0146 0.165409 73.6366 0.165409C74.2585 0.165409 74.2585 0.135635 74.8805 0.135635C75.5024 0.135635 75.5024 0.201798 76.1243 0.201798C76.7463 0.201798 76.7463 0.0727798 77.3682 0.0727798C77.9901 0.0727798 77.9901 0.0132327 78.6121 0.0132327C79.234 0.0132327 79.234 0.0330817 79.8593 0.0330817C80.4845 0.0330817 80.4812 0.284503 81.1031 0.284503C81.7251 0.284503 81.7251 0.152176 82.3503 0.152176C82.9755 0.152176 82.9722 0.0727798 83.5975 0.0727798C84.2227 0.0727798 84.2194 0.19849 84.8447 0.19849C85.4699 0.19849 85.4666 0.294427 86.0919 0.294427C86.7171 0.294427 86.7138 0.228264 87.339 0.228264C87.9643 0.228264 87.961 0.0496226 88.5862 0.0496226C89.2115 0.0496226 89.2081 0.135635 89.8334 0.135635C90.4586 0.135635 90.4586 0.0661634 91.0806 0.0661634C91.7025 0.0661634 91.7058 0.0330817 92.3278 0.0330817C92.7479 0.0330817 93.1515 0.340742 93.565 0.367207C93.9785 0.393672 94.402 0.330817 94.8122 0.387056C95.2224 0.443295 95.6227 0.565697 96.0296 0.65171C96.4365 0.737722 96.8765 0.70464 97.2735 0.820426C97.6705 0.936212 98.0542 1.11816 98.4446 1.26372C98.8349 1.40928 99.2121 1.58792 99.5892 1.75995C99.9663 1.93197 100.429 1.95844 100.793 2.15693C101.157 2.35542 101.369 2.81856 101.72 3.04352C102.07 3.26847 102.576 3.27509 102.907 3.5232C103.238 3.77131 103.569 4.0492 103.883 4.32047C104.197 4.59174 104.525 4.86963 104.819 5.16405C105.114 5.45848 105.365 5.80584 105.64 6.12012C105.914 6.43439 106.139 6.79498 106.391 7.12911C106.642 7.46323 106.947 7.76428 107.175 8.11494C107.403 8.46561 107.575 8.85597 107.777 9.21987C107.979 9.58377 107.962 10.0568 108.134 10.4373C108.306 10.8177 108.634 11.1254 108.779 11.5191C108.925 11.9127 108.872 12.3626 108.988 12.7629C109.103 13.1632 109.229 13.5503 109.319 13.9572C109.408 14.3641 109.457 14.7677 109.517 15.1812C109.577 15.5947 109.894 15.9752 109.924 16.3953C109.954 16.8154 109.765 17.2323 109.765 17.6524C109.765 18.2743 109.808 18.2743 109.808 18.8963C109.808 19.5182 109.914 19.5182 109.914 20.1401C109.914 20.7621 109.828 20.7621 109.828 21.384C109.828 22.006 109.94 22.006 109.94 22.6279C109.94 23.2498 109.94 23.2498 109.94 23.8718C109.94 24.4937 109.917 24.4937 109.917 25.1156C109.917 25.7376 109.878 25.7376 109.878 26.3595C109.878 26.9814 109.715 26.9814 109.715 27.6034C109.715 28.2253 109.722 28.2253 109.722 28.8472C109.722 29.4692 109.831 29.4692 109.831 30.0911C109.831 30.7131 109.669 30.7131 109.669 31.335C109.669 31.9569 109.775 31.9569 109.775 32.5789C109.775 33.2008 109.838 33.2008 109.838 33.8227C109.838 34.4447 109.927 34.4447 109.927 35.0666C109.927 35.6885 109.831 35.6885 109.831 36.3105C109.831 36.9324 109.831 36.9324 109.831 37.5544C109.831 38.1763 109.666 38.1763 109.666 38.7982C109.666 39.4202 109.755 39.4202 109.755 40.0421C109.755 40.664 109.762 40.664 109.762 41.286C109.762 41.9079 109.897 41.9079 109.897 42.5298C109.897 43.1518 109.811 43.1518 109.811 43.7737C109.811 44.3957 109.679 44.3957 109.679 45.0176C109.679 45.6395 109.659 45.6395 109.659 46.2615C109.659 46.8834 109.954 46.8834 109.954 47.5053C109.954 48.1273 109.947 48.1273 109.947 48.7492C109.947 49.3711 109.821 49.3711 109.821 49.9931C109.821 50.615 109.676 50.615 109.676 51.237C109.676 51.8589 109.768 51.8589 109.768 52.4808C109.768 53.1028 109.874 53.1028 109.874 53.7247C109.874 54.3466 109.957 54.3466 109.957 54.9686C109.957 55.5905 109.921 55.5905 109.921 56.2124C109.921 56.8344 109.805 56.8344 109.805 57.4563C109.805 58.0782 109.815 58.0783 109.815 58.7002C109.815 59.3221 109.666 59.3221 109.666 59.9441C109.666 60.566 109.686 60.566 109.686 61.1879C109.686 61.8099 109.964 61.8099 109.964 62.4318C109.964 63.0537 109.858 63.0537 109.858 63.6757C109.858 64.2976 109.921 64.2976 109.921 64.9195C109.921 65.5415 109.888 65.5415 109.888 66.1634C109.888 66.7854 109.759 66.7854 109.759 67.4073C109.759 68.0292 109.931 68.0292 109.931 68.6512C109.931 69.2731 109.841 69.2731 109.841 69.895C109.841 70.517 109.907 70.517 109.907 71.1389C109.907 71.7608 109.672 71.7608 109.672 72.3861C109.672 73.0113 109.838 73.008 109.838 73.63C109.838 74.2519 109.699 74.2519 109.699 74.8738C109.699 75.4958 109.732 75.4958 109.732 76.1177C109.732 76.7396 109.99 76.7396 109.99 77.3616C109.99 77.9835 109.762 77.9835 109.762 78.6055C109.762 79.2274 109.937 79.2274 109.937 79.8526C109.937 80.4779 109.907 80.4746 109.907 81.0965C109.907 81.7184 109.841 81.7184 109.841 82.3437C109.841 82.9689 109.795 82.9656 109.795 83.5909C109.795 84.2161 109.692 84.2128 109.692 84.8381C109.692 85.4633 109.937 85.46 109.937 86.0852C109.937 86.7105 109.689 86.7072 109.689 87.3324C109.689 87.9576 109.835 87.9543 109.835 88.5796C109.835 89.2048 109.755 89.2015 109.755 89.8268C109.755 90.452 109.897 90.452 109.897 91.0739C109.897 91.6959 109.755 91.6992 109.755 92.3211C109.755 92.7413 109.788 93.1548 109.755 93.5683C109.722 93.9818 109.821 94.4185 109.765 94.8287C109.709 95.2389 109.613 95.6591 109.524 96.0627C109.434 96.4663 109.325 96.8798 109.209 97.2801C109.094 97.6804 108.875 98.0542 108.733 98.4412C108.591 98.8283 108.399 99.2054 108.224 99.5826C108.048 99.9597 107.82 100.31 107.621 100.674C107.423 101.038 107.337 101.475 107.112 101.826C106.887 102.176 106.503 102.414 106.252 102.748C106 103.083 105.818 103.463 105.544 103.777C105.269 104.092 104.995 104.403 104.7 104.697C104.406 104.991 104.158 105.342 103.843 105.613C103.529 105.885 103.215 106.172 102.881 106.421C102.547 106.669 102.173 106.874 101.822 107.099C101.472 107.324 101.137 107.592 100.774 107.79C100.41 107.989 100.039 108.207 99.662 108.379C99.2848 108.551 98.8415 108.584 98.4479 108.73C98.0542 108.875 97.6506 108.968 97.2503 109.087C96.85 109.206 96.4729 109.411 96.0627 109.5C95.6525 109.59 95.2158 109.484 94.8023 109.543C94.3887 109.603 93.9851 109.633 93.565 109.663C93.1449 109.692 92.7446 109.653 92.3244 109.653L92.341 109.682Z" fill="#FF80AD"/>
</svg>
