<svg width="130" height="130" viewBox="0 0 130 130" fill="none" xmlns="http://www.w3.org/2000/svg">
<g clip-path="url(#clip0_849_17212)">
<path d="M65.0137 121.674V122.003C64.5813 122.003 64.1523 121.757 63.7199 121.746C63.2875 121.736 62.8483 121.928 62.4193 121.907C61.9904 121.887 61.5614 121.757 61.129 121.729C60.6966 121.702 60.2642 121.708 59.8353 121.671C59.4063 121.633 58.9636 121.667 58.5381 121.619C58.1126 121.571 57.6974 121.372 57.2684 121.314C56.8394 121.256 56.4345 121.05 56.009 120.981C55.5834 120.913 55.1202 121.057 54.6981 120.981C54.276 120.906 53.8882 120.632 53.4661 120.543C53.044 120.453 52.6254 120.364 52.2033 120.265C51.7812 120.165 51.3247 120.22 50.9095 120.114C50.4943 120.008 50.0516 119.966 49.6364 119.853C49.2211 119.74 48.8128 119.579 48.401 119.455C47.9892 119.332 47.6185 119.065 47.2102 118.931C46.8018 118.797 46.4037 118.622 45.9988 118.475C45.5939 118.327 45.11 118.386 44.7085 118.231C44.307 118.077 43.9913 117.7 43.5898 117.538C43.1883 117.377 42.6975 117.432 42.3029 117.261C41.9082 117.089 41.5788 116.76 41.1876 116.578C40.7964 116.397 40.34 116.345 39.9522 116.156C39.5644 115.968 39.2659 115.601 38.8815 115.405C38.4972 115.21 38.1025 115.032 37.725 114.826C37.3476 114.62 36.9461 114.449 36.572 114.233C36.198 114.017 35.8754 113.715 35.5082 113.492C35.141 113.269 34.7601 113.067 34.3963 112.833C34.0326 112.6 33.5933 112.48 33.2364 112.24C32.8795 112 32.5741 111.678 32.2241 111.427C31.8741 111.177 31.4828 110.978 31.1362 110.721C30.7896 110.464 30.5014 110.131 30.1582 109.867C29.8151 109.603 29.441 109.38 29.1081 109.109C28.7753 108.838 28.4115 108.598 28.0821 108.317C27.7526 108.036 27.4472 107.727 27.1281 107.443C26.8089 107.158 26.5481 106.798 26.2324 106.503C25.9167 106.208 25.5461 105.975 25.2372 105.673C24.9284 105.371 24.7122 104.98 24.4102 104.672C24.1082 104.363 23.765 104.099 23.4699 103.784C23.1748 103.468 22.938 103.105 22.6497 102.782C22.3615 102.46 21.9737 102.227 21.6923 101.901C21.4109 101.575 21.1638 101.218 20.8927 100.882C20.6216 100.546 20.3677 100.197 20.1034 99.857C19.8392 99.5175 19.6608 99.1129 19.4034 98.7665C19.146 98.4202 18.82 98.1252 18.5729 97.772C18.3258 97.4188 17.9621 97.1445 17.7184 96.7878C17.4748 96.4312 17.3101 96.0231 17.0767 95.6596C16.8434 95.2961 16.5517 94.9669 16.3286 94.5999C16.1055 94.233 15.8791 93.8592 15.6629 93.4854C15.4467 93.1116 15.4329 92.6246 15.2236 92.2474C15.0143 91.8702 14.6986 91.5513 14.4995 91.1672C14.3005 90.7831 14.1289 90.3887 13.9402 90.0012C13.7514 89.6137 13.4803 89.2639 13.2984 88.873C13.1166 88.4821 13.1474 87.9985 12.9724 87.6007C12.7974 87.2029 12.444 86.8874 12.2827 86.4896C12.1214 86.0919 11.967 85.6872 11.8125 85.2825C11.6581 84.8779 11.6615 84.4218 11.5174 84.0137C11.3733 83.6056 11.0301 83.2695 10.8963 82.858C10.7624 82.4465 10.5737 82.0521 10.4502 81.6406C10.3266 81.2291 10.3541 80.7696 10.2374 80.3546C10.1207 79.9397 9.89079 79.5522 9.78441 79.1338C9.67803 78.7154 9.63342 78.2799 9.53733 77.8615C9.44125 77.4432 9.31084 77.0282 9.22505 76.603C9.13926 76.1778 9.09465 75.7491 9.01572 75.3239C8.93679 74.8986 8.85443 74.4768 8.7858 74.0482C8.71716 73.6195 8.73432 73.184 8.67598 72.7553C8.61765 72.3267 8.69314 71.8877 8.64167 71.4556C8.59019 71.0235 8.56617 70.6017 8.52842 70.1696C8.49067 69.7375 8.20928 69.3295 8.17839 68.9008C8.14751 68.4721 8.17839 68.0366 8.16123 67.6045C8.14408 67.1724 8.06172 66.7438 8.05142 66.3117C8.04113 65.8796 8.26762 65.4475 8.26762 65.0154H8.01367C8.01367 64.5833 8.03083 64.1478 8.04113 63.7191C8.05142 63.2905 8.05485 62.8515 8.07201 62.4229C8.08917 61.9942 8.31909 61.5724 8.34654 61.1403C8.374 60.7082 8.35341 60.2761 8.39116 59.8475C8.4289 59.4188 8.49067 58.9901 8.53872 58.5615C8.58676 58.1328 8.46665 57.6802 8.52499 57.2549C8.58333 56.8297 8.74805 56.4113 8.81325 55.9861C8.87845 55.5608 8.87502 55.1185 8.95052 54.6967C9.02601 54.2749 9.36232 53.8976 9.45154 53.4758C9.54076 53.054 9.40693 52.5842 9.50302 52.1624C9.5991 51.7406 9.65058 51.3051 9.75696 50.8902C9.86334 50.4752 9.99374 50.0568 10.107 49.6419C10.2202 49.2269 10.4193 48.8326 10.5462 48.4211C10.6732 48.0095 10.6904 47.5569 10.8242 47.1488C10.958 46.7407 11.3355 46.4115 11.4797 46.0034C11.6238 45.5953 11.7405 45.1804 11.8949 44.7792C12.0493 44.3779 12.2655 43.9973 12.4268 43.5995C12.5881 43.2017 12.6464 42.7559 12.818 42.3615C12.9896 41.9671 13.1543 41.5659 13.3328 41.175C13.5112 40.784 13.6107 40.3485 13.8029 39.9644C13.9951 39.5803 14.201 39.1963 14.4 38.8122C14.599 38.4281 14.853 38.0749 15.0623 37.6942C15.2716 37.3136 15.6354 37.0255 15.8516 36.6552C16.0678 36.2848 16.2497 35.8904 16.4762 35.5235C16.7027 35.1566 16.7335 34.6662 16.9669 34.3027C17.2002 33.9392 17.5846 33.6717 17.8248 33.315C18.065 32.9584 18.4185 32.6772 18.669 32.3274C18.9195 31.9776 19.1151 31.5867 19.3725 31.2403C19.6299 30.8939 19.6985 30.4036 19.9662 30.0641C20.2338 29.7246 20.5598 29.4296 20.8309 29.0936C21.1021 28.7575 21.4143 28.4557 21.6957 28.1265C21.9771 27.7973 22.2757 27.4852 22.5639 27.1629C22.8522 26.8405 23.1611 26.5422 23.4562 26.2267C23.7513 25.9112 24.1356 25.6848 24.4376 25.3762C24.7396 25.0676 24.87 24.5875 25.1789 24.2857C25.4877 23.9839 25.8069 23.689 26.1226 23.3941C26.4383 23.0992 26.8295 22.8865 27.1521 22.5985C27.4747 22.3104 27.7972 22.0258 28.1267 21.7446C28.4561 21.4634 28.6998 21.0827 29.0361 20.8084C29.3724 20.534 29.8734 20.4758 30.2166 20.2117C30.5597 19.9476 30.8034 19.5567 31.15 19.2995C31.4966 19.0423 31.9358 18.912 32.2893 18.6651C32.6427 18.4182 32.8727 17.9895 33.2296 17.746C33.5865 17.5026 33.9296 17.2351 34.2934 17.0019C34.6571 16.7687 35.093 16.6452 35.4601 16.4223C35.8273 16.1994 36.1911 15.9594 36.5651 15.7433C36.9392 15.5273 37.2652 15.2221 37.6427 15.0129C38.0202 14.8037 38.5075 14.7968 38.8884 14.5979C39.2693 14.399 39.609 14.111 39.9968 13.9224C40.3846 13.7338 40.8204 13.648 41.2116 13.4663C41.6028 13.2845 41.9014 12.8936 42.296 12.7187C42.6907 12.5438 43.1368 12.4855 43.5383 12.3243C43.9398 12.1631 44.3173 11.9437 44.7222 11.7894C45.1272 11.635 45.5836 11.6247 45.9885 11.4807C46.3934 11.3367 46.7503 11.0349 47.1587 10.8977C47.5671 10.7606 48.0235 10.7674 48.4353 10.6405C48.8471 10.5137 49.2486 10.3456 49.6638 10.229C50.0791 10.1124 50.4737 9.91353 50.8924 9.80722C51.311 9.70091 51.7846 9.83122 52.2067 9.73177C52.6288 9.63233 53.0303 9.46772 53.4524 9.37856C53.8745 9.2894 54.2657 9.04249 54.6912 8.96361C55.1167 8.88474 55.5423 8.79901 55.9678 8.73042C56.3933 8.66184 56.8532 8.81272 57.2821 8.75443C57.7111 8.69613 58.1469 8.73728 58.5759 8.68584C59.0048 8.6344 59.4063 8.32234 59.8353 8.28461C60.2642 8.24689 60.7001 8.25375 61.1325 8.22289C61.5648 8.19202 62.0007 8.27775 62.4331 8.25718C62.8654 8.2366 63.291 8.09943 63.7234 8.08914C64.1558 8.07886 64.5881 8.02399 65.0205 8.02399V8.32234C65.4529 8.32234 65.8819 8.26061 66.3143 8.2709C66.7467 8.28118 67.1825 8.19202 67.6114 8.2126C68.0404 8.23317 68.4694 8.34291 68.8983 8.37035C69.3273 8.39778 69.7734 8.26747 70.2023 8.30519C70.6313 8.34291 71.0603 8.42178 71.4892 8.46979C71.9182 8.51781 72.3266 8.74414 72.7521 8.80244C73.1776 8.86073 73.6409 8.70299 74.0664 8.77157C74.4919 8.84016 74.89 9.09393 75.3121 9.1728C75.7342 9.25167 76.1563 9.34426 76.5784 9.43343C77.0005 9.52259 77.4363 9.54316 77.8584 9.63918C78.2805 9.7352 78.7438 9.66319 79.1624 9.7695C79.5811 9.87581 79.9963 10.0095 80.4116 10.1261C80.8268 10.2427 81.1906 10.5445 81.6023 10.668C82.0141 10.7914 82.4603 10.8223 82.8686 10.956C83.277 11.0898 83.627 11.4087 84.032 11.5527C84.4369 11.6968 84.8281 11.8785 85.2331 12.0294C85.638 12.1803 86.1322 12.098 86.5337 12.2626C86.9352 12.4272 87.3264 12.6124 87.721 12.7838C88.1157 12.9553 88.4211 13.3291 88.8123 13.5109C89.2035 13.6926 89.6016 13.8606 89.9859 14.0493C90.3703 14.2379 90.8301 14.2927 91.2145 14.4916C91.5988 14.6905 91.9385 14.9717 92.316 15.1775C92.6935 15.3833 93.1362 15.4827 93.5102 15.6987C93.8843 15.9148 94.1451 16.3194 94.5123 16.5424C94.8795 16.7653 95.3599 16.8167 95.7202 17.0499C96.0806 17.2831 96.4855 17.4614 96.8458 17.7015C97.2061 17.9415 97.4566 18.3393 97.8067 18.5896C98.1567 18.84 98.5479 19.0354 98.8945 19.2926C99.2411 19.5498 99.6323 19.7522 99.9721 20.0197C100.312 20.2871 100.511 20.7295 100.847 21.0004C101.183 21.2713 101.66 21.3708 101.99 21.652C102.319 21.9332 102.683 22.1767 103.002 22.4647C103.321 22.7528 103.61 23.082 103.925 23.3769C104.241 23.6719 104.591 23.9359 104.9 24.2377C105.209 24.5395 105.439 24.9235 105.741 25.2322C106.043 25.5408 106.41 25.7912 106.705 26.1067C107 26.4221 107.113 26.9057 107.398 27.228C107.683 27.5504 108.026 27.8247 108.308 28.1505C108.589 28.4763 108.973 28.7198 109.248 29.0558C109.522 29.3919 109.701 29.8 109.969 30.1395C110.236 30.479 110.487 30.8322 110.744 31.1786C111.001 31.5249 111.238 31.885 111.489 32.2382C111.739 32.5914 111.935 32.979 112.175 33.3356C112.415 33.6922 112.731 34.0009 112.964 34.3644C113.198 34.7279 113.483 35.0605 113.706 35.4275C113.929 35.7944 113.994 36.2608 114.21 36.6346C114.426 37.0084 114.804 37.2896 115.013 37.6668C115.222 38.044 115.356 38.4624 115.555 38.8465C115.754 39.2306 115.943 39.6181 116.132 40.0056C116.321 40.3931 116.526 40.7737 116.708 41.1647C116.89 41.5556 117.185 41.8985 117.36 42.2929C117.535 42.6873 117.504 43.1708 117.669 43.5686C117.834 43.9664 118.122 44.3196 118.277 44.7209C118.431 45.1221 118.599 45.5233 118.747 45.9314C118.894 46.3395 118.833 46.8127 118.97 47.2242C119.107 47.6358 119.426 47.9855 119.553 48.3971C119.68 48.8086 119.563 49.2921 119.68 49.707C119.797 50.122 120.195 50.4615 120.305 50.8799C120.415 51.2982 120.411 51.744 120.507 52.1658C120.603 52.5877 120.514 53.0472 120.6 53.469C120.686 53.8908 120.799 54.3057 120.878 54.731C120.957 55.1562 121.135 55.5608 121.204 55.9861C121.272 56.4113 121.176 56.8605 121.235 57.2892C121.293 57.7179 121.592 58.1122 121.643 58.5409C121.695 58.9696 121.743 59.3982 121.784 59.8303C121.825 60.2624 121.804 60.6945 121.835 61.1266C121.866 61.5587 121.801 61.9908 121.821 62.4229C121.842 62.855 121.89 63.2836 121.9 63.7157C121.911 64.1478 121.945 64.5765 121.945 65.012H121.876C121.876 65.4441 122.007 65.8796 121.997 66.3083C121.986 66.7369 122.031 67.1759 122.014 67.608C121.996 68.0401 121.952 68.4721 121.921 68.9042C121.89 69.3363 121.595 69.7444 121.557 70.1731C121.52 70.6017 121.612 71.0441 121.564 71.4728C121.516 71.9014 121.544 72.3404 121.485 72.769C121.427 73.1977 121.235 73.6058 121.166 74.031C121.097 74.4563 120.926 74.8643 120.847 75.2861C120.768 75.7079 120.754 76.1469 120.665 76.5687C120.576 76.9905 120.665 77.4535 120.569 77.8718C120.473 78.2902 120.284 78.6914 120.178 79.1098C120.071 79.5282 120.027 79.9637 119.913 80.3786C119.8 80.7936 119.708 81.2223 119.584 81.6338C119.461 82.0453 119.038 82.3676 118.905 82.7757C118.771 83.1838 118.74 83.6296 118.596 84.0343C118.452 84.4389 118.256 84.8264 118.102 85.2311C117.947 85.6357 117.927 86.0884 117.762 86.4896C117.597 86.8909 117.381 87.2681 117.209 87.6625C117.038 88.0568 116.842 88.4443 116.66 88.8353C116.478 89.2262 116.465 89.6995 116.276 90.087C116.087 90.4745 115.624 90.7248 115.425 91.1089C115.226 91.493 115.284 92.0108 115.075 92.3915C114.865 92.7721 114.646 93.1459 114.43 93.5163C114.213 93.8866 114.011 94.2741 113.788 94.6445C113.565 95.0149 113.287 95.3544 113.054 95.7144C112.82 96.0745 112.539 96.414 112.299 96.7707C112.058 97.1273 111.88 97.532 111.629 97.8852C111.379 98.2384 111.084 98.5608 110.826 98.9071C110.569 99.2535 110.123 99.4558 109.855 99.7953C109.588 100.135 109.471 100.591 109.196 100.927C108.922 101.263 108.493 101.465 108.215 101.791C107.937 102.117 107.673 102.46 107.384 102.782C107.096 103.105 106.791 103.406 106.496 103.718C106.201 104.03 106.108 104.545 105.809 104.85C105.511 105.155 105.051 105.313 104.742 105.615C104.433 105.917 104.152 106.246 103.836 106.541C103.52 106.836 103.277 107.209 102.954 107.497C102.632 107.786 102.247 108.002 101.921 108.283C101.595 108.564 101.334 108.931 101.002 109.202C100.669 109.473 100.326 109.744 99.9858 110.008C99.646 110.272 99.2857 110.515 98.9391 110.772C98.5925 111.03 98.2185 111.253 97.865 111.499C97.5116 111.746 97.062 111.853 96.7051 112.096C96.3482 112.34 95.9948 112.58 95.631 112.813C95.2673 113.046 94.9618 113.368 94.5946 113.595C94.2275 113.821 93.771 113.897 93.397 114.113C93.0229 114.329 92.7038 114.634 92.3229 114.843C91.942 115.052 91.5954 115.313 91.211 115.512C90.8267 115.711 90.4835 115.988 90.0957 116.18C89.7079 116.373 89.2756 116.469 88.8843 116.647C88.4931 116.825 88.0985 117.007 87.7038 117.178C87.3092 117.35 86.8459 117.36 86.4444 117.525C86.0429 117.689 85.6792 117.933 85.2777 118.087C84.8762 118.241 84.4747 118.396 84.0663 118.543C83.6579 118.691 83.2976 118.958 82.8858 119.095C82.474 119.233 82.0382 119.274 81.6229 119.401C81.2077 119.527 80.7616 119.517 80.3429 119.634C79.9243 119.75 79.509 119.84 79.0904 119.946C78.6717 120.052 78.3251 120.45 77.903 120.549C77.4809 120.649 77.0588 120.735 76.6333 120.82C76.2078 120.906 75.7617 120.861 75.3361 120.94C74.9106 121.019 74.461 120.94 74.0355 121.009C73.61 121.077 73.1982 121.235 72.7692 121.294C72.3403 121.352 71.9285 121.513 71.4995 121.564C71.0706 121.616 70.6485 121.739 70.2161 121.781C69.7837 121.822 69.3513 121.815 68.9189 121.842C68.4865 121.87 68.0507 121.777 67.6183 121.794C67.1859 121.811 66.757 121.839 66.3246 121.849C65.8922 121.859 65.4632 121.708 65.0308 121.708L65.0137 121.674Z" fill="#FF80AD"/>
<path d="M52 11C52 11.265 52 11.265 52 11.5265C52 11.7879 52 11.7914 52 12.0529C52 12.3144 52 12.3179 52 12.5794C52 12.8408 52 12.8443 52 13.1058C52 13.3673 52 13.3708 52 13.6323C52 13.8937 52 13.8972 52 14.1587C52 14.4202 52 14.4237 52 14.6852C52 14.9466 52 14.9501 52 15.2116C52 15.4731 52 15.4766 52 15.7381C52 15.9995 52 16.003 52 16.2645C52 16.526 52 16.5295 52 16.7945C52 17.0595 52 17.0595 52 17.3245C52 17.5895 52 17.5895 52 17.8545C52 18.1194 52 18.1194 52 18.3844C52 18.6494 52 18.6494 52 18.9144C52 19.1794 52 19.1794 52 19.4444C52 19.7094 52 19.7094 52 19.9744C52 20.2394 52 20.2394 52 20.5044C52 20.7694 52 20.7694 52 21.0344C52 21.2993 52 21.2993 52 21.5643C52 21.8293 52 21.8293 52 22.0943C52 22.3593 52 22.3593 52 22.6243C52 22.8893 52 22.8893 52 23.1543C52 23.4193 52 23.4193 52 23.6843C52 23.9493 52 23.9493 52 24.2143C52 24.4792 52 24.4792 52 24.7442C52 25.0092 52 25.0092 52 25.2742C52 25.5392 52 25.5392 52 25.8042C52 26.0692 52 26.0692 52 26.3342C52 26.5992 52 26.5992 52 26.8642C52 27.1292 52 27.1292 52 27.3942C52 27.6591 52 27.6591 52 27.9206C52 28.1821 52 28.1856 52 28.4471C52 28.7085 52 28.712 52 28.9735C52 29.235 52 29.2385 52 29.5C52 29.7614 52 29.7649 52 30.0264C52 30.2879 52 30.2914 52 30.5564C52 30.8214 52 30.8214 52 31.0864C52 31.3514 52 31.3514 52 31.6164C52 31.8813 52 31.8813 52 32.1463C52 32.4113 52 32.4113 52 32.6763C52 32.9413 52 32.9413 52 33.2063C52 33.4713 52 33.4713 52 33.7363C52 34.0013 52 34.0013 52 34.2663C52 34.5313 52 34.5313 52 34.7963C52 35.0612 52 35.0612 52 35.3262C52 35.5912 52 35.5912 52 35.8562C52 36.1212 52 36.1212 52 36.3862C52 36.6512 52 36.6512 52 36.9162C52 37.1812 52 37.1812 52 37.4462C52 37.7112 52 37.7112 52 37.9762C52 38.2411 52 38.2411 52 38.5061C52 38.7711 52 38.7711 52 39.0361C52 39.3011 52 39.3011 52 39.5661C52 39.8311 52 39.8311 52 40.0961C52 40.3611 52 40.3611 52 40.6261C52 40.8911 52 40.8911 52 41.156C52 41.421 52 41.421 52 41.686C52 41.951 52 41.951 52 42.216C52 42.481 52 42.481 52 42.746C52 43.011 52 43.011 52 43.276C52 43.541 52 43.541 52 43.806C52 44.071 52 44.071 52 44.3359C52 44.6009 52 44.6009 52 44.8659C52 45.1309 52 45.1309 52 45.3959C52 45.6609 52 45.6609 52 45.9259C52 46.1909 52 46.1909 52 46.4559C52 46.7209 52 46.7209 52 46.9859C52 47.2509 52 47.2509 52 47.5158C52 47.7808 52 47.7808 52 48.0458C52 48.3108 52 48.3108 52 48.5758C52 48.8408 52 48.8408 52 49.1058C52 49.3708 52 49.3708 52 49.6358C52 49.9008 52 49.9008 52 50.1658C52 50.4308 52 50.4308 52 50.6957C52 50.9607 52 50.9607 52 51.2257C52 51.4907 52 51.4907 52 51.7557C52 52.0207 52 52.0207 52 52.2857C52 52.5507 52 52.5507 52 52.8157C52 53.0807 52 53.0807 52 53.3457C52 53.6107 52 53.6107 52 53.8756C52 54.1406 52 54.1406 52 54.4056C52 54.6706 52 54.6706 52 54.9356C52 55.2006 52 55.2006 52 55.4621C52 55.7235 52 55.7271 52 55.9885C52 56.25 52 56.2535 52 56.5185C52 56.7835 52 56.7835 52 57.0485C52 57.3135 52 57.3135 52 57.5785C52 57.8435 52 57.8435 52 58.1085C52 58.3734 52 58.3734 52 58.6384C52 58.9034 52 58.9034 52 59.1684C52 59.4334 52 59.4334 52 59.6984C52 59.9634 52 59.9634 52 60.2284C52 60.4934 52 60.4934 52 60.7584C52 61.0234 52 61.0234 52 61.2848C52 61.5463 52 61.5498 52 61.8113C52 62.0727 52 62.0763 52 62.3377C52 62.5992 52 62.6027 52 62.8642C52 63.1256 52 63.1292 52 63.3906C52 63.6521 52 63.6556 52 63.9171C52 64.1785 52 64.1821 52 64.4435C52 64.705 52 64.7085 52 64.97C52 65.2314 52 65.235 52 65.4964C52 65.7579 52 65.7614 52 66.0229C52 66.2843 52 66.2879 52 66.5493C52 66.8108 52 66.8143 52 67.0758C52 67.3372 52 67.3408 52 67.6022C52 67.8637 52 67.8672 52 68.1287C52 68.3901 52 68.3937 52 68.6551C52 68.9166 52 68.9201 52 69.1816C52 69.443 52 69.4466 52 69.7116C52 69.9765 52 69.9765 52 70.2415C52 70.5065 52 70.5065 52 70.7715C52 71.0365 52 71.0365 52 71.3015C52 71.5665 52 71.5665 52 71.8315C52 72.0965 52 72.0965 52 72.3615C52 72.6265 52 72.6265 52 72.8915C52 73.1564 52 73.1564 52 73.4214C52 73.6864 52 73.6864 52 73.9514C52 74.2164 52 74.2164 52 74.4814C52 74.7464 52 74.7464 52 75.0114C52 75.2764 52 75.2764 52 75.5414C52 75.8064 52 75.8064 52 76.0714C52 76.3363 52 76.3363 52 76.5978C52 76.8593 52 76.8628 52 77.1242C52 77.3857 52 77.3892 52 77.6507C52 77.9122 52 77.9157 52 78.1807C52 78.4457 52 78.4457 52 78.7107C52 78.9757 52 78.9757 52 79.2407C52 79.5056 52 79.5056 52 79.7706C52 80.0356 52 80.0356 52 80.3006C52 80.5656 52 80.5656 52 80.8306C52 81.0956 52 81.0956 52 81.3606C52 81.6256 52 81.6256 52 81.8906C52 82.1556 52 82.1556 52 82.4206C52 82.6855 52 82.6855 52 82.9505C52 83.2155 52 83.2155 52 83.4805C52 83.7455 52 83.7455 52 84.0105C52 84.2755 52 84.2755 52 84.5405C52 84.8055 52 84.8055 52 85.0705C52 85.3355 52 85.3355 52 85.6005C52 85.8654 52 85.8654 52 86.1304C52 86.3954 52 86.3954 52 86.6604C52 86.9254 52 86.9254 52 87.1904C52 87.4554 52 87.4554 52 87.7204C52 87.9854 52 87.9854 52 88.2504C52 88.5154 52 88.5154 52 88.7804C52 89.0453 52 89.0453 52 89.3103C52 89.5753 52 89.5753 52 89.8403C52 90.1053 52 90.1053 52 90.3703C52 90.6353 52 90.6353 52 90.9003C52 91.1653 52 91.1653 52 91.4303C52 91.6953 52 91.6953 52 91.9603C52 92.2252 52 92.2252 52 92.4902C52 92.7552 52 92.7552 52 93.0202C52 93.2852 52 93.2852 52 93.5502C52 93.8152 52 93.8152 52 94.0802C52 94.3452 52 94.3452 52 94.6102C52 94.8752 52 94.8752 52 95.1402C52 95.4051 52 95.4051 52 95.6701C52 95.9351 52 95.9351 52 96.2001C52 96.4651 52 96.4651 52 96.7301C52 96.9951 52 96.9951 52 97.2601C52 97.5251 52 97.5251 52 97.7901C52 98.0551 52 98.0551 52 98.3201C52 98.585 52 98.585 52 98.85C52 99.115 52 99.115 52 99.38C52 99.645 52 99.645 52 99.91C52 100.175 52 100.175 52 100.44C52 100.705 52 100.705 52 100.97C52 101.235 52 101.235 52 101.496C52 101.758 52 101.761 52 102.026C52 102.291 52 102.291 52 102.556C52 102.821 52 102.821 52 103.086C52 103.351 52 103.351 52 103.616C52 103.881 52 103.881 52 104.146C52 104.411 52 104.411 52 104.676C52 104.941 52 104.941 52 105.206C52 105.471 52 105.471 52 105.736C52 106.001 52 106.001 52 106.266C52 106.531 52 106.531 52 106.796C52 107.061 52 107.061 52 107.326C52 107.591 52 107.591 52 107.856C52 108.121 52 108.121 52 108.386C52 108.651 52 108.651 52 108.916C52 109.181 52 109.181 52 109.446C52 109.711 52 109.711 52 109.976C52 110.241 52 110.241 52 110.506C52 110.771 52 110.771 52 111.036C52 111.301 52 111.301 52 111.566C52 111.831 52 111.831 52 112.096C52 112.361 52 112.361 52 112.626C52 112.891 52 112.891 52 113.156C52 113.421 52 113.421 52 113.686C52 113.951 52 113.951 52 114.216C52 114.481 52 114.481 52 114.746C52 115.011 52 115.011 52 115.276C52 115.541 52 115.541 52 115.806C52 116.071 52 116.071 52 116.336C52 116.601 52 116.601 52 116.869C52 117.138 52 117.134 52 117.399C52 117.664 52 117.664 52 117.933C52 118.201 52 118.198 52 118.466C52 118.735 52 118.731 52 119" stroke="#181818" stroke-width="4.11934" stroke-miterlimit="10"/>
<path d="M11 53.5637C11.257 53.5637 11.257 53.4 11.5141 53.4C11.7711 53.4 11.7711 53.4 12.0282 53.4C12.2852 53.4 12.2852 53.6727 12.5423 53.6727C12.7993 53.6727 12.7993 53.0909 13.0564 53.0909C13.3134 53.0909 13.3134 53.0909 13.5704 53.0909C13.8275 53.0909 13.8275 53.9636 14.0845 53.9636C14.3416 53.9636 14.3416 53.8727 14.5986 53.8727C14.8557 53.8727 14.8557 53.4909 15.1127 53.4909C15.3698 53.4909 15.3698 53.5455 15.6268 53.5455C15.8839 53.5455 15.8839 53.6 16.1409 53.6C16.3979 53.6 16.3979 53.9818 16.655 53.9818C16.912 53.9818 16.912 53.5273 17.1691 53.5273C17.4261 53.5273 17.4261 53.4909 17.6832 53.4909C17.9402 53.4909 17.9402 53.2909 18.1973 53.2909C18.4543 53.2909 18.4543 53.6182 18.7113 53.6182C18.9684 53.6182 18.9684 53.1455 19.2254 53.1455C19.4825 53.1455 19.4825 53.4182 19.7395 53.4182C19.9966 53.4182 19.9966 53.1273 20.2536 53.1273C20.5107 53.1273 20.5107 53.7273 20.7677 53.7273C21.0248 53.7273 21.0248 53.3637 21.2818 53.3637C21.5388 53.3637 21.5388 54 21.7959 54C22.0529 54 22.0529 53.6727 22.31 53.6727C22.567 53.6727 22.567 53.6182 22.8241 53.6182C23.0811 53.6182 23.0811 53.8909 23.3382 53.8909C23.5952 53.8909 23.5952 53.2 23.8522 53.2C24.1093 53.2 24.1093 53.7273 24.3663 53.7273C24.6234 53.7273 24.6234 53.9273 24.8804 53.9273C25.1375 53.9273 25.1375 53.8727 25.3945 53.8727C25.6516 53.8727 25.6516 53.3455 25.9086 53.3455C26.1657 53.3455 26.1657 53.6909 26.4227 53.6909C26.6797 53.6909 26.6797 53.7091 26.9368 53.7091C27.1938 53.7091 27.1938 53.4909 27.4509 53.4909C27.7079 53.4909 27.7079 53.9818 27.965 53.9818C28.222 53.9818 28.222 53.4 28.4791 53.4C28.7361 53.4 28.7361 53.4182 28.9931 53.4182C29.2502 53.4182 29.2502 53.3091 29.5072 53.3091C29.7643 53.3091 29.7643 53.3455 30.0213 53.3455C30.2784 53.3455 30.2784 53.6727 30.5354 53.6727C30.7925 53.6727 30.7925 53.3455 31.0495 53.3455C31.3066 53.3455 31.3066 53.3455 31.5636 53.3455C31.8206 53.3455 31.8206 53.5091 32.0777 53.5091C32.3347 53.5091 32.3347 53.2727 32.5918 53.2727C32.8488 53.2727 32.8488 53.4364 33.1059 53.4364C33.3629 53.4364 33.3629 53.1091 33.62 53.1091C33.877 53.1091 33.877 53.2 34.134 53.2C34.3911 53.2 34.3911 53.2 34.6481 53.2C34.9052 53.2 34.9052 53.4545 35.1622 53.4545C35.4193 53.4545 35.4193 53.3273 35.6763 53.3273C35.9334 53.3273 35.9334 53.7636 36.1904 53.7636C36.4474 53.7636 36.4474 53.3818 36.7045 53.3818C36.9615 53.3818 36.9615 53.5091 37.2186 53.5091C37.4756 53.5091 37.4756 53.5818 37.7327 53.5818C37.9897 53.5818 37.9897 53.4182 38.2468 53.4182C38.5038 53.4182 38.5038 53.2909 38.7609 53.2909C39.0179 53.2909 39.0179 53.5273 39.2749 53.5273C39.532 53.5273 39.532 53.1637 39.789 53.1637C40.0461 53.1637 40.0461 53.6364 40.3031 53.6364C40.5602 53.6364 40.5602 53.8 40.8172 53.8C41.0743 53.8 41.0743 53.1273 41.3313 53.1273C41.5883 53.1273 41.5883 53.5273 41.8454 53.5273C42.1024 53.5273 42.1024 53.4 42.3595 53.4C42.6165 53.4 42.6165 53.8182 42.8736 53.8182C43.1306 53.8182 43.1306 53.3273 43.3877 53.3273C43.6447 53.3273 43.6447 53.4909 43.9018 53.4909C44.1588 53.4909 44.1588 53.5637 44.4158 53.5637C44.6729 53.5637 44.6729 53.7455 44.9299 53.7455C45.187 53.7455 45.187 53.6 45.444 53.6C45.7011 53.6 45.7011 53.7273 45.9581 53.7273C46.2152 53.7273 46.2152 53.2909 46.4722 53.2909C46.7292 53.2909 46.7292 53.4727 46.9863 53.4727C47.2433 53.4727 47.2433 53.2909 47.5004 53.2909C47.7574 53.2909 47.7574 53.3637 48.0145 53.3637C48.2715 53.3637 48.2715 53.5091 48.5286 53.5091C48.7856 53.5091 48.7856 53.5273 49.0427 53.5273C49.2997 53.5273 49.2997 53.3091 49.5567 53.3091C49.8138 53.3091 49.8138 53.7818 50.0708 53.7818C50.3279 53.7818 50.3279 53.2727 50.5849 53.2727C50.842 53.2727 50.842 53.4727 51.099 53.4727C51.3561 53.4727 51.3561 53.3637 51.6131 53.3637C51.8701 53.3637 51.8701 53.8364 52.1272 53.8364C52.3842 53.8364 52.3842 53.6909 52.6413 53.6909C52.8983 53.6909 52.8983 53.4545 53.1554 53.4545C53.4124 53.4545 53.4124 53.0545 53.6695 53.0545C53.9265 53.0545 53.9265 53.5818 54.1835 53.5818C54.4406 53.5818 54.4406 53.4182 54.6976 53.4182C54.9547 53.4182 54.9547 53.7455 55.2117 53.7455C55.4688 53.7455 55.4688 53.2909 55.7258 53.2909C55.9829 53.2909 55.9829 53.4909 56.2399 53.4909C56.497 53.4909 56.497 53.3273 56.754 53.3273C57.011 53.3273 57.011 53.6909 57.2681 53.6909C57.5251 53.6909 57.5251 53.6 57.7822 53.6C58.0392 53.6 58.0392 53.4545 58.2963 53.4545C58.5533 53.4545 58.5533 53.4909 58.8104 53.4909C59.0674 53.4909 59.0674 53.3818 59.3244 53.3818C59.5815 53.3818 59.5815 53.6545 59.8385 53.6545C60.0956 53.6545 60.0956 53.3455 60.3526 53.3455C60.6097 53.3455 60.6097 53.6364 60.8667 53.6364C61.1238 53.6364 61.1238 53.6909 61.3808 53.6909C61.6379 53.6909 61.6379 53.5273 61.8949 53.5273C62.1519 53.5273 62.1519 53.5091 62.409 53.5091C62.666 53.5091 62.666 53.5091 62.9231 53.5091C63.1801 53.5091 63.1801 53.2 63.4372 53.2C63.6942 53.2 63.6942 53.4545 63.9513 53.4545C64.2083 53.4545 64.2083 53.3818 64.4653 53.3818C64.7224 53.3818 64.7224 53.8545 64.9794 53.8545C65.2365 53.8545 65.2365 53.8545 65.4935 53.8545C65.7506 53.8545 65.7506 53.0909 66.0076 53.0909C66.2647 53.0909 66.2647 53.7636 66.5217 53.7636C66.7788 53.7636 66.7788 53.5273 67.0358 53.5273C67.2928 53.5273 67.2928 53.2545 67.5499 53.2545C67.8069 53.2545 67.8069 53.6909 68.064 53.6909C68.321 53.6909 68.321 53.5273 68.5781 53.5273C68.8351 53.5273 68.8351 53.1273 69.0922 53.1273C69.3492 53.1273 69.3492 53.7818 69.6062 53.7818C69.8633 53.7818 69.8633 53.5637 70.1203 53.5637C70.3774 53.5637 70.3774 53.1091 70.6344 53.1091C70.8915 53.1091 70.8915 53.6545 71.1485 53.6545C71.4056 53.6545 71.4056 53.0727 71.6626 53.0727C71.9197 53.0727 71.9197 53.4 72.1767 53.4C72.4337 53.4 72.4337 53.2364 72.6908 53.2364C72.9478 53.2364 72.9478 53.2364 73.2049 53.2364C73.4619 53.2364 73.4619 53.6 73.719 53.6C73.976 53.6 73.976 53.5455 74.2331 53.5455C74.4901 53.5455 74.4901 53.8364 74.7471 53.8364C75.0042 53.8364 75.0042 53.8545 75.2612 53.8545C75.5183 53.8545 75.5183 53.8545 75.7753 53.8545C76.0324 53.8545 76.0324 53.5273 76.2894 53.5273C76.5465 53.5273 76.5465 53.6727 76.8035 53.6727C77.0605 53.6727 77.0605 53.4182 77.3176 53.4182C77.5746 53.4182 77.5746 53.0727 77.8317 53.0727C78.0887 53.0727 78.0887 53.6545 78.3458 53.6545C78.6028 53.6545 78.6028 53.0909 78.8599 53.0909C79.1169 53.0909 79.1169 53.7455 79.374 53.7455C79.631 53.7455 79.631 53.7818 79.888 53.7818C80.1451 53.7818 80.1451 53.4364 80.4021 53.4364C80.6592 53.4364 80.6592 53.2 80.9162 53.2C81.1733 53.2 81.1733 53.5455 81.4303 53.5455C81.6874 53.5455 81.6874 53.4 81.9444 53.4C82.2014 53.4 82.2014 53.3637 82.4585 53.3637C82.7155 53.3637 82.7155 53.4182 82.9726 53.4182C83.2296 53.4182 83.2296 53.7091 83.4867 53.7091C83.7437 53.7091 83.7437 53.4909 84.0008 53.4909C84.2578 53.4909 84.2578 53.4909 84.5149 53.4909C84.7719 53.4909 84.7719 53.7636 85.0289 53.7636C85.286 53.7636 85.286 53.2545 85.543 53.2545C85.8001 53.2545 85.8001 53.5455 86.0571 53.5455C86.3142 53.5455 86.3142 53.8 86.5712 53.8C86.8283 53.8 86.8283 53.2545 87.0853 53.2545C87.3423 53.2545 87.3423 53.8545 87.5994 53.8545C87.8564 53.8545 87.8564 53.1637 88.1135 53.1637C88.3705 53.1637 88.3705 53.3455 88.6276 53.3455C88.8846 53.3455 88.8846 53.5273 89.1417 53.5273C89.3987 53.5273 89.3987 53.0909 89.6558 53.0909C89.9128 53.0909 89.9128 53.4909 90.1698 53.4909C90.4269 53.4909 90.4269 53.3091 90.6839 53.3091C90.941 53.3091 90.941 53.4909 91.198 53.4909C91.4551 53.4909 91.4551 53 91.7121 53C91.9692 53 91.9692 53.1455 92.2262 53.1455C92.4832 53.1455 92.4832 53.3637 92.7403 53.3637C92.9973 53.3637 92.9973 53.1455 93.2544 53.1455C93.5114 53.1455 93.5114 53.5273 93.7685 53.5273C94.0255 53.5273 94.0255 53.2364 94.2826 53.2364C94.5396 53.2364 94.5396 53.8182 94.7967 53.8182C95.0537 53.8182 95.0537 53.3091 95.3107 53.3091C95.5678 53.3091 95.5678 53.7091 95.8248 53.7091C96.0819 53.7091 96.0819 53.5455 96.3389 53.5455C96.596 53.5455 96.596 53.5091 96.853 53.5091C97.1101 53.5091 97.1101 53.4364 97.3671 53.4364C97.6242 53.4364 97.6242 53.0364 97.8812 53.0364C98.1382 53.0364 98.1382 53.8727 98.3953 53.8727C98.6523 53.8727 98.6523 53.3091 98.9094 53.3091C99.1664 53.3091 99.1664 53.6364 99.4235 53.6364C99.6805 53.6364 99.6805 53.8 99.9375 53.8C100.195 53.8 100.195 53.7273 100.452 53.7273C100.709 53.7273 100.709 53.7273 100.966 53.7273C101.223 53.7273 101.223 53.3273 101.48 53.3273C101.737 53.3273 101.737 53.2545 101.994 53.2545C102.251 53.2545 102.251 53.5818 102.508 53.5818C102.765 53.5818 102.765 53.8 103.022 53.8C103.279 53.8 103.279 53.7273 103.536 53.7273C103.793 53.7273 103.793 53.8909 104.05 53.8909C104.307 53.8909 104.307 53.4727 104.564 53.4727C104.821 53.4727 104.821 53.4545 105.078 53.4545C105.335 53.4545 105.335 53.7091 105.593 53.7091C105.85 53.7091 105.85 53.2182 106.107 53.2182C106.364 53.2182 106.364 53.1637 106.621 53.1637C106.878 53.1637 106.878 53.6182 107.135 53.6182C107.392 53.6182 107.392 53.5455 107.649 53.5455C107.906 53.5455 107.906 53.2182 108.163 53.2182C108.42 53.2182 108.42 53.1637 108.677 53.1637C108.934 53.1637 108.934 53.5455 109.191 53.5455C109.448 53.5455 109.448 53.2182 109.705 53.2182C109.962 53.2182 109.962 53.3818 110.219 53.3818C110.476 53.3818 110.476 53.5637 110.733 53.5637C110.99 53.5637 110.99 53.3273 111.248 53.3273C111.505 53.3273 111.505 53.6727 111.765 53.6727C112.026 53.6727 112.022 53.3637 112.279 53.3637C112.536 53.3637 112.536 53.8727 112.797 53.8727C113.057 53.8727 113.054 53.0182 113.314 53.0182C113.575 53.0182 113.571 53.8545 113.832 53.8545C114.092 53.8545 114.089 53.3637 114.346 53.3637C114.603 53.3637 114.603 53.0909 114.86 53.0909C115.117 53.0909 115.117 53.3455 115.377 53.3455C115.638 53.3455 115.634 53 115.895 53C116.155 53 116.152 53.8364 116.412 53.8364C116.673 53.8364 116.669 53.6182 116.93 53.6182C117.19 53.6182 117.187 53.2909 117.447 53.2909C117.708 53.2909 117.708 53.6545 117.965 53.6545C118.222 53.6545 118.225 53.7091 118.482 53.7091C118.74 53.7091 118.743 53.5818 119 53.5818" stroke="#181818" stroke-width="4.11934" stroke-miterlimit="10"/>
<path d="M52.0668 52.8916C52.2404 53.0759 52.2208 52.9802 52.5353 52.9305C52.6696 52.9093 52.8236 52.8136 53.0104 52.7852C53.1578 52.7604 53.3315 52.8242 53.5051 52.7923C53.6558 52.7675 53.8164 52.7285 53.9867 52.6966C54.1407 52.6683 54.2652 52.4025 54.4323 52.3706C54.5863 52.3422 54.7829 52.5442 54.95 52.5088C55.104 52.4769 55.2383 52.2855 55.4021 52.2501C55.5594 52.2182 55.7199 52.1898 55.8838 52.1544C56.0476 52.1189 56.2016 52.1012 56.3654 52.0658C56.5292 52.0303 56.7028 52.1083 56.8667 52.0729C57.0305 52.0374 57.1583 51.8673 57.3188 51.8319C57.4793 51.7964 57.6202 51.6936 57.784 51.6546C57.9479 51.6157 58.1051 51.6015 58.2657 51.5625C58.4262 51.5235 58.6293 51.7149 58.7899 51.6724C58.9504 51.6298 59.1142 51.6263 59.2748 51.5873C59.4353 51.5483 59.5729 51.4278 59.7335 51.3853C59.894 51.3428 60.0382 51.2612 60.1987 51.2152C60.3593 51.1691 60.4739 50.9671 60.6312 50.921C60.7885 50.8749 61.0145 51.1195 61.1718 51.0734C61.3291 51.0273 61.4306 50.7651 61.5879 50.7154C61.7452 50.6658 61.886 50.5701 62.0433 50.5205C62.2006 50.4709 62.4234 50.68 62.5806 50.6304C62.7379 50.5808 62.8624 50.4142 63.0164 50.361C63.1704 50.3079 63.3407 50.3043 63.498 50.2512C63.6553 50.198 63.7765 50.035 63.9305 49.9783C64.0845 49.9216 64.2385 49.8648 64.3924 49.8081C64.5464 49.7514 64.6709 49.6026 64.8282 49.5459C64.9855 49.4892 65.1755 49.5565 65.3295 49.4998C65.4835 49.4431 65.644 49.4006 65.798 49.3403C65.952 49.2801 66.1453 49.3403 66.2993 49.2765C66.4533 49.2127 66.509 48.8796 66.6597 48.8158C66.8104 48.752 67.007 48.8087 67.1577 48.7413C67.3084 48.674 67.482 48.6669 67.6328 48.5996C67.7835 48.5322 67.9669 48.5429 68.1177 48.472C68.2684 48.4011 68.3568 48.1778 68.5043 48.1069C68.6517 48.036 68.8778 48.1353 69.0252 48.0609C69.1726 47.9864 69.2513 47.749 69.3987 47.671C69.5462 47.593 69.6969 47.5257 69.8443 47.4477C69.9917 47.3697 70.0802 47.1713 70.2244 47.0898C70.3685 47.0082 70.6044 47.1075 70.7486 47.0224C70.8927 46.9374 70.9812 46.746 71.1221 46.6574C71.263 46.5688 71.453 46.5652 71.5906 46.4731C71.7282 46.3809 71.8068 46.1824 71.9444 46.0868C72.0821 45.9911 72.3147 46.0513 72.449 45.9521C72.5833 45.8528 72.7373 45.7749 72.8717 45.6721C73.006 45.5693 72.9667 45.2184 73.0977 45.1121C73.2288 45.0058 73.5236 45.1227 73.6481 45.0129C73.7726 44.903 73.9299 44.8144 74.0511 44.6974C74.1724 44.5805 74.2477 44.3962 74.3657 44.2757C74.4836 44.1552 74.4541 43.8716 74.5688 43.7441C74.6835 43.6165 74.9358 43.6306 75.0439 43.4995C75.152 43.3684 75.1225 43.1096 75.2241 42.9714C75.3256 42.8332 75.4403 42.7127 75.5353 42.5674C75.6303 42.4221 75.7057 42.2697 75.7909 42.1208C75.8761 41.972 76.1447 41.933 76.2201 41.7806C76.2954 41.6282 76.4199 41.4829 76.4887 41.3234C76.5575 41.1639 76.6264 40.9902 76.682 40.8237C76.7377 40.6571 76.6231 40.4267 76.6689 40.2566C76.7148 40.0865 76.6362 39.8915 76.6689 39.7179C76.7017 39.5442 76.7083 39.3812 76.7279 39.204C76.7476 39.0268 76.9933 38.8779 76.9999 38.7007C77.0064 38.5235 76.7869 38.3498 76.7803 38.1726C76.7738 37.9954 76.7705 37.8324 76.7509 37.6552C76.7312 37.478 76.7443 37.3114 76.7148 37.1342C76.6853 36.957 76.8786 36.7408 76.8393 36.5671C76.8 36.3934 76.7836 36.2127 76.7345 36.039C76.6853 35.8654 76.5903 35.713 76.5346 35.5464C76.4789 35.3798 76.2954 35.2699 76.2299 35.1069C76.1644 34.9439 76.2496 34.71 76.1775 34.5469C76.1054 34.3839 75.9776 34.2563 75.899 34.0968C75.8105 33.9196 75.7483 33.7282 75.6598 33.5581C75.5714 33.388 75.2732 33.3419 75.1782 33.1753C75.0832 33.0088 75.1028 32.7571 75.0046 32.5941C74.9063 32.4311 74.7326 32.3141 74.6278 32.1582C74.5295 32.0128 74.3755 31.9207 74.2772 31.786C74.1789 31.6513 74.0937 31.4954 73.9889 31.3607C73.884 31.226 73.7497 31.1197 73.6416 30.9921C73.5335 30.8645 73.504 30.6483 73.3893 30.5243C73.2746 30.4002 73.1993 30.2266 73.0781 30.1096C72.9568 29.9927 72.8913 29.7906 72.7668 29.6808C72.6423 29.5709 72.5113 29.4433 72.3802 29.3405C72.2491 29.2378 72.0755 29.181 71.9379 29.0854C71.8003 28.9897 71.5447 29.1102 71.4038 29.0286C71.263 28.9471 71.1942 28.699 71.0467 28.6246C70.8993 28.5502 70.6765 28.6742 70.5258 28.6104C70.3751 28.5466 70.2604 28.3765 70.1031 28.3269C69.9459 28.2773 69.7952 28.2064 69.6346 28.1674C69.4741 28.1284 69.3004 28.217 69.1366 28.1958C68.9728 28.1745 68.8221 28.1532 68.6583 28.1426C68.4944 28.132 68.3405 28.1497 68.1766 28.1532C68.0128 28.1568 67.8457 27.9867 67.6819 28.0008C67.5181 28.015 67.3706 28.1391 67.2068 28.1674C67.043 28.1958 66.853 28.0505 66.6924 28.0894C66.5319 28.1284 66.4303 28.3978 66.2731 28.4474C66.1158 28.497 65.8832 28.2808 65.7259 28.3375C65.5687 28.3942 65.5162 28.7309 65.3622 28.7983C65.2083 28.8656 65.0051 28.7912 64.8577 28.8656C64.7103 28.94 64.5923 29.0747 64.4449 29.1598C64.2974 29.2448 64.0779 29.174 63.937 29.2626C63.7961 29.3512 63.7601 29.6241 63.6192 29.7198C63.4783 29.8155 63.2359 29.7339 63.1016 29.8367C62.9672 29.9395 63 30.2868 62.8657 30.3932C62.7313 30.4995 62.6134 30.6058 62.4856 30.7192C62.3578 30.8326 62.099 30.7617 61.9745 30.8787C61.85 30.9957 61.8238 31.226 61.7026 31.3465C61.5813 31.467 61.2897 31.382 61.1718 31.506C61.0538 31.6301 61.1325 31.9703 61.0178 32.0944C60.9031 32.2184 60.6771 32.2255 60.5657 32.3566C60.4543 32.4878 60.3724 32.6437 60.261 32.7748C60.1496 32.906 59.9235 32.9237 59.8154 33.0584C59.7073 33.1931 59.6712 33.3915 59.5664 33.5297C59.4615 33.668 59.3207 33.7708 59.2191 33.909C59.1175 34.0472 59.1273 34.2811 59.0258 34.4229C58.9242 34.5646 58.6981 34.6001 58.5999 34.7419C58.5016 34.8836 58.3869 35.0112 58.2886 35.1565C58.1903 35.3018 58.2591 35.5641 58.1641 35.713C58.0691 35.8618 57.8496 35.9114 57.7611 36.0603C57.6726 36.2091 57.8135 36.5175 57.7251 36.6663C57.6366 36.8152 57.3122 36.801 57.2271 36.9534C57.1419 37.1058 57.1157 37.2937 57.0305 37.4461C56.9453 37.5985 56.8077 37.7154 56.7258 37.8678C56.6439 38.0202 56.6996 38.2577 56.6209 38.4136C56.5423 38.5696 56.3719 38.6688 56.2933 38.8247C56.2147 38.9807 56.3424 39.25 56.2671 39.4095C56.1917 39.569 56.0607 39.6895 55.9886 39.849C55.9165 40.0085 55.6511 40.0617 55.5823 40.2211C55.5135 40.3806 55.4873 40.5649 55.4185 40.7244C55.3497 40.8839 55.2744 41.0434 55.2088 41.2029C55.1433 41.3624 55.1892 41.5786 55.1236 41.7416C55.0581 41.9046 54.9729 42.0535 54.9074 42.2201C54.8419 42.3866 54.6846 42.5036 54.6224 42.6666C54.5601 42.8297 54.6944 43.0778 54.6355 43.2443C54.5765 43.4109 54.3144 43.4889 54.2554 43.6519C54.1964 43.8149 54.3635 44.0737 54.3078 44.2402C54.2521 44.4068 54.1899 44.5698 54.1375 44.7364C54.085 44.903 53.9245 45.027 53.8721 45.1972C53.8196 45.3673 53.8098 45.5445 53.7574 45.7146C53.705 45.8847 53.5084 45.9982 53.4593 46.1683C53.4101 46.3384 53.5051 46.5546 53.4593 46.7247C53.4134 46.8948 53.3839 47.0685 53.338 47.2386C53.2922 47.4087 53.2168 47.5682 53.1742 47.7383C53.1316 47.9085 53.1447 48.0963 53.1021 48.2664C53.0595 48.4365 52.8564 48.5641 52.8171 48.7343C52.7778 48.9044 52.863 49.1099 52.8236 49.2836C52.7843 49.4573 52.7974 49.638 52.7581 49.8117C52.7188 49.9853 52.6795 50.1519 52.6434 50.3256C52.6074 50.4992 52.3879 50.6268 52.3551 50.8005C52.3224 50.9742 52.2634 51.1407 52.2306 51.3144C52.1979 51.4881 52.3486 51.7007 52.3191 51.8744C52.2896 52.0481 52.034 52.1792 52.0045 52.3528C51.9751 52.5265 52.0996 52.6966 52.0734 52.8738L52.0668 52.8916Z" stroke="#181818" stroke-width="4.11934" stroke-miterlimit="10"/>
<path d="M52.9192 54.2506C53.0516 54.4566 53.0063 54.4693 52.8913 54.7577C52.8425 54.8813 52.7484 55.0207 52.6787 55.1918C52.623 55.3249 52.4209 55.4263 52.3512 55.5879C52.2919 55.7274 52.2362 55.8763 52.1699 56.0348C52.1107 56.1742 51.933 56.282 51.8668 56.4341C51.8041 56.5767 51.7413 56.7224 51.6716 56.8714C51.6089 57.014 51.818 57.2643 51.7518 57.4133C51.6856 57.5559 51.4904 57.6541 51.4207 57.8031C51.351 57.952 51.25 58.0788 51.1803 58.2277C51.1106 58.3767 51.0165 58.5034 50.9468 58.6524C50.8771 58.8013 50.8632 58.9629 50.79 59.1087C50.7168 59.2545 50.6959 59.4161 50.6227 59.5619C50.5495 59.7076 50.3091 59.7773 50.2359 59.9231C50.1627 60.0689 50.2812 60.2907 50.208 60.4333C50.1349 60.5759 50.0582 60.7185 49.985 60.8643C49.9118 61.0101 49.748 61.1115 49.6714 61.2573C49.5947 61.403 49.4031 61.4886 49.3264 61.6312C49.2497 61.7738 49.4484 62.0368 49.3717 62.1794C49.295 62.322 49.1835 62.4488 49.1068 62.5882C49.0302 62.7277 48.7653 62.7847 48.6852 62.9241C48.605 63.0636 48.4447 63.165 48.3646 63.3044C48.2844 63.4439 48.2566 63.6086 48.1764 63.7481C48.0963 63.8875 48.1067 64.0745 48.0231 64.2139C47.9395 64.3534 47.7269 64.4262 47.6433 64.5657C47.5596 64.7051 47.7095 64.9618 47.6223 65.1012C47.5352 65.2407 47.3122 65.3041 47.2251 65.4435C47.138 65.5829 46.9602 65.6685 46.8731 65.8048C46.786 65.941 46.8766 66.1755 46.786 66.3118C46.6954 66.4481 46.5386 66.5463 46.448 66.6826C46.3574 66.8188 46.1901 66.9107 46.0995 67.0438C46.0089 67.1769 46.0821 67.4114 45.9845 67.5445C45.8869 67.6776 45.7545 67.7885 45.6569 67.9216C45.5594 68.0547 45.3154 68.0959 45.2179 68.2259C45.1203 68.3558 45.1447 68.5681 45.0436 68.698C44.9426 68.828 44.723 68.8787 44.6185 69.0086C44.5139 69.1385 44.392 69.2494 44.2874 69.3762C44.1829 69.503 44.2212 69.7311 44.1167 69.8579C44.0121 69.9846 43.9076 70.1177 43.7996 70.2382C43.6915 70.3586 43.6149 70.517 43.5034 70.6375C43.3919 70.7579 43.2072 70.8276 43.0922 70.948C42.9772 71.0684 42.7507 71.0938 42.6322 71.211C42.5137 71.3283 42.5276 71.5565 42.4057 71.6705C42.2837 71.7846 42.1652 71.905 42.0398 72.016C41.9143 72.1269 41.761 72.2124 41.6321 72.3202C41.5031 72.4279 41.3428 72.504 41.2104 72.6086C41.078 72.7131 40.8863 72.7543 40.7539 72.8526C40.6215 72.9508 40.503 73.0744 40.3671 73.1695C40.2312 73.2645 40.1824 73.4832 40.0395 73.5751C39.8966 73.667 39.6388 73.6068 39.4924 73.6892C39.3461 73.7716 39.238 73.9205 39.0882 73.9966C38.9383 74.0726 38.7606 74.117 38.6073 74.1867C38.454 74.2564 38.2728 74.2818 38.1125 74.342C37.9522 74.4022 37.8372 74.5765 37.6734 74.6272C37.5096 74.6779 37.2901 74.5638 37.1228 74.6019C36.9555 74.6399 36.7883 74.6621 36.6175 74.6906C36.4467 74.7191 36.3108 74.9821 36.1366 74.998C35.9624 75.0138 35.7777 74.9314 35.6034 74.9346C35.4292 74.9378 35.248 74.9885 35.0738 74.9758C34.8995 74.9631 34.7253 74.9061 34.5545 74.8807C34.3838 74.8554 34.206 74.83 34.0353 74.792C33.8645 74.754 33.7217 74.643 33.5544 74.5892C33.3871 74.5353 33.2233 74.4973 33.0596 74.4339C32.8958 74.3705 32.7703 74.2596 32.6135 74.1835C32.4567 74.1075 32.2337 74.1519 32.0803 74.0695C31.927 73.9871 31.9235 73.7145 31.7772 73.6226C31.6308 73.5307 31.4635 73.4895 31.3242 73.3881C31.1848 73.2867 30.9513 73.3057 30.8189 73.2012C30.6864 73.0966 30.5784 72.9698 30.4495 72.8589C30.3205 72.748 30.3171 72.5357 30.1916 72.4184C30.0662 72.3012 29.8327 72.2948 29.7142 72.1744C29.5957 72.054 29.4459 71.9589 29.3344 71.8385C29.2229 71.7181 29.2054 71.5216 29.1009 71.3948C28.9963 71.2681 28.9406 71.1096 28.843 70.9797C28.7454 70.8498 28.6897 70.6945 28.5991 70.5614C28.5085 70.4283 28.3551 70.3269 28.2715 70.1875C28.1879 70.048 28.0241 69.9434 27.9509 69.804C27.8777 69.6646 27.7314 69.541 27.6652 69.3952C27.599 69.2494 27.5049 69.1005 27.4491 68.9516C27.3934 68.8026 27.4665 68.6093 27.4177 68.4572C27.369 68.3051 27.4387 68.1276 27.4038 67.9723C27.369 67.8171 27.3899 67.6586 27.3655 67.5033C27.3411 67.348 27.017 67.2213 27.0031 67.0628C26.9891 66.9044 27.0275 66.7364 27.024 66.578C27.0205 66.4195 27.1285 66.2579 27.1355 66.0995C27.1425 65.941 27.0031 65.7699 27.024 65.6114C27.0449 65.453 27.1843 65.3072 27.2156 65.1488C27.247 64.9903 27.1843 64.816 27.2226 64.6607C27.2609 64.5055 27.2575 64.3343 27.3028 64.1791C27.3481 64.0238 27.6512 63.9446 27.707 63.7924C27.7627 63.6403 27.7 63.4534 27.7662 63.3044C27.8324 63.1555 28.0311 63.0667 28.1042 62.921C28.1774 62.7752 28.0973 62.5661 28.1774 62.4234C28.2576 62.2808 28.3656 62.1541 28.4562 62.0146C28.5468 61.8752 28.7629 61.8182 28.8604 61.6819C28.958 61.5456 28.9685 61.3682 29.0695 61.2382C29.1706 61.1083 29.3518 61.0354 29.4598 60.9087C29.5678 60.7819 29.5678 60.5854 29.6828 60.4618C29.7978 60.3383 29.8501 60.1735 29.9686 60.053C30.0871 59.9326 30.1951 59.8059 30.3171 59.6918C30.439 59.5777 30.7352 59.6252 30.8642 59.5143C30.9931 59.4034 31.0001 59.1847 31.129 59.077C31.2579 58.9693 31.4426 58.9217 31.5785 58.8203C31.7145 58.7189 31.8817 58.6619 32.0211 58.5636C32.1605 58.4654 32.2163 58.2752 32.3556 58.1802C32.495 58.0851 32.725 58.1073 32.8679 58.0154C33.0108 57.9235 33.0456 57.6922 33.1955 57.6034C33.3453 57.5147 33.5405 57.5052 33.6903 57.4196C33.8401 57.3341 34.0144 57.2992 34.1677 57.2168C34.321 57.1344 34.4256 56.9918 34.5789 56.9157C34.7322 56.8397 34.8682 56.7351 35.025 56.6622C35.1818 56.5893 35.3072 56.4626 35.464 56.3929C35.6209 56.3232 35.7637 56.2217 35.924 56.1552C36.0843 56.0886 36.3666 56.2788 36.5269 56.2122C36.6872 56.1457 36.7325 55.8383 36.8928 55.7781C37.0531 55.7179 37.2343 55.6957 37.3981 55.6355C37.5619 55.5753 37.764 55.6165 37.9278 55.5626C38.0915 55.5087 38.21 55.3376 38.3773 55.2869C38.5446 55.2362 38.6944 55.138 38.8617 55.0904C39.0289 55.0429 39.2485 55.157 39.4158 55.1094C39.583 55.0619 39.7294 54.9573 39.9001 54.913C40.0709 54.8686 40.2382 54.8306 40.4089 54.7925C40.5797 54.7545 40.7748 54.8211 40.9456 54.783C41.1163 54.745 41.2871 54.7196 41.4578 54.6848C41.6286 54.6499 41.7958 54.6087 41.9666 54.577C42.1373 54.5453 42.2733 54.333 42.444 54.3045C42.6148 54.276 42.8099 54.3552 42.9807 54.3299C43.1514 54.3045 43.3396 54.3647 43.5138 54.3425C43.6881 54.3204 43.8588 54.3108 44.0331 54.2918C44.2073 54.2728 44.3885 54.3362 44.5627 54.3204C44.737 54.3045 44.8868 54.0954 45.0611 54.0795C45.2353 54.0637 45.42 54.1777 45.5942 54.1651C45.7685 54.1524 45.9357 54.0478 46.11 54.0383C46.2842 54.0288 46.4619 54.1239 46.6396 54.1175C46.8174 54.1112 46.9846 54.0066 47.1589 54.0003C47.3331 53.9939 47.5108 54.0954 47.6851 54.0922C47.8593 54.089 48.0335 54.127 48.2078 54.127C48.382 54.127 48.5563 54.1112 48.7305 54.1144C48.9047 54.1175 49.079 54.108 49.2532 54.1144C49.4274 54.1207 49.5982 54.1651 49.7759 54.1714C49.9536 54.1777 50.1244 54.1714 50.2986 54.1809C50.4729 54.1904 50.6436 54.2031 50.8213 54.2126C50.9991 54.2221 51.1698 54.1999 51.3475 54.2126C51.5253 54.2253 51.6891 54.295 51.8633 54.3108C52.0375 54.3267 52.2257 54.2031 52.3999 54.2189C52.5742 54.2348 52.7624 54.2348 52.9366 54.2538L52.9192 54.2506Z" stroke="#181818" stroke-width="4.11934" stroke-miterlimit="10"/>
</g>
<defs>
<clipPath id="clip0_849_17212">
<rect width="114" height="114" fill="white" transform="translate(8 8)"/>
</clipPath>
</defs>
</svg>
