<svg width="200" height="200" viewBox="0 0 200 200" fill="none" xmlns="http://www.w3.org/2000/svg">
<path d="M137.786 184.398C133.071 183.237 128.447 182.685 124.424 179.823L141.933 158.272C142.02 158.446 143.091 158.648 143.409 158.753C144.427 159.093 145.543 159.442 146.594 159.662C149.378 160.245 152.15 160.212 154.889 161.062C157.35 161.826 157.096 162.902 157.722 165.092C157.896 165.703 158.096 165.892 158.096 166.589V168.577V173.323C158.096 175.731 157.966 177.939 157.423 180.293C156.976 182.227 155.935 183.698 155.017 185.403C154.191 186.938 152.979 188.326 152.217 189.85C151.822 190.638 151.461 191.324 150.795 191.923C150.308 192.361 149.611 192.491 149.149 192.917C148.377 193.63 146.08 193.363 145.124 193.252L145.098 193.249C142.731 192.974 142.854 191.31 142.297 189.518C141.972 188.476 141.636 184.851 140.309 184.825C139.463 184.809 138.602 184.599 137.786 184.398Z" fill="#FFCFE0" stroke="#FFCFE0" stroke-width="2.9572" stroke-linecap="round"/>
<path d="M78.008 158.131C78.008 152.922 76.6589 147.847 75.9429 142.709C74.8048 142.233 73.5886 140.377 72.3709 140.098C71.7216 139.948 71.1087 139.5 70.4943 139.239C69.8095 138.948 69.0643 138.851 68.3874 138.515C66.3229 137.49 64.0413 136.371 62.1652 134.983C59.8437 133.266 57.4741 131.791 55.3011 129.833C54.4086 129.028 53.4238 128.365 52.5193 127.579C51.4486 126.649 50.5283 125.562 49.5152 124.566C47.9048 122.983 46.8289 120.612 47.6798 118.208C48.1962 116.75 48.7236 115.606 49.6963 114.381C52.322 111.075 56.1603 111.581 59.8607 111.645L155.782 111.645C159.482 111.581 163.32 111.075 165.946 114.381C166.919 115.606 167.446 116.75 167.962 118.208C168.813 120.612 167.737 122.983 166.127 124.566C165.114 125.562 164.194 126.649 163.123 127.579C162.218 128.365 161.234 129.028 160.341 129.833C158.168 131.791 155.799 133.266 153.477 134.983C151.656 136.33 149.453 137.424 147.437 138.424L147.255 138.515C146.578 138.851 145.833 138.948 145.148 139.239C144.534 139.5 143.921 139.948 143.271 140.098C142.687 140.232 142.142 140.526 141.608 140.847C141.633 144.387 141.903 147.911 141.903 151.452C141.903 154.471 142.165 158.867 141.269 161.786C139.209 168.504 134.662 174.131 128.469 177.439C124.764 179.417 120.858 181.39 116.857 182.708C115.431 183.177 114.076 183.549 112.743 184.24C111.074 185.106 109.151 185.368 107.383 185.961C104.413 186.958 101.399 187.779 98.4346 188.78C97.3843 189.135 79.589 194.048 79.2749 193.42H75.4069C73.6283 193.42 73.0869 192.106 72.129 190.765C71.3159 189.627 70.4431 188.667 69.5722 187.586C68.7916 186.617 67.7256 185.942 66.9334 184.947C64.632 182.057 63.7518 178.472 61.6395 175.514C59.9903 173.206 58.9398 169.971 59.4351 167.098C59.6828 165.662 60.1681 164.092 61.1314 162.968C62.2614 161.65 65.0248 162.797 66.3598 163.099C68.7873 163.649 71.0717 164.334 73.4074 165.23C74.7568 165.747 74.8866 165.624 76.1526 165.181C77.4593 164.723 77.2112 164.456 78.5726 164.109C78.333 163.151 78.008 159.119 78.008 158.131Z" fill="#FFCFE0"/>
<path d="M78.5726 164.109C78.333 163.151 78.008 159.119 78.008 158.131C78.008 152.922 76.6589 147.847 75.9429 142.709C74.8048 142.233 73.5886 140.377 72.3709 140.098C71.7216 139.948 71.1087 139.5 70.4943 139.239C69.8095 138.948 69.0643 138.851 68.3874 138.515C66.3229 137.49 64.0413 136.371 62.1652 134.983C59.8437 133.266 57.4741 131.791 55.3011 129.833C54.4086 129.028 53.4238 128.365 52.5193 127.579C51.4486 126.649 50.5283 125.562 49.5152 124.566C47.9048 122.983 46.8289 120.612 47.6798 118.208C48.1962 116.75 48.7236 115.606 49.6963 114.381C52.322 111.075 56.1603 111.581 59.8607 111.645L155.782 111.645C159.482 111.581 163.32 111.075 165.946 114.381C166.919 115.606 167.446 116.75 167.962 118.208C168.813 120.612 167.737 122.983 166.127 124.566C165.114 125.562 164.194 126.649 163.123 127.579C162.218 128.365 161.234 129.028 160.341 129.833C158.168 131.791 155.799 133.266 153.477 134.983C151.601 136.371 149.319 137.49 147.255 138.515C146.578 138.851 145.833 138.948 145.148 139.239C144.534 139.5 143.921 139.948 143.271 140.098C142.687 140.232 142.142 140.526 141.608 140.847M78.5726 164.109C82.9472 162.994 88.4057 160.396 92.6981 159.051M78.5726 164.109C77.2112 164.456 77.4593 164.723 76.1526 165.181C74.8866 165.624 74.7568 165.747 73.4074 165.23C71.0717 164.334 68.7873 163.649 66.3598 163.099C65.0248 162.797 62.2614 161.65 61.1314 162.968C60.1681 164.092 59.6828 165.662 59.4351 167.098C58.9398 169.971 59.9903 173.206 61.6395 175.514C63.7518 178.472 64.632 182.057 66.9334 184.947C67.7256 185.942 68.7916 186.617 69.5722 187.586C70.4431 188.667 71.3159 189.627 72.129 190.765C73.0869 192.106 73.6282 193.42 75.4069 193.42H79.2749C79.589 194.048 97.3843 189.135 98.4346 188.78C101.399 187.779 104.413 186.958 107.383 185.961C109.151 185.368 111.074 185.106 112.743 184.24C114.076 183.549 115.431 183.177 116.857 182.708C120.858 181.39 124.764 179.417 128.469 177.439C134.662 174.131 139.209 168.504 141.269 161.786C142.165 158.867 141.903 154.471 141.903 151.452C141.903 147.911 141.633 144.387 141.608 140.847M141.608 140.847C141.03 141.195 140.464 141.576 139.872 141.823C139.521 141.97 138.444 142.395 138.3 142.709" stroke="#FFCFE0" stroke-width="2.9572" stroke-linecap="round"/>
<path d="M93.0019 159.066C90.3024 159.902 87.497 160.598 84.9037 161.739C83.7216 162.259 82.627 162.945 81.4308 163.436C80.6592 163.752 79.7026 164.05 78.8941 164.252C78.3464 164.389 77.8131 164.635 77.2697 164.796C75.8432 165.219 73.882 163.898 72.7004 163.332C71.6697 162.838 70.7058 162.218 69.7476 161.587C68.5976 160.83 67.6919 160.795 66.3547 160.795C64.6307 160.795 62.4831 160.651 61.0333 161.811C60.2058 162.473 59.4152 163.226 58.9287 164.172C58.4045 165.191 58.6777 166.482 58.5687 167.573C58.4863 168.396 58.4326 169.181 58.4326 170.013" stroke="#FFA3C3" stroke-width="2.9572" stroke-linecap="round"/>
<path d="M128.996 176.809C129.846 176.411 130.569 176.1 131.276 175.469C132.158 174.684 133.057 173.894 133.847 173.015C134.385 172.417 134.816 171.753 135.302 171.115C136.261 169.858 137.149 168.445 137.831 167.021C138.285 166.074 138.788 165.124 139.145 164.142C139.21 163.964 139.45 162.882 139.721 163.243" stroke="#FFA3C3" stroke-width="2.9572" stroke-linecap="round"/>
<path d="M66.1259 56.5342C67.2218 55.5795 68.6135 53.8505 70.1748 53.7881C69.7759 51.6795 68.2496 49.8881 67.5982 47.8428C67.3601 47.0954 67.1168 46.482 67.1168 45.7053C67.1168 44.2387 67.1426 42.7694 67.1168 41.303C67.0665 38.4367 66.862 35.5783 66.862 32.6965C66.862 30.0794 67.7451 27.7172 68.1928 25.1941C68.5619 23.1136 68.955 20.6647 69.8633 18.7392C70.7902 16.7745 71.2929 14.8249 72.7231 13.0771C74.6078 10.7739 77.3655 9.27948 79.9999 8.03771C82.4126 6.90047 85.8692 7.41488 88.466 7.41488C89.7804 7.41488 91.274 7.21018 92.5291 7.71214C94.6117 8.5451 96.6613 10.2432 98.4185 11.6049C105.983 17.4668 104.577 28.2805 104.577 36.7166C104.577 39.601 103.812 42.7693 103.812 45.5072C103.812 46.035 103.854 46.581 103.812 47.1067C103.799 47.2687 102.942 47.7701 103.444 47.9136C104.351 48.1726 105.643 47.9277 106.583 47.9277C107.523 47.9277 108.847 48.1726 109.754 47.9136C110.257 47.7701 109.399 47.2687 109.386 47.1067C109.344 46.581 109.386 46.035 109.386 45.5072C109.386 42.7693 108.622 39.601 108.622 36.7166C108.622 28.2805 107.215 17.4668 114.78 11.6049C116.537 10.2432 118.587 8.5451 120.669 7.71214C121.924 7.21018 123.418 7.41488 124.733 7.41488C127.329 7.41488 130.786 6.90047 133.199 8.03771C135.833 9.27948 138.591 10.7739 140.475 13.0771C141.906 14.8249 142.408 16.7745 143.335 18.7392C144.243 20.6647 144.637 23.1136 145.006 25.1941C145.453 27.7172 146.336 30.0794 146.336 32.6965C146.336 35.5783 146.132 38.4367 146.082 41.303C146.056 42.7694 146.082 44.2387 146.082 45.7053C146.082 46.482 145.838 47.0954 145.6 47.8428C144.949 49.8881 143.394 51.6795 142.995 53.7881C144.556 53.8505 145.948 55.5795 147.044 56.5342C147.873 57.2568 148.656 57.9804 149.521 58.6576C150.922 59.7536 152.077 61.153 153.443 62.253C155.835 64.1799 158.197 67.9051 158.936 70.8595C159.36 72.5561 160.354 74.0448 160.634 75.7573C160.922 77.5129 161.158 79.3055 161.47 81.0515C162.026 84.1679 162.362 87.0751 162.362 90.2808C162.362 91.5229 162.606 93.0263 162.107 94.1735C161.465 95.6497 161.165 97.5714 160.915 99.1767L160.889 99.3403C160.589 101.261 159.648 102.997 158.78 104.733C158.136 106.02 156.789 106.909 155.764 107.819C154.495 108.947 153.54 110.574 152.027 111.372C150.897 111.969 149.555 112.53 148.304 112.788C146.91 113.075 145.552 113.448 144.212 113.864C143.376 114.123 142.399 114.093 141.975 114.94C141.44 115.118 141.699 115.203 141.295 115.546C140.996 115.8 140.199 115.848 139.826 115.992C139.127 116.262 138.309 116.741 137.594 116.87C136.274 117.111 134.977 117.352 133.678 117.677C130.696 118.422 127.586 119.036 124.506 119.102C123.502 119.124 122.536 119.361 121.525 119.361H119.135H114.937H106.096C104.348 119.361 102.611 119.232 100.862 119.232C99.3095 119.232 97.8582 119.117 96.3266 118.987C94.1425 118.801 91.9117 118.969 89.7175 118.836C88.8027 118.78 87.9072 118.417 87.0032 118.274C86.0108 118.118 85 117.987 84.001 117.871C82.4989 117.696 81.0261 117.477 79.5373 117.216C78.6054 117.053 77.6872 116.778 76.7511 116.647C75.093 116.416 72.8429 115.203 71.1942 114.94C70.7706 114.093 69.7937 114.123 68.9573 113.864C67.6172 113.448 66.259 113.075 64.8659 112.788C63.6143 112.53 62.2724 111.969 61.1425 111.372C59.6297 110.574 58.6741 108.947 57.405 107.819C56.3804 106.909 55.0329 106.02 54.3895 104.733C53.5213 102.997 52.5802 101.261 52.2801 99.3403C52.0243 97.7034 51.7264 95.7002 51.0626 94.1735C50.5637 93.0263 50.8077 91.5229 50.8077 90.2808C50.8077 87.0751 51.1431 84.1679 51.6996 81.0515C52.0115 79.3055 52.2471 77.5129 52.5349 75.7573C52.8157 74.0448 53.8096 72.5561 54.2338 70.8595C54.9725 67.9051 57.3345 64.1799 59.7268 62.253C61.0925 61.153 62.2477 59.7536 63.6484 58.6576C64.5137 57.9804 65.2964 57.2568 66.1259 56.5342Z" fill="#FFCFE0" stroke="#FFCFE0" stroke-width="2.9572" stroke-linecap="round" stroke-linejoin="round"/>
<path d="M88.1016 79.9531C90.4707 80.5606 92.9889 81.2792 95.1544 82.4537C95.8769 82.8455 94.3195 83.6997 94.0146 83.8856C93.1744 84.3982 92.4455 85.1259 91.5069 85.4672C91.2281 85.5686 91.1953 85.9083 90.8942 86.0086C90.3089 86.2037 89.6766 86.3751 89.2557 86.8208C88.9482 87.1463 88.5415 87.2072 88.2298 87.5189" stroke="black" stroke-width="2.22234" stroke-linecap="round"/>
<path d="M125.304 79.9531C122.935 80.5606 120.416 81.2792 118.251 82.4537C117.528 82.8455 119.086 83.6997 119.391 83.8856C120.231 84.3982 120.96 85.1259 121.898 85.4672C122.177 85.5686 122.21 85.9083 122.511 86.0086C123.096 86.2037 123.729 86.3751 124.15 86.8208C124.457 87.1463 124.864 87.2072 125.175 87.5189" stroke="black" stroke-width="2.22234" stroke-linecap="round"/>
<path d="M102.589 94.2912C104.534 94.3812 105.949 96.4421 106.774 97.8697C107.2 97.3372 108.054 96.8002 108.49 96.2547C109.027 95.5826 110.103 95.2974 110.807 94.8305C111.677 94.2539 112.952 94.2233 113.961 94.3652C114.723 94.4725 115.11 94.7242 115.723 95.1477C116.224 95.4937 117.065 96.0018 117.374 96.5254C117.951 97.5005 117.879 99.1806 117.973 100.295C118.079 101.549 117.409 102.74 116.792 103.777C116.488 104.288 116.171 104.788 115.834 105.276C115.372 105.948 115.031 106.093 114.363 106.525C113.903 106.823 113.59 107.127 113.052 107.327C112.491 107.536 111.899 107.574 111.333 107.802C109.594 108.505 107.458 109.35 105.531 108.895C104.893 108.745 104.405 108.232 103.683 108.155C103.083 108.09 102.511 107.678 101.912 107.511C101.038 107.267 100.347 106.898 99.5255 106.506C97.6415 105.608 95.81 104.036 95.5659 101.849C95.3851 100.23 94.8941 98.3708 96.0519 96.9958C97.0262 95.8387 98.5922 94.5917 100.151 94.4177C100.96 94.3273 101.775 94.2535 102.589 94.2912Z" fill="#FF96BB" stroke="#FF96BB" stroke-width="2.9572" stroke-linecap="round"/>
<path d="M106.679 86.4932C106.196 86.4969 105.34 86.3925 105.109 86.9867C105.039 87.1683 105.098 87.3487 105.315 87.3568C105.915 87.379 106.421 87.2526 106.987 87.1717" stroke="#FFAA00" stroke-width="2.9572" stroke-linecap="round"/>
<path d="M117.754 37.6668C117.812 39.8522 117.91 43.5614 118.315 45.7186C120.637 45.8349 123.602 45.8373 125.879 46.3226C127.445 46.6561 128.836 47.1241 130.37 47.5422C131.179 47.7629 132.097 47.6874 132.826 48.1439C133.257 48.4132 133.74 48.713 134.194 48.935C136.18 49.9065 137.15 48.4952 137.837 46.8371C138.216 45.9231 138.037 44.5396 138.086 43.5557C138.147 42.3395 138.35 41.0335 138.188 39.8259C137.98 38.2701 138.256 36.6333 138.136 35.0655C137.98 33.03 137.53 31.0577 137.331 29.0193C137.16 27.253 136.053 24.86 134.865 23.5467C133.184 21.688 131.378 18.8926 128.87 18.0851C127.289 17.5759 125.41 18.0744 123.927 18.607C122.189 19.231 120.992 20.3394 119.939 21.7855C118.677 23.5173 118.079 24.8208 117.972 26.9609C117.912 28.1525 117.835 29.3446 117.802 30.5372C117.736 32.9133 117.692 35.2902 117.754 37.6668Z" fill="#FFA3C3" stroke="#FFA3C3" stroke-width="2.9572" stroke-linecap="round"/>
<path d="M94.9946 37.6668C94.9369 39.8522 94.8387 43.5614 94.4339 45.7186C92.1123 45.8349 89.147 45.8373 86.8697 46.3226C85.3043 46.6561 83.9131 47.1241 82.3795 47.5422C81.5699 47.7629 80.6522 47.6874 79.9228 48.1439C79.4923 48.4132 79.0085 48.713 78.5548 48.935C76.5686 49.9065 75.5994 48.4952 74.9118 46.8371C74.5329 45.9231 74.7123 44.5396 74.663 43.5557C74.6021 42.3395 74.399 41.0335 74.5606 39.8259C74.7689 38.2701 74.4933 36.6333 74.6131 35.0655C74.7686 33.03 75.2192 31.0577 75.4176 29.0193C75.5895 27.253 76.6957 24.86 77.8836 23.5467C79.565 21.688 81.3711 18.8926 83.8787 18.0851C85.46 17.5759 87.339 18.0744 88.8222 18.607C90.5599 19.231 91.7566 20.3394 92.8102 21.7855C94.0718 23.5173 94.6701 24.8208 94.7773 26.9609C94.837 28.1525 94.9139 29.3446 94.9471 30.5372C95.0133 32.9133 95.0573 35.2902 94.9946 37.6668Z" fill="#FFA3C3" stroke="#FFA3C3" stroke-width="2.9572" stroke-linecap="round"/>
<path d="M89.7012 118.617C91.0614 119.729 92.9388 119.91 94.6133 120.163C99.5204 120.905 104.511 121.4 109.477 121.4C113.763 121.4 117.776 121.41 121.958 120.49C124.404 119.952 126.909 118.989 129.38 118.653C130.453 118.507 131.407 118.375 132.273 117.798" stroke="#FF96BB" stroke-width="2.9572" stroke-linecap="round"/>
<path d="M173.119 60.6922C173.749 59.2601 173.627 56.2962 171.935 55.6244C171.43 55.4236 171.088 55.4943 170.708 55.9131C169.482 57.2658 169.143 58.7515 169.228 60.4973C169.267 61.294 169.343 62.1119 169.452 62.9013C169.515 63.3575 169.23 64.0708 169.82 64.0708C171.431 64.0708 173.015 64.0205 174.621 63.9336C175.582 63.8817 177.047 63.2841 177.537 62.3815C177.83 61.8429 178.275 60.6701 177.768 60.1436C177.097 59.445 175.358 60.2445 174.664 60.5912C174.091 60.8776 173.318 61.3138 172.989 61.8617" stroke="#FFA3C3" stroke-width="2.9572" stroke-linecap="round"/>
<path d="M171.565 57.957C171.166 58.9149 171.038 60.0506 170.855 61.065C170.611 62.4208 171.047 61.2555 171.198 60.8936C171.424 60.352 171.479 59.5582 171.553 58.9726C171.719 57.6444 171.508 61.6688 171.21 62.9738C171.116 63.3845 174.178 63.3874 174.697 63.298C175.234 63.2055 175.925 63.1121 176.19 62.5822" stroke="#FFA3C3" stroke-width="2.9572" stroke-linecap="round"/>
<path d="M47.4763 64.5317C46.6832 64.3676 45.0741 63.6544 44.434 64.4434C44.2337 64.6903 44 65.2914 44.1984 65.5916C44.522 66.0814 45.2706 66.3095 45.7883 66.5142C46.2006 66.6772 46.6434 66.9441 47.0838 67.0049C47.3839 67.0463 48.1954 67.315 48.3596 67.0049C48.6996 66.3627 49.2024 65.8608 49.5079 65.1843C49.8388 64.4516 49.8612 63.683 49.8612 62.8976C49.8612 62.1899 49.3505 62.3235 48.7718 62.3235C47.4455 62.3235 47.7413 64.2197 47.7413 65.15" stroke="#FFA3C3" stroke-width="2.9572" stroke-linecap="round"/>
<g clip-path="url(#clip0_1475_24869)">
<g clip-path="url(#clip1_1475_24869)">
<path d="M87.4941 156.479C87.339 153.677 87.2252 151.531 86.8732 148.81C86.5244 146.121 85.2787 143.068 83.9981 140.697C82.6938 138.284 81.0255 136.049 79.3057 133.927C78.7307 133.219 77.8548 132.396 77.2647 131.702C76.8681 131.236 76.7301 130.914 76.281 130.484C76.13 130.339 75.2704 128.577 75.3428 128.349C75.6324 127.45 76.7821 125.991 77.5701 125.601C78.2157 125.281 78.7723 124.595 79.1185 123.973C79.7321 122.87 79.1471 121.78 78.3077 121.008C76.6283 119.466 74.3865 118.655 72.6723 117.136C71.6431 116.222 70.567 115.447 69.1755 115.253C67.6331 115.037 66.0736 115.161 64.5524 114.759C62.9062 114.326 61.2855 113.667 59.5535 113.731C57.731 113.797 56.0427 114.291 54.2443 114.603C52.921 114.834 52.1467 115.523 52.148 116.78C52.1491 118.254 53.4203 120.297 53.7108 121.828L53.6864 121.822C53.2961 122.559 53.8473 123.281 53.017 123.247L52.742 123.292C49.7173 123.273 45.1063 124.836 42.7118 126.456C38.2974 129.441 34.8306 131.909 31.3076 136.053C23.1676 145.628 18.6163 155.041 27.3694 168.96C27.9342 169.857 28.494 170.772 29.2807 171.479C30.2746 172.372 31.5292 172.911 32.7766 173.388C37.9231 175.361 43.168 176.617 48.5635 177.646C54.7337 178.825 61.7635 182.392 68.1106 182.16C73.8094 181.951 85.5271 176.136 87.4294 163.362C87.6634 161.794 87.6937 160.629 87.6258 159.043C87.5893 158.197 87.5495 157.341 87.5002 156.477L87.4941 156.479Z" fill="#FF80AD"/>
<path d="M69.211 125.674C69.2774 125.572 69.3459 125.474 69.4143 125.376C69.4827 125.277 69.5539 125.18 69.6278 125.083C69.6538 125.049 69.6798 125.015 69.7065 124.978C69.781 124.878 69.5936 125.126 69.6757 125.019C69.7277 124.952 69.779 124.886 69.831 124.819C70.0526 124.539 70.2836 124.268 70.5317 124.01C70.6581 123.877 70.792 123.749 70.9306 123.625C70.9599 123.6 70.9866 123.575 71.0159 123.551C71.0603 123.513 71.2104 123.412 71.0132 123.55C71.0801 123.503 71.1449 123.453 71.2145 123.407C71.5344 123.196 71.6928 122.744 71.4698 122.404C71.2617 122.085 70.8081 121.923 70.467 122.149C69.8121 122.584 69.2756 123.18 68.79 123.792C68.4952 124.166 68.2038 124.549 67.9429 124.949C67.734 125.269 67.8801 125.776 68.2154 125.948C68.5866 126.138 68.9905 126.018 69.2137 125.675L69.211 125.674Z" fill="#FF71A4"/>
<path d="M59.4027 119.658C59.4379 119.714 59.4696 119.771 59.5013 119.828C59.5189 119.862 59.5337 119.894 59.5492 119.924C59.5937 120.011 59.5323 119.9 59.5249 119.872C59.5584 120.002 59.6184 120.13 59.6545 120.261C59.6907 120.392 59.7139 120.516 59.7385 120.647C59.7438 120.683 59.7518 120.72 59.7571 120.756C59.773 120.853 59.7518 120.732 59.7485 120.699C59.7557 120.773 59.769 120.846 59.7788 120.921C59.8551 121.52 59.9089 122.127 60.0921 122.703C60.2102 123.069 60.6145 123.334 60.9973 123.206C61.3801 123.077 61.6233 122.69 61.4998 122.3C61.4562 122.164 61.4187 122.027 61.3907 121.887C61.3761 121.82 61.3634 121.756 61.3515 121.689C61.3435 121.652 61.3382 121.616 61.3336 121.577C61.3164 121.463 61.3412 121.547 61.3368 121.61C61.3402 121.472 61.2973 121.322 61.2802 121.184C61.2631 121.047 61.2454 120.9 61.2263 120.759C61.1359 120.114 61.0122 119.474 60.6637 118.911C60.4631 118.585 59.9944 118.437 59.6608 118.656C59.3273 118.875 59.19 119.312 59.4055 119.659L59.4027 119.658Z" fill="#FF71A4"/>
<path d="M65.1349 119.795C64.8325 120.983 64.3731 122.152 64.2235 123.376C64.1982 123.578 64.1954 123.748 64.302 123.932C64.3932 124.085 64.5735 124.23 64.7522 124.267C65.0988 124.337 65.5935 124.145 65.6422 123.737C65.791 122.516 66.2512 121.344 66.5536 120.156C66.6484 119.783 66.4122 119.347 66.0249 119.266C65.6375 119.184 65.236 119.398 65.1349 119.795Z" fill="#FF71A4"/>
<path d="M51.751 122.53C54.2436 122.435 56.5654 122.965 59.2313 123.531C61.3672 123.984 63.6776 124.81 65.7815 125.4C66.8243 125.692 67.8554 126.018 68.8865 126.344C71.0214 127.017 73.3273 127.303 76.7806 129.187" fill="#FFE9F1"/>
<path d="M51.7815 124.159C52.225 124.145 52.6705 124.145 53.1166 124.166C53.3166 124.176 53.5165 124.187 53.7178 124.203C53.7973 124.209 53.8769 124.215 53.9585 124.224C54.0516 124.233 54.6003 124.271 54.123 124.237C54.9757 124.297 55.8346 124.493 56.6691 124.659C58.487 125.02 60.2789 125.439 62.0518 125.977C63.8492 126.521 65.6582 127.042 67.4522 127.6C68.7203 127.995 69.9996 128.335 71.2761 128.698C72.0295 128.91 72.7726 129.151 73.5033 129.429L73.6031 129.469C73.7715 129.535 73.7375 129.521 73.5039 129.427C73.6229 129.448 73.7579 129.532 73.8699 129.581C74.0892 129.674 74.3051 129.769 74.5196 129.87C75.011 130.1 75.4956 130.345 75.9706 130.604C76.7184 131.009 77.7866 130.792 78.192 129.994C78.5975 129.197 78.3841 128.204 77.5827 127.772C76.0261 126.93 74.3851 126.237 72.691 125.719C71.4771 125.349 70.2356 125.065 69.0245 124.685C67.181 124.106 65.3244 123.578 63.4781 123.01C61.6774 122.456 59.8728 121.997 58.0285 121.614C55.9558 121.185 53.8386 120.829 51.7134 120.902C50.8637 120.932 50.0606 121.677 50.1159 122.563C50.1712 123.448 50.8644 124.192 51.7754 124.161L51.7815 124.159Z" fill="#FFABC9"/>
<path d="M62.6283 125.102C60.9434 124.196 59.2655 123.216 57.4825 122.513C56.4307 122.098 55.3457 121.949 54.2231 121.88C53.6444 121.846 53.0315 121.855 52.4931 122.083C51.9548 122.311 51.4491 122.706 50.9977 123.104C50.2296 123.78 49.7661 124.623 49.4436 125.584C49.2314 126.213 49.1103 126.825 49.2625 127.489C49.4047 128.101 49.8645 128.58 50.354 128.942C51.3859 129.709 52.6528 129.768 53.8845 129.635C55.3184 129.482 56.7674 129.428 58.1946 129.221C59.6219 129.013 61.1157 128.67 62.5265 128.186C63.4141 127.882 63.0175 126.472 62.1211 126.777C61.0121 127.155 59.8769 127.454 58.7218 127.661C57.5666 127.868 56.4455 127.907 55.2976 128.006C54.2681 128.094 53.1574 128.388 52.1286 128.166C51.6543 128.063 51.2091 127.834 50.8794 127.469C50.5775 127.132 50.6174 126.713 50.7444 126.305C50.9886 125.516 51.2867 124.845 51.8639 124.294C52.1924 123.981 52.5836 123.638 53.0014 123.452C53.3899 123.278 53.8651 123.321 54.2806 123.349C54.5397 123.365 54.8008 123.385 55.0605 123.411C55.1421 123.42 55.2427 123.434 55.0945 123.414C55.1448 123.421 55.1924 123.427 55.2427 123.434C55.363 123.45 55.4826 123.469 55.6016 123.491C56.0576 123.575 56.5053 123.703 56.9413 123.866C56.9705 123.877 57.1755 123.958 57.0866 123.921C57.0024 123.888 57.1993 123.967 57.2407 123.986C57.3975 124.052 57.5557 124.124 57.7111 124.195C58.0682 124.362 58.4232 124.536 58.7734 124.718C59.826 125.255 60.8655 125.821 61.9038 126.38C62.7337 126.826 63.4596 125.554 62.6296 125.108L62.6283 125.102Z" fill="#FFE9F1"/>
<path d="M62.257 125.271C62.1559 125.532 62.0914 125.797 62.0148 126.064C62.0072 126.094 61.9927 126.128 61.9906 126.159C62.0131 125.98 62.0854 125.934 62.0291 126.053C61.9934 126.125 61.9577 126.197 61.9248 126.27C61.8252 126.491 61.7976 126.724 61.7714 126.963C61.7424 127.225 61.7523 127.459 61.7838 127.722C61.789 127.77 61.7942 127.818 61.8029 127.863C61.8268 127.997 61.8163 127.754 61.8286 127.728C61.7943 127.806 61.7735 127.899 61.7527 127.981C61.696 128.192 61.7226 128.497 61.8489 128.694C61.8969 128.767 61.8275 128.449 61.8358 128.575C61.839 128.631 61.8456 128.685 61.8514 128.741C61.8625 128.857 61.8763 128.973 61.9057 129.085C61.9385 129.206 61.9691 129.359 62.0381 129.463C62.1441 129.627 62.2913 129.719 62.4549 129.804C62.7793 129.973 63.2863 129.903 63.4532 129.531C63.5295 129.357 63.6173 129.194 63.701 129.024C63.7675 128.887 63.8104 128.742 63.8369 128.592C63.8676 128.415 63.7566 128.748 63.7916 128.679C63.8204 128.623 63.8445 128.562 63.874 128.503C63.9708 128.293 64.018 128.085 64.0665 127.86C64.095 127.726 64.1406 127.569 64.1324 127.431C64.126 127.331 64.1081 127.231 64.0935 127.129L63.9973 127.507C64.0981 127.327 64.2172 127.154 64.2419 126.943C64.2652 126.75 64.2009 126.536 64.1602 126.344L64.1667 126.727C64.2207 126.515 64.2766 126.318 64.2463 126.096C64.2259 125.938 64.2164 125.782 64.2076 125.623C64.1888 125.242 63.8646 124.879 63.4611 124.906C63.0577 124.934 62.7217 125.242 62.7444 125.653C62.75 125.756 62.7523 125.861 62.7614 125.962C62.7673 126.018 62.7765 126.073 62.7831 126.126C62.7884 126.162 62.7889 126.206 62.8003 126.241C62.8264 126.331 62.8524 125.99 62.82 126.084C62.7484 126.297 62.7154 126.529 62.7552 126.748C62.7745 126.854 62.7972 126.958 62.8198 127.062L62.8883 126.498C62.8355 126.591 62.778 126.681 62.7306 126.776C62.6216 126.989 62.622 127.191 62.6639 127.413C62.7005 127.599 62.7249 127.151 62.6805 127.348C62.6646 127.411 62.6534 127.477 62.6402 127.541C62.6201 127.643 62.5842 127.749 62.5729 127.851C62.5601 127.969 62.6766 127.625 62.6306 127.715C62.6183 127.741 62.6066 127.764 62.597 127.79C62.5702 127.85 62.5407 127.909 62.5146 127.966C62.4528 128.107 62.3935 128.271 62.3738 128.428C62.3583 128.546 62.4822 128.207 62.4315 128.292C62.4172 128.315 62.4048 128.341 62.3924 128.366C62.3629 128.426 62.3287 128.481 62.3019 128.54C62.26 128.625 62.2229 128.714 62.1838 128.8L63.1821 128.527L63.0315 128.448L63.3724 128.882C63.3509 128.807 63.3405 128.712 63.3034 128.642C63.2838 128.605 63.3329 128.901 63.3213 128.753C63.3181 128.698 63.3095 128.64 63.3063 128.585C63.2855 128.371 63.2278 128.2 63.1538 128.001L63.1603 128.385C63.21 128.224 63.2849 128.043 63.2768 127.871C63.2698 127.762 63.2485 127.652 63.2361 127.542C63.2236 127.431 63.2071 127.314 63.2124 127.203C63.2155 127.122 63.2301 127.042 63.2359 126.963C63.2501 126.827 63.1981 127.202 63.2203 127.103C63.2279 127.073 63.2301 127.042 63.237 127.015C63.2468 126.954 63.275 126.877 63.2732 126.816C63.2789 126.93 63.1647 127.06 63.2285 126.935C63.247 126.896 63.2663 126.854 63.2848 126.816C63.3637 126.653 63.4229 126.489 63.47 126.316C63.5356 126.08 63.5964 125.853 63.6831 125.626C63.8207 125.267 63.5119 124.809 63.1544 124.735C62.7283 124.647 62.4117 124.879 62.2645 125.265L62.257 125.271Z" fill="#FFE9F1"/>
<path d="M63.809 127.185C64.8834 126.944 65.9869 127.042 67.0764 127.093C67.6537 127.122 68.2345 127.136 68.8115 127.086C69.347 127.04 69.8645 126.928 70.4053 126.918C70.946 126.908 71.4295 126.942 71.9373 127.016C72.4097 127.081 72.9475 127.128 73.3902 127.31C73.8329 127.492 74.1994 127.826 74.4999 128.18C74.5581 128.247 74.6102 128.316 74.6609 128.389C74.6845 128.421 74.8231 128.616 74.7312 128.477C74.767 128.529 74.7754 128.633 74.7522 128.497C74.7675 128.584 74.7651 128.674 74.7688 128.761C74.8144 129.844 74.7313 130.955 74.4845 132.016C74.3813 132.456 74.2202 132.895 73.8781 133.205C73.566 133.488 73.1748 133.513 72.7732 133.431C71.1483 133.095 69.91 131.775 68.7806 130.585C67.3981 129.127 65.9868 127.543 64.0101 126.93C63.1087 126.651 62.7502 128.071 63.6489 128.349C65.3783 128.888 66.6867 130.512 67.9278 131.81C69.2942 133.24 70.8935 134.756 72.9707 134.929C74.2687 135.036 75.2683 134.155 75.7134 132.998C75.9411 132.41 76.0214 131.787 76.1016 131.165C76.1819 130.543 76.2747 129.86 76.2564 129.204C76.2453 128.781 76.2562 128.329 76.081 127.937C75.8715 127.464 75.4803 127.034 75.0913 126.698C74.6265 126.296 74.0879 125.956 73.4859 125.809C72.8839 125.661 72.2918 125.589 71.6921 125.523C71.0496 125.455 70.3948 125.424 69.7517 125.495C69.0514 125.575 68.379 125.67 67.6683 125.654C66.2346 125.625 64.8293 125.462 63.4111 125.781C63.0244 125.868 62.8041 126.325 62.9086 126.687C63.0239 127.087 63.4271 127.276 63.8138 127.19L63.809 127.185Z" fill="#FFE9F1"/>
<path d="M55.4671 147.897C55.6998 144.754 56.2324 141.637 57.0503 138.594C57.7313 136.054 58.5169 133.411 60.0181 131.219C60.7601 130.133 61.7265 129.236 62.9139 128.663C63.2704 128.491 63.3603 127.978 63.1692 127.66C62.9525 127.295 62.5229 127.232 62.1664 127.405C59.7787 128.555 58.2701 130.89 57.2782 133.263C56.0699 136.158 55.2694 139.258 54.7104 142.342C54.3766 144.188 54.142 146.054 54.0039 147.927C53.9756 148.322 54.3809 148.651 54.7503 148.644C55.1748 148.636 55.4388 148.292 55.4671 147.897Z" fill="#FFE9F1"/>
<path d="M63.1331 128.205C64.7121 131.745 64.7463 135.75 64.3604 139.54C63.9064 143.985 62.9588 148.391 62.1479 152.783C61.663 155.416 61.1754 158.048 60.6906 160.682C60.6174 161.071 60.817 161.469 61.2193 161.572C61.5834 161.664 62.0388 161.433 62.1092 161.043C62.9905 156.261 63.8962 151.485 64.7469 146.698C65.4825 142.556 66.2492 138.315 65.9697 134.092C65.8185 131.798 65.3283 129.563 64.3906 127.459C64.2283 127.097 63.6988 127.017 63.3878 127.204C63.0161 127.425 62.9701 127.845 63.1324 128.207L63.1331 128.205Z" fill="#FFE9F1"/>
</g>
</g>
<defs>
<clipPath id="clip0_1475_24869">
<rect width="80.5204" height="80.5204" fill="white" transform="translate(28.8584 97.6133) rotate(14.2776)"/>
</clipPath>
<clipPath id="clip1_1475_24869">
<rect width="65.6551" height="65.9648" fill="white" transform="translate(34.3057 106.35) rotate(14.2776)"/>
</clipPath>
</defs>
</svg>
