<svg width="200" height="200" viewBox="0 0 200 200" fill="none" xmlns="http://www.w3.org/2000/svg">
<path d="M146.957 55.3661C145.73 54.0988 144.14 53.4099 142.929 52.1744C142.929 51.0119 142.388 49.4779 142.346 48.3357L142.345 48.3019C142.292 46.869 142.246 45.6476 141.886 44.2474C141.548 42.9318 140.763 41.2343 140.763 39.8921C140.763 38.6915 139.778 37.4136 139.502 36.198C138.987 33.9308 138.242 31.7505 137.919 29.4256C137.546 26.739 136.4 24.202 135.955 21.4805C135.832 20.7344 133.004 11.9253 131.674 12.6851C131.341 12.8755 131.17 13.5639 130.736 13.8431C130.305 14.1201 129.88 14.6268 129.563 15.0305C128.944 15.8185 128.048 16.0149 127.438 16.7603C126.616 17.7649 125.661 18.2584 124.77 19.1497C123.935 19.9842 122.94 21.3717 122.014 22.0082C120.86 22.8015 119.871 23.4238 118.848 24.3829C118.279 24.916 117.388 25.2781 116.913 25.8635C116.379 26.5206 116.217 26.8665 115.447 27.3001C114.858 27.631 114.48 28.4135 113.995 28.8979C113.339 29.5543 112.663 30.1717 112.002 30.8329L111.868 30.9664C108.837 33.9981 104.271 38.5646 100.475 40.5683L94.8497 39.7265C93.0603 39.4587 91.4165 39.412 89.6199 39.6109C87.4895 39.8466 85.3899 39.4464 83.4221 40.4176C79.5728 38.386 75.9135 35.5326 72.8854 32.5046C72.2243 31.8434 71.5482 31.226 70.8918 30.5696C70.4075 30.0852 70.0289 29.3027 69.4406 28.9718C68.6698 28.5382 68.5086 28.1923 67.9747 27.5352C67.499 26.9498 66.6083 26.5877 66.0397 26.0546C65.0166 25.0955 64.0272 24.4731 62.8734 23.6799C61.9476 23.0434 60.952 21.6559 60.1175 20.8214C59.2262 19.9301 58.2715 19.4366 57.4496 18.432C56.8397 17.6866 55.9431 17.4902 55.324 16.7022C55.0068 16.2985 54.5821 15.7918 54.1513 15.5148C53.7169 15.2356 53.5463 14.5472 53.2131 14.3568C51.8834 13.597 49.0548 22.4061 48.9327 23.1522C48.4874 25.8737 47.3416 28.4107 46.9684 31.0973C46.6455 33.4222 45.9005 35.6025 45.3852 37.8697C45.109 39.0853 44.1246 40.3631 44.1246 41.5638C44.1246 42.906 43.3488 44.4113 43.0105 45.7269C42.6476 47.1381 42.5967 48.5126 42.5431 49.9601V49.9601C42.5008 51.1024 42.0137 51.7471 42.0137 52.9096V53.5089C41.1952 54.0802 40.3521 54.624 39.6337 55.3661C38.0787 56.9722 36.3238 58.2648 34.9821 60.1168C34.4354 60.8714 33.6419 61.5113 33.0293 62.2201C32.4507 62.8894 31.9635 63.4475 31.4019 64.1468C29.9643 65.937 29.1943 68.2373 28.2828 70.3243C27.4954 72.1271 27.0623 74.5638 27.0623 76.5458C27.0623 77.8077 26.574 78.8748 26.574 80.1199V82.885C26.574 88.356 28.9402 93.8248 31.7952 98.1962C33.3372 100.557 36.9088 101.507 39.2675 102.329C42.9298 103.606 46.6712 104.596 50.3607 105.8C53.5694 106.847 56.9814 107.432 60.2605 108.286C63.3763 109.097 66.9442 108.856 70.1468 109.08C71.3184 109.162 72.5125 109.095 73.6863 109.095C74.838 109.095 75.7669 109.567 76.8597 109.624C78.6837 109.721 80.5172 109.889 82.3385 109.889H88.3326H93.2953H98.2581H104.252C106.073 109.889 107.907 109.721 109.731 109.624C110.824 109.567 111.753 109.095 112.904 109.095C114.078 109.095 115.272 109.162 116.444 109.08C119.646 108.856 123.214 109.097 126.33 108.286C129.609 107.432 133.021 106.847 136.23 105.8C139.919 104.596 143.661 103.606 147.323 102.329C149.682 101.507 153.253 100.557 154.795 98.1962C157.65 93.8248 160.017 88.356 160.017 82.885V80.1199C160.017 78.8748 159.528 77.8077 159.528 76.5458C159.528 74.5638 159.095 72.1271 158.308 70.3243C157.396 68.2373 156.626 65.937 155.189 64.1468C154.627 63.4475 154.14 62.8894 153.561 62.2201C152.949 61.5113 152.155 60.8714 151.609 60.1168C150.267 58.2648 148.512 56.9722 146.957 55.3661Z" fill="black"/>
<path d="M43.6614 52.1744C43.1598 52.6864 42.5929 53.1045 42.0137 53.5089M42.0137 53.5089C41.1952 54.0802 40.3521 54.624 39.6337 55.3661C38.0787 56.9722 36.3238 58.2648 34.9821 60.1168C34.4354 60.8714 33.6419 61.5113 33.0293 62.2201C32.4507 62.8894 31.9635 63.4475 31.4019 64.1468C29.9643 65.937 29.1943 68.2373 28.2828 70.3243C27.4954 72.1271 27.0622 74.5638 27.0622 76.5458C27.0622 77.8077 26.574 78.8748 26.574 80.1199V82.885C26.574 88.356 28.9402 93.8248 31.7952 98.1962C33.3372 100.557 36.9088 101.507 39.2675 102.329C42.9298 103.606 46.6712 104.596 50.3607 105.8C53.5694 106.847 56.9814 107.432 60.2605 108.286C63.3763 109.097 66.9442 108.856 70.1468 109.08C71.3184 109.162 72.5125 109.095 73.6863 109.095C74.838 109.095 75.7669 109.567 76.8597 109.624C78.6837 109.721 80.5172 109.889 82.3385 109.889H88.3326H93.2953H98.2581C100.256 109.889 102.254 109.889 104.252 109.889C106.073 109.889 107.907 109.721 109.731 109.624C110.824 109.567 111.753 109.095 112.904 109.095C114.078 109.095 115.272 109.162 116.444 109.08C119.646 108.856 123.214 109.097 126.33 108.286C129.609 107.432 133.021 106.847 136.23 105.8C139.919 104.596 143.661 103.606 147.323 102.329C149.682 101.507 153.253 100.557 154.795 98.1962C157.65 93.8248 160.017 88.356 160.017 82.885C160.017 81.9633 160.017 81.0416 160.017 80.1199C160.017 78.8748 159.528 77.8077 159.528 76.5458C159.528 74.5638 159.095 72.1271 158.308 70.3243C157.396 68.2373 156.626 65.937 155.189 64.1468C154.627 63.4475 154.14 62.8894 153.561 62.2201C152.949 61.5113 152.155 60.8714 151.609 60.1168C150.267 58.2648 148.512 56.9722 146.957 55.3661C145.73 54.0988 144.14 53.4099 142.929 52.1744C142.929 51.0119 142.388 49.4779 142.346 48.3357C142.292 46.8881 142.249 45.6586 141.886 44.2474C141.548 42.9318 140.763 41.2343 140.763 39.8921C140.763 38.6915 139.778 37.4136 139.502 36.198C138.987 33.9308 138.242 31.7505 137.919 29.4256C137.546 26.739 136.4 24.202 135.955 21.4805C135.832 20.7344 133.004 11.9253 131.674 12.6851C131.341 12.8755 131.17 13.5639 130.736 13.8431C130.305 14.1201 129.88 14.6268 129.563 15.0305C128.944 15.8185 128.048 16.0149 127.438 16.7603C126.616 17.7649 125.661 18.2584 124.77 19.1497C123.935 19.9842 122.94 21.3717 122.014 22.0082C120.86 22.8015 119.871 23.4238 118.848 24.3829C118.279 24.916 117.388 25.2781 116.913 25.8635C116.379 26.5206 116.217 26.8665 115.447 27.3001C114.858 27.631 114.48 28.4135 113.995 28.8979C113.339 29.5543 112.663 30.1717 112.002 30.8329L111.868 30.9664C108.837 33.9981 104.271 38.5646 100.475 40.5683L94.8497 39.7265C93.0603 39.4587 91.4166 39.412 89.6199 39.6109C87.4895 39.8466 85.3899 39.4464 83.4221 40.4176C79.5728 38.386 75.9135 35.5326 72.8854 32.5046C72.2243 31.8434 71.5482 31.226 70.8918 30.5696C70.4075 30.0852 70.0289 29.3027 69.4406 28.9718C68.6698 28.5382 68.5086 28.1923 67.9747 27.5352C67.499 26.9498 66.6083 26.5877 66.0397 26.0546C65.0166 25.0955 64.0272 24.4731 62.8734 23.6799C61.9476 23.0434 60.952 21.6559 60.1175 20.8214C59.2262 19.9301 58.2715 19.4366 57.4496 18.432C56.8397 17.6866 55.9431 17.4902 55.324 16.7022C55.0068 16.2985 54.5821 15.7918 54.1513 15.5148C53.7169 15.2356 53.5463 14.5472 53.2131 14.3568C51.8834 13.597 49.0548 22.4061 48.9327 23.1522C48.4874 25.8737 47.3416 28.4107 46.9684 31.0973C46.6455 33.4222 45.9005 35.6025 45.3852 37.8697C45.109 39.0853 44.1246 40.3631 44.1246 41.5638C44.1246 42.906 43.3488 44.4113 43.0105 45.7269C42.6476 47.1381 42.5967 48.5126 42.5431 49.9601C42.5008 51.1024 42.0137 51.7471 42.0137 52.9096V53.5089Z" stroke="#020202" stroke-width="2.79384" stroke-linecap="round"/>
<path d="M96.5332 89.69C97.3468 89.215 98.1612 88.7603 98.9432 88.234C99.0569 88.1575 99.1753 88.0899 99.3006 88.0342C99.3863 87.9962 99.4357 87.9773 99.5345 87.9974C99.9571 88.0835 100.408 88.4044 100.759 88.6387C101.299 88.9987 101.883 89.3443 102.494 89.548" stroke="#FF4E57" stroke-width="2.57327" stroke-linecap="round"/>
<path d="M119.576 33.6698C118.218 34.9753 116.95 36.3898 116.059 38.0597C116.235 38.2362 117.678 38.3829 117.934 38.4115C118.257 38.4473 118.572 38.9388 118.872 39.0888C119.994 39.6497 120.979 40.5107 122.246 40.7823C123.247 40.9967 124.337 41.4469 125.346 41.4597C126.257 41.4712 127.75 41.7203 128.603 41.3164C129.521 40.8817 128.955 39.0905 128.955 38.3463C128.955 36.4365 128.543 34.6163 128.193 32.7254C127.988 31.6173 127.663 30.3166 127.027 29.3841C126.563 28.7035 126.403 28.6807 125.62 28.6807C124.44 28.6807 123.029 29.9914 122.389 30.9147C121.656 31.9747 120.496 32.7852 119.576 33.6698Z" fill="white"/>
<path d="M116.059 38.0597L114.826 37.4017C114.537 37.9443 114.636 38.6126 115.071 39.0475L116.059 38.0597ZM119.576 33.6698L118.608 32.6629L119.576 33.6698ZM122.389 30.9147L123.538 31.7098L122.389 30.9147ZM127.027 29.3841L125.873 30.171V30.171L127.027 29.3841ZM128.193 32.7254L126.819 32.9798V32.9798L128.193 32.7254ZM128.603 41.3164L128.005 40.0539L128.603 41.3164ZM125.346 41.4597L125.364 40.0628H125.364L125.346 41.4597ZM122.246 40.7823L122.539 39.4164H122.539L122.246 40.7823ZM118.872 39.0888L119.497 37.8394H119.497L118.872 39.0888ZM117.934 38.4115L118.089 37.0231H118.089L117.934 38.4115ZM117.291 38.7177C118.081 37.2374 119.228 35.9421 120.544 34.6768L118.608 32.6629C117.208 34.0084 115.819 35.5421 114.826 37.4017L117.291 38.7177ZM120.544 34.6768C120.991 34.2474 121.411 33.9131 121.985 33.3977C122.505 32.9311 123.077 32.3764 123.538 31.7098L121.241 30.1196C120.969 30.513 120.593 30.8936 120.119 31.3183C119.7 31.6944 119.081 32.2076 118.608 32.6629L120.544 34.6768ZM123.538 31.7098C123.776 31.3664 124.187 30.9147 124.65 30.5616C125.151 30.1785 125.494 30.0776 125.62 30.0776V27.2837C124.566 27.2837 123.613 27.8382 122.954 28.3413C122.256 28.8744 121.642 29.5397 121.241 30.1196L123.538 31.7098ZM125.62 30.0776C125.717 30.0776 125.79 30.078 125.852 30.0795C125.914 30.081 125.95 30.0833 125.971 30.0853C126.01 30.0891 125.949 30.0878 125.856 30.0445C125.81 30.0234 125.772 29.9993 125.743 29.9773C125.715 29.9565 125.703 29.9429 125.706 29.9466C125.71 29.951 125.726 29.9684 125.756 30.0073C125.786 30.0461 125.823 30.0986 125.873 30.171L128.181 28.5972C127.951 28.2596 127.61 27.7783 127.031 27.5098C126.499 27.2635 125.922 27.2837 125.62 27.2837V30.0776ZM125.873 30.171C126.33 30.8414 126.616 31.8844 126.819 32.9798L129.566 32.471C129.359 31.3501 128.996 29.7919 128.181 28.5972L125.873 30.171ZM126.819 32.9798C127.184 34.9482 127.558 36.6002 127.558 38.3463H130.352C130.352 36.2727 129.902 34.2843 129.566 32.471L126.819 32.9798ZM127.558 38.3463C127.558 38.6522 127.612 39.0184 127.645 39.255C127.685 39.5432 127.718 39.7875 127.728 40.0102C127.732 40.1173 127.731 40.2014 127.726 40.2654C127.72 40.3307 127.712 40.3561 127.713 40.353C127.721 40.3276 127.795 40.1533 128.005 40.0539L129.201 42.5788C129.87 42.2621 130.217 41.7009 130.377 41.1941C130.526 40.7238 130.535 40.2453 130.519 39.8846C130.502 39.5121 130.45 39.1419 130.413 38.8715C130.368 38.5492 130.352 38.4125 130.352 38.3463H127.558ZM128.005 40.0539C127.9 40.1036 127.607 40.1601 127.027 40.1472C126.766 40.1414 126.497 40.124 126.212 40.1051C125.943 40.0872 125.637 40.0663 125.364 40.0628L125.329 42.8565C125.511 42.8588 125.733 42.8733 126.027 42.8928C126.304 42.9112 126.633 42.933 126.965 42.9404C127.573 42.9539 128.453 42.9331 129.201 42.5788L128.005 40.0539ZM125.364 40.0628C125.042 40.0588 124.657 39.9825 124.156 39.8477C123.721 39.7305 123.082 39.5328 122.539 39.4164L121.953 42.1482C122.411 42.2462 122.818 42.3808 123.43 42.5455C123.976 42.6925 124.641 42.8478 125.329 42.8565L125.364 40.0628ZM122.539 39.4164C122.124 39.3275 121.714 39.1337 121.211 38.8389C120.775 38.5835 120.107 38.1445 119.497 37.8394L118.248 40.3383C118.759 40.594 119.144 40.866 119.798 41.2492C120.385 41.593 121.101 41.9655 121.953 42.1482L122.539 39.4164ZM119.497 37.8394C119.587 37.8844 119.62 37.9222 119.569 37.8773C119.508 37.8239 119.486 37.7994 119.365 37.6859C119.277 37.6038 119.131 37.4704 118.954 37.3516C118.782 37.2361 118.484 37.067 118.089 37.0231L117.78 39.7998C117.547 39.7739 117.409 39.6797 117.396 39.6711C117.379 39.6592 117.39 39.6647 117.459 39.7287C117.493 39.7605 117.52 39.7865 117.568 39.8319C117.61 39.8714 117.663 39.9214 117.72 39.9722C117.823 40.0627 118.008 40.2183 118.248 40.3383L119.497 37.8394ZM118.089 37.0231C117.947 37.0074 117.555 36.967 117.174 36.9096C116.981 36.8806 116.821 36.8516 116.713 36.8261C116.657 36.8128 116.646 36.8074 116.663 36.8137C116.671 36.817 116.708 36.8307 116.76 36.8583C116.802 36.8803 116.92 36.9456 117.046 37.072L115.071 39.0475C115.325 39.3021 115.623 39.4081 115.696 39.435C115.827 39.4832 115.959 39.5184 116.067 39.5441C116.288 39.5966 116.538 39.6392 116.759 39.6725C117.207 39.7398 117.665 39.787 117.78 39.7998L118.089 37.0231Z" fill="white"/>
<path d="M62.5922 33.6698C63.9499 34.9753 65.2176 36.3898 66.1094 38.0597C65.9329 38.2362 64.4902 38.3829 64.2336 38.4115C63.9106 38.4473 63.5958 38.9388 63.2957 39.0888C62.1739 39.6497 61.1892 40.5107 59.9218 40.7823C58.921 40.9967 57.8309 41.4469 56.8215 41.4597C55.9113 41.4712 54.4176 41.7203 53.5649 41.3164C52.6473 40.8817 53.2131 39.0905 53.2131 38.3463C53.2131 36.4365 53.625 34.6163 53.9752 32.7254C54.1804 31.6173 54.5053 30.3166 55.1411 29.3841C55.6051 28.7035 55.7649 28.6807 56.5479 28.6807C57.7283 28.6807 59.1393 29.9914 59.7785 30.9147C60.5124 31.9747 61.6722 32.7852 62.5922 33.6698Z" fill="white"/>
<path d="M66.1094 38.0597L67.3416 37.4017C67.6313 37.9443 67.5321 38.6126 67.0971 39.0475L66.1094 38.0597ZM62.5922 33.6698L63.5604 32.6629L62.5922 33.6698ZM59.7785 30.9147L58.63 31.7098L59.7785 30.9147ZM55.1411 29.3841L56.2952 30.171V30.171L55.1411 29.3841ZM53.9752 32.7254L55.3488 32.9798V32.9798L53.9752 32.7254ZM53.5649 41.3164L54.1629 40.0539L53.5649 41.3164ZM56.8215 41.4597L56.8038 40.0628H56.8038L56.8215 41.4597ZM59.9218 40.7823L59.6291 39.4164H59.6291L59.9218 40.7823ZM63.2957 39.0888L62.6709 37.8394H62.6709L63.2957 39.0888ZM64.2336 38.4115L64.0793 37.0231H64.0793L64.2336 38.4115ZM64.8771 38.7177C64.0867 37.2374 62.94 35.9421 61.624 34.6768L63.5604 32.6629C64.9598 34.0084 66.3486 35.5421 67.3416 37.4017L64.8771 38.7177ZM61.624 34.6768C61.1775 34.2474 60.7569 33.9131 60.1826 33.3977C59.6625 32.9311 59.0914 32.3764 58.63 31.7098L60.927 30.1196C61.1994 30.513 61.5752 30.8936 62.0485 31.3183C62.4676 31.6944 63.087 32.2076 63.5604 32.6629L61.624 34.6768ZM58.63 31.7098C58.3922 31.3664 57.9806 30.9147 57.5183 30.5616C57.0167 30.1785 56.6743 30.0776 56.5479 30.0776V27.2837C57.6019 27.2837 58.5553 27.8382 59.214 28.3413C59.9121 28.8744 60.5256 29.5397 60.927 30.1196L58.63 31.7098ZM56.5479 30.0776C56.4511 30.0776 56.3776 30.078 56.3157 30.0795C56.2541 30.081 56.218 30.0833 56.1973 30.0853C56.1584 30.0891 56.219 30.0878 56.3124 30.0445C56.3579 30.0234 56.3962 29.9993 56.4254 29.9773C56.4529 29.9565 56.4652 29.9429 56.4618 29.9466C56.4576 29.951 56.4418 29.9684 56.4121 30.0073C56.3824 30.0461 56.3446 30.0986 56.2952 30.171L53.9869 28.5972C54.217 28.2596 54.5583 27.7783 55.1373 27.5098C55.6686 27.2635 56.2464 27.2837 56.5479 27.2837V30.0776ZM56.2952 30.171C55.8382 30.8414 55.5516 31.8844 55.3488 32.9798L52.6016 32.471C52.8092 31.3501 53.1723 29.7919 53.9869 28.5972L56.2952 30.171ZM55.3488 32.9798C54.9842 34.9482 54.6101 36.6002 54.6101 38.3463H51.8162C51.8162 36.2727 52.2658 34.2843 52.6016 32.471L55.3488 32.9798ZM54.6101 38.3463C54.6101 38.6522 54.5555 39.0184 54.5228 39.255C54.4828 39.5432 54.4504 39.7875 54.4404 40.0102C54.4356 40.1173 54.437 40.2014 54.4424 40.2654C54.4478 40.3307 54.4559 40.3561 54.4549 40.353C54.4469 40.3276 54.3726 40.1533 54.1629 40.0539L52.9669 42.5788C52.2983 42.2621 51.9507 41.7009 51.7907 41.1941C51.6422 40.7238 51.6332 40.2453 51.6494 39.8846C51.6661 39.5121 51.7179 39.1419 51.7554 38.8715C51.8 38.5492 51.8162 38.4125 51.8162 38.3463H54.6101ZM54.1629 40.0539C54.2677 40.1036 54.5611 40.1601 55.1405 40.1472C55.402 40.1414 55.6709 40.124 55.9561 40.1051C56.2253 40.0872 56.5308 40.0663 56.8038 40.0628L56.8392 42.8565C56.6571 42.8588 56.4345 42.8733 56.141 42.8928C55.8635 42.9112 55.535 42.933 55.2027 42.9404C54.5945 42.9539 53.7148 42.9331 52.9669 42.5788L54.1629 40.0539ZM56.8038 40.0628C57.1256 40.0588 57.5107 39.9825 58.0119 39.8477C58.4472 39.7305 59.0855 39.5328 59.6291 39.4164L60.2145 42.1482C59.7573 42.2462 59.3502 42.3808 58.7379 42.5455C58.1915 42.6925 57.5268 42.8478 56.8392 42.8565L56.8038 40.0628ZM59.6291 39.4164C60.0438 39.3275 60.4538 39.1337 60.957 38.8389C61.3928 38.5835 62.0607 38.1445 62.6709 37.8394L63.9204 40.3383C63.4088 40.594 63.0235 40.866 62.3696 41.2492C61.7831 41.593 61.0672 41.9655 60.2145 42.1482L59.6291 39.4164ZM62.6709 37.8394C62.581 37.8844 62.5482 37.9222 62.5992 37.8773C62.6596 37.8239 62.6815 37.7994 62.8031 37.6859C62.8911 37.6038 63.0373 37.4704 63.2142 37.3516C63.3863 37.2361 63.6843 37.067 64.0793 37.0231L64.3878 39.7998C64.6213 39.7739 64.7589 39.6797 64.7717 39.6711C64.7893 39.6592 64.7776 39.6647 64.709 39.7287C64.6749 39.7605 64.648 39.7865 64.6001 39.8319C64.5584 39.8714 64.5052 39.9214 64.4476 39.9722C64.3451 40.0627 64.1604 40.2183 63.9204 40.3383L62.6709 37.8394ZM64.0793 37.0231C64.2206 37.0074 64.6125 36.967 64.9941 36.9096C65.1875 36.8806 65.3474 36.8516 65.4548 36.8261C65.5105 36.8128 65.5223 36.8074 65.5054 36.8137C65.4965 36.817 65.4597 36.8307 65.4077 36.8583C65.3662 36.8803 65.248 36.9456 65.1216 37.072L67.0971 39.0475C66.8426 39.3021 66.5448 39.4081 66.4719 39.435C66.3413 39.4832 66.2094 39.5184 66.1011 39.5441C65.8804 39.5966 65.6305 39.6392 65.4091 39.6725C64.961 39.7398 64.5032 39.787 64.3878 39.7998L64.0793 37.0231Z" fill="white"/>
<path d="M38.3443 184.134C48.0068 184.134 65.4994 183.111 75.1294 182.291C75.0637 184.57 75.2117 186.547 78.6449 186.547C82.6541 186.547 86.5293 186.886 90.5416 186.886C92.3854 187.55 93.7884 186.32 95.5986 186.32C99.2585 186.32 103.172 186.498 106.76 185.792C108.587 185.433 110.426 185.216 112.256 184.886C114.532 184.477 116.416 182.959 118.466 182.094C122.277 180.488 125.642 178.248 127.158 171.563C128.406 174.932 134.478 173.943 137.148 173.701C138.901 173.541 140.321 171.886 141.333 170.62C142.949 168.6 143.686 166.013 144.342 163.568C145.135 160.612 144.963 157.682 144.991 154.642C145.026 150.789 145.173 146.933 145.173 143.071V137.194C145.173 135.307 144.955 133.522 144.829 131.652C144.6 128.277 144.509 124.84 143.339 121.621C141.943 117.782 140.908 113.801 138.607 110.466C137.506 108.869 136.67 106.847 135.325 105.501L60.3362 109.688C61.3271 111.136 61.6383 113.695 61.7311 115.451C61.8141 117.021 62.1949 118.506 62.2135 120.083C62.2476 122.98 62.9812 126.211 62.3439 129.083C61.4566 133.08 60.2107 136.795 57.8722 140.248C56.9804 141.564 56.6357 143.323 55.5124 144.543C54.5588 145.578 54.1605 146.854 53.1788 147.9C52.1604 148.984 51.6366 150.252 50.3498 151.16C49.4218 151.815 46.1186 155.606 45.1837 156.253C44.2408 155.074 43.4084 154.559 42.0975 153.794C41.2213 153.283 39.3419 153.321 38.4751 153.873C37.4702 154.512 37.2485 154.845 36.5789 155.887C34.7197 158.779 35.0489 162.813 35.0489 166.113C35.0489 172.356 37.1108 178.065 38.3443 184.134Z" fill="black"/>
<path d="M130.456 151.346C132.731 151.4 135.759 151.637 137.82 150.443C139.229 149.627 140.63 148.78 141.98 147.866C143.99 146.506 145.807 144.779 147.411 142.969C149.554 140.551 151.514 138.259 152.694 135.201C154.239 131.195 153.313 126.69 154.241 122.581C154.759 120.287 154.788 118.269 156.302 116.313C157.715 114.489 160.161 112.907 162.516 112.907C164.608 112.907 165.432 115.255 165.829 116.976C166.23 118.714 166.243 120.378 166.243 122.149C166.243 122.571 166.201 123.017 166.243 123.437C166.258 123.579 167.009 122.328 167.109 122.149C167.801 120.903 168.629 119.728 169.52 118.614C170.718 117.117 172.451 115.103 174.528 114.895C175.321 114.816 176.068 114.702 176.884 114.73C177.635 114.756 178.122 115.608 178.67 116.018C179.615 116.727 179.95 117.711 180.621 118.669C181.299 119.638 181.733 120.606 181.9 121.78C182.059 122.894 181.983 124.045 181.983 125.168C181.983 126.615 181.484 127.667 180.897 128.932C179.97 130.933 178.795 133.434 177.169 134.925C176.368 135.659 175.445 136.124 174.537 136.692C173.006 137.648 170.393 138.472 168.656 139.097C167.882 139.376 163.913 139.612 163.325 140.2" stroke="black" stroke-width="8.45504" stroke-linecap="round"/>
<path d="M89.8039 163.076C88.6861 160.273 87.2347 155.888 84.454 154.727C83.5428 154.346 82.1668 154.653 81.2274 154.653C79.7851 154.653 77.6549 156.746 76.5645 157.756C75.4163 158.819 75.1447 160.69 74.8991 162.288C74.3066 166.143 74.4412 170.48 74.4412 174.405C74.4412 177.836 74.0869 182.419 74.8991 185.783" stroke="white" stroke-width="1.47044" stroke-linecap="round"/>
<path d="M47.4822 144.515C47.4822 133.03 51.5877 122.154 55.3046 111.355C59.0214 100.556 63.8864 101.049 63.8864 101.049L76.0176 110.791C70.6872 125.25 58.6664 154.537 53.2258 156.007C47.7851 157.478 47.0164 153.04 47.3121 150.637C47.3121 148.567 47.4822 146.567 47.4822 144.515Z" fill="black" stroke="black" stroke-width="2.79384" stroke-linecap="round"/>
<path d="M133.752 80.4303C134.69 80.206 135.655 80.1042 136.606 79.9524C138.603 79.6337 140.575 79.1876 142.554 78.7775C142.786 78.7293 145.031 78.5421 145.222 78.1602" stroke="white" stroke-width="2.79384" stroke-linecap="round"/>
<path d="M135.066 87.001C137.09 87.2784 139.061 87.6101 141.067 88.0033C141.9 88.1665 142.806 88.4347 143.669 88.4347" stroke="white" stroke-width="2.79384" stroke-linecap="round"/>
<path d="M54.2168 80.4303C53.2789 80.206 52.3137 80.1042 51.3625 79.9524C49.3662 79.6337 47.394 79.1876 45.4151 78.7775C45.1827 78.7293 42.9377 78.5421 42.7467 78.1602" stroke="white" stroke-width="2.79384" stroke-linecap="round"/>
<path d="M52.9023 87.001C50.8785 87.2784 48.9079 87.6101 46.9018 88.0033C46.0691 88.1665 45.1624 88.4347 44.2998 88.4347" stroke="white" stroke-width="2.79384" stroke-linecap="round"/>
<path d="M79.0472 75.7236C78.6678 76.3561 78.6912 77.5275 79.4084 77.8535C79.8653 78.0612 80.3158 78.1898 80.8159 78.1898C81.8587 78.1898 82.0418 77.6253 82.2732 76.7574C82.6053 75.5121 80.3519 75.3635 79.6077 75.6115" stroke="white" stroke-width="2.79384" stroke-linecap="round"/>
<path d="M106.51 75.6112C106.362 76.1128 105.966 76.8739 106.298 77.3923C106.753 78.1008 107.402 78.1513 108.179 78.0649C108.881 77.9869 109.313 77.4195 109.313 76.7695C109.313 75.8262 108.801 75.3608 107.806 75.2811C107.209 75.2334 107.045 75.0073 106.51 75.2749" stroke="white" stroke-width="2.79384" stroke-linecap="round"/>
<path d="M91.2715 82.0441C91.4429 82.0351 91.6023 81.9714 91.7668 81.9288C91.9847 81.8723 92.2097 81.8791 92.4271 81.8318C92.7095 81.7704 93.0311 81.7611 93.3207 81.7611C93.4038 81.7611 93.8141 81.7181 93.7819 81.8187C93.6944 82.092 93.4801 82.2564 93.3259 82.4791C93.1675 82.708 92.7901 83.129 92.5214 83.129C92.072 83.129 91.7784 82.5687 91.5545 82.2328" stroke="#FF4E57" stroke-width="2.79384" stroke-linecap="round"/>
<path d="M59.668 123.289C58.6239 127.584 57.9171 132.074 56.1886 136.16C54.142 140.998 52.2587 145.9 50.3339 150.79C49.6487 152.531 49.1156 154.464 48.6765 156.291" stroke="white" stroke-width="1.47044" stroke-linecap="round"/>
<path d="M116.36 118.813C117.85 124.406 119.839 130.008 120.433 135.795C121.137 142.647 122.064 149.468 122.936 156.302C123.247 158.735 123.847 161.292 124.486 163.669" stroke="white" stroke-width="1.47044" stroke-linecap="round"/>
<g clip-path="url(#clip0_1475_24801)">
<path d="M98.5137 151.45C97.5171 148.279 96.7596 145.849 95.5603 142.827C94.3743 139.842 92.052 136.701 89.8893 134.354C87.6867 131.964 85.1186 129.886 82.524 127.951C81.6569 127.306 80.411 126.618 79.5307 125.993C78.9393 125.574 78.6868 125.245 78.0456 124.883C77.8297 124.76 76.328 122.988 76.3447 122.706C76.4144 121.589 77.3081 119.577 78.0988 118.899C78.7466 118.344 79.1851 117.393 79.4011 116.579C79.7831 115.133 78.7931 114.052 77.6038 113.411C75.2251 112.131 72.4145 111.855 70.0026 110.612C68.5541 109.864 67.0923 109.289 65.4378 109.472C63.604 109.674 61.8499 110.273 59.9861 110.256C57.9695 110.24 55.9164 109.957 53.9463 110.535C51.8733 111.144 50.0793 112.204 48.1059 113.088C46.6541 113.74 45.9664 114.757 46.3351 116.2C46.767 117.892 48.8235 119.867 49.6042 121.539H49.5743C49.3417 122.499 50.1856 123.168 49.2221 123.37L48.9198 123.503C45.4415 124.364 40.6043 127.506 38.3286 130.065C34.1327 134.783 30.8736 138.629 28.0397 144.416C21.4917 157.786 19.0166 169.923 33.1327 183.346C34.043 184.211 34.9533 185.098 36.0629 185.68C37.4648 186.415 39.0628 186.667 40.6342 186.85C47.1192 187.611 53.5078 187.522 60.0027 187.126C67.4312 186.677 76.544 188.718 83.7631 186.598C90.2448 184.693 101.999 174.594 100.451 159.372C100.261 157.504 99.9556 156.157 99.4141 154.356C99.125 153.395 98.8294 152.424 98.5204 151.447L98.5137 151.45Z" fill="#96E700"/>
<path d="M68.5233 121.426C68.5698 121.29 68.6196 121.157 68.6695 121.024C68.7193 120.891 68.7724 120.758 68.8289 120.625C68.8489 120.578 68.8688 120.532 68.8887 120.482C68.9452 120.346 68.8023 120.685 68.8655 120.538C68.9053 120.445 68.9452 120.356 68.9851 120.263C69.1578 119.877 69.3439 119.498 69.5532 119.129C69.6595 118.939 69.7757 118.753 69.8987 118.571C69.9252 118.534 69.9485 118.497 69.9751 118.461C70.015 118.404 70.1578 118.245 69.9718 118.461C70.0349 118.388 70.0947 118.311 70.1611 118.238C70.4668 117.902 70.5166 117.337 70.1611 117.011C69.8289 116.706 69.2608 116.652 68.9352 117.011C68.3107 117.703 67.8688 118.544 67.4901 119.388C67.2608 119.904 67.0383 120.429 66.8555 120.964C66.7094 121.393 67.025 121.931 67.4602 122.031C67.9419 122.141 68.3705 121.885 68.5266 121.426H68.5233Z" fill="#92DD05"/>
<path d="M55.505 117.386C55.5615 117.439 55.6147 117.496 55.6678 117.552C55.6977 117.586 55.7243 117.619 55.7509 117.649C55.8273 117.735 55.7243 117.626 55.7077 117.596C55.7841 117.735 55.8904 117.865 55.9701 118.005C56.0499 118.144 56.113 118.281 56.1794 118.423C56.196 118.463 56.216 118.503 56.2326 118.543C56.2791 118.649 56.2193 118.517 56.206 118.48C56.2359 118.563 56.2725 118.643 56.3057 118.726C56.5681 119.391 56.8073 120.072 57.1861 120.681C57.4286 121.066 57.9701 121.252 58.3721 120.993C58.7741 120.734 58.9402 120.219 58.6844 119.806C58.5947 119.663 58.5116 119.517 58.4385 119.364C58.402 119.291 58.3688 119.221 58.3355 119.148C58.3156 119.108 58.299 119.068 58.2824 119.025C58.2292 118.899 58.2824 118.989 58.2957 119.062C58.2591 118.902 58.1661 118.743 58.1063 118.59C58.0465 118.437 57.9834 118.274 57.9203 118.118C57.6279 117.403 57.299 116.705 56.7342 116.16C56.4087 115.844 55.8273 115.811 55.5083 116.16C55.1894 116.509 55.1595 117.051 55.5083 117.386H55.505Z" fill="#92DD05"/>
<path d="M62.1257 115.867C62.1257 117.32 61.9396 118.796 62.1257 120.245C62.1556 120.485 62.2021 120.681 62.3781 120.86C62.5276 121.01 62.7768 121.123 62.9928 121.113C63.4113 121.093 63.923 120.727 63.8598 120.245C63.6738 118.799 63.8598 117.32 63.8598 115.867C63.8598 115.412 63.4612 114.98 62.9928 115C62.5243 115.02 62.1257 115.382 62.1257 115.867Z" fill="#92DD05"/>
<path d="M47.5586 122.92C50.3924 122.082 53.213 122.012 56.4389 121.882C59.0235 121.779 61.9172 122.052 64.5052 122.115C65.7875 122.145 67.0666 122.218 68.3456 122.291C70.9934 122.441 73.7243 122.095 78.2392 123.249" fill="#F1FFD7"/>
<path d="M48.0701 124.781C48.5751 124.634 49.0867 124.505 49.605 124.398C49.8375 124.352 50.0701 124.305 50.306 124.265C50.399 124.249 50.492 124.232 50.5884 124.219C50.698 124.202 51.3392 124.086 50.781 124.186C51.7777 124.006 52.8209 123.979 53.8275 123.926C56.0202 123.81 58.1995 123.767 60.3922 123.866C62.6148 123.966 64.844 124.036 67.0665 124.152C68.6379 124.235 70.206 124.252 71.7774 124.295C72.7043 124.319 73.6279 124.378 74.5481 124.485L74.6744 124.501C74.887 124.528 74.8438 124.521 74.5481 124.481C74.691 124.471 74.8704 124.528 75.0132 124.551C75.2923 124.594 75.568 124.641 75.8438 124.694C76.475 124.814 77.1029 124.953 77.7242 125.113C78.7009 125.359 79.8637 124.797 80.0962 123.763C80.3288 122.73 79.7939 121.652 78.7474 121.39C76.7142 120.878 74.6279 120.562 72.5315 120.462C71.0299 120.393 69.5216 120.429 68.02 120.346C65.7343 120.22 63.4486 120.157 61.1629 120.044C58.9337 119.934 56.7278 119.934 54.4986 120.034C51.9937 120.147 49.4588 120.356 47.0402 121.061C46.0735 121.343 45.3692 122.434 45.6914 123.434C46.0137 124.435 47.027 125.086 48.0635 124.784L48.0701 124.781Z" fill="#D2FB60"/>
<path d="M60.7994 122.693C58.6001 122.144 56.3875 121.509 54.135 121.223C52.8062 121.054 51.5171 121.2 50.2082 121.45C49.5338 121.579 48.8328 121.769 48.2813 122.187C47.7298 122.606 47.2647 123.208 46.8627 123.796C46.1784 124.797 45.8926 125.901 45.8029 127.097C45.7431 127.882 45.783 128.62 46.1518 129.338C46.494 129.999 47.1617 130.415 47.8295 130.688C49.2381 131.266 50.7098 130.963 52.0852 130.452C53.6865 129.857 55.3344 129.371 56.9124 128.716C58.4905 128.061 60.1051 127.23 61.5834 126.263C62.5137 125.655 61.6466 124.152 60.7064 124.764C59.5436 125.522 58.3277 126.197 57.0619 126.772C55.7961 127.347 54.5204 127.719 53.2314 128.168C52.0753 128.57 50.8859 129.232 49.6401 129.278C49.0654 129.298 48.4873 129.165 48.0022 128.843C47.5571 128.543 47.4807 128.051 47.5072 127.546C47.5571 126.569 47.7032 125.711 48.2049 124.91C48.4906 124.455 48.8394 123.946 49.2647 123.61C49.66 123.298 50.2182 123.208 50.7032 123.118C51.0055 123.062 51.3112 123.009 51.6168 122.962C51.7132 122.949 51.8328 122.935 51.6567 122.955C51.7165 122.949 51.773 122.942 51.8328 122.935C51.9756 122.919 52.1185 122.906 52.2613 122.896C52.8095 122.859 53.361 122.876 53.9091 122.935C53.9457 122.939 54.2048 122.972 54.0919 122.955C53.9855 122.942 54.2347 122.975 54.2879 122.985C54.4872 123.015 54.6899 123.052 54.8892 123.088C55.3476 123.175 55.8061 123.271 56.2613 123.378C57.6267 123.687 58.9855 124.032 60.3409 124.372C61.424 124.641 61.8858 122.969 60.8027 122.699L60.7994 122.693Z" fill="#F1FFD7"/>
<path d="M60.4224 122.996C60.3826 123.326 60.3859 123.648 60.3759 123.977C60.3759 124.014 60.3693 124.057 60.3759 124.093C60.3493 123.881 60.4191 123.808 60.3892 123.96C60.3693 124.054 60.3493 124.147 60.3327 124.24C60.2829 124.522 60.3195 124.798 60.3593 125.081C60.4025 125.39 60.4822 125.656 60.5952 125.948C60.6151 126.002 60.6351 126.055 60.6583 126.105C60.7248 126.251 60.6417 125.975 60.6483 125.942C60.6317 126.041 60.6351 126.154 60.6351 126.254C60.6317 126.513 60.7513 126.856 60.954 127.045C61.0304 127.115 60.8576 126.769 60.9042 126.912C60.9241 126.976 60.9473 127.035 60.9706 127.099C61.0171 127.228 61.0669 127.358 61.1334 127.478C61.2065 127.607 61.2862 127.773 61.3958 127.873C61.5653 128.029 61.7613 128.092 61.9739 128.142C62.3958 128.242 62.9573 128.013 63.0403 127.537C63.0769 127.315 63.13 127.102 63.1765 126.882C63.2131 126.706 63.2197 126.527 63.2064 126.347C63.1898 126.135 63.1599 126.55 63.1799 126.46C63.1965 126.387 63.2064 126.311 63.2231 126.234C63.2729 125.965 63.2662 125.712 63.2563 125.44C63.2496 125.277 63.2563 125.084 63.2064 124.928C63.1699 124.815 63.1201 124.705 63.0736 124.592V125.054C63.1367 124.818 63.2231 124.585 63.1898 124.336C63.1599 124.107 63.0237 123.881 62.9207 123.671L63.0403 124.11C63.0403 123.851 63.047 123.608 62.9473 123.362C62.8776 123.186 62.8211 123.01 62.7646 122.83C62.6317 122.398 62.1533 122.076 61.6982 122.225C61.243 122.375 60.9473 122.827 61.0935 123.292C61.1301 123.409 61.1633 123.528 61.2032 123.641C61.2264 123.704 61.253 123.764 61.2762 123.824C61.2929 123.864 61.3061 123.914 61.3294 123.95C61.3859 124.047 61.3161 123.648 61.3061 123.764C61.2862 124.03 61.3161 124.306 61.4257 124.546C61.4789 124.662 61.5354 124.775 61.5919 124.888L61.5055 124.22C61.4723 124.343 61.4324 124.462 61.4058 124.585C61.3427 124.861 61.4025 125.094 61.5154 125.337C61.6118 125.539 61.5088 125.018 61.5154 125.257C61.5154 125.333 61.5221 125.413 61.5254 125.49C61.5321 125.613 61.5221 125.746 61.5387 125.865C61.5586 126.005 61.5919 125.576 61.5653 125.692C61.5586 125.726 61.552 125.756 61.5487 125.789C61.5354 125.865 61.5188 125.942 61.5055 126.015C61.4756 126.194 61.4556 126.4 61.4789 126.587C61.4955 126.726 61.5387 126.301 61.5055 126.414C61.4955 126.444 61.4889 126.477 61.4822 126.51C61.4656 126.587 61.4424 126.66 61.4291 126.736C61.4058 126.846 61.3892 126.959 61.3693 127.069L62.4357 126.464L62.2397 126.417L62.758 126.816C62.7114 126.736 62.6716 126.63 62.6085 126.56C62.5752 126.523 62.7181 126.849 62.6616 126.683C62.6417 126.62 62.6151 126.557 62.5952 126.494C62.5088 126.254 62.3925 126.075 62.2497 125.869L62.3693 126.307C62.3792 126.108 62.4124 125.879 62.3526 125.682C62.3128 125.559 62.2563 125.44 62.2098 125.317C62.1633 125.194 62.1101 125.064 62.0835 124.934C62.0636 124.841 62.057 124.745 62.0404 124.652C62.0171 124.492 62.0669 124.938 62.0636 124.818C62.0636 124.782 62.057 124.745 62.057 124.712C62.0503 124.639 62.0603 124.542 62.0404 124.472C62.0802 124.602 61.9872 124.785 62.0237 124.622C62.0337 124.572 62.0437 124.519 62.0536 124.469C62.0968 124.26 62.1168 124.054 62.1201 123.841C62.1267 123.552 62.1301 123.272 62.1633 122.986C62.2164 122.534 61.7281 122.099 61.2962 122.119C60.7812 122.142 60.4856 122.501 60.4291 122.986L60.4224 122.996Z" fill="#F1FFD7"/>
<path d="M62.7635 124.739C63.9263 124.147 65.222 123.938 66.4877 123.679C67.1588 123.542 67.8299 123.39 68.4777 123.163C69.079 122.954 69.6405 122.675 70.2584 122.505C70.8764 122.336 71.4411 122.233 72.0458 122.17C72.6072 122.106 73.2384 122.003 73.7999 122.083C74.3614 122.163 74.8796 122.439 75.3281 122.758C75.4145 122.818 75.4942 122.881 75.574 122.951C75.6105 122.981 75.8264 123.163 75.6803 123.03C75.7368 123.08 75.7766 123.197 75.7102 123.047C75.7534 123.144 75.7766 123.247 75.8065 123.346C76.1753 124.576 76.4045 125.876 76.4311 127.166C76.4411 127.701 76.3846 128.253 76.0823 128.708C75.8065 129.124 75.3647 129.267 74.8796 129.29C72.9162 129.38 71.1089 128.226 69.4644 127.189C67.4512 125.919 65.3681 124.513 62.9197 124.387C61.8034 124.33 61.8067 126.066 62.9197 126.122C65.0625 126.235 67.0392 127.718 68.8432 128.845C70.8298 130.088 73.1089 131.361 75.5441 130.952C77.0656 130.696 77.956 129.393 78.1287 127.934C78.2184 127.192 78.1287 126.454 78.039 125.716C77.9493 124.978 77.8563 124.167 77.6437 123.419C77.5075 122.937 77.3879 122.415 77.0723 122.017C76.6935 121.535 76.1188 121.156 75.574 120.883C74.9228 120.557 74.2052 120.325 73.471 120.331C72.7368 120.338 72.0358 120.428 71.3282 120.527C70.5707 120.637 69.8099 120.793 69.0923 121.063C68.3116 121.358 67.5674 121.664 66.7469 121.854C65.0924 122.239 63.4313 122.462 61.8964 123.243C61.4778 123.456 61.3582 124.044 61.5841 124.43C61.8333 124.855 62.3516 124.955 62.7702 124.742L62.7635 124.739Z" fill="#F1FFD7"/>
<path d="M59.2375 150.955C58.5864 147.278 58.2874 143.545 58.3372 139.812C58.3771 136.697 58.5066 133.432 59.5897 130.477C60.1245 129.015 60.9717 127.701 62.1677 126.698C62.5265 126.395 62.48 125.78 62.1677 125.471C61.8122 125.115 61.3006 125.168 60.9418 125.471C58.5365 127.489 57.4867 130.61 57.0415 133.625C56.5 137.302 56.4867 141.095 56.7459 144.798C56.902 147.015 57.1777 149.226 57.5664 151.417C57.6495 151.879 58.2109 152.138 58.6329 152.022C59.1179 151.889 59.3206 151.417 59.2375 150.955Z" fill="#F1FFD7"/>
<path d="M62.2852 126.107C65.1323 129.71 66.3416 134.298 67.006 138.762C67.7834 143.998 67.9828 149.333 68.3349 154.612C68.5475 157.777 68.7568 160.942 68.9695 164.106C68.9994 164.575 69.3449 164.974 69.8366 164.974C70.2817 164.974 70.7369 164.575 70.7037 164.106C70.3183 158.359 69.9628 152.611 69.5409 146.867C69.1754 141.897 68.8166 136.804 67.2619 132.037C66.418 129.448 65.2021 127.024 63.5111 124.883C63.2187 124.515 62.5875 124.578 62.2852 124.883C61.9231 125.246 61.9928 125.741 62.2852 126.11V126.107Z" fill="#F1FFD7"/>
</g>
<path d="M84.4491 154.682C87.2274 155.572 89.4262 157.72 90.543 159.866L106.909 158.655L122.934 156.303C123.245 158.736 123.845 161.293 124.485 163.669C124.951 165.4 125.528 167.101 126.025 168.826C126.32 169.852 126.804 170.601 127.16 171.562C125.644 178.247 122.278 180.488 118.468 182.094C116.417 182.958 114.534 184.476 112.258 184.886C110.427 185.215 108.588 185.432 106.761 185.791C103.173 186.497 99.2599 186.319 95.6 186.319C93.7898 186.319 92.3868 187.549 90.543 186.886C86.5307 186.886 82.6555 186.546 78.6463 186.546C75.2131 186.546 75.0651 184.569 75.1308 182.291C75.1676 181.014 75.2715 179.643 74.9026 178.472C74.091 175.895 74.445 172.384 74.445 169.756C74.445 166.749 74.3106 163.427 74.9026 160.474C75.1479 159.25 75.4193 157.817 76.5665 157.003C77.6559 156.229 79.7843 154.626 81.2253 154.626C82.1639 154.626 83.5387 154.391 84.4491 154.682Z" fill="black"/>
<path d="M32.6256 121.989C33.8696 119.637 35.2838 117.238 37.4376 115.63C37.6224 114.706 39.7142 114.092 40.5702 113.781C42.2075 113.185 44.1871 113.395 45.8918 113.422C48.1812 113.458 50.5202 113.715 52.3834 115.149C53.4351 115.958 54.2857 117.251 55.063 118.31C55.9873 119.568 56.4372 121.087 56.4595 122.65C56.5027 125.673 56.8072 129.576 54.7988 132.132C52.6775 134.832 49.746 136.69 46.2692 136.69C44.2367 136.69 42.1268 136.852 40.1079 136.595C39.1831 136.478 38.6844 136.001 37.9283 135.501C36.882 134.809 35.7957 134.217 34.7957 133.453C32.6013 131.778 31.5692 130.423 31.7386 127.613C31.8459 125.834 31.7663 123.614 32.6256 121.989Z" fill="black" stroke="black" stroke-width="2.79384" stroke-linecap="round"/>
<defs>
<clipPath id="clip0_1475_24801">
<rect width="77.7795" height="78.1464" fill="white" transform="translate(22.8047 109.438)"/>
</clipPath>
</defs>
</svg>
