<svg width="440" height="396" viewBox="0 0 440 396" fill="none" xmlns="http://www.w3.org/2000/svg">
<g clip-path="url(#clip0_1539_11536)">
<path d="M58.8622 94.0149C60.99 93.1386 63.9539 91.2508 66.3272 91.9487C66.7978 88.5839 65.4169 85.1232 65.4766 81.7254C65.4985 80.4837 65.4446 79.4404 65.8383 78.2755C66.5818 76.0757 67.3653 73.8851 68.0701 71.6726C69.4477 67.3481 70.5901 62.9572 72.051 58.6349C73.3778 54.7096 75.8998 51.6143 77.8504 48.0571C79.4588 45.1238 81.2898 41.65 83.6283 39.2226C86.0145 36.7457 87.7567 34.0764 90.788 32.1799C94.7823 29.681 99.6762 28.8377 104.257 28.3107C108.452 27.8281 113.376 30.352 117.27 31.6685C119.242 32.3348 121.586 32.785 123.214 34.1741C125.915 36.4793 128.128 40.0653 130.074 42.9984C138.448 55.6253 130.857 71.1314 126.58 83.7844C125.118 88.1104 122.365 92.4749 120.977 96.5813C120.709 97.3729 120.495 98.2132 120.166 98.9804C120.064 99.2168 118.524 99.534 119.205 100.004C120.434 100.852 122.496 101.14 123.905 101.616C125.314 102.093 127.177 103.132 128.669 103.203C129.495 103.242 128.463 102.056 128.526 101.806C128.729 100.996 129.069 100.199 129.336 99.4069C130.724 95.3005 131.184 90.1609 132.646 85.8348C136.923 73.1819 140.296 56.2499 154.613 51.2929C157.939 50.1415 161.874 48.6335 165.42 48.44C167.557 48.3234 169.693 49.3876 171.665 50.054C175.56 51.3705 181.005 52.3513 184.047 55.2801C187.369 58.4781 190.747 62.1176 192.406 66.5274C193.666 69.874 193.431 73.053 193.825 76.4696C194.212 79.8181 193.56 83.6904 193.058 86.9979C192.451 91.0091 192.578 94.9997 191.251 98.925C189.79 103.247 188.034 107.431 186.506 111.704C185.724 113.891 185.018 116.107 184.274 118.307C183.88 119.472 183.204 120.269 182.468 121.269C180.454 124.006 177.214 125.905 175.546 128.865C177.856 129.75 179.067 133.049 180.227 135.037C181.105 136.541 181.912 138.023 182.866 139.477C184.412 141.831 185.435 144.516 186.925 146.858C189.537 150.961 191.191 157.745 190.801 162.551C190.577 165.311 191.313 168.048 190.866 170.758C190.408 173.538 189.852 176.346 189.435 179.122C188.69 184.079 187.719 188.609 186.094 193.417C185.464 195.28 185.068 197.659 183.738 199.127C182.027 201.015 180.603 203.745 179.414 206.026L179.293 206.259C177.869 208.987 175.577 211.114 173.395 213.278C171.777 214.882 169.306 215.531 167.308 216.378C164.832 217.426 162.574 219.382 159.901 219.812C157.904 220.134 155.606 220.296 153.598 220.048C151.364 219.772 149.137 219.643 146.917 219.587C145.53 219.552 144.081 219.011 143.016 220.067C142.123 220.063 142.468 220.321 141.688 220.631C141.112 220.861 139.891 220.529 139.259 220.556C138.074 220.607 136.604 220.909 135.467 220.742C133.364 220.432 131.298 220.137 129.184 219.966C124.334 219.572 119.358 218.916 114.704 217.453C113.188 216.977 111.619 216.844 110.102 216.331L106.517 215.119L100.222 212.992L86.9616 208.509C84.3396 207.623 81.8001 206.548 79.177 205.662C76.8479 204.874 74.7293 203.967 72.4981 202.995C69.3165 201.609 65.8856 200.73 62.662 199.418C61.3181 198.871 60.1592 197.872 58.8757 197.2C57.4666 196.462 56.0166 195.754 54.5772 195.073C52.4128 194.05 50.3153 192.973 48.2144 191.828C46.8993 191.111 45.6616 190.233 44.3238 189.562C41.9541 188.375 39.194 185.415 36.8549 184.184C36.6491 182.699 35.1682 182.249 34.0454 181.436C32.2462 180.133 30.3983 178.885 28.4542 177.748C26.7076 176.728 24.9797 175.205 23.5873 173.738C21.723 171.773 21.1144 168.849 19.7828 166.514C18.7077 164.629 17.1372 162.613 16.8244 160.357C16.4024 157.313 15.8712 154.231 16.3947 151.198C16.8409 148.614 17.4097 145.458 17.1879 142.832C17.0213 140.858 18.1495 138.727 18.7792 136.864C20.4043 132.056 22.3811 127.866 24.7958 123.474C26.1486 121.013 27.4108 118.444 28.7325 115.957C30.0218 113.53 32.2672 111.802 33.7635 109.472C36.3692 105.415 41.8003 101.025 46.3653 99.3482C48.9713 98.3907 51.4134 96.8774 54.0699 95.9435C55.7111 95.3666 57.2517 94.6781 58.8622 94.0149Z" fill="#FFCFE0" stroke="#FFCFE0" stroke-width="4.95305" stroke-linecap="round" stroke-linejoin="round"/>
<path opacity="0.2" d="M80.5413 143.817C80.7744 144.632 80.9662 145.46 81.1784 146.28C81.5868 146.709 82.1757 147.621 82.0309 148.177C81.9367 148.539 81.8017 148.869 81.6407 149.178C81.5956 149.265 81.6838 149.742 81.6974 149.863C81.7324 150.178 81.7519 150.437 81.7394 150.759C81.7221 151.206 81.9091 151.648 81.8335 152.1C81.761 152.533 82.0676 152.929 82.0565 153.362C82.0462 153.763 81.194 155.912 81.0755 156.276C80.8231 156.506 80.8066 156.683 80.8006 157.013C80.7883 157.688 80.4756 158.295 80.4299 158.955C80.392 159.503 80.1628 160.123 80.0114 160.646C79.6606 161.86 78.7897 162.83 78.1317 163.899C77.3891 165.107 76.3227 165.859 75.2454 166.74C74.9572 166.976 74.4594 167.078 74.1187 167.226C73.5938 167.453 73.0352 167.693 72.5366 167.972C71.9072 168.325 71.1977 168.642 70.5436 168.951C69.295 169.539 68.0856 170.101 66.7428 170.447L63.8831 171.185C63.1314 171.379 62.5064 171.32 61.7451 171.403C61.1459 171.469 60.4224 171.412 59.834 171.3C59.2405 171.187 58.6042 171.278 57.9928 171.155C57.1413 170.983 56.234 170.529 55.4606 170.116C55.3544 170.059 54.8454 169.756 54.8441 169.776C54.8438 169.78 54.4597 169.766 54.4176 169.748C53.6836 169.431 53.0229 168.949 52.2599 168.647C51.7275 168.436 50.9394 168.239 50.4774 167.908C50.1743 167.69 49.9153 167.4 49.615 167.172C48.8745 166.61 48.2692 165.872 47.4522 165.407C46.8571 165.068 46.3236 164.771 45.822 164.301C44.9719 163.505 44.3627 162.384 43.7782 161.375C43.4442 160.799 43.16 160.153 42.7716 159.616C42.5665 159.332 42.2373 159.003 42.0992 158.682C41.9216 158.269 42.0713 157.906 41.8323 157.495C41.2786 156.542 40.6725 156.045 40.3967 154.978C40.2503 154.412 40.472 152.646 40.2243 152.122C40.1298 151.922 39.9159 151.841 39.8212 151.629C39.7139 151.39 39.6623 151.13 39.555 150.889C39.3321 150.388 39.2304 149.834 39.0934 149.305C38.9429 148.723 38.9453 148.348 39.2304 147.835C39.4697 147.405 39.2556 147.421 39.3461 146.95C39.4845 146.23 39.5748 145.498 39.8988 144.823C40.1254 144.35 40.3438 143.983 40.6988 143.607C40.8862 143.409 41.0797 143.467 41.1407 143.183C41.2353 142.742 41.5305 142.167 41.7597 141.779C42.3026 140.859 43.0085 140.064 43.6121 139.19C44.0273 138.589 44.433 137.912 44.9038 137.366C46.1158 135.958 47.5389 134.755 49.0394 133.655C49.5667 133.268 50.0397 133.144 50.6693 132.982C51.7062 132.714 52.7398 132.424 53.7821 132.179C54.2517 132.068 54.736 132.139 55.2108 132.017L56.2341 131.753C56.7983 131.608 57.3673 131.375 57.9519 131.465C58.5934 131.563 59.2868 131.516 59.9368 131.521C60.2762 131.524 60.615 131.657 60.9495 131.461C61.0685 131.391 60.8301 131.096 60.9612 131.062C61.1321 131.018 61.2735 131.268 61.4644 131.23C61.916 131.14 62.3562 130.924 62.825 130.983C63.1256 131.02 63.6042 131.187 63.8693 131.333C64.1123 131.467 64.3333 131.416 64.583 131.516C64.9039 131.644 65.2126 131.811 65.5466 131.91C66.1972 132.102 66.7907 132.316 67.4663 132.424C67.9119 132.496 68.349 132.596 68.78 132.728C69.186 132.853 69.7938 132.86 70.156 133.073C70.7795 133.44 71.4722 133.677 72.1222 134.011C73.0115 134.469 73.9737 134.945 74.777 135.547C75.3484 135.974 75.8189 136.597 76.3605 137.071C76.5296 137.219 76.7273 137.322 76.8631 137.504C77.5001 138.359 78.6954 139.092 79.0662 140.114C79.5181 141.359 80.1744 142.536 80.5413 143.817Z" fill="#F4AEC9" stroke="#F4AEC9" stroke-width="2.11437" stroke-linecap="round"/>
<path opacity="0.2" d="M162.058 171.326C162.291 172.14 162.483 172.968 162.695 173.788C163.104 174.218 163.693 175.129 163.548 175.685C163.454 176.047 163.319 176.378 163.158 176.687C163.113 176.773 163.201 177.251 163.214 177.372C163.249 177.686 163.269 177.946 163.256 178.267C163.239 178.714 163.426 179.156 163.35 179.608C163.278 180.042 163.585 180.437 163.573 180.87C163.563 181.271 162.711 183.42 162.592 183.785C162.34 184.015 162.324 184.191 162.318 184.521C162.305 185.196 161.993 185.804 161.947 186.464C161.909 187.012 161.68 187.631 161.528 188.155C161.178 189.369 160.307 190.338 159.649 191.408C158.906 192.615 157.84 193.367 156.762 194.248C156.474 194.484 155.976 194.586 155.636 194.734C155.111 194.962 154.552 195.201 154.054 195.48C153.424 195.833 152.715 196.151 152.061 196.459C150.812 197.047 149.603 197.609 148.26 197.955L145.4 198.693C144.648 198.887 144.023 198.829 143.262 198.912C142.663 198.977 141.939 198.92 141.351 198.808C140.757 198.695 140.121 198.787 139.51 198.663C138.658 198.492 137.751 198.037 136.978 197.624C136.871 197.568 136.362 197.264 136.361 197.284C136.361 197.289 135.977 197.275 135.935 197.256C135.201 196.939 134.54 196.457 133.777 196.155C133.244 195.944 132.456 195.748 131.994 195.416C131.691 195.198 131.432 194.908 131.132 194.68C130.391 194.119 129.786 193.381 128.969 192.915C128.374 192.576 127.841 192.28 127.339 191.81C126.489 191.013 125.88 189.892 125.295 188.884C124.961 188.307 124.677 187.661 124.289 187.124C124.083 186.84 123.754 186.511 123.616 186.19C123.439 185.777 123.588 185.414 123.349 185.003C122.796 184.05 122.19 183.553 121.914 182.487C121.767 181.92 121.989 180.154 121.741 179.63C121.647 179.43 121.433 179.349 121.338 179.138C121.231 178.898 121.179 178.639 121.072 178.397C120.849 177.896 120.747 177.342 120.61 176.813C120.46 176.231 120.462 175.856 120.747 175.343C120.987 174.913 120.773 174.929 120.863 174.458C121.001 173.738 121.092 173.007 121.416 172.331C121.642 171.859 121.861 171.491 122.216 171.115C122.403 170.917 122.597 170.976 122.658 170.692C122.752 170.25 123.047 169.675 123.277 169.287C123.82 168.368 124.525 167.572 125.129 166.698C125.544 166.098 125.95 165.42 126.421 164.874C127.633 163.467 129.056 162.263 130.556 161.163C131.084 160.776 131.557 160.652 132.186 160.49C133.223 160.223 134.257 159.933 135.299 159.687C135.769 159.577 136.253 159.648 136.728 159.525L137.751 159.261C138.315 159.116 138.884 158.884 139.469 158.973C140.11 159.072 140.804 159.024 141.454 159.029C141.793 159.032 142.132 159.165 142.466 158.969C142.585 158.899 142.347 158.604 142.478 158.57C142.649 158.526 142.79 158.777 142.981 158.739C143.433 158.648 143.873 158.433 144.342 158.491C144.643 158.528 145.121 158.695 145.386 158.841C145.629 158.975 145.85 158.925 146.1 159.024C146.421 159.152 146.73 159.319 147.064 159.418C147.714 159.61 148.308 159.824 148.983 159.933C149.429 160.004 149.866 160.104 150.297 160.236C150.703 160.361 151.311 160.368 151.673 160.581C152.296 160.948 152.989 161.185 153.639 161.52C154.529 161.978 155.491 162.454 156.294 163.055C156.865 163.483 157.336 164.106 157.878 164.58C158.047 164.727 158.244 164.83 158.38 165.012C159.017 165.867 160.212 166.6 160.583 167.622C161.035 168.867 161.691 170.044 162.058 171.326Z" fill="#F4AEC9" stroke="#F4AEC9" stroke-width="2.11437" stroke-linecap="round"/>
<path d="M126.055 160.555C125.723 160.616 125.524 161.613 125.738 161.862C125.886 162.034 126.482 162.272 126.711 162.191C126.96 162.103 126.583 160.873 126.573 160.742C126.55 160.423 126.622 160.272 126.4 160.004C126.246 159.817 126.296 159.542 126.145 159.376C125.807 159.004 124.921 159.547 124.74 159.905C124.61 160.163 124.408 160.619 124.456 160.898C124.583 161.652 125.225 161.712 125.864 161.928C126.368 162.098 127.072 161.493 127.237 161.006C127.38 160.583 127.066 160.408 126.826 160.097" stroke="black" stroke-width="4.95305" stroke-linecap="round"/>
<path d="M87.5273 147.533C87.1952 147.594 86.9961 148.592 87.2108 148.841C87.3587 149.012 87.9543 149.251 88.1834 149.17C88.4328 149.081 88.0557 147.852 88.0459 147.72C88.0222 147.402 88.0942 147.251 87.873 146.983C87.7183 146.796 87.7683 146.52 87.6176 146.355C87.2793 145.982 86.3935 146.526 86.2126 146.884C86.0824 147.141 85.8809 147.598 85.9282 147.877C86.0559 148.63 86.6974 148.69 87.337 148.906C87.8406 149.077 88.5449 148.471 88.7095 147.984C88.8524 147.561 88.5384 147.387 88.2981 147.075" stroke="black" stroke-width="4.95305" stroke-linecap="round"/>
<path d="M104.492 159.505C103.766 159.266 102.536 158.676 101.888 159.45C101.69 159.687 101.687 159.987 102.009 160.109C102.898 160.447 103.721 160.514 104.611 160.68" stroke="#FFAA00" stroke-width="4.95305" stroke-linecap="round"/>
<path d="M145.86 91.8864C144.838 95.1932 143.105 100.806 142.619 104.247C146.042 105.598 150.488 107.105 153.658 108.987C155.836 110.281 157.686 111.688 159.774 113.093C160.876 113.834 162.291 114.186 163.154 115.241C163.663 115.863 164.236 116.558 164.804 117.121C167.291 119.585 169.46 117.959 171.332 115.821C172.363 114.642 172.796 112.476 173.368 111.026C174.076 109.233 175.043 107.377 175.413 105.484C175.889 103.044 177.132 100.729 177.747 98.3171C178.546 95.1855 178.87 91.9988 179.606 88.841C180.243 86.1047 179.797 81.9548 178.681 79.3829C177.102 75.7428 175.81 70.6346 172.459 68.1522C170.345 66.5869 167.274 66.382 164.78 66.4289C161.857 66.4838 159.5 67.5396 157.187 69.1745C154.417 71.1323 152.859 72.7839 151.613 75.9394C150.919 77.6963 150.2 79.4453 149.545 81.2172C148.242 84.7474 146.971 88.29 145.86 91.8864Z" fill="#FFA3C3" stroke="#FFA3C3" stroke-width="4.95305" stroke-linecap="round"/>
<path d="M111.726 80.3553C110.532 83.6037 108.504 89.1171 106.803 92.1474C103.262 91.1449 98.8137 89.6452 95.1522 89.2186C92.6353 88.9253 90.3114 88.9219 87.7993 88.7715C86.4732 88.6921 85.1351 88.1137 83.8097 88.4285C83.0274 88.6143 82.1499 88.8186 81.3568 88.9215C77.8854 89.3718 77.1472 86.7637 76.9566 83.9282C76.8515 82.3653 77.822 80.3813 78.2469 78.8806C78.772 77.0257 79.1295 74.9639 79.9841 73.2346C81.0852 71.0067 81.5016 68.4121 82.4761 66.1214C83.7412 63.1474 85.4169 60.4176 86.7478 57.4609C87.9011 54.8989 90.7733 51.8706 93.2208 50.5032C96.6848 48.5678 100.811 45.2907 104.981 45.3509C107.611 45.3888 110.176 47.089 112.131 48.6397C114.421 50.4565 115.654 52.7256 116.501 55.4287C117.515 58.6657 117.752 60.924 116.828 64.1882C116.313 66.0055 115.824 67.8325 115.269 69.638C114.164 73.2354 113.025 76.8226 111.726 80.3553Z" fill="#FFA3C3" stroke="#FFA3C3" stroke-width="4.95305" stroke-linecap="round"/>
<path d="M95.8978 174.611C97.0393 172.472 98.5426 170.484 99.8982 168.485C100.752 168.485 102.078 169.183 102.883 169.413C103.539 169.6 104.154 170.403 104.576 170.905C105.082 171.508 104.864 172.569 104.864 173.313C104.864 176.213 102.752 179.094 99.6725 179.094C98.574 179.094 96.5727 178.91 95.8476 177.903C95.4895 177.405 95.6094 176.678 95.6094 176.103C95.6094 175.527 95.6095 175.151 95.8978 174.611Z" fill="#FFA3C3"/>
<path d="M99.8982 168.485V166.863C99.3604 166.863 98.8576 167.13 98.5558 167.575L99.8982 168.485ZM95.8978 174.611L97.3286 175.375L97.3286 175.375L95.8978 174.611ZM95.8476 177.903L97.1638 176.955L97.1638 176.955L95.8476 177.903ZM104.576 170.905L103.334 171.948L103.334 171.948L104.576 170.905ZM102.883 169.413L102.437 170.972L102.883 169.413ZM98.5558 167.575C97.2646 169.479 95.6623 171.608 94.467 173.847L97.3286 175.375C98.4163 173.337 99.8205 171.489 101.241 169.395L98.5558 167.575ZM94.467 173.847C93.9746 174.77 93.9875 175.503 93.9875 176.103H97.2312C97.2312 175.787 97.2348 175.679 97.2483 175.591C97.2553 175.546 97.2667 175.49 97.3286 175.375L94.467 173.847ZM93.9875 176.103C93.9875 176.208 93.9821 176.311 93.9754 176.498C93.9695 176.663 93.9634 176.879 93.9741 177.108C93.9946 177.546 94.0819 178.226 94.5314 178.85L97.1638 176.955C97.2552 177.082 97.2234 177.15 97.2143 176.956C97.2102 176.869 97.2117 176.764 97.217 176.615C97.2216 176.489 97.2312 176.285 97.2312 176.103H93.9875ZM94.5314 178.85C95.2498 179.848 96.4259 180.261 97.2473 180.455C98.1413 180.666 99.0522 180.716 99.6725 180.716V177.472C99.1942 177.472 98.5553 177.43 97.9927 177.298C97.7139 177.232 97.4966 177.153 97.3427 177.074C97.1864 176.993 97.1535 176.941 97.1638 176.955L94.5314 178.85ZM99.6725 180.716C103.896 180.716 106.486 176.839 106.486 173.313H103.242C103.242 175.588 101.608 177.472 99.6725 177.472V180.716ZM106.486 173.313C106.486 173.187 106.495 173.041 106.509 172.803C106.522 172.589 106.537 172.311 106.531 172.023C106.521 171.498 106.441 170.605 105.818 169.862L103.334 171.948C103.217 171.809 103.281 171.747 103.288 172.089C103.291 172.235 103.284 172.399 103.271 172.612C103.26 172.801 103.242 173.067 103.242 173.313H106.486ZM105.818 169.862C105.646 169.657 105.317 169.245 104.961 168.891C104.624 168.556 104.065 168.064 103.328 167.853L102.437 170.972C102.378 170.955 102.376 170.942 102.435 170.984C102.492 171.023 102.571 171.089 102.673 171.191C102.895 171.411 103.084 171.651 103.334 171.948L105.818 169.862ZM103.328 167.853C103.009 167.762 102.651 167.598 101.982 167.345C101.466 167.151 100.66 166.863 99.8982 166.863V170.107C99.8975 170.107 99.9219 170.107 99.9771 170.116C100.031 170.125 100.102 170.14 100.191 170.164C100.373 170.213 100.587 170.286 100.837 170.38C101.245 170.534 101.952 170.834 102.437 170.972L103.328 167.853Z" fill="#FFA3C3"/>
<path d="M147.238 231.784C141.879 230.728 136.506 230.379 131.04 230.165L117.27 239.005L154.446 268.13L158.956 263.354C161.873 261.895 164.26 259.194 167.159 257.529C170.538 255.589 173.244 252.372 176.189 249.844C178.75 247.645 181.53 244.75 182.961 241.693C183.322 240.922 183.313 239.632 182.685 239.005C181.423 237.743 177.732 237.313 176.016 236.851C174.44 236.426 172.674 236.363 171.053 236.127C169.082 235.84 167.264 235.43 165.315 234.99C163.918 234.674 162.413 234.671 160.99 234.438C159.124 234.133 157.279 233.577 155.424 233.318C152.63 232.928 150.015 232.332 147.238 231.784Z" fill="black" stroke="black" stroke-width="3.15036" stroke-linecap="round"/>
<path d="M166.533 285.156C165.986 282.622 164.583 280.504 163.942 278.061C163.193 276.48 161.694 274.781 160.926 273.187C159.831 270.912 158.785 268.678 157.572 266.461C156.417 264.349 154.932 262.211 153.498 260.281C149.819 255.328 146.147 250.211 141.548 246.043C139.024 243.756 137.063 240.857 134.466 238.642C133.327 237.671 132.44 236.447 131.194 235.616C130.597 235.219 130.118 234.705 129.535 234.304C125.841 231.764 121.323 229.766 117.428 227.577L110.708 221.859C108.571 220.04 106.444 218.632 103.914 217.421C100.914 215.986 98.4766 213.739 95.0887 213.406C91.6827 207.576 89.2004 200.819 87.6927 194.349C87.3635 192.936 86.9789 191.569 86.652 190.166C86.4109 189.131 86.5534 187.79 86.0496 186.872C85.3895 185.67 85.4606 185.082 85.2957 183.779C85.1488 182.618 84.2721 181.411 83.9599 180.243C83.3981 178.141 82.6047 176.511 81.7348 174.52C81.0368 172.924 80.8622 170.28 80.4467 168.497C80.003 166.593 79.1497 165.16 78.8902 163.163C78.6975 161.682 77.5075 159.143 77.5075 159.143C77.5075 159.143 76.3206 157.021 75.469 156.721C67.6165 153.952 64.5756 161.52 63.8035 162.403C60.9869 165.623 57.3988 168.026 54.7059 171.259C52.3756 174.057 49.6078 176.319 47.0713 178.883C45.7114 180.258 43.3676 181.135 42.3838 182.716C41.284 184.484 39.0287 185.832 37.5051 187.287C35.8708 188.849 34.6775 190.618 33.4209 192.481C32.4292 193.951 31.2592 194.401 30.3067 195.932L29.8157 196.722C28.2694 196.804 26.7132 196.829 25.1588 197.218C21.7945 198.06 18.4237 198.324 15.1388 199.665C13.8004 200.211 12.2308 200.403 10.843 200.835C9.53246 201.243 8.43336 201.579 7.12055 202.04C3.75995 203.22 0.860837 205.619 -2.04982 207.621C-4.56426 209.351 -7.13141 212.206 -8.75539 214.817C-9.78932 216.479 -11.3068 217.485 -12.327 219.125L-14.5927 222.767C-19.0755 229.974 -20.4396 239.117 -20.2606 247.214C-20.164 251.588 -16.2374 255.765 -13.804 258.781C-10.0259 263.464 -5.90893 267.834 -2.03532 272.443C1.3334 276.452 5.34855 280.018 8.96873 283.829C12.4085 287.451 17.3058 290.057 21.3409 292.976C22.8171 294.044 24.4452 294.934 25.9913 295.896C27.5085 296.839 28.3456 298.222 29.7377 299.193C32.0613 300.815 34.3387 302.539 36.7378 304.031L44.6338 308.943L51.1711 313.009L57.7084 317.075L65.6043 321.987C68.0034 323.479 70.5565 324.76 73.0383 326.127C74.5252 326.947 76.1352 327.086 77.6524 328.03C79.1986 328.992 80.7164 330.059 82.3269 330.911C86.7293 333.24 91.2318 336.48 96.0006 337.965C101.02 339.528 105.994 341.553 111.078 342.802C116.925 344.24 122.665 346 128.535 347.319C132.316 348.169 137.799 349.845 141.765 347.998C149.107 344.579 156.705 339.314 161.188 332.107L163.454 328.464C164.474 326.824 164.705 325.019 165.739 323.356C167.363 320.746 168.789 317.181 169.229 314.161C169.738 310.665 170.609 307.004 170.182 303.468C170.015 302.086 169.831 300.952 169.617 299.596C169.391 298.16 168.87 296.667 168.768 295.225C168.518 291.686 167.266 288.546 166.533 285.156Z" fill="black"/>
<path d="M163.843 277.651C164.425 280.271 165.956 282.481 166.533 285.156C167.266 288.546 168.518 291.686 168.768 295.225C168.87 296.667 169.391 298.16 169.617 299.596C169.831 300.952 170.015 302.086 170.182 303.468C170.609 307.004 169.738 310.665 169.229 314.161C168.789 317.181 167.363 320.746 165.739 323.356C164.705 325.019 164.474 326.824 163.454 328.464C162.698 329.679 161.943 330.893 161.188 332.107C156.705 339.314 149.107 344.579 141.765 347.998C137.799 349.845 132.316 348.169 128.535 347.319C122.665 346 116.925 344.24 111.078 342.802C105.994 341.553 101.02 339.528 96.0006 337.965C91.2318 336.48 86.7293 333.24 82.3269 330.911C80.7164 330.059 79.1985 328.992 77.6524 328.03C76.1352 327.086 74.5252 326.947 73.0383 326.127C70.5565 324.76 68.0034 323.479 65.6043 321.987C62.9723 320.35 60.3404 318.713 57.7084 317.075L51.1711 313.009L44.6338 308.943L36.7379 304.031C34.3387 302.539 32.0613 300.815 29.7377 299.193C28.3455 298.222 27.5085 296.839 25.9913 295.896C24.4452 294.934 22.8171 294.044 21.3409 292.976C17.3058 290.057 12.4085 287.451 8.96874 283.829C5.34855 280.018 1.33341 276.452 -2.03533 272.443C-5.90893 267.834 -10.0259 263.464 -13.804 258.781C-16.2374 255.765 -20.164 251.588 -20.2606 247.214C-20.4396 239.117 -19.0755 229.974 -14.5927 222.767L-12.327 219.125C-11.3068 217.485 -9.78932 216.479 -8.7554 214.817C-7.13142 212.206 -4.56426 209.351 -2.04983 207.621C0.860842 205.619 3.75995 203.22 7.12054 202.04C8.43337 201.579 9.53245 201.243 10.843 200.835C12.2308 200.403 13.8004 200.211 15.1388 199.665C18.4237 198.324 21.7945 198.06 25.1588 197.218C26.7132 196.829 28.2694 196.804 29.8157 196.722M33.0796 196.314C31.9994 196.577 30.91 196.664 29.8157 196.722M29.8157 196.722L30.3067 195.932C31.2592 194.401 32.4292 193.951 33.4209 192.481C34.6775 190.618 35.8708 188.849 37.5051 187.287C39.0287 185.832 41.284 184.484 42.3838 182.716C43.3676 181.135 45.7114 180.258 47.0713 178.883C49.6078 176.319 52.3756 174.057 54.7059 171.259C57.3988 168.026 60.9869 165.623 63.8035 162.403C64.5757 161.52 67.6165 153.952 75.469 156.721C76.3206 157.021 77.5075 159.143 77.5075 159.143C77.5075 159.143 78.6975 161.682 78.8902 163.163C79.1497 165.16 80.003 166.593 80.4467 168.497C80.8622 170.28 81.0368 172.924 81.7348 174.52C82.6047 176.511 83.3981 178.141 83.9599 180.243C84.2721 181.411 85.1488 182.618 85.2957 183.779C85.4606 185.082 85.3895 185.67 86.0496 186.872C86.5534 187.79 86.4109 189.131 86.652 190.166C86.9789 191.569 87.3635 192.936 87.6927 194.349C89.2004 200.819 91.6827 207.576 95.0887 213.406C98.4766 213.739 100.914 215.986 103.914 217.421C106.444 218.632 108.571 220.04 110.708 221.859L117.428 227.577C121.323 229.766 125.841 231.764 129.535 234.304C130.118 234.705 130.597 235.219 131.194 235.616C132.44 236.447 133.327 237.671 134.466 238.642C137.063 240.857 139.024 243.756 141.548 246.043C146.147 250.211 149.819 255.328 153.498 260.281C154.932 262.211 156.417 264.349 157.572 266.461C158.785 268.678 159.831 270.912 160.926 273.187C161.694 274.781 163.193 276.48 163.942 278.061" stroke="#020202" stroke-width="3.72048" stroke-linecap="round"/>
<path d="M7.72839 281.813C5.03188 282.662 2.97777 285.372 1.04501 287.271L1.2678 335.614C1.85557 336.006 2.49683 335.955 3.17379 336.109C3.91676 336.279 4.60686 336.819 5.36445 337.05C7.92103 337.828 10.348 338.734 12.9513 339.401C14.84 339.886 17.1917 339.753 19.0901 339.401C21.4728 338.96 23.8482 339.289 26.219 338.634C31.9809 337.041 36.8816 333.741 41.3433 329.871C43.822 327.722 45.0082 323.763 45.8731 320.688C46.7151 317.694 46.7149 314.627 46.7147 311.545L46.7147 311.406C46.7147 305.099 45.3837 297.706 42.024 292.271C40.4566 289.736 39.0214 287.217 36.6154 285.353C34.1381 283.433 31.1315 282.67 28.1498 281.924C25.4797 281.257 22.889 280.579 20.1297 280.415C17.5512 280.261 14.9151 280.134 12.3325 280.291C11.5048 280.341 11.558 280.339 10.9711 280.588C9.90597 281.04 8.83249 281.466 7.72839 281.813Z" fill="black" stroke="black" stroke-width="3.15036" stroke-linecap="round"/>
<path d="M39.3843 309.01C41.9686 307.323 45.2141 307.549 48.1613 307.493C52.3964 307.493 55.4118 305.994 59.7195 306.698C63.1863 307.265 66.1265 307.095 68.9661 309.461C71.9761 311.969 74.7203 314.166 76.479 317.751C78.7791 322.439 80.3438 326.413 80.3438 331.729C80.3438 335.781 79.7933 340.313 78.4294 344.154C75.3702 352.768 65.8441 359.032 57.1009 360.281C50.4286 361.234 42.6837 359.878 36.4405 357.5C29.1418 354.72 23.5521 349.715 21.4329 342.023C19.4526 334.835 22.2403 327.418 27.0495 322.103C29.8736 318.982 32.5254 315.693 35.4834 312.694C36.706 311.454 37.9182 309.967 39.3843 309.01Z" fill="black" stroke="black" stroke-width="3.15036" stroke-linecap="round"/>
<path d="M80.7429 322.615C79.7101 320.506 78.7167 318.369 77.6271 316.289C77.3902 315.837 77.1752 315.536 76.83 315.18C76.4246 314.763 76.0417 314.341 75.6561 313.905C74.7669 312.9 73.8307 311.845 72.7721 311.014C71.3353 309.885 69.5431 309.53 67.8809 308.861C65.5364 307.918 62.945 307.56 60.5261 306.876C57.4296 306.001 54.2657 306.05 51.0698 306.05C48.4607 306.05 45.3029 305.77 42.9178 306.963" stroke="white" stroke-width="3.30627" stroke-linecap="round"/>
<path d="M46.22 306.069C45.5183 300.468 45.3238 294.433 41.4916 289.951C40.082 288.303 38.2205 287.034 36.3082 285.972C34.8024 285.136 33.6223 284.115 31.9191 283.615C31.1114 283.378 30.3037 283.141 29.496 282.904" stroke="white" stroke-width="3.30627" stroke-linecap="round"/>
<path d="M131.309 302.463C132.569 302.847 133.777 303.395 135.003 303.874C137.577 304.879 140.209 305.718 142.825 306.603C143.132 306.707 145.908 308.039 146.397 307.721" stroke="white" stroke-width="3.72048" stroke-linecap="round"/>
<path d="M128.313 311.11C130.506 312.837 132.599 314.591 134.691 316.441C135.56 317.21 136.443 318.153 137.459 318.75" stroke="white" stroke-width="3.72048" stroke-linecap="round"/>
<path d="M37.5744 247.445C36.6242 246.532 35.5571 245.745 34.5412 244.908C32.4088 243.152 30.3931 241.262 28.3446 239.41C28.104 239.192 25.5877 237.419 25.6268 236.837" stroke="white" stroke-width="3.72048" stroke-linecap="round"/>
<path d="M31.4803 254.28C28.9033 253.207 26.3515 252.235 23.7153 251.311C22.6211 250.927 21.367 250.616 20.3504 250.019" stroke="white" stroke-width="3.72048" stroke-linecap="round"/>
<path d="M69.8038 256.57C68.9192 257.053 68.1365 258.45 68.7564 259.33C69.1511 259.891 69.5931 260.354 70.1825 260.7C71.4115 261.421 72.0176 260.883 72.8906 260.02C74.1434 258.782 71.5906 257.048 70.5419 256.826" stroke="white" stroke-width="3.72048" stroke-linecap="round"/>
<path d="M102.253 275.442C101.731 275.931 100.738 276.554 100.771 277.395C100.817 278.544 101.547 279.053 102.523 279.489C103.404 279.882 104.305 279.512 104.754 278.746C105.407 277.634 105.126 276.732 104.008 275.949C103.338 275.48 103.301 275.101 102.485 275.046" stroke="white" stroke-width="3.72048" stroke-linecap="round"/>
<path d="M79.8448 272.482C80.053 272.589 80.285 272.625 80.5082 272.688C80.8041 272.772 81.0647 272.936 81.3535 273.031C81.7289 273.154 82.1143 273.365 82.4556 273.565C82.5535 273.623 83.0668 273.856 82.9592 273.952C82.6671 274.214 82.3009 274.259 81.9651 274.415C81.6201 274.575 80.8842 274.81 80.5676 274.625C80.0379 274.314 80.0794 273.45 80.0478 272.9" stroke="#FF4E57" stroke-width="3.72048" stroke-linecap="round"/>
<path d="M57.262 181.75C52.3546 186.26 47.0451 191.531 42.3256 196.24C44.6506 196.011 46.7603 196.145 49.0742 196.519C52.0638 197.002 54.9757 197.831 57.9344 198.461C59.6559 198.827 61.4038 198.866 63.076 199.421C65.9127 200.362 68.4466 202.012 71.2857 202.995C73.383 203.722 72.9806 203.444 72.7743 201.908C72.6028 200.632 72.3018 199.315 72.042 198.044C71.7483 196.607 71.7856 195.101 71.2652 193.726C69.8849 190.079 70.5807 185.76 69.5283 182.024C69.2516 181.041 69.2667 180.011 68.9731 179.031C68.6938 178.099 68.221 177.235 67.9085 176.311C67.5235 175.174 67.1061 174.532 65.8605 174.629C64.6322 174.725 63.3375 174.893 62.5843 176.023C61.7947 177.208 60.6815 178.089 59.7685 179.176C58.9767 180.12 58.1791 180.907 57.262 181.75Z" fill="white" stroke="white" stroke-width="3.41341" stroke-linecap="round" stroke-linejoin="round"/>
<path d="M72.0228 280.53C71.6564 280.978 70.6736 282.175 70.2608 282.696C70.2336 282.731 69.8392 283.212 69.7651 283.394C69.7347 283.468 69.7929 283.682 69.8194 283.755C69.915 284.018 70.2988 283.996 70.5182 283.978C71.6107 283.888 72.4673 283.656 72.8758 282.515C72.9827 282.216 73.3393 281.136 73.0325 280.854C72.8167 280.656 72.3536 280.722 72.1395 280.857" stroke="#FF4E57" stroke-width="3.41341" stroke-linecap="round"/>
<path d="M152.572 252.575C153.413 254.162 154.075 255.852 154.834 257.479C155.348 257.222 156.226 256.729 156.685 256.367C157.161 255.992 157.679 255.709 158.103 255.277C158.95 254.416 159.841 253.606 160.686 252.739C161.596 251.806 162.51 250.878 163.433 249.955C164.334 249.055 164.511 247.793 164.437 246.566C164.403 246.01 164.148 245.887 163.657 245.824C162.854 245.721 161.999 245.706 161.19 245.66C160.706 245.632 160.233 245.541 159.746 245.507C159.206 245.468 158.666 245.437 158.126 245.402C157.083 245.335 156.021 245.387 154.976 245.387C152.881 245.387 150.782 245.353 148.691 245.451C148.47 245.461 146.245 245.723 146.601 246.231C146.841 246.573 147.404 246.842 147.713 247.134C148.297 247.686 148.974 248.141 149.564 248.694C150.194 249.284 150.738 249.927 151.304 250.575C151.835 251.183 152.189 251.852 152.565 252.561L152.572 252.575Z" fill="white"/>
<path d="M154.834 257.479L153.637 258.038C153.787 258.361 154.062 258.609 154.399 258.727C154.736 258.844 155.106 258.82 155.425 258.661L154.834 257.479ZM152.572 252.575L153.74 251.957L153.74 251.957L152.572 252.575ZM152.565 252.561L151.398 253.18L151.398 253.18L152.565 252.561ZM151.304 250.575L152.298 249.705L151.304 250.575ZM149.564 248.694L150.468 247.73L150.468 247.73L149.564 248.694ZM147.713 247.134L148.621 246.174L148.621 246.174L147.713 247.134ZM146.601 246.231L145.519 246.988L146.601 246.231ZM148.691 245.451L148.63 244.131L148.691 245.451ZM158.126 245.402L158.211 244.084L158.126 245.402ZM159.746 245.507L159.651 246.824L159.746 245.507ZM161.19 245.66L161.115 246.979L161.19 245.66ZM163.657 245.824L163.489 247.134L163.657 245.824ZM164.437 246.566L165.756 246.487V246.487L164.437 246.566ZM163.433 249.955L162.499 249.021L162.499 249.021L163.433 249.955ZM160.686 252.739L159.74 251.817V251.817L160.686 252.739ZM158.103 255.277L159.046 256.203L159.046 256.203L158.103 255.277ZM156.685 256.367L155.867 255.33L156.685 256.367ZM156.032 256.921C155.325 255.406 154.596 253.572 153.74 251.957L151.405 253.194C152.23 254.752 152.825 256.297 153.637 258.038L156.032 256.921ZM153.74 251.957L153.733 251.943L151.398 253.18L151.405 253.194L153.74 251.957ZM153.733 251.943C153.367 251.252 152.946 250.447 152.298 249.705L150.309 251.444C150.723 251.919 151.012 252.451 151.398 253.18L153.733 251.943ZM152.298 249.705C151.754 249.083 151.158 248.377 150.468 247.73L148.661 249.658C149.23 250.192 149.721 250.772 150.309 251.444L152.298 249.705ZM150.468 247.73C150.127 247.411 149.768 247.126 149.46 246.88C149.137 246.623 148.866 246.406 148.621 246.174L146.805 248.094C147.145 248.415 147.504 248.7 147.813 248.947C148.137 249.205 148.411 249.424 148.661 249.658L150.468 247.73ZM148.621 246.174C148.479 246.039 148.328 245.926 148.212 245.843C148.111 245.771 147.957 245.667 147.888 245.618C147.793 245.552 147.732 245.506 147.69 245.47C147.645 245.432 147.655 245.433 147.683 245.473L145.519 246.988C145.79 247.376 146.18 247.648 146.374 247.784C146.659 247.983 146.744 248.036 146.805 248.094L148.621 246.174ZM147.683 245.473C147.762 245.585 147.852 245.763 147.877 245.998C147.903 246.241 147.851 246.46 147.767 246.631C147.689 246.79 147.594 246.891 147.538 246.942C147.481 246.995 147.436 247.023 147.421 247.032C147.402 247.043 147.488 246.999 147.74 246.938C147.956 246.886 148.2 246.843 148.411 246.813C148.636 246.78 148.764 246.77 148.752 246.77L148.63 244.131C148.431 244.14 147.737 244.221 147.12 244.37C146.832 244.439 146.415 244.556 146.072 244.76C145.916 244.852 145.589 245.068 145.392 245.472C145.13 246.01 145.232 246.579 145.519 246.988L147.683 245.473ZM148.752 246.77C150.803 246.675 152.852 246.708 154.976 246.708V244.066C152.91 244.066 150.761 244.032 148.63 244.131L148.752 246.77ZM154.976 246.708C156.111 246.708 157.052 246.657 158.041 246.72L158.211 244.084C157.113 244.013 155.931 244.066 154.976 244.066V246.708ZM158.041 246.72C158.594 246.756 159.117 246.786 159.651 246.824L159.84 244.189C159.295 244.15 158.739 244.118 158.211 244.084L158.041 246.72ZM159.651 246.824C159.851 246.839 160.052 246.865 160.302 246.896C160.539 246.926 160.821 246.962 161.115 246.979L161.265 244.34C161.075 244.33 160.878 244.306 160.635 244.275C160.406 244.246 160.127 244.209 159.84 244.189L159.651 246.824ZM161.115 246.979C161.997 247.029 162.748 247.039 163.489 247.134L163.825 244.513C162.961 244.403 162.001 244.383 161.265 244.34L161.115 246.979ZM163.489 247.134C163.581 247.146 163.602 247.154 163.588 247.15C163.569 247.143 163.477 247.112 163.371 247.023C163.255 246.926 163.182 246.811 163.143 246.716C163.111 246.635 163.115 246.598 163.118 246.646L165.756 246.487C165.728 246.028 165.589 245.434 165.066 244.997C164.618 244.622 164.083 244.546 163.825 244.513L163.489 247.134ZM163.118 246.646C163.185 247.742 162.997 248.523 162.499 249.021L164.367 250.889C165.67 249.586 165.838 247.845 165.756 246.487L163.118 246.646ZM162.499 249.021C161.571 249.949 160.653 250.881 159.74 251.817L161.632 253.662C162.539 252.732 163.449 251.808 164.367 250.889L162.499 249.021ZM159.74 251.817C159.334 252.234 158.914 252.639 158.478 253.059C158.047 253.475 157.599 253.905 157.161 254.351L159.046 256.203C159.454 255.788 159.875 255.383 160.312 254.962C160.745 254.545 161.193 254.112 161.632 253.662L159.74 251.817ZM157.161 254.351C157.033 254.482 156.874 254.606 156.649 254.765C156.453 254.905 156.14 255.114 155.867 255.33L157.504 257.404C157.706 257.244 157.89 257.125 158.177 256.921C158.437 256.737 158.749 256.505 159.046 256.203L157.161 254.351ZM155.867 255.33C155.518 255.605 154.74 256.049 154.243 256.297L155.425 258.661C155.956 258.395 156.934 257.854 157.504 257.404L155.867 255.33Z" fill="white"/>
<path d="M120.233 200.371C117.653 201.532 115.815 203.829 113.967 205.898C113.878 207.531 111.925 212.655 111.899 214.261C111.89 214.85 111.987 215.727 112.177 216.289C112.426 217.026 112.147 218.295 112.243 219.082C112.537 221.488 112.785 223.905 114.096 226.045C114.641 226.935 115.488 227.875 116.302 228.505C118.456 230.173 120.754 231.665 122.914 233.339C126.092 235.801 131.125 235.739 134.968 235.546C141.216 235.232 147.453 233.499 150.16 227.303C151.451 224.348 151.064 220.494 151.236 217.322C151.414 214.047 150.558 210.666 149.314 207.638C147.802 203.96 146.811 200.577 143.501 198.131C141.067 196.332 137.878 195.619 134.901 195.748C131.669 195.888 128.108 197.01 125.139 198.224C123.469 198.907 121.872 199.632 120.233 200.371Z" fill="#FFCFE0" stroke="#FFCFE0" stroke-width="3.15036" stroke-linecap="round"/>
<path d="M115.708 200.69C118.237 198.62 120.729 196.396 123.5 194.644C124.085 194.274 124.601 194.045 125.251 193.884C125.644 193.787 126.056 193.773 126.455 193.713C127.99 193.485 129.503 193.233 131.057 193.171C132.242 193.124 133.346 193.018 134.537 193.083C135.608 193.141 136.68 193.199 137.751 193.257C138.752 193.312 139.736 193.454 140.683 193.792C141.566 194.108 142.236 194.662 143.059 195.075C143.892 195.493 144.563 196.035 145.329 196.518C145.7 196.753 145.932 197.148 146.285 197.349" stroke="#FFA3C3" stroke-width="3.15036" stroke-linecap="round"/>
<path d="M37.648 176.995C38.9171 179.523 38.894 182.465 39.0228 185.237C38.0617 186.559 36.3448 191.767 35.3511 193.03C34.9872 193.492 34.3591 194.111 33.8564 194.428C33.1981 194.843 32.6142 196.003 32.0433 196.553C30.2974 198.234 28.5799 199.953 26.2131 200.787C25.2289 201.134 23.9785 201.329 22.9492 201.304C20.2255 201.24 17.5024 200.948 14.7695 200.884C10.7507 200.79 6.8842 197.567 4.02451 194.993C-0.625256 190.807 -4.3716 185.528 -2.5631 179.012C-1.70067 175.905 1.03068 173.16 2.89829 170.589C4.82612 167.936 7.62366 165.853 10.4988 164.288C13.9917 162.388 16.8951 160.389 21.006 160.579C24.0296 160.718 26.9541 162.176 29.1828 164.155C31.602 166.303 33.6566 169.419 35.1951 172.234C36.0599 173.817 36.8414 175.388 37.648 176.995Z" fill="#FFCFE0" stroke="#FFCFE0" stroke-width="3.15036" stroke-linecap="round"/>
<path d="M39.7125 178.416C38.3931 175.427 37.1769 172.316 35.498 169.499C35.1437 168.905 34.7868 168.467 34.2801 168.03C33.9732 167.765 33.6126 167.567 33.2831 167.333C32.0173 166.435 30.7824 165.526 29.4241 164.768C28.3887 164.19 27.4525 163.596 26.3612 163.115C25.3791 162.682 24.3971 162.25 23.415 161.817C22.4979 161.413 21.5563 161.095 20.559 160.968C19.628 160.849 18.7806 161.041 17.8595 161.037C16.9269 161.033 16.0838 161.213 15.1817 161.298C14.7447 161.339 14.359 161.586 13.954 161.606" stroke="#FFA3C3" stroke-width="3.15036" stroke-linecap="round"/>
<path d="M316.997 246.46C311.846 240.643 307.154 234.084 303.038 227.506C300.169 223.653 295.232 216.255 292.174 212.559C286.963 206.262 285.463 198.788 281.482 191.888C278.197 186.195 276.6 178.466 275.079 172.144C274.031 167.79 273.664 163.242 272.969 158.81C272.287 154.459 271.577 150.203 271.441 145.779C271.382 143.875 271.179 141.979 271.011 140.081C268.148 140.907 263.261 137.601 261.167 135.83C257.234 132.505 254.699 128.19 253.503 123.169C253.179 121.808 253.353 120.123 253.233 118.692C253.131 117.465 252.925 116.036 253.119 114.818C253.627 111.63 255.111 108.541 256.495 105.699C260.587 97.2971 275.315 91.0648 284.143 90.3264C284.914 88.6571 286.568 87.5516 287.336 85.8485C288.372 83.551 289.242 81.9149 291.077 79.7836C292.838 77.7385 294.151 76.7172 296.244 75.3138C297.796 74.2735 298.611 72.4591 300.129 71.4213C299.391 62.5941 302.817 47.3548 310.422 41.9239C312.995 40.0863 315.794 38.1101 318.854 37.0792C320.022 36.6855 321.466 36.6514 322.693 36.5488C324.124 36.4291 325.757 35.9775 327.153 36.0711C332.303 36.4162 336.979 38.1994 340.911 41.5247C343.006 43.2959 346.165 47.3451 345.826 50.3058C348.117 50.0976 350.421 49.9953 352.701 49.6832C357.086 49.083 361.401 49.076 365.805 49.0257C370.291 48.9745 374.836 48.5812 379.304 48.8908C385.79 49.3404 393.677 49.6319 399.837 51.9251C407.303 54.7045 414.922 54.9417 421.998 59.0341C426.15 61.4353 434.265 65.0749 438.542 67.2643L439.151 223.704L316.997 246.46Z" fill="#FF96BB"/>
<path d="M421.11 124.889C415.548 123.43 404.278 120.433 398.186 118.964C395.663 118.355 392.329 117.254 389.536 117.679C387.445 117.998 385.366 118.388 383.32 119.001C379.315 120.202 375.554 122.562 373.454 126.443C370.815 131.322 367.34 138.642 369.613 144.205C371.777 149.503 376.724 153.123 381.705 155.094C383.654 155.865 385.648 156.532 387.62 157.243C387.993 157.378 388.746 157.478 388.972 157.854C389.173 158.19 389.138 158.346 389.523 158.485" stroke="#FF7DAB" stroke-width="4.19749" stroke-linecap="round"/>
<path d="M317.27 130.692C317.98 130.847 318.683 131.039 319.389 131.212C319.879 131.079 320.806 131.005 321.168 131.341C321.403 131.559 321.598 131.795 321.766 132.042C321.813 132.111 322.209 132.239 322.306 132.278C322.558 132.379 322.762 132.47 323 132.61C323.33 132.805 323.74 132.843 324.051 133.084C324.349 133.315 324.772 133.245 325.094 133.429C325.393 133.6 326.67 135.116 326.898 135.354C326.969 135.638 327.095 135.722 327.342 135.86C327.847 136.144 328.179 136.627 328.659 136.93C329.058 137.181 329.433 137.606 329.767 137.933C330.541 138.691 330.92 139.742 331.461 140.673C332.071 141.724 332.206 142.834 332.435 144.005C332.496 144.318 332.371 144.735 332.344 145.052C332.303 145.541 332.257 146.059 332.266 146.549C332.277 147.167 332.229 147.831 332.196 148.45C332.133 149.631 332.067 150.771 331.783 151.925L331.18 154.382C331.021 155.028 330.723 155.475 330.477 156.083C330.283 156.562 329.946 157.084 329.623 157.482C329.296 157.884 329.107 158.401 328.766 158.812C328.291 159.385 327.579 159.884 326.953 160.3C326.867 160.357 326.432 160.617 326.446 160.626C326.449 160.629 326.283 160.913 326.252 160.937C325.715 161.362 325.082 161.664 324.544 162.117C324.169 162.432 323.7 162.947 323.262 163.16C322.975 163.301 322.651 163.378 322.357 163.512C321.632 163.842 320.828 163.999 320.145 164.425C319.648 164.736 319.207 165.018 318.648 165.206C317.702 165.523 316.608 165.527 315.609 165.557C315.038 165.575 314.434 165.527 313.871 165.601C313.573 165.641 313.191 165.755 312.893 165.729C312.508 165.695 312.295 165.434 311.887 165.447C310.943 165.478 310.321 165.733 309.404 165.507C308.917 165.388 307.673 164.502 307.176 164.476C306.987 164.466 306.839 164.594 306.641 164.58C306.416 164.563 306.199 164.497 305.974 164.48C305.504 164.444 305.045 164.296 304.589 164.184C304.089 164.061 303.806 163.906 303.535 163.483C303.307 163.128 303.232 163.296 302.913 163.036C302.426 162.639 301.91 162.273 301.531 161.754C301.266 161.391 301.077 161.077 300.937 160.657C300.863 160.434 300.987 160.312 300.797 160.151C300.502 159.9 300.187 159.444 299.987 159.113C299.513 158.33 299.198 157.474 298.784 156.664C298.498 156.106 298.152 155.525 297.93 154.948C297.359 153.461 297.027 151.899 296.806 150.32C296.728 149.765 296.826 149.358 296.959 148.817C297.178 147.926 297.378 147.029 297.616 146.143C297.723 145.744 297.974 145.407 298.074 144.999L298.29 144.12C298.409 143.636 298.465 143.112 298.77 142.707C299.104 142.264 299.35 141.721 299.618 141.233C299.757 140.978 299.996 140.777 299.983 140.445C299.979 140.327 299.659 140.386 299.687 140.274C299.723 140.127 299.97 140.122 300.018 139.963C300.133 139.586 300.149 139.166 300.383 138.836C300.534 138.624 300.854 138.331 301.072 138.191C301.272 138.062 301.323 137.875 301.5 137.727C301.727 137.537 301.979 137.372 302.189 137.16C302.598 136.748 303 136.387 303.357 135.921C303.592 135.614 303.844 135.325 304.119 135.054C304.378 134.798 304.63 134.343 304.938 134.156C305.469 133.835 305.929 133.409 306.445 133.055C307.152 132.57 307.902 132.038 308.683 131.677C309.238 131.42 309.899 131.318 310.477 131.102C310.658 131.035 310.815 130.927 311.008 130.899C311.912 130.766 312.951 130.163 313.873 130.298C314.997 130.464 316.153 130.447 317.27 130.692Z" fill="#FF7DAB" stroke="#FF7DAB" stroke-width="1.81484" stroke-linecap="round"/>
<path d="M371.129 80.3987C371.839 80.554 372.543 80.746 373.248 80.9194C373.738 80.7859 374.666 80.7123 375.027 81.0475C375.262 81.2657 375.457 81.5019 375.625 81.7489C375.672 81.8182 376.069 81.9457 376.166 81.9847C376.418 82.0862 376.621 82.1769 376.859 82.3171C377.189 82.5117 377.599 82.5505 377.91 82.7913C378.208 83.0221 378.631 82.9517 378.954 83.1361C379.253 83.307 380.53 84.8233 380.757 85.0609C380.828 85.3447 380.955 85.4288 381.202 85.5675C381.707 85.8513 382.039 86.3341 382.519 86.6369C382.917 86.8883 383.292 87.313 383.626 87.6401C384.401 88.3982 384.779 89.4491 385.32 90.3802C385.931 91.4311 386.066 92.5413 386.294 93.712C386.355 94.0252 386.23 94.4421 386.204 94.7593C386.163 95.2478 386.116 95.7663 386.125 96.256C386.136 96.8741 386.088 97.5383 386.055 98.157C385.993 99.338 385.926 100.479 385.643 101.632L385.039 104.089C384.88 104.735 384.583 105.182 384.336 105.79C384.142 106.269 383.806 106.791 383.482 107.189C383.156 107.591 382.967 108.108 382.625 108.519C382.15 109.092 381.438 109.591 380.813 110.007C380.727 110.064 380.291 110.325 380.306 110.334C380.309 110.336 380.142 110.62 380.111 110.644C379.574 111.069 378.942 111.371 378.404 111.824C378.028 112.139 377.56 112.654 377.122 112.868C376.834 113.008 376.51 113.085 376.216 113.219C375.491 113.549 374.688 113.706 374.005 114.133C373.507 114.443 373.066 114.725 372.508 114.913C371.561 115.23 370.467 115.234 369.468 115.264C368.897 115.282 368.294 115.234 367.73 115.308C367.433 115.348 367.051 115.462 366.752 115.436C366.368 115.402 366.155 115.141 365.747 115.155C364.802 115.185 364.181 115.44 363.264 115.214C362.776 115.095 361.532 114.209 361.036 114.183C360.847 114.173 360.698 114.301 360.5 114.287C360.276 114.27 360.059 114.204 359.833 114.187C359.364 114.151 358.904 114.003 358.449 113.891C357.948 113.768 357.666 113.613 357.394 113.19C357.167 112.835 357.092 113.003 356.773 112.743C356.285 112.346 355.769 111.98 355.39 111.461C355.126 111.098 354.937 110.784 354.797 110.364C354.723 110.142 354.846 110.019 354.656 109.858C354.361 109.607 354.047 109.151 353.847 108.82C353.372 108.037 353.058 107.181 352.643 106.371C352.358 105.813 352.011 105.232 351.789 104.655C351.218 103.168 350.887 101.606 350.665 100.027C350.587 99.4719 350.686 99.0647 350.819 98.5239C351.037 97.6331 351.238 96.7356 351.476 95.8498C351.583 95.4507 351.833 95.1142 351.933 94.7063L352.149 93.8273C352.269 93.3425 352.324 92.819 352.629 92.4145C352.964 91.9706 353.209 91.4284 353.477 90.9402C353.617 90.6853 353.855 90.4839 353.843 90.1518C353.838 90.0337 353.518 90.0934 353.546 89.9808C353.582 89.8341 353.829 89.8293 353.878 89.6698C353.993 89.2926 354.009 88.8729 354.243 88.5429C354.393 88.3314 354.714 88.0382 354.931 87.8977C355.131 87.7688 355.183 87.5816 355.359 87.4338C355.586 87.2438 355.838 87.079 356.048 86.8672C356.457 86.4546 356.86 86.0938 357.216 85.6284C357.451 85.3215 357.704 85.0324 357.979 84.7611C358.238 84.5055 358.49 84.05 358.798 83.8635C359.328 83.5424 359.788 83.1162 360.305 82.762C361.012 82.2774 361.762 81.7453 362.542 81.3839C363.097 81.1268 363.759 81.0252 364.337 80.8094C364.517 80.742 364.675 80.6345 364.867 80.6062C365.772 80.4733 366.811 79.8698 367.733 80.0055C368.857 80.1708 370.012 80.1543 371.129 80.3987Z" fill="#FF7DAB" stroke="#FF7DAB" stroke-width="1.81484" stroke-linecap="round"/>
<path d="M362.648 119.361C362.672 118.665 362.487 117.436 361.995 116.908C361.522 116.403 361.242 115.069 360.786 114.58L359.402 113.098C358.084 111.686 355.727 110.724 353.884 110.263C352.314 109.87 350.833 109.112 349.27 108.664C348.659 108.489 348.022 108.869 347.412 108.8C346.834 108.734 346.199 108.876 345.64 109.028C344.993 109.204 344.315 108.985 343.625 109.098C342.566 109.272 341.673 109.74 340.689 110.144C338.412 111.078 336.296 112.203 334.482 113.897C332.668 115.59 330.052 118.883 328.964 121.09C328.494 122.044 327.966 122.904 327.72 123.948C327.559 124.628 327.732 125.32 327.512 125.953C327.322 126.5 327.137 127.125 327.163 127.705C327.19 128.319 326.767 128.928 326.9 129.55C327.24 131.14 327.894 132.67 328.178 134.262C328.512 136.133 329.31 138.55 330.628 139.962L332.012 141.444C332.469 141.933 333.78 142.304 334.252 142.81C334.745 143.337 335.958 143.606 336.654 143.63C337.326 143.653 338.023 143.802 338.696 143.673C339.557 143.508 340.335 143 341.18 142.764C342.857 142.295 344.541 141.624 345.991 140.656C346.499 140.317 347.07 140.212 347.541 139.801C347.967 139.428 348.479 139.157 348.934 138.822C349.651 138.295 350.283 137.71 350.937 137.1C351.242 136.815 355.11 133.362 355.155 133.162C355.808 132.552 356.435 131.961 357.01 131.282C357.375 130.851 357.681 130.359 358.082 129.959C358.525 129.518 358.668 128.956 359.042 128.471C360.107 127.091 360.891 125.457 361.474 123.816C361.768 122.989 362.328 122.249 362.551 121.4C362.726 120.739 362.625 120.033 362.648 119.361Z" fill="white" stroke="white" stroke-width="4.5976" stroke-linecap="round"/>
<path d="M319.77 125.9C320.478 126.658 321.198 127.598 322.32 127.394C323.673 127.148 323.058 125.536 322.453 124.888C321.81 124.199 321.004 122.769 320.066 123.646C319.287 124.372 319.29 124.679 320.041 125.483" stroke="black" stroke-width="3.11009" stroke-linecap="round"/>
<path d="M344.349 102.955C345.056 103.713 345.777 104.653 346.898 104.449C348.251 104.203 347.636 102.591 347.032 101.943C346.388 101.253 345.582 99.824 344.644 100.7C343.866 101.427 343.869 101.734 344.619 102.537" stroke="black" stroke-width="3.11009" stroke-linecap="round"/>
<path d="M339.671 120.775C340.632 121.805 341.594 122.835 342.555 123.864C343.291 124.652 344.181 125.259 344.922 126.053" stroke="black" stroke-width="1.81484" stroke-linecap="round"/>
<path d="M335.399 119.844C335.589 119.656 335.708 119.417 335.855 119.198C336.05 118.907 336.319 118.682 336.523 118.402C336.788 118.039 337.152 117.696 337.488 117.397C337.585 117.311 338.018 116.837 338.084 116.987C338.265 117.395 338.186 117.808 338.237 118.226C338.289 118.656 338.285 119.535 337.973 119.813C337.45 120.277 336.53 119.93 335.923 119.77" stroke="black" stroke-width="4.5976" stroke-linecap="round"/>
<path d="M347.037 126.425C346.337 126.897 345.027 127.416 345.313 128.472C345.472 129.061 345.912 129.487 346.372 129.851C347.455 130.708 348.84 130.616 350.126 130.484C351.075 130.386 351.462 129.607 351.424 128.739C351.406 128.335 351.214 127.901 350.946 127.601C350.653 127.272 350.166 126.818 349.747 126.679C349.101 126.463 348.238 126.33 347.55 126.435C347.015 126.517 346.809 126.884 346.809 127.405C346.809 128.073 347.934 127.953 348.388 128.06C348.606 128.112 348.881 128.208 349.094 128.208" stroke="#FF7DAB" stroke-width="3.30627" stroke-linecap="round"/>
<path d="M275.448 108.596C276.371 106.046 277.615 103.687 278.775 101.21C274.005 101.657 266.021 105.112 263.767 109.684C263.004 111.232 262.186 112.913 261.895 114.642C261.784 115.303 261.887 116.076 261.936 116.74C261.993 117.515 261.89 118.428 262.058 119.164C262.677 121.877 264.023 124.201 266.128 125.981C267.249 126.93 269.87 128.694 271.42 128.232C271.348 127.319 271.292 126.406 271.319 125.489C271.333 125.034 271.099 124.634 271.112 124.179C271.125 123.727 271.323 123.301 271.346 122.843C271.382 122.129 271.571 121.511 271.702 120.816C272.494 116.621 273.998 112.6 275.448 108.596Z" fill="#FFCFE0"/>
<path d="M316.443 60.1204C314.082 61.454 311.962 63.0735 309.712 64.6284C309.361 59.8508 311.441 51.4031 315.576 48.4207C316.975 47.4116 318.496 46.3262 320.154 45.7514C320.787 45.5319 321.566 45.5058 322.229 45.4436C323.003 45.3712 323.886 45.1178 324.64 45.1611C327.418 45.3206 329.933 46.2615 332.038 48.0418C333.16 48.9901 335.335 51.2809 335.137 52.8864C334.225 52.9675 333.316 53.0637 332.415 53.2427C331.968 53.3316 331.536 53.1678 331.089 53.2562C330.645 53.344 330.258 53.6096 329.811 53.7084C329.113 53.8626 328.535 54.1516 327.871 54.3966C323.865 55.8749 320.15 58.0261 316.443 60.1204Z" fill="#FFCFE0"/>
<path d="M342.369 189.887C334.846 192.731 327.652 196.474 320.675 200.502C313.698 204.53 309.095 207.598 302.87 212.691C300.016 215.027 297.163 217.183 294.292 219.456C292.693 220.721 291.654 222.168 290.302 223.63C288.891 225.156 287.923 226.954 286.865 228.726C285.576 230.881 283.667 232.925 282.814 235.317C282 237.599 280.78 239.805 279.906 242.116C278.998 244.518 278.216 246.841 277.557 249.301C276.871 251.86 276.392 254.205 276.55 256.833C276.723 259.717 275.31 262.58 275.67 265.473C276.078 268.749 275.217 271.902 275.595 275.165C275.909 277.879 275.947 280.597 276.321 283.311C277.152 289.357 277.006 295.44 277.831 301.48C278.612 307.194 279.515 313.583 282.362 318.673C285.263 323.858 287.48 329.379 290.466 334.551C291.554 336.435 292.499 338.34 294.071 339.874C295.037 340.816 296.237 341.405 297.341 342.16C298.951 343.263 301.129 344.316 302.925 345.08C306.482 346.592 310.71 347.606 313.848 349.879C315.765 351.268 318.987 351.744 321.246 352.224C324.772 352.972 328.173 354.13 331.862 353.183C334.966 352.387 338.047 352.08 341.189 351.5C346.625 350.496 352.075 349.581 357.52 348.648C359.94 348.234 362.26 347.234 364.643 346.662C366.706 346.167 368.466 344.799 370.491 344.172C374.921 342.801 378.966 340.228 383.39 338.753C385.861 337.929 387.922 335.811 390.486 335.286C392.203 334.658 397.714 331.986 404.731 327.062C406.468 325.103 409.333 324.377 411.281 322.65C414.771 319.556 419.022 317.339 422.424 314.188C423.979 312.748 426.045 311.908 427.505 310.369C429.192 308.591 431.218 307.081 432.786 305.193C436.317 300.944 439.834 296.682 443.422 292.476C445.495 290.045 447.301 287.53 449.542 285.24C452.207 282.519 452.905 278.994 454.019 275.567C454.734 273.37 455.933 270.342 455.688 267.987C455.288 264.133 456.525 259.965 456.994 256.128C457.23 254.191 457.407 251.778 457.257 249.832C457.155 248.5 457.245 247.165 456.912 245.857C456.37 243.729 455.192 241.958 454.105 240.074C451.118 234.902 447.446 230.222 444.406 225.117C441.421 220.106 436.34 216.13 431.782 212.597C426.963 208.862 421.622 205.947 416.803 202.204C414.639 200.523 412.304 199.131 410.111 197.502C407.473 195.544 404.313 194.712 401.679 192.722C399.354 190.963 396.168 190.755 393.757 189.163C391.561 187.713 389.289 186.955 386.731 186.269C384.271 185.61 381.868 185.126 379.333 184.712C376.895 184.313 374.375 184.266 371.992 183.831C369.494 183.374 366.769 184.005 364.258 184.043C362.194 184.074 360.154 184.013 358.126 184.472C356.184 184.912 354.412 185.088 352.516 185.84C349.112 187.19 345.819 188.583 342.369 189.887Z" fill="white" stroke="#F2F2F2" stroke-width="5.68337" stroke-linecap="round"/>
<path d="M435.983 306.029C438.7 306.885 440.77 309.615 442.718 311.53L442.494 360.249C441.901 360.643 441.255 360.592 440.573 360.748C439.824 360.919 439.129 361.463 438.365 361.695C435.789 362.48 433.343 363.393 430.719 364.065C428.816 364.553 426.446 364.42 424.533 364.065C422.132 363.621 419.738 363.952 417.348 363.292C411.542 361.687 406.603 358.361 402.107 354.461C399.609 352.295 398.413 348.306 397.542 345.206C396.693 342.189 396.693 339.099 396.693 335.993L396.693 335.852C396.693 329.496 398.035 322.046 401.421 316.569C403 314.014 404.447 311.475 406.871 309.596C409.368 307.662 412.398 306.893 415.403 306.141C418.093 305.469 420.704 304.786 423.485 304.62C426.084 304.465 428.74 304.337 431.343 304.495C432.177 304.546 432.124 304.543 432.715 304.794C433.788 305.25 434.87 305.679 435.983 306.029Z" fill="white" stroke="#F2F2F2" stroke-width="5.68729" stroke-linecap="round"/>
<path d="M341.11 272.571C340.933 272.851 341.519 273.659 341.842 273.669C342.064 273.677 342.633 273.406 342.727 273.187C342.829 272.948 341.692 272.402 341.59 272.321C341.344 272.126 341.283 271.974 340.943 271.955C340.705 271.942 340.54 271.722 340.32 271.721C339.827 271.717 339.628 272.717 339.766 273.086C339.865 273.351 340.06 273.801 340.293 273.952C340.921 274.362 341.391 273.939 341.973 273.622C342.431 273.372 342.464 272.461 342.222 272.018C342.013 271.634 341.677 271.744 341.293 271.71" stroke="black" stroke-width="4.39161" stroke-linecap="round"/>
<path d="M372.309 255.559C372.132 255.839 372.719 256.647 373.041 256.658C373.263 256.665 373.832 256.395 373.926 256.175C374.028 255.937 372.891 255.39 372.789 255.309C372.544 255.114 372.483 254.962 372.143 254.943C371.904 254.93 371.739 254.711 371.52 254.709C371.026 254.705 370.828 255.705 370.965 256.074C371.064 256.34 371.26 256.789 371.492 256.941C372.121 257.35 372.591 256.928 373.173 256.61C373.631 256.361 373.663 255.45 373.422 255.007C373.212 254.622 372.877 254.732 372.492 254.698" stroke="black" stroke-width="4.39161" stroke-linecap="round"/>
<path opacity="0.2" d="M334.723 282.591C335.543 283.004 336.345 283.461 337.154 283.895C337.797 283.886 338.956 284.088 339.293 284.612C339.512 284.953 339.677 285.303 339.804 285.658C339.84 285.757 340.286 286.038 340.392 286.116C340.669 286.32 340.89 286.495 341.137 286.741C341.48 287.083 341.97 287.26 342.275 287.652C342.567 288.028 343.108 288.075 343.445 288.402C343.757 288.706 344.844 290.962 345.047 291.324C345.045 291.694 345.173 291.837 345.432 292.084C345.961 292.59 346.215 293.285 346.708 293.807C347.117 294.24 347.442 294.877 347.748 295.382C348.458 296.554 348.591 297.958 348.96 299.267C349.376 300.745 349.192 302.146 349.103 303.649C349.079 304.052 348.794 304.522 348.661 304.902C348.457 305.487 348.237 306.106 348.094 306.708C347.912 307.468 347.644 308.265 347.409 309.011C346.96 310.436 346.519 311.81 345.808 313.132L344.294 315.947C343.896 316.687 343.39 317.141 342.897 317.807C342.508 318.331 341.931 318.865 341.409 319.25C340.883 319.638 340.488 320.212 339.94 320.607C339.178 321.157 338.148 321.544 337.251 321.856C337.128 321.898 336.512 322.08 336.527 322.096C336.53 322.099 336.236 322.394 336.191 322.414C335.399 322.765 334.529 322.935 333.727 323.32C333.168 323.588 332.432 324.07 331.828 324.193C331.431 324.274 331.01 324.267 330.607 324.338C329.615 324.513 328.582 324.452 327.61 324.759C326.903 324.983 326.274 325.189 325.531 325.242C324.271 325.333 322.93 324.993 321.696 324.716C320.991 324.557 320.267 324.309 319.554 324.222C319.177 324.177 318.673 324.197 318.315 324.071C317.855 323.908 317.676 323.522 317.172 323.41C316.006 323.15 315.164 323.266 314.111 322.701C313.552 322.402 312.307 320.927 311.708 320.739C311.479 320.667 311.257 320.777 311.019 320.697C310.749 320.606 310.504 320.457 310.233 320.364C309.669 320.173 309.153 319.847 308.631 319.567C308.056 319.259 307.759 318.981 307.56 318.378C307.393 317.871 307.248 318.053 306.939 317.635C306.467 316.996 305.95 316.386 305.65 315.632C305.44 315.105 305.307 314.661 305.269 314.103C305.248 313.808 305.438 313.697 305.256 313.44C304.973 313.04 304.732 312.383 304.591 311.916C304.257 310.808 304.142 309.662 303.889 308.541C303.716 307.769 303.474 306.949 303.384 306.173C303.153 304.175 303.24 302.159 303.466 300.158C303.546 299.455 303.795 298.988 304.128 298.368C304.677 297.348 305.205 296.313 305.776 295.304C306.033 294.85 306.446 294.517 306.697 294.049L307.239 293.042C307.538 292.487 307.771 291.864 308.272 291.465C308.822 291.027 309.294 290.442 309.775 289.929C310.027 289.661 310.382 289.489 310.472 289.079C310.504 288.934 310.093 288.906 310.162 288.777C310.253 288.609 310.557 288.681 310.667 288.501C310.927 288.076 311.078 287.567 311.469 287.237C311.72 287.026 312.205 286.768 312.516 286.665C312.801 286.57 312.924 286.357 313.187 286.232C313.524 286.071 313.885 285.949 314.209 285.756C314.84 285.38 315.447 285.065 316.03 284.608C316.415 284.307 316.816 284.033 317.238 283.787C317.636 283.556 318.088 283.079 318.524 282.947C319.275 282.722 319.973 282.345 320.718 282.074C321.736 281.704 322.823 281.289 323.893 281.093C324.654 280.953 325.496 281.037 326.272 280.955C326.514 280.93 326.741 280.848 326.986 280.874C328.136 280.996 329.599 280.585 330.686 281.041C332.011 281.597 333.431 281.94 334.723 282.591Z" fill="#F4AEC9" stroke="#F4AEC9" stroke-width="2.06938" stroke-linecap="round"/>
<path opacity="0.2" d="M416.572 238.027C417.393 238.44 418.194 238.897 419.004 239.331C419.646 239.322 420.806 239.524 421.143 240.048C421.362 240.389 421.526 240.739 421.654 241.094C421.69 241.193 422.135 241.474 422.242 241.552C422.518 241.756 422.739 241.931 422.986 242.177C423.33 242.519 423.82 242.696 424.125 243.088C424.417 243.464 424.957 243.511 425.294 243.838C425.607 244.142 426.693 246.398 426.897 246.76C426.894 247.13 427.023 247.273 427.282 247.52C427.811 248.026 428.065 248.721 428.558 249.243C428.967 249.676 429.292 250.313 429.598 250.818C430.308 251.99 430.44 253.394 430.809 254.703C431.226 256.181 431.042 257.582 430.952 259.085C430.928 259.488 430.644 259.958 430.511 260.338C430.307 260.923 430.087 261.542 429.943 262.144C429.762 262.904 429.493 263.701 429.258 264.447C428.81 265.872 428.368 267.246 427.657 268.568L426.143 271.383C425.745 272.123 425.24 272.577 424.746 273.243C424.358 273.767 423.781 274.301 423.259 274.686C422.732 275.075 422.338 275.648 421.79 276.043C421.027 276.593 419.998 276.98 419.1 277.292C418.977 277.334 418.362 277.516 418.376 277.532C418.38 277.535 418.086 277.83 418.041 277.85C417.248 278.201 416.379 278.371 415.577 278.756C415.017 279.024 414.281 279.506 413.677 279.629C413.281 279.71 412.859 279.703 412.457 279.774C411.465 279.949 410.432 279.888 409.46 280.195C408.752 280.419 408.124 280.625 407.381 280.678C406.121 280.769 404.779 280.429 403.546 280.152C402.841 279.994 402.117 279.745 401.403 279.658C401.026 279.613 400.522 279.633 400.165 279.507C399.705 279.344 399.525 278.958 399.022 278.846C397.855 278.586 397.014 278.702 395.961 278.137C395.402 277.838 394.157 276.363 393.557 276.175C393.328 276.103 393.106 276.213 392.868 276.133C392.599 276.042 392.354 275.893 392.083 275.801C391.519 275.609 391.003 275.283 390.48 275.003C389.906 274.695 389.608 274.417 389.409 273.814C389.242 273.307 389.098 273.489 388.789 273.071C388.317 272.432 387.8 271.822 387.5 271.068C387.29 270.541 387.157 270.097 387.118 269.539C387.098 269.244 387.287 269.133 387.105 268.876C386.823 268.476 386.582 267.819 386.441 267.352C386.107 266.244 385.992 265.098 385.739 263.977C385.565 263.205 385.324 262.385 385.234 261.609C385.003 259.611 385.09 257.595 385.316 255.594C385.395 254.891 385.644 254.424 385.977 253.804C386.526 252.784 387.055 251.749 387.626 250.74C387.883 250.286 388.295 249.953 388.547 249.486L389.088 248.478C389.387 247.923 389.62 247.3 390.121 246.901C390.671 246.463 391.143 245.878 391.625 245.365C391.877 245.097 392.232 244.926 392.321 244.515C392.353 244.37 391.943 244.342 392.012 244.213C392.102 244.045 392.406 244.117 392.516 243.937C392.776 243.512 392.928 243.003 393.319 242.673C393.57 242.462 394.054 242.204 394.366 242.101C394.651 242.006 394.773 241.793 395.036 241.668C395.374 241.507 395.734 241.385 396.058 241.192C396.69 240.816 397.297 240.501 397.88 240.044C398.264 239.743 398.665 239.469 399.087 239.224C399.485 238.992 399.938 238.515 400.374 238.383C401.125 238.158 401.823 237.781 402.567 237.511C403.586 237.14 404.673 236.725 405.742 236.529C406.503 236.389 407.346 236.473 408.122 236.391C408.364 236.366 408.591 236.284 408.836 236.31C409.986 236.432 411.449 236.021 412.536 236.477C413.86 237.033 415.281 237.377 416.572 238.027Z" fill="#F4AEC9" stroke="#F4AEC9" stroke-width="2.06938" stroke-linecap="round"/>
<path d="M358.872 270.975C359.159 270.798 359.375 270.538 359.618 270.31C359.942 270.007 360.337 269.808 360.668 269.522C361.098 269.15 361.645 268.831 362.145 268.559C362.288 268.481 362.957 268.021 362.996 268.225C363.102 268.778 362.887 269.263 362.83 269.793C362.772 270.336 362.517 271.418 362.053 271.67C361.276 272.093 360.241 271.403 359.538 271.034" stroke="#020202" stroke-width="5.24243" stroke-linecap="round"/>
<path d="M271.651 234.198C275.343 232.078 281.945 230.783 285.8 229.054C284.935 229.551 284.76 230.776 284.629 231.71C284.452 232.964 283.698 234.427 283.273 235.625C282.78 237.014 281.276 237.877 281.108 239.396C280.974 240.608 280.284 241.802 279.898 242.956C279.32 244.682 278.745 246.297 278.047 247.972C277.034 250.402 275.941 252.833 275.247 255.4C274.96 256.46 274.612 257.504 274.326 258.56C273.911 260.095 274.122 261.915 274.141 263.476C274.196 268.112 274.526 272.918 275.135 277.514C275.317 278.885 275.527 280.12 275.474 281.468C275.406 283.198 275.193 284.92 275.108 286.656C275.035 288.152 274.262 290.33 274.909 291.773C272.635 293.079 270.279 292.754 267.89 293.58C265.478 294.415 263.291 295.982 260.821 296.646C251.33 299.195 247.255 288.043 245.991 280.715C245.485 277.784 246.442 274.854 245.94 272.025C245.494 269.509 246.415 266.834 247.305 264.454C248.241 261.951 248.454 259.726 250.363 257.622C252.789 254.947 254.776 251.966 256.967 249.085C259.944 245.169 262.524 240.35 266.72 237.526C268.381 236.407 269.865 235.223 271.651 234.198Z" fill="#020202" stroke="#020202" stroke-width="5.60365" stroke-linecap="round" stroke-linejoin="round"/>
<path d="M375.461 173.355C371.78 175.492 367.357 180.562 363.932 183.036C364.795 182.535 365.944 182.996 366.818 183.35C367.993 183.824 369.636 183.902 370.887 184.133C372.335 184.401 373.835 183.529 375.235 184.144C376.351 184.634 377.73 184.633 378.922 184.876C380.707 185.238 382.393 185.548 384.192 185.781C386.804 186.118 389.455 186.387 392.025 187.07C393.087 187.351 394.165 187.572 395.223 187.852C396.759 188.26 398.229 189.353 399.572 190.15C403.56 192.515 407.557 195.204 411.232 198.03C412.329 198.873 413.293 199.673 414.487 200.3C416.02 201.106 417.618 201.783 419.163 202.577C420.495 203.262 422.768 203.682 423.694 204.964C425.963 203.647 426.859 201.444 428.769 199.789C430.697 198.117 433.149 197.007 434.958 195.199C441.911 188.255 434.291 179.15 428.576 174.391C426.291 172.487 423.275 171.851 421.076 170.002C419.121 168.358 416.343 167.818 413.837 167.398C411.201 166.957 409.168 166.03 406.391 166.63C402.861 167.394 399.286 167.624 395.696 168.081C390.816 168.702 385.353 168.526 380.809 170.748C379.01 171.627 377.243 172.32 375.461 173.355Z" fill="#020202" stroke="#020202" stroke-width="5.60365" stroke-linecap="round" stroke-linejoin="round"/>
<path d="M435.655 278.736C438.372 279.592 440.442 282.322 442.39 284.237L442.166 332.956C441.573 333.351 440.927 333.299 440.245 333.455C439.496 333.626 438.801 334.17 438.037 334.402C435.461 335.187 433.015 336.1 430.391 336.772C428.488 337.26 426.118 337.127 424.205 336.772C421.803 336.328 419.41 336.659 417.02 335.999C411.214 334.394 406.275 331.068 401.778 327.168C399.28 325.002 398.085 321.013 397.213 317.913C396.365 314.896 396.365 311.806 396.365 308.7L396.365 308.559C396.365 302.203 397.707 294.753 401.092 289.276C402.672 286.721 404.118 284.183 406.543 282.303C409.04 280.369 412.07 279.6 415.075 278.848C417.765 278.176 420.376 277.493 423.157 277.327C425.756 277.172 428.412 277.044 431.015 277.202C431.849 277.253 431.795 277.25 432.387 277.501C433.46 277.957 434.542 278.386 435.655 278.736Z" fill="white" stroke="#F2F2F2" stroke-width="5.68729" stroke-linecap="round"/>
<path d="M364.902 284.45C365.344 283.468 365.935 282.566 366.518 281.64C366.734 280.561 367.717 279.822 368.758 279.822C369.648 279.822 370.653 279.715 371.486 280.079C373.849 281.113 374.121 283.564 374.121 285.855C374.121 287.928 374.547 290.348 373.047 291.98C371.616 293.535 370.205 294.219 368.042 293.834C366.218 293.51 364.899 292.867 364.406 290.896C364.078 289.584 364.277 287.642 364.369 286.305C364.39 286.009 364.68 285.873 364.7 285.533C364.722 285.161 364.746 284.795 364.902 284.45Z" fill="#FF8349" stroke="#FF8349" stroke-width="3.11348" stroke-linecap="round"/>
<path d="M295.982 227.813C298.358 230.073 301.627 231.038 304.657 232.116C306.448 231.496 312.801 231.347 314.536 230.671C315.172 230.423 316.07 229.936 316.591 229.485C317.272 228.895 318.756 228.638 319.558 228.191C322.01 226.821 324.496 225.496 326.218 223.153C326.935 222.179 327.572 220.858 327.892 219.708C328.738 216.666 329.332 213.548 330.182 210.496C331.432 206.008 329.162 200.635 327.272 196.596C324.198 190.03 319.607 184.096 311.772 183.905C308.036 183.814 304.071 185.917 300.591 187.122C296.999 188.365 293.747 190.765 291.043 193.426C287.759 196.659 284.563 199.204 283.388 203.827C282.524 207.226 283.155 210.961 284.598 214.099C286.164 217.505 288.927 220.834 291.53 223.489C292.994 224.981 294.472 226.377 295.982 227.813Z" fill="#FF96BB" stroke="#FF7DAB" stroke-width="3.65109" stroke-linecap="round"/>
</g>
<defs>
<clipPath id="clip0_1539_11536">
<rect width="440" height="396" fill="white"/>
</clipPath>
</defs>
</svg>
