<svg width="200" height="205" viewBox="0 0 200 205" fill="none" xmlns="http://www.w3.org/2000/svg">
<path d="M133.004 100.03C132.815 100.073 132.666 100.114 132.512 100.223C132.463 100.259 132.405 100.314 132.347 100.328C132.229 100.356 132.147 100.425 132.059 100.494C131.948 100.581 131.791 100.758 131.739 100.889C131.678 101.041 131.504 101.289 131.595 101.466C131.684 101.638 131.962 101.677 132.082 101.817C132.217 101.975 132.391 102.112 132.532 102.268C132.576 102.316 132.663 102.401 132.683 102.467C132.707 102.553 132.815 102.607 132.815 102.713" stroke="#EDEDED" stroke-width="3.05629" stroke-linecap="round"/>
<path d="M60.375 96.3096C60.8511 96.7203 61.3108 97.1919 61.8446 97.5294C62.0309 97.6472 62.2215 97.7637 62.404 97.8872C62.9038 98.2252 63.3263 98.6717 63.8232 99.0134C64.2627 99.3156 64.6778 99.6135 65.0862 99.9402" stroke="#EDEDED" stroke-width="3.05629" stroke-linecap="round"/>
<path d="M135.142 132.861C134.841 131.694 134.526 130.519 134.316 129.329C134.42 129.744 136.502 131.904 136.863 132.073C137.758 132.49 138.673 133.185 139.643 133.382C141.073 133.672 142.407 134.292 143.807 134.71C145.462 135.204 147.126 135.781 148.78 136.299C149.699 136.586 150.615 136.822 151.56 137.003C152.288 137.142 152.957 137.396 153.704 137.396H159.04C160.132 137.396 161.241 137.38 162.324 137.215C163.364 137.056 164.373 136.527 165.353 136.162C166.547 135.717 167.849 135.092 168.682 134.155C170.45 132.165 171.845 129.075 171.58 126.358C171.452 125.051 171.108 123.649 170.558 122.45C169.829 120.863 168.204 119.435 166.993 118.224C165.869 117.1 163.798 116.352 162.281 115.993C160.844 115.653 159.476 115.178 158.086 114.684C157.037 114.31 155.955 114.222 154.92 113.774C153.309 113.077 151.725 112.493 150.177 111.655C148.635 110.82 147.046 110.08 145.49 109.274C141.116 107.009 136.887 104.497 132.55 102.168L65.3744 100.866C64.2859 99.5468 63.1009 98.3377 61.9661 97.0611C60.794 95.7425 59.6143 94.4349 58.1699 93.4053C56.3764 92.1267 54.3651 91.249 52.5252 90.0547C48.2236 87.2625 42.587 87.1416 37.6707 87.1416C34.8058 87.1416 32.0925 87.311 29.9958 89.4853C29.2867 90.2207 29.11 91.0015 28.9148 91.9776C28.6397 93.353 28.6644 95.3074 29.1376 96.6155C29.6599 98.0595 29.9942 99.4813 30.7221 100.874C31.9356 103.195 34.1619 105.199 35.9129 107.121C40.2204 111.849 44.4083 116.717 49.0261 121.15C49.99 122.076 50.9136 123.043 51.865 123.981C52.4798 124.587 53.202 125.054 53.7878 125.689C54.4634 126.421 54.9201 127.364 55.6116 128.107C56.7416 129.321 58.7816 131.411 59.5065 132.861C59.3707 133.387 59.4566 133.958 59.4405 134.495C59.4147 135.361 59.1825 136.283 58.9949 137.127C58.6051 138.882 58.562 140.662 58.0706 142.401C57.6135 144.018 57.7095 145.73 57.3609 147.369C56.9855 149.133 56.9415 151.012 56.6842 152.799C56.4351 154.529 56.6649 156.481 56.1725 158.155C55.4899 160.476 55.6462 163.016 54.9924 165.359C54.5259 167.031 54.5855 168.845 54.1672 170.55C53.8009 172.043 53.7221 173.557 53.5317 175.081C53.3943 176.18 53.4994 177.497 53.0861 178.53C52.8894 179.022 51.3124 179.372 50.8249 179.686C50.0301 180.197 49.3937 180.832 48.6297 181.353C47.4808 182.136 46.655 183.616 45.8651 184.728C45.1772 185.696 44.6147 186.831 44.586 188.037C44.5669 188.838 45.5518 189.538 46.187 189.935C47.869 190.987 49.6194 191.842 51.3365 192.84C54.7269 194.811 58.6663 194.953 62.4774 195.44C69.5 196.336 76.5759 195.877 83.6369 195.877C84.2351 195.877 84.9245 195.977 85.5185 195.869C86.24 195.738 86.2559 195.038 86.6903 194.656C87.3151 194.107 87.905 192.867 88.184 192.073C88.6161 190.843 89.2503 189.619 89.8263 188.45C90.2647 187.56 90.5413 186.597 91.0064 185.718C91.3821 185.009 91.563 184.037 92.0875 183.432C92.4282 183.039 92.9287 182.14 93.0035 181.617C93.0623 181.205 93.5302 180.603 93.5302 180.149C94.4438 179.985 95.1897 179.864 96.129 179.864H97.909H100.376C100.376 180.318 101.586 181.205 101.645 181.617C101.719 182.14 102.22 183.039 102.561 183.432C103.085 184.037 103.266 185.009 103.642 185.718C104.107 186.597 104.383 187.56 104.822 188.45C105.398 189.619 106.032 190.843 106.464 192.073C106.743 192.867 107.333 194.107 107.958 194.656C108.392 195.038 108.408 195.738 109.13 195.869C109.724 195.977 110.413 195.877 111.011 195.877C118.072 195.877 125.148 196.336 132.171 195.44C135.982 194.953 139.921 194.811 143.312 192.84C145.029 191.842 146.779 190.987 148.461 189.935C149.096 189.538 150.081 188.838 150.062 188.037C150.033 186.831 149.471 185.696 148.783 184.728C147.993 183.616 147.167 182.136 146.018 181.353C145.254 180.832 144.618 180.197 143.823 179.686C143.336 179.372 141.759 179.022 141.562 178.53C141.149 177.497 141.254 176.18 141.116 175.081C140.926 173.557 140.847 172.043 140.481 170.55C140.063 168.845 140.122 167.031 139.656 165.359C139.002 163.016 139.158 160.476 138.476 158.155C137.983 156.481 138.213 154.529 137.964 152.799C137.707 151.012 137.663 149.133 137.287 147.369C136.939 145.73 137.035 144.018 136.578 142.401C136.086 140.662 136.043 138.882 135.653 137.127C135.466 136.283 135.234 135.361 135.208 134.495C135.192 133.958 135.277 133.387 135.142 132.861Z" fill="white"/>
<path d="M60.3318 129.329C60.1217 130.519 59.8076 131.694 59.5065 132.861M59.5065 132.861C59.3707 133.387 59.4566 133.958 59.4405 134.495C59.4147 135.361 59.1825 136.283 58.9949 137.127C58.6051 138.882 58.562 140.662 58.0706 142.401C57.6135 144.018 57.7096 145.73 57.3609 147.369C56.9855 149.133 56.9415 151.012 56.6842 152.799C56.4351 154.529 56.6649 156.481 56.1725 158.155C55.4899 160.476 55.6462 163.016 54.9924 165.359C54.5259 167.031 54.5855 168.845 54.1672 170.55C53.8009 172.043 53.7221 173.557 53.5317 175.081C53.3943 176.18 53.4994 177.497 53.0861 178.53C52.8894 179.022 51.3124 179.372 50.8249 179.686C50.0301 180.197 49.3937 180.832 48.6297 181.353C47.4808 182.136 46.655 183.616 45.8651 184.728C45.1772 185.696 44.6147 186.831 44.586 188.037C44.5669 188.838 45.5518 189.538 46.187 189.935C47.869 190.987 49.6194 191.842 51.3365 192.84C54.7269 194.811 58.6663 194.953 62.4774 195.44C69.5 196.336 76.5759 195.877 83.6369 195.877C84.2351 195.877 84.9245 195.977 85.5185 195.869C86.24 195.738 86.2558 195.038 86.6903 194.656C87.3151 194.107 87.905 192.867 88.184 192.073C88.6161 190.843 89.2503 189.619 89.8263 188.45C90.2647 187.56 90.5413 186.597 91.0064 185.718C91.3821 185.009 91.563 184.037 92.0875 183.432C92.4282 183.039 92.9287 182.14 93.0035 181.617C93.0623 181.205 93.5302 180.603 93.5302 180.149C94.4438 179.985 95.1896 179.864 96.129 179.864H97.909H100.376C100.376 180.318 101.586 181.205 101.645 181.617C101.719 182.14 102.22 183.039 102.561 183.432C103.085 184.037 103.266 185.009 103.642 185.718C104.107 186.597 104.383 187.56 104.822 188.45C105.398 189.619 106.032 190.843 106.464 192.073C106.743 192.867 107.333 194.107 107.958 194.656C108.392 195.038 108.408 195.738 109.13 195.869C109.724 195.977 110.413 195.877 111.011 195.877C118.072 195.877 125.148 196.336 132.171 195.44C135.982 194.953 139.921 194.811 143.312 192.84C145.029 191.842 146.779 190.987 148.461 189.935C149.096 189.538 150.081 188.838 150.062 188.037C150.033 186.831 149.471 185.696 148.783 184.728C147.993 183.616 147.167 182.136 146.018 181.353C145.254 180.832 144.618 180.197 143.823 179.686C143.336 179.372 141.759 179.022 141.562 178.53C141.149 177.497 141.254 176.18 141.116 175.081C140.926 173.557 140.847 172.043 140.481 170.55C140.063 168.845 140.122 167.031 139.656 165.359C139.002 163.016 139.158 160.476 138.476 158.155C137.983 156.481 138.213 154.529 137.964 152.799C137.707 151.012 137.663 149.133 137.287 147.369C136.939 145.73 137.035 144.018 136.578 142.401C136.086 140.662 136.043 138.882 135.653 137.127C135.466 136.283 135.234 135.361 135.208 134.495C135.192 133.958 135.277 133.387 135.142 132.861C134.841 131.694 134.526 130.519 134.316 129.329C134.42 129.744 136.502 131.904 136.863 132.073C137.758 132.49 138.673 133.185 139.643 133.382C141.073 133.672 142.407 134.292 143.807 134.71C145.462 135.204 147.126 135.781 148.78 136.299C149.699 136.586 150.615 136.822 151.56 137.003C152.288 137.142 152.957 137.396 153.704 137.396H159.04C160.132 137.396 161.241 137.38 162.324 137.215C163.364 137.056 164.373 136.527 165.353 136.162C166.547 135.717 167.849 135.092 168.682 134.155C170.45 132.165 171.845 129.075 171.58 126.358C171.452 125.051 171.108 123.649 170.558 122.45C169.829 120.863 168.204 119.435 166.993 118.224C165.869 117.1 163.798 116.352 162.281 115.993C160.844 115.653 159.476 115.178 158.086 114.684C157.037 114.31 155.955 114.222 154.92 113.774C153.309 113.077 151.725 112.493 150.177 111.655C148.635 110.82 147.046 110.08 145.49 109.274C141.116 107.009 136.887 104.497 132.55 102.168L65.3744 100.866C64.2859 99.5468 63.1009 98.3377 61.9661 97.0611C60.794 95.7425 59.6143 94.4349 58.1699 93.4053C56.3764 92.1267 54.3651 91.249 52.5252 90.0547C48.2236 87.2625 42.587 87.1416 37.6707 87.1416C34.8058 87.1416 32.0925 87.311 29.9958 89.4853C29.2867 90.2207 29.11 91.0015 28.9148 91.9776C28.6397 93.353 28.6644 95.3074 29.1376 96.6155C29.6599 98.0595 29.9942 99.4813 30.7221 100.874C31.9356 103.195 34.1619 105.199 35.9129 107.121C40.2204 111.849 44.4083 116.717 49.0261 121.15C49.99 122.076 50.9136 123.043 51.865 123.981C52.4798 124.587 53.202 125.054 53.7878 125.689C54.4634 126.421 54.9201 127.364 55.6116 128.107C56.7416 129.321 58.7816 131.411 59.5065 132.861Z" stroke="#EDEDED" stroke-width="3.4638" stroke-linecap="round"/>
<path d="M114.052 20.9281C109.566 20.194 104.986 19.9932 100.433 19.9932C95.8789 19.9932 92.7589 20.194 88.2723 20.9281C86.2147 21.2648 84.209 21.5138 82.1612 21.8149C81.0208 21.9826 80.1036 22.397 79.0285 22.7306C77.9061 23.079 76.9245 23.6856 75.9055 24.2536C74.6657 24.9446 73.1534 25.4059 72.0596 26.3356C71.0162 27.2225 69.7957 27.9574 68.7149 28.8417C67.5915 29.7609 66.5519 30.677 65.534 31.6948C64.4752 32.7536 63.5777 33.7666 62.9123 35.0974C62.1819 36.5581 60.6811 37.5605 60.0398 39.0782C59.3136 40.797 58.0013 42.0975 57.2638 43.8013C56.6503 45.2188 55.9011 46.56 55.3168 47.9943C54.0154 51.1886 52.2245 54.1249 50.9214 57.3151C49.6887 60.3331 48.3249 63.7153 48.2803 67.0119C48.235 70.3702 47.7598 73.699 47.7598 77.0749C47.7598 78.3043 47.684 79.5041 48.0201 80.6992C48.2266 81.4334 48.6478 82.0612 48.9743 82.7426C49.451 83.7373 50.2194 84.8685 50.8829 85.75C52.1969 87.4958 53.9799 89.1866 54.8734 91.1863C55.4194 92.4083 56.8621 93.5516 57.8325 94.425C59.3468 95.7879 60.6845 97.3156 62.758 97.895C64.5025 98.3824 66.0974 99.1033 67.7992 99.7071C70.7442 100.752 73.6704 101.844 76.5995 102.927C77.9012 103.408 79.3196 103.574 80.6479 103.968C81.7973 104.308 83.0461 104.136 84.2143 104.401C86.7703 104.982 89.4776 104.866 92.0604 105.394C93.5025 105.689 95.1099 105.235 96.5136 105.703C97.5315 105.881 100.984 106.13 105.811 105.703C107.215 105.235 108.822 105.689 110.264 105.394C112.847 104.866 115.554 104.982 118.11 104.401C119.279 104.136 120.527 104.308 121.677 103.968C123.005 103.574 124.424 103.408 125.725 102.927C128.654 101.844 131.581 100.752 134.526 99.7071C136.227 99.1033 137.822 98.3824 139.567 97.895C141.64 97.3156 142.978 95.7879 144.492 94.425C145.463 93.5516 146.905 92.4083 147.451 91.1863C148.345 89.1866 150.128 87.4958 151.442 85.75C152.105 84.8685 152.874 83.7373 153.35 82.7426C153.677 82.0612 154.098 81.4334 154.305 80.6992C154.641 79.5041 154.565 78.3043 154.565 77.0749C154.565 73.699 154.09 70.3702 154.044 67.0119C154 63.7153 152.636 60.3331 151.403 57.3151C150.1 54.1249 148.309 51.1886 147.008 47.9943C146.424 46.56 145.674 45.2188 145.061 43.8013C144.323 42.0975 143.011 40.797 142.285 39.0782C141.644 37.5605 140.143 36.5581 139.413 35.0974C138.747 33.7666 137.85 32.7536 136.791 31.6948C135.773 30.677 134.733 29.7609 133.61 28.8417C132.529 27.9574 131.309 27.2225 130.265 26.3356C129.171 25.4059 127.659 24.9446 126.419 24.2536C125.4 23.6856 124.419 23.079 123.296 22.7306C122.221 22.397 121.304 21.9826 120.164 21.8149C118.116 21.5138 116.11 21.2648 114.052 20.9281Z" fill="white" stroke="#EDEDED" stroke-width="3.4638" stroke-linecap="round"/>
<path d="M89.7985 61.9932C87.8313 61.9932 85.3878 62.2418 83.5821 63.1446C83.0204 63.4255 82.645 63.8819 82.1446 64.2284C81.847 64.4344 81.3396 64.9734 80.9932 64.9734" stroke="#020202" stroke-width="3.751" stroke-linecap="round"/>
<path d="M110.143 61.9932C112.11 61.9932 114.554 62.2418 116.359 63.1446C116.921 63.4255 117.296 63.8819 117.797 64.2284C118.094 64.4344 118.602 64.9734 118.948 64.9734" stroke="#020202" stroke-width="3.751" stroke-linecap="round"/>
<path d="M86.738 107.702C86.618 107.216 84.3585 107.359 84.0059 107.311C82.85 107.153 81.5684 106.527 80.4734 106.445C79.187 106.348 76.3698 106.223 75.5611 105.132C75.1567 104.586 73.1466 103.96 72.3874 103.931C71.1869 103.884 70.0386 103.462 68.8549 103.428C68.338 103.413 68.1327 103.309 67.7234 103.19C67.3962 103.096 67.0802 102.697 66.8679 102.673C65.1992 102.486 67.1685 101.521 67.8614 101.221C68.744 100.838 69.8895 100.797 70.7867 101.165C73.4501 102.256 75.9709 103.291 78.8038 103.819C81.9625 104.408 84.9899 105.248 88.2283 105.453C89.435 105.529 90.6116 106.121 91.7607 106.193C93.4292 106.299 95.1399 106.193 96.811 106.193C102.555 106.193 108.358 105.942 114.059 105.942C116.518 105.942 118.689 105.007 121.014 104.671C121.542 104.594 121.808 103.981 122.256 103.931C122.712 103.879 123.202 104.041 123.622 103.805C124.434 103.348 125.234 103.178 125.981 102.673" stroke="white" stroke-width="13.5835" stroke-linecap="round"/>
<path d="M75.7227 102.268C76.7386 102.921 78.2517 103.315 79.4014 103.733C81.051 104.333 82.6624 105.057 84.3917 105.403C85.0853 105.542 85.6795 105.906 86.3591 106.059C87.1419 106.235 87.9447 106.246 88.7365 106.428C90.3414 106.797 92.1503 107.04 93.7985 107.063C98.4384 107.128 103.084 107.063 107.724 107.063C110.487 107.063 113.282 106.216 115.922 105.506C117.215 105.158 118.516 104.87 119.765 104.44C120.979 104.021 121.644 103.559 122.941 103.559" stroke="#020202" stroke-width="3.16893" stroke-linecap="round"/>
<path d="M95.065 76.9682C94.1535 76.8406 93.2024 76.7757 92.2812 76.7757C92.2812 77.4833 92.4312 79.3548 92.7334 80.0158C92.9113 80.4051 93.0274 80.7822 93.2608 81.146C93.7487 81.9066 94.4359 82.4898 94.9562 83.2182C95.8778 84.5083 97.6656 85.4109 99.247 85.0643C99.7165 84.9614 100.169 84.9782 100.612 84.7629C100.977 84.5854 101.332 84.3683 101.678 84.1566L101.7 84.1433C102.511 83.6475 103.47 83.1271 104.145 82.4521C105.571 81.0255 106.004 79.0048 106.217 77.0854C106.235 76.9241 106.547 76.5377 106.326 76.3654C106.144 76.2244 105.48 76.3311 105.309 76.3571C103.948 76.5636 102.587 76.851 101.206 76.851H97.9744C97.5366 76.851 97.1196 76.9889 96.6851 77.0394C96.1308 77.1038 95.6141 77.0451 95.065 76.9682Z" fill="#FF8349"/>
<path d="M92.2812 76.7757V75.0462C91.3261 75.0462 90.5518 75.8205 90.5518 76.7757H92.2812ZM95.065 76.9682L94.8253 78.681H94.8253L95.065 76.9682ZM96.6851 77.0394L96.8848 78.7573L96.6851 77.0394ZM105.309 76.3571L105.568 78.067L105.309 76.3571ZM106.326 76.3654L107.388 75.0003L107.388 75.0003L106.326 76.3654ZM106.217 77.0854L104.498 76.8945L104.498 76.8945L106.217 77.0854ZM104.145 82.4521L102.922 81.2292L102.922 81.2292L104.145 82.4521ZM101.7 84.1433L102.602 85.619L101.7 84.1433ZM101.678 84.1566L100.777 82.6808L100.777 82.6809L101.678 84.1566ZM100.612 84.7629L101.368 86.3183L101.368 86.3183L100.612 84.7629ZM99.247 85.0643L99.6173 86.7536H99.6173L99.247 85.0643ZM94.9562 83.2182L93.5489 84.2234L93.5489 84.2234L94.9562 83.2182ZM93.2608 81.146L94.7165 80.2122V80.2122L93.2608 81.146ZM92.7334 80.0158L91.1604 80.7348L91.1604 80.7348L92.7334 80.0158ZM92.2812 78.5052C93.1239 78.5052 93.9948 78.5648 94.8253 78.681L95.3048 75.2555C94.3123 75.1165 93.281 75.0462 92.2812 75.0462V78.5052ZM94.8253 78.681C95.3855 78.7595 96.0929 78.8494 96.8848 78.7573L96.4853 75.3215C96.1688 75.3583 95.8427 75.3308 95.3048 75.2555L94.8253 78.681ZM96.8848 78.7573C97.1854 78.7224 97.5055 78.6532 97.6533 78.625C97.8461 78.5881 97.9268 78.5805 97.9744 78.5805V75.1215C97.5842 75.1215 97.2375 75.1828 97.0037 75.2275C96.7249 75.2809 96.6192 75.3059 96.4853 75.3215L96.8848 78.7573ZM97.9744 78.5805H101.206V75.1215H97.9744V78.5805ZM101.206 78.5805C102.76 78.5805 104.342 78.2531 105.568 78.067L105.049 74.6472C103.554 74.874 102.414 75.1215 101.206 75.1215V78.5805ZM105.568 78.067C105.667 78.0519 105.797 78.032 105.914 78.0252C105.976 78.0216 105.977 78.0255 105.935 78.0212C105.913 78.0188 105.845 78.0109 105.75 77.983C105.7 77.9684 105.632 77.9452 105.553 77.9083C105.475 77.8716 105.373 77.8154 105.264 77.7306L107.388 75.0003C106.935 74.6482 106.436 74.5956 106.294 74.5808C106.071 74.5576 105.861 74.5634 105.712 74.5721C105.409 74.5898 105.121 74.6362 105.049 74.6472L105.568 78.067ZM105.264 77.7306C105.081 77.5885 104.922 77.3964 104.815 77.1634C104.711 76.938 104.68 76.728 104.676 76.5713C104.672 76.4194 104.693 76.3029 104.708 76.2382C104.723 76.1719 104.74 76.1278 104.745 76.1142C104.746 76.111 104.755 76.0889 104.702 76.2062C104.684 76.2446 104.649 76.3216 104.615 76.4109C104.587 76.4866 104.524 76.6655 104.498 76.8945L107.936 77.2764C107.915 77.4651 107.865 77.5966 107.856 77.6196C107.843 77.6562 107.833 77.6752 107.844 77.652C107.847 77.6461 107.924 77.4863 107.977 77.3449C108.029 77.2089 108.144 76.8868 108.134 76.4846C108.121 75.9968 107.921 75.4149 107.388 75.0003L105.264 77.7306ZM104.498 76.8945C104.29 78.7678 103.898 80.253 102.922 81.2292L105.368 83.675C107.245 81.798 107.718 79.2417 107.936 77.2764L104.498 76.8945ZM102.922 81.2292C102.436 81.7155 101.741 82.0915 100.798 82.6676L102.602 85.619C103.282 85.2034 104.504 84.5387 105.368 83.675L102.922 81.2292ZM100.798 82.6676L100.777 82.6808L102.58 85.6323L102.602 85.619L100.798 82.6676ZM100.777 82.6809C100.417 82.9005 100.133 83.0726 99.8556 83.2074L101.368 86.3183C101.82 86.0983 102.247 85.8362 102.58 85.6323L100.777 82.6809ZM99.8556 83.2074C99.8606 83.205 99.8327 83.2218 99.6717 83.2471C99.5731 83.2625 99.5088 83.2697 99.3546 83.2915C99.2243 83.3098 99.0577 83.3352 98.8767 83.3749L99.6173 86.7536C99.7927 86.7152 99.8322 86.7231 100.207 86.6644C100.5 86.6185 100.92 86.5361 101.368 86.3183L99.8556 83.2074ZM98.8767 83.3749C98.1192 83.5409 96.9787 83.0742 96.3635 82.2129L93.5489 84.2234C94.7768 85.9425 97.2121 87.2808 99.6173 86.7536L98.8767 83.3749ZM96.3635 82.2129C96.0345 81.7522 95.6555 81.3422 95.3836 81.0391C95.0852 80.7066 94.8772 80.4626 94.7165 80.2122L91.8051 82.0799C92.1324 82.59 92.5119 83.0179 92.8091 83.3492C93.1329 83.71 93.3577 83.9557 93.5489 84.2234L96.3635 82.2129ZM94.7165 80.2122C94.6754 80.1481 94.6318 80.0635 94.5669 79.9114C94.5244 79.8119 94.4021 79.5062 94.3063 79.2967L91.1604 80.7348C91.2427 80.9147 91.2673 80.9922 91.3857 81.2696C91.4817 81.4943 91.6129 81.7802 91.8051 82.0799L94.7165 80.2122ZM94.3063 79.2967C94.3153 79.3165 94.2802 79.2332 94.2304 78.9872C94.1862 78.769 94.1458 78.5009 94.1116 78.2109C94.0422 77.6218 94.0107 77.0464 94.0107 76.7757H90.5518C90.5518 77.2125 90.5953 77.9267 90.6764 78.6155C90.748 79.2236 90.88 80.1214 91.1604 80.7348L94.3063 79.2967Z" fill="#FF8349"/>
<path opacity="0.2" d="M80.9544 67.6909C81.2831 68.1669 81.588 68.6607 81.9043 69.1449C82.262 69.3333 82.8415 69.7943 82.8696 70.1856C82.8879 70.4402 82.873 70.6835 82.8365 70.9183C82.8263 70.9842 82.9876 71.2737 83.0229 71.3492C83.1143 71.5451 83.1835 71.7085 83.2458 71.9192C83.3322 72.2119 83.5497 72.4571 83.5997 72.766C83.6477 73.0621 83.9321 73.251 84.0196 73.5334C84.1007 73.7953 84.0201 75.3712 84.0232 75.6327C83.9105 75.8365 83.9384 75.9542 84.0067 76.169C84.1463 76.6083 84.0772 77.0695 84.192 77.5064C84.2873 77.8691 84.2746 78.3198 84.2914 78.6916C84.3302 79.5533 83.9797 80.3703 83.7886 81.2058C83.5729 82.1488 83.0486 82.8681 82.5455 83.6732C82.4109 83.8886 82.1117 84.0632 81.9239 84.2333C81.6348 84.4952 81.3263 84.7718 81.0654 85.0614C80.736 85.427 80.3472 85.7873 79.9922 86.1295C79.3144 86.7826 78.6562 87.41 77.8646 87.9271L76.179 89.0284C75.7359 89.3179 75.3196 89.4167 74.846 89.6365C74.4733 89.8095 73.9935 89.9307 73.5891 89.9866C73.181 90.0431 72.7902 90.2413 72.3683 90.295C71.7809 90.3698 71.0955 90.2739 70.5058 90.1757C70.4248 90.1622 70.0299 90.0773 70.0333 90.0903C70.0341 90.0933 69.783 90.1681 69.7518 90.1655C69.2084 90.1207 68.6764 89.9531 68.1175 89.9242C67.7276 89.904 67.1756 89.9489 66.8047 89.8352C66.5614 89.7607 66.3307 89.6295 66.0869 89.5477C65.4859 89.346 64.9336 89.0008 64.3042 88.8781C63.8458 88.7887 63.4363 88.7133 63.0097 88.5189C62.2866 88.1895 61.648 87.5973 61.05 87.0725C60.7083 86.7725 60.3836 86.4169 60.0152 86.1542C59.8207 86.0154 59.5362 85.8746 59.3769 85.697C59.1718 85.4685 59.1892 85.2011 58.9449 84.9873C58.3789 84.4918 57.8789 84.3027 57.4676 83.6732C57.2493 83.339 57.0063 82.1481 56.7318 81.8633C56.6271 81.7546 56.4712 81.7488 56.3638 81.6327C56.2422 81.5013 56.1521 81.3447 56.0301 81.2121C55.7765 80.9365 55.5898 80.6006 55.3855 80.2879C55.1612 79.9445 55.0807 79.7014 55.1528 79.3077C55.2133 78.9771 55.0785 79.0342 55.034 78.7099C54.9659 78.2139 54.8643 77.7211 54.9259 77.2134C54.969 76.8584 55.0296 76.5729 55.1767 76.2523C55.2544 76.0831 55.3923 76.0789 55.3695 75.8818C55.3341 75.5756 55.3991 75.1395 55.4623 74.8383C55.6118 74.1251 55.8938 73.4564 56.0927 72.7596C56.2294 72.2803 56.3435 71.7538 56.528 71.2975C57.0031 70.1227 57.659 69.0335 58.3877 67.9945C58.6437 67.6294 58.9221 67.446 59.2932 67.2036C59.9044 66.8042 60.5085 66.391 61.128 66.0048C61.4072 65.8308 61.7355 65.771 62.0154 65.5882L62.6185 65.1941C62.9511 64.9768 63.2678 64.7025 63.665 64.6327C64.1007 64.5562 64.5382 64.3742 64.9591 64.2356C65.1789 64.1633 65.4268 64.1754 65.5999 63.9755C65.6615 63.9044 65.4431 63.7655 65.5203 63.715C65.621 63.6492 65.7672 63.7804 65.8821 63.7141C66.1541 63.5573 66.3912 63.3216 66.7067 63.2569C66.909 63.2155 67.2546 63.2189 67.4577 63.2555C67.644 63.289 67.7757 63.2082 67.9587 63.2181C68.1939 63.2308 68.4298 63.2716 68.6671 63.2625C69.1293 63.2448 69.5593 63.2535 70.0194 63.1762C70.3228 63.1253 70.627 63.0944 70.9342 63.0859C71.2237 63.0778 71.6178 62.9498 71.8983 63.0086C72.3812 63.1098 72.8804 63.1118 73.3733 63.1864C74.0478 63.2884 74.7732 63.3862 75.4235 63.5998C75.886 63.7517 76.3261 64.052 76.7796 64.2403C76.921 64.2991 77.0712 64.3222 77.1987 64.4104C77.797 64.8243 78.7292 65.0375 79.1921 65.6174C79.7561 66.324 80.4373 66.9421 80.9544 67.6909Z" fill="#F4AEC9" stroke="#F4AEC9" stroke-width="1.36538" stroke-linecap="round"/>
<path opacity="0.2" d="M139.612 67.6909C139.94 68.1669 140.245 68.6607 140.562 69.1449C140.919 69.3333 141.499 69.7943 141.527 70.1856C141.545 70.4402 141.53 70.6835 141.494 70.9183C141.483 70.9842 141.645 71.2737 141.68 71.3492C141.772 71.5451 141.841 71.7085 141.903 71.9192C141.989 72.2119 142.207 72.4571 142.257 72.766C142.305 73.0621 142.589 73.251 142.677 73.5334C142.758 73.7953 142.677 75.3712 142.68 75.6327C142.568 75.8365 142.596 75.9542 142.664 76.169C142.804 76.6083 142.734 77.0695 142.849 77.5064C142.945 77.8691 142.932 78.3198 142.949 78.6916C142.987 79.5533 142.637 80.3703 142.446 81.2058C142.23 82.1488 141.706 82.8681 141.203 83.6732C141.068 83.8886 140.769 84.0632 140.581 84.2333C140.292 84.4952 139.984 84.7718 139.723 85.0614C139.393 85.427 139.004 85.7873 138.649 86.1295C137.972 86.7826 137.313 87.41 136.522 87.9271L134.836 89.0284C134.393 89.3179 133.977 89.4167 133.503 89.6365C133.131 89.8095 132.651 89.9307 132.246 89.9866C131.838 90.0431 131.447 90.2413 131.026 90.295C130.438 90.3698 129.753 90.2739 129.163 90.1757C129.082 90.1622 128.687 90.0773 128.69 90.0903C128.691 90.0933 128.44 90.1681 128.409 90.1655C127.866 90.1207 127.334 89.9531 126.775 89.9242C126.385 89.904 125.833 89.9489 125.462 89.8352C125.219 89.7607 124.988 89.6295 124.744 89.5477C124.143 89.346 123.591 89.0008 122.961 88.8781C122.503 88.7887 122.094 88.7133 121.667 88.5189C120.944 88.1895 120.305 87.5973 119.707 87.0725C119.365 86.7725 119.041 86.4169 118.672 86.1542C118.478 86.0154 118.193 85.8746 118.034 85.697C117.829 85.4685 117.846 85.2011 117.602 84.9873C117.036 84.4918 116.536 84.3027 116.125 83.6732C115.907 83.339 115.664 82.1481 115.389 81.8633C115.284 81.7546 115.128 81.7488 115.021 81.6327C114.899 81.5013 114.809 81.3447 114.687 81.2121C114.434 80.9365 114.247 80.6006 114.043 80.2879C113.818 79.9445 113.738 79.7014 113.81 79.3077C113.87 78.9771 113.736 79.0342 113.691 78.7099C113.623 78.2139 113.522 77.7211 113.583 77.2134C113.626 76.8584 113.687 76.5729 113.834 76.2523C113.912 76.0831 114.049 76.0789 114.027 75.8818C113.991 75.5756 114.056 75.1395 114.119 74.8383C114.269 74.1251 114.551 73.4564 114.75 72.7596C114.887 72.2803 115.001 71.7538 115.185 71.2975C115.66 70.1227 116.316 69.0335 117.045 67.9945C117.301 67.6294 117.579 67.446 117.95 67.2036C118.562 66.8042 119.166 66.391 119.785 66.0048C120.064 65.8308 120.393 65.771 120.673 65.5882L121.276 65.1941C121.608 64.9768 121.925 64.7025 122.322 64.6327C122.758 64.5562 123.195 64.3742 123.616 64.2356C123.836 64.1633 124.084 64.1754 124.257 63.9755C124.319 63.9044 124.1 63.7655 124.178 63.715C124.278 63.6492 124.424 63.7804 124.539 63.7141C124.811 63.5573 125.048 63.3216 125.364 63.2569C125.566 63.2155 125.912 63.2189 126.115 63.2555C126.301 63.289 126.433 63.2082 126.616 63.2181C126.851 63.2308 127.087 63.2716 127.324 63.2625C127.787 63.2448 128.217 63.2535 128.677 63.1762C128.98 63.1253 129.284 63.0944 129.591 63.0859C129.881 63.0778 130.275 62.9498 130.556 63.0086C131.038 63.1098 131.538 63.1118 132.031 63.1864C132.705 63.2884 133.43 63.3862 134.081 63.5998C134.543 63.7517 134.983 64.052 135.437 64.2403C135.578 64.2991 135.728 64.3222 135.856 64.4104C136.454 64.8243 137.386 65.0375 137.849 65.6174C138.413 66.324 139.095 66.9421 139.612 67.6909Z" fill="#F4AEC9" stroke="#F4AEC9" stroke-width="1.36538" stroke-linecap="round"/>
<path d="M97.7988 68.5385C98.011 68.5273 98.2084 68.4485 98.412 68.3957C98.6818 68.3258 98.9604 68.3342 99.2296 68.2757C99.5793 68.1996 99.9773 68.1881 100.336 68.1881C100.439 68.1881 100.947 68.1348 100.907 68.2594C100.799 68.5978 100.533 68.8012 100.342 69.077C100.146 69.3604 99.679 69.8816 99.3464 69.8816C98.7899 69.8816 98.4265 69.1879 98.1492 68.772" stroke="#020202" stroke-width="3.45897" stroke-linecap="round"/>
<path d="M66.9097 22.636C69.3158 22.6418 72.9136 23.8736 75.2894 24.1169C74.7256 24.1156 74.2937 24.666 73.9654 25.086C73.5245 25.65 72.7421 26.1529 72.1951 26.6195C71.5617 27.1598 70.5813 27.157 70.0698 27.8535C69.6617 28.409 68.9864 28.7983 68.4714 29.2539C67.7005 29.9358 66.9627 30.5638 66.1474 31.1864C64.9646 32.0896 63.7429 32.9707 62.6773 34.0312C62.2374 34.4689 61.7718 34.8816 61.3334 35.3179C60.6964 35.9518 60.2857 36.9022 59.8535 37.6718C58.5701 39.9569 57.3736 42.4026 56.373 44.8248C56.0745 45.5474 55.8282 46.2113 55.4213 46.856C54.8988 47.6837 54.3079 48.4666 53.7759 49.2921C53.3171 50.004 52.3234 50.8515 52.2322 51.7412C50.7497 51.7376 49.6882 50.9126 48.2856 50.6419C46.8689 50.3686 45.3552 50.5178 43.9587 50.1446C38.5924 48.7102 39.7494 42.0994 41.2016 38.1547C41.7824 36.577 43.0791 35.4134 43.6329 33.8866C44.1253 32.529 45.3325 31.4799 46.4406 30.5663C47.6062 29.6052 48.3393 28.5766 49.8684 28.0859C51.8123 27.4622 53.6273 26.5645 55.514 25.7733C58.0781 24.698 60.703 23.0681 63.5549 22.8713C64.6844 22.7934 65.7453 22.6332 66.9097 22.636Z" fill="#020202" stroke="#020202" stroke-width="4.0179" stroke-linecap="round" stroke-linejoin="round"/>
<path d="M134.924 22.1897C132.518 22.1955 128.92 23.4273 126.545 23.6707C127.108 23.6693 127.54 24.2197 127.869 24.6397C128.31 25.2038 129.092 25.7066 129.639 26.1732C130.272 26.7135 131.253 26.7107 131.764 27.4072C132.172 27.9628 132.848 28.3521 133.363 28.8076C134.133 29.4895 134.871 30.1175 135.687 30.7401C136.869 31.6433 138.091 32.5244 139.157 33.5849C139.597 34.0226 140.062 34.4353 140.501 34.8716C141.138 35.5055 141.548 36.456 141.981 37.2255C143.264 39.5106 144.46 41.9564 145.461 44.3786C145.759 45.1011 146.006 45.765 146.413 46.4097C146.935 47.2374 147.526 48.0204 148.058 48.8458C148.517 49.5577 149.511 50.4052 149.602 51.2949C151.084 51.2913 152.146 50.4663 153.548 50.1957C154.965 49.9223 156.479 50.0716 157.875 49.6983C163.242 48.2639 162.085 41.6531 160.632 37.7084C160.052 36.1307 158.755 34.9671 158.201 33.4404C157.709 32.0827 156.502 31.0336 155.393 30.12C154.228 29.1589 153.495 28.1303 151.966 27.6397C150.022 27.0159 148.207 26.1182 146.32 25.327C143.756 24.2517 141.131 22.6218 138.279 22.425C137.15 22.3471 136.089 22.1869 134.924 22.1897Z" fill="#020202" stroke="#020202" stroke-width="4.0179" stroke-linecap="round" stroke-linejoin="round"/>
<path d="M181.201 3.35059C181.828 7.2088 182.171 11.3577 183.448 15.0974C183.49 15.2201 183.817 15.7914 183.71 15.7132C183.117 15.2782 182.59 14.8052 182.04 14.3199C181.046 13.4435 179.669 13.3278 178.776 14.3584C177.913 15.3536 176.624 16.6278 176.482 17.9763C176.442 18.3535 176.089 19.5318 176.413 19.8392C176.754 20.1631 177.83 19.9777 178.275 19.9777C180.111 19.9777 180.969 19.3502 182.14 17.9763C182.554 17.4895 184.52 15.4634 183.802 14.6355C183.532 14.3229 180.74 16.3361 180.508 16.6061C180.095 17.0863 179.756 17.3718 179.684 18.0225C179.672 18.1284 179.676 18.7434 179.676 18.5921" stroke="#020202" stroke-width="2.90251" stroke-linecap="round"/>
<path d="M27.8428 13.7622C27.5485 12.9085 27.3313 12.0762 26.6395 11.4628C25.8921 10.8 24.9098 10.4835 23.9659 10.2306C23.1369 10.0085 22.5921 10.0663 21.7107 10.1994C21.3382 10.2557 20.7338 10.2837 20.4208 10.5223C20.1223 10.75 20.2577 11.3136 20.2792 11.621C20.3179 12.1722 20.3465 12.7268 20.3699 13.2785C20.4442 15.0249 20.7715 16.9313 20.5076 18.6639C20.3838 19.4768 20.4108 20.284 20.3383 21.0779C20.2807 21.709 20.1501 21.6789 19.4705 21.9819C18.3895 22.4638 17.315 23.0038 16.1888 23.3757C15.3495 23.6528 14.4986 23.741 13.9263 24.5125C13.5312 25.045 13.4019 25.6319 13.2322 26.2653C13.0864 26.8092 12.9975 27.233 13.3641 27.7333C13.9846 28.58 15.7904 27.5691 16.4441 27.2883C16.7336 27.164 17.0467 27.1415 17.3338 27.0157C17.7489 26.8338 17.9691 26.613 18.2958 26.2945C18.7578 25.8442 19.1424 25.3565 19.4989 24.8166C19.7614 24.419 19.8391 23.9702 20.0646 23.5785C20.0942 23.5271 20.6743 22.4364 20.5207 22.4113C20.3298 22.3801 19.7918 22.7467 19.6365 22.8239C19.09 23.0951 18.5567 23.3741 18.0179 23.6604C17.5234 23.9232 16.6364 24.29 16.4375 24.8893C16.2646 25.4098 15.8555 25.7135 15.5108 26.1022" stroke="#020202" stroke-width="2.90251" stroke-linecap="round"/>
<path d="M168.18 77.4863C169.505 76.9438 170.795 76.3161 172.221 76.1194C173.145 75.9918 174.115 75.9739 175.047 76.0271C175.818 76.0712 176.494 76.3529 177.249 76.4069C177.397 76.4174 177.701 76.3333 177.727 76.5425C177.838 77.4543 177.749 78.4265 177.749 79.3415C177.749 80.3619 177.806 81.4066 177.683 82.4227C177.475 84.1492 176.869 85.8698 176.523 87.576C176.373 88.3135 176.054 88.9707 175.893 89.6915" stroke="#020202" stroke-width="3.04194" stroke-linecap="round"/>
<path d="M167.016 77.7715C167.317 80.0266 167.649 82.5016 167.229 84.7793C167.156 85.1737 166.987 85.5186 166.922 85.9234C166.838 86.4496 166.743 86.9723 166.655 87.4978" stroke="#020202" stroke-width="3.04194" stroke-linecap="round"/>
<path d="M166.005 87.3342C165.683 87.3185 165.195 87.1888 164.894 87.356C164.776 87.4216 164.707 87.5439 164.608 87.6343C164.245 87.9671 163.828 88.2487 163.468 88.5903C163.154 88.8889 162.977 88.9771 163.004 89.4107C163.07 90.4911 164.865 89.8531 165.438 89.643C165.729 89.5364 165.925 89.0797 166.101 88.8299C166.226 88.6541 166.441 88.4167 166.484 88.2055" stroke="#020202" stroke-width="3.04194" stroke-linecap="round"/>
<path d="M176.433 87.8791C176.111 87.8634 175.623 87.7338 175.322 87.9009C175.204 87.9665 175.135 88.0888 175.037 88.1792C174.674 88.512 174.257 88.7936 173.897 89.1352C173.582 89.4338 173.406 89.522 173.432 89.9556C173.499 91.036 175.294 90.398 175.867 90.1879C176.158 90.0813 176.353 89.6247 176.53 89.3748C176.654 89.199 176.87 88.9616 176.912 88.7504" stroke="#020202" stroke-width="3.04194" stroke-linecap="round"/>
<g clip-path="url(#clip0_1475_24303)">
<path d="M185.514 159.45C184.517 156.279 183.76 153.849 182.56 150.827C181.374 147.842 179.052 144.701 176.889 142.354C174.687 139.964 172.119 137.886 169.524 135.951C168.657 135.306 167.411 134.618 166.531 133.993C165.939 133.574 165.687 133.245 165.046 132.883C164.83 132.76 163.328 130.988 163.345 130.706C163.414 129.589 164.308 127.577 165.099 126.899C165.747 126.344 166.185 125.393 166.401 124.579C166.783 123.133 165.793 122.052 164.604 121.411C162.225 120.131 159.414 119.855 157.003 118.612C155.554 117.864 154.092 117.289 152.438 117.472C150.604 117.674 148.85 118.273 146.986 118.256C144.97 118.24 142.916 117.957 140.946 118.535C138.873 119.144 137.079 120.204 135.106 121.088C133.654 121.74 132.966 122.757 133.335 124.2C133.767 125.892 135.823 127.867 136.604 129.539H136.574C136.342 130.499 137.186 131.168 136.222 131.37L135.92 131.503C132.441 132.364 127.604 135.506 125.329 138.065C121.133 142.783 117.874 146.629 115.04 152.416C108.492 165.786 106.017 177.923 120.133 191.346C121.043 192.211 121.953 193.098 123.063 193.68C124.465 194.415 126.063 194.667 127.634 194.85C134.119 195.611 140.508 195.522 147.003 195.126C154.431 194.677 163.544 196.718 170.763 194.598C177.245 192.693 188.999 182.594 187.451 167.372C187.261 165.504 186.956 164.157 186.414 162.356C186.125 161.395 185.829 160.424 185.52 159.447L185.514 159.45Z" fill="#FF80AD"/>
<path d="M155.523 129.426C155.57 129.29 155.62 129.157 155.669 129.024C155.719 128.891 155.772 128.758 155.829 128.625C155.849 128.578 155.869 128.532 155.889 128.482C155.945 128.346 155.802 128.685 155.865 128.538C155.905 128.445 155.945 128.356 155.985 128.263C156.158 127.877 156.344 127.498 156.553 127.129C156.659 126.939 156.776 126.753 156.899 126.571C156.925 126.534 156.949 126.497 156.975 126.461C157.015 126.404 157.158 126.245 156.972 126.461C157.035 126.388 157.095 126.311 157.161 126.238C157.467 125.902 157.517 125.337 157.161 125.011C156.829 124.706 156.261 124.652 155.935 125.011C155.311 125.703 154.869 126.544 154.49 127.388C154.261 127.904 154.038 128.429 153.856 128.964C153.709 129.393 154.025 129.931 154.46 130.031C154.942 130.141 155.37 129.885 155.527 129.426H155.523Z" fill="#FF71A4"/>
<path d="M142.505 125.386C142.562 125.439 142.615 125.496 142.668 125.552C142.698 125.586 142.724 125.619 142.751 125.649C142.827 125.735 142.724 125.626 142.708 125.596C142.784 125.735 142.89 125.865 142.97 126.005C143.05 126.144 143.113 126.281 143.179 126.423C143.196 126.463 143.216 126.503 143.233 126.543C143.279 126.649 143.219 126.517 143.206 126.48C143.236 126.563 143.272 126.643 143.306 126.726C143.568 127.391 143.807 128.072 144.186 128.681C144.429 129.066 144.97 129.252 145.372 128.993C145.774 128.734 145.94 128.219 145.684 127.806C145.595 127.663 145.512 127.517 145.439 127.364C145.402 127.291 145.369 127.221 145.336 127.148C145.316 127.108 145.299 127.068 145.282 127.025C145.229 126.899 145.282 126.989 145.296 127.062C145.259 126.902 145.166 126.743 145.106 126.59C145.047 126.437 144.983 126.274 144.92 126.118C144.628 125.403 144.299 124.705 143.734 124.16C143.409 123.844 142.827 123.811 142.508 124.16C142.189 124.509 142.16 125.051 142.508 125.386H142.505Z" fill="#FF71A4"/>
<path d="M149.126 123.867C149.126 125.32 148.94 126.796 149.126 128.245C149.156 128.485 149.202 128.681 149.378 128.86C149.528 129.01 149.777 129.123 149.993 129.113C150.411 129.093 150.923 128.727 150.86 128.245C150.674 126.799 150.86 125.32 150.86 123.867C150.86 123.412 150.461 122.98 149.993 123C149.524 123.02 149.126 123.382 149.126 123.867Z" fill="#FF71A4"/>
<path d="M134.559 130.92C137.392 130.082 140.213 130.012 143.439 129.882C146.024 129.779 148.917 130.052 151.505 130.115C152.788 130.145 154.067 130.218 155.346 130.291C157.993 130.441 160.724 130.095 165.239 131.249" fill="#FFE9F1"/>
<path d="M135.07 132.781C135.575 132.634 136.087 132.505 136.605 132.398C136.838 132.352 137.07 132.305 137.306 132.265C137.399 132.249 137.492 132.232 137.588 132.219C137.698 132.202 138.339 132.086 137.781 132.186C138.778 132.006 139.821 131.979 140.828 131.926C143.02 131.81 145.2 131.767 147.392 131.866C149.615 131.966 151.844 132.036 154.067 132.152C155.638 132.235 157.206 132.252 158.777 132.295C159.704 132.319 160.628 132.378 161.548 132.485L161.674 132.501C161.887 132.528 161.844 132.521 161.548 132.481C161.691 132.471 161.87 132.528 162.013 132.551C162.292 132.594 162.568 132.641 162.844 132.694C163.475 132.814 164.103 132.953 164.724 133.113C165.701 133.359 166.864 132.797 167.096 131.763C167.329 130.73 166.794 129.652 165.747 129.39C163.714 128.878 161.628 128.562 159.532 128.462C158.03 128.393 156.522 128.429 155.02 128.346C152.734 128.22 150.449 128.157 148.163 128.044C145.934 127.934 143.728 127.934 141.499 128.034C138.994 128.147 136.459 128.356 134.04 129.061C133.073 129.343 132.369 130.434 132.691 131.434C133.014 132.435 134.027 133.086 135.063 132.784L135.07 132.781Z" fill="#FFABC9"/>
<path d="M147.799 130.693C145.6 130.144 143.387 129.509 141.135 129.223C139.806 129.054 138.517 129.2 137.208 129.45C136.534 129.579 135.833 129.769 135.281 130.187C134.73 130.606 134.265 131.208 133.863 131.796C133.178 132.797 132.893 133.901 132.803 135.097C132.743 135.882 132.783 136.62 133.152 137.338C133.494 137.999 134.162 138.415 134.829 138.688C136.238 139.266 137.71 138.963 139.085 138.452C140.687 137.857 142.334 137.371 143.912 136.716C145.49 136.061 147.105 135.23 148.583 134.263C149.514 133.655 148.647 132.152 147.706 132.764C146.544 133.522 145.328 134.197 144.062 134.772C142.796 135.347 141.52 135.719 140.231 136.168C139.075 136.57 137.886 137.232 136.64 137.278C136.065 137.298 135.487 137.165 135.002 136.843C134.557 136.543 134.481 136.051 134.507 135.546C134.557 134.569 134.703 133.711 135.205 132.91C135.491 132.455 135.839 131.946 136.265 131.61C136.66 131.298 137.218 131.208 137.703 131.118C138.006 131.062 138.311 131.009 138.617 130.962C138.713 130.949 138.833 130.935 138.657 130.955C138.716 130.949 138.773 130.942 138.833 130.935C138.976 130.919 139.118 130.906 139.261 130.896C139.809 130.859 140.361 130.876 140.909 130.935C140.946 130.939 141.205 130.972 141.092 130.955C140.986 130.942 141.235 130.975 141.288 130.985C141.487 131.015 141.69 131.052 141.889 131.088C142.348 131.175 142.806 131.271 143.261 131.378C144.627 131.687 145.985 132.032 147.341 132.372C148.424 132.641 148.886 130.969 147.803 130.699L147.799 130.693Z" fill="#FFE9F1"/>
<path d="M147.422 130.996C147.383 131.326 147.386 131.648 147.376 131.977C147.376 132.014 147.369 132.057 147.376 132.093C147.349 131.881 147.419 131.808 147.389 131.96C147.369 132.054 147.349 132.147 147.333 132.24C147.283 132.522 147.319 132.798 147.359 133.081C147.403 133.39 147.482 133.656 147.595 133.948C147.615 134.002 147.635 134.055 147.658 134.105C147.725 134.251 147.642 133.975 147.648 133.942C147.632 134.041 147.635 134.154 147.635 134.254C147.632 134.513 147.751 134.856 147.954 135.045C148.03 135.115 147.858 134.769 147.904 134.912C147.924 134.976 147.947 135.035 147.971 135.099C148.017 135.228 148.067 135.358 148.133 135.478C148.206 135.607 148.286 135.773 148.396 135.873C148.565 136.029 148.761 136.092 148.974 136.142C149.396 136.242 149.957 136.013 150.04 135.537C150.077 135.315 150.13 135.102 150.177 134.882C150.213 134.706 150.22 134.527 150.206 134.347C150.19 134.135 150.16 134.55 150.18 134.46C150.196 134.387 150.206 134.311 150.223 134.234C150.273 133.965 150.266 133.712 150.256 133.44C150.25 133.277 150.256 133.084 150.206 132.928C150.17 132.815 150.12 132.705 150.074 132.592V133.054C150.137 132.818 150.223 132.585 150.19 132.336C150.16 132.107 150.024 131.881 149.921 131.671L150.04 132.11C150.04 131.851 150.047 131.608 149.947 131.362C149.878 131.186 149.821 131.01 149.765 130.83C149.632 130.398 149.153 130.076 148.698 130.225C148.243 130.375 147.947 130.827 148.094 131.292C148.13 131.409 148.163 131.528 148.203 131.641C148.226 131.704 148.253 131.764 148.276 131.824C148.293 131.864 148.306 131.914 148.329 131.95C148.386 132.047 148.316 131.648 148.306 131.764C148.286 132.03 148.316 132.306 148.426 132.546C148.479 132.662 148.535 132.775 148.592 132.888L148.505 132.22C148.472 132.343 148.432 132.462 148.406 132.585C148.343 132.861 148.402 133.094 148.515 133.337C148.612 133.539 148.509 133.018 148.515 133.257C148.515 133.333 148.522 133.413 148.525 133.49C148.532 133.613 148.522 133.746 148.539 133.865C148.559 134.005 148.592 133.576 148.565 133.692C148.559 133.726 148.552 133.756 148.549 133.789C148.535 133.865 148.519 133.942 148.505 134.015C148.476 134.194 148.456 134.4 148.479 134.587C148.496 134.726 148.539 134.301 148.505 134.414C148.496 134.444 148.489 134.477 148.482 134.51C148.466 134.587 148.442 134.66 148.429 134.736C148.406 134.846 148.389 134.959 148.369 135.069L149.436 134.464L149.24 134.417L149.758 134.816C149.711 134.736 149.672 134.63 149.608 134.56C149.575 134.523 149.718 134.849 149.662 134.683C149.642 134.62 149.615 134.557 149.595 134.494C149.509 134.254 149.393 134.075 149.25 133.869L149.369 134.307C149.379 134.108 149.412 133.879 149.353 133.682C149.313 133.559 149.256 133.44 149.21 133.317C149.163 133.194 149.11 133.064 149.084 132.934C149.064 132.841 149.057 132.745 149.04 132.652C149.017 132.492 149.067 132.938 149.064 132.818C149.064 132.782 149.057 132.745 149.057 132.712C149.05 132.639 149.06 132.542 149.04 132.472C149.08 132.602 148.987 132.785 149.024 132.622C149.034 132.572 149.044 132.519 149.054 132.469C149.097 132.26 149.117 132.054 149.12 131.841C149.127 131.552 149.13 131.272 149.163 130.986C149.216 130.534 148.728 130.099 148.296 130.119C147.781 130.142 147.486 130.501 147.429 130.986L147.422 130.996Z" fill="#FFE9F1"/>
<path d="M149.764 132.739C150.926 132.147 152.222 131.938 153.488 131.679C154.159 131.542 154.83 131.39 155.478 131.163C156.079 130.954 156.64 130.675 157.258 130.505C157.876 130.336 158.441 130.233 159.046 130.17C159.607 130.106 160.238 130.003 160.8 130.083C161.361 130.163 161.88 130.439 162.328 130.758C162.414 130.818 162.494 130.881 162.574 130.951C162.611 130.981 162.826 131.163 162.68 131.03C162.737 131.08 162.777 131.197 162.71 131.047C162.753 131.144 162.777 131.247 162.807 131.346C163.175 132.576 163.405 133.876 163.431 135.166C163.441 135.701 163.385 136.253 163.082 136.708C162.807 137.124 162.365 137.267 161.88 137.29C159.916 137.38 158.109 136.226 156.464 135.189C154.451 133.919 152.368 132.513 149.92 132.387C148.803 132.33 148.807 134.066 149.92 134.122C152.062 134.235 154.039 135.718 155.843 136.845C157.83 138.088 160.109 139.361 162.544 138.952C164.066 138.696 164.956 137.393 165.129 135.934C165.218 135.192 165.129 134.454 165.039 133.716C164.949 132.978 164.856 132.167 164.644 131.419C164.507 130.937 164.388 130.415 164.072 130.017C163.694 129.535 163.119 129.156 162.574 128.883C161.923 128.557 161.205 128.325 160.471 128.331C159.737 128.338 159.036 128.428 158.328 128.527C157.571 128.637 156.81 128.793 156.092 129.063C155.312 129.358 154.567 129.664 153.747 129.854C152.092 130.239 150.431 130.462 148.896 131.243C148.478 131.456 148.358 132.044 148.584 132.43C148.833 132.855 149.352 132.955 149.77 132.742L149.764 132.739Z" fill="#FFE9F1"/>
<path d="M146.238 158.955C145.586 155.278 145.287 151.545 145.337 147.812C145.377 144.697 145.507 141.432 146.59 138.477C147.125 137.015 147.972 135.701 149.168 134.698C149.526 134.395 149.48 133.78 149.168 133.471C148.812 133.115 148.301 133.168 147.942 133.471C145.537 135.489 144.487 138.61 144.042 141.625C143.5 145.302 143.487 149.095 143.746 152.798C143.902 155.015 144.178 157.226 144.566 159.417C144.649 159.879 145.211 160.138 145.633 160.022C146.118 159.889 146.321 159.417 146.238 158.955Z" fill="#FFE9F1"/>
<path d="M149.285 134.107C152.132 137.71 153.342 142.298 154.006 146.762C154.783 151.998 154.983 157.333 155.335 162.612C155.548 165.777 155.757 168.942 155.969 172.106C155.999 172.575 156.345 172.974 156.837 172.974C157.282 172.974 157.737 172.575 157.704 172.106C157.318 166.359 156.963 160.611 156.541 154.867C156.175 149.897 155.817 144.804 154.262 140.037C153.418 137.448 152.202 135.024 150.511 132.883C150.219 132.515 149.588 132.578 149.285 132.883C148.923 133.246 148.993 133.741 149.285 134.11V134.107Z" fill="#FFE9F1"/>
</g>
<defs>
<clipPath id="clip0_1475_24303">
<rect width="77.7795" height="78.1464" fill="white" transform="translate(109.805 117.438)"/>
</clipPath>
</defs>
</svg>
